<?xml version="1.0" encoding="UTF-8" standalone="no"?>
<!DOCTYPE svg PUBLIC "-//W3C//DTD SVG 1.1//EN"
 "http://www.w3.org/Graphics/SVG/1.1/DTD/svg11.dtd">
<!-- Generated by graphviz version 2.38.0 (20140413.2041)
 -->
<!-- Title: ispgraph Pages: 1 -->
<svg width="1454pt" height="1440pt"
 viewBox="0.00 0.00 1454.01 1440.11" xmlns="http://www.w3.org/2000/svg" xmlns:xlink="http://www.w3.org/1999/xlink">
<g id="graph0" class="graph" transform="scale(1 1) rotate(0) translate(4 1436.11)">
<title>ispgraph</title>
<polygon fill="white" stroke="none" points="-4,4 -4,-1436.11 1450.01,-1436.11 1450.01,4 -4,4"/>
<!-- Унико -->
<g id="node1" class="node"><title>Унико</title>
<polygon fill="none" stroke="black" points="600.899,-737.111 579.871,-755.111 537.817,-755.111 516.789,-737.111 537.817,-719.111 579.871,-719.111 600.899,-737.111"/>
<text text-anchor="middle" x="558.844" y="-733.411" font-family="Times New Roman,serif" font-size="14.00">Унико</text>
</g>
<!-- ЭрТелеком -->
<g id="node3" class="node"><title>ЭрТелеком</title>
<polygon fill="none" stroke="black" points="1057.28,-691.111 1020.55,-722.165 947.078,-722.165 910.343,-691.111 947.078,-660.058 1020.55,-660.058 1057.28,-691.111"/>
<text text-anchor="middle" x="983.812" y="-694.911" font-family="Times New Roman,serif" font-size="14.00">ЭР&#45;Телеком</text>
<text text-anchor="middle" x="983.812" y="-679.911" font-family="Times New Roman,serif" font-size="14.00">транзит</text>
</g>
<!-- Унико&#45;&gt;ЭрТелеком -->
<g id="edge74" class="edge"><title>Унико&#45;&gt;ЭрТелеком</title>
<path fill="none" stroke="black" stroke-dasharray="1,5" d="M608.679,-736.8C670.272,-735.798 779.282,-731.993 871.492,-718.111 887.401,-715.716 904.372,-712.139 920.145,-708.365"/>
<ellipse fill="none" stroke="black" cx="604.674" cy="-736.86" rx="4" ry="4"/>
<ellipse fill="none" stroke="black" cx="924.386" cy="-707.329" rx="4.00001" ry="4.00001"/>
</g>
<!-- Ростелеком -->
<g id="node10" class="node"><title>Ростелеком</title>
<polygon fill="none" stroke="black" points="1435.3,-1051.11 1402.76,-1069.11 1337.67,-1069.11 1305.13,-1051.11 1337.67,-1033.11 1402.76,-1033.11 1435.3,-1051.11"/>
<text text-anchor="middle" x="1370.21" y="-1047.41" font-family="Times New Roman,serif" font-size="14.00">Ростелеком</text>
</g>
<!-- Унико&#45;&gt;Ростелеком -->
<g id="edge25" class="edge"><title>Унико&#45;&gt;Ростелеком</title>
<path fill="none" stroke="black" d="M570.499,-755.474C587.751,-783.484 624.534,-836.53 670.361,-864.111 900.285,-1002.49 1004.23,-915.068 1258.41,-1001.11 1281.54,-1008.94 1306.39,-1019.9 1326.68,-1029.57"/>
<polygon fill="black" stroke="black" points="1325.43,-1032.85 1335.96,-1034.05 1328.47,-1026.55 1325.43,-1032.85"/>
</g>
<!-- КвантТелеком -->
<g id="node12" class="node"><title>КвантТелеком</title>
<polygon fill="none" stroke="black" points="849.028,-783.111 809.977,-801.111 731.876,-801.111 692.825,-783.111 731.876,-765.111 809.977,-765.111 849.028,-783.111"/>
<text text-anchor="middle" x="770.927" y="-779.411" font-family="Times New Roman,serif" font-size="14.00">КвантТелеком</text>
</g>
<!-- Унико&#45;&gt;КвантТелеком -->
<g id="edge27" class="edge"><title>Унико&#45;&gt;КвантТелеком</title>
<path fill="none" stroke="black" d="M592.669,-744.299C623.285,-751.002 669.763,-761.179 707.446,-769.431"/>
<polygon fill="black" stroke="black" points="706.803,-772.873 717.32,-771.593 708.301,-766.035 706.803,-772.873"/>
</g>
<!-- Powernet -->
<g id="node19" class="node"><title>Powernet</title>
<polygon fill="none" stroke="black" points="822.495,-583.111 796.711,-601.111 745.142,-601.111 719.358,-583.111 745.142,-565.111 796.711,-565.111 822.495,-583.111"/>
<text text-anchor="middle" x="770.927" y="-579.411" font-family="Times New Roman,serif" font-size="14.00">Powernet</text>
</g>
<!-- Унико&#45;&gt;Powernet -->
<g id="edge44" class="edge"><title>Унико&#45;&gt;Powernet</title>
<path fill="none" stroke="black" d="M571.339,-711.966C589.039,-680.786 625.649,-629.128 670.361,-601.111 682.574,-593.459 696.946,-587.95 710.914,-584.272"/>
<ellipse fill="none" stroke="black" cx="569.376" cy="-715.541" rx="4.00002" ry="4.00002"/>
<polygon fill="black" stroke="black" points="712.039,-587.603 720.976,-581.913 710.442,-580.788 712.039,-587.603"/>
</g>
<!-- RETN -->
<g id="node20" class="node"><title>RETN</title>
<polygon fill="none" stroke="black" points="810.48,-837.111 790.703,-855.111 751.15,-855.111 731.373,-837.111 751.15,-819.111 790.703,-819.111 810.48,-837.111"/>
<text text-anchor="middle" x="770.927" y="-833.411" font-family="Times New Roman,serif" font-size="14.00">RETN</text>
</g>
<!-- Унико&#45;&gt;RETN -->
<g id="edge26" class="edge"><title>Унико&#45;&gt;RETN</title>
<path fill="none" stroke="black" d="M581.069,-754.128C602.478,-770.545 637.041,-795.06 670.361,-810.111 688.456,-818.285 709.55,-824.443 727.653,-828.798"/>
<polygon fill="black" stroke="black" points="727.111,-832.264 737.641,-831.094 728.68,-825.442 727.111,-832.264"/>
</g>
<!-- ДомРу -->
<g id="node2" class="node"><title>ДомРу</title>
<polygon fill="none" stroke="black" points="824.997,-691.111 797.962,-709.111 743.891,-709.111 716.856,-691.111 743.891,-673.111 797.962,-673.111 824.997,-691.111"/>
<text text-anchor="middle" x="770.927" y="-687.411" font-family="Times New Roman,serif" font-size="14.00">ДОМ.RU</text>
</g>
<!-- ДомРу&#45;&gt;ЭрТелеком -->
<g id="edge48" class="edge"><title>ДомРу&#45;&gt;ЭрТелеком</title>
<path fill="none" stroke="black" d="M833.149,-691.111C854.015,-691.111 877.704,-691.111 899.979,-691.111"/>
<ellipse fill="none" stroke="black" cx="829.142" cy="-691.111" rx="4" ry="4"/>
<polygon fill="black" stroke="black" points="900.099,-694.611 910.099,-691.111 900.099,-687.611 900.099,-694.611"/>
</g>
<!-- ЮТК -->
<g id="node15" class="node"><title>ЮТК</title>
<polygon fill="none" stroke="black" points="1248.34,-824.111 1212.81,-855.165 1141.74,-855.165 1106.2,-824.111 1141.74,-793.058 1212.81,-793.058 1248.34,-824.111"/>
<text text-anchor="middle" x="1177.27" y="-827.911" font-family="Times New Roman,serif" font-size="14.00">Ростелеком</text>
<text text-anchor="middle" x="1177.27" y="-812.911" font-family="Times New Roman,serif" font-size="14.00">Волгоград</text>
</g>
<!-- ЭрТелеком&#45;&gt;ЮТК -->
<g id="edge79" class="edge"><title>ЭрТелеком&#45;&gt;ЮТК</title>
<path fill="none" stroke="black" stroke-dasharray="1,5" d="M1031.69,-723.679C1061.79,-744.587 1100.69,-771.608 1130.56,-792.355"/>
<ellipse fill="none" stroke="black" cx="1028.23" cy="-721.275" rx="4.00002" ry="4.00002"/>
<ellipse fill="none" stroke="black" cx="1133.89" cy="-794.667" rx="4.00002" ry="4.00002"/>
</g>
<!-- Связьинформ -->
<g id="node24" class="node"><title>Связьинформ</title>
<polygon fill="none" stroke="black" points="1258.56,-373.674 1177.27,-386.111 1095.99,-373.674 1096.07,-353.549 1258.48,-353.549 1258.56,-373.674"/>
<text text-anchor="middle" x="1177.27" y="-364.411" font-family="Times New Roman,serif" font-size="14.00">Связьинформ</text>
</g>
<!-- ЭрТелеком&#45;&gt;Связьинформ -->
<g id="edge80" class="edge"><title>ЭрТелеком&#45;&gt;Связьинформ</title>
<path fill="none" stroke="black" stroke-dasharray="1,5" d="M1002.81,-652.43C1018.79,-617.452 1042.29,-564.35 1060.13,-517.111 1078.45,-468.592 1061.9,-445.074 1096.13,-406.111 1104.8,-396.244 1116.59,-388.734 1128.46,-383.105"/>
<ellipse fill="none" stroke="black" cx="1000.99" cy="-656.408" rx="4.00002" ry="4.00002"/>
<ellipse fill="none" stroke="black" cx="1132.17" cy="-381.459" rx="4.00002" ry="4.00002"/>
</g>
<!-- Транстелеком -->
<g id="node4" class="node"><title>Транстелеком</title>
<polygon fill="none" stroke="black" points="1445.81,-427.111 1408.01,-445.111 1332.41,-445.111 1294.61,-427.111 1332.41,-409.111 1408.01,-409.111 1445.81,-427.111"/>
<text text-anchor="middle" x="1370.21" y="-423.411" font-family="Times New Roman,serif" font-size="14.00">Транстелеком</text>
</g>
<!-- Волгатранстелеком -->
<g id="node5" class="node"><title>Волгатранстелеком</title>
<polygon fill="none" stroke="black" points="871.558,-1189.11 821.242,-1207.11 720.611,-1207.11 670.295,-1189.11 720.611,-1171.11 821.242,-1171.11 871.558,-1189.11"/>
<text text-anchor="middle" x="770.927" y="-1185.41" font-family="Times New Roman,serif" font-size="14.00">Волгатранстелеком</text>
</g>
<!-- Волгатранстелеком&#45;&gt;ЭрТелеком -->
<g id="edge77" class="edge"><title>Волгатранстелеком&#45;&gt;ЭрТелеком</title>
<path fill="none" stroke="black" stroke-dasharray="1,5" d="M852.103,-1176.03C859.288,-1172.42 865.934,-1167.85 871.492,-1162.11 901.96,-1130.63 956.672,-837.816 975.901,-730.387"/>
<ellipse fill="none" stroke="black" cx="848.404" cy="-1177.7" rx="4.00002" ry="4.00002"/>
<ellipse fill="none" stroke="black" cx="976.628" cy="-726.314" rx="4.00001" ry="4.00001"/>
</g>
<!-- Волгатранстелеком&#45;&gt;Транстелеком -->
<g id="edge46" class="edge"><title>Волгатранстелеком&#45;&gt;Транстелеком</title>
<path fill="none" stroke="black" d="M850.149,-1202.27C857.679,-1205.19 864.94,-1208.75 871.492,-1213.11 893.994,-1228.08 883.381,-1249.91 907.492,-1262.11 968.02,-1292.75 1008.99,-1306.68 1060.13,-1262.11 1104.27,-1223.64 1067.89,-1052.4 1096.13,-1001.11 1141.66,-918.429 1208.36,-944.134 1258.41,-864.111 1343.69,-727.782 1363.46,-528.809 1367.93,-455.549"/>
<ellipse fill="none" stroke="black" cx="846.313" cy="-1200.9" rx="4.00001" ry="4.00001"/>
<polygon fill="black" stroke="black" points="1371.44,-455.467 1368.51,-445.286 1364.46,-455.075 1371.44,-455.467"/>
</g>
<!-- Волгатранстелеком&#45;&gt;ЮТК -->
<g id="edge76" class="edge"><title>Волгатранстелеком&#45;&gt;ЮТК</title>
<path fill="none" stroke="black" stroke-dasharray="1,5" d="M833.395,-1208.23C846.041,-1212.34 859.235,-1216.76 871.492,-1221.11 950.724,-1249.22 996.838,-1290.44 1060.13,-1235.11 1105.21,-1195.71 1077.25,-1024.92 1096.13,-968.111 1108.82,-929.942 1131.74,-890.268 1149.83,-862.252"/>
<ellipse fill="none" stroke="black" cx="829.412" cy="-1206.94" rx="4.00001" ry="4.00001"/>
<ellipse fill="none" stroke="black" cx="1152.13" cy="-858.737" rx="4.00002" ry="4.00002"/>
</g>
<!-- Orange -->
<g id="node16" class="node"><title>Orange</title>
<polygon fill="none" stroke="black" points="1026.37,-1116.11 1005.09,-1134.11 962.534,-1134.11 941.256,-1116.11 962.534,-1098.11 1005.09,-1098.11 1026.37,-1116.11"/>
<text text-anchor="middle" x="983.812" y="-1112.41" font-family="Times New Roman,serif" font-size="14.00">Orange</text>
</g>
<!-- Волгатранстелеком&#45;&gt;Orange -->
<g id="edge78" class="edge"><title>Волгатранстелеком&#45;&gt;Orange</title>
<path fill="none" stroke="black" stroke-dasharray="1,5" d="M838.713,-1172.26C849.735,-1169.12 860.988,-1165.69 871.492,-1162.11 886.04,-1157.16 920.582,-1142.73 947.362,-1131.33"/>
<ellipse fill="none" stroke="black" cx="834.593" cy="-1173.41" rx="4.00001" ry="4.00001"/>
<ellipse fill="none" stroke="black" cx="951.359" cy="-1129.63" rx="4.00001" ry="4.00001"/>
</g>
<!-- Релком -->
<g id="node6" class="node"><title>Релком</title>
<polygon fill="none" stroke="black" points="1029.37,-246.111 1006.59,-264.111 961.032,-264.111 938.252,-246.111 961.032,-228.111 1006.59,-228.111 1029.37,-246.111"/>
<text text-anchor="middle" x="983.812" y="-242.411" font-family="Times New Roman,serif" font-size="14.00">Релком</text>
</g>
<!-- Мегафон -->
<g id="node7" class="node"><title>Мегафон</title>
<polygon fill="none" stroke="black" points="1036.88,-490.111 1010.35,-508.111 957.277,-508.111 930.742,-490.111 957.277,-472.111 1010.35,-472.111 1036.88,-490.111"/>
<text text-anchor="middle" x="983.812" y="-486.411" font-family="Times New Roman,serif" font-size="14.00">Мегафон</text>
</g>
<!-- Вымпелком -->
<g id="node8" class="node"><title>Вымпелком</title>
<polygon fill="none" stroke="black" points="1222.33,-433.111 1199.8,-451.111 1154.74,-451.111 1132.21,-433.111 1154.74,-415.111 1199.8,-415.111 1222.33,-433.111"/>
<text text-anchor="middle" x="1177.27" y="-429.411" font-family="Times New Roman,serif" font-size="14.00">Билайн</text>
</g>
<!-- КоламбияТелеком -->
<g id="node9" class="node"><title>КоламбияТелеком</title>
<polygon fill="none" stroke="black" points="867.052,-91.1113 818.989,-109.111 722.864,-109.111 674.801,-91.1113 722.864,-73.1113 818.989,-73.1113 867.052,-91.1113"/>
<text text-anchor="middle" x="770.927" y="-87.4113" font-family="Times New Roman,serif" font-size="14.00">КоламбияТелеком</text>
</g>
<!-- КоламбияТелеком&#45;&gt;Транстелеком -->
<g id="edge19" class="edge"><title>КоламбияТелеком&#45;&gt;Транстелеком</title>
<path fill="none" stroke="black" d="M829.825,-77.064C889.376,-65.3521 983.927,-54.462 1060.13,-81.1113 1166.5,-118.307 1184.52,-154.046 1258.41,-239.111 1302.55,-289.914 1338.78,-360.727 1356.83,-399.324"/>
<polygon fill="black" stroke="black" points="1353.86,-401.245 1361.22,-408.862 1360.22,-398.315 1353.86,-401.245"/>
</g>
<!-- КоламбияТелеком&#45;&gt;Мегафон -->
<g id="edge21" class="edge"><title>КоламбияТелеком&#45;&gt;Мегафон</title>
<path fill="none" stroke="black" d="M812.754,-109.359C833.019,-120.288 856.342,-135.993 871.492,-156.111 904.221,-199.572 890.569,-221.404 907.492,-273.111 929.847,-341.418 958.057,-421.099 972.798,-462.285"/>
<polygon fill="black" stroke="black" points="969.574,-463.664 976.244,-471.896 976.164,-461.301 969.574,-463.664"/>
</g>
<!-- КоламбияТелеком&#45;&gt;Вымпелком -->
<g id="edge20" class="edge"><title>КоламбияТелеком&#45;&gt;Вымпелком</title>
<path fill="none" stroke="black" d="M852.926,-85.7261C927.645,-82.6519 1031.24,-83.8142 1060.13,-111.111 1152.62,-198.487 1021.48,-292.084 1096.13,-395.111 1105.02,-407.37 1118.89,-415.817 1132.62,-421.573"/>
<polygon fill="black" stroke="black" points="1131.45,-424.871 1142.04,-425.141 1133.93,-418.325 1131.45,-424.871"/>
</g>
<!-- WestCall -->
<g id="node18" class="node"><title>WestCall</title>
<polygon fill="none" stroke="black" points="1034.88,-138.111 1009.35,-156.111 958.279,-156.111 932.746,-138.111 958.279,-120.111 1009.35,-120.111 1034.88,-138.111"/>
<text text-anchor="middle" x="983.812" y="-134.411" font-family="Times New Roman,serif" font-size="14.00">WestCall</text>
</g>
<!-- КоламбияТелеком&#45;&gt;WestCall -->
<g id="edge50" class="edge"><title>КоламбияТелеком&#45;&gt;WestCall</title>
<path fill="none" stroke="black" d="M840.012,-106.285C870.92,-113.174 906.748,-121.159 934.784,-127.407"/>
<ellipse fill="none" stroke="black" cx="835.698" cy="-105.324" rx="4.00001" ry="4.00001"/>
<polygon fill="black" stroke="black" points="934.215,-130.866 944.737,-129.626 935.738,-124.034 934.215,-130.866"/>
</g>
<!-- Евротелеком -->
<g id="node31" class="node"><title>Евротелеком</title>
<polygon fill="none" stroke="black" points="1059.95,-197.674 983.812,-210.111 907.671,-197.674 907.742,-177.549 1059.88,-177.549 1059.95,-197.674"/>
<text text-anchor="middle" x="983.812" y="-188.411" font-family="Times New Roman,serif" font-size="14.00">Евротелеком</text>
</g>
<!-- КоламбияТелеком&#45;&gt;Евротелеком -->
<g id="edge70" class="edge"><title>КоламбияТелеком&#45;&gt;Евротелеком</title>
<path fill="none" stroke="black" stroke-dasharray="1,5" d="M839.506,-107.221C850.688,-111.433 861.786,-116.661 871.492,-123.111 891.968,-136.72 887.245,-151.165 907.492,-165.111 912.368,-168.47 917.709,-171.459 923.224,-174.108"/>
<ellipse fill="none" stroke="black" cx="835.535" cy="-105.806" rx="4.00001" ry="4.00001"/>
<ellipse fill="none" stroke="black" cx="927.175" cy="-175.877" rx="4.00002" ry="4.00002"/>
</g>
<!-- HE -->
<g id="node11" class="node"><title>HE</title>
<polygon fill="none" stroke="black" points="797.927,-1281.11 784.427,-1299.11 757.427,-1299.11 743.927,-1281.11 757.427,-1263.11 784.427,-1263.11 797.927,-1281.11"/>
<text text-anchor="middle" x="770.927" y="-1277.41" font-family="Times New Roman,serif" font-size="14.00">HE</text>
</g>
<!-- Tele2 -->
<g id="node13" class="node"><title>Tele2</title>
<polygon fill="none" stroke="black" points="1212.32,-1028.11 1194.8,-1046.11 1159.75,-1046.11 1142.23,-1028.11 1159.75,-1010.11 1194.8,-1010.11 1212.32,-1028.11"/>
<text text-anchor="middle" x="1177.27" y="-1024.41" font-family="Times New Roman,serif" font-size="14.00">Tele2</text>
</g>
<!-- Tele2&#45;&gt;Транстелеком -->
<g id="edge3" class="edge"><title>Tele2&#45;&gt;Транстелеком</title>
<path fill="none" stroke="black" d="M1207.98,-1023.49C1225.21,-1019.25 1245.9,-1011.23 1258.41,-996.111 1328.39,-911.599 1359.55,-558.235 1367.24,-455.338"/>
<polygon fill="black" stroke="black" points="1370.75,-455.342 1367.99,-445.113 1363.77,-454.831 1370.75,-455.342"/>
</g>
<!-- Tele2&#45;&gt;Ростелеком -->
<g id="edge2" class="edge"><title>Tele2&#45;&gt;Ростелеком</title>
<path fill="none" stroke="black" d="M1208.95,-1031.81C1235.13,-1034.96 1273.61,-1039.6 1306.3,-1043.53"/>
<polygon fill="black" stroke="black" points="1305.9,-1047.01 1316.24,-1044.73 1306.73,-1040.06 1305.9,-1047.01"/>
</g>
<!-- МТС -->
<g id="node14" class="node"><title>МТС</title>
<polygon fill="none" stroke="black" points="805.974,-183.111 788.45,-201.111 753.403,-201.111 735.879,-183.111 753.403,-165.111 788.45,-165.111 805.974,-183.111"/>
<text text-anchor="middle" x="770.927" y="-179.411" font-family="Times New Roman,serif" font-size="14.00">МТС</text>
</g>
<!-- ЮТК&#45;&gt;Ростелеком -->
<g id="edge45" class="edge"><title>ЮТК&#45;&gt;Ростелеком</title>
<path fill="none" stroke="black" d="M1231.66,-848.978C1241.18,-854.789 1250.56,-861.531 1258.41,-869.111 1305.81,-914.866 1340.88,-985.037 1357.84,-1023.51"/>
<ellipse fill="none" stroke="black" cx="1228.17" cy="-846.934" rx="4.00002" ry="4.00002"/>
<polygon fill="black" stroke="black" points="1354.77,-1025.23 1361.95,-1033.03 1361.2,-1022.46 1354.77,-1025.23"/>
</g>
<!-- ПросторТелеком -->
<g id="node17" class="node"><title>ПросторТелеком</title>
<polygon fill="none" stroke="black" points="861.044,-491.111 815.985,-509.111 725.868,-509.111 680.809,-491.111 725.868,-473.111 815.985,-473.111 861.044,-491.111"/>
<text text-anchor="middle" x="770.927" y="-487.411" font-family="Times New Roman,serif" font-size="14.00">ПросторТелеком</text>
</g>
<!-- ПросторТелеком&#45;&gt;Мегафон -->
<g id="edge30" class="edge"><title>ПросторТелеком&#45;&gt;Мегафон</title>
<path fill="none" stroke="black" d="M860.139,-490.693C880.613,-490.596 901.978,-490.495 921.032,-490.404"/>
<polygon fill="black" stroke="black" points="921.08,-493.904 931.064,-490.357 921.047,-486.904 921.08,-493.904"/>
</g>
<!-- ПросторТелеком&#45;&gt;Вымпелком -->
<g id="edge29" class="edge"><title>ПросторТелеком&#45;&gt;Вымпелком</title>
<path fill="none" stroke="black" d="M829.599,-503.836C902.123,-518.56 1021.8,-538.24 1060.13,-517.111 1086.37,-502.648 1072.58,-478.629 1096.13,-460.111 1106.05,-452.314 1118.34,-446.709 1130.29,-442.703"/>
<polygon fill="black" stroke="black" points="1131.64,-445.952 1140.2,-439.701 1129.61,-439.253 1131.64,-445.952"/>
</g>
<!-- Powernet&#45;&gt;Унико -->
<g id="edge43" class="edge"><title>Powernet&#45;&gt;Унико</title>
<path fill="none" stroke="black" d="M728.286,-596.939C709.536,-601.659 687.757,-608.211 670.361,-619.111 632.368,-642.918 600.225,-683.794 580.563,-710.799"/>
<ellipse fill="none" stroke="black" cx="732.229" cy="-595.972" rx="4.00001" ry="4.00001"/>
<polygon fill="black" stroke="black" points="577.631,-708.881 574.626,-719.04 583.311,-712.972 577.631,-708.881"/>
</g>
<!-- Powernet&#45;&gt;ЭрТелеком -->
<g id="edge68" class="edge"><title>Powernet&#45;&gt;ЭрТелеком</title>
<path fill="none" stroke="black" stroke-dasharray="1,5" d="M820.384,-592.496C837.054,-596.694 855.53,-602.462 871.492,-610.111 895.998,-621.856 920.694,-639.145 940.577,-654.738"/>
<ellipse fill="none" stroke="black" cx="816.252" cy="-591.499" rx="4.00001" ry="4.00001"/>
<ellipse fill="none" stroke="black" cx="943.727" cy="-657.242" rx="4.00002" ry="4.00002"/>
</g>
<!-- Powernet&#45;&gt;Мегафон -->
<g id="edge14" class="edge"><title>Powernet&#45;&gt;Мегафон</title>
<path fill="none" stroke="black" d="M803.043,-569.389C839.85,-553.157 901.239,-526.085 941.874,-508.165"/>
<polygon fill="black" stroke="black" points="943.485,-511.28 951.223,-504.042 940.661,-504.875 943.485,-511.28"/>
</g>
<!-- Powernet&#45;&gt;Вымпелком -->
<g id="edge15" class="edge"><title>Powernet&#45;&gt;Вымпелком</title>
<path fill="none" stroke="black" d="M816.297,-587.591C877.426,-591.347 988.139,-589.181 1060.13,-535.111 1089.7,-512.907 1068.44,-484.606 1096.13,-460.111 1105.5,-451.829 1117.5,-446.069 1129.35,-442.07"/>
<polygon fill="black" stroke="black" points="1130.64,-445.338 1139.2,-439.108 1128.62,-438.634 1130.64,-445.338"/>
</g>
<!-- Powernet&#45;&gt;Евротелеком -->
<g id="edge69" class="edge"><title>Powernet&#45;&gt;Евротелеком</title>
<path fill="none" stroke="black" stroke-dasharray="1,5" d="M812.188,-566.972C833.377,-556.326 857.747,-540.225 871.492,-518.111 942.151,-404.433 824.037,-323.757 907.492,-219.111 912.072,-213.369 917.973,-208.847 924.454,-205.286"/>
<ellipse fill="none" stroke="black" cx="808.452" cy="-568.774" rx="4.00002" ry="4.00002"/>
<ellipse fill="none" stroke="black" cx="928.079" cy="-203.53" rx="4.00002" ry="4.00002"/>
</g>
<!-- МКС -->
<g id="node21" class="node"><title>МКС</title>
<polygon fill="none" stroke="black" points="628.689,-281.441 558.844,-304.539 488.999,-281.441 489.064,-244.068 628.624,-244.068 628.689,-281.441"/>
<text text-anchor="middle" x="558.844" y="-274.911" font-family="Times New Roman,serif" font-size="14.00">МТС</text>
<text text-anchor="middle" x="558.844" y="-259.911" font-family="Times New Roman,serif" font-size="14.00">Волгоград</text>
</g>
<!-- МКС&#45;&gt;МТС -->
<g id="edge13" class="edge"><title>МКС&#45;&gt;МТС</title>
<path fill="none" stroke="black" d="M603.283,-243.972C623.182,-232.376 647.405,-219.402 670.361,-210.111 689.972,-202.174 712.684,-195.813 731.459,-191.264"/>
<polygon fill="black" stroke="black" points="732.503,-194.614 741.441,-188.924 730.906,-187.799 732.503,-194.614"/>
</g>
<!-- СпринтСеть -->
<g id="node25" class="node"><title>СпринтСеть</title>
<polygon fill="none" stroke="black" points="844.141,-296.674 770.927,-309.111 697.713,-296.674 697.781,-276.549 844.072,-276.549 844.141,-296.674"/>
<text text-anchor="middle" x="770.927" y="-287.411" font-family="Times New Roman,serif" font-size="14.00">СпринтСеть</text>
</g>
<!-- МКС&#45;&gt;СпринтСеть -->
<g id="edge63" class="edge"><title>МКС&#45;&gt;СпринтСеть</title>
<path fill="none" stroke="black" stroke-dasharray="1,5" d="M637.015,-278.458C654.023,-280.077 672.082,-281.796 689.225,-283.429"/>
<ellipse fill="none" stroke="black" cx="632.906" cy="-278.067" rx="4" ry="4"/>
<ellipse fill="none" stroke="black" cx="693.577" cy="-283.843" rx="4" ry="4"/>
</g>
<!-- ГородокТочкаРу -->
<g id="node22" class="node"><title>ГородокТочкаРу</title>
<polygon fill="none" stroke="black" points="380.041,-742.674 309.147,-755.111 238.253,-742.674 238.319,-722.549 379.975,-722.549 380.041,-742.674"/>
<text text-anchor="middle" x="309.147" y="-733.411" font-family="Times New Roman,serif" font-size="14.00">Городок.Ру</text>
</g>
<!-- ГородокТочкаРу&#45;&gt;Унико -->
<g id="edge56" class="edge"><title>ГородокТочкаРу&#45;&gt;Унико</title>
<path fill="none" stroke="black" d="M388.255,-737.111C426.841,-737.111 472.32,-737.111 506.463,-737.111"/>
<ellipse fill="black" stroke="black" cx="384.134" cy="-737.111" rx="4" ry="4"/>
<polygon fill="black" stroke="black" points="506.675,-740.611 516.675,-737.111 506.675,-733.611 506.675,-740.611"/>
</g>
<!-- STARLINE -->
<g id="node23" class="node"><title>STARLINE</title>
<polygon fill="none" stroke="black" points="134.95,-342.674 67.4833,-355.111 0.0166721,-342.674 0.0796443,-322.549 134.887,-322.549 134.95,-342.674"/>
<text text-anchor="middle" x="67.4833" y="-333.411" font-family="Times New Roman,serif" font-size="14.00">STARLINE</text>
</g>
<!-- Связьинформ&#45;&gt;Унико -->
<g id="edge39" class="edge"><title>Связьинформ&#45;&gt;Унико</title>
<path fill="none" stroke="black" d="M1087.87,-353.337C960.577,-334.137 733.943,-308.352 670.361,-356.111 612.521,-399.558 575.189,-628.248 563.655,-708.913"/>
<ellipse fill="none" stroke="black" cx="1092.16" cy="-353.989" rx="4.00001" ry="4.00001"/>
<polygon fill="black" stroke="black" points="560.184,-708.463 562.258,-718.853 567.115,-709.438 560.184,-708.463"/>
</g>
<!-- Связьинформ&#45;&gt;Транстелеком -->
<g id="edge1" class="edge"><title>Связьинформ&#45;&gt;Транстелеком</title>
<path fill="none" stroke="black" d="M1216.91,-380.051C1244.84,-388.68 1282.96,-400.46 1314.08,-410.076"/>
<polygon fill="black" stroke="black" points="1313.33,-413.507 1323.92,-413.115 1315.4,-406.819 1313.33,-413.507"/>
</g>
<!-- СпринтСеть&#45;&gt;Мегафон -->
<g id="edge5" class="edge"><title>СпринтСеть&#45;&gt;Мегафон</title>
<path fill="none" stroke="black" d="M799.427,-304.38C821.003,-315.814 850.754,-333.958 871.492,-356.111 893.795,-379.937 887.298,-394.474 907.492,-420.111 920.447,-436.558 937.341,-452.628 951.845,-465.213"/>
<polygon fill="black" stroke="black" points="949.732,-468.011 959.616,-471.827 954.269,-462.68 949.732,-468.011"/>
</g>
<!-- СпринтСеть&#45;&gt;Вымпелком -->
<g id="edge4" class="edge"><title>СпринтСеть&#45;&gt;Вымпелком</title>
<path fill="none" stroke="black" d="M806.401,-303.218C880.851,-329.364 1056.35,-390.995 1135.86,-418.919"/>
<polygon fill="black" stroke="black" points="1134.93,-422.3 1145.52,-422.312 1137.25,-415.696 1134.93,-422.3"/>
</g>
<!-- СпринтСеть&#45;&gt;Связьинформ -->
<g id="edge62" class="edge"><title>СпринтСеть&#45;&gt;Связьинформ</title>
<path fill="none" stroke="black" stroke-dasharray="1,5" d="M852.217,-290.94C910.715,-292.527 991.414,-298.29 1060.13,-316.111 1089.34,-323.685 1120.43,-337.976 1143.09,-349.662"/>
<ellipse fill="none" stroke="black" cx="848.112" cy="-290.84" rx="4" ry="4"/>
<ellipse fill="none" stroke="black" cx="1146.89" cy="-351.655" rx="4.00002" ry="4.00002"/>
</g>
<!-- Старнет -->
<g id="node26" class="node"><title>Старнет</title>
<polygon fill="none" stroke="black" points="119.923,-288.674 67.4833,-301.111 15.0439,-288.674 15.0929,-268.549 119.874,-268.549 119.923,-288.674"/>
<text text-anchor="middle" x="67.4833" y="-279.411" font-family="Times New Roman,serif" font-size="14.00">Старнет</text>
</g>
<!-- Старнет&#45;&gt;Унико -->
<g id="edge41" class="edge"><title>Старнет&#45;&gt;Унико</title>
<path fill="none" stroke="black" d="M116.212,-294.82C123.491,-298.584 130.164,-303.553 134.967,-310.111 194.761,-391.764 96.6289,-695.435 170.967,-764.111 216.076,-805.785 386.354,-771.451 447.327,-764.111 471.088,-761.251 497.116,-755.049 517.941,-749.31"/>
<ellipse fill="none" stroke="black" cx="112.42" cy="-293.098" rx="4.00002" ry="4.00002"/>
<polygon fill="black" stroke="black" points="519.043,-752.636 527.714,-746.547 517.139,-745.9 519.043,-752.636"/>
</g>
<!-- Старнет&#45;&gt;Транстелеком -->
<g id="edge6" class="edge"><title>Старнет&#45;&gt;Транстелеком</title>
<path fill="none" stroke="black" d="M70.9226,-268.509C78.2309,-229.687 103.754,-123.455 170.967,-73.1113 310.576,31.4592 383.414,-7.11133 557.844,-7.11133 557.844,-7.11133 557.844,-7.11133 984.812,-7.11133 1112.15,-7.11133 1167.56,-2.89583 1258.41,-92.1113 1346.01,-178.126 1364.36,-334.769 1368.2,-398.747"/>
<polygon fill="black" stroke="black" points="1364.71,-399.085 1368.73,-408.888 1371.7,-398.719 1364.71,-399.085"/>
</g>
<!-- Старнет&#45;&gt;КоламбияТелеком -->
<g id="edge40" class="edge"><title>Старнет&#45;&gt;КоламбияТелеком</title>
<path fill="none" stroke="black" d="M94.5629,-263.412C157.33,-217.388 323.48,-103.714 483.327,-64.1113 558.533,-45.4787 647.759,-59.3156 706.442,-73.1288"/>
<ellipse fill="none" stroke="black" cx="90.991" cy="-266.048" rx="4.00002" ry="4.00002"/>
<polygon fill="black" stroke="black" points="705.769,-76.5668 716.312,-75.5196 707.417,-69.7636 705.769,-76.5668"/>
</g>
<!-- Магистраль -->
<g id="node43" class="node"><title>Магистраль</title>
<polygon fill="none" stroke="black" points="380.041,-526.674 309.147,-539.111 238.253,-526.674 238.319,-506.549 379.975,-506.549 380.041,-526.674"/>
<text text-anchor="middle" x="309.147" y="-517.411" font-family="Times New Roman,serif" font-size="14.00">Магистраль</text>
</g>
<!-- Старнет&#45;&gt;Магистраль -->
<g id="edge64" class="edge"><title>Старнет&#45;&gt;Магистраль</title>
<path fill="none" stroke="black" stroke-dasharray="1,5" d="M109.63,-296.09C118.433,-299.863 127.363,-304.513 134.967,-310.111 208.949,-364.581 270.193,-457.553 295.566,-499.479"/>
<ellipse fill="none" stroke="black" cx="105.672" cy="-294.494" rx="4.00001" ry="4.00001"/>
<ellipse fill="none" stroke="black" cx="297.69" cy="-503.027" rx="4.00002" ry="4.00002"/>
</g>
<!-- Экспилайн -->
<g id="node27" class="node"><title>Экспилайн</title>
<polygon fill="none" stroke="black" points="837.787,-388.674 770.927,-401.111 704.066,-388.674 704.129,-368.549 837.725,-368.549 837.787,-388.674"/>
<text text-anchor="middle" x="770.927" y="-379.411" font-family="Times New Roman,serif" font-size="14.00">Экспилайн</text>
</g>
<!-- Экспилайн&#45;&gt;Мегафон -->
<g id="edge7" class="edge"><title>Экспилайн&#45;&gt;Мегафон</title>
<path fill="none" stroke="black" d="M819.01,-392.212C836.025,-396.442 855.076,-402.303 871.492,-410.111 902.175,-424.705 933.255,-447.901 954.748,-465.567"/>
<polygon fill="black" stroke="black" points="952.577,-468.313 962.496,-472.037 957.064,-462.94 952.577,-468.313"/>
</g>
<!-- Экспилайн&#45;&gt;Связьинформ -->
<g id="edge65" class="edge"><title>Экспилайн&#45;&gt;Связьинформ</title>
<path fill="none" stroke="black" stroke-dasharray="1,5" d="M845.806,-380.371C913.912,-377.844 1015.11,-374.09 1087.57,-371.402"/>
<ellipse fill="none" stroke="black" cx="841.789" cy="-380.52" rx="4" ry="4"/>
<ellipse fill="none" stroke="black" cx="1091.81" cy="-371.245" rx="4" ry="4"/>
</g>
<!-- ЭРОС -->
<g id="node28" class="node"><title>ЭРОС</title>
<polygon fill="none" stroke="black" points="603.216,-1217.67 558.844,-1230.11 514.472,-1217.67 514.514,-1197.55 603.174,-1197.55 603.216,-1217.67"/>
<text text-anchor="middle" x="558.844" y="-1208.41" font-family="Times New Roman,serif" font-size="14.00">ЭРОС</text>
</g>
<!-- ЭРОС&#45;&gt;Волгатранстелеком -->
<g id="edge8" class="edge"><title>ЭРОС&#45;&gt;Волгатранстелеком</title>
<path fill="none" stroke="black" d="M603.118,-1207.37C626.333,-1204.83 655.789,-1201.61 683.467,-1198.58"/>
<polygon fill="black" stroke="black" points="684.01,-1202.04 693.57,-1197.47 683.248,-1195.08 684.01,-1202.04"/>
</g>
<!-- ЭРОС&#45;&gt;Мегафон -->
<g id="edge10" class="edge"><title>ЭРОС&#45;&gt;Мегафон</title>
<path fill="none" stroke="black" d="M567.497,-1197.38C590.009,-1154.23 655.359,-1030.24 670.361,-1016.11 742.753,-947.94 813.253,-998.71 871.492,-918.111 941.621,-821.056 873.734,-765.995 907.492,-651.111 921.999,-601.741 949.564,-548.378 967.021,-517.171"/>
<polygon fill="black" stroke="black" points="970.205,-518.652 972.089,-508.226 964.114,-515.202 970.205,-518.652"/>
</g>
<!-- ЭРОС&#45;&gt;HE -->
<g id="edge9" class="edge"><title>ЭРОС&#45;&gt;HE</title>
<path fill="none" stroke="black" d="M588.898,-1221.95C611.169,-1229.46 642.676,-1240.03 670.361,-1249.11 693.426,-1256.68 719.555,-1265.07 739.258,-1271.36"/>
<polygon fill="black" stroke="black" points="738.334,-1274.74 748.925,-1274.44 740.461,-1268.07 738.334,-1274.74"/>
</g>
<!-- ЭРОС&#45;&gt;Tele2 -->
<g id="edge42" class="edge"><title>ЭРОС&#45;&gt;Tele2</title>
<path fill="none" stroke="black" d="M611.229,-1214.05C688.195,-1217.79 828.932,-1228.04 871.492,-1254.11 895.462,-1268.79 882.594,-1293.07 907.492,-1306.11 967.584,-1337.6 1003.67,-1343.72 1060.13,-1306.11 1146,-1248.93 1168.49,-1114.85 1174.3,-1056.3"/>
<ellipse fill="none" stroke="black" cx="607.073" cy="-1213.86" rx="4" ry="4"/>
<polygon fill="black" stroke="black" points="1177.79,-1056.56 1175.2,-1046.28 1170.82,-1055.93 1177.79,-1056.56"/>
</g>
<!-- Comrise -->
<g id="node29" class="node"><title>Comrise</title>
<polygon fill="none" stroke="black" points="360.479,-1010.67 309.147,-1023.11 257.815,-1010.67 257.863,-990.549 360.431,-990.549 360.479,-1010.67"/>
<text text-anchor="middle" x="309.147" y="-1001.41" font-family="Times New Roman,serif" font-size="14.00">Comrise</text>
</g>
<!-- Comrise&#45;&gt;Унико -->
<g id="edge66" class="edge"><title>Comrise&#45;&gt;Унико</title>
<path fill="none" stroke="black" stroke-dasharray="1,5" d="M344.751,-986.395C374.339,-969.24 416.846,-941.748 447.327,-910.111 491.352,-864.417 527.594,-798.607 545.586,-762.761"/>
<ellipse fill="none" stroke="black" cx="340.994" cy="-988.544" rx="4.00002" ry="4.00002"/>
<ellipse fill="none" stroke="black" cx="547.575" cy="-758.748" rx="4.00002" ry="4.00002"/>
</g>
<!-- Comrise&#45;&gt;Вымпелком -->
<g id="edge12" class="edge"><title>Comrise&#45;&gt;Вымпелком</title>
<path fill="none" stroke="black" d="M317.854,-1021.25C338.655,-1063.19 400.039,-1176.64 483.327,-1239.11 553.413,-1291.68 801.603,-1360.94 871.492,-1308.11 918.293,-1272.73 865.344,-1221.92 907.492,-1181.11 957.717,-1132.48 1015.65,-1197.04 1060.13,-1143.11 1156.85,-1025.86 1004.24,-581.176 1096.13,-460.111 1103.77,-450.053 1115.32,-443.706 1127.29,-439.711"/>
<polygon fill="black" stroke="black" points="1128.25,-443.078 1136.92,-436.986 1126.34,-436.342 1128.25,-443.078"/>
</g>
<!-- Comrise&#45;&gt;Ростелеком -->
<g id="edge11" class="edge"><title>Comrise&#45;&gt;Ростелеком</title>
<path fill="none" stroke="black" d="M315.682,-1021.88C332.546,-1070.32 388.033,-1211.64 483.327,-1284.11 588.98,-1364.46 637.191,-1368.11 769.927,-1368.11 769.927,-1368.11 769.927,-1368.11 984.812,-1368.11 1166.44,-1368.11 1308.71,-1154.87 1354.01,-1078.18"/>
<polygon fill="black" stroke="black" points="1357.04,-1079.93 1359.05,-1069.52 1350.99,-1076.4 1357.04,-1079.93"/>
</g>
<!-- Comrise&#45;&gt;Powernet -->
<g id="edge67" class="edge"><title>Comrise&#45;&gt;Powernet</title>
<path fill="none" stroke="black" stroke-dasharray="1,5" d="M339.047,-985.8C367.042,-966.929 410.541,-937.172 447.327,-910.111 532.272,-847.622 577.56,-852.96 634.361,-764.111 672.222,-704.89 621.54,-660.68 670.361,-610.111 682.067,-597.986 698.62,-591.127 714.875,-587.301"/>
<ellipse fill="none" stroke="black" cx="335.595" cy="-988.122" rx="4.00002" ry="4.00002"/>
<ellipse fill="none" stroke="black" cx="718.892" cy="-586.468" rx="4.00001" ry="4.00001"/>
</g>
<!-- VSSA -->
<g id="node30" class="node"><title>VSSA</title>
<polygon fill="none" stroke="black" points="813.584,-1140.67 770.927,-1153.11 728.269,-1140.67 728.309,-1120.55 813.544,-1120.55 813.584,-1140.67"/>
<text text-anchor="middle" x="770.927" y="-1131.41" font-family="Times New Roman,serif" font-size="14.00">VSSA</text>
</g>
<!-- VSSA&#45;&gt;Orange -->
<g id="edge16" class="edge"><title>VSSA&#45;&gt;Orange</title>
<path fill="none" stroke="black" d="M813.591,-1131.36C848.442,-1128.22 898.184,-1123.74 934.72,-1120.44"/>
<polygon fill="black" stroke="black" points="935.482,-1123.89 945.127,-1119.51 934.854,-1116.92 935.482,-1123.89"/>
</g>
<!-- Евротелеком&#45;&gt;Транстелеком -->
<g id="edge17" class="edge"><title>Евротелеком&#45;&gt;Транстелеком</title>
<path fill="none" stroke="black" d="M1022.6,-203.935C1034.8,-208.205 1048.24,-213.396 1060.13,-219.111 1170.26,-272.021 1286.15,-360.096 1339.34,-402.634"/>
<polygon fill="black" stroke="black" points="1337.34,-405.519 1347.32,-409.058 1341.72,-400.064 1337.34,-405.519"/>
</g>
<!-- Евротелеком&#45;&gt;Вымпелком -->
<g id="edge18" class="edge"><title>Евротелеком&#45;&gt;Вымпелком</title>
<path fill="none" stroke="black" d="M1034.68,-201.87C1044.27,-205.811 1053.4,-211.344 1060.13,-219.111 1112.43,-279.442 1046.87,-332.277 1096.13,-395.111 1105.47,-407.025 1119.46,-415.392 1133.14,-421.18"/>
<polygon fill="black" stroke="black" points="1131.92,-424.46 1142.51,-424.787 1134.44,-417.927 1131.92,-424.46"/>
</g>
<!-- Virgin -->
<g id="node32" class="node"><title>Virgin</title>
<polygon fill="none" stroke="black" points="599.182,-1048.67 558.844,-1061.11 518.506,-1048.67 518.544,-1028.55 599.144,-1028.55 599.182,-1048.67"/>
<text text-anchor="middle" x="558.844" y="-1039.41" font-family="Times New Roman,serif" font-size="14.00">Virgin</text>
</g>
<!-- Virgin&#45;&gt;Волгатранстелеком -->
<g id="edge61" class="edge"><title>Virgin&#45;&gt;Волгатранстелеком</title>
<path fill="none" stroke="black" d="M574.136,-1064.77C592.994,-1091.63 628.716,-1136.95 670.361,-1162.11 677.879,-1166.65 686.17,-1170.45 694.663,-1173.61"/>
<ellipse fill="black" stroke="black" cx="571.763" cy="-1061.33" rx="4.00002" ry="4.00002"/>
<polygon fill="black" stroke="black" points="693.712,-1176.99 704.306,-1176.92 695.985,-1170.36 693.712,-1176.99"/>
</g>
<!-- Virgin&#45;&gt;Мегафон -->
<g id="edge23" class="edge"><title>Virgin&#45;&gt;Мегафон</title>
<path fill="none" stroke="black" d="M573.231,-1028.4C592.847,-1007.55 631.328,-969.266 670.361,-945.111 752.308,-894.401 811.07,-939.185 871.492,-864.111 931.689,-789.318 878.89,-742.761 907.492,-651.111 922.822,-601.991 950.138,-548.552 967.321,-517.262"/>
<polygon fill="black" stroke="black" points="970.508,-518.733 972.304,-508.291 964.388,-515.334 970.508,-518.733"/>
</g>
<!-- Virgin&#45;&gt;Вымпелком -->
<g id="edge22" class="edge"><title>Virgin&#45;&gt;Вымпелком</title>
<path fill="none" stroke="black" d="M599.161,-1032.85C660.728,-1015.6 782.086,-976.846 871.492,-918.111 970.159,-853.293 1007.63,-836.845 1060.13,-731.111 1114.17,-622.288 1018.89,-553.901 1096.13,-460.111 1104.08,-450.461 1115.61,-444.243 1127.46,-440.242"/>
<polygon fill="black" stroke="black" points="1128.77,-443.506 1137.41,-437.376 1126.83,-436.779 1128.77,-443.506"/>
</g>
<!-- Virgin&#45;&gt;Ростелеком -->
<g id="edge24" class="edge"><title>Virgin&#45;&gt;Ростелеком</title>
<path fill="none" stroke="black" d="M588.581,-1052.14C610.685,-1058.59 642.123,-1066.71 670.361,-1070.11 903.899,-1098.23 1184.36,-1072.88 1306.86,-1058.91"/>
<polygon fill="black" stroke="black" points="1307.28,-1062.38 1316.81,-1057.76 1306.47,-1055.43 1307.28,-1062.38"/>
</g>
<!-- Энфорта -->
<g id="node33" class="node"><title>Энфорта</title>
<polygon fill="none" stroke="black" points="1233.75,-546.674 1177.27,-559.111 1120.8,-546.674 1120.85,-526.549 1233.69,-526.549 1233.75,-546.674"/>
<text text-anchor="middle" x="1177.27" y="-537.411" font-family="Times New Roman,serif" font-size="14.00">Энфорта</text>
</g>
<!-- Энфорта&#45;&gt;Транстелеком -->
<g id="edge28" class="edge"><title>Энфорта&#45;&gt;Транстелеком</title>
<path fill="none" stroke="black" d="M1230.24,-526.492C1239.86,-522.986 1249.63,-518.857 1258.41,-514.111 1289.71,-497.207 1321.2,-471.434 1342.57,-452.323"/>
<polygon fill="black" stroke="black" points="1345.19,-454.67 1350.24,-445.357 1340.49,-449.488 1345.19,-454.67"/>
</g>
<!-- WMAX -->
<g id="node34" class="node"><title>WMAX</title>
<polygon fill="none" stroke="black" points="820.545,-242.674 770.927,-255.111 721.308,-242.674 721.354,-222.549 820.499,-222.549 820.545,-242.674"/>
<text text-anchor="middle" x="770.927" y="-233.411" font-family="Times New Roman,serif" font-size="14.00">WMAX</text>
</g>
<!-- WMAX&#45;&gt;Релком -->
<g id="edge33" class="edge"><title>WMAX&#45;&gt;Релком</title>
<path fill="none" stroke="black" d="M820.573,-239.187C853.423,-240.589 896.757,-242.439 930.375,-243.873"/>
<polygon fill="black" stroke="black" points="930.334,-247.375 940.474,-244.304 930.633,-240.381 930.334,-247.375"/>
</g>
<!-- WMAX&#45;&gt;Мегафон -->
<g id="edge31" class="edge"><title>WMAX&#45;&gt;Мегафон</title>
<path fill="none" stroke="black" d="M820.595,-241.894C838.17,-245.658 857.183,-252.327 871.492,-264.111 935.052,-316.459 965.331,-414.037 976.905,-462.01"/>
<polygon fill="black" stroke="black" points="973.553,-463.049 979.217,-472.003 980.373,-461.471 973.553,-463.049"/>
</g>
<!-- WMAX&#45;&gt;WestCall -->
<g id="edge32" class="edge"><title>WMAX&#45;&gt;WestCall</title>
<path fill="none" stroke="black" d="M820.591,-230.313C837.677,-226.326 856.365,-220.031 871.492,-210.111 892.91,-196.066 886.648,-179.996 907.492,-165.111 915.886,-159.117 925.747,-154.329 935.518,-150.551"/>
<polygon fill="black" stroke="black" points="936.954,-153.755 945.201,-147.103 934.606,-147.161 936.954,-153.755"/>
</g>
<!-- InstrNet -->
<g id="node35" class="node"><title>InstrNet</title>
<polygon fill="none" stroke="black" points="820.545,-642.674 770.927,-655.111 721.308,-642.674 721.354,-622.549 820.499,-622.549 820.545,-642.674"/>
<text text-anchor="middle" x="770.927" y="-633.411" font-family="Times New Roman,serif" font-size="14.00">InstrNet</text>
</g>
<!-- InstrNet&#45;&gt;ЭрТелеком -->
<g id="edge49" class="edge"><title>InstrNet&#45;&gt;ЭрТелеком</title>
<path fill="none" stroke="black" d="M815.18,-648.187C844.522,-655.7 883.861,-665.774 917.056,-674.274"/>
<ellipse fill="none" stroke="black" cx="811.099" cy="-647.142" rx="4.00001" ry="4.00001"/>
<polygon fill="black" stroke="black" points="916.587,-677.766 927.143,-676.856 918.324,-670.985 916.587,-677.766"/>
</g>
<!-- InstrNet&#45;&gt;Мегафон -->
<g id="edge34" class="edge"><title>InstrNet&#45;&gt;Мегафон</title>
<path fill="none" stroke="black" d="M820.71,-629.576C837.621,-625.526 856.166,-619.379 871.492,-610.111 911.208,-586.096 945.558,-543.88 965.223,-516.462"/>
<polygon fill="black" stroke="black" points="968.197,-518.317 971.08,-508.122 962.469,-514.294 968.197,-518.317"/>
</g>
<!-- ТСвязь -->
<g id="node36" class="node"><title>ТСвязь</title>
<polygon fill="none" stroke="black" points="820.545,-442.674 770.927,-455.111 721.308,-442.674 721.354,-422.549 820.499,-422.549 820.545,-442.674"/>
<text text-anchor="middle" x="770.927" y="-433.411" font-family="Times New Roman,serif" font-size="14.00">ТСвязь</text>
</g>
<!-- ТСвязь&#45;&gt;Мегафон -->
<g id="edge35" class="edge"><title>ТСвязь&#45;&gt;Мегафон</title>
<path fill="none" stroke="black" d="M807.7,-446.102C842.651,-454.886 896.087,-468.315 934.738,-478.029"/>
<polygon fill="black" stroke="black" points="934.17,-481.495 944.722,-480.538 935.877,-474.706 934.17,-481.495"/>
</g>
<!-- ТСвязь&#45;&gt;Вымпелком -->
<g id="edge36" class="edge"><title>ТСвязь&#45;&gt;Вымпелком</title>
<path fill="none" stroke="black" d="M820.7,-436.629C896.787,-435.876 1043.19,-434.428 1122.33,-433.645"/>
<polygon fill="black" stroke="black" points="1122.61,-437.142 1132.57,-433.544 1122.54,-430.143 1122.61,-437.142"/>
</g>
<!-- Восток -->
<g id="node37" class="node"><title>Восток</title>
<polygon fill="none" stroke="black" points="819.332,-1048.67 770.927,-1061.11 722.521,-1048.67 722.566,-1028.55 819.287,-1028.55 819.332,-1048.67"/>
<text text-anchor="middle" x="770.927" y="-1039.41" font-family="Times New Roman,serif" font-size="14.00">Восток</text>
</g>
<!-- Восток&#45;&gt;Мегафон -->
<g id="edge37" class="edge"><title>Восток&#45;&gt;Мегафон</title>
<path fill="none" stroke="black" d="M805.929,-1028.45C828.458,-1016.85 856.526,-998.383 871.492,-973.111 944.871,-849.207 868.463,-789.724 907.492,-651.111 921.438,-601.58 949.173,-548.266 966.817,-517.112"/>
<polygon fill="black" stroke="black" points="969.999,-518.599 971.942,-508.184 963.928,-515.114 969.999,-518.599"/>
</g>
<!-- Восток&#45;&gt;Tele2 -->
<g id="edge38" class="edge"><title>Восток&#45;&gt;Tele2</title>
<path fill="none" stroke="black" d="M819.499,-1041.35C898.754,-1038.41 1056.63,-1032.55 1132.96,-1029.72"/>
<polygon fill="black" stroke="black" points="1133.31,-1033.21 1143.18,-1029.34 1133.05,-1026.21 1133.31,-1033.21"/>
</g>
<!-- ВистОнЛайн -->
<g id="node38" class="node"><title>ВистОнЛайн</title>
<polygon fill="none" stroke="black" points="385.288,-688.674 309.147,-701.111 233.006,-688.674 233.077,-668.549 385.217,-668.549 385.288,-688.674"/>
<text text-anchor="middle" x="309.147" y="-679.411" font-family="Times New Roman,serif" font-size="14.00">ВистОнЛайн</text>
</g>
<!-- ВистОнЛайн&#45;&gt;Унико -->
<g id="edge47" class="edge"><title>ВистОнЛайн&#45;&gt;Унико</title>
<path fill="none" stroke="black" d="M369.443,-694.174C393.647,-698.848 421.878,-704.501 447.327,-710.111 470.201,-715.154 495.6,-721.319 516.275,-726.484"/>
<ellipse fill="none" stroke="black" cx="365.327" cy="-693.383" rx="4.00001" ry="4.00001"/>
<polygon fill="black" stroke="black" points="515.462,-729.889 526.014,-728.93 517.168,-723.099 515.462,-729.889"/>
</g>
<!-- SmIT34 -->
<g id="node39" class="node"><title>SmIT34</title>
<polygon fill="none" stroke="black" points="608.463,-96.6736 558.844,-109.111 509.225,-96.6736 509.271,-76.549 608.417,-76.549 608.463,-96.6736"/>
<text text-anchor="middle" x="558.844" y="-87.4113" font-family="Times New Roman,serif" font-size="14.00">SmIT34</text>
</g>
<!-- SmIT34&#45;&gt;КоламбияТелеком -->
<g id="edge51" class="edge"><title>SmIT34&#45;&gt;КоламбияТелеком</title>
<path fill="none" stroke="black" d="M616.631,-91.1113C631.484,-91.1113 647.981,-91.1113 664.491,-91.1113"/>
<ellipse fill="none" stroke="black" cx="612.569" cy="-91.1114" rx="4" ry="4"/>
<polygon fill="black" stroke="black" points="664.758,-94.6114 674.758,-91.1113 664.758,-87.6114 664.758,-94.6114"/>
</g>
<!-- ВолгаЛинк -->
<g id="node40" class="node"><title>ВолгаЛинк</title>
<polygon fill="none" stroke="black" points="1050.67,-1213.67 983.812,-1226.11 916.952,-1213.67 917.014,-1193.55 1050.61,-1193.55 1050.67,-1213.67"/>
<text text-anchor="middle" x="983.812" y="-1204.41" font-family="Times New Roman,serif" font-size="14.00">ВолгаЛинк</text>
</g>
<!-- ВолгаЛинк&#45;&gt;ЮТК -->
<g id="edge52" class="edge"><title>ВолгаЛинк&#45;&gt;ЮТК</title>
<path fill="none" stroke="black" d="M1045,-1189.52C1050.73,-1185.82 1055.95,-1181.39 1060.13,-1176.11 1118.41,-1102.59 1064.88,-1056.57 1096.13,-968.111 1109.29,-930.868 1131.56,-891.914 1149.3,-863.927"/>
<ellipse fill="black" stroke="black" cx="1041.53" cy="-1191.53" rx="4.00002" ry="4.00002"/>
<polygon fill="black" stroke="black" points="1152.41,-865.546 1154.88,-855.241 1146.53,-861.763 1152.41,-865.546"/>
</g>
<!-- Волгателком -->
<g id="node41" class="node"><title>Волгателком</title>
<polygon fill="none" stroke="black" points="634.378,-150.674 558.844,-163.111 483.31,-150.674 483.38,-130.549 634.308,-130.549 634.378,-150.674"/>
<text text-anchor="middle" x="558.844" y="-141.411" font-family="Times New Roman,serif" font-size="14.00">Волгателком</text>
</g>
<!-- Волгателком&#45;&gt;КоламбияТелеком -->
<g id="edge53" class="edge"><title>Волгателком&#45;&gt;КоламбияТелеком</title>
<path fill="none" stroke="black" d="M624.573,-128.473C649.643,-122.029 678.324,-114.657 703.548,-108.173"/>
<ellipse fill="black" stroke="black" cx="620.569" cy="-129.502" rx="4.00001" ry="4.00001"/>
<polygon fill="black" stroke="black" points="704.58,-111.522 713.394,-105.643 702.838,-104.742 704.58,-111.522"/>
</g>
<!-- ИнсаткомВ -->
<g id="node42" class="node"><title>ИнсаткомВ</title>
<polygon fill="none" stroke="black" points="1245.35,-1419.67 1177.27,-1432.11 1109.2,-1419.67 1109.26,-1399.55 1245.28,-1399.55 1245.35,-1419.67"/>
<text text-anchor="middle" x="1177.27" y="-1410.41" font-family="Times New Roman,serif" font-size="14.00">ИнсаткомВ</text>
</g>
<!-- ИнсаткомВ&#45;&gt;Ростелеком -->
<g id="edge54" class="edge"><title>ИнсаткомВ&#45;&gt;Ростелеком</title>
<path fill="none" stroke="black" d="M1240.76,-1395.69C1247.28,-1391.95 1253.35,-1387.47 1258.41,-1382.11 1341.44,-1294.22 1362.35,-1142.27 1367.54,-1079.5"/>
<ellipse fill="black" stroke="black" cx="1237.09" cy="-1397.62" rx="4.00002" ry="4.00002"/>
<polygon fill="black" stroke="black" points="1371.05,-1079.43 1368.31,-1069.19 1364.07,-1078.9 1371.05,-1079.43"/>
</g>
<!-- Магистраль&#45;&gt;Унико -->
<g id="edge55" class="edge"><title>Магистраль&#45;&gt;Унико</title>
<path fill="none" stroke="black" d="M387.819,-524.832C408.591,-528.783 430.048,-535.828 447.327,-548.111 462.243,-558.715 517.264,-660.329 543.606,-710.019"/>
<ellipse fill="black" stroke="black" cx="383.843" cy="-524.146" rx="4.00001" ry="4.00001"/>
<polygon fill="black" stroke="black" points="540.555,-711.736 548.323,-718.941 546.743,-708.464 540.555,-711.736"/>
</g>
<!-- Магистраль&#45;&gt;ЮТК -->
<g id="edge72" class="edge"><title>Магистраль&#45;&gt;ЮТК</title>
<path fill="none" stroke="black" stroke-dasharray="1,5" d="M387.921,-516.233C497.768,-511.512 703.682,-510.679 871.492,-556.111 962.102,-580.643 989.748,-588.999 1060.13,-651.111 1103.49,-689.372 1137.98,-747.3 1157.78,-785.418"/>
<ellipse fill="none" stroke="black" cx="383.853" cy="-516.415" rx="4" ry="4"/>
<ellipse fill="none" stroke="black" cx="1159.72" cy="-789.206" rx="4.00002" ry="4.00002"/>
</g>
<!-- Магистраль&#45;&gt;Powernet -->
<g id="edge71" class="edge"><title>Магистраль&#45;&gt;Powernet</title>
<path fill="none" stroke="black" stroke-dasharray="1,5" d="M367.198,-531.886C400.901,-538.028 444.452,-545.579 483.327,-551.111 564.585,-562.675 659.302,-572.551 716.917,-578.159"/>
<ellipse fill="none" stroke="black" cx="363.224" cy="-531.158" rx="4.00001" ry="4.00001"/>
<ellipse fill="none" stroke="black" cx="721.161" cy="-578.57" rx="4" ry="4"/>
</g>
<!-- Магистраль&#45;&gt;Евротелеком -->
<g id="edge73" class="edge"><title>Магистраль&#45;&gt;Евротелеком</title>
<path fill="none" stroke="black" stroke-dasharray="1,5" d="M317.536,-498.696C336.441,-444.67 391.641,-306.052 483.327,-229.111 538.287,-182.99 567.989,-199.359 634.361,-172.111 650.558,-165.462 653.233,-159.746 670.361,-156.111 757.805,-137.554 783.191,-142.188 871.492,-156.111 883.939,-158.074 910.469,-166.59 934.508,-174.847"/>
<ellipse fill="none" stroke="black" cx="316.212" cy="-502.546" rx="4.00001" ry="4.00001"/>
<ellipse fill="none" stroke="black" cx="938.424" cy="-176.202" rx="4.00001" ry="4.00001"/>
</g>
<!-- ФорумNet -->
<g id="node44" class="node"><title>ФорумNet</title>
<polygon fill="none" stroke="black" points="370.867,-634.674 309.147,-647.111 247.427,-634.674 247.485,-614.549 370.809,-614.549 370.867,-634.674"/>
<text text-anchor="middle" x="309.147" y="-625.411" font-family="Times New Roman,serif" font-size="14.00">ФорумNet</text>
</g>
<!-- ФорумNet&#45;&gt;Унико -->
<g id="edge57" class="edge"><title>ФорумNet&#45;&gt;Унико</title>
<path fill="none" stroke="black" d="M377.55,-636.356C400.36,-640.365 425.554,-646.56 447.327,-656.111 478.813,-669.924 509.974,-693.959 531.141,-712.271"/>
<ellipse fill="black" stroke="black" cx="373.536" cy="-635.686" rx="4.00001" ry="4.00001"/>
<polygon fill="black" stroke="black" points="528.929,-714.987 538.744,-718.976 533.559,-709.737 528.929,-714.987"/>
</g>
<!-- ByteS -->
<g id="node45" class="node"><title>ByteS</title>
<polygon fill="none" stroke="black" points="349.485,-580.674 309.147,-593.111 268.809,-580.674 268.846,-560.549 349.447,-560.549 349.485,-580.674"/>
<text text-anchor="middle" x="309.147" y="-571.411" font-family="Times New Roman,serif" font-size="14.00">ByteS</text>
</g>
<!-- ByteS&#45;&gt;Унико -->
<g id="edge58" class="edge"><title>ByteS&#45;&gt;Унико</title>
<path fill="none" stroke="black" d="M357.357,-576.504C385.221,-579.175 420.223,-585.881 447.327,-602.111 491.13,-628.342 525.164,-678.56 543.303,-709.803"/>
<ellipse fill="black" stroke="black" cx="353.315" cy="-576.162" rx="4" ry="4"/>
<polygon fill="black" stroke="black" points="540.446,-711.861 548.415,-718.843 546.539,-708.415 540.446,-711.861"/>
</g>
<!-- АвантекПлюс -->
<g id="node46" class="node"><title>АвантекПлюс</title>
<polygon fill="none" stroke="black" points="388.715,-888.674 309.147,-901.111 229.579,-888.674 229.653,-868.549 388.64,-868.549 388.715,-888.674"/>
<text text-anchor="middle" x="309.147" y="-879.411" font-family="Times New Roman,serif" font-size="14.00">АвантекПлюс</text>
</g>
<!-- АвантекПлюс&#45;&gt;Унико -->
<g id="edge59" class="edge"><title>АвантекПлюс&#45;&gt;Унико</title>
<path fill="none" stroke="black" d="M396.921,-874.569C414.33,-870.542 431.973,-864.666 447.327,-856.111 487.554,-833.698 521.435,-791.447 540.695,-763.794"/>
<ellipse fill="black" stroke="black" cx="392.857" cy="-875.447" rx="4.00001" ry="4.00001"/>
<polygon fill="black" stroke="black" points="543.693,-765.609 546.424,-755.372 537.905,-761.672 543.693,-765.609"/>
</g>
<!-- Robor -->
<g id="node47" class="node"><title>Robor</title>
<polygon fill="none" stroke="black" points="1219.93,-492.674 1177.27,-505.111 1134.62,-492.674 1134.66,-472.549 1219.89,-472.549 1219.93,-492.674"/>
<text text-anchor="middle" x="1177.27" y="-483.411" font-family="Times New Roman,serif" font-size="14.00">Robor</text>
</g>
<!-- Robor&#45;&gt;Транстелеком -->
<g id="edge60" class="edge"><title>Robor&#45;&gt;Транстелеком</title>
<path fill="none" stroke="black" d="M1227.95,-471.501C1254.43,-463.179 1287.08,-452.922 1314.31,-444.364"/>
<ellipse fill="black" stroke="black" cx="1223.99" cy="-472.745" rx="4.00001" ry="4.00001"/>
<polygon fill="black" stroke="black" points="1315.59,-447.632 1324.08,-441.295 1313.49,-440.954 1315.59,-447.632"/>
</g>
<!-- ИнформационныйСервис -->
<g id="node48" class="node"><title>ИнформационныйСервис</title>
<polygon fill="none" stroke="black" points="447.507,-834.674 309.147,-847.111 170.786,-834.674 170.915,-814.549 447.378,-814.549 447.507,-834.674"/>
<text text-anchor="middle" x="309.147" y="-825.411" font-family="Times New Roman,serif" font-size="14.00">ИнформационныйСервис</text>
</g>
<!-- ИнформационныйСервис&#45;&gt;Унико -->
<g id="edge75" class="edge"><title>ИнформационныйСервис&#45;&gt;Унико</title>
<path fill="none" stroke="black" stroke-dasharray="1,5" d="M397.422,-812.464C414.228,-808.222 431.513,-803.123 447.327,-797.111 475.563,-786.378 505.56,-769.72 527.167,-756.677"/>
<ellipse fill="none" stroke="black" cx="393.104" cy="-813.523" rx="4.00001" ry="4.00001"/>
<ellipse fill="none" stroke="black" cx="530.745" cy="-754.492" rx="4.00002" ry="4.00002"/>
</g>
</g>
</svg>
