<?xml version="1.0" encoding="UTF-8" standalone="no"?>
<!DOCTYPE svg PUBLIC "-//W3C//DTD SVG 1.1//EN"
 "http://www.w3.org/Graphics/SVG/1.1/DTD/svg11.dtd">
<!-- Generated by graphviz version 2.38.0 (20140413.2041)
 -->
<!-- Title: ispgraph Pages: 1 -->
<svg width="1463pt" height="1109pt"
 viewBox="0.00 0.00 1462.80 1109.00" xmlns="http://www.w3.org/2000/svg" xmlns:xlink="http://www.w3.org/1999/xlink">
<g id="graph0" class="graph" transform="scale(1 1) rotate(0) translate(4 1105)">
<title>ispgraph</title>
<polygon fill="white" stroke="none" points="-4,4 -4,-1105 1458.8,-1105 1458.8,4 -4,4"/>
<!-- Унико -->
<g id="node1" class="node"><title>Унико</title>
<polygon fill="none" stroke="black" points="827.442,-802 806.415,-820 764.36,-820 743.332,-802 764.36,-784 806.415,-784 827.442,-802"/>
<text text-anchor="middle" x="785.387" y="-798.3" font-family="Times New Roman,serif" font-size="14.00">Унико</text>
</g>
<!-- ЭрТелеком -->
<g id="node3" class="node"><title>ЭрТелеком</title>
<polygon fill="none" stroke="black" points="1068.91,-802 1032.17,-833.054 958.703,-833.054 921.968,-802 958.703,-770.946 1032.17,-770.946 1068.91,-802"/>
<text text-anchor="middle" x="995.437" y="-805.8" font-family="Times New Roman,serif" font-size="14.00">ЭР&#45;Телеком</text>
<text text-anchor="middle" x="995.437" y="-790.8" font-family="Times New Roman,serif" font-size="14.00">транзит</text>
</g>
<!-- Унико&#45;&gt;ЭрТелеком -->
<g id="edge54" class="edge"><title>Унико&#45;&gt;ЭрТелеком</title>
<path fill="none" stroke="black" stroke-dasharray="1,5" d="M835.611,-802C858.925,-802 887.378,-802 913.727,-802"/>
<ellipse fill="none" stroke="black" cx="831.491" cy="-802" rx="4" ry="4"/>
<ellipse fill="none" stroke="black" cx="917.829" cy="-802" rx="4" ry="4"/>
</g>
<!-- Ростелеком -->
<g id="node10" class="node"><title>Ростелеком</title>
<polygon fill="none" stroke="black" points="1444.09,-555 1411.55,-573 1346.46,-573 1313.92,-555 1346.46,-537 1411.55,-537 1444.09,-555"/>
<text text-anchor="middle" x="1379" y="-551.3" font-family="Times New Roman,serif" font-size="14.00">Ростелеком</text>
</g>
<!-- Унико&#45;&gt;Ростелеком -->
<g id="edge15" class="edge"><title>Унико&#45;&gt;Ростелеком</title>
<path fill="none" stroke="black" d="M810.742,-787.08C837.403,-771.136 881.725,-745.762 921.953,-728 1070.43,-662.443 1117.25,-671.112 1267.2,-609 1290.35,-599.413 1315.5,-587.301 1335.97,-576.979"/>
<polygon fill="black" stroke="black" points="1337.7,-580.028 1345.03,-572.378 1334.53,-573.787 1337.7,-580.028"/>
</g>
<!-- RETN -->
<g id="node19" class="node"><title>RETN</title>
<polygon fill="none" stroke="black" points="1034.99,-606 1015.21,-624 975.661,-624 955.884,-606 975.661,-588 1015.21,-588 1034.99,-606"/>
<text text-anchor="middle" x="995.437" y="-602.3" font-family="Times New Roman,serif" font-size="14.00">RETN</text>
</g>
<!-- Унико&#45;&gt;RETN -->
<g id="edge16" class="edge"><title>Унико&#45;&gt;RETN</title>
<path fill="none" stroke="black" d="M806.536,-783.866C827.744,-764.191 861.393,-731.253 885.953,-699 905.024,-673.954 898.425,-658.916 921.953,-638 931.511,-629.503 943.686,-622.957 955.317,-618.066"/>
<polygon fill="black" stroke="black" points="956.841,-621.229 964.89,-614.34 954.302,-614.706 956.841,-621.229"/>
</g>
<!-- ДомРу -->
<g id="node2" class="node"><title>ДомРу</title>
<polygon fill="none" stroke="black" points="839.458,-910 812.422,-928 758.352,-928 731.317,-910 758.352,-892 812.422,-892 839.458,-910"/>
<text text-anchor="middle" x="785.387" y="-906.3" font-family="Times New Roman,serif" font-size="14.00">ДОМ.RU</text>
</g>
<!-- ДомРу&#45;&gt;ЭрТелеком -->
<g id="edge32" class="edge"><title>ДомРу&#45;&gt;ЭрТелеком</title>
<path fill="none" stroke="black" d="M836.207,-900.395C852.535,-896.234 870.454,-890.546 885.953,-883 909.252,-871.656 932.604,-855.06 951.642,-839.839"/>
<ellipse fill="none" stroke="black" cx="832.222" cy="-901.368" rx="4.00001" ry="4.00001"/>
<polygon fill="black" stroke="black" points="953.98,-842.449 959.524,-833.42 949.56,-837.021 953.98,-842.449"/>
</g>
<!-- ЮТК -->
<g id="node15" class="node"><title>ЮТК</title>
<polygon fill="none" stroke="black" points="1257.13,-779 1221.6,-810.054 1150.53,-810.054 1114.99,-779 1150.53,-747.946 1221.6,-747.946 1257.13,-779"/>
<text text-anchor="middle" x="1186.06" y="-782.8" font-family="Times New Roman,serif" font-size="14.00">Ростелеком</text>
<text text-anchor="middle" x="1186.06" y="-767.8" font-family="Times New Roman,serif" font-size="14.00">Волгоград</text>
</g>
<!-- ЭрТелеком&#45;&gt;ЮТК -->
<g id="edge58" class="edge"><title>ЭрТелеком&#45;&gt;ЮТК</title>
<path fill="none" stroke="black" stroke-dasharray="1,5" d="M1068.07,-793.266C1083.61,-791.37 1100.04,-789.368 1115.5,-787.482"/>
<ellipse fill="none" stroke="black" cx="1063.74" cy="-793.793" rx="4.00001" ry="4.00001"/>
<ellipse fill="none" stroke="black" cx="1119.52" cy="-786.991" rx="4.00001" ry="4.00001"/>
</g>
<!-- Связьинформ -->
<g id="node26" class="node"><title>Связьинформ</title>
<polygon fill="none" stroke="black" points="1267.34,-717.562 1186.06,-730 1104.78,-717.562 1104.86,-697.438 1267.27,-697.438 1267.34,-717.562"/>
<text text-anchor="middle" x="1186.06" y="-708.3" font-family="Times New Roman,serif" font-size="14.00">Связьинформ</text>
</g>
<!-- ЭрТелеком&#45;&gt;Связьинформ -->
<g id="edge59" class="edge"><title>ЭрТелеком&#45;&gt;Связьинформ</title>
<path fill="none" stroke="black" stroke-dasharray="1,5" d="M1044.79,-771.121C1063.19,-760.13 1084.61,-748.207 1104.92,-739 1115.14,-734.367 1126.41,-730.093 1137.18,-726.377"/>
<ellipse fill="none" stroke="black" cx="1041.06" cy="-773.373" rx="4.00002" ry="4.00002"/>
<ellipse fill="none" stroke="black" cx="1141.12" cy="-725.049" rx="4.00001" ry="4.00001"/>
</g>
<!-- Транстелеком -->
<g id="node4" class="node"><title>Транстелеком</title>
<polygon fill="none" stroke="black" points="1454.6,-779 1416.8,-797 1341.2,-797 1303.4,-779 1341.2,-761 1416.8,-761 1454.6,-779"/>
<text text-anchor="middle" x="1379" y="-775.3" font-family="Times New Roman,serif" font-size="14.00">Транстелеком</text>
</g>
<!-- Волгатранстелеком -->
<g id="node5" class="node"><title>Волгатранстелеком</title>
<polygon fill="none" stroke="black" points="886.018,-1029 835.703,-1047 735.072,-1047 684.756,-1029 735.072,-1011 835.703,-1011 886.018,-1029"/>
<text text-anchor="middle" x="785.387" y="-1025.3" font-family="Times New Roman,serif" font-size="14.00">Волгатранстелеком</text>
</g>
<!-- Волгатранстелеком&#45;&gt;ЭрТелеком -->
<g id="edge56" class="edge"><title>Волгатранстелеком&#45;&gt;ЭрТелеком</title>
<path fill="none" stroke="black" stroke-dasharray="1,5" d="M861.22,-1014.16C870.413,-1009.83 879,-1004.23 885.953,-997 927.218,-954.101 890.73,-918.678 921.953,-868 929.191,-856.251 939.117,-845.323 949.3,-835.875"/>
<ellipse fill="none" stroke="black" cx="857.413" cy="-1015.8" rx="4.00002" ry="4.00002"/>
<ellipse fill="none" stroke="black" cx="952.329" cy="-833.159" rx="4.00002" ry="4.00002"/>
</g>
<!-- Волгатранстелеком&#45;&gt;Транстелеком -->
<g id="edge31" class="edge"><title>Волгатранстелеком&#45;&gt;Транстелеком</title>
<path fill="none" stroke="black" d="M859.114,-1014.71C956.52,-993.551 1132.66,-948.081 1267.2,-873 1300.16,-854.607 1332.44,-825.603 1353.58,-804.675"/>
<ellipse fill="none" stroke="black" cx="854.999" cy="-1015.6" rx="4.00001" ry="4.00001"/>
<polygon fill="black" stroke="black" points="1356.28,-806.926 1360.85,-797.365 1351.31,-801.992 1356.28,-806.926"/>
</g>
<!-- Волгатранстелеком&#45;&gt;ЮТК -->
<g id="edge55" class="edge"><title>Волгатранстелеком&#45;&gt;ЮТК</title>
<path fill="none" stroke="black" stroke-dasharray="1,5" d="M856.38,-1012.72C866.827,-1008.57 877.06,-1003.4 885.953,-997 907.883,-981.209 902.658,-966.921 921.953,-948 939.713,-930.584 1083.57,-831.757 1104.92,-819 1113.45,-813.903 1122.72,-808.857 1131.82,-804.156"/>
<ellipse fill="none" stroke="black" cx="852.498" cy="-1014.17" rx="4.00001" ry="4.00001"/>
<ellipse fill="none" stroke="black" cx="1135.51" cy="-802.28" rx="4.00002" ry="4.00002"/>
</g>
<!-- Orange -->
<g id="node16" class="node"><title>Orange</title>
<polygon fill="none" stroke="black" points="1037.99,-1029 1016.72,-1047 974.159,-1047 952.881,-1029 974.159,-1011 1016.72,-1011 1037.99,-1029"/>
<text text-anchor="middle" x="995.437" y="-1025.3" font-family="Times New Roman,serif" font-size="14.00">Orange</text>
</g>
<!-- Волгатранстелеком&#45;&gt;Orange -->
<g id="edge57" class="edge"><title>Волгатранстелеком&#45;&gt;Orange</title>
<path fill="none" stroke="black" stroke-dasharray="1,5" d="M894.161,-1029C911.797,-1029 929.29,-1029 944.607,-1029"/>
<ellipse fill="none" stroke="black" cx="890.147" cy="-1029" rx="4" ry="4"/>
<ellipse fill="none" stroke="black" cx="948.88" cy="-1029" rx="4" ry="4"/>
</g>
<!-- Релком -->
<g id="node6" class="node"><title>Релком</title>
<polygon fill="none" stroke="black" points="1041,-72 1018.22,-90 972.657,-90 949.877,-72 972.657,-54 1018.22,-54 1041,-72"/>
<text text-anchor="middle" x="995.437" y="-68.3" font-family="Times New Roman,serif" font-size="14.00">Релком</text>
</g>
<!-- Мегафон -->
<g id="node7" class="node"><title>Мегафон</title>
<polygon fill="none" stroke="black" points="1048.51,-410 1021.97,-428 968.902,-428 942.367,-410 968.902,-392 1021.97,-392 1048.51,-410"/>
<text text-anchor="middle" x="995.437" y="-406.3" font-family="Times New Roman,serif" font-size="14.00">Мегафон</text>
</g>
<!-- Вымпелком -->
<g id="node8" class="node"><title>Вымпелком</title>
<polygon fill="none" stroke="black" points="1040.5,-314 1017.97,-332 972.908,-332 950.379,-314 972.908,-296 1017.97,-296 1040.5,-314"/>
<text text-anchor="middle" x="995.437" y="-310.3" font-family="Times New Roman,serif" font-size="14.00">Билайн</text>
</g>
<!-- КоламбияТелеком -->
<g id="node9" class="node"><title>КоламбияТелеком</title>
<polygon fill="none" stroke="black" points="881.512,-856 833.45,-874 737.325,-874 689.262,-856 737.325,-838 833.45,-838 881.512,-856"/>
<text text-anchor="middle" x="785.387" y="-852.3" font-family="Times New Roman,serif" font-size="14.00">КоламбияТелеком</text>
</g>
<!-- КоламбияТелеком&#45;&gt;ЭрТелеком -->
<g id="edge33" class="edge"><title>КоламбияТелеком&#45;&gt;ЭрТелеком</title>
<path fill="none" stroke="black" d="M850.523,-839.353C875.453,-832.883 903.987,-825.477 929.037,-818.975"/>
<ellipse fill="none" stroke="black" cx="846.56" cy="-840.382" rx="4.00001" ry="4.00001"/>
<polygon fill="black" stroke="black" points="930.012,-822.338 938.812,-816.438 928.253,-815.562 930.012,-822.338"/>
</g>
<!-- HE -->
<g id="node11" class="node"><title>HE</title>
<polygon fill="none" stroke="black" points="812.387,-1083 798.887,-1101 771.887,-1101 758.387,-1083 771.887,-1065 798.887,-1065 812.387,-1083"/>
<text text-anchor="middle" x="785.387" y="-1079.3" font-family="Times New Roman,serif" font-size="14.00">HE</text>
</g>
<!-- КвантТелеком -->
<g id="node12" class="node"><title>КвантТелеком</title>
<polygon fill="none" stroke="black" points="216.282,-810 177.231,-828 99.1293,-828 60.0784,-810 99.1293,-792 177.231,-792 216.282,-810"/>
<text text-anchor="middle" x="138.18" y="-806.3" font-family="Times New Roman,serif" font-size="14.00">КвантТелеком</text>
</g>
<!-- Tele2 -->
<g id="node13" class="node"><title>Tele2</title>
<polygon fill="none" stroke="black" points="820.435,-672 802.911,-690 767.864,-690 750.34,-672 767.864,-654 802.911,-654 820.435,-672"/>
<text text-anchor="middle" x="785.387" y="-668.3" font-family="Times New Roman,serif" font-size="14.00">Tele2</text>
</g>
<!-- Tele2&#45;&gt;RETN -->
<g id="edge2" class="edge"><title>Tele2&#45;&gt;RETN</title>
<path fill="none" stroke="black" d="M814.029,-665.14C834.107,-660.003 861.865,-652.582 885.953,-645 910.015,-637.426 936.68,-627.856 957.552,-620.092"/>
<polygon fill="black" stroke="black" points="958.862,-623.339 967,-616.554 956.407,-616.783 958.862,-623.339"/>
</g>
<!-- МТС -->
<g id="node14" class="node"><title>МТС</title>
<polygon fill="none" stroke="black" points="173.228,-864 155.704,-882 120.656,-882 103.133,-864 120.656,-846 155.704,-846 173.228,-864"/>
<text text-anchor="middle" x="138.18" y="-860.3" font-family="Times New Roman,serif" font-size="14.00">МТС</text>
</g>
<!-- ЮТК&#45;&gt;Ростелеком -->
<g id="edge30" class="edge"><title>ЮТК&#45;&gt;Ростелеком</title>
<path fill="none" stroke="black" d="M1243.3,-756.107C1251.85,-751.21 1260.15,-745.513 1267.2,-739 1316.21,-693.724 1350.84,-621.854 1367.25,-582.681"/>
<ellipse fill="none" stroke="black" cx="1239.59" cy="-758.121" rx="4.00002" ry="4.00002"/>
<polygon fill="black" stroke="black" points="1370.56,-583.814 1371.11,-573.234 1364.09,-581.162 1370.56,-583.814"/>
</g>
<!-- ПросторТелеком -->
<g id="node17" class="node"><title>ПросторТелеком</title>
<polygon fill="none" stroke="black" points="875.505,-310 830.446,-328 740.329,-328 695.27,-310 740.329,-292 830.446,-292 875.505,-310"/>
<text text-anchor="middle" x="785.387" y="-306.3" font-family="Times New Roman,serif" font-size="14.00">ПросторТелеком</text>
</g>
<!-- ПросторТелеком&#45;&gt;Мегафон -->
<g id="edge18" class="edge"><title>ПросторТелеком&#45;&gt;Мегафон</title>
<path fill="none" stroke="black" d="M844.642,-322.368C858.493,-326.237 873.002,-331.083 885.953,-337 914.082,-349.852 942.994,-369.698 963.891,-385.455"/>
<polygon fill="black" stroke="black" points="961.982,-388.401 972.048,-391.706 966.24,-382.845 961.982,-388.401"/>
</g>
<!-- ПросторТелеком&#45;&gt;Вымпелком -->
<g id="edge17" class="edge"><title>ПросторТелеком&#45;&gt;Вымпелком</title>
<path fill="none" stroke="black" d="M871.61,-311.638C895.14,-312.091 919.999,-312.569 941.151,-312.976"/>
<polygon fill="black" stroke="black" points="941.149,-316.476 951.215,-313.169 941.284,-309.477 941.149,-316.476"/>
</g>
<!-- WestCall -->
<g id="node18" class="node"><title>WestCall</title>
<polygon fill="none" stroke="black" points="1046.5,-18 1020.97,-36 969.904,-36 944.371,-18 969.904,-2.13163e-014 1020.97,-0 1046.5,-18"/>
<text text-anchor="middle" x="995.437" y="-14.3" font-family="Times New Roman,serif" font-size="14.00">WestCall</text>
</g>
<!-- ГородокТочкаРу -->
<g id="node20" class="node"><title>ГородокТочкаРу</title>
<polygon fill="none" stroke="black" points="640.182,-677.562 569.288,-690 498.394,-677.562 498.46,-657.438 640.116,-657.438 640.182,-677.562"/>
<text text-anchor="middle" x="569.288" y="-668.3" font-family="Times New Roman,serif" font-size="14.00">Городок.Ру</text>
</g>
<!-- ГородокТочкаРу&#45;&gt;Унико -->
<g id="edge39" class="edge"><title>ГородокТочкаРу&#45;&gt;Унико</title>
<path fill="none" stroke="black" d="M618.95,-685.791C629.607,-690.381 640.252,-696.343 648.822,-704 673.739,-726.262 659.078,-748.7 684.822,-770 700.048,-782.598 720.325,-790.268 738.606,-794.923"/>
<ellipse fill="black" stroke="black" cx="614.928" cy="-684.177" rx="4.00001" ry="4.00001"/>
<polygon fill="black" stroke="black" points="737.981,-798.371 748.512,-797.211 739.556,-791.55 737.981,-798.371"/>
</g>
<!-- СМАРТС -->
<g id="node21" class="node"><title>СМАРТС</title>
<polygon fill="none" stroke="black" points="639.133,-483.33 569.288,-506.428 499.443,-483.33 499.508,-445.956 639.068,-445.956 639.133,-483.33"/>
<text text-anchor="middle" x="569.288" y="-476.8" font-family="Times New Roman,serif" font-size="14.00">Tele2</text>
<text text-anchor="middle" x="569.288" y="-461.8" font-family="Times New Roman,serif" font-size="14.00">Волгоград</text>
</g>
<!-- СМАРТС&#45;&gt;Tele2 -->
<g id="edge35" class="edge"><title>СМАРТС&#45;&gt;Tele2</title>
<path fill="none" stroke="black" d="M624.62,-494.468C633.699,-500.033 642.278,-506.823 648.822,-515 686.282,-561.808 642.316,-602.721 684.822,-645 699.636,-659.735 721.626,-666.647 741.174,-669.807"/>
<ellipse fill="none" stroke="black" cx="621.076" cy="-492.438" rx="4.00002" ry="4.00002"/>
<polygon fill="black" stroke="black" points="740.747,-673.281 751.123,-671.138 741.676,-666.343 740.747,-673.281"/>
</g>
<!-- STARLINE -->
<g id="node22" class="node"><title>STARLINE</title>
<polygon fill="none" stroke="black" points="205.647,-923.562 138.18,-936 70.7135,-923.562 70.7765,-903.438 205.584,-903.438 205.647,-923.562"/>
<text text-anchor="middle" x="138.18" y="-914.3" font-family="Times New Roman,serif" font-size="14.00">STARLINE</text>
</g>
<!-- VSSA -->
<g id="node23" class="node"><title>VSSA</title>
<polygon fill="none" stroke="black" points="180.838,-977.562 138.18,-990 95.5225,-977.562 95.5623,-957.438 180.798,-957.438 180.838,-977.562"/>
<text text-anchor="middle" x="138.18" y="-968.3" font-family="Times New Roman,serif" font-size="14.00">VSSA</text>
</g>
<!-- ИнформационныйСервис -->
<g id="node24" class="node"><title>ИнформационныйСервис</title>
<polygon fill="none" stroke="black" points="276.541,-1031.56 138.18,-1044 -0.180374,-1031.56 -0.0512311,-1011.44 276.412,-1011.44 276.541,-1031.56"/>
<text text-anchor="middle" x="138.18" y="-1022.3" font-family="Times New Roman,serif" font-size="14.00">ИнформационныйСервис</text>
</g>
<!-- SmIT34 -->
<g id="node25" class="node"><title>SmIT34</title>
<polygon fill="none" stroke="black" points="187.799,-1085.56 138.18,-1098 88.5612,-1085.56 88.6075,-1065.44 187.753,-1065.44 187.799,-1085.56"/>
<text text-anchor="middle" x="138.18" y="-1076.3" font-family="Times New Roman,serif" font-size="14.00">SmIT34</text>
</g>
<!-- Связьинформ&#45;&gt;Унико -->
<g id="edge26" class="edge"><title>Связьинформ&#45;&gt;Унико</title>
<path fill="none" stroke="black" d="M1119.96,-722.522C1066.48,-731.608 988.903,-745.803 921.953,-762 889.383,-769.879 852.987,-780.734 826.114,-789.148"/>
<ellipse fill="none" stroke="black" cx="1124.06" cy="-721.83" rx="4.00001" ry="4.00001"/>
<polygon fill="black" stroke="black" points="824.792,-785.895 816.308,-792.242 826.898,-792.57 824.792,-785.895"/>
</g>
<!-- Связьинформ&#45;&gt;Транстелеком -->
<g id="edge1" class="edge"><title>Связьинформ&#45;&gt;Транстелеком</title>
<path fill="none" stroke="black" d="M1224.23,-724.336C1237.78,-728.882 1253.2,-734.115 1267.2,-739 1286.52,-745.741 1307.67,-753.324 1326.26,-760.06"/>
<polygon fill="black" stroke="black" points="1325.13,-763.373 1335.72,-763.496 1327.52,-756.793 1325.13,-763.373"/>
</g>
<!-- СпринтСеть -->
<g id="node27" class="node"><title>СпринтСеть</title>
<polygon fill="none" stroke="black" points="858.601,-369.562 785.387,-382 712.173,-369.562 712.242,-349.438 858.533,-349.438 858.601,-369.562"/>
<text text-anchor="middle" x="785.387" y="-360.3" font-family="Times New Roman,serif" font-size="14.00">СпринтСеть</text>
</g>
<!-- СпринтСеть&#45;&gt;Мегафон -->
<g id="edge4" class="edge"><title>СпринтСеть&#45;&gt;Мегафон</title>
<path fill="none" stroke="black" d="M832.045,-374.095C865.467,-381.485 910.775,-391.502 945.042,-399.079"/>
<polygon fill="black" stroke="black" points="944.325,-402.505 954.845,-401.246 945.836,-395.67 944.325,-402.505"/>
</g>
<!-- СпринтСеть&#45;&gt;Вымпелком -->
<g id="edge3" class="edge"><title>СпринтСеть&#45;&gt;Вымпелком</title>
<path fill="none" stroke="black" d="M847.123,-349.404C880.313,-341.427 920.658,-331.731 950.729,-324.504"/>
<polygon fill="black" stroke="black" points="951.602,-327.894 960.508,-322.154 949.967,-321.088 951.602,-327.894"/>
</g>
<!-- СпринтСеть&#45;&gt;Связьинформ -->
<g id="edge45" class="edge"><title>СпринтСеть&#45;&gt;Связьинформ</title>
<path fill="none" stroke="black" stroke-dasharray="1,5" d="M866.962,-358.455C940.136,-355.31 1040.79,-356.337 1068.92,-383 1165.42,-474.474 1023.84,-574.613 1104.92,-680 1108.9,-685.176 1113.85,-689.518 1119.33,-693.158"/>
<ellipse fill="none" stroke="black" cx="862.626" cy="-358.653" rx="4" ry="4"/>
<ellipse fill="none" stroke="black" cx="1123.06" cy="-695.368" rx="4.00002" ry="4.00002"/>
</g>
<!-- Экспилайн -->
<g id="node28" class="node"><title>Экспилайн</title>
<polygon fill="none" stroke="black" points="852.248,-569.562 785.387,-582 718.527,-569.562 718.589,-549.438 852.185,-549.438 852.248,-569.562"/>
<text text-anchor="middle" x="785.387" y="-560.3" font-family="Times New Roman,serif" font-size="14.00">Экспилайн</text>
</g>
<!-- Экспилайн&#45;&gt;Мегафон -->
<g id="edge5" class="edge"><title>Экспилайн&#45;&gt;Мегафон</title>
<path fill="none" stroke="black" d="M852.222,-552.159C863.988,-548.399 875.738,-543.466 885.953,-537 926.412,-511.389 959.813,-465.977 978.428,-436.965"/>
<polygon fill="black" stroke="black" points="981.597,-438.499 983.942,-428.167 975.665,-434.782 981.597,-438.499"/>
</g>
<!-- Экспилайн&#45;&gt;Связьинформ -->
<g id="edge47" class="edge"><title>Экспилайн&#45;&gt;Связьинформ</title>
<path fill="none" stroke="black" stroke-dasharray="1,5" d="M854.784,-547.965C916.86,-537.604 1007.78,-533.406 1068.92,-579 1107.13,-607.487 1071.86,-645.677 1104.92,-680 1110.04,-685.309 1116.14,-689.76 1122.68,-693.485"/>
<ellipse fill="none" stroke="black" cx="850.543" cy="-548.706" rx="4.00001" ry="4.00001"/>
<ellipse fill="none" stroke="black" cx="1126.36" cy="-695.402" rx="4.00002" ry="4.00002"/>
</g>
<!-- ЭРОС -->
<g id="node29" class="node"><title>ЭРОС</title>
<polygon fill="none" stroke="black" points="613.66,-1061.56 569.288,-1074 524.916,-1061.56 524.957,-1041.44 613.618,-1041.44 613.66,-1061.56"/>
<text text-anchor="middle" x="569.288" y="-1052.3" font-family="Times New Roman,serif" font-size="14.00">ЭРОС</text>
</g>
<!-- ЭРОС&#45;&gt;Волгатранстелеком -->
<g id="edge6" class="edge"><title>ЭРОС&#45;&gt;Волгатранстелеком</title>
<path fill="none" stroke="black" d="M613.614,-1050.54C638.534,-1047.39 670.697,-1043.34 700.379,-1039.59"/>
<polygon fill="black" stroke="black" points="700.853,-1043.06 710.336,-1038.34 699.977,-1036.12 700.853,-1043.06"/>
</g>
<!-- ЭРОС&#45;&gt;HE -->
<g id="edge7" class="edge"><title>ЭРОС&#45;&gt;HE</title>
<path fill="none" stroke="black" d="M613.614,-1061.46C653.872,-1066.54 713.035,-1074 750.101,-1078.68"/>
<polygon fill="black" stroke="black" points="750.033,-1082.2 760.392,-1079.97 750.909,-1075.25 750.033,-1082.2"/>
</g>
<!-- Comrise -->
<g id="node30" class="node"><title>Comrise</title>
<polygon fill="none" stroke="black" points="434.389,-381.562 383.057,-394 331.725,-381.562 331.773,-361.438 434.341,-361.438 434.389,-381.562"/>
<text text-anchor="middle" x="383.057" y="-372.3" font-family="Times New Roman,serif" font-size="14.00">Comrise</text>
</g>
<!-- Comrise&#45;&gt;Унико -->
<g id="edge48" class="edge"><title>Comrise&#45;&gt;Унико</title>
<path fill="none" stroke="black" stroke-dasharray="1,5" d="M391.827,-400.333C405.67,-440.26 438.09,-520.118 489.754,-569 546.668,-622.849 596.533,-586.649 648.822,-645 681.184,-681.115 653.395,-711.068 684.822,-748 701.166,-767.207 726.122,-780.722 746.96,-789.428"/>
<ellipse fill="none" stroke="black" cx="390.515" cy="-396.461" rx="4.00001" ry="4.00001"/>
<ellipse fill="none" stroke="black" cx="750.715" cy="-790.932" rx="4.00001" ry="4.00001"/>
</g>
<!-- Comrise&#45;&gt;Вымпелком -->
<g id="edge9" class="edge"><title>Comrise&#45;&gt;Вымпелком</title>
<path fill="none" stroke="black" d="M405.39,-361.259C452.902,-329.433 572.14,-255.064 684.822,-229 771.914,-208.855 806.957,-187.161 885.953,-229 911.117,-242.328 900.081,-263.766 921.953,-282 931.024,-289.562 942.163,-295.651 952.962,-300.405"/>
<polygon fill="black" stroke="black" points="951.725,-303.68 962.305,-304.241 954.384,-297.205 951.725,-303.68"/>
</g>
<!-- Comrise&#45;&gt;Ростелеком -->
<g id="edge8" class="edge"><title>Comrise&#45;&gt;Ростелеком</title>
<path fill="none" stroke="black" d="M392.165,-361.162C407.879,-333.515 444.914,-273.53 489.754,-236 597.925,-145.464 643.328,-118 784.387,-118 784.387,-118 784.387,-118 996.437,-118 1214.6,-118 1336.75,-430.859 1369.18,-527.142"/>
<polygon fill="black" stroke="black" points="1365.9,-528.384 1372.36,-536.779 1372.55,-526.186 1365.9,-528.384"/>
</g>
<!-- Powernet -->
<g id="node31" class="node"><title>Powernet</title>
<polygon fill="none" stroke="black" points="624.653,-547.562 569.288,-560 513.922,-547.562 513.974,-527.438 624.602,-527.438 624.653,-547.562"/>
<text text-anchor="middle" x="569.288" y="-538.3" font-family="Times New Roman,serif" font-size="14.00">Powernet</text>
</g>
<!-- Comrise&#45;&gt;Powernet -->
<g id="edge49" class="edge"><title>Comrise&#45;&gt;Powernet</title>
<path fill="none" stroke="black" stroke-dasharray="1,5" d="M396.147,-399.524C413.093,-430.282 446.719,-483.892 489.754,-515 494.848,-518.682 500.484,-521.893 506.33,-524.687"/>
<ellipse fill="none" stroke="black" cx="394.104" cy="-395.743" rx="4.00002" ry="4.00002"/>
<ellipse fill="none" stroke="black" cx="510.166" cy="-526.386" rx="4.00002" ry="4.00002"/>
</g>
<!-- Powernet&#45;&gt;Унико -->
<g id="edge29" class="edge"><title>Powernet&#45;&gt;Унико</title>
<path fill="none" stroke="black" d="M619.56,-553.402C630.607,-558.106 641.274,-564.719 648.822,-574 704.703,-642.714 626.372,-703.457 684.822,-770 697.924,-784.916 717.999,-792.928 736.699,-797.213"/>
<ellipse fill="none" stroke="black" cx="615.617" cy="-551.881" rx="4.00001" ry="4.00001"/>
<polygon fill="black" stroke="black" points="736.11,-800.664 746.6,-799.18 737.474,-793.798 736.11,-800.664"/>
</g>
<!-- Powernet&#45;&gt;ЭрТелеком -->
<g id="edge50" class="edge"><title>Powernet&#45;&gt;ЭрТелеком</title>
<path fill="none" stroke="black" stroke-dasharray="1,5" d="M618.601,-553.799C629.777,-558.501 640.745,-565.014 648.822,-574 687.468,-616.999 644.783,-657.295 684.822,-699 702.37,-717.278 846.619,-760.317 931.898,-784.579"/>
<ellipse fill="none" stroke="black" cx="614.597" cy="-552.26" rx="4.00001" ry="4.00001"/>
<ellipse fill="none" stroke="black" cx="935.859" cy="-785.703" rx="4.00001" ry="4.00001"/>
</g>
<!-- Powernet&#45;&gt;Мегафон -->
<g id="edge10" class="edge"><title>Powernet&#45;&gt;Мегафон</title>
<path fill="none" stroke="black" d="M624.782,-530.037C633.553,-526.301 641.982,-521.407 648.822,-515 679.062,-486.672 651.046,-453.002 684.822,-429 723.893,-401.235 858.328,-402.896 936.615,-406.485"/>
<polygon fill="black" stroke="black" points="936.649,-409.99 946.806,-406.977 936.987,-402.999 936.649,-409.99"/>
</g>
<!-- Евротелеком -->
<g id="node32" class="node"><title>Евротелеком</title>
<polygon fill="none" stroke="black" points="861.529,-169.562 785.387,-182 709.246,-169.562 709.317,-149.438 861.457,-149.438 861.529,-169.562"/>
<text text-anchor="middle" x="785.387" y="-160.3" font-family="Times New Roman,serif" font-size="14.00">Евротелеком</text>
</g>
<!-- Евротелеком&#45;&gt;Транстелеком -->
<g id="edge11" class="edge"><title>Евротелеком&#45;&gt;Транстелеком</title>
<path fill="none" stroke="black" d="M846.767,-172.076C913.036,-184.411 1016.9,-214.692 1068.92,-287 1153.02,-403.897 1021.01,-491.973 1104.92,-609 1151.33,-673.723 1200.19,-641.971 1267.2,-685 1298.59,-705.15 1330.68,-733.377 1352.19,-753.632"/>
<polygon fill="black" stroke="black" points="1349.96,-756.342 1359.61,-760.704 1354.79,-751.273 1349.96,-756.342"/>
</g>
<!-- Евротелеком&#45;&gt;Вымпелком -->
<g id="edge12" class="edge"><title>Евротелеком&#45;&gt;Вымпелком</title>
<path fill="none" stroke="black" d="M841.985,-172.819C857.682,-177.553 873.781,-184.827 885.953,-196 916.477,-224.021 892.937,-252.419 921.953,-282 930.148,-290.355 940.902,-296.691 951.608,-301.427"/>
<polygon fill="black" stroke="black" points="950.356,-304.696 960.94,-305.188 952.973,-298.203 950.356,-304.696"/>
</g>
<!-- Virgin -->
<g id="node33" class="node"><title>Virgin</title>
<polygon fill="none" stroke="black" points="825.725,-515.562 785.387,-528 745.049,-515.562 745.087,-495.438 825.688,-495.438 825.725,-515.562"/>
<text text-anchor="middle" x="785.387" y="-506.3" font-family="Times New Roman,serif" font-size="14.00">Virgin</text>
</g>
<!-- Virgin&#45;&gt;Мегафон -->
<g id="edge13" class="edge"><title>Virgin&#45;&gt;Мегафон</title>
<path fill="none" stroke="black" d="M825.714,-502.466C844.458,-498.096 866.893,-491.708 885.953,-483 914.082,-470.148 942.994,-450.302 963.891,-434.545"/>
<polygon fill="black" stroke="black" points="966.24,-437.155 972.048,-428.294 961.982,-431.599 966.24,-437.155"/>
</g>
<!-- Virgin&#45;&gt;Ростелеком -->
<g id="edge14" class="edge"><title>Virgin&#45;&gt;Ростелеком</title>
<path fill="none" stroke="black" d="M825.694,-502.894C908.603,-489.286 1106.94,-464.025 1267.2,-501 1293.18,-506.992 1320.11,-519.939 1340.91,-531.653"/>
<polygon fill="black" stroke="black" points="1339.32,-534.772 1349.73,-536.745 1342.82,-528.711 1339.32,-534.772"/>
</g>
<!-- WMAX -->
<g id="node34" class="node"><title>WMAX</title>
<polygon fill="none" stroke="black" points="835.006,-77.5623 785.387,-90 735.768,-77.5623 735.815,-57.4377 834.96,-57.4377 835.006,-77.5623"/>
<text text-anchor="middle" x="785.387" y="-68.3" font-family="Times New Roman,serif" font-size="14.00">WMAX</text>
</g>
<!-- WMAX&#45;&gt;Релком -->
<g id="edge21" class="edge"><title>WMAX&#45;&gt;Релком</title>
<path fill="none" stroke="black" d="M835.166,-72C866.486,-72 907.22,-72 939.652,-72"/>
<polygon fill="black" stroke="black" points="939.868,-75.5001 949.868,-72 939.868,-68.5001 939.868,-75.5001"/>
</g>
<!-- WMAX&#45;&gt;Мегафон -->
<g id="edge19" class="edge"><title>WMAX&#45;&gt;Мегафон</title>
<path fill="none" stroke="black" d="M814.686,-82.9128C837.641,-93.2849 868.891,-111.16 885.953,-137 936.681,-213.831 878.433,-259.868 921.953,-341 931.221,-358.278 946.404,-373.732 960.485,-385.612"/>
<polygon fill="black" stroke="black" points="958.622,-388.606 968.596,-392.18 963.027,-383.167 958.622,-388.606"/>
</g>
<!-- WMAX&#45;&gt;WestCall -->
<g id="edge20" class="edge"><title>WMAX&#45;&gt;WestCall</title>
<path fill="none" stroke="black" d="M835.166,-59.3394C869.125,-50.5251 914.151,-38.8386 947.663,-30.1404"/>
<polygon fill="black" stroke="black" points="948.869,-33.4435 957.669,-27.5434 947.11,-26.668 948.869,-33.4435"/>
</g>
<!-- InstrNet -->
<g id="node35" class="node"><title>InstrNet</title>
<polygon fill="none" stroke="black" points="835.006,-623.562 785.387,-636 735.768,-623.562 735.815,-603.438 834.96,-603.438 835.006,-623.562"/>
<text text-anchor="middle" x="785.387" y="-614.3" font-family="Times New Roman,serif" font-size="14.00">InstrNet</text>
</g>
<!-- InstrNet&#45;&gt;ЭрТелеком -->
<g id="edge34" class="edge"><title>InstrNet&#45;&gt;ЭрТелеком</title>
<path fill="none" stroke="black" d="M841.829,-625.789C857.096,-629.79 873.002,-635.842 885.953,-645 927.795,-674.587 958.679,-725.736 976.571,-761.59"/>
<ellipse fill="none" stroke="black" cx="837.811" cy="-624.818" rx="4.00001" ry="4.00001"/>
<polygon fill="black" stroke="black" points="973.534,-763.348 981.055,-770.81 979.829,-760.286 973.534,-763.348"/>
</g>
<!-- InstrNet&#45;&gt;Мегафон -->
<g id="edge22" class="edge"><title>InstrNet&#45;&gt;Мегафон</title>
<path fill="none" stroke="black" d="M835.061,-612.468C852.436,-608.613 871.314,-602.078 885.953,-591 938.625,-551.138 970.917,-477.64 985.408,-437.661"/>
<polygon fill="black" stroke="black" points="988.78,-438.621 988.789,-428.026 982.175,-436.303 988.78,-438.621"/>
</g>
<!-- ТСвязь -->
<g id="node36" class="node"><title>ТСвязь</title>
<polygon fill="none" stroke="black" points="835.006,-261.562 785.387,-274 735.768,-261.562 735.815,-241.438 834.96,-241.438 835.006,-261.562"/>
<text text-anchor="middle" x="785.387" y="-252.3" font-family="Times New Roman,serif" font-size="14.00">ТСвязь</text>
</g>
<!-- ТСвязь&#45;&gt;Мегафон -->
<g id="edge23" class="edge"><title>ТСвязь&#45;&gt;Мегафон</title>
<path fill="none" stroke="black" d="M834.968,-261.655C852.334,-265.523 871.229,-272.036 885.953,-283 910.287,-301.12 902.81,-317.461 921.953,-341 934.782,-356.775 951.03,-372.547 964.889,-385.022"/>
<polygon fill="black" stroke="black" points="962.922,-387.955 972.73,-391.961 967.561,-382.713 962.922,-387.955"/>
</g>
<!-- ТСвязь&#45;&gt;Вымпелком -->
<g id="edge24" class="edge"><title>ТСвязь&#45;&gt;Вымпелком</title>
<path fill="none" stroke="black" d="M820.978,-265.257C840.142,-270.417 864.386,-276.995 885.953,-283 907.746,-289.068 931.954,-295.97 951.963,-301.719"/>
<polygon fill="black" stroke="black" points="951.136,-305.123 961.714,-304.524 953.071,-298.396 951.136,-305.123"/>
</g>
<!-- Восток -->
<g id="node37" class="node"><title>Восток</title>
<polygon fill="none" stroke="black" points="833.793,-461.562 785.387,-474 736.982,-461.562 737.027,-441.438 833.748,-441.438 833.793,-461.562"/>
<text text-anchor="middle" x="785.387" y="-452.3" font-family="Times New Roman,serif" font-size="14.00">Восток</text>
</g>
<!-- Восток&#45;&gt;Мегафон -->
<g id="edge25" class="edge"><title>Восток&#45;&gt;Мегафон</title>
<path fill="none" stroke="black" d="M833.597,-445.562C866.844,-438.211 911.26,-428.391 944.993,-420.932"/>
<polygon fill="black" stroke="black" points="946.086,-424.275 955.095,-418.699 944.575,-417.44 946.086,-424.275"/>
</g>
<!-- Старнет -->
<g id="node38" class="node"><title>Старнет</title>
<polygon fill="none" stroke="black" points="190.62,-761.562 138.18,-774 85.7407,-761.562 85.7897,-741.438 190.571,-741.438 190.62,-761.562"/>
<text text-anchor="middle" x="138.18" y="-752.3" font-family="Times New Roman,serif" font-size="14.00">Старнет</text>
</g>
<!-- Старнет&#45;&gt;Унико -->
<g id="edge27" class="edge"><title>Старнет&#45;&gt;Унико</title>
<path fill="none" stroke="black" d="M198.84,-755.155C294.247,-754.491 486.902,-755.98 648.822,-775 680.523,-778.724 715.878,-785.867 742.532,-791.87"/>
<ellipse fill="none" stroke="black" cx="194.749" cy="-755.186" rx="4" ry="4"/>
<polygon fill="black" stroke="black" points="741.767,-795.286 752.296,-794.106 743.33,-788.462 741.767,-795.286"/>
</g>
<!-- Старнет&#45;&gt;ЭрТелеком -->
<g id="edge28" class="edge"><title>Старнет&#45;&gt;ЭрТелеком</title>
<path fill="none" stroke="black" d="M198.71,-760.165C223.788,-763.792 252.605,-770.528 276.36,-783 393.623,-844.566 367.072,-941.101 489.754,-991 572.064,-1024.48 819.227,-995.68 885.953,-937 920.797,-906.357 891.167,-873.718 921.953,-839 925.976,-834.463 930.688,-830.407 935.744,-826.798"/>
<ellipse fill="none" stroke="black" cx="194.675" cy="-759.624" rx="4.00001" ry="4.00001"/>
<polygon fill="black" stroke="black" points="938.01,-829.502 944.519,-821.142 934.217,-823.618 938.01,-829.502"/>
</g>
<!-- Магистраль -->
<g id="node41" class="node"><title>Магистраль</title>
<polygon fill="none" stroke="black" points="453.951,-631.562 383.057,-644 312.163,-631.562 312.229,-611.438 453.885,-611.438 453.951,-631.562"/>
<text text-anchor="middle" x="383.057" y="-622.3" font-family="Times New Roman,serif" font-size="14.00">Магистраль</text>
</g>
<!-- Старнет&#45;&gt;Магистраль -->
<g id="edge46" class="edge"><title>Старнет&#45;&gt;Магистраль</title>
<path fill="none" stroke="black" stroke-dasharray="1,5" d="M173.872,-737.431C220.822,-712.301 303.964,-667.799 349.686,-643.327"/>
<ellipse fill="none" stroke="black" cx="170.096" cy="-739.452" rx="4.00002" ry="4.00002"/>
<ellipse fill="none" stroke="black" cx="353.435" cy="-641.32" rx="4.00002" ry="4.00002"/>
</g>
<!-- ВолгаЛинк -->
<g id="node39" class="node"><title>ВолгаЛинк</title>
<polygon fill="none" stroke="black" points="1252.92,-587.562 1186.06,-600 1119.2,-587.562 1119.26,-567.438 1252.86,-567.438 1252.92,-587.562"/>
<text text-anchor="middle" x="1186.06" y="-578.3" font-family="Times New Roman,serif" font-size="14.00">ВолгаЛинк</text>
</g>
<!-- ВолгаЛинк&#45;&gt;Ростелеком -->
<g id="edge36" class="edge"><title>ВолгаЛинк&#45;&gt;Ростелеком</title>
<path fill="none" stroke="black" d="M1260.83,-571.569C1279.3,-568.957 1298.92,-566.183 1316.71,-563.667"/>
<ellipse fill="black" stroke="black" cx="1256.73" cy="-572.148" rx="4.00001" ry="4.00001"/>
<polygon fill="black" stroke="black" points="1317.54,-567.085 1326.95,-562.219 1316.56,-560.154 1317.54,-567.085"/>
</g>
<!-- ИнсаткомВ -->
<g id="node40" class="node"><title>ИнсаткомВ</title>
<polygon fill="none" stroke="black" points="1254.14,-533.562 1186.06,-546 1117.99,-533.562 1118.05,-513.438 1254.07,-513.438 1254.14,-533.562"/>
<text text-anchor="middle" x="1186.06" y="-524.3" font-family="Times New Roman,serif" font-size="14.00">ИнсаткомВ</text>
</g>
<!-- ИнсаткомВ&#45;&gt;Ростелеком -->
<g id="edge37" class="edge"><title>ИнсаткомВ&#45;&gt;Ростелеком</title>
<path fill="none" stroke="black" d="M1250.24,-536.933C1271.6,-539.954 1295.41,-543.321 1316.63,-546.322"/>
<ellipse fill="black" stroke="black" cx="1246.25" cy="-536.37" rx="4.00001" ry="4.00001"/>
<polygon fill="black" stroke="black" points="1316.43,-549.828 1326.82,-547.763 1317.41,-542.897 1316.43,-549.828"/>
</g>
<!-- Магистраль&#45;&gt;Унико -->
<g id="edge38" class="edge"><title>Магистраль&#45;&gt;Унико</title>
<path fill="none" stroke="black" d="M407.892,-646.013C428.422,-662.347 459.449,-684.946 489.754,-699 556.192,-729.81 583.282,-709.322 648.822,-742 666.962,-751.045 666.899,-760.532 684.822,-770 702.702,-779.446 723.87,-786.729 742.08,-791.944"/>
<ellipse fill="black" stroke="black" cx="404.724" cy="-643.459" rx="4.00002" ry="4.00002"/>
<polygon fill="black" stroke="black" points="741.283,-795.355 751.853,-794.629 743.138,-788.605 741.283,-795.355"/>
</g>
<!-- Магистраль&#45;&gt;ЮТК -->
<g id="edge52" class="edge"><title>Магистраль&#45;&gt;ЮТК</title>
<path fill="none" stroke="black" stroke-dasharray="1,5" d="M461.989,-614.294C517.732,-609.853 592.547,-612.237 648.822,-645 673.749,-659.512 660.548,-683.418 684.822,-699 693.884,-704.817 982.005,-748.577 1116.79,-768.804"/>
<ellipse fill="none" stroke="black" cx="457.892" cy="-614.65" rx="4" ry="4"/>
<ellipse fill="none" stroke="black" cx="1121.1" cy="-769.45" rx="4.00001" ry="4.00001"/>
</g>
<!-- Магистраль&#45;&gt;Powernet -->
<g id="edge51" class="edge"><title>Магистраль&#45;&gt;Powernet</title>
<path fill="none" stroke="black" stroke-dasharray="1,5" d="M423.522,-608.006C456.482,-592.978 502.981,-571.777 534.309,-557.493"/>
<ellipse fill="none" stroke="black" cx="419.787" cy="-609.709" rx="4.00002" ry="4.00002"/>
<ellipse fill="none" stroke="black" cx="538.289" cy="-555.678" rx="4.00002" ry="4.00002"/>
</g>
<!-- Магистраль&#45;&gt;Евротелеком -->
<g id="edge53" class="edge"><title>Магистраль&#45;&gt;Евротелеком</title>
<path fill="none" stroke="black" stroke-dasharray="1,5" d="M393.754,-603.628C410.524,-566.129 447.259,-488.999 489.754,-431 563.517,-330.325 588.615,-308.502 684.822,-229 706.174,-211.356 732.496,-194.35 752.712,-182.162"/>
<ellipse fill="none" stroke="black" cx="392.104" cy="-607.351" rx="4.00002" ry="4.00002"/>
<ellipse fill="none" stroke="black" cx="756.155" cy="-180.108" rx="4.00002" ry="4.00002"/>
</g>
<!-- ФорумNet -->
<g id="node42" class="node"><title>ФорумNet</title>
<polygon fill="none" stroke="black" points="631.008,-969.562 569.288,-982 507.568,-969.562 507.626,-949.438 630.95,-949.438 631.008,-969.562"/>
<text text-anchor="middle" x="569.288" y="-960.3" font-family="Times New Roman,serif" font-size="14.00">ФорумNet</text>
</g>
<!-- ФорумNet&#45;&gt;Унико -->
<g id="edge40" class="edge"><title>ФорумNet&#45;&gt;Унико</title>
<path fill="none" stroke="black" d="M638.265,-945.51C642.084,-943.022 645.651,-940.201 648.822,-937 684.43,-901.055 648.041,-863.744 684.822,-829 698.317,-816.252 717.208,-809.401 734.912,-805.761"/>
<ellipse fill="black" stroke="black" cx="634.609" cy="-947.629" rx="4.00002" ry="4.00002"/>
<polygon fill="black" stroke="black" points="735.902,-809.141 745.149,-803.969 734.695,-802.246 735.902,-809.141"/>
</g>
<!-- ByteS -->
<g id="node43" class="node"><title>ByteS</title>
<polygon fill="none" stroke="black" points="609.626,-915.562 569.288,-928 528.95,-915.562 528.987,-895.438 609.588,-895.438 609.626,-915.562"/>
<text text-anchor="middle" x="569.288" y="-906.3" font-family="Times New Roman,serif" font-size="14.00">ByteS</text>
</g>
<!-- ByteS&#45;&gt;Унико -->
<g id="edge41" class="edge"><title>ByteS&#45;&gt;Унико</title>
<path fill="none" stroke="black" d="M617.144,-899.434C628.247,-895.487 639.546,-890.154 648.822,-883 671.662,-865.384 661.41,-845.849 684.822,-829 700.012,-818.068 719.389,-811.562 737.006,-807.69"/>
<ellipse fill="black" stroke="black" cx="613.314" cy="-900.697" rx="4.00001" ry="4.00001"/>
<polygon fill="black" stroke="black" points="737.992,-811.064 747.129,-805.702 736.642,-804.195 737.992,-811.064"/>
</g>
<!-- АвантекПлюс -->
<g id="node44" class="node"><title>АвантекПлюс</title>
<polygon fill="none" stroke="black" points="648.856,-861.562 569.288,-874 489.72,-861.562 489.794,-841.438 648.781,-841.438 648.856,-861.562"/>
<text text-anchor="middle" x="569.288" y="-852.3" font-family="Times New Roman,serif" font-size="14.00">АвантекПлюс</text>
</g>
<!-- АвантекПлюс&#45;&gt;Унико -->
<g id="edge42" class="edge"><title>АвантекПлюс&#45;&gt;Унико</title>
<path fill="none" stroke="black" d="M636.341,-839.34C671.08,-830.578 712.604,-820.105 742.823,-812.483"/>
<ellipse fill="black" stroke="black" cx="632.105" cy="-840.409" rx="4.00001" ry="4.00001"/>
<polygon fill="black" stroke="black" points="743.771,-815.854 752.612,-810.014 742.059,-809.066 743.771,-815.854"/>
</g>
<!-- Robor -->
<g id="node45" class="node"><title>Robor</title>
<polygon fill="none" stroke="black" points="1228.72,-851.562 1186.06,-864 1143.41,-851.562 1143.44,-831.438 1228.68,-831.438 1228.72,-851.562"/>
<text text-anchor="middle" x="1186.06" y="-842.3" font-family="Times New Roman,serif" font-size="14.00">Robor</text>
</g>
<!-- Robor&#45;&gt;Транстелеком -->
<g id="edge43" class="edge"><title>Robor&#45;&gt;Транстелеком</title>
<path fill="none" stroke="black" d="M1236.4,-829.562C1246.6,-826.113 1257.26,-822.469 1267.2,-819 1286.52,-812.259 1307.67,-804.676 1326.26,-797.94"/>
<ellipse fill="black" stroke="black" cx="1232.51" cy="-830.877" rx="4.00001" ry="4.00001"/>
<polygon fill="black" stroke="black" points="1327.52,-801.207 1335.72,-794.504 1325.13,-794.627 1327.52,-801.207"/>
</g>
<!-- ВистОнЛайн -->
<g id="node46" class="node"><title>ВистОнЛайн</title>
<polygon fill="none" stroke="black" points="645.429,-807.562 569.288,-820 493.147,-807.562 493.218,-787.438 645.358,-787.438 645.429,-807.562"/>
<text text-anchor="middle" x="569.288" y="-798.3" font-family="Times New Roman,serif" font-size="14.00">ВистОнЛайн</text>
</g>
<!-- ВистОнЛайн&#45;&gt;Унико -->
<g id="edge44" class="edge"><title>ВистОнЛайн&#45;&gt;Унико</title>
<path fill="none" stroke="black" d="M653.647,-802C680.453,-802 709.347,-802 733.137,-802"/>
<ellipse fill="black" stroke="black" cx="649.47" cy="-802" rx="4" ry="4"/>
<polygon fill="black" stroke="black" points="733.34,-805.5 743.34,-802 733.34,-798.5 733.34,-805.5"/>
</g>
</g>
</svg>
