<?xml version="1.0" encoding="UTF-8" standalone="no"?>
<!DOCTYPE svg PUBLIC "-//W3C//DTD SVG 1.1//EN"
 "http://www.w3.org/Graphics/SVG/1.1/DTD/svg11.dtd">
<!-- Generated by graphviz version 2.38.0 (20140413.2041)
 -->
<!-- Title: ispgraph Pages: 1 -->
<svg width="1410pt" height="1339pt"
 viewBox="0.00 0.00 1409.78 1339.00" xmlns="http://www.w3.org/2000/svg" xmlns:xlink="http://www.w3.org/1999/xlink">
<g id="graph0" class="graph" transform="scale(1 1) rotate(0) translate(4 1335)">
<title>ispgraph</title>
<polygon fill="white" stroke="none" points="-4,4 -4,-1335 1405.78,-1335 1405.78,4 -4,4"/>
<!-- Унико -->
<g id="node1" class="node"><title>Унико</title>
<polygon fill="none" stroke="black" points="593.668,-970 572.641,-988 530.586,-988 509.559,-970 530.586,-952 572.641,-952 593.668,-970"/>
<text text-anchor="middle" x="551.614" y="-966.3" font-family="Times New Roman,serif" font-size="14.00">Унико</text>
</g>
<!-- ЭрТелеком -->
<g id="node3" class="node"><title>ЭрТелеком</title>
<polygon fill="none" stroke="black" points="1015.88,-699 979.15,-730.054 905.68,-730.054 868.945,-699 905.68,-667.946 979.15,-667.946 1015.88,-699"/>
<text text-anchor="middle" x="942.415" y="-702.8" font-family="Times New Roman,serif" font-size="14.00">ЭР&#45;Телеком</text>
<text text-anchor="middle" x="942.415" y="-687.8" font-family="Times New Roman,serif" font-size="14.00">транзит</text>
</g>
<!-- Унико&#45;&gt;ЭрТелеком -->
<g id="edge58" class="edge"><title>Унико&#45;&gt;ЭрТелеком</title>
<path fill="none" stroke="black" stroke-dasharray="1,5" d="M563.733,-944.453C576.361,-918.626 599.49,-879.661 631.799,-859 708.441,-809.989 761.982,-877.942 832.93,-821 864.607,-795.577 841.35,-766.818 868.93,-737 873.645,-731.902 879.202,-727.365 885.108,-723.362"/>
<ellipse fill="none" stroke="black" cx="562.015" cy="-948.074" rx="4.00002" ry="4.00002"/>
<ellipse fill="none" stroke="black" cx="888.788" cy="-721.04" rx="4.00002" ry="4.00002"/>
</g>
<!-- Ростелеком -->
<g id="node10" class="node"><title>Ростелеком</title>
<polygon fill="none" stroke="black" points="1391.07,-832 1358.52,-850 1293.44,-850 1260.89,-832 1293.44,-814 1358.52,-814 1391.07,-832"/>
<text text-anchor="middle" x="1325.98" y="-828.3" font-family="Times New Roman,serif" font-size="14.00">Ростелеком</text>
</g>
<!-- Унико&#45;&gt;Ростелеком -->
<g id="edge18" class="edge"><title>Унико&#45;&gt;Ростелеком</title>
<path fill="none" stroke="black" d="M565.65,-988.172C579.668,-1006 603.759,-1032.05 631.799,-1043 715.064,-1075.52 744.231,-1054.11 832.93,-1043 1006.42,-1021.28 1062.83,-1033.54 1214.18,-946 1252.6,-923.777 1286.48,-884.486 1306.35,-858.342"/>
<polygon fill="black" stroke="black" points="1309.38,-860.135 1312.55,-850.023 1303.77,-855.956 1309.38,-860.135"/>
</g>
<!-- Powernet -->
<g id="node19" class="node"><title>Powernet</title>
<polygon fill="none" stroke="black" points="783.933,-686 758.149,-704 706.58,-704 680.796,-686 706.58,-668 758.149,-668 783.933,-686"/>
<text text-anchor="middle" x="732.365" y="-682.3" font-family="Times New Roman,serif" font-size="14.00">Powernet</text>
</g>
<!-- Унико&#45;&gt;Powernet -->
<g id="edge33" class="edge"><title>Унико&#45;&gt;Powernet</title>
<path fill="none" stroke="black" d="M552.678,-943.373C554.057,-889.668 564.541,-769.005 631.799,-704 644.384,-691.837 661.868,-685.026 678.678,-681.753"/>
<ellipse fill="none" stroke="black" cx="552.598" cy="-947.7" rx="4" ry="4"/>
<polygon fill="black" stroke="black" points="679.659,-685.143 689.007,-680.157 678.59,-678.225 679.659,-685.143"/>
</g>
<!-- RETN -->
<g id="node20" class="node"><title>RETN</title>
<polygon fill="none" stroke="black" points="771.918,-1016 752.141,-1034 712.588,-1034 692.812,-1016 712.588,-998 752.141,-998 771.918,-1016"/>
<text text-anchor="middle" x="732.365" y="-1012.3" font-family="Times New Roman,serif" font-size="14.00">RETN</text>
</g>
<!-- Унико&#45;&gt;RETN -->
<g id="edge19" class="edge"><title>Унико&#45;&gt;RETN</title>
<path fill="none" stroke="black" d="M584.571,-978.224C614.383,-985.896 658.975,-997.371 691.185,-1005.66"/>
<polygon fill="black" stroke="black" points="690.616,-1009.13 701.173,-1008.23 692.361,-1002.35 690.616,-1009.13"/>
</g>
<!-- ДомРу -->
<g id="node2" class="node"><title>ДомРу</title>
<polygon fill="none" stroke="black" points="786.435,-794 759.4,-812 705.329,-812 678.294,-794 705.329,-776 759.4,-776 786.435,-794"/>
<text text-anchor="middle" x="732.365" y="-790.3" font-family="Times New Roman,serif" font-size="14.00">ДОМ.RU</text>
</g>
<!-- ДомРу&#45;&gt;ЭрТелеком -->
<g id="edge36" class="edge"><title>ДомРу&#45;&gt;ЭрТелеком</title>
<path fill="none" stroke="black" d="M782.439,-783.843C798.861,-779.623 817.026,-774.039 832.93,-767 850.292,-759.316 852.864,-754.119 868.93,-744 875.957,-739.575 883.382,-734.929 890.694,-730.373"/>
<ellipse fill="none" stroke="black" cx="778.417" cy="-784.841" rx="4.00001" ry="4.00001"/>
<polygon fill="black" stroke="black" points="892.554,-733.338 899.196,-725.083 888.856,-727.394 892.554,-733.338"/>
</g>
<!-- ЮТК -->
<g id="node15" class="node"><title>ЮТК</title>
<polygon fill="none" stroke="black" points="1204.11,-708 1168.58,-739.054 1097.5,-739.054 1061.97,-708 1097.5,-676.946 1168.58,-676.946 1204.11,-708"/>
<text text-anchor="middle" x="1133.04" y="-711.8" font-family="Times New Roman,serif" font-size="14.00">Ростелеком</text>
<text text-anchor="middle" x="1133.04" y="-696.8" font-family="Times New Roman,serif" font-size="14.00">Волгоград</text>
</g>
<!-- ЭрТелеком&#45;&gt;ЮТК -->
<g id="edge62" class="edge"><title>ЭрТелеком&#45;&gt;ЮТК</title>
<path fill="none" stroke="black" stroke-dasharray="1,5" d="M1020.28,-702.667C1032.42,-703.247 1044.96,-703.845 1057.06,-704.422"/>
<ellipse fill="none" stroke="black" cx="1016.04" cy="-702.465" rx="4" ry="4"/>
<ellipse fill="none" stroke="black" cx="1061.35" cy="-704.627" rx="4" ry="4"/>
</g>
<!-- Связьинформ -->
<g id="node26" class="node"><title>Связьинформ</title>
<polygon fill="none" stroke="black" points="1214.32,-437.562 1133.04,-450 1051.76,-437.562 1051.83,-417.438 1214.25,-417.438 1214.32,-437.562"/>
<text text-anchor="middle" x="1133.04" y="-428.3" font-family="Times New Roman,serif" font-size="14.00">Связьинформ</text>
</g>
<!-- ЭрТелеком&#45;&gt;Связьинформ -->
<g id="edge63" class="edge"><title>ЭрТелеком&#45;&gt;Связьинформ</title>
<path fill="none" stroke="black" stroke-dasharray="1,5" d="M950.98,-659.657C963.15,-606.778 992.044,-513.174 1051.9,-459 1058.1,-453.384 1065.52,-448.931 1073.3,-445.4"/>
<ellipse fill="none" stroke="black" cx="950.039" cy="-663.878" rx="4.00001" ry="4.00001"/>
<ellipse fill="none" stroke="black" cx="1077.47" cy="-443.689" rx="4.00001" ry="4.00001"/>
</g>
<!-- Транстелеком -->
<g id="node4" class="node"><title>Транстелеком</title>
<polygon fill="none" stroke="black" points="1401.58,-486 1363.78,-504 1288.18,-504 1250.38,-486 1288.18,-468 1363.78,-468 1401.58,-486"/>
<text text-anchor="middle" x="1325.98" y="-482.3" font-family="Times New Roman,serif" font-size="14.00">Транстелеком</text>
</g>
<!-- Волгатранстелеком -->
<g id="node5" class="node"><title>Волгатранстелеком</title>
<polygon fill="none" stroke="black" points="832.996,-886 782.68,-904 682.049,-904 631.734,-886 682.049,-868 782.68,-868 832.996,-886"/>
<text text-anchor="middle" x="732.365" y="-882.3" font-family="Times New Roman,serif" font-size="14.00">Волгатранстелеком</text>
</g>
<!-- Волгатранстелеком&#45;&gt;ЭрТелеком -->
<g id="edge60" class="edge"><title>Волгатранстелеком&#45;&gt;ЭрТелеком</title>
<path fill="none" stroke="black" stroke-dasharray="1,5" d="M807.708,-870.967C817.019,-866.661 825.769,-861.123 832.93,-854 869.401,-817.723 837.158,-784.456 868.93,-744 874.324,-737.133 881.077,-731.042 888.278,-725.734"/>
<ellipse fill="none" stroke="black" cx="803.826" cy="-872.607" rx="4.00002" ry="4.00002"/>
<ellipse fill="none" stroke="black" cx="891.703" cy="-723.359" rx="4.00002" ry="4.00002"/>
</g>
<!-- Волгатранстелеком&#45;&gt;Транстелеком -->
<g id="edge35" class="edge"><title>Волгатранстелеком&#45;&gt;Транстелеком</title>
<path fill="none" stroke="black" d="M798.752,-868.832C926.518,-835.065 1198.3,-762.069 1214.18,-748 1285.59,-684.723 1312.32,-567.742 1321.14,-514.148"/>
<ellipse fill="none" stroke="black" cx="794.787" cy="-869.879" rx="4.00001" ry="4.00001"/>
<polygon fill="black" stroke="black" points="1324.64,-514.431 1322.72,-504.012 1317.72,-513.356 1324.64,-514.431"/>
</g>
<!-- Волгатранстелеком&#45;&gt;ЮТК -->
<g id="edge59" class="edge"><title>Волгатранстелеком&#45;&gt;ЮТК</title>
<path fill="none" stroke="black" stroke-dasharray="1,5" d="M805.686,-870.439C815.53,-866.207 824.969,-860.83 832.93,-854 860.084,-830.705 841.352,-804.792 868.93,-782 872.917,-778.705 993.575,-745.558 1070.09,-724.76"/>
<ellipse fill="none" stroke="black" cx="801.814" cy="-871.979" rx="4.00001" ry="4.00001"/>
<ellipse fill="none" stroke="black" cx="1074.41" cy="-723.586" rx="4.00001" ry="4.00001"/>
</g>
<!-- Orange -->
<g id="node16" class="node"><title>Orange</title>
<polygon fill="none" stroke="black" points="984.972,-886 963.693,-904 921.136,-904 899.858,-886 921.136,-868 963.693,-868 984.972,-886"/>
<text text-anchor="middle" x="942.415" y="-882.3" font-family="Times New Roman,serif" font-size="14.00">Orange</text>
</g>
<!-- Волгатранстелеком&#45;&gt;Orange -->
<g id="edge61" class="edge"><title>Волгатранстелеком&#45;&gt;Orange</title>
<path fill="none" stroke="black" stroke-dasharray="1,5" d="M841.138,-886C858.775,-886 876.267,-886 891.585,-886"/>
<ellipse fill="none" stroke="black" cx="837.124" cy="-886" rx="4" ry="4"/>
<ellipse fill="none" stroke="black" cx="895.858" cy="-886" rx="4" ry="4"/>
</g>
<!-- Релком -->
<g id="node6" class="node"><title>Релком</title>
<polygon fill="none" stroke="black" points="987.975,-72 965.195,-90 919.634,-90 896.854,-72 919.634,-54 965.195,-54 987.975,-72"/>
<text text-anchor="middle" x="942.415" y="-68.3" font-family="Times New Roman,serif" font-size="14.00">Релком</text>
</g>
<!-- Мегафон -->
<g id="node7" class="node"><title>Мегафон</title>
<polygon fill="none" stroke="black" points="995.485,-356 968.95,-374 915.88,-374 889.345,-356 915.88,-338 968.95,-338 995.485,-356"/>
<text text-anchor="middle" x="942.415" y="-352.3" font-family="Times New Roman,serif" font-size="14.00">Мегафон</text>
</g>
<!-- Вымпелком -->
<g id="node8" class="node"><title>Вымпелком</title>
<polygon fill="none" stroke="black" points="987.473,-464 964.944,-482 919.885,-482 897.356,-464 919.885,-446 964.944,-446 987.473,-464"/>
<text text-anchor="middle" x="942.415" y="-460.3" font-family="Times New Roman,serif" font-size="14.00">Билайн</text>
</g>
<!-- КоламбияТелеком -->
<g id="node9" class="node"><title>КоламбияТелеком</title>
<polygon fill="none" stroke="black" points="828.49,-740 780.427,-758 684.302,-758 636.239,-740 684.302,-722 780.427,-722 828.49,-740"/>
<text text-anchor="middle" x="732.365" y="-736.3" font-family="Times New Roman,serif" font-size="14.00">КоламбияТелеком</text>
</g>
<!-- КоламбияТелеком&#45;&gt;ЭрТелеком -->
<g id="edge37" class="edge"><title>КоламбияТелеком&#45;&gt;ЭрТелеком</title>
<path fill="none" stroke="black" d="M803.644,-726.15C825.897,-721.765 850.461,-716.924 872.61,-712.559"/>
<ellipse fill="none" stroke="black" cx="799.711" cy="-726.925" rx="4.00001" ry="4.00001"/>
<polygon fill="black" stroke="black" points="873.465,-715.958 882.6,-710.591 872.112,-709.09 873.465,-715.958"/>
</g>
<!-- HE -->
<g id="node11" class="node"><title>HE</title>
<polygon fill="none" stroke="black" points="759.365,-1108 745.865,-1126 718.865,-1126 705.365,-1108 718.865,-1090 745.865,-1090 759.365,-1108"/>
<text text-anchor="middle" x="732.365" y="-1104.3" font-family="Times New Roman,serif" font-size="14.00">HE</text>
</g>
<!-- КвантТелеком -->
<g id="node12" class="node"><title>КвантТелеком</title>
<polygon fill="none" stroke="black" points="216.282,-1043 177.231,-1061 99.1293,-1061 60.0784,-1043 99.1293,-1025 177.231,-1025 216.282,-1043"/>
<text text-anchor="middle" x="138.18" y="-1039.3" font-family="Times New Roman,serif" font-size="14.00">КвантТелеком</text>
</g>
<!-- Tele2 -->
<g id="node13" class="node"><title>Tele2</title>
<polygon fill="none" stroke="black" points="1168.09,-540 1150.56,-558 1115.52,-558 1097.99,-540 1115.52,-522 1150.56,-522 1168.09,-540"/>
<text text-anchor="middle" x="1133.04" y="-536.3" font-family="Times New Roman,serif" font-size="14.00">Tele2</text>
</g>
<!-- Tele2&#45;&gt;Транстелеком -->
<g id="edge3" class="edge"><title>Tele2&#45;&gt;Транстелеком</title>
<path fill="none" stroke="black" d="M1160.99,-532.378C1188.71,-524.538 1232.72,-512.093 1268.17,-502.067"/>
<polygon fill="black" stroke="black" points="1269.25,-505.398 1277.92,-499.309 1267.35,-498.663 1269.25,-505.398"/>
</g>
<!-- Tele2&#45;&gt;Ростелеком -->
<g id="edge2" class="edge"><title>Tele2&#45;&gt;Ростелеком</title>
<path fill="none" stroke="black" d="M1162.66,-545.626C1179.49,-550.225 1200.15,-558.283 1214.18,-572 1281.65,-637.934 1310.27,-751.474 1320.34,-803.93"/>
<polygon fill="black" stroke="black" points="1316.92,-804.663 1322.16,-813.866 1323.8,-803.399 1316.92,-804.663"/>
</g>
<!-- МТС -->
<g id="node14" class="node"><title>МТС</title>
<polygon fill="none" stroke="black" points="173.228,-1097 155.704,-1115 120.656,-1115 103.133,-1097 120.656,-1079 155.704,-1079 173.228,-1097"/>
<text text-anchor="middle" x="138.18" y="-1093.3" font-family="Times New Roman,serif" font-size="14.00">МТС</text>
</g>
<!-- ЮТК&#45;&gt;Ростелеком -->
<g id="edge34" class="edge"><title>ЮТК&#45;&gt;Ростелеком</title>
<path fill="none" stroke="black" d="M1181.64,-738.91C1214.76,-760.421 1258.26,-788.67 1288.61,-808.383"/>
<ellipse fill="none" stroke="black" cx="1177.89" cy="-736.476" rx="4.00002" ry="4.00002"/>
<polygon fill="black" stroke="black" points="1286.9,-811.446 1297.2,-813.957 1290.72,-805.575 1286.9,-811.446"/>
</g>
<!-- ПросторТелеком -->
<g id="node17" class="node"><title>ПросторТелеком</title>
<polygon fill="none" stroke="black" points="822.482,-410 777.423,-428 687.306,-428 642.247,-410 687.306,-392 777.423,-392 822.482,-410"/>
<text text-anchor="middle" x="732.365" y="-406.3" font-family="Times New Roman,serif" font-size="14.00">ПросторТелеком</text>
</g>
<!-- ПросторТелеком&#45;&gt;Мегафон -->
<g id="edge21" class="edge"><title>ПросторТелеком&#45;&gt;Мегафон</title>
<path fill="none" stroke="black" d="M787.484,-395.953C820.403,-387.409 862.059,-376.597 893.734,-368.376"/>
<polygon fill="black" stroke="black" points="894.843,-371.704 903.643,-365.804 893.085,-364.928 894.843,-371.704"/>
</g>
<!-- ПросторТелеком&#45;&gt;Вымпелком -->
<g id="edge20" class="edge"><title>ПросторТелеком&#45;&gt;Вымпелком</title>
<path fill="none" stroke="black" d="M787.484,-424.047C821.924,-432.986 865.927,-444.407 898.059,-452.747"/>
<polygon fill="black" stroke="black" points="897.488,-456.215 908.047,-455.339 899.247,-449.439 897.488,-456.215"/>
</g>
<!-- WestCall -->
<g id="node18" class="node"><title>WestCall</title>
<polygon fill="none" stroke="black" points="993.481,-18 967.948,-36 916.882,-36 891.348,-18 916.882,-2.13163e-014 967.948,-0 993.481,-18"/>
<text text-anchor="middle" x="942.415" y="-14.3" font-family="Times New Roman,serif" font-size="14.00">WestCall</text>
</g>
<!-- Powernet&#45;&gt;Унико -->
<g id="edge32" class="edge"><title>Powernet&#45;&gt;Унико</title>
<path fill="none" stroke="black" d="M685.987,-697.032C667.083,-701.149 646.223,-708.06 631.799,-722 569.429,-782.28 555.881,-890.422 553.141,-941.769"/>
<ellipse fill="none" stroke="black" cx="690.024" cy="-696.217" rx="4.00001" ry="4.00001"/>
<polygon fill="black" stroke="black" points="549.641,-941.685 552.707,-951.826 556.635,-941.987 549.641,-941.685"/>
</g>
<!-- Powernet&#45;&gt;ЭрТелеком -->
<g id="edge54" class="edge"><title>Powernet&#45;&gt;ЭрТелеком</title>
<path fill="none" stroke="black" stroke-dasharray="1,5" d="M788.116,-689.421C811.804,-690.901 839.925,-692.658 865.573,-694.261"/>
<ellipse fill="none" stroke="black" cx="783.788" cy="-689.151" rx="4" ry="4"/>
<ellipse fill="none" stroke="black" cx="869.812" cy="-694.526" rx="4" ry="4"/>
</g>
<!-- Powernet&#45;&gt;Мегафон -->
<g id="edge11" class="edge"><title>Powernet&#45;&gt;Мегафон</title>
<path fill="none" stroke="black" d="M780.968,-683.908C799.689,-680.615 819.803,-673.57 832.93,-659 899.838,-584.741 825.87,-527.205 868.93,-437 879.037,-415.827 896.424,-396.114 911.635,-381.438"/>
<polygon fill="black" stroke="black" points="914.422,-383.625 919.341,-374.241 909.644,-378.509 914.422,-383.625"/>
</g>
<!-- Powernet&#45;&gt;Вымпелком -->
<g id="edge12" class="edge"><title>Powernet&#45;&gt;Вымпелком</title>
<path fill="none" stroke="black" d="M777.938,-681.617C796.475,-677.954 817.273,-671.251 832.93,-659 888.739,-615.331 920.181,-534.511 933.584,-491.926"/>
<polygon fill="black" stroke="black" points="936.976,-492.799 936.535,-482.214 930.279,-490.764 936.976,-492.799"/>
</g>
<!-- ГородокТочкаРу -->
<g id="node21" class="node"><title>ГородокТочкаРу</title>
<polygon fill="none" stroke="black" points="462.788,-948.562 391.894,-961 321,-948.562 321.066,-928.438 462.722,-928.438 462.788,-948.562"/>
<text text-anchor="middle" x="391.894" y="-939.3" font-family="Times New Roman,serif" font-size="14.00">Городок.Ру</text>
</g>
<!-- ГородокТочкаРу&#45;&gt;Унико -->
<g id="edge42" class="edge"><title>ГородокТочкаРу&#45;&gt;Унико</title>
<path fill="none" stroke="black" d="M452.664,-953.232C470.468,-956.28 489.653,-959.564 506.285,-962.411"/>
<ellipse fill="black" stroke="black" cx="448.48" cy="-952.516" rx="4.00001" ry="4.00001"/>
<polygon fill="black" stroke="black" points="505.828,-965.884 516.275,-964.122 507.009,-958.984 505.828,-965.884"/>
</g>
<!-- STARLINE -->
<g id="node22" class="node"><title>STARLINE</title>
<polygon fill="none" stroke="black" points="205.647,-1156.56 138.18,-1169 70.7135,-1156.56 70.7765,-1136.44 205.584,-1136.44 205.647,-1156.56"/>
<text text-anchor="middle" x="138.18" y="-1147.3" font-family="Times New Roman,serif" font-size="14.00">STARLINE</text>
</g>
<!-- VSSA -->
<g id="node23" class="node"><title>VSSA</title>
<polygon fill="none" stroke="black" points="180.838,-1210.56 138.18,-1223 95.5225,-1210.56 95.5623,-1190.44 180.798,-1190.44 180.838,-1210.56"/>
<text text-anchor="middle" x="138.18" y="-1201.3" font-family="Times New Roman,serif" font-size="14.00">VSSA</text>
</g>
<!-- ИнформационныйСервис -->
<g id="node24" class="node"><title>ИнформационныйСервис</title>
<polygon fill="none" stroke="black" points="276.541,-1264.56 138.18,-1277 -0.180374,-1264.56 -0.0512311,-1244.44 276.412,-1244.44 276.541,-1264.56"/>
<text text-anchor="middle" x="138.18" y="-1255.3" font-family="Times New Roman,serif" font-size="14.00">ИнформационныйСервис</text>
</g>
<!-- SmIT34 -->
<g id="node25" class="node"><title>SmIT34</title>
<polygon fill="none" stroke="black" points="187.799,-1318.56 138.18,-1331 88.5612,-1318.56 88.6075,-1298.44 187.753,-1298.44 187.799,-1318.56"/>
<text text-anchor="middle" x="138.18" y="-1309.3" font-family="Times New Roman,serif" font-size="14.00">SmIT34</text>
</g>
<!-- Связьинформ&#45;&gt;Унико -->
<g id="edge29" class="edge"><title>Связьинформ&#45;&gt;Унико</title>
<path fill="none" stroke="black" d="M1068.91,-444.925C1062.38,-448.533 1056.48,-453.134 1051.9,-459 989.65,-538.797 1085.9,-839.905 1015.9,-913 960.097,-971.272 710.82,-973.379 602.8,-971.439"/>
<ellipse fill="none" stroke="black" cx="1072.6" cy="-443.133" rx="4.00002" ry="4.00002"/>
<polygon fill="black" stroke="black" points="602.559,-967.933 592.492,-971.233 602.42,-974.932 602.559,-967.933"/>
</g>
<!-- Связьинформ&#45;&gt;Транстелеком -->
<g id="edge1" class="edge"><title>Связьинформ&#45;&gt;Транстелеком</title>
<path fill="none" stroke="black" d="M1175,-443.584C1202.17,-451.269 1238.21,-461.459 1268.14,-469.925"/>
<polygon fill="black" stroke="black" points="1267.46,-473.371 1278.04,-472.724 1269.37,-466.635 1267.46,-473.371"/>
</g>
<!-- СпринтСеть -->
<g id="node27" class="node"><title>СпринтСеть</title>
<polygon fill="none" stroke="black" points="805.579,-361.562 732.365,-374 659.151,-361.562 659.219,-341.438 805.51,-341.438 805.579,-361.562"/>
<text text-anchor="middle" x="732.365" y="-352.3" font-family="Times New Roman,serif" font-size="14.00">СпринтСеть</text>
</g>
<!-- СпринтСеть&#45;&gt;Мегафон -->
<g id="edge5" class="edge"><title>СпринтСеть&#45;&gt;Мегафон</title>
<path fill="none" stroke="black" d="M805.547,-356C829.469,-356 855.879,-356 879.003,-356"/>
<polygon fill="black" stroke="black" points="879.035,-359.5 889.035,-356 879.035,-352.5 879.035,-359.5"/>
</g>
<!-- СпринтСеть&#45;&gt;Вымпелком -->
<g id="edge4" class="edge"><title>СпринтСеть&#45;&gt;Вымпелком</title>
<path fill="none" stroke="black" d="M787.669,-364.645C803.067,-368.668 819.328,-374.519 832.93,-383 853.508,-395.83 850.032,-408.804 868.93,-424 879.536,-432.528 892.213,-440.22 903.977,-446.528"/>
<polygon fill="black" stroke="black" points="902.67,-449.792 913.16,-451.279 905.886,-443.575 902.67,-449.792"/>
</g>
<!-- СпринтСеть&#45;&gt;Связьинформ -->
<g id="edge49" class="edge"><title>СпринтСеть&#45;&gt;Связьинформ</title>
<path fill="none" stroke="black" stroke-dasharray="1,5" d="M789.426,-367.328C813.835,-372.219 842.784,-377.962 868.93,-383 927.288,-394.245 993.012,-406.485 1044.17,-415.919"/>
<ellipse fill="none" stroke="black" cx="785.254" cy="-366.492" rx="4.00001" ry="4.00001"/>
<ellipse fill="none" stroke="black" cx="1048.32" cy="-416.684" rx="4.00001" ry="4.00001"/>
</g>
<!-- Экспилайн -->
<g id="node28" class="node"><title>Экспилайн</title>
<polygon fill="none" stroke="black" points="799.225,-123.562 732.365,-136 665.504,-123.562 665.567,-103.438 799.163,-103.438 799.225,-123.562"/>
<text text-anchor="middle" x="732.365" y="-114.3" font-family="Times New Roman,serif" font-size="14.00">Экспилайн</text>
</g>
<!-- Экспилайн&#45;&gt;Мегафон -->
<g id="edge6" class="edge"><title>Экспилайн&#45;&gt;Мегафон</title>
<path fill="none" stroke="black" d="M791.19,-125.158C805.968,-129.157 821.027,-135.367 832.93,-145 892.489,-193.198 922.771,-282.752 934.878,-328.118"/>
<polygon fill="black" stroke="black" points="931.505,-329.058 937.381,-337.874 938.286,-327.318 931.505,-329.058"/>
</g>
<!-- Экспилайн&#45;&gt;Связьинформ -->
<g id="edge51" class="edge"><title>Экспилайн&#45;&gt;Связьинформ</title>
<path fill="none" stroke="black" stroke-dasharray="1,5" d="M807.262,-124.195C869.297,-132.891 956.985,-153.79 1015.9,-204 1082.1,-260.423 1114.98,-363.925 1126.78,-409.474"/>
<ellipse fill="none" stroke="black" cx="803.031" cy="-123.627" rx="4.00001" ry="4.00001"/>
<ellipse fill="none" stroke="black" cx="1127.76" cy="-413.401" rx="4.00001" ry="4.00001"/>
</g>
<!-- ЭРОС -->
<g id="node29" class="node"><title>ЭРОС</title>
<polygon fill="none" stroke="black" points="595.985,-1071.56 551.614,-1084 507.242,-1071.56 507.283,-1051.44 595.944,-1051.44 595.985,-1071.56"/>
<text text-anchor="middle" x="551.614" y="-1062.3" font-family="Times New Roman,serif" font-size="14.00">ЭРОС</text>
</g>
<!-- ЭРОС&#45;&gt;Волгатранстелеком -->
<g id="edge7" class="edge"><title>ЭРОС&#45;&gt;Волгатранстелеком</title>
<path fill="none" stroke="black" d="M567.242,-1051.27C597.728,-1020.57 668.368,-949.437 706.267,-911.273"/>
<polygon fill="black" stroke="black" points="708.826,-913.663 713.389,-904.101 703.859,-908.731 708.826,-913.663"/>
</g>
<!-- ЭРОС&#45;&gt;HE -->
<g id="edge8" class="edge"><title>ЭРОС&#45;&gt;HE</title>
<path fill="none" stroke="black" d="M587.079,-1074.1C619.436,-1081.7 667.471,-1092.99 699.094,-1100.42"/>
<polygon fill="black" stroke="black" points="698.608,-1103.9 709.143,-1102.78 700.209,-1097.08 698.608,-1103.9"/>
</g>
<!-- Comrise -->
<g id="node30" class="node"><title>Comrise</title>
<polygon fill="none" stroke="black" points="443.226,-777.562 391.894,-790 340.562,-777.562 340.61,-757.438 443.178,-757.438 443.226,-777.562"/>
<text text-anchor="middle" x="391.894" y="-768.3" font-family="Times New Roman,serif" font-size="14.00">Comrise</text>
</g>
<!-- Comrise&#45;&gt;Унико -->
<g id="edge52" class="edge"><title>Comrise&#45;&gt;Унико</title>
<path fill="none" stroke="black" stroke-dasharray="1,5" d="M436.267,-784.03C449.141,-789.487 462.241,-797.215 471.428,-808 510.305,-853.638 473.496,-888.574 507.428,-938 510.622,-942.652 514.716,-946.892 519.108,-950.654"/>
<ellipse fill="none" stroke="black" cx="432.467" cy="-782.536" rx="4.00001" ry="4.00001"/>
<ellipse fill="none" stroke="black" cx="522.538" cy="-953.348" rx="4.00002" ry="4.00002"/>
</g>
<!-- Comrise&#45;&gt;Вымпелком -->
<g id="edge10" class="edge"><title>Comrise&#45;&gt;Вымпелком</title>
<path fill="none" stroke="black" d="M421.795,-757.237C438.814,-747.067 459.315,-731.974 471.428,-713 512.752,-648.27 451.825,-596.971 507.428,-544 560.49,-493.45 761.144,-505.751 832.93,-491 854.723,-486.522 878.752,-480.64 898.644,-475.51"/>
<polygon fill="black" stroke="black" points="899.546,-478.892 908.341,-472.985 897.782,-472.118 899.546,-478.892"/>
</g>
<!-- Comrise&#45;&gt;Ростелеком -->
<g id="edge9" class="edge"><title>Comrise&#45;&gt;Ростелеком</title>
<path fill="none" stroke="black" d="M420.285,-783.352C435.603,-789.997 454.887,-798.861 471.428,-808 545.998,-849.199 550.159,-888.651 631.799,-913 755.819,-949.988 1091.16,-953.174 1214.18,-913 1247.72,-902.047 1279.53,-876.663 1300.39,-857.208"/>
<polygon fill="black" stroke="black" points="1303.03,-859.528 1307.83,-850.084 1298.19,-854.472 1303.03,-859.528"/>
</g>
<!-- Comrise&#45;&gt;Powernet -->
<g id="edge53" class="edge"><title>Comrise&#45;&gt;Powernet</title>
<path fill="none" stroke="black" stroke-dasharray="1,5" d="M451.039,-757.226C517.621,-740.309 625.3,-712.949 685.994,-697.528"/>
<ellipse fill="none" stroke="black" cx="447.078" cy="-758.233" rx="4.00001" ry="4.00001"/>
<ellipse fill="none" stroke="black" cx="690" cy="-696.51" rx="4.00001" ry="4.00001"/>
</g>
<!-- Евротелеком -->
<g id="node31" class="node"><title>Евротелеком</title>
<polygon fill="none" stroke="black" points="808.506,-177.562 732.365,-190 656.223,-177.562 656.294,-157.438 808.435,-157.438 808.506,-177.562"/>
<text text-anchor="middle" x="732.365" y="-168.3" font-family="Times New Roman,serif" font-size="14.00">Евротелеком</text>
</g>
<!-- Евротелеком&#45;&gt;Транстелеком -->
<g id="edge13" class="edge"><title>Евротелеком&#45;&gt;Транстелеком</title>
<path fill="none" stroke="black" d="M808.68,-168.144C867.606,-167.986 950.274,-174.204 1015.9,-204 1147.7,-263.84 1261.59,-401.387 1305.59,-459.409"/>
<polygon fill="black" stroke="black" points="1303.01,-461.797 1311.81,-467.695 1308.6,-457.595 1303.01,-461.797"/>
</g>
<!-- Евротелеком&#45;&gt;Вымпелком -->
<g id="edge14" class="edge"><title>Евротелеком&#45;&gt;Вымпелком</title>
<path fill="none" stroke="black" d="M764.921,-184.967C787.189,-195.709 815.968,-213.093 832.93,-237 871.604,-291.506 837.721,-323.902 868.93,-383 879.961,-403.889 897.536,-423.717 912.617,-438.526"/>
<polygon fill="black" stroke="black" points="910.578,-441.419 920.228,-445.792 915.412,-436.356 910.578,-441.419"/>
</g>
<!-- Virgin -->
<g id="node32" class="node"><title>Virgin</title>
<polygon fill="none" stroke="black" points="591.952,-576.562 551.614,-589 511.276,-576.562 511.313,-556.438 591.914,-556.438 591.952,-576.562"/>
<text text-anchor="middle" x="551.614" y="-567.3" font-family="Times New Roman,serif" font-size="14.00">Virgin</text>
</g>
<!-- Virgin&#45;&gt;Волгатранстелеком -->
<g id="edge47" class="edge"><title>Virgin&#45;&gt;Волгатранстелеком</title>
<path fill="none" stroke="black" d="M554.991,-596.319C560.649,-644.558 578.674,-751.057 631.799,-821 644.997,-838.376 664.271,-852.485 682.353,-863.062"/>
<ellipse fill="black" stroke="black" cx="554.541" cy="-592.256" rx="4.00001" ry="4.00001"/>
<polygon fill="black" stroke="black" points="680.668,-866.13 691.102,-867.969 684.093,-860.025 680.668,-866.13"/>
</g>
<!-- Virgin&#45;&gt;Мегафон -->
<g id="edge16" class="edge"><title>Virgin&#45;&gt;Мегафон</title>
<path fill="none" stroke="black" d="M552.093,-556.271C551.456,-512.646 556.282,-383.747 631.799,-329 712.409,-270.561 837.676,-310.397 901.34,-337.196"/>
<polygon fill="black" stroke="black" points="900.074,-340.462 910.643,-341.205 902.844,-334.033 900.074,-340.462"/>
</g>
<!-- Virgin&#45;&gt;Вымпелком -->
<g id="edge15" class="edge"><title>Virgin&#45;&gt;Вымпелком</title>
<path fill="none" stroke="black" d="M592.194,-568.591C647.45,-564.289 750.23,-552.851 832.93,-524 859.958,-514.571 888.184,-498.745 909.067,-485.713"/>
<polygon fill="black" stroke="black" points="910.981,-488.644 917.543,-480.326 907.226,-482.736 910.981,-488.644"/>
</g>
<!-- Virgin&#45;&gt;Ростелеком -->
<g id="edge17" class="edge"><title>Virgin&#45;&gt;Ростелеком</title>
<path fill="none" stroke="black" d="M592.191,-572.582C718.491,-578.27 1109.74,-601.03 1214.18,-668 1265.56,-700.946 1298.98,-767.128 1314.63,-804.563"/>
<polygon fill="black" stroke="black" points="1311.4,-805.912 1318.4,-813.865 1317.89,-803.283 1311.4,-805.912"/>
</g>
<!-- WMAX -->
<g id="node33" class="node"><title>WMAX</title>
<polygon fill="none" stroke="black" points="781.984,-69.5623 732.365,-82 682.746,-69.5623 682.792,-49.4377 781.937,-49.4377 781.984,-69.5623"/>
<text text-anchor="middle" x="732.365" y="-60.3" font-family="Times New Roman,serif" font-size="14.00">WMAX</text>
</g>
<!-- WMAX&#45;&gt;Релком -->
<g id="edge24" class="edge"><title>WMAX&#45;&gt;Релком</title>
<path fill="none" stroke="black" d="M782.143,-65.8756C814.005,-67.1008 855.609,-68.7006 888.306,-69.9578"/>
<polygon fill="black" stroke="black" points="888.457,-73.4662 898.585,-70.3531 888.726,-66.4713 888.457,-73.4662"/>
</g>
<!-- WMAX&#45;&gt;Мегафон -->
<g id="edge22" class="edge"><title>WMAX&#45;&gt;Мегафон</title>
<path fill="none" stroke="black" d="M782.22,-68.2107C799.92,-71.9007 818.97,-78.6688 832.93,-91 905.061,-154.714 930.137,-273.611 938.077,-327.793"/>
<polygon fill="black" stroke="black" points="934.614,-328.302 939.445,-337.731 941.548,-327.347 934.614,-328.302"/>
</g>
<!-- WMAX&#45;&gt;WestCall -->
<g id="edge23" class="edge"><title>WMAX&#45;&gt;WestCall</title>
<path fill="none" stroke="black" d="M782.143,-53.215C815.558,-45.8269 859.688,-36.0699 893.021,-28.7"/>
<polygon fill="black" stroke="black" points="893.986,-32.0711 902.995,-26.4947 892.475,-25.2362 893.986,-32.0711"/>
</g>
<!-- InstrNet -->
<g id="node34" class="node"><title>InstrNet</title>
<polygon fill="none" stroke="black" points="781.984,-637.562 732.365,-650 682.746,-637.562 682.792,-617.438 781.937,-617.438 781.984,-637.562"/>
<text text-anchor="middle" x="732.365" y="-628.3" font-family="Times New Roman,serif" font-size="14.00">InstrNet</text>
</g>
<!-- InstrNet&#45;&gt;ЭрТелеком -->
<g id="edge38" class="edge"><title>InstrNet&#45;&gt;ЭрТелеком</title>
<path fill="none" stroke="black" d="M776.901,-642.913C794.413,-647.534 814.732,-653.19 832.93,-659 849.004,-664.132 866.217,-670.206 882.09,-676.05"/>
<ellipse fill="none" stroke="black" cx="772.94" cy="-641.877" rx="4.00001" ry="4.00001"/>
<polygon fill="black" stroke="black" points="881.184,-679.447 891.777,-679.649 883.622,-672.885 881.184,-679.447"/>
</g>
<!-- InstrNet&#45;&gt;Мегафон -->
<g id="edge25" class="edge"><title>InstrNet&#45;&gt;Мегафон</title>
<path fill="none" stroke="black" d="M743.96,-617.272C762.299,-591.72 801.053,-537.453 832.93,-491 849.251,-467.217 851.268,-459.805 868.93,-437 883.887,-417.688 902.249,-397.198 916.75,-381.658"/>
<polygon fill="black" stroke="black" points="919.638,-383.696 923.942,-374.015 914.54,-378.899 919.638,-383.696"/>
</g>
<!-- ТСвязь -->
<g id="node35" class="node"><title>ТСвязь</title>
<polygon fill="none" stroke="black" points="781.984,-469.562 732.365,-482 682.746,-469.562 682.792,-449.438 781.937,-449.438 781.984,-469.562"/>
<text text-anchor="middle" x="732.365" y="-460.3" font-family="Times New Roman,serif" font-size="14.00">ТСвязь</text>
</g>
<!-- ТСвязь&#45;&gt;Мегафон -->
<g id="edge26" class="edge"><title>ТСвязь&#45;&gt;Мегафон</title>
<path fill="none" stroke="black" d="M782.042,-454.685C798.673,-450.499 817.069,-444.722 832.93,-437 863.154,-422.285 893.466,-398.732 914.335,-380.807"/>
<polygon fill="black" stroke="black" points="916.897,-383.217 922.124,-374.001 912.291,-377.946 916.897,-383.217"/>
</g>
<!-- ТСвязь&#45;&gt;Вымпелком -->
<g id="edge27" class="edge"><title>ТСвязь&#45;&gt;Вымпелком</title>
<path fill="none" stroke="black" d="M782.143,-464C813.572,-464 854.479,-464 886.966,-464"/>
<polygon fill="black" stroke="black" points="887.195,-467.5 897.195,-464 887.195,-460.5 887.195,-467.5"/>
</g>
<!-- Восток -->
<g id="node36" class="node"><title>Восток</title>
<polygon fill="none" stroke="black" points="780.77,-269.562 732.365,-282 683.959,-269.562 684.004,-249.438 780.725,-249.438 780.77,-269.562"/>
<text text-anchor="middle" x="732.365" y="-260.3" font-family="Times New Roman,serif" font-size="14.00">Восток</text>
</g>
<!-- Восток&#45;&gt;Мегафон -->
<g id="edge28" class="edge"><title>Восток&#45;&gt;Мегафон</title>
<path fill="none" stroke="black" d="M767.148,-273.083C786.707,-278.777 811.598,-286.777 832.93,-296 857.883,-306.788 884.622,-321.537 905.31,-333.712"/>
<polygon fill="black" stroke="black" points="903.688,-336.82 914.071,-338.927 907.268,-330.805 903.688,-336.82"/>
</g>
<!-- Старнет -->
<g id="node37" class="node"><title>Старнет</title>
<polygon fill="none" stroke="black" points="190.62,-994.562 138.18,-1007 85.7407,-994.562 85.7897,-974.438 190.571,-974.438 190.62,-994.562"/>
<text text-anchor="middle" x="138.18" y="-985.3" font-family="Times New Roman,serif" font-size="14.00">Старнет</text>
</g>
<!-- Старнет&#45;&gt;Унико -->
<g id="edge30" class="edge"><title>Старнет&#45;&gt;Унико</title>
<path fill="none" stroke="black" d="M198.501,-986.261C280.092,-982.493 425.447,-975.78 501.364,-972.274"/>
<ellipse fill="none" stroke="black" cx="194.452" cy="-986.447" rx="4" ry="4"/>
<polygon fill="black" stroke="black" points="501.773,-975.759 511.601,-971.802 501.45,-968.767 501.773,-975.759"/>
</g>
<!-- Старнет&#45;&gt;ЭрТелеком -->
<g id="edge31" class="edge"><title>Старнет&#45;&gt;ЭрТелеком</title>
<path fill="none" stroke="black" d="M198.538,-987.959C225.071,-990.444 255.087,-997.723 276.36,-1016 312.189,-1046.78 274.538,-1087.7 312.36,-1116 497.738,-1254.69 658.957,-1287.75 832.93,-1135 879.409,-1094.19 851.983,-918.486 868.93,-859 881.06,-816.424 902.741,-770.684 919.241,-739.06"/>
<ellipse fill="none" stroke="black" cx="194.417" cy="-987.642" rx="4" ry="4"/>
<polygon fill="black" stroke="black" points="922.385,-740.601 923.962,-730.124 916.196,-737.331 922.385,-740.601"/>
</g>
<!-- Магистраль -->
<g id="node40" class="node"><title>Магистраль</title>
<polygon fill="none" stroke="black" points="462.788,-691.562 391.894,-704 321,-691.562 321.066,-671.438 462.722,-671.438 462.788,-691.562"/>
<text text-anchor="middle" x="391.894" y="-682.3" font-family="Times New Roman,serif" font-size="14.00">Магистраль</text>
</g>
<!-- Старнет&#45;&gt;Магистраль -->
<g id="edge50" class="edge"><title>Старнет&#45;&gt;Магистраль</title>
<path fill="none" stroke="black" stroke-dasharray="1,5" d="M151.497,-967.201C177.459,-922.391 241.292,-818.019 312.36,-745 327.11,-729.845 345.998,-715.529 361.554,-704.794"/>
<ellipse fill="none" stroke="black" cx="149.372" cy="-970.895" rx="4.00002" ry="4.00002"/>
<ellipse fill="none" stroke="black" cx="365.13" cy="-702.369" rx="4.00002" ry="4.00002"/>
</g>
<!-- ВолгаЛинк -->
<g id="node38" class="node"><title>ВолгаЛинк</title>
<polygon fill="none" stroke="black" points="1199.9,-891.562 1133.04,-904 1066.18,-891.562 1066.24,-871.438 1199.84,-871.438 1199.9,-891.562"/>
<text text-anchor="middle" x="1133.04" y="-882.3" font-family="Times New Roman,serif" font-size="14.00">ВолгаЛинк</text>
</g>
<!-- ВолгаЛинк&#45;&gt;Ростелеком -->
<g id="edge39" class="edge"><title>ВолгаЛинк&#45;&gt;Ростелеком</title>
<path fill="none" stroke="black" d="M1193.67,-869.136C1218.92,-861.996 1248.08,-853.749 1272.49,-846.844"/>
<ellipse fill="black" stroke="black" cx="1189.56" cy="-870.298" rx="4.00001" ry="4.00001"/>
<polygon fill="black" stroke="black" points="1273.62,-850.161 1282.29,-844.072 1271.72,-843.425 1273.62,-850.161"/>
</g>
<!-- ИнсаткомВ -->
<g id="node39" class="node"><title>ИнсаткомВ</title>
<polygon fill="none" stroke="black" points="1201.11,-837.562 1133.04,-850 1064.97,-837.562 1065.03,-817.438 1201.05,-817.438 1201.11,-837.562"/>
<text text-anchor="middle" x="1133.04" y="-828.3" font-family="Times New Roman,serif" font-size="14.00">ИнсаткомВ</text>
</g>
<!-- ИнсаткомВ&#45;&gt;Ростелеком -->
<g id="edge40" class="edge"><title>ИнсаткомВ&#45;&gt;Ростелеком</title>
<path fill="none" stroke="black" d="M1209.6,-832C1223.11,-832 1237.18,-832 1250.66,-832"/>
<ellipse fill="black" stroke="black" cx="1205.36" cy="-832" rx="4" ry="4"/>
<polygon fill="black" stroke="black" points="1250.83,-835.5 1260.83,-832 1250.83,-828.5 1250.83,-835.5"/>
</g>
<!-- Магистраль&#45;&gt;Унико -->
<g id="edge41" class="edge"><title>Магистраль&#45;&gt;Унико</title>
<path fill="none" stroke="black" d="M425.044,-703.929C440.897,-714.171 459.19,-728.301 471.428,-745 516.639,-806.691 537.83,-896.48 546.128,-941.714"/>
<ellipse fill="black" stroke="black" cx="421.354" cy="-701.623" rx="4.00002" ry="4.00002"/>
<polygon fill="black" stroke="black" points="542.704,-942.452 547.881,-951.696 549.599,-941.241 542.704,-942.452"/>
</g>
<!-- Магистраль&#45;&gt;ЮТК -->
<g id="edge56" class="edge"><title>Магистраль&#45;&gt;ЮТК</title>
<path fill="none" stroke="black" stroke-dasharray="1,5" d="M396.751,-662.883C411.052,-585.488 468.902,-334.846 631.799,-237 708.429,-190.971 745.953,-216.364 832.93,-237 921.493,-258.012 962.458,-255.319 1015.9,-329 1078.71,-415.6 1016.88,-465.913 1051.9,-567 1064.77,-604.159 1087.45,-642.74 1105.41,-670.131"/>
<ellipse fill="none" stroke="black" cx="395.994" cy="-667.104" rx="4.00001" ry="4.00001"/>
<ellipse fill="none" stroke="black" cx="1107.65" cy="-673.513" rx="4.00002" ry="4.00002"/>
</g>
<!-- Магистраль&#45;&gt;Powernet -->
<g id="edge55" class="edge"><title>Магистраль&#45;&gt;Powernet</title>
<path fill="none" stroke="black" stroke-dasharray="1,5" d="M470.752,-686C532.266,-686 616.783,-686 672.685,-686"/>
<ellipse fill="none" stroke="black" cx="466.615" cy="-686" rx="4" ry="4"/>
<ellipse fill="none" stroke="black" cx="676.719" cy="-686" rx="4" ry="4"/>
</g>
<!-- Магистраль&#45;&gt;Евротелеком -->
<g id="edge57" class="edge"><title>Магистраль&#45;&gt;Евротелеком</title>
<path fill="none" stroke="black" stroke-dasharray="1,5" d="M394.967,-663.236C403.355,-576.393 437.713,-267.62 507.428,-204 544.792,-169.903 601.243,-162.016 648.118,-162.596"/>
<ellipse fill="none" stroke="black" cx="394.572" cy="-667.397" rx="4" ry="4"/>
<ellipse fill="none" stroke="black" cx="652.153" cy="-162.687" rx="4" ry="4"/>
</g>
<!-- ФорумNet -->
<g id="node41" class="node"><title>ФорумNet</title>
<polygon fill="none" stroke="black" points="453.614,-894.562 391.894,-907 330.174,-894.562 330.232,-874.438 453.556,-874.438 453.614,-894.562"/>
<text text-anchor="middle" x="391.894" y="-885.3" font-family="Times New Roman,serif" font-size="14.00">ФорумNet</text>
</g>
<!-- ФорумNet&#45;&gt;Унико -->
<g id="edge43" class="edge"><title>ФорумNet&#45;&gt;Унико</title>
<path fill="none" stroke="black" d="M437.411,-901.994C448.751,-905.926 460.747,-910.644 471.428,-916 481.271,-920.936 502.1,-935.2 519.925,-947.829"/>
<ellipse fill="black" stroke="black" cx="433.481" cy="-900.674" rx="4.00001" ry="4.00001"/>
<polygon fill="black" stroke="black" points="518.198,-950.896 528.373,-953.849 522.26,-945.195 518.198,-950.896"/>
</g>
<!-- ByteS -->
<g id="node42" class="node"><title>ByteS</title>
<polygon fill="none" stroke="black" points="432.232,-840.562 391.894,-853 351.556,-840.562 351.594,-820.438 432.195,-820.438 432.232,-840.562"/>
<text text-anchor="middle" x="391.894" y="-831.3" font-family="Times New Roman,serif" font-size="14.00">ByteS</text>
</g>
<!-- ByteS&#45;&gt;Унико -->
<g id="edge44" class="edge"><title>ByteS&#45;&gt;Унико</title>
<path fill="none" stroke="black" d="M437.844,-843.724C449.8,-847.737 461.996,-853.563 471.428,-862 499.285,-886.919 483.703,-909.12 507.428,-938 510.593,-941.853 514.319,-945.492 518.233,-948.838"/>
<ellipse fill="black" stroke="black" cx="433.877" cy="-842.511" rx="4.00001" ry="4.00001"/>
<polygon fill="black" stroke="black" points="516.388,-951.84 526.413,-955.27 520.715,-946.337 516.388,-951.84"/>
</g>
<!-- АвантекПлюс -->
<g id="node43" class="node"><title>АвантекПлюс</title>
<polygon fill="none" stroke="black" points="471.462,-1094.56 391.894,-1107 312.326,-1094.56 312.401,-1074.44 471.388,-1074.44 471.462,-1094.56"/>
<text text-anchor="middle" x="391.894" y="-1085.3" font-family="Times New Roman,serif" font-size="14.00">АвантекПлюс</text>
</g>
<!-- АвантекПлюс&#45;&gt;Унико -->
<g id="edge45" class="edge"><title>АвантекПлюс&#45;&gt;Унико</title>
<path fill="none" stroke="black" d="M455.575,-1070.92C461.129,-1068.3 466.505,-1065.34 471.428,-1062 497.072,-1044.62 519.375,-1016.87 533.719,-996.381"/>
<ellipse fill="black" stroke="black" cx="451.577" cy="-1072.68" rx="4.00002" ry="4.00002"/>
<polygon fill="black" stroke="black" points="536.624,-998.332 539.365,-988.098 530.84,-994.389 536.624,-998.332"/>
</g>
<!-- Robor -->
<g id="node44" class="node"><title>Robor</title>
<polygon fill="none" stroke="black" points="1175.7,-491.562 1133.04,-504 1090.38,-491.562 1090.42,-471.438 1175.66,-471.438 1175.7,-491.562"/>
<text text-anchor="middle" x="1133.04" y="-482.3" font-family="Times New Roman,serif" font-size="14.00">Robor</text>
</g>
<!-- Robor&#45;&gt;Транстелеком -->
<g id="edge46" class="edge"><title>Robor&#45;&gt;Транстелеком</title>
<path fill="none" stroke="black" d="M1184.07,-486C1201.17,-486 1220.8,-486 1239.88,-486"/>
<ellipse fill="black" stroke="black" cx="1179.94" cy="-486" rx="4" ry="4"/>
<polygon fill="black" stroke="black" points="1240.1,-489.5 1250.1,-486 1240.1,-482.5 1240.1,-489.5"/>
</g>
<!-- ВистОнЛайн -->
<g id="node45" class="node"><title>ВистОнЛайн</title>
<polygon fill="none" stroke="black" points="468.035,-1040.56 391.894,-1053 315.753,-1040.56 315.824,-1020.44 467.964,-1020.44 468.035,-1040.56"/>
<text text-anchor="middle" x="391.894" y="-1031.3" font-family="Times New Roman,serif" font-size="14.00">ВистОнЛайн</text>
</g>
<!-- ВистОнЛайн&#45;&gt;Унико -->
<g id="edge48" class="edge"><title>ВистОнЛайн&#45;&gt;Унико</title>
<path fill="none" stroke="black" d="M436.588,-1017.27C447.939,-1012.64 460.147,-1007.65 471.428,-1003 485.168,-997.338 500.227,-991.076 513.49,-985.542"/>
<ellipse fill="black" stroke="black" cx="432.592" cy="-1018.9" rx="4.00001" ry="4.00001"/>
<polygon fill="black" stroke="black" points="514.906,-988.744 522.785,-981.661 512.208,-982.285 514.906,-988.744"/>
</g>
</g>
</svg>
