<?xml version="1.0" encoding="UTF-8" standalone="no"?>
<!DOCTYPE svg PUBLIC "-//W3C//DTD SVG 1.1//EN"
 "http://www.w3.org/Graphics/SVG/1.1/DTD/svg11.dtd">
<!-- Generated by graphviz version 2.38.0 (20140413.2041)
 -->
<!-- Title: ispgraph Pages: 1 -->
<svg width="1484pt" height="1292pt"
 viewBox="0.00 0.00 1483.85 1292.15" xmlns="http://www.w3.org/2000/svg" xmlns:xlink="http://www.w3.org/1999/xlink">
<g id="graph0" class="graph" transform="scale(1 1) rotate(0) translate(4 1288.15)">
<title>ispgraph</title>
<polygon fill="white" stroke="none" points="-4,4 -4,-1288.15 1479.85,-1288.15 1479.85,4 -4,4"/>
<!-- Унико -->
<g id="node1" class="node"><title>Унико</title>
<polygon fill="none" stroke="black" points="848.491,-487.213 827.464,-505.213 785.409,-505.213 764.382,-487.213 785.409,-469.213 827.464,-469.213 848.491,-487.213"/>
<text text-anchor="middle" x="806.437" y="-483.513" font-family="Times New Roman,serif" font-size="14.00">Унико</text>
</g>
<!-- ЭрТелеком -->
<g id="node3" class="node"><title>ЭрТелеком</title>
<polygon fill="none" stroke="black" points="1089.96,-761.213 1053.22,-792.267 979.752,-792.267 943.018,-761.213 979.752,-730.159 1053.22,-730.159 1089.96,-761.213"/>
<text text-anchor="middle" x="1016.49" y="-765.013" font-family="Times New Roman,serif" font-size="14.00">ЭР&#45;Телеком</text>
<text text-anchor="middle" x="1016.49" y="-750.013" font-family="Times New Roman,serif" font-size="14.00">транзит</text>
</g>
<!-- Унико&#45;&gt;ЭрТелеком -->
<g id="edge56" class="edge"><title>Унико&#45;&gt;ЭрТелеком</title>
<path fill="none" stroke="black" stroke-dasharray="1,5" d="M826.459,-512.265C863.048,-560.453 943.425,-666.309 986.642,-723.224"/>
<ellipse fill="none" stroke="black" cx="823.829" cy="-508.802" rx="4.00002" ry="4.00002"/>
<ellipse fill="none" stroke="black" cx="989.303" cy="-726.73" rx="4.00002" ry="4.00002"/>
</g>
<!-- Ростелеком -->
<g id="node10" class="node"><title>Ростелеком</title>
<polygon fill="none" stroke="black" points="1465.14,-1068.21 1432.6,-1086.21 1367.51,-1086.21 1334.97,-1068.21 1367.51,-1050.21 1432.6,-1050.21 1465.14,-1068.21"/>
<text text-anchor="middle" x="1400.05" y="-1064.51" font-family="Times New Roman,serif" font-size="14.00">Ростелеком</text>
</g>
<!-- Унико&#45;&gt;Ростелеком -->
<g id="edge16" class="edge"><title>Унико&#45;&gt;Ростелеком</title>
<path fill="none" stroke="black" d="M845.138,-490.193C947.764,-499.115 1228.44,-529.191 1288.25,-595.213 1332.29,-643.832 1307.51,-824.785 1324.25,-888.213 1339.09,-944.441 1367.71,-1006.29 1384.93,-1040.88"/>
<polygon fill="black" stroke="black" points="1381.84,-1042.52 1389.46,-1049.88 1388.09,-1039.37 1381.84,-1042.52"/>
</g>
<!-- RETN -->
<g id="node19" class="node"><title>RETN</title>
<polygon fill="none" stroke="black" points="1056.04,-260.213 1036.26,-278.213 996.71,-278.213 976.934,-260.213 996.71,-242.213 1036.26,-242.213 1056.04,-260.213"/>
<text text-anchor="middle" x="1016.49" y="-256.513" font-family="Times New Roman,serif" font-size="14.00">RETN</text>
</g>
<!-- Унико&#45;&gt;RETN -->
<g id="edge17" class="edge"><title>Унико&#45;&gt;RETN</title>
<path fill="none" stroke="black" d="M824.111,-469.021C860.936,-428.841 949.303,-332.425 991.832,-286.023"/>
<polygon fill="black" stroke="black" points="994.557,-288.229 998.734,-278.492 989.397,-283.5 994.557,-288.229"/>
</g>
<!-- ДомРу -->
<g id="node2" class="node"><title>ДомРу</title>
<polygon fill="none" stroke="black" points="860.507,-731.213 833.472,-749.213 779.402,-749.213 752.366,-731.213 779.402,-713.213 833.472,-713.213 860.507,-731.213"/>
<text text-anchor="middle" x="806.437" y="-727.513" font-family="Times New Roman,serif" font-size="14.00">ДОМ.RU</text>
</g>
<!-- ДомРу&#45;&gt;ЭрТелеком -->
<g id="edge33" class="edge"><title>ДомРу&#45;&gt;ЭрТелеком</title>
<path fill="none" stroke="black" d="M859.535,-738.726C884.939,-742.389 915.9,-746.853 943.52,-750.836"/>
<ellipse fill="none" stroke="black" cx="855.264" cy="-738.11" rx="4.00001" ry="4.00001"/>
<polygon fill="black" stroke="black" points="943.131,-754.316 953.528,-752.279 944.13,-747.387 943.131,-754.316"/>
</g>
<!-- ЮТК -->
<g id="node15" class="node"><title>ЮТК</title>
<polygon fill="none" stroke="black" points="1278.18,-1150.21 1242.65,-1181.27 1171.58,-1181.27 1136.04,-1150.21 1171.58,-1119.16 1242.65,-1119.16 1278.18,-1150.21"/>
<text text-anchor="middle" x="1207.11" y="-1154.01" font-family="Times New Roman,serif" font-size="14.00">Ростелеком</text>
<text text-anchor="middle" x="1207.11" y="-1139.01" font-family="Times New Roman,serif" font-size="14.00">Волгоград</text>
</g>
<!-- ЭрТелеком&#45;&gt;ЮТК -->
<g id="edge60" class="edge"><title>ЭрТелеком&#45;&gt;ЮТК</title>
<path fill="none" stroke="black" stroke-dasharray="1,5" d="M1025.04,-800.37C1038.21,-861.966 1069.51,-983.597 1125.97,-1072.21 1136.01,-1087.97 1149.83,-1102.91 1163.17,-1115.41"/>
<ellipse fill="none" stroke="black" cx="1024.2" cy="-796.36" rx="4.00001" ry="4.00001"/>
<ellipse fill="none" stroke="black" cx="1166.3" cy="-1118.28" rx="4.00002" ry="4.00002"/>
</g>
<!-- Связьинформ -->
<g id="node26" class="node"><title>Связьинформ</title>
<polygon fill="none" stroke="black" points="1288.39,-766.776 1207.11,-779.213 1125.83,-766.776 1125.91,-746.651 1288.32,-746.651 1288.39,-766.776"/>
<text text-anchor="middle" x="1207.11" y="-757.513" font-family="Times New Roman,serif" font-size="14.00">Связьинформ</text>
</g>
<!-- ЭрТелеком&#45;&gt;Связьинформ -->
<g id="edge61" class="edge"><title>ЭрТелеком&#45;&gt;Связьинформ</title>
<path fill="none" stroke="black" stroke-dasharray="1,5" d="M1098.18,-761.213C1104.65,-761.213 1111.21,-761.213 1117.73,-761.213"/>
<ellipse fill="none" stroke="black" cx="1094.14" cy="-761.213" rx="4" ry="4"/>
<ellipse fill="none" stroke="black" cx="1121.96" cy="-761.213" rx="4" ry="4"/>
</g>
<!-- Транстелеком -->
<g id="node4" class="node"><title>Транстелеком</title>
<polygon fill="none" stroke="black" points="1475.65,-861.213 1437.85,-879.213 1362.25,-879.213 1324.45,-861.213 1362.25,-843.213 1437.85,-843.213 1475.65,-861.213"/>
<text text-anchor="middle" x="1400.05" y="-857.513" font-family="Times New Roman,serif" font-size="14.00">Транстелеком</text>
</g>
<!-- Волгатранстелеком -->
<g id="node5" class="node"><title>Волгатранстелеком</title>
<polygon fill="none" stroke="black" points="907.068,-1125.21 856.752,-1143.21 756.121,-1143.21 705.806,-1125.21 756.121,-1107.21 856.752,-1107.21 907.068,-1125.21"/>
<text text-anchor="middle" x="806.437" y="-1121.51" font-family="Times New Roman,serif" font-size="14.00">Волгатранстелеком</text>
</g>
<!-- Волгатранстелеком&#45;&gt;ЭрТелеком -->
<g id="edge58" class="edge"><title>Волгатранстелеком&#45;&gt;ЭрТелеком</title>
<path fill="none" stroke="black" stroke-dasharray="1,5" d="M829.152,-1100.6C850.625,-1075.5 883.58,-1034.86 907.002,-996.213 946.827,-930.508 981.848,-847.741 1000.72,-800.014"/>
<ellipse fill="none" stroke="black" cx="826.296" cy="-1103.91" rx="4.00002" ry="4.00002"/>
<ellipse fill="none" stroke="black" cx="1002.25" cy="-796.101" rx="4.00001" ry="4.00001"/>
</g>
<!-- Волгатранстелеком&#45;&gt;Транстелеком -->
<g id="edge32" class="edge"><title>Волгатранстелеком&#45;&gt;Транстелеком</title>
<path fill="none" stroke="black" d="M865.239,-1104.53C928.785,-1082.1 1034.07,-1045.79 1125.97,-1018.21 1197.44,-996.767 1223.85,-1012.89 1288.25,-975.213 1326.35,-952.926 1360.09,-913.996 1380.05,-887.915"/>
<ellipse fill="none" stroke="black" cx="861.09" cy="-1106" rx="4.00001" ry="4.00001"/>
<polygon fill="black" stroke="black" points="1383.08,-889.706 1386.27,-879.605 1377.47,-885.509 1383.08,-889.706"/>
</g>
<!-- Волгатранстелеком&#45;&gt;ЮТК -->
<g id="edge57" class="edge"><title>Волгатранстелеком&#45;&gt;ЮТК</title>
<path fill="none" stroke="black" stroke-dasharray="1,5" d="M874.649,-1141.31C896.332,-1145.77 920.562,-1150 943.002,-1152.21 1008.01,-1158.62 1024.65,-1152.78 1089.97,-1152.21 1102.66,-1152.1 1116.13,-1151.93 1129.23,-1151.72"/>
<ellipse fill="none" stroke="black" cx="870.698" cy="-1140.48" rx="4.00001" ry="4.00001"/>
<ellipse fill="none" stroke="black" cx="1133.33" cy="-1151.66" rx="4" ry="4"/>
</g>
<!-- Orange -->
<g id="node16" class="node"><title>Orange</title>
<polygon fill="none" stroke="black" points="1059.04,-1125.21 1037.77,-1143.21 995.208,-1143.21 973.93,-1125.21 995.208,-1107.21 1037.77,-1107.21 1059.04,-1125.21"/>
<text text-anchor="middle" x="1016.49" y="-1121.51" font-family="Times New Roman,serif" font-size="14.00">Orange</text>
</g>
<!-- Волгатранстелеком&#45;&gt;Orange -->
<g id="edge59" class="edge"><title>Волгатранстелеком&#45;&gt;Orange</title>
<path fill="none" stroke="black" stroke-dasharray="1,5" d="M915.21,-1125.21C932.847,-1125.21 950.339,-1125.21 965.657,-1125.21"/>
<ellipse fill="none" stroke="black" cx="911.196" cy="-1125.21" rx="4" ry="4"/>
<ellipse fill="none" stroke="black" cx="969.93" cy="-1125.21" rx="4" ry="4"/>
</g>
<!-- Релком -->
<g id="node6" class="node"><title>Релком</title>
<polygon fill="none" stroke="black" points="851.997,-141.213 829.217,-159.213 783.656,-159.213 760.876,-141.213 783.656,-123.213 829.217,-123.213 851.997,-141.213"/>
<text text-anchor="middle" x="806.437" y="-137.513" font-family="Times New Roman,serif" font-size="14.00">Релком</text>
</g>
<!-- Мегафон -->
<g id="node7" class="node"><title>Мегафон</title>
<polygon fill="none" stroke="black" points="859.507,-877.213 832.972,-895.213 779.902,-895.213 753.366,-877.213 779.902,-859.213 832.972,-859.213 859.507,-877.213"/>
<text text-anchor="middle" x="806.437" y="-873.513" font-family="Times New Roman,serif" font-size="14.00">Мегафон</text>
</g>
<!-- Вымпелком -->
<g id="node8" class="node"><title>Вымпелком</title>
<polygon fill="none" stroke="black" points="851.495,-969.213 828.966,-987.213 783.907,-987.213 761.378,-969.213 783.907,-951.213 828.966,-951.213 851.495,-969.213"/>
<text text-anchor="middle" x="806.437" y="-965.513" font-family="Times New Roman,serif" font-size="14.00">Билайн</text>
</g>
<!-- КоламбияТелеком -->
<g id="node9" class="node"><title>КоламбияТелеком</title>
<polygon fill="none" stroke="black" points="902.562,-823.213 854.499,-841.213 758.374,-841.213 710.312,-823.213 758.374,-805.213 854.499,-805.213 902.562,-823.213"/>
<text text-anchor="middle" x="806.437" y="-819.513" font-family="Times New Roman,serif" font-size="14.00">КоламбияТелеком</text>
</g>
<!-- КоламбияТелеком&#45;&gt;ЭрТелеком -->
<g id="edge34" class="edge"><title>КоламбияТелеком&#45;&gt;ЭрТелеком</title>
<path fill="none" stroke="black" d="M868.273,-805.084C894.66,-797.22 925.554,-788.014 952.21,-780.07"/>
<ellipse fill="none" stroke="black" cx="864.308" cy="-806.265" rx="4.00001" ry="4.00001"/>
<polygon fill="black" stroke="black" points="953.238,-783.416 961.822,-777.206 951.239,-776.707 953.238,-783.416"/>
</g>
<!-- HE -->
<g id="node11" class="node"><title>HE</title>
<polygon fill="none" stroke="black" points="833.437,-1179.21 819.937,-1197.21 792.937,-1197.21 779.437,-1179.21 792.937,-1161.21 819.937,-1161.21 833.437,-1179.21"/>
<text text-anchor="middle" x="806.437" y="-1175.51" font-family="Times New Roman,serif" font-size="14.00">HE</text>
</g>
<!-- КвантТелеком -->
<g id="node12" class="node"><title>КвантТелеком</title>
<polygon fill="none" stroke="black" points="216.282,-279.213 177.231,-297.213 99.1293,-297.213 60.0784,-279.213 99.1293,-261.213 177.231,-261.213 216.282,-279.213"/>
<text text-anchor="middle" x="138.18" y="-275.513" font-family="Times New Roman,serif" font-size="14.00">КвантТелеком</text>
</g>
<!-- Tele2 -->
<g id="node13" class="node"><title>Tele2</title>
<polygon fill="none" stroke="black" points="841.484,-33.2132 823.96,-51.2132 788.913,-51.2132 771.389,-33.2132 788.913,-15.2132 823.96,-15.2132 841.484,-33.2132"/>
<text text-anchor="middle" x="806.437" y="-29.5132" font-family="Times New Roman,serif" font-size="14.00">Tele2</text>
</g>
<!-- Tele2&#45;&gt;RETN -->
<g id="edge2" class="edge"><title>Tele2&#45;&gt;RETN</title>
<path fill="none" stroke="black" d="M839.503,-35.4233C860.597,-38.3276 887.759,-44.9898 907.002,-60.2132 964.075,-105.365 995.187,-189.109 1008.15,-232.516"/>
<polygon fill="black" stroke="black" points="1004.79,-233.496 1010.92,-242.137 1011.51,-231.559 1004.79,-233.496"/>
</g>
<!-- МТС -->
<g id="node14" class="node"><title>МТС</title>
<polygon fill="none" stroke="black" points="173.228,-333.213 155.704,-351.213 120.656,-351.213 103.133,-333.213 120.656,-315.213 155.704,-315.213 173.228,-333.213"/>
<text text-anchor="middle" x="138.18" y="-329.513" font-family="Times New Roman,serif" font-size="14.00">МТС</text>
</g>
<!-- ЮТК&#45;&gt;Ростелеком -->
<g id="edge31" class="edge"><title>ЮТК&#45;&gt;Ростелеком</title>
<path fill="none" stroke="black" d="M1262.88,-1126.69C1291.6,-1114.36 1326.37,-1099.43 1353.58,-1087.74"/>
<ellipse fill="none" stroke="black" cx="1258.99" cy="-1128.37" rx="4.00002" ry="4.00002"/>
<polygon fill="black" stroke="black" points="1355.07,-1090.91 1362.87,-1083.75 1352.3,-1084.48 1355.07,-1090.91"/>
</g>
<!-- ПросторТелеком -->
<g id="node17" class="node"><title>ПросторТелеком</title>
<polygon fill="none" stroke="black" points="669.93,-871.213 624.871,-889.213 534.754,-889.213 489.695,-871.213 534.754,-853.213 624.871,-853.213 669.93,-871.213"/>
<text text-anchor="middle" x="579.813" y="-867.513" font-family="Times New Roman,serif" font-size="14.00">ПросторТелеком</text>
</g>
<!-- ПросторТелеком&#45;&gt;Мегафон -->
<g id="edge19" class="edge"><title>ПросторТелеком&#45;&gt;Мегафон</title>
<path fill="none" stroke="black" d="M664.454,-873.447C691.194,-874.162 720.258,-874.938 745.011,-875.599"/>
<polygon fill="black" stroke="black" points="745.247,-879.107 755.337,-875.875 745.434,-872.109 745.247,-879.107"/>
</g>
<!-- ПросторТелеком&#45;&gt;Вымпелком -->
<g id="edge18" class="edge"><title>ПросторТелеком&#45;&gt;Вымпелком</title>
<path fill="none" stroke="black" d="M634.129,-885.59C646.041,-889.294 658.507,-893.563 669.871,-898.213 705.504,-912.794 744.236,-933.618 771.14,-948.945"/>
<polygon fill="black" stroke="black" points="769.724,-952.169 780.138,-954.118 773.213,-946.1 769.724,-952.169"/>
</g>
<!-- WestCall -->
<g id="node18" class="node"><title>WestCall</title>
<polygon fill="none" stroke="black" points="857.503,-87.2132 831.97,-105.213 780.903,-105.213 755.37,-87.2132 780.903,-69.2132 831.97,-69.2132 857.503,-87.2132"/>
<text text-anchor="middle" x="806.437" y="-83.5132" font-family="Times New Roman,serif" font-size="14.00">WestCall</text>
</g>
<!-- ГородокТочкаРу -->
<g id="node20" class="node"><title>ГородокТочкаРу</title>
<polygon fill="none" stroke="black" points="650.707,-492.776 579.813,-505.213 508.918,-492.776 508.985,-472.651 650.641,-472.651 650.707,-492.776"/>
<text text-anchor="middle" x="579.813" y="-483.513" font-family="Times New Roman,serif" font-size="14.00">Городок.Ру</text>
</g>
<!-- ГородокТочкаРу&#45;&gt;Унико -->
<g id="edge40" class="edge"><title>ГородокТочкаРу&#45;&gt;Унико</title>
<path fill="none" stroke="black" d="M659.053,-487.213C690.543,-487.213 725.981,-487.213 754.101,-487.213"/>
<ellipse fill="black" stroke="black" cx="654.654" cy="-487.213" rx="4" ry="4"/>
<polygon fill="black" stroke="black" points="754.108,-490.713 764.108,-487.213 754.108,-483.713 754.108,-490.713"/>
</g>
<!-- СМАРТС -->
<g id="node21" class="node"><title>СМАРТС</title>
<polygon fill="none" stroke="black" points="649.658,-43.543 579.813,-66.641 509.967,-43.543 510.033,-6.16955 649.593,-6.16955 649.658,-43.543"/>
<text text-anchor="middle" x="579.813" y="-37.0132" font-family="Times New Roman,serif" font-size="14.00">Tele2</text>
<text text-anchor="middle" x="579.813" y="-22.0132" font-family="Times New Roman,serif" font-size="14.00">Волгоград</text>
</g>
<!-- СМАРТС&#45;&gt;Tele2 -->
<g id="edge36" class="edge"><title>СМАРТС&#45;&gt;Tele2</title>
<path fill="none" stroke="black" d="M657.858,-33.2132C692.19,-33.2132 731.414,-33.2132 760.791,-33.2132"/>
<ellipse fill="none" stroke="black" cx="653.734" cy="-33.2133" rx="4" ry="4"/>
<polygon fill="black" stroke="black" points="761.142,-36.7133 771.142,-33.2132 761.142,-29.7133 761.142,-36.7133"/>
</g>
<!-- STARLINE -->
<g id="node22" class="node"><title>STARLINE</title>
<polygon fill="none" stroke="black" points="205.647,-392.776 138.18,-405.213 70.7135,-392.776 70.7765,-372.651 205.584,-372.651 205.647,-392.776"/>
<text text-anchor="middle" x="138.18" y="-383.513" font-family="Times New Roman,serif" font-size="14.00">STARLINE</text>
</g>
<!-- VSSA -->
<g id="node23" class="node"><title>VSSA</title>
<polygon fill="none" stroke="black" points="180.838,-446.776 138.18,-459.213 95.5225,-446.776 95.5623,-426.651 180.798,-426.651 180.838,-446.776"/>
<text text-anchor="middle" x="138.18" y="-437.513" font-family="Times New Roman,serif" font-size="14.00">VSSA</text>
</g>
<!-- ИнформационныйСервис -->
<g id="node24" class="node"><title>ИнформационныйСервис</title>
<polygon fill="none" stroke="black" points="276.541,-500.776 138.18,-513.213 -0.180374,-500.776 -0.0512311,-480.651 276.412,-480.651 276.541,-500.776"/>
<text text-anchor="middle" x="138.18" y="-491.513" font-family="Times New Roman,serif" font-size="14.00">ИнформационныйСервис</text>
</g>
<!-- SmIT34 -->
<g id="node25" class="node"><title>SmIT34</title>
<polygon fill="none" stroke="black" points="187.799,-554.776 138.18,-567.213 88.5612,-554.776 88.6075,-534.651 187.753,-534.651 187.799,-554.776"/>
<text text-anchor="middle" x="138.18" y="-545.513" font-family="Times New Roman,serif" font-size="14.00">SmIT34</text>
</g>
<!-- Связьинформ&#45;&gt;Унико -->
<g id="edge27" class="edge"><title>Связьинформ&#45;&gt;Унико</title>
<path fill="none" stroke="black" d="M1181.47,-741.171C1158.27,-722.521 1122.32,-694.225 1089.97,-671.213 1001.82,-608.511 893.698,-540.447 840.381,-507.441"/>
<ellipse fill="none" stroke="black" cx="1184.84" cy="-743.888" rx="4.00002" ry="4.00002"/>
<polygon fill="black" stroke="black" points="842.04,-504.351 831.693,-502.072 838.36,-510.306 842.04,-504.351"/>
</g>
<!-- Связьинформ&#45;&gt;Транстелеком -->
<g id="edge1" class="edge"><title>Связьинформ&#45;&gt;Транстелеком</title>
<path fill="none" stroke="black" d="M1234.66,-775.118C1265.93,-791.494 1318.32,-818.93 1355.55,-838.427"/>
<polygon fill="black" stroke="black" points="1354.18,-841.663 1364.66,-843.202 1357.43,-835.462 1354.18,-841.663"/>
</g>
<!-- СпринтСеть -->
<g id="node27" class="node"><title>СпринтСеть</title>
<polygon fill="none" stroke="black" points="653.027,-930.776 579.813,-943.213 506.599,-930.776 506.667,-910.651 652.958,-910.651 653.027,-930.776"/>
<text text-anchor="middle" x="579.813" y="-921.513" font-family="Times New Roman,serif" font-size="14.00">СпринтСеть</text>
</g>
<!-- СпринтСеть&#45;&gt;Мегафон -->
<g id="edge4" class="edge"><title>СпринтСеть&#45;&gt;Мегафон</title>
<path fill="none" stroke="black" d="M649.122,-910.616C683.48,-903.274 724.365,-894.538 755.702,-887.841"/>
<polygon fill="black" stroke="black" points="756.473,-891.255 765.521,-885.743 755.01,-884.41 756.473,-891.255"/>
</g>
<!-- СпринтСеть&#45;&gt;Вымпелком -->
<g id="edge3" class="edge"><title>СпринтСеть&#45;&gt;Вымпелком</title>
<path fill="none" stroke="black" d="M629.83,-934.815C668.414,-942.373 721.796,-952.83 759.549,-960.225"/>
<polygon fill="black" stroke="black" points="759.271,-963.737 769.758,-962.224 760.617,-956.867 759.271,-963.737"/>
</g>
<!-- СпринтСеть&#45;&gt;Связьинформ -->
<g id="edge47" class="edge"><title>СпринтСеть&#45;&gt;Связьинформ</title>
<path fill="none" stroke="black" stroke-dasharray="1,5" d="M661.002,-928.455C727.867,-929.174 825.084,-925.578 907.002,-904.213 1012.06,-876.813 1124.69,-812.155 1176.7,-780.019"/>
<ellipse fill="none" stroke="black" cx="657.001" cy="-928.401" rx="4" ry="4"/>
<ellipse fill="none" stroke="black" cx="1180.23" cy="-777.821" rx="4.00002" ry="4.00002"/>
</g>
<!-- Экспилайн -->
<g id="node28" class="node"><title>Экспилайн</title>
<polygon fill="none" stroke="black" points="646.673,-714.776 579.813,-727.213 512.952,-714.776 513.015,-694.651 646.611,-694.651 646.673,-714.776"/>
<text text-anchor="middle" x="579.813" y="-705.513" font-family="Times New Roman,serif" font-size="14.00">Экспилайн</text>
</g>
<!-- Экспилайн&#45;&gt;Мегафон -->
<g id="edge5" class="edge"><title>Экспилайн&#45;&gt;Мегафон</title>
<path fill="none" stroke="black" d="M635.718,-716.917C648.231,-720.932 660.564,-727.013 669.871,-736.213 707.658,-773.567 667.537,-813.422 705.871,-850.213 717.319,-861.2 732.768,-867.816 748.077,-871.771"/>
<polygon fill="black" stroke="black" points="747.551,-875.24 758.074,-874.005 749.078,-868.408 747.551,-875.24"/>
</g>
<!-- Экспилайн&#45;&gt;Связьинформ -->
<g id="edge49" class="edge"><title>Экспилайн&#45;&gt;Связьинформ</title>
<path fill="none" stroke="black" stroke-dasharray="1,5" d="M655.077,-702.341C755.142,-695.028 938.218,-688.524 1089.97,-721.213 1114.76,-726.553 1141.57,-735.561 1163.19,-743.678"/>
<ellipse fill="none" stroke="black" cx="650.826" cy="-702.66" rx="4" ry="4"/>
<ellipse fill="none" stroke="black" cx="1167.16" cy="-745.194" rx="4.00001" ry="4.00001"/>
</g>
<!-- ЭРОС -->
<g id="node29" class="node"><title>ЭРОС</title>
<polygon fill="none" stroke="black" points="624.184,-1184.78 579.813,-1197.21 535.441,-1184.78 535.482,-1164.65 624.143,-1164.65 624.184,-1184.78"/>
<text text-anchor="middle" x="579.813" y="-1175.51" font-family="Times New Roman,serif" font-size="14.00">ЭРОС</text>
</g>
<!-- ЭРОС&#45;&gt;Волгатранстелеком -->
<g id="edge6" class="edge"><title>ЭРОС&#45;&gt;Волгатранстелеком</title>
<path fill="none" stroke="black" d="M624.122,-1168.8C655.702,-1161.21 699.165,-1150.76 735.621,-1142"/>
<polygon fill="black" stroke="black" points="736.798,-1145.31 745.702,-1139.57 735.161,-1138.51 736.798,-1145.31"/>
</g>
<!-- ЭРОС&#45;&gt;HE -->
<g id="edge7" class="edge"><title>ЭРОС&#45;&gt;HE</title>
<path fill="none" stroke="black" d="M624.122,-1179.21C666.28,-1179.21 729.615,-1179.21 769.186,-1179.21"/>
<polygon fill="black" stroke="black" points="769.436,-1182.71 779.436,-1179.21 769.436,-1175.71 769.436,-1182.71"/>
</g>
<!-- Comrise -->
<g id="node30" class="node"><title>Comrise</title>
<polygon fill="none" stroke="black" points="434.389,-614.776 383.057,-627.213 331.725,-614.776 331.773,-594.651 434.341,-594.651 434.389,-614.776"/>
<text text-anchor="middle" x="383.057" y="-605.513" font-family="Times New Roman,serif" font-size="14.00">Comrise</text>
</g>
<!-- Comrise&#45;&gt;Унико -->
<g id="edge50" class="edge"><title>Comrise&#45;&gt;Унико</title>
<path fill="none" stroke="black" stroke-dasharray="1,5" d="M416.589,-590.68C437.056,-579.665 464.32,-566.145 489.754,-557.213 515.55,-548.155 684.892,-512.347 764.372,-495.747"/>
<ellipse fill="none" stroke="black" cx="412.885" cy="-592.698" rx="4.00002" ry="4.00002"/>
<ellipse fill="none" stroke="black" cx="768.318" cy="-494.923" rx="4.00001" ry="4.00001"/>
</g>
<!-- Comrise&#45;&gt;Вымпелком -->
<g id="edge9" class="edge"><title>Comrise&#45;&gt;Вымпелком</title>
<path fill="none" stroke="black" d="M425.791,-617.082C436.459,-621.083 446.851,-627.116 453.754,-636.213 503.689,-702.023 428.576,-950.699 489.754,-1006.21 549.037,-1060.01 590.528,-1016.85 669.871,-1006.21 702.462,-1001.85 738.313,-991.821 764.957,-983.307"/>
<polygon fill="black" stroke="black" points="766.27,-986.56 774.692,-980.132 764.1,-979.905 766.27,-986.56"/>
</g>
<!-- Comrise&#45;&gt;Ростелеком -->
<g id="edge8" class="edge"><title>Comrise&#45;&gt;Ростелеком</title>
<path fill="none" stroke="black" d="M434.65,-609.213C513.76,-609.213 671.561,-609.213 805.437,-609.213 805.437,-609.213 805.437,-609.213 1017.49,-609.213 1150.03,-609.213 1204.5,-631.481 1288.25,-734.213 1332.67,-788.693 1302.69,-821.311 1324.25,-888.213 1342.11,-943.62 1369.74,-1005.84 1385.95,-1040.7"/>
<polygon fill="black" stroke="black" points="1382.98,-1042.62 1390.39,-1050.19 1389.32,-1039.65 1382.98,-1042.62"/>
</g>
<!-- Powernet -->
<g id="node31" class="node"><title>Powernet</title>
<polygon fill="none" stroke="black" points="635.178,-660.776 579.813,-673.213 524.447,-660.776 524.499,-640.651 635.126,-640.651 635.178,-660.776"/>
<text text-anchor="middle" x="579.813" y="-651.513" font-family="Times New Roman,serif" font-size="14.00">Powernet</text>
</g>
<!-- Comrise&#45;&gt;Powernet -->
<g id="edge51" class="edge"><title>Comrise&#45;&gt;Powernet</title>
<path fill="none" stroke="black" stroke-dasharray="1,5" d="M429.742,-620.004C455.635,-626.12 488.396,-633.857 516.606,-640.52"/>
<ellipse fill="none" stroke="black" cx="425.501" cy="-619.002" rx="4.00001" ry="4.00001"/>
<ellipse fill="none" stroke="black" cx="520.54" cy="-641.45" rx="4.00001" ry="4.00001"/>
</g>
<!-- Powernet&#45;&gt;Унико -->
<g id="edge30" class="edge"><title>Powernet&#45;&gt;Унико</title>
<path fill="none" stroke="black" d="M606.854,-635.737C648.788,-604.373 731.051,-542.848 775.4,-509.678"/>
<ellipse fill="none" stroke="black" cx="603.557" cy="-638.202" rx="4.00002" ry="4.00002"/>
<polygon fill="black" stroke="black" points="777.569,-512.426 783.481,-503.634 773.377,-506.821 777.569,-512.426"/>
</g>
<!-- Powernet&#45;&gt;ЭрТелеком -->
<g id="edge52" class="edge"><title>Powernet&#45;&gt;ЭрТелеком</title>
<path fill="none" stroke="black" stroke-dasharray="1,5" d="M643.525,-658.412C710.273,-663.24 818.279,-675.161 907.002,-704.213 927.351,-710.876 948.467,-721.11 966.601,-731.077"/>
<ellipse fill="none" stroke="black" cx="639.182" cy="-658.109" rx="4" ry="4"/>
<ellipse fill="none" stroke="black" cx="970.166" cy="-733.07" rx="4.00002" ry="4.00002"/>
</g>
<!-- Powernet&#45;&gt;Мегафон -->
<g id="edge10" class="edge"><title>Powernet&#45;&gt;Мегафон</title>
<path fill="none" stroke="black" d="M633.098,-661.317C646.713,-665.29 660.245,-671.75 669.871,-682.213 721.573,-738.41 653.345,-794.787 705.871,-850.213 716.735,-861.677 731.929,-868.447 747.18,-872.396"/>
<polygon fill="black" stroke="black" points="746.646,-875.862 757.166,-874.605 748.158,-869.028 746.646,-875.862"/>
</g>
<!-- Евротелеком -->
<g id="node32" class="node"><title>Евротелеком</title>
<polygon fill="none" stroke="black" points="655.954,-1076.78 579.813,-1089.21 503.671,-1076.78 503.742,-1056.65 655.883,-1056.65 655.954,-1076.78"/>
<text text-anchor="middle" x="579.813" y="-1067.51" font-family="Times New Roman,serif" font-size="14.00">Евротелеком</text>
</g>
<!-- Евротелеком&#45;&gt;Транстелеком -->
<g id="edge11" class="edge"><title>Евротелеком&#45;&gt;Транстелеком</title>
<path fill="none" stroke="black" d="M648.166,-1056.59C714.262,-1042.03 817.835,-1018.69 907.002,-996.213 1065.55,-956.255 1251.27,-903.736 1342.55,-877.542"/>
<polygon fill="black" stroke="black" points="1343.77,-880.834 1352.41,-874.709 1341.83,-874.106 1343.77,-880.834"/>
</g>
<!-- Евротелеком&#45;&gt;Вымпелком -->
<g id="edge12" class="edge"><title>Евротелеком&#45;&gt;Вымпелком</title>
<path fill="none" stroke="black" d="M634.546,-1056.48C646.684,-1051.93 659.143,-1046.22 669.871,-1039.21 689.348,-1026.49 686.181,-1013.6 705.871,-1001.21 722.057,-991.027 741.778,-983.806 759.386,-978.835"/>
<polygon fill="black" stroke="black" points="760.697,-982.108 769.466,-976.162 758.903,-975.342 760.697,-982.108"/>
</g>
<!-- Virgin -->
<g id="node33" class="node"><title>Virgin</title>
<polygon fill="none" stroke="black" points="620.151,-1130.78 579.813,-1143.21 539.475,-1130.78 539.512,-1110.65 620.113,-1110.65 620.151,-1130.78"/>
<text text-anchor="middle" x="579.813" y="-1121.51" font-family="Times New Roman,serif" font-size="14.00">Virgin</text>
</g>
<!-- Virgin&#45;&gt;Волгатранстелеком -->
<g id="edge45" class="edge"><title>Virgin&#45;&gt;Волгатранстелеком</title>
<path fill="none" stroke="black" d="M628.263,-1125.21C648.022,-1125.21 671.856,-1125.21 695.547,-1125.21"/>
<ellipse fill="black" stroke="black" cx="624.196" cy="-1125.21" rx="4" ry="4"/>
<polygon fill="black" stroke="black" points="695.679,-1128.71 705.679,-1125.21 695.679,-1121.71 695.679,-1128.71"/>
</g>
<!-- Virgin&#45;&gt;Мегафон -->
<g id="edge14" class="edge"><title>Virgin&#45;&gt;Мегафон</title>
<path fill="none" stroke="black" d="M620.104,-1122.11C637.589,-1118.73 657.074,-1111.91 669.871,-1098.21 718.458,-1046.23 665.131,-1000.55 705.871,-942.213 720.221,-921.666 743.353,-905.988 763.71,-895.183"/>
<polygon fill="black" stroke="black" points="765.49,-898.205 772.827,-890.561 762.325,-891.961 765.49,-898.205"/>
</g>
<!-- Virgin&#45;&gt;Вымпелком -->
<g id="edge13" class="edge"><title>Virgin&#45;&gt;Вымпелком</title>
<path fill="none" stroke="black" d="M620.131,-1117.5C636.25,-1113.29 654.654,-1107.08 669.871,-1098.21 673.079,-1096.34 740.837,-1031.36 779.318,-994.357"/>
<polygon fill="black" stroke="black" points="781.816,-996.811 786.596,-987.356 776.963,-991.766 781.816,-996.811"/>
</g>
<!-- Virgin&#45;&gt;Ростелеком -->
<g id="edge15" class="edge"><title>Virgin&#45;&gt;Ростелеком</title>
<path fill="none" stroke="black" d="M620.222,-1114.91C644.696,-1108.96 676.901,-1101.94 705.871,-1098.21 736.349,-1094.29 1158.76,-1077.56 1328.84,-1070.93"/>
<polygon fill="black" stroke="black" points="1329.09,-1074.42 1338.95,-1070.54 1328.82,-1067.43 1329.09,-1074.42"/>
</g>
<!-- WMAX -->
<g id="node34" class="node"><title>WMAX</title>
<polygon fill="none" stroke="black" points="629.432,-146.776 579.813,-159.213 530.194,-146.776 530.24,-126.651 629.385,-126.651 629.432,-146.776"/>
<text text-anchor="middle" x="579.813" y="-137.513" font-family="Times New Roman,serif" font-size="14.00">WMAX</text>
</g>
<!-- WMAX&#45;&gt;Релком -->
<g id="edge22" class="edge"><title>WMAX&#45;&gt;Релком</title>
<path fill="none" stroke="black" d="M629.553,-141.213C665.171,-141.213 713.509,-141.213 750.497,-141.213"/>
<polygon fill="black" stroke="black" points="750.609,-144.713 760.609,-141.213 750.609,-137.713 750.609,-144.713"/>
</g>
<!-- WMAX&#45;&gt;Мегафон -->
<g id="edge20" class="edge"><title>WMAX&#45;&gt;Мегафон</title>
<path fill="none" stroke="black" d="M597.97,-154.727C619.213,-172.609 654.469,-206.328 669.871,-244.213 720.678,-369.184 620.766,-745.542 705.871,-850.213 715.788,-862.41 730.61,-869.418 745.806,-873.36"/>
<polygon fill="black" stroke="black" points="745.284,-876.828 755.799,-875.532 746.771,-869.988 745.284,-876.828"/>
</g>
<!-- WMAX&#45;&gt;WestCall -->
<g id="edge21" class="edge"><title>WMAX&#45;&gt;WestCall</title>
<path fill="none" stroke="black" d="M629.553,-129.496C667.692,-120.327 720.416,-107.652 758.172,-98.5756"/>
<polygon fill="black" stroke="black" points="759.01,-101.974 767.915,-96.2335 757.374,-95.168 759.01,-101.974"/>
</g>
<!-- InstrNet -->
<g id="node35" class="node"><title>InstrNet</title>
<polygon fill="none" stroke="black" points="629.432,-768.776 579.813,-781.213 530.194,-768.776 530.24,-748.651 629.385,-748.651 629.432,-768.776"/>
<text text-anchor="middle" x="579.813" y="-759.513" font-family="Times New Roman,serif" font-size="14.00">InstrNet</text>
</g>
<!-- InstrNet&#45;&gt;ЭрТелеком -->
<g id="edge35" class="edge"><title>InstrNet&#45;&gt;ЭрТелеком</title>
<path fill="none" stroke="black" d="M638.157,-762.949C713.673,-762.602 846.95,-761.989 933.208,-761.592"/>
<ellipse fill="none" stroke="black" cx="633.83" cy="-762.969" rx="4" ry="4"/>
<polygon fill="black" stroke="black" points="933.242,-765.092 943.226,-761.546 933.21,-758.092 933.242,-765.092"/>
</g>
<!-- InstrNet&#45;&gt;Мегафон -->
<g id="edge23" class="edge"><title>InstrNet&#45;&gt;Мегафон</title>
<path fill="none" stroke="black" d="M625.071,-769.885C640.427,-773.858 657.004,-780.178 669.871,-790.213 694.393,-809.338 681.069,-831.453 705.871,-850.213 718.702,-859.918 734.786,-866.137 750.262,-870.121"/>
<polygon fill="black" stroke="black" points="749.773,-873.6 760.303,-872.43 751.342,-866.778 749.773,-873.6"/>
</g>
<!-- ТСвязь -->
<g id="node36" class="node"><title>ТСвязь</title>
<polygon fill="none" stroke="black" points="629.432,-984.776 579.813,-997.213 530.194,-984.776 530.24,-964.651 629.385,-964.651 629.432,-984.776"/>
<text text-anchor="middle" x="579.813" y="-975.513" font-family="Times New Roman,serif" font-size="14.00">ТСвязь</text>
</g>
<!-- ТСвязь&#45;&gt;Мегафон -->
<g id="edge24" class="edge"><title>ТСвязь&#45;&gt;Мегафон</title>
<path fill="none" stroke="black" d="M629.54,-966.463C642.822,-962.444 657.073,-957.622 669.871,-952.213 705.152,-937.303 743.13,-915.774 769.887,-899.603"/>
<polygon fill="black" stroke="black" points="771.797,-902.538 778.511,-894.342 768.152,-896.562 771.797,-902.538"/>
</g>
<!-- ТСвязь&#45;&gt;Вымпелком -->
<g id="edge25" class="edge"><title>ТСвязь&#45;&gt;Вымпелком</title>
<path fill="none" stroke="black" d="M629.553,-977.043C666.115,-975.416 716.079,-973.191 753.412,-971.529"/>
<polygon fill="black" stroke="black" points="753.751,-975.018 763.586,-971.076 753.44,-968.025 753.751,-975.018"/>
</g>
<!-- Восток -->
<g id="node37" class="node"><title>Восток</title>
<polygon fill="none" stroke="black" points="628.218,-822.776 579.813,-835.213 531.407,-822.776 531.452,-802.651 628.173,-802.651 628.218,-822.776"/>
<text text-anchor="middle" x="579.813" y="-813.513" font-family="Times New Roman,serif" font-size="14.00">Восток</text>
</g>
<!-- Восток&#45;&gt;Мегафон -->
<g id="edge26" class="edge"><title>Восток&#45;&gt;Мегафон</title>
<path fill="none" stroke="black" d="M614.928,-826.326C653.105,-836.523 715.212,-853.113 758.081,-864.564"/>
<polygon fill="black" stroke="black" points="757.433,-868.014 767.998,-867.213 759.24,-861.251 757.433,-868.014"/>
</g>
<!-- Старнет -->
<g id="node38" class="node"><title>Старнет</title>
<polygon fill="none" stroke="black" points="190.62,-230.776 138.18,-243.213 85.7407,-230.776 85.7897,-210.651 190.571,-210.651 190.62,-230.776"/>
<text text-anchor="middle" x="138.18" y="-221.513" font-family="Times New Roman,serif" font-size="14.00">Старнет</text>
</g>
<!-- Старнет&#45;&gt;Унико -->
<g id="edge28" class="edge"><title>Старнет&#45;&gt;Унико</title>
<path fill="none" stroke="black" d="M198.907,-220.189C320.645,-211.085 592.505,-196.902 669.871,-244.213 749.298,-292.785 785.967,-405.943 799.242,-458.916"/>
<ellipse fill="none" stroke="black" cx="194.746" cy="-220.505" rx="4" ry="4"/>
<polygon fill="black" stroke="black" points="795.917,-460.062 801.658,-468.967 802.723,-458.425 795.917,-460.062"/>
</g>
<!-- Старнет&#45;&gt;ЭрТелеком -->
<g id="edge29" class="edge"><title>Старнет&#45;&gt;ЭрТелеком</title>
<path fill="none" stroke="black" d="M194.254,-208.429C293.978,-181.189 509.025,-137.076 669.871,-207.213 886.017,-301.464 979.089,-608.302 1006.39,-720.038"/>
<ellipse fill="none" stroke="black" cx="190.264" cy="-209.534" rx="4.00001" ry="4.00001"/>
<polygon fill="black" stroke="black" points="1003.02,-721.01 1008.76,-729.92 1009.83,-719.379 1003.02,-721.01"/>
</g>
<!-- Магистраль -->
<g id="node41" class="node"><title>Магистраль</title>
<polygon fill="none" stroke="black" points="453.951,-668.776 383.057,-681.213 312.163,-668.776 312.229,-648.651 453.885,-648.651 453.951,-668.776"/>
<text text-anchor="middle" x="383.057" y="-659.513" font-family="Times New Roman,serif" font-size="14.00">Магистраль</text>
</g>
<!-- Старнет&#45;&gt;Магистраль -->
<g id="edge48" class="edge"><title>Старнет&#45;&gt;Магистраль</title>
<path fill="none" stroke="black" stroke-dasharray="1,5" d="M198.507,-221.734C226.104,-223.472 257.028,-230.825 276.36,-252.213 333.833,-315.796 260.673,-567.845 312.36,-636.213 314.473,-639.008 316.916,-641.514 319.595,-643.76"/>
<ellipse fill="none" stroke="black" cx="194.443" cy="-221.553" rx="4" ry="4"/>
<ellipse fill="none" stroke="black" cx="322.987" cy="-646.206" rx="4.00002" ry="4.00002"/>
</g>
<!-- ВолгаЛинк -->
<g id="node39" class="node"><title>ВолгаЛинк</title>
<polygon fill="none" stroke="black" points="1273.97,-1222.78 1207.11,-1235.21 1140.25,-1222.78 1140.31,-1202.65 1273.91,-1202.65 1273.97,-1222.78"/>
<text text-anchor="middle" x="1207.11" y="-1213.51" font-family="Times New Roman,serif" font-size="14.00">ВолгаЛинк</text>
</g>
<!-- ВолгаЛинк&#45;&gt;Ростелеком -->
<g id="edge37" class="edge"><title>ВолгаЛинк&#45;&gt;Ростелеком</title>
<path fill="none" stroke="black" d="M1271.3,-1199.4C1277.23,-1196.71 1282.98,-1193.66 1288.25,-1190.21 1327.14,-1164.78 1361.29,-1122.51 1381.05,-1095"/>
<ellipse fill="black" stroke="black" cx="1267.41" cy="-1201.05" rx="4.00002" ry="4.00002"/>
<polygon fill="black" stroke="black" points="1384.05,-1096.82 1386.95,-1086.63 1378.33,-1092.79 1384.05,-1096.82"/>
</g>
<!-- ИнсаткомВ -->
<g id="node40" class="node"><title>ИнсаткомВ</title>
<polygon fill="none" stroke="black" points="1275.19,-1050.78 1207.11,-1063.21 1139.04,-1050.78 1139.1,-1030.65 1275.12,-1030.65 1275.19,-1050.78"/>
<text text-anchor="middle" x="1207.11" y="-1041.51" font-family="Times New Roman,serif" font-size="14.00">ИнсаткомВ</text>
</g>
<!-- ИнсаткомВ&#45;&gt;Ростелеком -->
<g id="edge38" class="edge"><title>ИнсаткомВ&#45;&gt;Ростелеком</title>
<path fill="none" stroke="black" d="M1275.09,-1053.28C1294.95,-1055.67 1316.62,-1058.28 1336.2,-1060.64"/>
<ellipse fill="black" stroke="black" cx="1270.93" cy="-1052.78" rx="4.00001" ry="4.00001"/>
<polygon fill="black" stroke="black" points="1335.89,-1064.13 1346.23,-1061.85 1336.72,-1057.18 1335.89,-1064.13"/>
</g>
<!-- Магистраль&#45;&gt;Унико -->
<g id="edge39" class="edge"><title>Магистраль&#45;&gt;Унико</title>
<path fill="none" stroke="black" d="M429.912,-645.518C437.867,-642.429 446.054,-639.237 453.754,-636.213 549.98,-598.43 574.933,-591.124 669.871,-550.213 704.197,-535.421 742.807,-517.334 770.016,-504.34"/>
<ellipse fill="black" stroke="black" cx="425.792" cy="-647.116" rx="4.00001" ry="4.00001"/>
<polygon fill="black" stroke="black" points="771.632,-507.447 779.139,-499.97 768.608,-501.133 771.632,-507.447"/>
</g>
<!-- Магистраль&#45;&gt;ЮТК -->
<g id="edge54" class="edge"><title>Магистраль&#45;&gt;ЮТК</title>
<path fill="none" stroke="black" stroke-dasharray="1,5" d="M384.936,-689.256C388.875,-788.287 408.458,-1139.22 489.754,-1206.21 686.317,-1368.2 1025.04,-1236.17 1154.1,-1176.08"/>
<ellipse fill="none" stroke="black" cx="384.774" cy="-684.99" rx="4" ry="4"/>
<ellipse fill="none" stroke="black" cx="1157.94" cy="-1174.28" rx="4.00002" ry="4.00002"/>
</g>
<!-- Магистраль&#45;&gt;Powernet -->
<g id="edge53" class="edge"><title>Магистраль&#45;&gt;Powernet</title>
<path fill="none" stroke="black" stroke-dasharray="1,5" d="M462.037,-660.01C479.934,-659.275 498.743,-658.502 515.91,-657.797"/>
<ellipse fill="none" stroke="black" cx="457.815" cy="-660.183" rx="4" ry="4"/>
<ellipse fill="none" stroke="black" cx="520.197" cy="-657.621" rx="4" ry="4"/>
</g>
<!-- Магистраль&#45;&gt;Евротелеком -->
<g id="edge55" class="edge"><title>Магистраль&#45;&gt;Евротелеком</title>
<path fill="none" stroke="black" stroke-dasharray="1,5" d="M383.687,-689.645C384.196,-757.079 394.877,-937.358 489.754,-1039.21 494.77,-1044.6 500.758,-1049.08 507.224,-1052.81"/>
<ellipse fill="none" stroke="black" cx="383.68" cy="-685.262" rx="4" ry="4"/>
<ellipse fill="none" stroke="black" cx="510.86" cy="-1054.71" rx="4.00002" ry="4.00002"/>
</g>
<!-- ФорумNet -->
<g id="node42" class="node"><title>ФорумNet</title>
<polygon fill="none" stroke="black" points="641.532,-438.776 579.813,-451.213 518.093,-438.776 518.15,-418.651 641.475,-418.651 641.532,-438.776"/>
<text text-anchor="middle" x="579.813" y="-429.513" font-family="Times New Roman,serif" font-size="14.00">ФорумNet</text>
</g>
<!-- ФорумNet&#45;&gt;Унико -->
<g id="edge41" class="edge"><title>ФорумNet&#45;&gt;Унико</title>
<path fill="none" stroke="black" d="M629.136,-444.83C669.159,-454.452 725.451,-467.985 763.576,-477.15"/>
<ellipse fill="black" stroke="black" cx="625.119" cy="-443.865" rx="4.00001" ry="4.00001"/>
<polygon fill="black" stroke="black" points="762.796,-480.562 773.337,-479.496 764.432,-473.756 762.796,-480.562"/>
</g>
<!-- ByteS -->
<g id="node43" class="node"><title>ByteS</title>
<polygon fill="none" stroke="black" points="620.151,-384.776 579.813,-397.213 539.475,-384.776 539.512,-364.651 620.113,-364.651 620.151,-384.776"/>
<text text-anchor="middle" x="579.813" y="-375.513" font-family="Times New Roman,serif" font-size="14.00">ByteS</text>
</g>
<!-- ByteS&#45;&gt;Унико -->
<g id="edge42" class="edge"><title>ByteS&#45;&gt;Унико</title>
<path fill="none" stroke="black" d="M621.136,-389.182C636.674,-393.604 654.395,-399.367 669.871,-406.213 707.491,-422.854 747.581,-447.813 774.322,-465.623"/>
<ellipse fill="black" stroke="black" cx="617.089" cy="-388.062" rx="4.00001" ry="4.00001"/>
<polygon fill="black" stroke="black" points="772.606,-468.687 782.857,-471.366 776.515,-462.879 772.606,-468.687"/>
</g>
<!-- АвантекПлюс -->
<g id="node44" class="node"><title>АвантекПлюс</title>
<polygon fill="none" stroke="black" points="659.38,-330.776 579.813,-343.213 500.245,-330.776 500.319,-310.651 659.306,-310.651 659.38,-330.776"/>
<text text-anchor="middle" x="579.813" y="-321.513" font-family="Times New Roman,serif" font-size="14.00">АвантекПлюс</text>
</g>
<!-- АвантекПлюс&#45;&gt;Унико -->
<g id="edge43" class="edge"><title>АвантекПлюс&#45;&gt;Унико</title>
<path fill="none" stroke="black" d="M637.46,-337.834C648.632,-341.563 659.956,-346.286 669.871,-352.213 718.08,-381.035 761.751,-430.685 785.844,-461.071"/>
<ellipse fill="black" stroke="black" cx="633.584" cy="-336.612" rx="4.00001" ry="4.00001"/>
<polygon fill="black" stroke="black" points="783.197,-463.367 792.108,-469.097 788.715,-459.06 783.197,-463.367"/>
</g>
<!-- Robor -->
<g id="node45" class="node"><title>Robor</title>
<polygon fill="none" stroke="black" points="1249.77,-492.776 1207.11,-505.213 1164.45,-492.776 1164.49,-472.651 1249.73,-472.651 1249.77,-492.776"/>
<text text-anchor="middle" x="1207.11" y="-483.513" font-family="Times New Roman,serif" font-size="14.00">Robor</text>
</g>
<!-- Robor&#45;&gt;Транстелеком -->
<g id="edge44" class="edge"><title>Robor&#45;&gt;Транстелеком</title>
<path fill="none" stroke="black" d="M1252.02,-497.013C1265.14,-501.814 1278.58,-508.879 1288.25,-519.213 1373.7,-610.554 1393.27,-768.474 1397.74,-832.755"/>
<ellipse fill="black" stroke="black" cx="1248.16" cy="-495.715" rx="4.00001" ry="4.00001"/>
<polygon fill="black" stroke="black" points="1394.25,-833.177 1398.37,-842.94 1401.24,-832.742 1394.25,-833.177"/>
</g>
<!-- ВистОнЛайн -->
<g id="node46" class="node"><title>ВистОнЛайн</title>
<polygon fill="none" stroke="black" points="655.954,-276.776 579.813,-289.213 503.671,-276.776 503.742,-256.651 655.883,-256.651 655.954,-276.776"/>
<text text-anchor="middle" x="579.813" y="-267.513" font-family="Times New Roman,serif" font-size="14.00">ВистОнЛайн</text>
</g>
<!-- ВистОнЛайн&#45;&gt;Унико -->
<g id="edge46" class="edge"><title>ВистОнЛайн&#45;&gt;Унико</title>
<path fill="none" stroke="black" d="M640.096,-283.228C650.593,-286.972 660.992,-291.855 669.871,-298.213 729.747,-341.092 773.114,-418.8 793.106,-459.949"/>
<ellipse fill="black" stroke="black" cx="636.253" cy="-281.956" rx="4.00001" ry="4.00001"/>
<polygon fill="black" stroke="black" points="790.004,-461.577 797.46,-469.104 796.326,-458.57 790.004,-461.577"/>
</g>
</g>
</svg>
