<?xml version="1.0" encoding="UTF-8" standalone="no"?>
<!DOCTYPE svg PUBLIC "-//W3C//DTD SVG 1.1//EN"
 "http://www.w3.org/Graphics/SVG/1.1/DTD/svg11.dtd">
<!-- Generated by graphviz version 2.38.0 (20140413.2041)
 -->
<!-- Title: ispgraph Pages: 1 -->
<svg width="1410pt" height="1466pt"
 viewBox="0.00 0.00 1409.78 1466.00" xmlns="http://www.w3.org/2000/svg" xmlns:xlink="http://www.w3.org/1999/xlink">
<g id="graph0" class="graph" transform="scale(1 1) rotate(0) translate(4 1462)">
<title>ispgraph</title>
<polygon fill="white" stroke="none" points="-4,4 -4,-1462 1405.78,-1462 1405.78,4 -4,4"/>
<!-- Унико -->
<g id="node1" class="node"><title>Унико</title>
<polygon fill="none" stroke="black" points="593.668,-1062 572.641,-1080 530.586,-1080 509.559,-1062 530.586,-1044 572.641,-1044 593.668,-1062"/>
<text text-anchor="middle" x="551.614" y="-1058.3" font-family="Times New Roman,serif" font-size="14.00">Унико</text>
</g>
<!-- ЭрТелеком -->
<g id="node3" class="node"><title>ЭрТелеком</title>
<polygon fill="none" stroke="black" points="1015.88,-870 979.15,-901.054 905.68,-901.054 868.945,-870 905.68,-838.946 979.15,-838.946 1015.88,-870"/>
<text text-anchor="middle" x="942.415" y="-873.8" font-family="Times New Roman,serif" font-size="14.00">ЭР&#45;Телеком</text>
<text text-anchor="middle" x="942.415" y="-858.8" font-family="Times New Roman,serif" font-size="14.00">транзит</text>
</g>
<!-- Унико&#45;&gt;ЭрТелеком -->
<g id="edge61" class="edge"><title>Унико&#45;&gt;ЭрТелеком</title>
<path fill="none" stroke="black" stroke-dasharray="1,5" d="M594.5,-1054.26C670.157,-1040.16 822.752,-1011.2 832.93,-1005 871.32,-981.609 901.872,-939.492 920.646,-908.501"/>
<ellipse fill="none" stroke="black" cx="590.479" cy="-1055.01" rx="4.00001" ry="4.00001"/>
<ellipse fill="none" stroke="black" cx="922.891" cy="-904.717" rx="4.00002" ry="4.00002"/>
</g>
<!-- Ростелеком -->
<g id="node10" class="node"><title>Ростелеком</title>
<polygon fill="none" stroke="black" points="1391.07,-1100 1358.52,-1118 1293.44,-1118 1260.89,-1100 1293.44,-1082 1358.52,-1082 1391.07,-1100"/>
<text text-anchor="middle" x="1325.98" y="-1096.3" font-family="Times New Roman,serif" font-size="14.00">Ростелеком</text>
</g>
<!-- Унико&#45;&gt;Ростелеком -->
<g id="edge19" class="edge"><title>Унико&#45;&gt;Ростелеком</title>
<path fill="none" stroke="black" d="M559.929,-1080.18C571.215,-1105.64 595.445,-1151.23 631.799,-1173 793.31,-1269.7 864.036,-1214.98 1051.9,-1227 1123.88,-1231.61 1148.52,-1256.85 1214.18,-1227 1259.08,-1206.59 1292.89,-1157.99 1310.75,-1127.18"/>
<polygon fill="black" stroke="black" points="1313.92,-1128.67 1315.77,-1118.24 1307.82,-1125.24 1313.92,-1128.67"/>
</g>
<!-- Powernet -->
<g id="node19" class="node"><title>Powernet</title>
<polygon fill="none" stroke="black" points="783.933,-870 758.149,-888 706.58,-888 680.796,-870 706.58,-852 758.149,-852 783.933,-870"/>
<text text-anchor="middle" x="732.365" y="-866.3" font-family="Times New Roman,serif" font-size="14.00">Powernet</text>
</g>
<!-- Унико&#45;&gt;Powernet -->
<g id="edge36" class="edge"><title>Унико&#45;&gt;Powernet</title>
<path fill="none" stroke="black" d="M556.714,-1035.79C564.747,-997.132 585.934,-926.17 631.799,-888 644.447,-877.474 660.841,-871.026 676.662,-867.5"/>
<ellipse fill="none" stroke="black" cx="555.88" cy="-1040.05" rx="4.00001" ry="4.00001"/>
<polygon fill="black" stroke="black" points="677.739,-870.86 686.932,-865.592 676.46,-863.978 677.739,-870.86"/>
</g>
<!-- RETN -->
<g id="node20" class="node"><title>RETN</title>
<polygon fill="none" stroke="black" points="771.918,-1146 752.141,-1164 712.588,-1164 692.812,-1146 712.588,-1128 752.141,-1128 771.918,-1146"/>
<text text-anchor="middle" x="732.365" y="-1142.3" font-family="Times New Roman,serif" font-size="14.00">RETN</text>
</g>
<!-- Унико&#45;&gt;RETN -->
<g id="edge20" class="edge"><title>Унико&#45;&gt;RETN</title>
<path fill="none" stroke="black" d="M574.525,-1078.72C589.912,-1089.86 611.323,-1104.21 631.799,-1114 650.596,-1122.99 672.546,-1130.35 691.047,-1135.73"/>
<polygon fill="black" stroke="black" points="690.353,-1139.17 700.928,-1138.52 692.253,-1132.44 690.353,-1139.17"/>
</g>
<!-- ДомРу -->
<g id="node2" class="node"><title>ДомРу</title>
<polygon fill="none" stroke="black" points="786.435,-924 759.4,-942 705.329,-942 678.294,-924 705.329,-906 759.4,-906 786.435,-924"/>
<text text-anchor="middle" x="732.365" y="-920.3" font-family="Times New Roman,serif" font-size="14.00">ДОМ.RU</text>
</g>
<!-- ДомРу&#45;&gt;ЭрТелеком -->
<g id="edge39" class="edge"><title>ДомРу&#45;&gt;ЭрТелеком</title>
<path fill="none" stroke="black" d="M780.142,-911.859C808.368,-904.533 844.76,-895.087 875.829,-887.023"/>
<ellipse fill="none" stroke="black" cx="775.881" cy="-912.965" rx="4.00001" ry="4.00001"/>
<polygon fill="black" stroke="black" points="876.912,-890.358 885.712,-884.458 875.154,-883.582 876.912,-890.358"/>
</g>
<!-- ЮТК -->
<g id="node15" class="node"><title>ЮТК</title>
<polygon fill="none" stroke="black" points="1204.11,-737 1168.58,-768.054 1097.5,-768.054 1061.97,-737 1097.5,-705.946 1168.58,-705.946 1204.11,-737"/>
<text text-anchor="middle" x="1133.04" y="-740.8" font-family="Times New Roman,serif" font-size="14.00">Ростелеком</text>
<text text-anchor="middle" x="1133.04" y="-725.8" font-family="Times New Roman,serif" font-size="14.00">Волгоград</text>
</g>
<!-- ЭрТелеком&#45;&gt;ЮТК -->
<g id="edge65" class="edge"><title>ЭрТелеком&#45;&gt;ЮТК</title>
<path fill="none" stroke="black" stroke-dasharray="1,5" d="M981.469,-833.323C1001.48,-815.112 1026.98,-793.532 1051.9,-777 1060.18,-771.505 1069.32,-766.261 1078.38,-761.484"/>
<ellipse fill="none" stroke="black" cx="978.387" cy="-836.152" rx="4.00002" ry="4.00002"/>
<ellipse fill="none" stroke="black" cx="1082.05" cy="-759.591" rx="4.00002" ry="4.00002"/>
</g>
<!-- Связьинформ -->
<g id="node26" class="node"><title>Связьинформ</title>
<polygon fill="none" stroke="black" points="1214.32,-809.562 1133.04,-822 1051.76,-809.562 1051.83,-789.438 1214.25,-789.438 1214.32,-809.562"/>
<text text-anchor="middle" x="1133.04" y="-800.3" font-family="Times New Roman,serif" font-size="14.00">Связьинформ</text>
</g>
<!-- ЭрТелеком&#45;&gt;Связьинформ -->
<g id="edge66" class="edge"><title>ЭрТелеком&#45;&gt;Связьинформ</title>
<path fill="none" stroke="black" stroke-dasharray="1,5" d="M1001.93,-848.721C1018.09,-842.909 1035.66,-836.655 1051.9,-831 1063.28,-827.039 1075.6,-822.842 1087.08,-818.969"/>
<ellipse fill="none" stroke="black" cx="997.878" cy="-850.179" rx="4.00001" ry="4.00001"/>
<ellipse fill="none" stroke="black" cx="1091.09" cy="-817.621" rx="4.00001" ry="4.00001"/>
</g>
<!-- Транстелеком -->
<g id="node4" class="node"><title>Транстелеком</title>
<polygon fill="none" stroke="black" points="1401.58,-600 1363.78,-618 1288.18,-618 1250.38,-600 1288.18,-582 1363.78,-582 1401.58,-600"/>
<text text-anchor="middle" x="1325.98" y="-596.3" font-family="Times New Roman,serif" font-size="14.00">Транстелеком</text>
</g>
<!-- Волгатранстелеком -->
<g id="node5" class="node"><title>Волгатранстелеком</title>
<polygon fill="none" stroke="black" points="832.996,-724 782.68,-742 682.049,-742 631.734,-724 682.049,-706 782.68,-706 832.996,-724"/>
<text text-anchor="middle" x="732.365" y="-720.3" font-family="Times New Roman,serif" font-size="14.00">Волгатранстелеком</text>
</g>
<!-- Волгатранстелеком&#45;&gt;ЭрТелеком -->
<g id="edge63" class="edge"><title>Волгатранстелеком&#45;&gt;ЭрТелеком</title>
<path fill="none" stroke="black" stroke-dasharray="1,5" d="M768.838,-746.39C788.01,-758.682 811.981,-774.363 832.93,-789 854.309,-803.938 877.535,-821.143 896.991,-835.844"/>
<ellipse fill="none" stroke="black" cx="765.377" cy="-744.177" rx="4.00002" ry="4.00002"/>
<ellipse fill="none" stroke="black" cx="900.248" cy="-838.312" rx="4.00002" ry="4.00002"/>
</g>
<!-- Волгатранстелеком&#45;&gt;Транстелеком -->
<g id="edge38" class="edge"><title>Волгатранстелеком&#45;&gt;Транстелеком</title>
<path fill="none" stroke="black" d="M804.51,-709.088C921.377,-684.594 1152.05,-636.246 1262.79,-613.036"/>
<ellipse fill="none" stroke="black" cx="800.312" cy="-709.968" rx="4.00001" ry="4.00001"/>
<polygon fill="black" stroke="black" points="1263.73,-616.414 1272.8,-610.937 1262.29,-609.563 1263.73,-616.414"/>
</g>
<!-- Волгатранстелеком&#45;&gt;ЮТК -->
<g id="edge62" class="edge"><title>Волгатранстелеком&#45;&gt;ЮТК</title>
<path fill="none" stroke="black" stroke-dasharray="1,5" d="M798.981,-740.948C821.048,-745.866 845.908,-750.565 868.93,-753 933.888,-759.87 950.733,-757.468 1015.9,-753 1031.72,-751.915 1048.67,-750.009 1064.6,-747.881"/>
<ellipse fill="none" stroke="black" cx="794.886" cy="-740.017" rx="4.00001" ry="4.00001"/>
<ellipse fill="none" stroke="black" cx="1068.86" cy="-747.296" rx="4.00001" ry="4.00001"/>
</g>
<!-- Orange -->
<g id="node16" class="node"><title>Orange</title>
<polygon fill="none" stroke="black" points="984.972,-726 963.693,-744 921.136,-744 899.858,-726 921.136,-708 963.693,-708 984.972,-726"/>
<text text-anchor="middle" x="942.415" y="-722.3" font-family="Times New Roman,serif" font-size="14.00">Orange</text>
</g>
<!-- Волгатранстелеком&#45;&gt;Orange -->
<g id="edge64" class="edge"><title>Волгатранстелеком&#45;&gt;Orange</title>
<path fill="none" stroke="black" stroke-dasharray="1,5" d="M838.751,-725.013C857.392,-725.192 875.975,-725.371 892.105,-725.526"/>
<ellipse fill="none" stroke="black" cx="834.689" cy="-724.974" rx="4" ry="4"/>
<ellipse fill="none" stroke="black" cx="896.303" cy="-725.566" rx="4" ry="4"/>
</g>
<!-- Релком -->
<g id="node6" class="node"><title>Релком</title>
<polygon fill="none" stroke="black" points="987.975,-18 965.195,-36 919.634,-36 896.854,-18 919.634,-2.13163e-014 965.195,-0 987.975,-18"/>
<text text-anchor="middle" x="942.415" y="-14.3" font-family="Times New Roman,serif" font-size="14.00">Релком</text>
</g>
<!-- Мегафон -->
<g id="node7" class="node"><title>Мегафон</title>
<polygon fill="none" stroke="black" points="995.485,-471 968.95,-489 915.88,-489 889.345,-471 915.88,-453 968.95,-453 995.485,-471"/>
<text text-anchor="middle" x="942.415" y="-467.3" font-family="Times New Roman,serif" font-size="14.00">Мегафон</text>
</g>
<!-- Вымпелком -->
<g id="node8" class="node"><title>Вымпелком</title>
<polygon fill="none" stroke="black" points="987.473,-286 964.944,-304 919.885,-304 897.356,-286 919.885,-268 964.944,-268 987.473,-286"/>
<text text-anchor="middle" x="942.415" y="-282.3" font-family="Times New Roman,serif" font-size="14.00">Билайн</text>
</g>
<!-- КоламбияТелеком -->
<g id="node9" class="node"><title>КоламбияТелеком</title>
<polygon fill="none" stroke="black" points="828.49,-978 780.427,-996 684.302,-996 636.239,-978 684.302,-960 780.427,-960 828.49,-978"/>
<text text-anchor="middle" x="732.365" y="-974.3" font-family="Times New Roman,serif" font-size="14.00">КоламбияТелеком</text>
</g>
<!-- КоламбияТелеком&#45;&gt;ЭрТелеком -->
<g id="edge40" class="edge"><title>КоламбияТелеком&#45;&gt;ЭрТелеком</title>
<path fill="none" stroke="black" d="M802.64,-962.854C813.03,-959.549 823.434,-955.623 832.93,-951 856.23,-939.656 879.581,-923.06 898.619,-907.839"/>
<ellipse fill="none" stroke="black" cx="798.541" cy="-964.098" rx="4.00001" ry="4.00001"/>
<polygon fill="black" stroke="black" points="900.958,-910.449 906.501,-901.42 896.537,-905.021 900.958,-910.449"/>
</g>
<!-- HE -->
<g id="node11" class="node"><title>HE</title>
<polygon fill="none" stroke="black" points="759.365,-816 745.865,-834 718.865,-834 705.365,-816 718.865,-798 745.865,-798 759.365,-816"/>
<text text-anchor="middle" x="732.365" y="-812.3" font-family="Times New Roman,serif" font-size="14.00">HE</text>
</g>
<!-- КвантТелеком -->
<g id="node12" class="node"><title>КвантТелеком</title>
<polygon fill="none" stroke="black" points="216.282,-1170 177.231,-1188 99.1293,-1188 60.0784,-1170 99.1293,-1152 177.231,-1152 216.282,-1170"/>
<text text-anchor="middle" x="138.18" y="-1166.3" font-family="Times New Roman,serif" font-size="14.00">КвантТелеком</text>
</g>
<!-- Tele2 -->
<g id="node13" class="node"><title>Tele2</title>
<polygon fill="none" stroke="black" points="1168.09,-858 1150.56,-876 1115.52,-876 1097.99,-858 1115.52,-840 1150.56,-840 1168.09,-858"/>
<text text-anchor="middle" x="1133.04" y="-854.3" font-family="Times New Roman,serif" font-size="14.00">Tele2</text>
</g>
<!-- Tele2&#45;&gt;Транстелеком -->
<g id="edge3" class="edge"><title>Tele2&#45;&gt;Транстелеком</title>
<path fill="none" stroke="black" d="M1164.33,-853.666C1180.69,-849.989 1200.33,-843.257 1214.18,-831 1277.03,-775.401 1307.42,-676.296 1319.06,-628.003"/>
<polygon fill="black" stroke="black" points="1322.48,-628.762 1321.32,-618.23 1315.66,-627.182 1322.48,-628.762"/>
</g>
<!-- Tele2&#45;&gt;Ростелеком -->
<g id="edge2" class="edge"><title>Tele2&#45;&gt;Ростелеком</title>
<path fill="none" stroke="black" d="M1148.39,-876.189C1181.92,-918.689 1265.51,-1024.63 1304.43,-1073.96"/>
<polygon fill="black" stroke="black" points="1301.78,-1076.25 1310.72,-1081.93 1307.28,-1071.91 1301.78,-1076.25"/>
</g>
<!-- МТС -->
<g id="node14" class="node"><title>МТС</title>
<polygon fill="none" stroke="black" points="173.228,-1224 155.704,-1242 120.656,-1242 103.133,-1224 120.656,-1206 155.704,-1206 173.228,-1224"/>
<text text-anchor="middle" x="138.18" y="-1220.3" font-family="Times New Roman,serif" font-size="14.00">МТС</text>
</g>
<!-- ЮТК&#45;&gt;Ростелеком -->
<g id="edge37" class="edge"><title>ЮТК&#45;&gt;Ростелеком</title>
<path fill="none" stroke="black" d="M1191.53,-758.67C1199.93,-763.715 1207.86,-769.779 1214.18,-777 1291.73,-865.572 1315.64,-1011.08 1322.46,-1071.91"/>
<ellipse fill="none" stroke="black" cx="1187.88" cy="-756.624" rx="4.00002" ry="4.00002"/>
<polygon fill="black" stroke="black" points="1318.99,-1072.34 1323.51,-1081.91 1325.95,-1071.6 1318.99,-1072.34"/>
</g>
<!-- ПросторТелеком -->
<g id="node17" class="node"><title>ПросторТелеком</title>
<polygon fill="none" stroke="black" points="822.482,-340 777.423,-358 687.306,-358 642.247,-340 687.306,-322 777.423,-322 822.482,-340"/>
<text text-anchor="middle" x="732.365" y="-336.3" font-family="Times New Roman,serif" font-size="14.00">ПросторТелеком</text>
</g>
<!-- ПросторТелеком&#45;&gt;Мегафон -->
<g id="edge23" class="edge"><title>ПросторТелеком&#45;&gt;Мегафон</title>
<path fill="none" stroke="black" d="M794.241,-351.339C807.492,-355.2 821.081,-360.301 832.93,-367 868.282,-386.986 900.749,-421.114 920.771,-444.8"/>
<polygon fill="black" stroke="black" points="918.243,-447.234 927.318,-452.701 923.633,-442.768 918.243,-447.234"/>
</g>
<!-- ПросторТелеком&#45;&gt;Вымпелком -->
<g id="edge22" class="edge"><title>ПросторТелеком&#45;&gt;Вымпелком</title>
<path fill="none" stroke="black" d="M787.484,-325.953C821.924,-317.014 865.927,-305.593 898.059,-297.253"/>
<polygon fill="black" stroke="black" points="899.247,-300.561 908.047,-294.661 897.488,-293.785 899.247,-300.561"/>
</g>
<!-- WestCall -->
<g id="node18" class="node"><title>WestCall</title>
<polygon fill="none" stroke="black" points="993.481,-72 967.948,-90 916.882,-90 891.348,-72 916.882,-54 967.948,-54 993.481,-72"/>
<text text-anchor="middle" x="942.415" y="-68.3" font-family="Times New Roman,serif" font-size="14.00">WestCall</text>
</g>
<!-- Powernet&#45;&gt;Унико -->
<g id="edge35" class="edge"><title>Powernet&#45;&gt;Унико</title>
<path fill="none" stroke="black" d="M687.37,-881.984C668.53,-886.291 647.338,-893.068 631.799,-906 591.406,-939.616 570.154,-998.665 560.171,-1033.83"/>
<ellipse fill="none" stroke="black" cx="691.367" cy="-881.122" rx="4.00001" ry="4.00001"/>
<polygon fill="black" stroke="black" points="556.673,-1033.35 557.425,-1043.92 563.428,-1035.19 556.673,-1033.35"/>
</g>
<!-- Powernet&#45;&gt;ЭрТелеком -->
<g id="edge57" class="edge"><title>Powernet&#45;&gt;ЭрТелеком</title>
<path fill="none" stroke="black" stroke-dasharray="1,5" d="M792.247,-870C813.56,-870 838.01,-870 860.865,-870"/>
<ellipse fill="none" stroke="black" cx="787.993" cy="-870" rx="4" ry="4"/>
<ellipse fill="none" stroke="black" cx="864.875" cy="-870" rx="4" ry="4"/>
</g>
<!-- Powernet&#45;&gt;Мегафон -->
<g id="edge12" class="edge"><title>Powernet&#45;&gt;Мегафон</title>
<path fill="none" stroke="black" d="M780.377,-867.352C799,-863.968 819.201,-857.004 832.93,-843 879.113,-795.892 850.928,-762.466 868.93,-699 889.558,-626.277 917.491,-541.722 931.916,-498.913"/>
<polygon fill="black" stroke="black" points="935.311,-499.8 935.197,-489.205 928.68,-497.558 935.311,-499.8"/>
</g>
<!-- Powernet&#45;&gt;Вымпелком -->
<g id="edge13" class="edge"><title>Powernet&#45;&gt;Вымпелком</title>
<path fill="none" stroke="black" d="M781.74,-868.311C800.471,-865.071 820.384,-857.956 832.93,-843 890.145,-774.793 846.039,-530.033 868.93,-444 881.8,-395.632 908.415,-343.623 925.565,-312.989"/>
<polygon fill="black" stroke="black" points="928.664,-314.62 930.558,-304.196 922.577,-311.164 928.664,-314.62"/>
</g>
<!-- ГородокТочкаРу -->
<g id="node21" class="node"><title>ГородокТочкаРу</title>
<polygon fill="none" stroke="black" points="462.788,-1075.56 391.894,-1088 321,-1075.56 321.066,-1055.44 462.722,-1055.44 462.788,-1075.56"/>
<text text-anchor="middle" x="391.894" y="-1066.3" font-family="Times New Roman,serif" font-size="14.00">Городок.Ру</text>
</g>
<!-- ГородокТочкаРу&#45;&gt;Унико -->
<g id="edge45" class="edge"><title>ГородокТочкаРу&#45;&gt;Унико</title>
<path fill="none" stroke="black" d="M471.199,-1066.03C481.458,-1065.51 491.729,-1064.99 501.318,-1064.5"/>
<ellipse fill="black" stroke="black" cx="466.986" cy="-1066.24" rx="4" ry="4"/>
<polygon fill="black" stroke="black" points="501.613,-1067.99 511.423,-1063.99 501.258,-1061 501.613,-1067.99"/>
</g>
<!-- STARLINE -->
<g id="node22" class="node"><title>STARLINE</title>
<polygon fill="none" stroke="black" points="205.647,-1283.56 138.18,-1296 70.7135,-1283.56 70.7765,-1263.44 205.584,-1263.44 205.647,-1283.56"/>
<text text-anchor="middle" x="138.18" y="-1274.3" font-family="Times New Roman,serif" font-size="14.00">STARLINE</text>
</g>
<!-- VSSA -->
<g id="node23" class="node"><title>VSSA</title>
<polygon fill="none" stroke="black" points="180.838,-1337.56 138.18,-1350 95.5225,-1337.56 95.5623,-1317.44 180.798,-1317.44 180.838,-1337.56"/>
<text text-anchor="middle" x="138.18" y="-1328.3" font-family="Times New Roman,serif" font-size="14.00">VSSA</text>
</g>
<!-- ИнформационныйСервис -->
<g id="node24" class="node"><title>ИнформационныйСервис</title>
<polygon fill="none" stroke="black" points="276.541,-1391.56 138.18,-1404 -0.180374,-1391.56 -0.0512311,-1371.44 276.412,-1371.44 276.541,-1391.56"/>
<text text-anchor="middle" x="138.18" y="-1382.3" font-family="Times New Roman,serif" font-size="14.00">ИнформационныйСервис</text>
</g>
<!-- SmIT34 -->
<g id="node25" class="node"><title>SmIT34</title>
<polygon fill="none" stroke="black" points="187.799,-1445.56 138.18,-1458 88.5612,-1445.56 88.6075,-1425.44 187.753,-1425.44 187.799,-1445.56"/>
<text text-anchor="middle" x="138.18" y="-1436.3" font-family="Times New Roman,serif" font-size="14.00">SmIT34</text>
</g>
<!-- Связьинформ&#45;&gt;Унико -->
<g id="edge31" class="edge"><title>Связьинформ&#45;&gt;Унико</title>
<path fill="none" stroke="black" d="M1073.31,-817.418C1065.53,-820.946 1058.11,-825.394 1051.9,-831 1023.25,-856.848 1040.47,-880.249 1015.9,-910 952.377,-986.916 926.705,-1005.98 832.93,-1040 755.17,-1068.21 657.533,-1068.71 600.404,-1065.83"/>
<ellipse fill="none" stroke="black" cx="1077.48" cy="-815.706" rx="4.00001" ry="4.00001"/>
<polygon fill="black" stroke="black" points="600.402,-1062.32 590.222,-1065.26 600.01,-1069.31 600.402,-1062.32"/>
</g>
<!-- Связьинформ&#45;&gt;Транстелеком -->
<g id="edge1" class="edge"><title>Связьинформ&#45;&gt;Транстелеком</title>
<path fill="none" stroke="black" d="M1193.36,-789.273C1200.79,-785.953 1207.96,-781.912 1214.18,-777 1264.99,-736.895 1298.82,-666.634 1314.64,-627.79"/>
<polygon fill="black" stroke="black" points="1318.02,-628.759 1318.45,-618.173 1311.51,-626.181 1318.02,-628.759"/>
</g>
<!-- СпринтСеть -->
<g id="node27" class="node"><title>СпринтСеть</title>
<polygon fill="none" stroke="black" points="805.579,-291.562 732.365,-304 659.151,-291.562 659.219,-271.438 805.51,-271.438 805.579,-291.562"/>
<text text-anchor="middle" x="732.365" y="-282.3" font-family="Times New Roman,serif" font-size="14.00">СпринтСеть</text>
</g>
<!-- СпринтСеть&#45;&gt;Мегафон -->
<g id="edge5" class="edge"><title>СпринтСеть&#45;&gt;Мегафон</title>
<path fill="none" stroke="black" d="M794.351,-293.587C808.19,-297.611 822.009,-303.726 832.93,-313 862.341,-337.975 847.624,-359.831 868.93,-392 881.884,-411.558 899.651,-431.006 914.353,-445.712"/>
<polygon fill="black" stroke="black" points="912.132,-448.437 921.72,-452.946 917.037,-443.442 912.132,-448.437"/>
</g>
<!-- СпринтСеть&#45;&gt;Вымпелком -->
<g id="edge4" class="edge"><title>СпринтСеть&#45;&gt;Вымпелком</title>
<path fill="none" stroke="black" d="M805.547,-286C832.366,-286 862.31,-286 887.248,-286"/>
<polygon fill="black" stroke="black" points="887.249,-289.5 897.249,-286 887.249,-282.5 887.249,-289.5"/>
</g>
<!-- СпринтСеть&#45;&gt;Связьинформ -->
<g id="edge52" class="edge"><title>СпринтСеть&#45;&gt;Связьинформ</title>
<path fill="none" stroke="black" stroke-dasharray="1,5" d="M786.94,-298.356C854.186,-317.064 966.674,-359.707 1015.9,-444 1090.97,-572.548 958.671,-660.946 1051.9,-777 1054.12,-779.768 1056.64,-782.255 1059.38,-784.488"/>
<ellipse fill="none" stroke="black" cx="782.831" cy="-297.24" rx="4.00001" ry="4.00001"/>
<ellipse fill="none" stroke="black" cx="1062.87" cy="-786.945" rx="4.00002" ry="4.00002"/>
</g>
<!-- Экспилайн -->
<g id="node28" class="node"><title>Экспилайн</title>
<polygon fill="none" stroke="black" points="799.225,-583.562 732.365,-596 665.504,-583.562 665.567,-563.438 799.163,-563.438 799.225,-583.562"/>
<text text-anchor="middle" x="732.365" y="-574.3" font-family="Times New Roman,serif" font-size="14.00">Экспилайн</text>
</g>
<!-- Экспилайн&#45;&gt;Мегафон -->
<g id="edge6" class="edge"><title>Экспилайн&#45;&gt;Мегафон</title>
<path fill="none" stroke="black" d="M788.76,-563.373C803.46,-558.643 819.087,-552.823 832.93,-546 861.215,-532.059 890.463,-511.412 911.453,-495.309"/>
<polygon fill="black" stroke="black" points="913.609,-498.066 919.353,-489.163 909.311,-492.541 913.609,-498.066"/>
</g>
<!-- Экспилайн&#45;&gt;Связьинформ -->
<g id="edge54" class="edge"><title>Экспилайн&#45;&gt;Связьинформ</title>
<path fill="none" stroke="black" stroke-dasharray="1,5" d="M785.132,-589.835C800.716,-593.984 817.714,-599.103 832.93,-605 918.177,-638.034 952.631,-633.005 1015.9,-699 1042.32,-726.561 1023.49,-751.491 1051.9,-777 1055.47,-780.205 1059.43,-783.031 1063.63,-785.524"/>
<ellipse fill="none" stroke="black" cx="781" cy="-588.761" rx="4.00001" ry="4.00001"/>
<ellipse fill="none" stroke="black" cx="1067.37" cy="-787.524" rx="4.00002" ry="4.00002"/>
</g>
<!-- ЭРОС -->
<g id="node29" class="node"><title>ЭРОС</title>
<polygon fill="none" stroke="black" points="595.985,-750.562 551.614,-763 507.242,-750.562 507.283,-730.438 595.944,-730.438 595.985,-750.562"/>
<text text-anchor="middle" x="551.614" y="-741.3" font-family="Times New Roman,serif" font-size="14.00">ЭРОС</text>
</g>
<!-- ЭРОС&#45;&gt;Волгатранстелеком -->
<g id="edge7" class="edge"><title>ЭРОС&#45;&gt;Волгатранстелеком</title>
<path fill="none" stroke="black" d="M595.884,-739.916C610.999,-738.141 628.537,-736.08 645.879,-734.043"/>
<polygon fill="black" stroke="black" points="646.525,-737.491 656.048,-732.848 645.708,-730.539 646.525,-737.491"/>
</g>
<!-- ЭРОС&#45;&gt;Мегафон -->
<g id="edge9" class="edge"><title>ЭРОС&#45;&gt;Мегафон</title>
<path fill="none" stroke="black" d="M556.652,-730.201C568.168,-689.084 602.244,-574.909 631.799,-551 702.401,-493.885 745.685,-540.202 832.93,-515 856.023,-508.329 880.933,-498.431 901.053,-489.711"/>
<polygon fill="black" stroke="black" points="902.482,-492.906 910.225,-485.674 899.662,-486.499 902.482,-492.906"/>
</g>
<!-- ЭРОС&#45;&gt;HE -->
<g id="edge8" class="edge"><title>ЭРОС&#45;&gt;HE</title>
<path fill="none" stroke="black" d="M574.404,-756.811C590.092,-765.047 611.91,-775.957 631.799,-784 654.16,-793.043 680.124,-801.318 699.931,-807.186"/>
<polygon fill="black" stroke="black" points="699.096,-810.589 709.676,-810.027 701.056,-803.868 699.096,-810.589"/>
</g>
<!-- ЭРОС&#45;&gt;Tele2 -->
<g id="edge34" class="edge"><title>ЭРОС&#45;&gt;Tele2</title>
<path fill="none" stroke="black" d="M603.536,-751.982C659.837,-759.936 753.134,-773.813 832.93,-789 914.797,-804.581 934.729,-811.122 1015.9,-830 1042.18,-836.111 1071.74,-843.241 1094.46,-848.777"/>
<ellipse fill="none" stroke="black" cx="599.465" cy="-751.409" rx="4.00001" ry="4.00001"/>
<polygon fill="black" stroke="black" points="1093.83,-852.228 1104.38,-851.199 1095.49,-845.427 1093.83,-852.228"/>
</g>
<!-- Comrise -->
<g id="node30" class="node"><title>Comrise</title>
<polygon fill="none" stroke="black" points="443.226,-859.562 391.894,-872 340.562,-859.562 340.61,-839.438 443.178,-839.438 443.226,-859.562"/>
<text text-anchor="middle" x="391.894" y="-850.3" font-family="Times New Roman,serif" font-size="14.00">Comrise</text>
</g>
<!-- Comrise&#45;&gt;Унико -->
<g id="edge55" class="edge"><title>Comrise&#45;&gt;Унико</title>
<path fill="none" stroke="black" stroke-dasharray="1,5" d="M445.249,-863.812C455.039,-867.75 464.391,-873.268 471.428,-881 517.283,-931.385 469.804,-973.204 507.428,-1030 510.544,-1034.7 514.598,-1038.97 518.972,-1042.75"/>
<ellipse fill="none" stroke="black" cx="441.471" cy="-862.452" rx="4.00001" ry="4.00001"/>
<ellipse fill="none" stroke="black" cx="522.396" cy="-1045.44" rx="4.00002" ry="4.00002"/>
</g>
<!-- Comrise&#45;&gt;Вымпелком -->
<g id="edge11" class="edge"><title>Comrise&#45;&gt;Вымпелком</title>
<path fill="none" stroke="black" d="M443.265,-845.77C453.977,-841.762 464.217,-835.816 471.428,-827 510.033,-779.806 492.609,-614.143 507.428,-555 545.624,-402.559 502.602,-313.472 631.799,-224 705.289,-173.107 746.534,-201.053 832.93,-224 861.182,-231.504 889.749,-248.286 910.472,-262.5"/>
<polygon fill="black" stroke="black" points="908.658,-265.503 918.849,-268.4 912.689,-259.78 908.658,-265.503"/>
</g>
<!-- Comrise&#45;&gt;Ростелеком -->
<g id="edge10" class="edge"><title>Comrise&#45;&gt;Ростелеком</title>
<path fill="none" stroke="black" d="M427.939,-863.35C441.903,-867.758 457.85,-873.676 471.428,-881 550.725,-923.772 548.716,-970.147 631.799,-1005 845.282,-1094.55 1125.1,-1103.42 1254.15,-1102.1"/>
<polygon fill="black" stroke="black" points="1254.35,-1105.6 1264.3,-1101.97 1254.26,-1098.6 1254.35,-1105.6"/>
</g>
<!-- Comrise&#45;&gt;Powernet -->
<g id="edge56" class="edge"><title>Comrise&#45;&gt;Powernet</title>
<path fill="none" stroke="black" stroke-dasharray="1,5" d="M451.796,-856.784C514.842,-859.765 614.101,-864.457 675.823,-867.374"/>
<ellipse fill="none" stroke="black" cx="447.562" cy="-856.584" rx="4" ry="4"/>
<ellipse fill="none" stroke="black" cx="679.907" cy="-867.567" rx="4" ry="4"/>
</g>
<!-- Евротелеком -->
<g id="node31" class="node"><title>Евротелеком</title>
<polygon fill="none" stroke="black" points="808.506,-123.562 732.365,-136 656.223,-123.562 656.294,-103.438 808.435,-103.438 808.506,-123.562"/>
<text text-anchor="middle" x="732.365" y="-114.3" font-family="Times New Roman,serif" font-size="14.00">Евротелеком</text>
</g>
<!-- Евротелеком&#45;&gt;Транстелеком -->
<g id="edge14" class="edge"><title>Евротелеком&#45;&gt;Транстелеком</title>
<path fill="none" stroke="black" d="M808.656,-110.182C868.909,-107.582 953.374,-112.447 1015.9,-150 1186.93,-252.721 1285.67,-490.762 1315.37,-572.139"/>
<polygon fill="black" stroke="black" points="1312.13,-573.468 1318.8,-581.697 1318.71,-571.103 1312.13,-573.468"/>
</g>
<!-- Евротелеком&#45;&gt;Вымпелком -->
<g id="edge15" class="edge"><title>Евротелеком&#45;&gt;Вымпелком</title>
<path fill="none" stroke="black" d="M755.281,-132.285C775.832,-145.94 807.169,-167.434 832.93,-188 862.256,-211.411 893.891,-240.467 915.388,-260.84"/>
<polygon fill="black" stroke="black" points="913.172,-263.562 922.827,-267.926 918,-258.494 913.172,-263.562"/>
</g>
<!-- Virgin -->
<g id="node32" class="node"><title>Virgin</title>
<polygon fill="none" stroke="black" points="591.952,-587.562 551.614,-600 511.276,-587.562 511.313,-567.438 591.914,-567.438 591.952,-587.562"/>
<text text-anchor="middle" x="551.614" y="-578.3" font-family="Times New Roman,serif" font-size="14.00">Virgin</text>
</g>
<!-- Virgin&#45;&gt;Волгатранстелеком -->
<g id="edge50" class="edge"><title>Virgin&#45;&gt;Волгатранстелеком</title>
<path fill="none" stroke="black" d="M563.417,-604.778C576.339,-629.666 600.241,-669.043 631.799,-692 640.144,-698.071 649.691,-703.023 659.496,-707.054"/>
<ellipse fill="black" stroke="black" cx="561.569" cy="-601.122" rx="4.00002" ry="4.00002"/>
<polygon fill="black" stroke="black" points="658.352,-710.364 668.944,-710.644 660.838,-703.82 658.352,-710.364"/>
</g>
<!-- Virgin&#45;&gt;Мегафон -->
<g id="edge17" class="edge"><title>Virgin&#45;&gt;Мегафон</title>
<path fill="none" stroke="black" d="M565.934,-567.399C580.541,-552.39 605.435,-529.622 631.799,-518 676.078,-498.481 808.479,-483.382 885.042,-475.994"/>
<polygon fill="black" stroke="black" points="885.381,-479.478 895.004,-475.046 884.718,-472.509 885.381,-479.478"/>
</g>
<!-- Virgin&#45;&gt;Вымпелком -->
<g id="edge16" class="edge"><title>Virgin&#45;&gt;Вымпелком</title>
<path fill="none" stroke="black" d="M553.87,-567.355C559.162,-509.526 581.715,-298.288 631.799,-259 711.752,-196.281 841.635,-240.456 904.712,-268.191"/>
<polygon fill="black" stroke="black" points="903.326,-271.406 913.882,-272.316 906.198,-265.022 903.326,-271.406"/>
</g>
<!-- Virgin&#45;&gt;Ростелеком -->
<g id="edge18" class="edge"><title>Virgin&#45;&gt;Ростелеком</title>
<path fill="none" stroke="black" d="M562.628,-596.784C575.98,-615.098 601.486,-645.525 631.799,-659 868.824,-764.36 1013.11,-533.13 1214.18,-697 1273.59,-745.418 1310.4,-988.329 1321.45,-1071.79"/>
<polygon fill="black" stroke="black" points="1318,-1072.35 1322.76,-1081.82 1324.94,-1071.45 1318,-1072.35"/>
</g>
<!-- Энфорта -->
<g id="node33" class="node"><title>Энфорта</title>
<polygon fill="none" stroke="black" points="1189.51,-563.562 1133.04,-576 1076.57,-563.562 1076.62,-543.438 1189.46,-543.438 1189.51,-563.562"/>
<text text-anchor="middle" x="1133.04" y="-554.3" font-family="Times New Roman,serif" font-size="14.00">Энфорта</text>
</g>
<!-- Энфорта&#45;&gt;Транстелеком -->
<g id="edge21" class="edge"><title>Энфорта&#45;&gt;Транстелеком</title>
<path fill="none" stroke="black" d="M1174.53,-566.907C1200.39,-572.594 1234.4,-580.075 1263.54,-586.485"/>
<polygon fill="black" stroke="black" points="1263.1,-589.973 1273.62,-588.703 1264.61,-583.137 1263.1,-589.973"/>
</g>
<!-- WMAX -->
<g id="node34" class="node"><title>WMAX</title>
<polygon fill="none" stroke="black" points="781.984,-69.5623 732.365,-82 682.746,-69.5623 682.792,-49.4377 781.937,-49.4377 781.984,-69.5623"/>
<text text-anchor="middle" x="732.365" y="-60.3" font-family="Times New Roman,serif" font-size="14.00">WMAX</text>
</g>
<!-- WMAX&#45;&gt;Релком -->
<g id="edge26" class="edge"><title>WMAX&#45;&gt;Релком</title>
<path fill="none" stroke="black" d="M782.143,-53.215C816.756,-45.5622 862.864,-35.3676 896.561,-27.9172"/>
<polygon fill="black" stroke="black" points="897.585,-31.2754 906.594,-25.699 896.074,-24.4404 897.585,-31.2754"/>
</g>
<!-- WMAX&#45;&gt;Мегафон -->
<g id="edge24" class="edge"><title>WMAX&#45;&gt;Мегафон</title>
<path fill="none" stroke="black" d="M781.995,-66.2764C800.422,-69.6446 820.042,-76.6964 832.93,-91 899.838,-165.259 839.827,-217.375 868.93,-313 883.503,-360.882 909.615,-413.035 926.199,-443.83"/>
<polygon fill="black" stroke="black" points="923.159,-445.566 931.017,-452.673 929.306,-442.217 923.159,-445.566"/>
</g>
<!-- WMAX&#45;&gt;WestCall -->
<g id="edge25" class="edge"><title>WMAX&#45;&gt;WestCall</title>
<path fill="none" stroke="black" d="M782.143,-65.8756C812.488,-67.0425 851.669,-68.5491 883.576,-69.776"/>
<polygon fill="black" stroke="black" points="883.532,-73.2768 893.659,-70.1637 883.801,-66.2819 883.532,-73.2768"/>
</g>
<!-- InstrNet -->
<g id="node35" class="node"><title>InstrNet</title>
<polygon fill="none" stroke="black" points="781.984,-637.562 732.365,-650 682.746,-637.562 682.792,-617.438 781.937,-617.438 781.984,-637.562"/>
<text text-anchor="middle" x="732.365" y="-628.3" font-family="Times New Roman,serif" font-size="14.00">InstrNet</text>
</g>
<!-- InstrNet&#45;&gt;ЭрТелеком -->
<g id="edge41" class="edge"><title>InstrNet&#45;&gt;ЭрТелеком</title>
<path fill="none" stroke="black" d="M764.714,-647.804C785.694,-659.434 813.006,-676.709 832.93,-697 835.654,-699.774 885.609,-780.018 916.769,-830.232"/>
<ellipse fill="none" stroke="black" cx="761.095" cy="-645.839" rx="4.00002" ry="4.00002"/>
<polygon fill="black" stroke="black" points="913.919,-832.276 922.165,-838.929 919.867,-828.586 913.919,-832.276"/>
</g>
<!-- InstrNet&#45;&gt;Мегафон -->
<g id="edge27" class="edge"><title>InstrNet&#45;&gt;Мегафон</title>
<path fill="none" stroke="black" d="M781.998,-625.153C799.08,-621.162 817.775,-614.876 832.93,-605 874.974,-577.602 908.478,-528.618 926.595,-498.072"/>
<polygon fill="black" stroke="black" points="929.733,-499.636 931.715,-489.228 923.675,-496.128 929.733,-499.636"/>
</g>
<!-- ТСвязь -->
<g id="node36" class="node"><title>ТСвязь</title>
<polygon fill="none" stroke="black" points="781.984,-399.562 732.365,-412 682.746,-399.562 682.792,-379.438 781.937,-379.438 781.984,-399.562"/>
<text text-anchor="middle" x="732.365" y="-390.3" font-family="Times New Roman,serif" font-size="14.00">ТСвязь</text>
</g>
<!-- ТСвязь&#45;&gt;Мегафон -->
<g id="edge28" class="edge"><title>ТСвязь&#45;&gt;Мегафон</title>
<path fill="none" stroke="black" d="M770.705,-402.553C789.589,-407.273 812.729,-413.664 832.93,-421 856.596,-429.594 882.214,-441.282 902.61,-451.197"/>
<polygon fill="black" stroke="black" points="901.069,-454.339 911.588,-455.61 904.157,-448.057 901.069,-454.339"/>
</g>
<!-- ТСвязь&#45;&gt;Вымпелком -->
<g id="edge29" class="edge"><title>ТСвязь&#45;&gt;Вымпелком</title>
<path fill="none" stroke="black" d="M782.042,-384.685C798.673,-380.499 817.069,-374.722 832.93,-367 863.154,-352.285 893.466,-328.732 914.335,-310.807"/>
<polygon fill="black" stroke="black" points="916.897,-313.217 922.124,-304.001 912.291,-307.946 916.897,-313.217"/>
</g>
<!-- Восток -->
<g id="node37" class="node"><title>Восток</title>
<polygon fill="none" stroke="black" points="780.77,-453.562 732.365,-466 683.959,-453.562 684.004,-433.438 780.725,-433.438 780.77,-453.562"/>
<text text-anchor="middle" x="732.365" y="-444.3" font-family="Times New Roman,serif" font-size="14.00">Восток</text>
</g>
<!-- Восток&#45;&gt;Мегафон -->
<g id="edge30" class="edge"><title>Восток&#45;&gt;Мегафон</title>
<path fill="none" stroke="black" d="M780.574,-453.219C811.947,-456.687 853.265,-461.255 886.168,-464.892"/>
<polygon fill="black" stroke="black" points="886.207,-468.418 896.531,-466.038 886.976,-461.46 886.207,-468.418"/>
</g>
<!-- Старнет -->
<g id="node38" class="node"><title>Старнет</title>
<polygon fill="none" stroke="black" points="190.62,-1121.56 138.18,-1134 85.7407,-1121.56 85.7897,-1101.44 190.571,-1101.44 190.62,-1121.56"/>
<text text-anchor="middle" x="138.18" y="-1112.3" font-family="Times New Roman,serif" font-size="14.00">Старнет</text>
</g>
<!-- Старнет&#45;&gt;Унико -->
<g id="edge32" class="edge"><title>Старнет&#45;&gt;Унико</title>
<path fill="none" stroke="black" d="M199.046,-1118.95C266.3,-1120.8 378.247,-1119.47 471.428,-1097 486.743,-1093.31 502.791,-1086.77 516.405,-1080.34"/>
<ellipse fill="none" stroke="black" cx="194.665" cy="-1118.81" rx="4" ry="4"/>
<polygon fill="black" stroke="black" points="517.956,-1083.48 525.402,-1075.94 514.881,-1077.19 517.956,-1083.48"/>
</g>
<!-- Старнет&#45;&gt;ЭрТелеком -->
<g id="edge33" class="edge"><title>Старнет&#45;&gt;ЭрТелеком</title>
<path fill="none" stroke="black" d="M198.646,-1118.53C224.095,-1121.85 253.214,-1128.79 276.36,-1143 298.485,-1156.58 289.022,-1177.63 312.36,-1189 399.422,-1231.42 735.285,-1245.04 832.93,-1173 916.582,-1111.29 935.944,-979.241 940.279,-911.685"/>
<ellipse fill="none" stroke="black" cx="194.497" cy="-1118.04" rx="4.00001" ry="4.00001"/>
<polygon fill="black" stroke="black" points="943.789,-911.597 940.853,-901.417 936.8,-911.206 943.789,-911.597"/>
</g>
<!-- Магистраль -->
<g id="node41" class="node"><title>Магистраль</title>
<polygon fill="none" stroke="black" points="462.788,-805.562 391.894,-818 321,-805.562 321.066,-785.438 462.722,-785.438 462.788,-805.562"/>
<text text-anchor="middle" x="391.894" y="-796.3" font-family="Times New Roman,serif" font-size="14.00">Магистраль</text>
</g>
<!-- Старнет&#45;&gt;Магистраль -->
<g id="edge53" class="edge"><title>Старнет&#45;&gt;Магистраль</title>
<path fill="none" stroke="black" stroke-dasharray="1,5" d="M146.492,-1093.64C165.226,-1039.78 220.075,-901.786 312.36,-827 319.711,-821.043 328.454,-816.366 337.392,-812.704"/>
<ellipse fill="none" stroke="black" cx="145.186" cy="-1097.46" rx="4.00001" ry="4.00001"/>
<ellipse fill="none" stroke="black" cx="341.178" cy="-811.274" rx="4.00001" ry="4.00001"/>
</g>
<!-- ВолгаЛинк -->
<g id="node39" class="node"><title>ВолгаЛинк</title>
<polygon fill="none" stroke="black" points="1199.9,-1205.56 1133.04,-1218 1066.18,-1205.56 1066.24,-1185.44 1199.84,-1185.44 1199.9,-1205.56"/>
<text text-anchor="middle" x="1133.04" y="-1196.3" font-family="Times New Roman,serif" font-size="14.00">ВолгаЛинк</text>
</g>
<!-- ВолгаЛинк&#45;&gt;Ростелеком -->
<g id="edge42" class="edge"><title>ВолгаЛинк&#45;&gt;Ростелеком</title>
<path fill="none" stroke="black" d="M1191.68,-1182.59C1199.37,-1179.69 1207.06,-1176.48 1214.18,-1173 1242.33,-1159.27 1271.83,-1139.54 1293.31,-1124.05"/>
<ellipse fill="black" stroke="black" cx="1187.76" cy="-1184.02" rx="4.00001" ry="4.00001"/>
<polygon fill="black" stroke="black" points="1295.4,-1126.85 1301.41,-1118.13 1291.27,-1121.2 1295.4,-1126.85"/>
</g>
<!-- ИнсаткомВ -->
<g id="node40" class="node"><title>ИнсаткомВ</title>
<polygon fill="none" stroke="black" points="1201.11,-1151.56 1133.04,-1164 1064.97,-1151.56 1065.03,-1131.44 1201.05,-1131.44 1201.11,-1151.56"/>
<text text-anchor="middle" x="1133.04" y="-1142.3" font-family="Times New Roman,serif" font-size="14.00">ИнсаткомВ</text>
</g>
<!-- ИнсаткомВ&#45;&gt;Ростелеком -->
<g id="edge43" class="edge"><title>ИнсаткомВ&#45;&gt;Ростелеком</title>
<path fill="none" stroke="black" d="M1202.63,-1129.48C1224.92,-1124.11 1249.33,-1118.22 1270.45,-1113.14"/>
<ellipse fill="black" stroke="black" cx="1198.61" cy="-1130.45" rx="4.00001" ry="4.00001"/>
<polygon fill="black" stroke="black" points="1271.31,-1116.53 1280.21,-1110.78 1269.67,-1109.72 1271.31,-1116.53"/>
</g>
<!-- Магистраль&#45;&gt;Унико -->
<g id="edge44" class="edge"><title>Магистраль&#45;&gt;Унико</title>
<path fill="none" stroke="black" d="M449.591,-812.367C457.654,-816.045 465.281,-820.815 471.428,-827 528.705,-884.629 544.567,-985.007 548.949,-1033.78"/>
<ellipse fill="black" stroke="black" cx="445.793" cy="-810.807" rx="4.00002" ry="4.00002"/>
<polygon fill="black" stroke="black" points="545.474,-1034.23 549.759,-1043.92 552.451,-1033.68 545.474,-1034.23"/>
</g>
<!-- Магистраль&#45;&gt;ЮТК -->
<g id="edge59" class="edge"><title>Магистраль&#45;&gt;ЮТК</title>
<path fill="none" stroke="black" stroke-dasharray="1,5" d="M394.957,-777.215C403.757,-684.394 440.783,-335.683 507.428,-251 545.265,-202.923 572.113,-205.439 631.799,-192 800.855,-153.934 908.986,-122.623 1015.9,-259 1060.87,-316.36 1030.53,-515.319 1051.9,-585 1064.53,-626.19 1088.42,-669.282 1106.84,-699.02"/>
<ellipse fill="none" stroke="black" cx="394.566" cy="-781.399" rx="4" ry="4"/>
<ellipse fill="none" stroke="black" cx="1109.03" cy="-702.517" rx="4.00002" ry="4.00002"/>
</g>
<!-- Магистраль&#45;&gt;Powernet -->
<g id="edge58" class="edge"><title>Магистраль&#45;&gt;Powernet</title>
<path fill="none" stroke="black" stroke-dasharray="1,5" d="M447.723,-811.339C513.342,-824.91 622.115,-847.406 684.158,-860.237"/>
<ellipse fill="none" stroke="black" cx="443.519" cy="-810.47" rx="4.00001" ry="4.00001"/>
<ellipse fill="none" stroke="black" cx="688.307" cy="-861.095" rx="4.00001" ry="4.00001"/>
</g>
<!-- Магистраль&#45;&gt;Евротелеком -->
<g id="edge60" class="edge"><title>Магистраль&#45;&gt;Евротелеком</title>
<path fill="none" stroke="black" stroke-dasharray="1,5" d="M393.464,-777.218C396.573,-672.604 414.938,-239.534 507.428,-150 543.972,-114.624 600.852,-106.851 648.141,-107.807"/>
<ellipse fill="none" stroke="black" cx="393.35" cy="-781.249" rx="4" ry="4"/>
<ellipse fill="none" stroke="black" cx="652.247" cy="-107.933" rx="4" ry="4"/>
</g>
<!-- ФорумNet -->
<g id="node42" class="node"><title>ФорумNet</title>
<polygon fill="none" stroke="black" points="453.614,-1021.56 391.894,-1034 330.174,-1021.56 330.232,-1001.44 453.556,-1001.44 453.614,-1021.56"/>
<text text-anchor="middle" x="391.894" y="-1012.3" font-family="Times New Roman,serif" font-size="14.00">ФорумNet</text>
</g>
<!-- ФорумNet&#45;&gt;Унико -->
<g id="edge46" class="edge"><title>ФорумNet&#45;&gt;Унико</title>
<path fill="none" stroke="black" d="M437.046,-1028.88C459.941,-1035.55 487.711,-1043.65 510.06,-1050.17"/>
<ellipse fill="black" stroke="black" cx="432.918" cy="-1027.67" rx="4.00001" ry="4.00001"/>
<polygon fill="black" stroke="black" points="509.33,-1053.61 519.91,-1053.05 511.29,-1046.89 509.33,-1053.61"/>
</g>
<!-- ByteS -->
<g id="node43" class="node"><title>ByteS</title>
<polygon fill="none" stroke="black" points="432.232,-967.562 391.894,-980 351.556,-967.562 351.594,-947.438 432.195,-947.438 432.232,-967.562"/>
<text text-anchor="middle" x="391.894" y="-958.3" font-family="Times New Roman,serif" font-size="14.00">ByteS</text>
</g>
<!-- ByteS&#45;&gt;Унико -->
<g id="edge47" class="edge"><title>ByteS&#45;&gt;Унико</title>
<path fill="none" stroke="black" d="M434.422,-971.85C446.954,-975.957 460.322,-981.552 471.428,-989 491.569,-1002.51 489.586,-1013.58 507.428,-1030 511.194,-1033.47 515.328,-1036.92 519.5,-1040.2"/>
<ellipse fill="black" stroke="black" cx="430.577" cy="-970.662" rx="4.00001" ry="4.00001"/>
<polygon fill="black" stroke="black" points="517.402,-1043 527.483,-1046.26 521.635,-1037.42 517.402,-1043"/>
</g>
<!-- АвантекПлюс -->
<g id="node44" class="node"><title>АвантекПлюс</title>
<polygon fill="none" stroke="black" points="471.462,-913.562 391.894,-926 312.326,-913.562 312.401,-893.438 471.388,-893.438 471.462,-913.562"/>
<text text-anchor="middle" x="391.894" y="-904.3" font-family="Times New Roman,serif" font-size="14.00">АвантекПлюс</text>
</g>
<!-- АвантекПлюс&#45;&gt;Унико -->
<g id="edge48" class="edge"><title>АвантекПлюс&#45;&gt;Унико</title>
<path fill="none" stroke="black" d="M451.084,-921.352C458.549,-924.888 465.605,-929.355 471.428,-935 503.848,-966.427 480.187,-993.991 507.428,-1030 510.437,-1033.98 514.071,-1037.69 517.938,-1041.07"/>
<ellipse fill="black" stroke="black" cx="447.191" cy="-919.69" rx="4.00002" ry="4.00002"/>
<polygon fill="black" stroke="black" points="516.071,-1044.06 526.079,-1047.53 520.423,-1038.57 516.071,-1044.06"/>
</g>
<!-- Robor -->
<g id="node45" class="node"><title>Robor</title>
<polygon fill="none" stroke="black" points="1175.7,-85.5623 1133.04,-98 1090.38,-85.5623 1090.42,-65.4377 1175.66,-65.4377 1175.7,-85.5623"/>
<text text-anchor="middle" x="1133.04" y="-76.3" font-family="Times New Roman,serif" font-size="14.00">Robor</text>
</g>
<!-- Robor&#45;&gt;Транстелеком -->
<g id="edge49" class="edge"><title>Robor&#45;&gt;Транстелеком</title>
<path fill="none" stroke="black" d="M1178.87,-89.42C1191.9,-94.1924 1205.07,-101.336 1214.18,-112 1274.85,-183 1311.76,-478.915 1322.03,-571.906"/>
<ellipse fill="black" stroke="black" cx="1175.03" cy="-88.1412" rx="4.00001" ry="4.00001"/>
<polygon fill="black" stroke="black" points="1318.57,-572.407 1323.13,-581.97 1325.52,-571.651 1318.57,-572.407"/>
</g>
<!-- ВистОнЛайн -->
<g id="node46" class="node"><title>ВистОнЛайн</title>
<polygon fill="none" stroke="black" points="468.035,-1167.56 391.894,-1180 315.753,-1167.56 315.824,-1147.44 467.964,-1147.44 468.035,-1167.56"/>
<text text-anchor="middle" x="391.894" y="-1158.3" font-family="Times New Roman,serif" font-size="14.00">ВистОнЛайн</text>
</g>
<!-- ВистОнЛайн&#45;&gt;Унико -->
<g id="edge51" class="edge"><title>ВистОнЛайн&#45;&gt;Унико</title>
<path fill="none" stroke="black" d="M443.655,-1144.13C453.156,-1140.01 462.802,-1135.27 471.428,-1130 491.182,-1117.94 510.938,-1100.98 525.775,-1087.02"/>
<ellipse fill="black" stroke="black" cx="439.779" cy="-1145.76" rx="4.00002" ry="4.00002"/>
<polygon fill="black" stroke="black" points="528.265,-1089.48 533.059,-1080.03 523.419,-1084.43 528.265,-1089.48"/>
</g>
</g>
</svg>
