<?xml version="1.0" encoding="UTF-8" standalone="no"?>
<!DOCTYPE svg PUBLIC "-//W3C//DTD SVG 1.1//EN"
 "http://www.w3.org/Graphics/SVG/1.1/DTD/svg11.dtd">
<!-- Generated by graphviz version 2.38.0 (20140413.2041)
 -->
<!-- Title: ispgraph Pages: 1 -->
<svg width="1454pt" height="1503pt"
 viewBox="0.00 0.00 1454.01 1503.42" xmlns="http://www.w3.org/2000/svg" xmlns:xlink="http://www.w3.org/1999/xlink">
<g id="graph0" class="graph" transform="scale(1 1) rotate(0) translate(4 1499.42)">
<title>ispgraph</title>
<polygon fill="white" stroke="none" points="-4,4 -4,-1499.42 1450.01,-1499.42 1450.01,4 -4,4"/>
<!-- Унико -->
<g id="node1" class="node"><title>Унико</title>
<polygon fill="none" stroke="black" points="600.899,-1250.26 579.871,-1268.26 537.817,-1268.26 516.789,-1250.26 537.817,-1232.26 579.871,-1232.26 600.899,-1250.26"/>
<text text-anchor="middle" x="558.844" y="-1246.56" font-family="Times New Roman,serif" font-size="14.00">Унико</text>
</g>
<!-- ЭрТелеком -->
<g id="node3" class="node"><title>ЭрТелеком</title>
<polygon fill="none" stroke="black" points="1057.28,-1006.26 1020.55,-1037.31 947.078,-1037.31 910.343,-1006.26 947.078,-975.204 1020.55,-975.204 1057.28,-1006.26"/>
<text text-anchor="middle" x="983.812" y="-1010.06" font-family="Times New Roman,serif" font-size="14.00">ЭР&#45;Телеком</text>
<text text-anchor="middle" x="983.812" y="-995.058" font-family="Times New Roman,serif" font-size="14.00">транзит</text>
</g>
<!-- Унико&#45;&gt;ЭрТелеком -->
<g id="edge75" class="edge"><title>Унико&#45;&gt;ЭрТелеком</title>
<path fill="none" stroke="black" stroke-dasharray="1,5" d="M572.773,-1224.84C590.329,-1193.09 624.815,-1139.63 670.361,-1112.26 748.336,-1065.4 786.929,-1107.8 871.492,-1074.26 889.141,-1067.26 891.341,-1061.24 907.492,-1051.26 915.692,-1046.19 924.44,-1040.88 932.965,-1035.75"/>
<ellipse fill="none" stroke="black" cx="570.784" cy="-1228.51" rx="4.00002" ry="4.00002"/>
<ellipse fill="none" stroke="black" cx="936.626" cy="-1033.56" rx="4.00002" ry="4.00002"/>
</g>
<!-- Ростелеком -->
<g id="node10" class="node"><title>Ростелеком</title>
<polygon fill="none" stroke="black" points="1435.3,-1174.26 1402.76,-1192.26 1337.67,-1192.26 1305.13,-1174.26 1337.67,-1156.26 1402.76,-1156.26 1435.3,-1174.26"/>
<text text-anchor="middle" x="1370.21" y="-1170.56" font-family="Times New Roman,serif" font-size="14.00">Ростелеком</text>
</g>
<!-- Унико&#45;&gt;Ростелеком -->
<g id="edge25" class="edge"><title>Унико&#45;&gt;Ростелеком</title>
<path fill="none" stroke="black" d="M566.756,-1268.33C580.577,-1301.54 615.125,-1371.46 670.361,-1399.26 903.814,-1516.76 1036.51,-1537.33 1258.41,-1399.26 1328.68,-1355.54 1355.68,-1252.72 1364.93,-1202.65"/>
<polygon fill="black" stroke="black" points="1368.43,-1202.98 1366.69,-1192.53 1361.53,-1201.78 1368.43,-1202.98"/>
</g>
<!-- КвантТелеком -->
<g id="node12" class="node"><title>КвантТелеком</title>
<polygon fill="none" stroke="black" points="849.028,-1285.26 809.977,-1303.26 731.876,-1303.26 692.825,-1285.26 731.876,-1267.26 809.977,-1267.26 849.028,-1285.26"/>
<text text-anchor="middle" x="770.927" y="-1281.56" font-family="Times New Roman,serif" font-size="14.00">КвантТелеком</text>
</g>
<!-- Унико&#45;&gt;КвантТелеком -->
<g id="edge27" class="edge"><title>Унико&#45;&gt;КвантТелеком</title>
<path fill="none" stroke="black" d="M594.535,-1256.04C623.936,-1260.94 666.946,-1268.1 703.016,-1274.11"/>
<polygon fill="black" stroke="black" points="702.549,-1277.58 712.989,-1275.77 703.7,-1270.68 702.549,-1277.58"/>
</g>
<!-- Powernet -->
<g id="node19" class="node"><title>Powernet</title>
<polygon fill="none" stroke="black" points="822.495,-441.258 796.711,-459.258 745.142,-459.258 719.358,-441.258 745.142,-423.258 796.711,-423.258 822.495,-441.258"/>
<text text-anchor="middle" x="770.927" y="-437.558" font-family="Times New Roman,serif" font-size="14.00">Powernet</text>
</g>
<!-- Унико&#45;&gt;Powernet -->
<g id="edge44" class="edge"><title>Унико&#45;&gt;Powernet</title>
<path fill="none" stroke="black" d="M566.511,-1224.48C581.289,-1172.63 616.875,-1052.98 634.361,-950.258 649.895,-859.002 631.983,-619.496 670.361,-535.258 683.893,-505.556 709.716,-479.238 731.673,-461.854"/>
<ellipse fill="none" stroke="black" cx="565.413" cy="-1228.36" rx="4.00001" ry="4.00001"/>
<polygon fill="black" stroke="black" points="734.013,-464.472 739.865,-455.64 729.782,-458.895 734.013,-464.472"/>
</g>
<!-- RETN -->
<g id="node20" class="node"><title>RETN</title>
<polygon fill="none" stroke="black" points="810.48,-1231.26 790.703,-1249.26 751.15,-1249.26 731.373,-1231.26 751.15,-1213.26 790.703,-1213.26 810.48,-1231.26"/>
<text text-anchor="middle" x="770.927" y="-1227.56" font-family="Times New Roman,serif" font-size="14.00">RETN</text>
</g>
<!-- Унико&#45;&gt;RETN -->
<g id="edge26" class="edge"><title>Унико&#45;&gt;RETN</title>
<path fill="none" stroke="black" d="M597.403,-1246.86C633.003,-1243.64 686.537,-1238.8 724.517,-1235.36"/>
<polygon fill="black" stroke="black" points="725.145,-1238.82 734.789,-1234.44 724.515,-1231.85 725.145,-1238.82"/>
</g>
<!-- ДомРу -->
<g id="node2" class="node"><title>ДомРу</title>
<polygon fill="none" stroke="black" points="824.997,-993.258 797.962,-1011.26 743.891,-1011.26 716.856,-993.258 743.891,-975.258 797.962,-975.258 824.997,-993.258"/>
<text text-anchor="middle" x="770.927" y="-989.558" font-family="Times New Roman,serif" font-size="14.00">ДОМ.RU</text>
</g>
<!-- ДомРу&#45;&gt;ЭрТелеком -->
<g id="edge48" class="edge"><title>ДомРу&#45;&gt;ЭрТелеком</title>
<path fill="none" stroke="black" d="M828.667,-996.755C852.105,-998.2 879.658,-999.899 904.936,-1001.46"/>
<ellipse fill="none" stroke="black" cx="824.565" cy="-996.503" rx="4" ry="4"/>
<polygon fill="black" stroke="black" points="905.042,-1004.97 915.239,-1002.09 905.473,-997.983 905.042,-1004.97"/>
</g>
<!-- ЮТК -->
<g id="node15" class="node"><title>ЮТК</title>
<polygon fill="none" stroke="black" points="1248.34,-1208.26 1212.81,-1239.31 1141.74,-1239.31 1106.2,-1208.26 1141.74,-1177.2 1212.81,-1177.2 1248.34,-1208.26"/>
<text text-anchor="middle" x="1177.27" y="-1212.06" font-family="Times New Roman,serif" font-size="14.00">Ростелеком</text>
<text text-anchor="middle" x="1177.27" y="-1197.06" font-family="Times New Roman,serif" font-size="14.00">Волгоград</text>
</g>
<!-- ЭрТелеком&#45;&gt;ЮТК -->
<g id="edge80" class="edge"><title>ЭрТелеком&#45;&gt;ЮТК</title>
<path fill="none" stroke="black" stroke-dasharray="1,5" d="M1003.97,-1044.85C1023.26,-1080.55 1055.87,-1133.24 1096.13,-1168.26 1103.54,-1174.7 1112.17,-1180.4 1120.96,-1185.32"/>
<ellipse fill="none" stroke="black" cx="1001.94" cy="-1041.04" rx="4.00002" ry="4.00002"/>
<ellipse fill="none" stroke="black" cx="1124.5" cy="-1187.22" rx="4.00002" ry="4.00002"/>
</g>
<!-- Связьинформ -->
<g id="node24" class="node"><title>Связьинформ</title>
<polygon fill="none" stroke="black" points="1258.56,-630.82 1177.27,-643.258 1095.99,-630.82 1096.07,-610.695 1258.48,-610.695 1258.56,-630.82"/>
<text text-anchor="middle" x="1177.27" y="-621.558" font-family="Times New Roman,serif" font-size="14.00">Связьинформ</text>
</g>
<!-- ЭрТелеком&#45;&gt;Связьинформ -->
<g id="edge81" class="edge"><title>ЭрТелеком&#45;&gt;Связьинформ</title>
<path fill="none" stroke="black" stroke-dasharray="1,5" d="M1038.86,-980.448C1046.75,-974.946 1054.2,-968.553 1060.13,-961.258 1138.61,-864.711 1165.51,-711.871 1173.4,-651.26"/>
<ellipse fill="none" stroke="black" cx="1035.5" cy="-982.662" rx="4.00002" ry="4.00002"/>
<ellipse fill="none" stroke="black" cx="1173.93" cy="-646.973" rx="4.00001" ry="4.00001"/>
</g>
<!-- Транстелеком -->
<g id="node4" class="node"><title>Транстелеком</title>
<polygon fill="none" stroke="black" points="1445.81,-472.258 1408.01,-490.258 1332.41,-490.258 1294.61,-472.258 1332.41,-454.258 1408.01,-454.258 1445.81,-472.258"/>
<text text-anchor="middle" x="1370.21" y="-468.558" font-family="Times New Roman,serif" font-size="14.00">Транстелеком</text>
</g>
<!-- Волгатранстелеком -->
<g id="node5" class="node"><title>Волгатранстелеком</title>
<polygon fill="none" stroke="black" points="871.558,-1139.26 821.242,-1157.26 720.611,-1157.26 670.295,-1139.26 720.611,-1121.26 821.242,-1121.26 871.558,-1139.26"/>
<text text-anchor="middle" x="770.927" y="-1135.56" font-family="Times New Roman,serif" font-size="14.00">Волгатранстелеком</text>
</g>
<!-- Волгатранстелеком&#45;&gt;ЭрТелеком -->
<g id="edge78" class="edge"><title>Волгатранстелеком&#45;&gt;ЭрТелеком</title>
<path fill="none" stroke="black" stroke-dasharray="1,5" d="M842.692,-1123.28C852.948,-1119.1 862.919,-1113.85 871.492,-1107.26 894.953,-1089.23 886.23,-1071.83 907.492,-1051.26 914.248,-1044.72 922.124,-1038.72 930.188,-1033.38"/>
<ellipse fill="none" stroke="black" cx="838.927" cy="-1124.72" rx="4.00001" ry="4.00001"/>
<ellipse fill="none" stroke="black" cx="933.612" cy="-1031.19" rx="4.00002" ry="4.00002"/>
</g>
<!-- Волгатранстелеком&#45;&gt;Транстелеком -->
<g id="edge46" class="edge"><title>Волгатранстелеком&#45;&gt;Транстелеком</title>
<path fill="none" stroke="black" d="M856.023,-1129.22C918.294,-1118.03 1002.06,-1094.66 1060.13,-1046.26 1246.82,-890.663 1337.78,-592.257 1362.26,-500.076"/>
<ellipse fill="none" stroke="black" cx="851.71" cy="-1129.97" rx="4.00001" ry="4.00001"/>
<polygon fill="black" stroke="black" points="1365.66,-500.917 1364.8,-490.357 1358.88,-499.15 1365.66,-500.917"/>
</g>
<!-- Волгатранстелеком&#45;&gt;ЮТК -->
<g id="edge77" class="edge"><title>Волгатранстелеком&#45;&gt;ЮТК</title>
<path fill="none" stroke="black" stroke-dasharray="1,5" d="M813.782,-1161.41C832.716,-1172.67 854.585,-1187.51 871.492,-1204.26 891.986,-1224.56 882.061,-1244.65 907.492,-1258.26 977.178,-1295.55 1069.93,-1263.17 1126.26,-1235.98"/>
<ellipse fill="none" stroke="black" cx="810.141" cy="-1159.29" rx="4.00002" ry="4.00002"/>
<ellipse fill="none" stroke="black" cx="1130.03" cy="-1234.12" rx="4.00002" ry="4.00002"/>
</g>
<!-- Orange -->
<g id="node16" class="node"><title>Orange</title>
<polygon fill="none" stroke="black" points="1026.37,-1331.26 1005.09,-1349.26 962.534,-1349.26 941.256,-1331.26 962.534,-1313.26 1005.09,-1313.26 1026.37,-1331.26"/>
<text text-anchor="middle" x="983.812" y="-1327.56" font-family="Times New Roman,serif" font-size="14.00">Orange</text>
</g>
<!-- Волгатранстелеком&#45;&gt;Orange -->
<g id="edge79" class="edge"><title>Волгатранстелеком&#45;&gt;Orange</title>
<path fill="none" stroke="black" stroke-dasharray="1,5" d="M817.818,-1161.41C836.444,-1172.23 856.95,-1186.72 871.492,-1204.26 898.206,-1236.47 879.354,-1260.28 907.492,-1291.26 917.824,-1302.63 932.158,-1311.36 945.55,-1317.71"/>
<ellipse fill="none" stroke="black" cx="814.004" cy="-1159.26" rx="4.00002" ry="4.00002"/>
<ellipse fill="none" stroke="black" cx="949.215" cy="-1319.36" rx="4.00002" ry="4.00002"/>
</g>
<!-- Релком -->
<g id="node6" class="node"><title>Релком</title>
<polygon fill="none" stroke="black" points="1029.37,-241.258 1006.59,-259.258 961.032,-259.258 938.252,-241.258 961.032,-223.258 1006.59,-223.258 1029.37,-241.258"/>
<text text-anchor="middle" x="983.812" y="-237.558" font-family="Times New Roman,serif" font-size="14.00">Релком</text>
</g>
<!-- Мегафон -->
<g id="node7" class="node"><title>Мегафон</title>
<polygon fill="none" stroke="black" points="1036.88,-487.258 1010.35,-505.258 957.277,-505.258 930.742,-487.258 957.277,-469.258 1010.35,-469.258 1036.88,-487.258"/>
<text text-anchor="middle" x="983.812" y="-483.558" font-family="Times New Roman,serif" font-size="14.00">Мегафон</text>
</g>
<!-- Вымпелком -->
<g id="node8" class="node"><title>Вымпелком</title>
<polygon fill="none" stroke="black" points="1222.33,-359.258 1199.8,-377.258 1154.74,-377.258 1132.21,-359.258 1154.74,-341.258 1199.8,-341.258 1222.33,-359.258"/>
<text text-anchor="middle" x="1177.27" y="-355.558" font-family="Times New Roman,serif" font-size="14.00">Билайн</text>
</g>
<!-- КоламбияТелеком -->
<g id="node9" class="node"><title>КоламбияТелеком</title>
<polygon fill="none" stroke="black" points="867.052,-133.258 818.989,-151.258 722.864,-151.258 674.801,-133.258 722.864,-115.258 818.989,-115.258 867.052,-133.258"/>
<text text-anchor="middle" x="770.927" y="-129.558" font-family="Times New Roman,serif" font-size="14.00">КоламбияТелеком</text>
</g>
<!-- КоламбияТелеком&#45;&gt;Транстелеком -->
<g id="edge19" class="edge"><title>КоламбияТелеком&#45;&gt;Транстелеком</title>
<path fill="none" stroke="black" d="M799.903,-115.23C826.399,-99.3047 867.915,-77.2554 907.492,-68.2576 1064.39,-32.5872 1149.5,-38.8227 1258.41,-157.258 1335.99,-241.616 1359.83,-383.539 1366.66,-443.809"/>
<polygon fill="black" stroke="black" points="1363.22,-444.505 1367.75,-454.081 1370.18,-443.768 1363.22,-444.505"/>
</g>
<!-- КоламбияТелеком&#45;&gt;Мегафон -->
<g id="edge21" class="edge"><title>КоламбияТелеком&#45;&gt;Мегафон</title>
<path fill="none" stroke="black" d="M841.874,-142.756C852.77,-146.763 863.159,-152.386 871.492,-160.258 908.273,-195.002 891.264,-220.334 907.492,-268.258 930.793,-337.068 958.724,-417.843 973.141,-459.414"/>
<polygon fill="black" stroke="black" points="969.92,-460.807 976.505,-469.107 976.533,-458.512 969.92,-460.807"/>
</g>
<!-- КоламбияТелеком&#45;&gt;Вымпелком -->
<g id="edge20" class="edge"><title>КоламбияТелеком&#45;&gt;Вымпелком</title>
<path fill="none" stroke="black" d="M865.323,-132.533C937.143,-133.694 1029.16,-139.446 1060.13,-160.258 1088.84,-179.55 1079.05,-199.183 1096.13,-229.258 1116.75,-265.551 1142.32,-306.372 1158.95,-332.425"/>
<polygon fill="black" stroke="black" points="1156.1,-334.459 1164.44,-340.993 1161.99,-330.684 1156.1,-334.459"/>
</g>
<!-- WestCall -->
<g id="node18" class="node"><title>WestCall</title>
<polygon fill="none" stroke="black" points="1034.88,-187.258 1009.35,-205.258 958.279,-205.258 932.746,-187.258 958.279,-169.258 1009.35,-169.258 1034.88,-187.258"/>
<text text-anchor="middle" x="983.812" y="-183.558" font-family="Times New Roman,serif" font-size="14.00">WestCall</text>
</g>
<!-- КоламбияТелеком&#45;&gt;WestCall -->
<g id="edge50" class="edge"><title>КоламбияТелеком&#45;&gt;WestCall</title>
<path fill="none" stroke="black" d="M836.462,-149.783C868.633,-158.021 906.817,-167.798 936.115,-175.3"/>
<ellipse fill="none" stroke="black" cx="832.315" cy="-148.721" rx="4.00001" ry="4.00001"/>
<polygon fill="black" stroke="black" points="935.527,-178.762 946.083,-177.852 937.263,-171.981 935.527,-178.762"/>
</g>
<!-- Евротелеком -->
<g id="node31" class="node"><title>Евротелеком</title>
<polygon fill="none" stroke="black" points="1059.95,-100.82 983.812,-113.258 907.671,-100.82 907.742,-80.6953 1059.88,-80.6953 1059.95,-100.82"/>
<text text-anchor="middle" x="983.812" y="-91.5576" font-family="Times New Roman,serif" font-size="14.00">Евротелеком</text>
</g>
<!-- КоламбияТелеком&#45;&gt;Евротелеком -->
<g id="edge71" class="edge"><title>КоламбияТелеком&#45;&gt;Евротелеком</title>
<path fill="none" stroke="black" stroke-dasharray="1,5" d="M844.263,-120.223C869.811,-115.62 898.244,-110.496 922.672,-106.094"/>
<ellipse fill="none" stroke="black" cx="840.282" cy="-120.94" rx="4.00001" ry="4.00001"/>
<ellipse fill="none" stroke="black" cx="926.857" cy="-105.34" rx="4.00001" ry="4.00001"/>
</g>
<!-- HE -->
<g id="node11" class="node"><title>HE</title>
<polygon fill="none" stroke="black" points="797.927,-1047.26 784.427,-1065.26 757.427,-1065.26 743.927,-1047.26 757.427,-1029.26 784.427,-1029.26 797.927,-1047.26"/>
<text text-anchor="middle" x="770.927" y="-1043.56" font-family="Times New Roman,serif" font-size="14.00">HE</text>
</g>
<!-- Tele2 -->
<g id="node13" class="node"><title>Tele2</title>
<polygon fill="none" stroke="black" points="1018.86,-771.258 1001.34,-789.258 966.289,-789.258 948.765,-771.258 966.289,-753.258 1001.34,-753.258 1018.86,-771.258"/>
<text text-anchor="middle" x="983.812" y="-767.558" font-family="Times New Roman,serif" font-size="14.00">Tele2</text>
</g>
<!-- Tele2&#45;&gt;Транстелеком -->
<g id="edge3" class="edge"><title>Tele2&#45;&gt;Транстелеком</title>
<path fill="none" stroke="black" d="M1003.58,-755.56C1021.18,-739.72 1046.72,-713.605 1060.13,-685.258 1101.94,-596.884 1021.56,-531.477 1096.13,-468.258 1157.46,-416.268 1257.35,-434.903 1317.81,-453.415"/>
<polygon fill="black" stroke="black" points="1316.94,-456.811 1327.53,-456.494 1319.05,-450.137 1316.94,-456.811"/>
</g>
<!-- Tele2&#45;&gt;Ростелеком -->
<g id="edge2" class="edge"><title>Tele2&#45;&gt;Ростелеком</title>
<path fill="none" stroke="black" d="M1006.16,-784.302C1055.27,-815.075 1178.18,-896.543 1258.41,-988.258 1302.38,-1038.51 1338.67,-1108.57 1356.78,-1146.76"/>
<polygon fill="black" stroke="black" points="1353.78,-1148.62 1361.19,-1156.2 1360.13,-1145.66 1353.78,-1148.62"/>
</g>
<!-- МТС -->
<g id="node14" class="node"><title>МТС</title>
<polygon fill="none" stroke="black" points="805.974,-333.258 788.45,-351.258 753.403,-351.258 735.879,-333.258 753.403,-315.258 788.45,-315.258 805.974,-333.258"/>
<text text-anchor="middle" x="770.927" y="-329.558" font-family="Times New Roman,serif" font-size="14.00">МТС</text>
</g>
<!-- ЮТК&#45;&gt;Ростелеком -->
<g id="edge45" class="edge"><title>ЮТК&#45;&gt;Ростелеком</title>
<path fill="none" stroke="black" d="M1244.59,-1196.45C1266.06,-1192.63 1289.69,-1188.42 1310.56,-1184.7"/>
<ellipse fill="none" stroke="black" cx="1240.54" cy="-1197.17" rx="4.00001" ry="4.00001"/>
<polygon fill="black" stroke="black" points="1311.33,-1188.12 1320.56,-1182.92 1310.1,-1181.23 1311.33,-1188.12"/>
</g>
<!-- ПросторТелеком -->
<g id="node17" class="node"><title>ПросторТелеком</title>
<polygon fill="none" stroke="black" points="861.044,-279.258 815.985,-297.258 725.868,-297.258 680.809,-279.258 725.868,-261.258 815.985,-261.258 861.044,-279.258"/>
<text text-anchor="middle" x="770.927" y="-275.558" font-family="Times New Roman,serif" font-size="14.00">ПросторТелеком</text>
</g>
<!-- ПросторТелеком&#45;&gt;Мегафон -->
<g id="edge30" class="edge"><title>ПросторТелеком&#45;&gt;Мегафон</title>
<path fill="none" stroke="black" d="M836.55,-289.165C848.943,-293.097 861.237,-298.589 871.492,-306.258 885.583,-316.795 940.497,-412.151 967.562,-460.053"/>
<polygon fill="black" stroke="black" points="964.624,-461.968 972.584,-468.961 970.722,-458.531 964.624,-461.968"/>
</g>
<!-- ПросторТелеком&#45;&gt;Вымпелком -->
<g id="edge29" class="edge"><title>ПросторТелеком&#45;&gt;Вымпелком</title>
<path fill="none" stroke="black" d="M831.589,-291.062C913.206,-307.21 1057.87,-335.831 1131.1,-350.321"/>
<polygon fill="black" stroke="black" points="1130.46,-353.761 1140.95,-352.269 1131.82,-346.894 1130.46,-353.761"/>
</g>
<!-- Powernet&#45;&gt;Унико -->
<g id="edge43" class="edge"><title>Powernet&#45;&gt;Унико</title>
<path fill="none" stroke="black" d="M746.076,-464.776C722.308,-485.255 687.02,-516.692 670.361,-553.258 631.983,-637.496 649.895,-877.002 634.361,-968.258 618.232,-1063.01 586.704,-1172.16 570.309,-1222.51"/>
<ellipse fill="none" stroke="black" cx="749.118" cy="-462.16" rx="4.00002" ry="4.00002"/>
<polygon fill="black" stroke="black" points="566.97,-1221.46 567.146,-1232.05 573.615,-1223.66 566.97,-1221.46"/>
</g>
<!-- Powernet&#45;&gt;ЭрТелеком -->
<g id="edge69" class="edge"><title>Powernet&#45;&gt;ЭрТелеком</title>
<path fill="none" stroke="black" stroke-dasharray="1,5" d="M803.193,-464.51C826.055,-483.346 855.719,-511.987 871.492,-544.258 921.559,-646.694 879.935,-687.621 907.492,-798.258 922.578,-858.826 948.867,-926.324 966.054,-967.541"/>
<ellipse fill="none" stroke="black" cx="800.054" cy="-461.976" rx="4.00002" ry="4.00002"/>
<ellipse fill="none" stroke="black" cx="967.71" cy="-971.485" rx="4.00001" ry="4.00001"/>
</g>
<!-- Powernet&#45;&gt;Мегафон -->
<g id="edge14" class="edge"><title>Powernet&#45;&gt;Мегафон</title>
<path fill="none" stroke="black" d="M810.606,-449.695C845.061,-457.21 895.672,-468.25 933.117,-476.418"/>
<polygon fill="black" stroke="black" points="932.789,-479.928 943.305,-478.64 934.281,-473.089 932.789,-479.928"/>
</g>
<!-- Powernet&#45;&gt;Вымпелком -->
<g id="edge15" class="edge"><title>Powernet&#45;&gt;Вымпелком</title>
<path fill="none" stroke="black" d="M812.628,-434.311C868.566,-424.608 972.274,-406.066 1060.13,-387.258 1084.29,-382.085 1111.12,-375.663 1132.9,-370.275"/>
<polygon fill="black" stroke="black" points="1133.98,-373.613 1142.83,-367.801 1132.28,-366.82 1133.98,-373.613"/>
</g>
<!-- Powernet&#45;&gt;Евротелеком -->
<g id="edge70" class="edge"><title>Powernet&#45;&gt;Евротелеком</title>
<path fill="none" stroke="black" stroke-dasharray="1,5" d="M827.861,-437.626C844.078,-433.82 860.387,-426.833 871.492,-414.258 946.963,-328.794 852.849,-260.328 907.492,-160.258 917.85,-141.289 936.076,-125.335 952.005,-113.98"/>
<ellipse fill="none" stroke="black" cx="823.849" cy="-438.446" rx="4.00001" ry="4.00001"/>
<ellipse fill="none" stroke="black" cx="955.366" cy="-111.667" rx="4.00002" ry="4.00002"/>
</g>
<!-- МКС -->
<g id="node21" class="node"><title>МКС</title>
<polygon fill="none" stroke="black" points="628.689,-474.587 558.844,-497.685 488.999,-474.587 489.064,-437.214 628.624,-437.214 628.689,-474.587"/>
<text text-anchor="middle" x="558.844" y="-468.058" font-family="Times New Roman,serif" font-size="14.00">МТС</text>
<text text-anchor="middle" x="558.844" y="-453.058" font-family="Times New Roman,serif" font-size="14.00">Волгоград</text>
</g>
<!-- МКС&#45;&gt;МТС -->
<g id="edge13" class="edge"><title>МКС&#45;&gt;МТС</title>
<path fill="none" stroke="black" d="M582.033,-436.854C602.574,-413.238 635.179,-379.933 670.361,-360.258 688.646,-350.032 711.01,-343.513 729.906,-339.45"/>
<polygon fill="black" stroke="black" points="730.595,-342.881 739.715,-337.489 729.223,-336.017 730.595,-342.881"/>
</g>
<!-- СпринтСеть -->
<g id="node25" class="node"><title>СпринтСеть</title>
<polygon fill="none" stroke="black" points="844.141,-576.82 770.927,-589.258 697.713,-576.82 697.781,-556.695 844.072,-556.695 844.141,-576.82"/>
<text text-anchor="middle" x="770.927" y="-567.558" font-family="Times New Roman,serif" font-size="14.00">СпринтСеть</text>
</g>
<!-- МКС&#45;&gt;СпринтСеть -->
<g id="edge64" class="edge"><title>МКС&#45;&gt;СпринтСеть</title>
<path fill="none" stroke="black" stroke-dasharray="1,5" d="M606.574,-488.058C644.998,-507.628 698.659,-534.959 733.837,-552.877"/>
<ellipse fill="none" stroke="black" cx="602.923" cy="-486.199" rx="4.00002" ry="4.00002"/>
<ellipse fill="none" stroke="black" cx="737.487" cy="-554.735" rx="4.00002" ry="4.00002"/>
</g>
<!-- ГородокТочкаРу -->
<g id="node22" class="node"><title>ГородокТочкаРу</title>
<polygon fill="none" stroke="black" points="380.041,-1278.82 309.147,-1291.26 238.253,-1278.82 238.319,-1258.7 379.975,-1258.7 380.041,-1278.82"/>
<text text-anchor="middle" x="309.147" y="-1269.56" font-family="Times New Roman,serif" font-size="14.00">Городок.Ру</text>
</g>
<!-- ГородокТочкаРу&#45;&gt;Унико -->
<g id="edge56" class="edge"><title>ГородокТочкаРу&#45;&gt;Унико</title>
<path fill="none" stroke="black" d="M388.274,-1266C428.324,-1262.28 475.794,-1257.88 510.308,-1254.67"/>
<ellipse fill="black" stroke="black" cx="384.117" cy="-1266.39" rx="4" ry="4"/>
<polygon fill="black" stroke="black" points="510.947,-1258.13 520.581,-1253.72 510.3,-1251.16 510.947,-1258.13"/>
</g>
<!-- STARLINE -->
<g id="node23" class="node"><title>STARLINE</title>
<polygon fill="none" stroke="black" points="134.95,-200.82 67.4833,-213.258 0.0166721,-200.82 0.0796443,-180.695 134.887,-180.695 134.95,-200.82"/>
<text text-anchor="middle" x="67.4833" y="-191.558" font-family="Times New Roman,serif" font-size="14.00">STARLINE</text>
</g>
<!-- Связьинформ&#45;&gt;Унико -->
<g id="edge39" class="edge"><title>Связьинформ&#45;&gt;Унико</title>
<path fill="none" stroke="black" d="M1165.23,-649.395C1147.55,-685.777 1109.79,-754.998 1060.13,-798.258 989.8,-859.531 957.133,-853.288 871.492,-890.258 783.757,-928.131 738.264,-899.019 670.361,-966.258 596.899,-1039 571.194,-1166.16 563.141,-1222.28"/>
<ellipse fill="none" stroke="black" cx="1166.97" cy="-645.76" rx="4.00002" ry="4.00002"/>
<polygon fill="black" stroke="black" points="559.67,-1221.84 561.796,-1232.22 566.606,-1222.78 559.67,-1221.84"/>
</g>
<!-- Связьинформ&#45;&gt;Транстелеком -->
<g id="edge1" class="edge"><title>Связьинформ&#45;&gt;Транстелеком</title>
<path fill="none" stroke="black" d="M1205.15,-610.672C1221.15,-601.544 1241.55,-589.109 1258.41,-576.258 1290.32,-551.937 1323.42,-519.813 1345.03,-497.738"/>
<polygon fill="black" stroke="black" points="1347.72,-499.99 1352.18,-490.378 1342.7,-495.114 1347.72,-499.99"/>
</g>
<!-- СпринтСеть&#45;&gt;Мегафон -->
<g id="edge5" class="edge"><title>СпринтСеть&#45;&gt;Мегафон</title>
<path fill="none" stroke="black" d="M821.483,-556.684C837.585,-551.59 855.436,-545.559 871.492,-539.258 878.749,-536.41 914.015,-519.859 942.937,-506.183"/>
<polygon fill="black" stroke="black" points="944.519,-509.307 952.061,-501.865 941.524,-502.98 944.519,-509.307"/>
</g>
<!-- СпринтСеть&#45;&gt;Вымпелком -->
<g id="edge4" class="edge"><title>СпринтСеть&#45;&gt;Вымпелком</title>
<path fill="none" stroke="black" d="M844.315,-574.517C907.64,-573.611 998.828,-562.75 1060.13,-514.258 1090.39,-490.32 1073.72,-466.667 1096.13,-435.258 1110.11,-415.673 1129.63,-397.03 1145.91,-383.11"/>
<polygon fill="black" stroke="black" points="1148.18,-385.774 1153.61,-376.672 1143.69,-380.406 1148.18,-385.774"/>
</g>
<!-- СпринтСеть&#45;&gt;Связьинформ -->
<g id="edge63" class="edge"><title>СпринтСеть&#45;&gt;Связьинформ</title>
<path fill="none" stroke="black" stroke-dasharray="1,5" d="M838.691,-580.174C906.74,-589.262 1012.67,-603.409 1087.7,-613.429"/>
<ellipse fill="none" stroke="black" cx="834.687" cy="-579.639" rx="4.00001" ry="4.00001"/>
<ellipse fill="none" stroke="black" cx="1091.81" cy="-613.977" rx="4.00001" ry="4.00001"/>
</g>
<!-- Старнет -->
<g id="node26" class="node"><title>Старнет</title>
<polygon fill="none" stroke="black" points="119.923,-146.82 67.4833,-159.258 15.0439,-146.82 15.0929,-126.695 119.874,-126.695 119.923,-146.82"/>
<text text-anchor="middle" x="67.4833" y="-137.558" font-family="Times New Roman,serif" font-size="14.00">Старнет</text>
</g>
<!-- Старнет&#45;&gt;Унико -->
<g id="edge41" class="edge"><title>Старнет&#45;&gt;Унико</title>
<path fill="none" stroke="black" d="M116.457,-152.791C123.71,-156.573 130.311,-161.594 134.967,-168.258 201.187,-263.041 92.2683,-1123.55 170.967,-1208.26 193.534,-1232.55 408.974,-1244.28 508.224,-1248.43"/>
<ellipse fill="none" stroke="black" cx="112.674" cy="-151.066" rx="4.00002" ry="4.00002"/>
<polygon fill="black" stroke="black" points="508.176,-1251.93 518.311,-1248.85 508.462,-1244.94 508.176,-1251.93"/>
</g>
<!-- Старнет&#45;&gt;Транстелеком -->
<g id="edge6" class="edge"><title>Старнет&#45;&gt;Транстелеком</title>
<path fill="none" stroke="black" d="M98.4077,-126.648C118.549,-117.257 145.906,-105.344 170.967,-97.2576 338.598,-43.1653 381.701,-11.2576 557.844,-11.2576 557.844,-11.2576 557.844,-11.2576 984.812,-11.2576 1107.64,-11.2576 1166.71,31.4534 1258.41,-50.2576 1318.34,-103.655 1354.98,-357.868 1365.82,-443.799"/>
<polygon fill="black" stroke="black" points="1362.37,-444.379 1367.07,-453.873 1369.31,-443.518 1362.37,-444.379"/>
</g>
<!-- Старнет&#45;&gt;КоламбияТелеком -->
<g id="edge40" class="edge"><title>Старнет&#45;&gt;КоламбияТелеком</title>
<path fill="none" stroke="black" d="M128.218,-131.295C231.554,-115.46 450.292,-88.1058 634.361,-106.258 656.627,-108.453 680.656,-112.631 702.211,-117.056"/>
<ellipse fill="none" stroke="black" cx="124.032" cy="-131.943" rx="4.00001" ry="4.00001"/>
<polygon fill="black" stroke="black" points="701.742,-120.534 712.248,-119.17 703.184,-113.684 701.742,-120.534"/>
</g>
<!-- Магистраль -->
<g id="node43" class="node"><title>Магистраль</title>
<polygon fill="none" stroke="black" points="380.041,-238.82 309.147,-251.258 238.253,-238.82 238.319,-218.695 379.975,-218.695 380.041,-238.82"/>
<text text-anchor="middle" x="309.147" y="-229.558" font-family="Times New Roman,serif" font-size="14.00">Магистраль</text>
</g>
<!-- Старнет&#45;&gt;Магистраль -->
<g id="edge65" class="edge"><title>Старнет&#45;&gt;Магистраль</title>
<path fill="none" stroke="black" stroke-dasharray="1,5" d="M105.088,-155.309C147.272,-171.502 216.643,-198.132 262.363,-215.682"/>
<ellipse fill="none" stroke="black" cx="101.127" cy="-153.788" rx="4.00001" ry="4.00001"/>
<ellipse fill="none" stroke="black" cx="266.316" cy="-217.2" rx="4.00001" ry="4.00001"/>
</g>
<!-- Экспилайн -->
<g id="node27" class="node"><title>Экспилайн</title>
<polygon fill="none" stroke="black" points="837.787,-630.82 770.927,-643.258 704.066,-630.82 704.129,-610.695 837.725,-610.695 837.787,-630.82"/>
<text text-anchor="middle" x="770.927" y="-621.558" font-family="Times New Roman,serif" font-size="14.00">Экспилайн</text>
</g>
<!-- Экспилайн&#45;&gt;Мегафон -->
<g id="edge7" class="edge"><title>Экспилайн&#45;&gt;Мегафон</title>
<path fill="none" stroke="black" d="M837.617,-612.662C849.335,-608.978 861.105,-604.266 871.492,-598.258 909.062,-576.527 942.911,-538.963 963.165,-513.62"/>
<polygon fill="black" stroke="black" points="966.087,-515.566 969.499,-505.535 960.577,-511.249 966.087,-515.566"/>
</g>
<!-- Экспилайн&#45;&gt;Связьинформ -->
<g id="edge66" class="edge"><title>Экспилайн&#45;&gt;Связьинформ</title>
<path fill="none" stroke="black" stroke-dasharray="1,5" d="M845.806,-625.258C913.912,-625.258 1015.11,-625.258 1087.57,-625.258"/>
<ellipse fill="none" stroke="black" cx="841.792" cy="-625.258" rx="4" ry="4"/>
<ellipse fill="none" stroke="black" cx="1091.81" cy="-625.258" rx="4" ry="4"/>
</g>
<!-- ЭРОС -->
<g id="node28" class="node"><title>ЭРОС</title>
<polygon fill="none" stroke="black" points="603.216,-937.82 558.844,-950.258 514.472,-937.82 514.514,-917.695 603.174,-917.695 603.216,-937.82"/>
<text text-anchor="middle" x="558.844" y="-928.558" font-family="Times New Roman,serif" font-size="14.00">ЭРОС</text>
</g>
<!-- ЭРОС&#45;&gt;Волгатранстелеком -->
<g id="edge8" class="edge"><title>ЭРОС&#45;&gt;Волгатранстелеком</title>
<path fill="none" stroke="black" d="M569.385,-947.691C586.964,-975.314 626.686,-1034.06 670.361,-1074.26 687.462,-1089.99 708.777,-1104.46 727.292,-1115.73"/>
<polygon fill="black" stroke="black" points="725.745,-1118.88 736.126,-1121 729.33,-1112.87 725.745,-1118.88"/>
</g>
<!-- ЭРОС&#45;&gt;Мегафон -->
<g id="edge10" class="edge"><title>ЭРОС&#45;&gt;Мегафон</title>
<path fill="none" stroke="black" d="M570.801,-917.433C587.481,-894.049 618.928,-846.584 634.361,-801.258 652.949,-746.667 630.064,-585.511 670.361,-544.258 702.011,-511.857 826.992,-519.7 871.492,-511.258 892.003,-507.367 914.533,-502.602 933.926,-498.347"/>
<polygon fill="black" stroke="black" points="934.746,-501.75 943.755,-496.175 933.235,-494.915 934.746,-501.75"/>
</g>
<!-- ЭРОС&#45;&gt;HE -->
<g id="edge9" class="edge"><title>ЭРОС&#45;&gt;HE</title>
<path fill="none" stroke="black" d="M573.523,-946.296C593.195,-965.697 631.411,-1000.54 670.361,-1020.26 691.18,-1030.8 716.597,-1037.6 736.54,-1041.74"/>
<polygon fill="black" stroke="black" points="735.931,-1045.19 746.416,-1043.67 737.272,-1038.32 735.931,-1045.19"/>
</g>
<!-- ЭРОС&#45;&gt;Tele2 -->
<g id="edge42" class="edge"><title>ЭРОС&#45;&gt;Tele2</title>
<path fill="none" stroke="black" d="M577.599,-911.313C597.729,-889.022 632.679,-854.506 670.361,-836.258 752.239,-796.608 782.562,-817.43 871.492,-798.258 896.33,-792.903 924.104,-786.168 945.696,-780.764"/>
<ellipse fill="none" stroke="black" cx="574.737" cy="-914.537" rx="4.00002" ry="4.00002"/>
<polygon fill="black" stroke="black" points="946.611,-784.143 955.454,-778.307 944.902,-777.355 946.611,-784.143"/>
</g>
<!-- Comrise -->
<g id="node29" class="node"><title>Comrise</title>
<polygon fill="none" stroke="black" points="360.479,-756.82 309.147,-769.258 257.815,-756.82 257.863,-736.695 360.431,-736.695 360.479,-756.82"/>
<text text-anchor="middle" x="309.147" y="-747.558" font-family="Times New Roman,serif" font-size="14.00">Comrise</text>
</g>
<!-- Comrise&#45;&gt;Унико -->
<g id="edge67" class="edge"><title>Comrise&#45;&gt;Унико</title>
<path fill="none" stroke="black" stroke-dasharray="1,5" d="M323.072,-774.244C349.943,-822.938 412.248,-940.685 447.327,-1046.26 471.954,-1120.37 433.869,-1157.81 483.327,-1218.26 491.892,-1228.73 504.521,-1235.84 516.959,-1240.65"/>
<ellipse fill="none" stroke="black" cx="321.013" cy="-770.533" rx="4.00002" ry="4.00002"/>
<ellipse fill="none" stroke="black" cx="520.868" cy="-1242.03" rx="4.00001" ry="4.00001"/>
</g>
<!-- Comrise&#45;&gt;Вымпелком -->
<g id="edge12" class="edge"><title>Comrise&#45;&gt;Вымпелком</title>
<path fill="none" stroke="black" d="M314.402,-736.382C336.358,-662.99 444.633,-339.514 670.361,-252.258 753.74,-220.027 784.048,-233.701 871.492,-252.258 888.62,-255.892 890.899,-262.668 907.492,-268.258 973.547,-290.509 994.351,-281.214 1060.13,-304.258 1088.08,-314.046 1118.26,-328.467 1140.85,-340.087"/>
<polygon fill="black" stroke="black" points="1139.25,-343.197 1149.73,-344.711 1142.48,-336.988 1139.25,-343.197"/>
</g>
<!-- Comrise&#45;&gt;Ростелеком -->
<g id="edge11" class="edge"><title>Comrise&#45;&gt;Ростелеком</title>
<path fill="none" stroke="black" d="M317.236,-767.545C338.561,-815.667 405.471,-960.447 483.327,-1066.26 540.71,-1144.24 587.404,-1138.58 634.361,-1223.26 666.145,-1280.57 618.67,-1325.97 670.361,-1366.26 738.69,-1419.52 976.741,-1381.74 1060.13,-1358.26 1157.14,-1330.95 1172.38,-1300.73 1258.41,-1248.26 1284.45,-1232.38 1313.05,-1213.23 1334.68,-1198.39"/>
<polygon fill="black" stroke="black" points="1336.94,-1201.08 1343.19,-1192.52 1332.97,-1195.31 1336.94,-1201.08"/>
</g>
<!-- Comrise&#45;&gt;Powernet -->
<g id="edge68" class="edge"><title>Comrise&#45;&gt;Powernet</title>
<path fill="none" stroke="black" stroke-dasharray="1,5" d="M335.883,-731.75C416.798,-670.433 661.243,-485.348 670.361,-480.258 688.232,-470.281 709.177,-461.664 727.233,-455.086"/>
<ellipse fill="none" stroke="black" cx="332.643" cy="-734.205" rx="4.00002" ry="4.00002"/>
<ellipse fill="none" stroke="black" cx="731.01" cy="-453.738" rx="4.00001" ry="4.00001"/>
</g>
<!-- VSSA -->
<g id="node30" class="node"><title>VSSA</title>
<polygon fill="none" stroke="black" points="813.584,-1344.82 770.927,-1357.26 728.269,-1344.82 728.309,-1324.7 813.544,-1324.7 813.584,-1344.82"/>
<text text-anchor="middle" x="770.927" y="-1335.56" font-family="Times New Roman,serif" font-size="14.00">VSSA</text>
</g>
<!-- VSSA&#45;&gt;Orange -->
<g id="edge16" class="edge"><title>VSSA&#45;&gt;Orange</title>
<path fill="none" stroke="black" d="M813.591,-1337.68C847.787,-1336.38 896.318,-1334.54 932.645,-1333.16"/>
<polygon fill="black" stroke="black" points="933.16,-1336.64 943.021,-1332.77 932.895,-1329.65 933.16,-1336.64"/>
</g>
<!-- Евротелеком&#45;&gt;Транстелеком -->
<g id="edge17" class="edge"><title>Евротелеком&#45;&gt;Транстелеком</title>
<path fill="none" stroke="black" d="M1018.1,-107.658C1031.73,-113.501 1047.29,-121.192 1060.13,-130.258 1192.23,-223.537 1308.35,-382.632 1351.43,-445.532"/>
<polygon fill="black" stroke="black" points="1348.73,-447.79 1357.24,-454.095 1354.52,-443.856 1348.73,-447.79"/>
</g>
<!-- Евротелеком&#45;&gt;Вымпелком -->
<g id="edge18" class="edge"><title>Евротелеком&#45;&gt;Вымпелком</title>
<path fill="none" stroke="black" d="M1027.31,-106.258C1039.2,-111.067 1051.28,-117.834 1060.13,-127.258 1093.05,-162.296 1075.4,-185.883 1096.13,-229.258 1114.03,-266.705 1140.01,-306.965 1157.49,-332.595"/>
<polygon fill="black" stroke="black" points="1154.74,-334.771 1163.29,-341.022 1160.5,-330.801 1154.74,-334.771"/>
</g>
<!-- Virgin -->
<g id="node32" class="node"><title>Virgin</title>
<polygon fill="none" stroke="black" points="599.182,-779.82 558.844,-792.258 518.506,-779.82 518.544,-759.695 599.144,-759.695 599.182,-779.82"/>
<text text-anchor="middle" x="558.844" y="-770.558" font-family="Times New Roman,serif" font-size="14.00">Virgin</text>
</g>
<!-- Virgin&#45;&gt;Волгатранстелеком -->
<g id="edge62" class="edge"><title>Virgin&#45;&gt;Волгатранстелеком</title>
<path fill="none" stroke="black" d="M574.825,-795.728C591.695,-820.871 618.78,-864.303 634.361,-905.258 661.668,-977.035 626.925,-1010.92 670.361,-1074.26 682.342,-1091.73 700.715,-1105.63 718.431,-1116.03"/>
<ellipse fill="black" stroke="black" cx="572.395" cy="-792.147" rx="4.00002" ry="4.00002"/>
<polygon fill="black" stroke="black" points="717.16,-1119.33 727.598,-1121.15 720.571,-1113.22 717.16,-1119.33"/>
</g>
<!-- Virgin&#45;&gt;Мегафон -->
<g id="edge23" class="edge"><title>Virgin&#45;&gt;Мегафон</title>
<path fill="none" stroke="black" d="M564.979,-759.637C583.719,-706.662 648.468,-527.047 670.361,-511.258 709.476,-483.047 844.269,-482.4 923.458,-484.668"/>
<polygon fill="black" stroke="black" points="923.67,-488.177 933.774,-484.989 923.888,-481.18 923.67,-488.177"/>
</g>
<!-- Virgin&#45;&gt;Вымпелком -->
<g id="edge22" class="edge"><title>Virgin&#45;&gt;Вымпелком</title>
<path fill="none" stroke="black" d="M574.46,-759.496C594.329,-740.353 631.823,-707.39 670.361,-690.258 753.49,-653.302 785.391,-681.628 871.492,-652.258 960.527,-621.886 1000.24,-628.797 1060.13,-556.258 1096.94,-511.678 1065.44,-480.252 1096.13,-431.258 1108.31,-411.821 1127.21,-394.485 1143.6,-381.696"/>
<polygon fill="black" stroke="black" points="1146.02,-384.255 1151.89,-375.436 1141.8,-378.668 1146.02,-384.255"/>
</g>
<!-- Virgin&#45;&gt;Ростелеком -->
<g id="edge24" class="edge"><title>Virgin&#45;&gt;Ростелеком</title>
<path fill="none" stroke="black" d="M569.386,-789.146C586.393,-814.353 624.496,-865.137 670.361,-890.258 825.158,-975.041 897.057,-898.755 1060.13,-966.258 1173.87,-1013.34 1289.32,-1105.38 1341.08,-1149.5"/>
<polygon fill="black" stroke="black" points="1338.96,-1152.3 1348.83,-1156.16 1343.52,-1146.99 1338.96,-1152.3"/>
</g>
<!-- Энфорта -->
<g id="node33" class="node"><title>Энфорта</title>
<polygon fill="none" stroke="black" points="1233.75,-554.82 1177.27,-567.258 1120.8,-554.82 1120.85,-534.695 1233.69,-534.695 1233.75,-554.82"/>
<text text-anchor="middle" x="1177.27" y="-545.558" font-family="Times New Roman,serif" font-size="14.00">Энфорта</text>
</g>
<!-- Энфорта&#45;&gt;Транстелеком -->
<g id="edge28" class="edge"><title>Энфорта&#45;&gt;Транстелеком</title>
<path fill="none" stroke="black" d="M1224.33,-534.611C1235.56,-530.801 1247.48,-526.553 1258.41,-522.258 1279.77,-513.867 1302.97,-503.586 1322.59,-494.533"/>
<polygon fill="black" stroke="black" points="1324.32,-497.589 1331.91,-490.201 1321.37,-491.241 1324.32,-497.589"/>
</g>
<!-- WMAX -->
<g id="node34" class="node"><title>WMAX</title>
<polygon fill="none" stroke="black" points="820.545,-192.82 770.927,-205.258 721.308,-192.82 721.354,-172.695 820.499,-172.695 820.545,-192.82"/>
<text text-anchor="middle" x="770.927" y="-183.558" font-family="Times New Roman,serif" font-size="14.00">WMAX</text>
</g>
<!-- WMAX&#45;&gt;Релком -->
<g id="edge33" class="edge"><title>WMAX&#45;&gt;Релком</title>
<path fill="none" stroke="black" d="M807.224,-196.296C843.497,-205.584 900.039,-220.062 939.114,-230.068"/>
<polygon fill="black" stroke="black" points="938.589,-233.546 949.145,-232.637 940.325,-226.765 938.589,-233.546"/>
</g>
<!-- WMAX&#45;&gt;Мегафон -->
<g id="edge31" class="edge"><title>WMAX&#45;&gt;Мегафон</title>
<path fill="none" stroke="black" d="M797.226,-198.799C819.219,-209.889 850.728,-228.459 871.492,-252.258 927.092,-315.982 960.929,-412.282 975.082,-459.359"/>
<polygon fill="black" stroke="black" points="971.784,-460.549 977.956,-469.16 978.501,-458.579 971.784,-460.549"/>
</g>
<!-- WMAX&#45;&gt;WestCall -->
<g id="edge32" class="edge"><title>WMAX&#45;&gt;WestCall</title>
<path fill="none" stroke="black" d="M820.573,-187.258C850.867,-187.258 890.076,-187.258 922.36,-187.258"/>
<polygon fill="black" stroke="black" points="922.578,-190.758 932.578,-187.258 922.578,-183.758 922.578,-190.758"/>
</g>
<!-- InstrNet -->
<g id="node35" class="node"><title>InstrNet</title>
<polygon fill="none" stroke="black" points="820.545,-868.82 770.927,-881.258 721.308,-868.82 721.354,-848.695 820.499,-848.695 820.545,-868.82"/>
<text text-anchor="middle" x="770.927" y="-859.558" font-family="Times New Roman,serif" font-size="14.00">InstrNet</text>
</g>
<!-- InstrNet&#45;&gt;ЭрТелеком -->
<g id="edge49" class="edge"><title>InstrNet&#45;&gt;ЭрТелеком</title>
<path fill="none" stroke="black" d="M798.214,-881.083C832.04,-904.02 891.475,-944.322 933.763,-972.998"/>
<ellipse fill="none" stroke="black" cx="794.699" cy="-878.699" rx="4.00002" ry="4.00002"/>
<polygon fill="black" stroke="black" points="932.004,-976.034 942.245,-978.749 935.933,-970.24 932.004,-976.034"/>
</g>
<!-- InstrNet&#45;&gt;Мегафон -->
<g id="edge34" class="edge"><title>InstrNet&#45;&gt;Мегафон</title>
<path fill="none" stroke="black" d="M805.11,-848.571C826.689,-837.513 853.972,-820.459 871.492,-798.258 941.391,-709.682 969.602,-573.552 978.916,-515.287"/>
<polygon fill="black" stroke="black" points="982.385,-515.758 980.442,-505.343 975.466,-514.696 982.385,-515.758"/>
</g>
<!-- ТСвязь -->
<g id="node36" class="node"><title>ТСвязь</title>
<polygon fill="none" stroke="black" points="820.545,-392.82 770.927,-405.258 721.308,-392.82 721.354,-372.695 820.499,-372.695 820.545,-392.82"/>
<text text-anchor="middle" x="770.927" y="-383.558" font-family="Times New Roman,serif" font-size="14.00">ТСвязь</text>
</g>
<!-- ТСвязь&#45;&gt;Мегафон -->
<g id="edge35" class="edge"><title>ТСвязь&#45;&gt;Мегафон</title>
<path fill="none" stroke="black" d="M812.172,-395.119C830.708,-399.504 852.708,-405.81 871.492,-414.258 900.334,-427.228 930.148,-447.189 951.655,-462.962"/>
<polygon fill="black" stroke="black" points="949.647,-465.831 959.758,-468.996 953.828,-460.217 949.647,-465.831"/>
</g>
<!-- ТСвязь&#45;&gt;Вымпелком -->
<g id="edge36" class="edge"><title>ТСвязь&#45;&gt;Вымпелком</title>
<path fill="none" stroke="black" d="M820.7,-383.88C897.792,-378.542 1047.07,-368.204 1125.43,-362.778"/>
<polygon fill="black" stroke="black" points="1125.81,-366.26 1135.55,-362.078 1125.33,-359.277 1125.81,-366.26"/>
</g>
<!-- Восток -->
<g id="node37" class="node"><title>Восток</title>
<polygon fill="none" stroke="black" points="819.332,-722.82 770.927,-735.258 722.521,-722.82 722.566,-702.695 819.287,-702.695 819.332,-722.82"/>
<text text-anchor="middle" x="770.927" y="-713.558" font-family="Times New Roman,serif" font-size="14.00">Восток</text>
</g>
<!-- Восток&#45;&gt;Мегафон -->
<g id="edge37" class="edge"><title>Восток&#45;&gt;Мегафон</title>
<path fill="none" stroke="black" d="M800.705,-702.553C821.858,-690.827 850.461,-672.972 871.492,-652.258 914.248,-610.144 950.226,-549.232 968.944,-514.41"/>
<polygon fill="black" stroke="black" points="972.172,-515.793 973.757,-505.317 965.986,-512.518 972.172,-515.793"/>
</g>
<!-- Восток&#45;&gt;Tele2 -->
<g id="edge38" class="edge"><title>Восток&#45;&gt;Tele2</title>
<path fill="none" stroke="black" d="M806.75,-726.175C845.062,-735.985 906.396,-751.69 945.625,-761.735"/>
<polygon fill="black" stroke="black" points="944.782,-765.132 955.337,-764.222 946.518,-758.351 944.782,-765.132"/>
</g>
<!-- ВистОнЛайн -->
<g id="node38" class="node"><title>ВистОнЛайн</title>
<polygon fill="none" stroke="black" points="385.288,-1186.82 309.147,-1199.26 233.006,-1186.82 233.077,-1166.7 385.217,-1166.7 385.288,-1186.82"/>
<text text-anchor="middle" x="309.147" y="-1177.56" font-family="Times New Roman,serif" font-size="14.00">ВистОнЛайн</text>
</g>
<!-- ВистОнЛайн&#45;&gt;Унико -->
<g id="edge47" class="edge"><title>ВистОнЛайн&#45;&gt;Унико</title>
<path fill="none" stroke="black" d="M365.988,-1193.04C391.005,-1198.63 420.788,-1205.74 447.327,-1213.26 471.527,-1220.11 498.285,-1229.04 519.409,-1236.4"/>
<ellipse fill="none" stroke="black" cx="361.948" cy="-1192.14" rx="4.00001" ry="4.00001"/>
<polygon fill="black" stroke="black" points="518.395,-1239.76 528.989,-1239.77 520.716,-1233.15 518.395,-1239.76"/>
</g>
<!-- SmIT34 -->
<g id="node39" class="node"><title>SmIT34</title>
<polygon fill="none" stroke="black" points="608.463,-192.82 558.844,-205.258 509.225,-192.82 509.271,-172.695 608.417,-172.695 608.463,-192.82"/>
<text text-anchor="middle" x="558.844" y="-183.558" font-family="Times New Roman,serif" font-size="14.00">SmIT34</text>
</g>
<!-- SmIT34&#45;&gt;КоламбияТелеком -->
<g id="edge51" class="edge"><title>SmIT34&#45;&gt;КоламбияТелеком</title>
<path fill="none" stroke="black" d="M616.446,-172.708C643.303,-165.805 675.569,-157.511 703.572,-150.314"/>
<ellipse fill="none" stroke="black" cx="612.443" cy="-173.737" rx="4.00001" ry="4.00001"/>
<polygon fill="black" stroke="black" points="704.469,-153.697 713.283,-147.817 702.726,-146.917 704.469,-153.697"/>
</g>
<!-- ВолгаЛинк -->
<g id="node40" class="node"><title>ВолгаЛинк</title>
<polygon fill="none" stroke="black" points="1050.67,-1236.82 983.812,-1249.26 916.952,-1236.82 917.014,-1216.7 1050.61,-1216.7 1050.67,-1236.82"/>
<text text-anchor="middle" x="983.812" y="-1227.56" font-family="Times New Roman,serif" font-size="14.00">ВолгаЛинк</text>
</g>
<!-- ВолгаЛинк&#45;&gt;ЮТК -->
<g id="edge52" class="edge"><title>ВолгаЛинк&#45;&gt;ЮТК</title>
<path fill="none" stroke="black" d="M1059.03,-1222.34C1073.92,-1220.55 1089.54,-1218.68 1104.35,-1216.9"/>
<ellipse fill="black" stroke="black" cx="1054.67" cy="-1222.87" rx="4.00001" ry="4.00001"/>
<polygon fill="black" stroke="black" points="1104.94,-1220.35 1114.45,-1215.68 1104.11,-1213.4 1104.94,-1220.35"/>
</g>
<!-- Волгателком -->
<g id="node41" class="node"><title>Волгателком</title>
<polygon fill="none" stroke="black" points="634.378,-138.82 558.844,-151.258 483.31,-138.82 483.38,-118.695 634.308,-118.695 634.378,-138.82"/>
<text text-anchor="middle" x="558.844" y="-129.558" font-family="Times New Roman,serif" font-size="14.00">Волгателком</text>
</g>
<!-- Волгателком&#45;&gt;КоламбияТелеком -->
<g id="edge53" class="edge"><title>Волгателком&#45;&gt;КоламбияТелеком</title>
<path fill="none" stroke="black" d="M642.794,-133.258C649.802,-133.258 656.948,-133.258 664.098,-133.258"/>
<ellipse fill="black" stroke="black" cx="638.503" cy="-133.258" rx="4" ry="4"/>
<polygon fill="black" stroke="black" points="664.562,-136.758 674.562,-133.258 664.562,-129.758 664.562,-136.758"/>
</g>
<!-- ИнсаткомВ -->
<g id="node42" class="node"><title>ИнсаткомВ</title>
<polygon fill="none" stroke="black" points="1245.35,-1146.82 1177.27,-1159.26 1109.2,-1146.82 1109.26,-1126.7 1245.28,-1126.7 1245.35,-1146.82"/>
<text text-anchor="middle" x="1177.27" y="-1137.56" font-family="Times New Roman,serif" font-size="14.00">ИнсаткомВ</text>
</g>
<!-- ИнсаткомВ&#45;&gt;Ростелеком -->
<g id="edge54" class="edge"><title>ИнсаткомВ&#45;&gt;Ростелеком</title>
<path fill="none" stroke="black" d="M1236.6,-1151.34C1259.95,-1155.37 1286.81,-1160.02 1310.22,-1164.06"/>
<ellipse fill="black" stroke="black" cx="1232.38" cy="-1150.61" rx="4.00001" ry="4.00001"/>
<polygon fill="black" stroke="black" points="1309.92,-1167.56 1320.37,-1165.82 1311.11,-1160.66 1309.92,-1167.56"/>
</g>
<!-- Магистраль&#45;&gt;Унико -->
<g id="edge55" class="edge"><title>Магистраль&#45;&gt;Унико</title>
<path fill="none" stroke="black" d="M318.899,-257.974C343.735,-329.249 414.942,-541.748 447.327,-724.258 465.086,-824.343 439.323,-1088.63 483.327,-1180.26 492.815,-1200.01 510.486,-1217 526.239,-1229.29"/>
<ellipse fill="black" stroke="black" cx="317.561" cy="-254.147" rx="4.00001" ry="4.00001"/>
<polygon fill="black" stroke="black" points="524.144,-1232.09 534.248,-1235.27 528.335,-1226.48 524.144,-1232.09"/>
</g>
<!-- Магистраль&#45;&gt;ЮТК -->
<g id="edge73" class="edge"><title>Магистраль&#45;&gt;ЮТК</title>
<path fill="none" stroke="black" stroke-dasharray="1,5" d="M318.238,-258.103C341.313,-329.725 408.283,-543.056 447.327,-724.258 469.583,-827.55 437.997,-863.812 483.327,-959.258 536.52,-1071.26 559.226,-1111.28 670.361,-1166.26 707.985,-1184.87 969.79,-1199.04 1101.28,-1205.07"/>
<ellipse fill="none" stroke="black" cx="317" cy="-254.27" rx="4.00001" ry="4.00001"/>
<ellipse fill="none" stroke="black" cx="1105.36" cy="-1205.26" rx="4" ry="4"/>
</g>
<!-- Магистраль&#45;&gt;Powernet -->
<g id="edge72" class="edge"><title>Магистраль&#45;&gt;Powernet</title>
<path fill="none" stroke="black" stroke-dasharray="1,5" d="M340.427,-251.11C401.207,-286.344 543.153,-365.617 670.361,-414.258 687.325,-420.744 706.472,-426.328 723.411,-430.707"/>
<ellipse fill="none" stroke="black" cx="336.881" cy="-249.048" rx="4.00002" ry="4.00002"/>
<ellipse fill="none" stroke="black" cx="727.652" cy="-431.779" rx="4.00001" ry="4.00001"/>
</g>
<!-- Магистраль&#45;&gt;Евротелеком -->
<g id="edge74" class="edge"><title>Магистраль&#45;&gt;Евротелеком</title>
<path fill="none" stroke="black" stroke-dasharray="1,5" d="M329.518,-212.589C359.236,-182.53 419.386,-127.973 483.327,-106.258 623.265,-58.7336 798.19,-69.5978 899.539,-82.1798"/>
<ellipse fill="none" stroke="black" cx="326.441" cy="-215.747" rx="4.00002" ry="4.00002"/>
<ellipse fill="none" stroke="black" cx="903.64" cy="-82.7006" rx="4.00001" ry="4.00001"/>
</g>
<!-- Форвард -->
<g id="node44" class="node"><title>Форвард</title>
<polygon fill="none" stroke="black" points="827.4,-776.82 770.927,-789.258 714.453,-776.82 714.506,-756.695 827.347,-756.695 827.4,-776.82"/>
<text text-anchor="middle" x="770.927" y="-767.558" font-family="Times New Roman,serif" font-size="14.00">Форвард</text>
</g>
<!-- Форвард&#45;&gt;Tele2 -->
<g id="edge57" class="edge"><title>Форвард&#45;&gt;Tele2</title>
<path fill="none" stroke="black" d="M835.604,-771.258C868.806,-771.258 908.597,-771.258 938.434,-771.258"/>
<ellipse fill="black" stroke="black" cx="831.334" cy="-771.258" rx="4" ry="4"/>
<polygon fill="black" stroke="black" points="938.545,-774.758 948.545,-771.258 938.545,-767.758 938.545,-774.758"/>
</g>
<!-- ФорумNet -->
<g id="node45" class="node"><title>ФорумNet</title>
<polygon fill="none" stroke="black" points="370.867,-1132.82 309.147,-1145.26 247.427,-1132.82 247.485,-1112.7 370.809,-1112.7 370.867,-1132.82"/>
<text text-anchor="middle" x="309.147" y="-1123.56" font-family="Times New Roman,serif" font-size="14.00">ФорумNet</text>
</g>
<!-- ФорумNet&#45;&gt;Унико -->
<g id="edge58" class="edge"><title>ФорумNet&#45;&gt;Унико</title>
<path fill="none" stroke="black" d="M379.16,-1129.29C402.559,-1132.83 427.713,-1140.07 447.327,-1154.26 473.767,-1173.39 459.052,-1196.44 483.327,-1218.26 492.818,-1226.79 504.927,-1233.29 516.612,-1238.13"/>
<ellipse fill="black" stroke="black" cx="374.932" cy="-1128.72" rx="4.00001" ry="4.00001"/>
<polygon fill="black" stroke="black" points="515.67,-1241.51 526.261,-1241.81 518.166,-1234.97 515.67,-1241.51"/>
</g>
<!-- ByteS -->
<g id="node46" class="node"><title>ByteS</title>
<polygon fill="none" stroke="black" points="349.485,-1078.82 309.147,-1091.26 268.809,-1078.82 268.846,-1058.7 349.447,-1058.7 349.485,-1078.82"/>
<text text-anchor="middle" x="309.147" y="-1069.56" font-family="Times New Roman,serif" font-size="14.00">ByteS</text>
</g>
<!-- ByteS&#45;&gt;Унико -->
<g id="edge59" class="edge"><title>ByteS&#45;&gt;Унико</title>
<path fill="none" stroke="black" d="M357.53,-1070.96C386.783,-1072.09 423.204,-1078.47 447.327,-1100.26 488.02,-1137.01 446.736,-1177.42 483.327,-1218.26 491.927,-1227.86 503.904,-1234.68 515.742,-1239.49"/>
<ellipse fill="black" stroke="black" cx="353.484" cy="-1070.86" rx="4" ry="4"/>
<polygon fill="black" stroke="black" points="514.547,-1242.78 525.14,-1242.93 516.952,-1236.2 514.547,-1242.78"/>
</g>
<!-- АвантекПлюс -->
<g id="node47" class="node"><title>АвантекПлюс</title>
<polygon fill="none" stroke="black" points="388.715,-1386.82 309.147,-1399.26 229.579,-1386.82 229.653,-1366.7 388.64,-1366.7 388.715,-1386.82"/>
<text text-anchor="middle" x="309.147" y="-1377.56" font-family="Times New Roman,serif" font-size="14.00">АвантекПлюс</text>
</g>
<!-- АвантекПлюс&#45;&gt;Унико -->
<g id="edge60" class="edge"><title>АвантекПлюс&#45;&gt;Унико</title>
<path fill="none" stroke="black" d="M396.804,-1371.84C414.142,-1367.87 431.788,-1362.24 447.327,-1354.26 484.011,-1335.41 517.156,-1300.72 537.373,-1276.62"/>
<ellipse fill="black" stroke="black" cx="392.778" cy="-1372.71" rx="4.00001" ry="4.00001"/>
<polygon fill="black" stroke="black" points="540.333,-1278.53 543.97,-1268.58 534.921,-1274.09 540.333,-1278.53"/>
</g>
<!-- Robor -->
<g id="node48" class="node"><title>Robor</title>
<polygon fill="none" stroke="black" points="1219.93,-500.82 1177.27,-513.258 1134.62,-500.82 1134.66,-480.695 1219.89,-480.695 1219.93,-500.82"/>
<text text-anchor="middle" x="1177.27" y="-491.558" font-family="Times New Roman,serif" font-size="14.00">Robor</text>
</g>
<!-- Robor&#45;&gt;Транстелеком -->
<g id="edge61" class="edge"><title>Robor&#45;&gt;Транстелеком</title>
<path fill="none" stroke="black" d="M1228.4,-489.219C1250.2,-486.594 1276.1,-483.474 1299.7,-480.631"/>
<ellipse fill="black" stroke="black" cx="1224.15" cy="-489.732" rx="4.00001" ry="4.00001"/>
<polygon fill="black" stroke="black" points="1300.15,-484.102 1309.66,-479.431 1299.31,-477.152 1300.15,-484.102"/>
</g>
<!-- ИнформационныйСервис -->
<g id="node49" class="node"><title>ИнформационныйСервис</title>
<polygon fill="none" stroke="black" points="447.507,-1332.82 309.147,-1345.26 170.786,-1332.82 170.915,-1312.7 447.378,-1312.7 447.507,-1332.82"/>
<text text-anchor="middle" x="309.147" y="-1323.56" font-family="Times New Roman,serif" font-size="14.00">ИнформационныйСервис</text>
</g>
<!-- ИнформационныйСервис&#45;&gt;Унико -->
<g id="edge76" class="edge"><title>ИнформационныйСервис&#45;&gt;Унико</title>
<path fill="none" stroke="black" stroke-dasharray="1,5" d="M408.025,-1310.87C421.356,-1307.8 434.765,-1304.28 447.327,-1300.26 474.241,-1291.65 503.303,-1278.33 524.867,-1267.6"/>
<ellipse fill="none" stroke="black" cx="404.095" cy="-1311.75" rx="4.00001" ry="4.00001"/>
<ellipse fill="none" stroke="black" cx="528.594" cy="-1265.72" rx="4.00002" ry="4.00002"/>
</g>
</g>
</svg>
