<?xml version="1.0" encoding="UTF-8" standalone="no"?>
<!DOCTYPE svg PUBLIC "-//W3C//DTD SVG 1.1//EN"
 "http://www.w3.org/Graphics/SVG/1.1/DTD/svg11.dtd">
<!-- Generated by graphviz version 2.38.0 (20140413.2041)
 -->
<!-- Title: ispgraph Pages: 1 -->
<svg width="1514pt" height="1516pt"
 viewBox="0.00 0.00 1513.53 1516.14" xmlns="http://www.w3.org/2000/svg" xmlns:xlink="http://www.w3.org/1999/xlink">
<g id="graph0" class="graph" transform="scale(1 1) rotate(0) translate(4 1512.14)">
<title>ispgraph</title>
<polygon fill="white" stroke="none" points="-4,4 -4,-1512.14 1509.53,-1512.14 1509.53,4 -4,4"/>
<!-- Унико -->
<g id="node1" class="node"><title>Унико</title>
<polygon fill="none" stroke="black" points="645.545,-1344.14 624.518,-1362.14 582.463,-1362.14 561.436,-1344.14 582.463,-1326.14 624.518,-1326.14 645.545,-1344.14"/>
<text text-anchor="middle" x="603.491" y="-1340.44" font-family="Times New Roman,serif" font-size="14.00">Унико</text>
</g>
<!-- ЭрТелеком -->
<g id="node3" class="node"><title>ЭрТелеком</title>
<polygon fill="none" stroke="black" points="1119.64,-938.142 1082.9,-969.196 1009.43,-969.196 972.7,-938.142 1009.43,-907.089 1082.9,-907.089 1119.64,-938.142"/>
<text text-anchor="middle" x="1046.17" y="-941.942" font-family="Times New Roman,serif" font-size="14.00">ЭР&#45;Телеком</text>
<text text-anchor="middle" x="1046.17" y="-926.942" font-family="Times New Roman,serif" font-size="14.00">транзит</text>
</g>
<!-- Унико&#45;&gt;ЭрТелеком -->
<g id="edge70" class="edge"><title>Унико&#45;&gt;ЭрТелеком</title>
<path fill="none" stroke="black" stroke-dasharray="1,5" d="M643.128,-1332.77C722.112,-1308.75 897.893,-1251.13 936.684,-1203.14 989.89,-1137.32 934.393,-1091.62 972.684,-1016.14 980.303,-1001.12 991.677,-986.918 1003.17,-974.847"/>
<ellipse fill="none" stroke="black" cx="639.171" cy="-1333.96" rx="4.00001" ry="4.00001"/>
<ellipse fill="none" stroke="black" cx="1006.01" cy="-971.955" rx="4.00002" ry="4.00002"/>
</g>
<!-- Ростелеком -->
<g id="node10" class="node"><title>Ростелеком</title>
<polygon fill="none" stroke="black" points="1494.82,-1298.14 1462.28,-1316.14 1397.19,-1316.14 1364.65,-1298.14 1397.19,-1280.14 1462.28,-1280.14 1494.82,-1298.14"/>
<text text-anchor="middle" x="1429.73" y="-1294.44" font-family="Times New Roman,serif" font-size="14.00">Ростелеком</text>
</g>
<!-- Унико&#45;&gt;Ростелеком -->
<g id="edge24" class="edge"><title>Унико&#45;&gt;Ростелеком</title>
<path fill="none" stroke="black" d="M635.992,-1352.51C662.367,-1359.06 701.116,-1367.63 735.553,-1371.14 973.892,-1395.44 1258.17,-1338.49 1374.78,-1311.44"/>
<polygon fill="black" stroke="black" points="1375.61,-1314.84 1384.55,-1309.15 1374.01,-1308.02 1375.61,-1314.84"/>
</g>
<!-- Powernet -->
<g id="node19" class="node"><title>Powernet</title>
<polygon fill="none" stroke="black" points="887.687,-754.142 861.903,-772.142 810.335,-772.142 784.55,-754.142 810.335,-736.142 861.903,-736.142 887.687,-754.142"/>
<text text-anchor="middle" x="836.119" y="-750.442" font-family="Times New Roman,serif" font-size="14.00">Powernet</text>
</g>
<!-- Унико&#45;&gt;Powernet -->
<g id="edge41" class="edge"><title>Унико&#45;&gt;Powernet</title>
<path fill="none" stroke="black" d="M615.239,-1318.49C635.335,-1275.4 678.469,-1186.29 699.553,-1106.14 733.271,-977.978 665.526,-922.654 735.553,-810.142 747.505,-790.939 767.466,-776.267 786.39,-766.47"/>
<ellipse fill="none" stroke="black" cx="613.447" cy="-1322.36" rx="4.00002" ry="4.00002"/>
<polygon fill="black" stroke="black" points="788.067,-769.548 795.557,-762.054 785.029,-763.241 788.067,-769.548"/>
</g>
<!-- RETN -->
<g id="node20" class="node"><title>RETN</title>
<polygon fill="none" stroke="black" points="875.672,-1344.14 855.895,-1362.14 816.342,-1362.14 796.566,-1344.14 816.342,-1326.14 855.895,-1326.14 875.672,-1344.14"/>
<text text-anchor="middle" x="836.119" y="-1340.44" font-family="Times New Roman,serif" font-size="14.00">RETN</text>
</g>
<!-- Унико&#45;&gt;RETN -->
<g id="edge25" class="edge"><title>Унико&#45;&gt;RETN</title>
<path fill="none" stroke="black" d="M645.722,-1344.14C685.138,-1344.14 744.58,-1344.14 786.334,-1344.14"/>
<polygon fill="black" stroke="black" points="786.545,-1347.64 796.545,-1344.14 786.545,-1340.64 786.545,-1347.64"/>
</g>
<!-- ДомРу -->
<g id="node2" class="node"><title>ДомРу</title>
<polygon fill="none" stroke="black" points="890.189,-992.142 863.154,-1010.14 809.084,-1010.14 782.048,-992.142 809.084,-974.142 863.154,-974.142 890.189,-992.142"/>
<text text-anchor="middle" x="836.119" y="-988.442" font-family="Times New Roman,serif" font-size="14.00">ДОМ.RU</text>
</g>
<!-- ДомРу&#45;&gt;ЭрТелеком -->
<g id="edge44" class="edge"><title>ДомРу&#45;&gt;ЭрТелеком</title>
<path fill="none" stroke="black" d="M883.896,-980.001C912.122,-972.675 948.514,-963.229 979.583,-955.165"/>
<ellipse fill="none" stroke="black" cx="879.636" cy="-981.107" rx="4.00001" ry="4.00001"/>
<polygon fill="black" stroke="black" points="980.667,-958.5 989.467,-952.6 978.908,-951.725 980.667,-958.5"/>
</g>
<!-- ЮТК -->
<g id="node15" class="node"><title>ЮТК</title>
<polygon fill="none" stroke="black" points="1307.86,-1068.14 1272.33,-1099.2 1201.26,-1099.2 1165.72,-1068.14 1201.26,-1037.09 1272.33,-1037.09 1307.86,-1068.14"/>
<text text-anchor="middle" x="1236.79" y="-1071.94" font-family="Times New Roman,serif" font-size="14.00">Ростелеком</text>
<text text-anchor="middle" x="1236.79" y="-1056.94" font-family="Times New Roman,serif" font-size="14.00">Волгоград</text>
</g>
<!-- ЭрТелеком&#45;&gt;ЮТК -->
<g id="edge74" class="edge"><title>ЭрТелеком&#45;&gt;ЮТК</title>
<path fill="none" stroke="black" stroke-dasharray="1,5" d="M1094.15,-970.522C1123.33,-990.633 1160.67,-1016.37 1189.69,-1036.37"/>
<ellipse fill="none" stroke="black" cx="1090.47" cy="-967.982" rx="4.00002" ry="4.00002"/>
<ellipse fill="none" stroke="black" cx="1193.2" cy="-1038.79" rx="4.00002" ry="4.00002"/>
</g>
<!-- Связьинформ -->
<g id="node26" class="node"><title>Связьинформ</title>
<polygon fill="none" stroke="black" points="1318.08,-846.705 1236.79,-859.142 1155.51,-846.705 1155.59,-826.58 1318,-826.58 1318.08,-846.705"/>
<text text-anchor="middle" x="1236.79" y="-837.442" font-family="Times New Roman,serif" font-size="14.00">Связьинформ</text>
</g>
<!-- ЭрТелеком&#45;&gt;Связьинформ -->
<g id="edge75" class="edge"><title>ЭрТелеком&#45;&gt;Связьинформ</title>
<path fill="none" stroke="black" stroke-dasharray="1,5" d="M1099.77,-911.092C1132.39,-894.32 1173.33,-873.263 1201.74,-858.656"/>
<ellipse fill="none" stroke="black" cx="1095.91" cy="-913.079" rx="4.00002" ry="4.00002"/>
<ellipse fill="none" stroke="black" cx="1205.48" cy="-856.732" rx="4.00002" ry="4.00002"/>
</g>
<!-- Транстелеком -->
<g id="node4" class="node"><title>Транстелеком</title>
<polygon fill="none" stroke="black" points="1505.33,-309.142 1467.53,-327.142 1391.93,-327.142 1354.14,-309.142 1391.93,-291.142 1467.53,-291.142 1505.33,-309.142"/>
<text text-anchor="middle" x="1429.73" y="-305.442" font-family="Times New Roman,serif" font-size="14.00">Транстелеком</text>
</g>
<!-- Волгатранстелеком -->
<g id="node5" class="node"><title>Волгатранстелеком</title>
<polygon fill="none" stroke="black" points="936.75,-1046.14 886.434,-1064.14 785.803,-1064.14 735.488,-1046.14 785.803,-1028.14 886.434,-1028.14 936.75,-1046.14"/>
<text text-anchor="middle" x="836.119" y="-1042.44" font-family="Times New Roman,serif" font-size="14.00">Волгатранстелеком</text>
</g>
<!-- Волгатранстелеком&#45;&gt;ЭрТелеком -->
<g id="edge72" class="edge"><title>Волгатранстелеком&#45;&gt;ЭрТелеком</title>
<path fill="none" stroke="black" stroke-dasharray="1,5" d="M910.089,-1031.13C919.348,-1027.86 928.451,-1023.91 936.684,-1019.14 956.263,-1007.8 954.955,-997.202 972.684,-983.142 979.526,-977.716 987.061,-972.403 994.606,-967.438"/>
<ellipse fill="none" stroke="black" cx="906.088" cy="-1032.46" rx="4.00001" ry="4.00001"/>
<ellipse fill="none" stroke="black" cx="998.157" cy="-965.15" rx="4.00002" ry="4.00002"/>
</g>
<!-- Волгатранстелеком&#45;&gt;Транстелеком -->
<g id="edge43" class="edge"><title>Волгатранстелеком&#45;&gt;Транстелеком</title>
<path fill="none" stroke="black" d="M906.49,-1030.48C983.566,-1012.91 1099.84,-985.859 1119.65,-978.142 1213.56,-941.574 1258.56,-949.574 1317.93,-868.142 1381.34,-781.174 1417,-438.258 1426.28,-337.269"/>
<ellipse fill="none" stroke="black" cx="902.127" cy="-1031.47" rx="4.00001" ry="4.00001"/>
<polygon fill="black" stroke="black" points="1429.77,-337.492 1427.19,-327.217 1422.8,-336.862 1429.77,-337.492"/>
</g>
<!-- Волгатранстелеком&#45;&gt;ЮТК -->
<g id="edge71" class="edge"><title>Волгатранстелеком&#45;&gt;ЮТК</title>
<path fill="none" stroke="black" stroke-dasharray="1,5" d="M907.477,-1061.01C928.365,-1064.77 951.36,-1068.27 972.684,-1070.14 1037.75,-1075.86 1054.34,-1070.7 1119.65,-1070.14 1132.35,-1070.03 1145.82,-1069.86 1158.92,-1069.65"/>
<ellipse fill="none" stroke="black" cx="903.517" cy="-1060.28" rx="4.00001" ry="4.00001"/>
<ellipse fill="none" stroke="black" cx="1163.02" cy="-1069.59" rx="4" ry="4"/>
</g>
<!-- Orange -->
<g id="node16" class="node"><title>Orange</title>
<polygon fill="none" stroke="black" points="1088.73,-1043.14 1067.45,-1061.14 1024.89,-1061.14 1003.61,-1043.14 1024.89,-1025.14 1067.45,-1025.14 1088.73,-1043.14"/>
<text text-anchor="middle" x="1046.17" y="-1039.44" font-family="Times New Roman,serif" font-size="14.00">Orange</text>
</g>
<!-- Волгатранстелеком&#45;&gt;Orange -->
<g id="edge73" class="edge"><title>Волгатранстелеком&#45;&gt;Orange</title>
<path fill="none" stroke="black" stroke-dasharray="1,5" d="M941.162,-1044.64C960.222,-1044.37 979.282,-1044.09 995.781,-1043.85"/>
<ellipse fill="none" stroke="black" cx="936.922" cy="-1044.7" rx="4" ry="4"/>
<ellipse fill="none" stroke="black" cx="1000.16" cy="-1043.79" rx="4" ry="4"/>
</g>
<!-- Релком -->
<g id="node6" class="node"><title>Релком</title>
<polygon fill="none" stroke="black" points="881.679,-56.1423 858.899,-74.1423 813.338,-74.1423 790.558,-56.1423 813.338,-38.1423 858.899,-38.1423 881.679,-56.1423"/>
<text text-anchor="middle" x="836.119" y="-52.4423" font-family="Times New Roman,serif" font-size="14.00">Релком</text>
</g>
<!-- Мегафон -->
<g id="node7" class="node"><title>Мегафон</title>
<polygon fill="none" stroke="black" points="1099.24,-616.142 1072.7,-634.142 1019.63,-634.142 993.099,-616.142 1019.63,-598.142 1072.7,-598.142 1099.24,-616.142"/>
<text text-anchor="middle" x="1046.17" y="-612.442" font-family="Times New Roman,serif" font-size="14.00">Мегафон</text>
</g>
<!-- Вымпелком -->
<g id="node8" class="node"><title>Вымпелком</title>
<polygon fill="none" stroke="black" points="1091.23,-351.142 1068.7,-369.142 1023.64,-369.142 1001.11,-351.142 1023.64,-333.142 1068.7,-333.142 1091.23,-351.142"/>
<text text-anchor="middle" x="1046.17" y="-347.442" font-family="Times New Roman,serif" font-size="14.00">Билайн</text>
</g>
<!-- КоламбияТелеком -->
<g id="node9" class="node"><title>КоламбияТелеком</title>
<polygon fill="none" stroke="black" points="699.616,-198.142 651.553,-216.142 555.428,-216.142 507.366,-198.142 555.428,-180.142 651.553,-180.142 699.616,-198.142"/>
<text text-anchor="middle" x="603.491" y="-194.442" font-family="Times New Roman,serif" font-size="14.00">КоламбияТелеком</text>
</g>
<!-- КоламбияТелеком&#45;&gt;Транстелеком -->
<g id="edge18" class="edge"><title>КоламбияТелеком&#45;&gt;Транстелеком</title>
<path fill="none" stroke="black" d="M665.214,-185.223C687.255,-181.134 712.424,-177.156 735.553,-175.142 993.414,-152.688 1083.75,-64.9066 1317.93,-175.142 1364.67,-197.14 1398.43,-249.597 1415.68,-281.967"/>
<polygon fill="black" stroke="black" points="1412.6,-283.639 1420.3,-290.917 1418.82,-280.426 1412.6,-283.639"/>
</g>
<!-- КоламбияТелеком&#45;&gt;Мегафон -->
<g id="edge20" class="edge"><title>КоламбияТелеком&#45;&gt;Мегафон</title>
<path fill="none" stroke="black" d="M609.277,-216.341C628.959,-290.555 704.104,-567.557 735.553,-592.142 773.256,-621.617 907.563,-621.753 986.358,-619.068"/>
<polygon fill="black" stroke="black" points="986.757,-622.556 996.622,-618.691 986.5,-615.56 986.757,-622.556"/>
</g>
<!-- КоламбияТелеком&#45;&gt;Вымпелком -->
<g id="edge19" class="edge"><title>КоламбияТелеком&#45;&gt;Вымпелком</title>
<path fill="none" stroke="black" d="M667.509,-186.109C737.423,-176.007 851.582,-169.393 936.684,-213.142 983.061,-236.984 1015.91,-290.606 1032.59,-323.547"/>
<polygon fill="black" stroke="black" points="1029.51,-325.213 1037.06,-332.649 1035.8,-322.13 1029.51,-325.213"/>
</g>
<!-- WestCall -->
<g id="node18" class="node"><title>WestCall</title>
<polygon fill="none" stroke="black" points="887.185,-110.142 861.652,-128.142 810.585,-128.142 785.052,-110.142 810.585,-92.1423 861.652,-92.1423 887.185,-110.142"/>
<text text-anchor="middle" x="836.119" y="-106.442" font-family="Times New Roman,serif" font-size="14.00">WestCall</text>
</g>
<!-- КоламбияТелеком&#45;&gt;WestCall -->
<g id="edge46" class="edge"><title>КоламбияТелеком&#45;&gt;WestCall</title>
<path fill="none" stroke="black" d="M651.448,-176.826C676.237,-165.892 707.298,-152.693 735.553,-142.142 753.184,-135.559 772.861,-129.06 790.037,-123.657"/>
<ellipse fill="none" stroke="black" cx="647.623" cy="-178.52" rx="4.00002" ry="4.00002"/>
<polygon fill="black" stroke="black" points="791.318,-126.924 799.826,-120.61 789.238,-120.24 791.318,-126.924"/>
</g>
<!-- Евротелеком -->
<g id="node32" class="node"><title>Евротелеком</title>
<polygon fill="none" stroke="black" points="912.26,-245.705 836.119,-258.142 759.977,-245.705 760.049,-225.58 912.189,-225.58 912.26,-245.705"/>
<text text-anchor="middle" x="836.119" y="-236.442" font-family="Times New Roman,serif" font-size="14.00">Евротелеком</text>
</g>
<!-- КоламбияТелеком&#45;&gt;Евротелеком -->
<g id="edge66" class="edge"><title>КоламбияТелеком&#45;&gt;Евротелеком</title>
<path fill="none" stroke="black" stroke-dasharray="1,5" d="M676.808,-211.312C700.635,-215.651 727.321,-220.511 751.894,-224.986"/>
<ellipse fill="none" stroke="black" cx="672.669" cy="-210.558" rx="4.00001" ry="4.00001"/>
<ellipse fill="none" stroke="black" cx="755.857" cy="-225.708" rx="4.00001" ry="4.00001"/>
</g>
<!-- HE -->
<g id="node11" class="node"><title>HE</title>
<polygon fill="none" stroke="black" points="863.119,-1176.14 849.619,-1194.14 822.619,-1194.14 809.119,-1176.14 822.619,-1158.14 849.619,-1158.14 863.119,-1176.14"/>
<text text-anchor="middle" x="836.119" y="-1172.44" font-family="Times New Roman,serif" font-size="14.00">HE</text>
</g>
<!-- КвантТелеком -->
<g id="node12" class="node"><title>КвантТелеком</title>
<polygon fill="none" stroke="black" points="216.282,-699.142 177.231,-717.142 99.1293,-717.142 60.0784,-699.142 99.1293,-681.142 177.231,-681.142 216.282,-699.142"/>
<text text-anchor="middle" x="138.18" y="-695.442" font-family="Times New Roman,serif" font-size="14.00">КвантТелеком</text>
</g>
<!-- Tele2 -->
<g id="node13" class="node"><title>Tele2</title>
<polygon fill="none" stroke="black" points="1271.84,-1173.14 1254.32,-1191.14 1219.27,-1191.14 1201.75,-1173.14 1219.27,-1155.14 1254.32,-1155.14 1271.84,-1173.14"/>
<text text-anchor="middle" x="1236.79" y="-1169.44" font-family="Times New Roman,serif" font-size="14.00">Tele2</text>
</g>
<!-- Tele2&#45;&gt;Транстелеком -->
<g id="edge3" class="edge"><title>Tele2&#45;&gt;Транстелеком</title>
<path fill="none" stroke="black" d="M1260.47,-1161.2C1279.15,-1150.08 1304.65,-1131.7 1317.93,-1108.14 1394.91,-971.682 1421.97,-463.404 1427.57,-337.496"/>
<polygon fill="black" stroke="black" points="1431.08,-337.304 1428.02,-327.162 1424.08,-337 1431.08,-337.304"/>
</g>
<!-- Tele2&#45;&gt;Ростелеком -->
<g id="edge2" class="edge"><title>Tele2&#45;&gt;Ростелеком</title>
<path fill="none" stroke="black" d="M1258.59,-1186.76C1290.76,-1207.82 1353,-1248.57 1392.63,-1274.51"/>
<polygon fill="black" stroke="black" points="1390.92,-1277.57 1401.21,-1280.12 1394.76,-1271.72 1390.92,-1277.57"/>
</g>
<!-- МТС -->
<g id="node14" class="node"><title>МТС</title>
<polygon fill="none" stroke="black" points="871.166,-662.142 853.642,-680.142 818.595,-680.142 801.071,-662.142 818.595,-644.142 853.642,-644.142 871.166,-662.142"/>
<text text-anchor="middle" x="836.119" y="-658.442" font-family="Times New Roman,serif" font-size="14.00">МТС</text>
</g>
<!-- ЮТК&#45;&gt;Ростелеком -->
<g id="edge42" class="edge"><title>ЮТК&#45;&gt;Ростелеком</title>
<path fill="none" stroke="black" d="M1291.22,-1092.96C1300.75,-1098.78 1310.11,-1105.53 1317.93,-1113.14 1365.96,-1159.84 1400.98,-1231.63 1417.71,-1270.63"/>
<ellipse fill="none" stroke="black" cx="1287.73" cy="-1090.92" rx="4.00002" ry="4.00002"/>
<polygon fill="black" stroke="black" points="1414.56,-1272.17 1421.66,-1280.03 1421.01,-1269.46 1414.56,-1272.17"/>
</g>
<!-- ПросторТелеком -->
<g id="node17" class="node"><title>ПросторТелеком</title>
<polygon fill="none" stroke="black" points="926.236,-424.142 881.177,-442.142 791.06,-442.142 746.001,-424.142 791.06,-406.142 881.177,-406.142 926.236,-424.142"/>
<text text-anchor="middle" x="836.119" y="-420.442" font-family="Times New Roman,serif" font-size="14.00">ПросторТелеком</text>
</g>
<!-- ПросторТелеком&#45;&gt;Мегафон -->
<g id="edge28" class="edge"><title>ПросторТелеком&#45;&gt;Мегафон</title>
<path fill="none" stroke="black" d="M901.303,-434.211C913.797,-438.131 926.242,-443.577 936.684,-451.142 985.66,-486.627 1018.65,-551.561 1034.43,-588.505"/>
<polygon fill="black" stroke="black" points="1031.36,-590.239 1038.43,-598.136 1037.83,-587.558 1031.36,-590.239"/>
</g>
<!-- ПросторТелеком&#45;&gt;Вымпелком -->
<g id="edge27" class="edge"><title>ПросторТелеком&#45;&gt;Вымпелком</title>
<path fill="none" stroke="black" d="M892.565,-410.543C907.044,-406.601 922.551,-402.03 936.684,-397.142 960.719,-388.831 986.992,-377.745 1007.66,-368.538"/>
<polygon fill="black" stroke="black" points="1009.35,-371.619 1017.03,-364.324 1006.48,-365.235 1009.35,-371.619"/>
</g>
<!-- Powernet&#45;&gt;Унико -->
<g id="edge40" class="edge"><title>Powernet&#45;&gt;Унико</title>
<path fill="none" stroke="black" d="M800.928,-774.923C778.508,-786.87 750.646,-803.894 735.553,-828.142 665.526,-940.654 733.271,-995.978 699.553,-1124.14 680.502,-1196.56 643.45,-1276.29 621.656,-1317.14"/>
<ellipse fill="none" stroke="black" cx="804.753" cy="-772.919" rx="4.00002" ry="4.00002"/>
<polygon fill="black" stroke="black" points="618.564,-1315.5 616.856,-1325.96 624.712,-1318.85 618.564,-1315.5"/>
</g>
<!-- Powernet&#45;&gt;ЭрТелеком -->
<g id="edge65" class="edge"><title>Powernet&#45;&gt;ЭрТелеком</title>
<path fill="none" stroke="black" stroke-dasharray="1,5" d="M872.523,-774.232C892.263,-786.159 916.8,-802.224 936.684,-819.142 965.709,-843.838 994.584,-875.975 1015.24,-900.627"/>
<ellipse fill="none" stroke="black" cx="868.92" cy="-772.081" rx="4.00002" ry="4.00002"/>
<ellipse fill="none" stroke="black" cx="1018.02" cy="-903.969" rx="4.00002" ry="4.00002"/>
</g>
<!-- Powernet&#45;&gt;Мегафон -->
<g id="edge14" class="edge"><title>Powernet&#45;&gt;Мегафон</title>
<path fill="none" stroke="black" d="M876.244,-746.04C895.364,-740.994 918.179,-733.295 936.684,-722.142 971.788,-700.986 1004.31,-666.371 1024.41,-642.484"/>
<polygon fill="black" stroke="black" points="1027.32,-644.461 1030.99,-634.522 1021.92,-640.004 1027.32,-644.461"/>
</g>
<!-- Powernet&#45;&gt;Вымпелком -->
<g id="edge15" class="edge"><title>Powernet&#45;&gt;Вымпелком</title>
<path fill="none" stroke="black" d="M868.658,-740.588C890.623,-729.655 919.034,-712.287 936.684,-689.142 946.475,-676.303 1012.95,-457.93 1036.73,-379.175"/>
<polygon fill="black" stroke="black" points="1040.13,-380.027 1039.67,-369.442 1033.43,-378.005 1040.13,-380.027"/>
</g>
<!-- МКС -->
<g id="node21" class="node"><title>МКС</title>
<polygon fill="none" stroke="black" points="673.336,-580.472 603.491,-603.57 533.645,-580.472 533.711,-543.099 673.271,-543.099 673.336,-580.472"/>
<text text-anchor="middle" x="603.491" y="-573.942" font-family="Times New Roman,serif" font-size="14.00">МТС</text>
<text text-anchor="middle" x="603.491" y="-558.942" font-family="Times New Roman,serif" font-size="14.00">Волгоград</text>
</g>
<!-- МКС&#45;&gt;МТС -->
<g id="edge13" class="edge"><title>МКС&#45;&gt;МТС</title>
<path fill="none" stroke="black" d="M644.695,-590.047C670.361,-602.378 704.524,-618.102 735.553,-630.142 756.071,-638.104 779.481,-645.7 798.444,-651.492"/>
<polygon fill="black" stroke="black" points="797.611,-654.896 808.195,-654.432 799.631,-648.194 797.611,-654.896"/>
</g>
<!-- СпринтСеть -->
<g id="node27" class="node"><title>СпринтСеть</title>
<polygon fill="none" stroke="black" points="909.333,-483.705 836.119,-496.142 762.905,-483.705 762.973,-463.58 909.264,-463.58 909.333,-483.705"/>
<text text-anchor="middle" x="836.119" y="-474.442" font-family="Times New Roman,serif" font-size="14.00">СпринтСеть</text>
</g>
<!-- МКС&#45;&gt;СпринтСеть -->
<g id="edge60" class="edge"><title>МКС&#45;&gt;СпринтСеть</title>
<path fill="none" stroke="black" stroke-dasharray="1,5" d="M660.808,-539.19C683.572,-527.484 710.375,-514.694 735.553,-505.142 750.383,-499.516 766.869,-494.551 782.089,-490.464"/>
<ellipse fill="none" stroke="black" cx="657.117" cy="-541.105" rx="4.00002" ry="4.00002"/>
<ellipse fill="none" stroke="black" cx="786.049" cy="-489.423" rx="4.00001" ry="4.00001"/>
</g>
<!-- ГородокТочкаРу -->
<g id="node22" class="node"><title>ГородокТочкаРу</title>
<polygon fill="none" stroke="black" points="462.788,-1403.7 391.894,-1416.14 321,-1403.7 321.066,-1383.58 462.722,-1383.58 462.788,-1403.7"/>
<text text-anchor="middle" x="391.894" y="-1394.44" font-family="Times New Roman,serif" font-size="14.00">Городок.Ру</text>
</g>
<!-- ГородокТочкаРу&#45;&gt;Унико -->
<g id="edge52" class="edge"><title>ГородокТочкаРу&#45;&gt;Унико</title>
<path fill="none" stroke="black" d="M457.508,-1381.5C491.152,-1372.83 531.309,-1362.48 560.82,-1354.88"/>
<ellipse fill="black" stroke="black" cx="453.488" cy="-1382.53" rx="4.00001" ry="4.00001"/>
<polygon fill="black" stroke="black" points="561.976,-1358.19 570.786,-1352.31 560.229,-1351.42 561.976,-1358.19"/>
</g>
<!-- STARLINE -->
<g id="node23" class="node"><title>STARLINE</title>
<polygon fill="none" stroke="black" points="205.647,-758.705 138.18,-771.142 70.7135,-758.705 70.7765,-738.58 205.584,-738.58 205.647,-758.705"/>
<text text-anchor="middle" x="138.18" y="-749.442" font-family="Times New Roman,serif" font-size="14.00">STARLINE</text>
</g>
<!-- VSSA -->
<g id="node24" class="node"><title>VSSA</title>
<polygon fill="none" stroke="black" points="180.838,-812.705 138.18,-825.142 95.5225,-812.705 95.5623,-792.58 180.798,-792.58 180.838,-812.705"/>
<text text-anchor="middle" x="138.18" y="-803.442" font-family="Times New Roman,serif" font-size="14.00">VSSA</text>
</g>
<!-- ИнформационныйСервис -->
<g id="node25" class="node"><title>ИнформационныйСервис</title>
<polygon fill="none" stroke="black" points="276.541,-866.705 138.18,-879.142 -0.180374,-866.705 -0.0512311,-846.58 276.412,-846.58 276.541,-866.705"/>
<text text-anchor="middle" x="138.18" y="-857.442" font-family="Times New Roman,serif" font-size="14.00">ИнформационныйСервис</text>
</g>
<!-- Связьинформ&#45;&gt;Унико -->
<g id="edge36" class="edge"><title>Связьинформ&#45;&gt;Унико</title>
<path fill="none" stroke="black" d="M1168.2,-851.132C1152.28,-853.458 1135.37,-855.907 1119.65,-858.142 1077,-864.207 766.584,-881.256 735.553,-911.142 669.241,-975.01 725.357,-1026.76 699.553,-1115.14 677.56,-1190.47 638.684,-1274.64 618.122,-1316.86"/>
<ellipse fill="none" stroke="black" cx="1172.47" cy="-850.508" rx="4.00001" ry="4.00001"/>
<polygon fill="black" stroke="black" points="614.931,-1315.42 613.667,-1325.94 621.215,-1318.5 614.931,-1315.42"/>
</g>
<!-- Связьинформ&#45;&gt;Транстелеком -->
<g id="edge1" class="edge"><title>Связьинформ&#45;&gt;Транстелеком</title>
<path fill="none" stroke="black" d="M1243.1,-826.358C1269.19,-753.658 1384.03,-433.697 1418.75,-336.949"/>
<polygon fill="black" stroke="black" points="1422.14,-337.88 1422.22,-327.285 1415.55,-335.515 1422.14,-337.88"/>
</g>
<!-- СпринтСеть&#45;&gt;Мегафон -->
<g id="edge5" class="edge"><title>СпринтСеть&#45;&gt;Мегафон</title>
<path fill="none" stroke="black" d="M890.112,-486.983C905.802,-491.031 922.552,-496.846 936.684,-505.142 946.699,-511.021 992.42,-559.318 1021.22,-590.237"/>
<polygon fill="black" stroke="black" points="1018.77,-592.746 1028.14,-597.688 1023.9,-587.98 1018.77,-592.746"/>
</g>
<!-- СпринтСеть&#45;&gt;Вымпелком -->
<g id="edge4" class="edge"><title>СпринтСеть&#45;&gt;Вымпелком</title>
<path fill="none" stroke="black" d="M907.876,-463.512C917.856,-460.156 927.749,-456.079 936.684,-451.142 971.18,-432.083 1003.4,-399.812 1023.61,-377.094"/>
<polygon fill="black" stroke="black" points="1026.31,-379.33 1030.25,-369.495 1021.04,-374.726 1026.31,-379.33"/>
</g>
<!-- СпринтСеть&#45;&gt;Связьинформ -->
<g id="edge59" class="edge"><title>СпринтСеть&#45;&gt;Связьинформ</title>
<path fill="none" stroke="black" stroke-dasharray="1,5" d="M901.164,-488.091C964.358,-501.044 1059.93,-529.506 1119.65,-589.142 1187.02,-656.413 1219.59,-770.008 1230.94,-818.308"/>
<ellipse fill="none" stroke="black" cx="897.162" cy="-487.295" rx="4.00001" ry="4.00001"/>
<ellipse fill="none" stroke="black" cx="1231.87" cy="-822.378" rx="4.00001" ry="4.00001"/>
</g>
<!-- Старнет -->
<g id="node28" class="node"><title>Старнет</title>
<polygon fill="none" stroke="black" points="190.62,-650.705 138.18,-663.142 85.7407,-650.705 85.7897,-630.58 190.571,-630.58 190.62,-650.705"/>
<text text-anchor="middle" x="138.18" y="-641.442" font-family="Times New Roman,serif" font-size="14.00">Старнет</text>
</g>
<!-- Старнет&#45;&gt;Унико -->
<g id="edge38" class="edge"><title>Старнет&#45;&gt;Унико</title>
<path fill="none" stroke="black" d="M198.615,-641.268C226.397,-642.877 257.449,-650.235 276.36,-672.142 331.094,-735.549 251.734,-1367.34 312.36,-1425.14 386.138,-1495.48 515.759,-1411.75 573.418,-1367.79"/>
<ellipse fill="none" stroke="black" cx="194.495" cy="-641.108" rx="4" ry="4"/>
<polygon fill="black" stroke="black" points="575.626,-1370.51 581.388,-1361.62 571.339,-1364.97 575.626,-1370.51"/>
</g>
<!-- Старнет&#45;&gt;Транстелеком -->
<g id="edge6" class="edge"><title>Старнет&#45;&gt;Транстелеком</title>
<path fill="none" stroke="black" d="M139.688,-630.345C142.79,-563.616 164.443,-287.726 312.36,-144.142 377.539,-80.8729 419.828,-107.175 507.428,-83.1423 692.861,-32.2701 757.418,40.4043 936.684,-29.1423 1059.57,-76.8142 1040.32,-165.337 1155.65,-229.142 1221.15,-265.375 1246.18,-252.867 1317.93,-274.142 1336.46,-279.634 1356.63,-285.915 1374.62,-291.626"/>
<polygon fill="black" stroke="black" points="1373.78,-295.03 1384.37,-294.731 1375.9,-288.361 1373.78,-295.03"/>
</g>
<!-- Старнет&#45;&gt;КоламбияТелеком -->
<g id="edge37" class="edge"><title>Старнет&#45;&gt;КоламбияТелеком</title>
<path fill="none" stroke="black" d="M152.65,-623.54C195.835,-555.973 337.952,-346.366 507.428,-232.142 516.442,-226.067 526.667,-220.94 536.988,-216.658"/>
<ellipse fill="none" stroke="black" cx="150.471" cy="-626.972" rx="4.00002" ry="4.00002"/>
<polygon fill="black" stroke="black" points="538.418,-219.857 546.461,-212.961 535.873,-213.337 538.418,-219.857"/>
</g>
<!-- Магистраль -->
<g id="node43" class="node"><title>Магистраль</title>
<polygon fill="none" stroke="black" points="462.788,-759.705 391.894,-772.142 321,-759.705 321.066,-739.58 462.722,-739.58 462.788,-759.705"/>
<text text-anchor="middle" x="391.894" y="-750.442" font-family="Times New Roman,serif" font-size="14.00">Магистраль</text>
</g>
<!-- Старнет&#45;&gt;Магистраль -->
<g id="edge61" class="edge"><title>Старнет&#45;&gt;Магистраль</title>
<path fill="none" stroke="black" stroke-dasharray="1,5" d="M198.797,-651.228C223.515,-655.177 252.037,-661.633 276.36,-672.142 311.913,-687.503 347.309,-715.24 369.137,-734.162"/>
<ellipse fill="none" stroke="black" cx="194.526" cy="-650.582" rx="4.00001" ry="4.00001"/>
<ellipse fill="none" stroke="black" cx="372.188" cy="-736.845" rx="4.00002" ry="4.00002"/>
</g>
<!-- Экспилайн -->
<g id="node29" class="node"><title>Экспилайн</title>
<polygon fill="none" stroke="black" points="902.979,-851.705 836.119,-864.142 769.258,-851.705 769.321,-831.58 902.917,-831.58 902.979,-851.705"/>
<text text-anchor="middle" x="836.119" y="-842.442" font-family="Times New Roman,serif" font-size="14.00">Экспилайн</text>
</g>
<!-- Экспилайн&#45;&gt;Мегафон -->
<g id="edge7" class="edge"><title>Экспилайн&#45;&gt;Мегафон</title>
<path fill="none" stroke="black" d="M902.902,-832.828C914.999,-828.295 926.884,-822.235 936.684,-814.142 991.968,-768.489 1023.64,-686.989 1037.21,-644.177"/>
<polygon fill="black" stroke="black" points="1040.62,-645.004 1040.2,-634.418 1033.92,-642.952 1040.62,-645.004"/>
</g>
<!-- Экспилайн&#45;&gt;Связьинформ -->
<g id="edge62" class="edge"><title>Экспилайн&#45;&gt;Связьинформ</title>
<path fill="none" stroke="black" stroke-dasharray="1,5" d="M911.242,-845.213C978.061,-844.375 1076.43,-843.141 1147.34,-842.252"/>
<ellipse fill="none" stroke="black" cx="906.952" cy="-845.266" rx="4" ry="4"/>
<ellipse fill="none" stroke="black" cx="1151.41" cy="-842.201" rx="4" ry="4"/>
</g>
<!-- ЭРОС -->
<g id="node30" class="node"><title>ЭРОС</title>
<polygon fill="none" stroke="black" points="647.862,-1093.7 603.491,-1106.14 559.119,-1093.7 559.16,-1073.58 647.821,-1073.58 647.862,-1093.7"/>
<text text-anchor="middle" x="603.491" y="-1084.44" font-family="Times New Roman,serif" font-size="14.00">ЭРОС</text>
</g>
<!-- ЭРОС&#45;&gt;Волгатранстелеком -->
<g id="edge8" class="edge"><title>ЭРОС&#45;&gt;Волгатранстелеком</title>
<path fill="none" stroke="black" d="M647.87,-1080.24C678.999,-1074.57 721.774,-1066.78 758.582,-1060.08"/>
<polygon fill="black" stroke="black" points="759.58,-1063.46 768.791,-1058.22 758.326,-1056.57 759.58,-1063.46"/>
</g>
<!-- ЭРОС&#45;&gt;Мегафон -->
<g id="edge10" class="edge"><title>ЭРОС&#45;&gt;Мегафон</title>
<path fill="none" stroke="black" d="M622.183,-1073.26C643.849,-1054.02 680.062,-1018.43 699.553,-980.142 732.817,-914.799 682.852,-870.12 735.553,-819.142 800.941,-755.893 860.988,-831.601 936.684,-781.142 987.138,-747.51 1019.66,-681.589 1034.94,-644.05"/>
<polygon fill="black" stroke="black" points="1038.39,-644.852 1038.8,-634.265 1031.88,-642.287 1038.39,-644.852"/>
</g>
<!-- ЭРОС&#45;&gt;HE -->
<g id="edge9" class="edge"><title>ЭРОС&#45;&gt;HE</title>
<path fill="none" stroke="black" d="M628.854,-1099.36C654.966,-1111.19 697.769,-1130.03 735.553,-1144.14 758.149,-1152.58 784.105,-1160.88 803.849,-1166.91"/>
<polygon fill="black" stroke="black" points="802.972,-1170.3 813.557,-1169.84 804.998,-1163.6 802.972,-1170.3"/>
</g>
<!-- ЭРОС&#45;&gt;Tele2 -->
<g id="edge39" class="edge"><title>ЭРОС&#45;&gt;Tele2</title>
<path fill="none" stroke="black" d="M653.88,-1095.6C724.495,-1106.19 858.413,-1125.97 972.684,-1141.14 1051.21,-1151.57 1143.09,-1162.44 1194.87,-1168.45"/>
<ellipse fill="none" stroke="black" cx="649.544" cy="-1094.95" rx="4.00001" ry="4.00001"/>
<polygon fill="black" stroke="black" points="1194.65,-1171.94 1204.98,-1169.62 1195.45,-1164.99 1194.65,-1171.94"/>
</g>
<!-- Comrise -->
<g id="node31" class="node"><title>Comrise</title>
<polygon fill="none" stroke="black" points="443.226,-973.705 391.894,-986.142 340.562,-973.705 340.61,-953.58 443.178,-953.58 443.226,-973.705"/>
<text text-anchor="middle" x="391.894" y="-964.442" font-family="Times New Roman,serif" font-size="14.00">Comrise</text>
</g>
<!-- Comrise&#45;&gt;Унико -->
<g id="edge63" class="edge"><title>Comrise&#45;&gt;Унико</title>
<path fill="none" stroke="black" stroke-dasharray="1,5" d="M404.313,-991.639C420.945,-1026.6 451.964,-1094.69 471.428,-1155.14 493.369,-1223.29 459.382,-1259.07 507.428,-1312.14 520.3,-1326.36 539.69,-1334.27 557.609,-1338.66"/>
<ellipse fill="none" stroke="black" cx="402.525" cy="-987.901" rx="4.00002" ry="4.00002"/>
<ellipse fill="none" stroke="black" cx="561.802" cy="-1339.58" rx="4.00001" ry="4.00001"/>
</g>
<!-- Comrise&#45;&gt;Вымпелком -->
<g id="edge12" class="edge"><title>Comrise&#45;&gt;Вымпелком</title>
<path fill="none" stroke="black" d="M400.543,-953.577C416.41,-922.7 452.961,-848.007 471.428,-781.142 501.665,-671.664 456.537,-629.68 507.428,-528.142 571.517,-400.272 603.341,-355.715 735.553,-301.142 818.182,-267.036 849.369,-281.989 936.684,-301.142 962.858,-306.884 990.247,-319.567 1010.96,-330.722"/>
<polygon fill="black" stroke="black" points="1009.53,-333.932 1019.97,-335.709 1012.92,-327.807 1009.53,-333.932"/>
</g>
<!-- Comrise&#45;&gt;Ростелеком -->
<g id="edge11" class="edge"><title>Comrise&#45;&gt;Ростелеком</title>
<path fill="none" stroke="black" d="M398,-984.762C410.5,-1022.82 446.172,-1117.1 507.428,-1170.14 625.626,-1272.5 678.762,-1298.14 835.119,-1298.14 835.119,-1298.14 835.119,-1298.14 1047.17,-1298.14 1153.99,-1298.14 1277.64,-1298.14 1354.53,-1298.14"/>
<polygon fill="black" stroke="black" points="1354.6,-1301.64 1364.6,-1298.14 1354.6,-1294.64 1354.6,-1301.64"/>
</g>
<!-- Comrise&#45;&gt;Powernet -->
<g id="edge64" class="edge"><title>Comrise&#45;&gt;Powernet</title>
<path fill="none" stroke="black" stroke-dasharray="1,5" d="M424.284,-949.027C483.518,-913.513 616.538,-836.406 735.553,-786.142 753.249,-778.669 773.323,-771.907 790.788,-766.545"/>
<ellipse fill="none" stroke="black" cx="420.523" cy="-951.288" rx="4.00002" ry="4.00002"/>
<ellipse fill="none" stroke="black" cx="794.782" cy="-765.339" rx="4.00001" ry="4.00001"/>
</g>
<!-- Евротелеком&#45;&gt;Транстелеком -->
<g id="edge16" class="edge"><title>Евротелеком&#45;&gt;Транстелеком</title>
<path fill="none" stroke="black" d="M900.994,-247.592C1012.66,-260.615 1242.48,-287.42 1358.48,-300.948"/>
<polygon fill="black" stroke="black" points="1358.33,-304.454 1368.66,-302.136 1359.14,-297.501 1358.33,-304.454"/>
</g>
<!-- Евротелеком&#45;&gt;Вымпелком -->
<g id="edge17" class="edge"><title>Евротелеком&#45;&gt;Вымпелком</title>
<path fill="none" stroke="black" d="M881.585,-250.822C899.294,-255.989 919.506,-263.068 936.684,-272.142 954.607,-281.61 956.391,-288.085 972.684,-300.142 985.648,-309.736 1000.15,-320.023 1012.75,-328.827"/>
<polygon fill="black" stroke="black" points="1010.92,-331.82 1021.13,-334.659 1014.92,-326.074 1010.92,-331.82"/>
</g>
<!-- Virgin -->
<g id="node33" class="node"><title>Virgin</title>
<polygon fill="none" stroke="black" points="643.829,-958.705 603.491,-971.142 563.153,-958.705 563.19,-938.58 643.791,-938.58 643.829,-958.705"/>
<text text-anchor="middle" x="603.491" y="-949.442" font-family="Times New Roman,serif" font-size="14.00">Virgin</text>
</g>
<!-- Virgin&#45;&gt;Волгатранстелеком -->
<g id="edge57" class="edge"><title>Virgin&#45;&gt;Волгатранстелеком</title>
<path fill="none" stroke="black" d="M631.599,-968.829C657.604,-983.382 698.308,-1004.88 735.553,-1019.14 745.06,-1022.78 755.252,-1026.14 765.358,-1029.15"/>
<ellipse fill="black" stroke="black" cx="627.829" cy="-966.702" rx="4.00002" ry="4.00002"/>
<polygon fill="black" stroke="black" points="764.417,-1032.52 774.996,-1031.94 766.362,-1025.8 764.417,-1032.52"/>
</g>
<!-- Virgin&#45;&gt;Мегафон -->
<g id="edge22" class="edge"><title>Virgin&#45;&gt;Мегафон</title>
<path fill="none" stroke="black" d="M608.381,-938.331C619.972,-897.332 658.367,-781.782 735.553,-727.142 809.805,-674.58 852.526,-723.689 936.684,-689.142 965.663,-677.247 994.92,-656.966 1015.74,-640.795"/>
<polygon fill="black" stroke="black" points="1018.17,-643.331 1023.84,-634.378 1013.83,-637.844 1018.17,-643.331"/>
</g>
<!-- Virgin&#45;&gt;Вымпелком -->
<g id="edge21" class="edge"><title>Virgin&#45;&gt;Вымпелком</title>
<path fill="none" stroke="black" d="M609.408,-938.366C624.901,-891.287 673.231,-740.376 699.553,-612.142 711.68,-553.063 690.167,-382.859 735.553,-343.142 811.377,-276.79 942.081,-311.858 1006.7,-335.424"/>
<polygon fill="black" stroke="black" points="1005.52,-338.72 1016.12,-338.948 1007.98,-332.164 1005.52,-338.72"/>
</g>
<!-- Virgin&#45;&gt;Ростелеком -->
<g id="edge23" class="edge"><title>Virgin&#45;&gt;Ростелеком</title>
<path fill="none" stroke="black" d="M615.204,-967.64C635.436,-993.787 682.067,-1048.42 735.553,-1073.14 853.945,-1127.87 1205.58,-1079.89 1317.93,-1146.14 1367.17,-1175.18 1400.88,-1235.57 1417.27,-1270.86"/>
<polygon fill="black" stroke="black" points="1414.14,-1272.43 1421.44,-1280.11 1420.52,-1269.55 1414.14,-1272.43"/>
</g>
<!-- Энфорта -->
<g id="node34" class="node"><title>Энфорта</title>
<polygon fill="none" stroke="black" points="1293.27,-207.705 1236.79,-220.142 1180.32,-207.705 1180.37,-187.58 1293.21,-187.58 1293.27,-207.705"/>
<text text-anchor="middle" x="1236.79" y="-198.442" font-family="Times New Roman,serif" font-size="14.00">Энфорта</text>
</g>
<!-- Энфорта&#45;&gt;Транстелеком -->
<g id="edge26" class="edge"><title>Энфорта&#45;&gt;Транстелеком</title>
<path fill="none" stroke="black" d="M1269.71,-213.082C1284.69,-218.669 1302.58,-226.002 1317.93,-234.142 1345.84,-248.934 1375.35,-269.168 1396.9,-284.891"/>
<polygon fill="black" stroke="black" points="1394.91,-287.773 1405.03,-290.891 1399.06,-282.139 1394.91,-287.773"/>
</g>
<!-- WMAX -->
<g id="node35" class="node"><title>WMAX</title>
<polygon fill="none" stroke="black" points="653.11,-115.705 603.491,-128.142 553.872,-115.705 553.918,-95.58 653.063,-95.58 653.11,-115.705"/>
<text text-anchor="middle" x="603.491" y="-106.442" font-family="Times New Roman,serif" font-size="14.00">WMAX</text>
</g>
<!-- WMAX&#45;&gt;Релком -->
<g id="edge31" class="edge"><title>WMAX&#45;&gt;Релком</title>
<path fill="none" stroke="black" d="M653.119,-98.7563C693.724,-89.2488 751.138,-75.8059 790.563,-66.5748"/>
<polygon fill="black" stroke="black" points="791.488,-69.9529 800.427,-64.2653 789.892,-63.1373 791.488,-69.9529"/>
</g>
<!-- WMAX&#45;&gt;Мегафон -->
<g id="edge29" class="edge"><title>WMAX&#45;&gt;Мегафон</title>
<path fill="none" stroke="black" d="M633.822,-120.702C655.849,-130.28 684.677,-146.681 699.553,-171.142 744.548,-245.127 676.506,-495.804 735.553,-559.142 766.438,-592.272 892.207,-583.581 936.684,-592.142 956.353,-595.929 977.914,-600.592 996.597,-604.798"/>
<polygon fill="black" stroke="black" points="995.837,-608.214 1006.36,-607.013 997.385,-601.388 995.837,-608.214"/>
</g>
<!-- WMAX&#45;&gt;WestCall -->
<g id="edge30" class="edge"><title>WMAX&#45;&gt;WestCall</title>
<path fill="none" stroke="black" d="M653.119,-110.142C688.513,-110.142 736.677,-110.142 774.568,-110.142"/>
<polygon fill="black" stroke="black" points="774.963,-113.642 784.963,-110.142 774.963,-106.642 774.963,-113.642"/>
</g>
<!-- InstrNet -->
<g id="node36" class="node"><title>InstrNet</title>
<polygon fill="none" stroke="black" points="885.738,-943.705 836.119,-956.142 786.5,-943.705 786.546,-923.58 885.691,-923.58 885.738,-943.705"/>
<text text-anchor="middle" x="836.119" y="-934.442" font-family="Times New Roman,serif" font-size="14.00">InstrNet</text>
</g>
<!-- InstrNet&#45;&gt;ЭрТелеком -->
<g id="edge45" class="edge"><title>InstrNet&#45;&gt;ЭрТелеком</title>
<path fill="none" stroke="black" d="M893.953,-938.142C915.099,-938.142 939.546,-938.142 962.537,-938.142"/>
<ellipse fill="none" stroke="black" cx="889.897" cy="-938.142" rx="4" ry="4"/>
<polygon fill="black" stroke="black" points="962.632,-941.642 972.632,-938.142 962.632,-934.642 962.632,-941.642"/>
</g>
<!-- InstrNet&#45;&gt;Мегафон -->
<g id="edge32" class="edge"><title>InstrNet&#45;&gt;Мегафон</title>
<path fill="none" stroke="black" d="M869.439,-923.378C890.915,-912.186 918.421,-895.005 936.684,-873.142 995.817,-802.354 1027.01,-694.65 1039.1,-644.137"/>
<polygon fill="black" stroke="black" points="1042.55,-644.793 1041.4,-634.26 1035.73,-643.209 1042.55,-644.793"/>
</g>
<!-- ТСвязь -->
<g id="node37" class="node"><title>ТСвязь</title>
<polygon fill="none" stroke="black" points="885.738,-375.705 836.119,-388.142 786.5,-375.705 786.546,-355.58 885.691,-355.58 885.738,-375.705"/>
<text text-anchor="middle" x="836.119" y="-366.442" font-family="Times New Roman,serif" font-size="14.00">ТСвязь</text>
</g>
<!-- ТСвязь&#45;&gt;Мегафон -->
<g id="edge33" class="edge"><title>ТСвязь&#45;&gt;Мегафон</title>
<path fill="none" stroke="black" d="M885.773,-374.942C903.346,-378.708 922.362,-385.374 936.684,-397.142 998.096,-447.605 1027.72,-541.484 1039.2,-588.217"/>
<polygon fill="black" stroke="black" points="1035.79,-589.041 1041.49,-597.972 1042.61,-587.436 1035.79,-589.041"/>
</g>
<!-- ТСвязь&#45;&gt;Вымпелком -->
<g id="edge34" class="edge"><title>ТСвязь&#45;&gt;Вымпелком</title>
<path fill="none" stroke="black" d="M885.897,-365.688C918.735,-362.689 961.92,-358.745 995.037,-355.721"/>
<polygon fill="black" stroke="black" points="995.769,-359.168 1005.41,-354.773 995.133,-352.197 995.769,-359.168"/>
</g>
<!-- Восток -->
<g id="node38" class="node"><title>Восток</title>
<polygon fill="none" stroke="black" points="884.524,-537.705 836.119,-550.142 787.713,-537.705 787.758,-517.58 884.479,-517.58 884.524,-537.705"/>
<text text-anchor="middle" x="836.119" y="-528.442" font-family="Times New Roman,serif" font-size="14.00">Восток</text>
</g>
<!-- Восток&#45;&gt;Мегафон -->
<g id="edge35" class="edge"><title>Восток&#45;&gt;Мегафон</title>
<path fill="none" stroke="black" d="M870.252,-541.557C889.812,-547.419 914.924,-555.477 936.684,-564.142 960.41,-573.591 986.22,-585.876 1006.71,-596.133"/>
<polygon fill="black" stroke="black" points="1005.22,-599.301 1015.73,-600.686 1008.38,-593.053 1005.22,-599.301"/>
</g>
<!-- SmIT34 -->
<g id="node39" class="node"><title>SmIT34</title>
<polygon fill="none" stroke="black" points="441.513,-230.705 391.894,-243.142 342.275,-230.705 342.322,-210.58 441.467,-210.58 441.513,-230.705"/>
<text text-anchor="middle" x="391.894" y="-221.442" font-family="Times New Roman,serif" font-size="14.00">SmIT34</text>
</g>
<!-- SmIT34&#45;&gt;КоламбияТелеком -->
<g id="edge47" class="edge"><title>SmIT34&#45;&gt;КоламбияТелеком</title>
<path fill="none" stroke="black" d="M449.524,-217.847C471.611,-215.002 497.345,-211.687 521.335,-208.597"/>
<ellipse fill="none" stroke="black" cx="445.474" cy="-218.369" rx="4.00001" ry="4.00001"/>
<polygon fill="black" stroke="black" points="522.023,-212.037 531.494,-207.288 521.129,-205.094 522.023,-212.037"/>
</g>
<!-- ВолгаЛинк -->
<g id="node40" class="node"><title>ВолгаЛинк</title>
<polygon fill="none" stroke="black" points="1303.65,-1495.7 1236.79,-1508.14 1169.93,-1495.7 1170,-1475.58 1303.59,-1475.58 1303.65,-1495.7"/>
<text text-anchor="middle" x="1236.79" y="-1486.44" font-family="Times New Roman,serif" font-size="14.00">ВолгаЛинк</text>
</g>
<!-- ВолгаЛинк&#45;&gt;Ростелеком -->
<g id="edge48" class="edge"><title>ВолгаЛинк&#45;&gt;Ростелеком</title>
<path fill="none" stroke="black" d="M1303.94,-1471.9C1308.89,-1469.34 1313.62,-1466.44 1317.93,-1463.14 1366.06,-1426.39 1400.28,-1362.48 1417.03,-1325.92"/>
<ellipse fill="black" stroke="black" cx="1300.17" cy="-1473.69" rx="4.00002" ry="4.00002"/>
<polygon fill="black" stroke="black" points="1420.41,-1326.94 1421.29,-1316.38 1414.02,-1324.09 1420.41,-1326.94"/>
</g>
<!-- Волгателком -->
<g id="node41" class="node"><title>Волгателком</title>
<polygon fill="none" stroke="black" points="467.428,-176.705 391.894,-189.142 316.36,-176.705 316.431,-156.58 467.358,-156.58 467.428,-176.705"/>
<text text-anchor="middle" x="391.894" y="-167.442" font-family="Times New Roman,serif" font-size="14.00">Волгателком</text>
</g>
<!-- Волгателком&#45;&gt;КоламбияТелеком -->
<g id="edge49" class="edge"><title>Волгателком&#45;&gt;КоламбияТелеком</title>
<path fill="none" stroke="black" d="M461.9,-180.032C480.902,-182.479 501.687,-185.157 521.307,-187.684"/>
<ellipse fill="black" stroke="black" cx="457.767" cy="-179.499" rx="4.00001" ry="4.00001"/>
<polygon fill="black" stroke="black" points="521.081,-191.184 531.446,-188.99 521.975,-184.241 521.081,-191.184"/>
</g>
<!-- ИнсаткомВ -->
<g id="node42" class="node"><title>ИнсаткомВ</title>
<polygon fill="none" stroke="black" points="1304.87,-1441.7 1236.79,-1454.14 1168.72,-1441.7 1168.78,-1421.58 1304.8,-1421.58 1304.87,-1441.7"/>
<text text-anchor="middle" x="1236.79" y="-1432.44" font-family="Times New Roman,serif" font-size="14.00">ИнсаткомВ</text>
</g>
<!-- ИнсаткомВ&#45;&gt;Ростелеком -->
<g id="edge50" class="edge"><title>ИнсаткомВ&#45;&gt;Ростелеком</title>
<path fill="none" stroke="black" d="M1290.84,-1418.32C1300.18,-1414.25 1309.58,-1409.51 1317.93,-1404.14 1352.58,-1381.86 1385.83,-1347.78 1406.71,-1324.31"/>
<ellipse fill="black" stroke="black" cx="1287.07" cy="-1419.89" rx="4.00002" ry="4.00002"/>
<polygon fill="black" stroke="black" points="1409.6,-1326.32 1413.56,-1316.49 1404.34,-1321.7 1409.6,-1326.32"/>
</g>
<!-- Магистраль&#45;&gt;Унико -->
<g id="edge51" class="edge"><title>Магистраль&#45;&gt;Унико</title>
<path fill="none" stroke="black" d="M405.53,-777.904C423.4,-812.682 455.635,-879.967 471.428,-941.142 508.639,-1085.28 433.218,-1145.1 507.428,-1274.14 520.868,-1297.51 545.593,-1315.35 566.459,-1327.16"/>
<ellipse fill="black" stroke="black" cx="403.577" cy="-774.139" rx="4.00002" ry="4.00002"/>
<polygon fill="black" stroke="black" points="564.959,-1330.33 575.419,-1332.01 568.29,-1324.18 564.959,-1330.33"/>
</g>
<!-- Магистраль&#45;&gt;ЮТК -->
<g id="edge68" class="edge"><title>Магистраль&#45;&gt;ЮТК</title>
<path fill="none" stroke="black" stroke-dasharray="1,5" d="M404.745,-778.128C421.649,-813.179 452.708,-880.798 471.428,-941.142 494.827,-1016.57 456.353,-1054.91 507.428,-1115.14 577.712,-1198.03 628.718,-1183.25 735.553,-1203.14 823.434,-1219.5 849.294,-1221.95 936.684,-1203.14 1030.42,-1182.97 1130.19,-1130.97 1187.54,-1097.71"/>
<ellipse fill="none" stroke="black" cx="402.91" cy="-774.349" rx="4.00002" ry="4.00002"/>
<ellipse fill="none" stroke="black" cx="1191.21" cy="-1095.57" rx="4.00002" ry="4.00002"/>
</g>
<!-- Магистраль&#45;&gt;Powernet -->
<g id="edge67" class="edge"><title>Магистраль&#45;&gt;Powernet</title>
<path fill="none" stroke="black" stroke-dasharray="1,5" d="M470.992,-754.142C558.179,-754.142 697.327,-754.142 775.961,-754.142"/>
<ellipse fill="none" stroke="black" cx="466.966" cy="-754.142" rx="4" ry="4"/>
<ellipse fill="none" stroke="black" cx="780.31" cy="-754.142" rx="4" ry="4"/>
</g>
<!-- Магистраль&#45;&gt;Евротелеком -->
<g id="edge69" class="edge"><title>Магистраль&#45;&gt;Евротелеком</title>
<path fill="none" stroke="black" stroke-dasharray="1,5" d="M396.75,-731.174C412.347,-639.517 471.641,-303.367 507.428,-272.142 542.686,-241.379 666.871,-236.876 751.82,-237.627"/>
<ellipse fill="none" stroke="black" cx="396.048" cy="-735.318" rx="4.00001" ry="4.00001"/>
<ellipse fill="none" stroke="black" cx="755.914" cy="-237.671" rx="4" ry="4"/>
</g>
<!-- ФорумNet -->
<g id="node44" class="node"><title>ФорумNet</title>
<polygon fill="none" stroke="black" points="453.614,-1349.7 391.894,-1362.14 330.174,-1349.7 330.232,-1329.58 453.556,-1329.58 453.614,-1349.7"/>
<text text-anchor="middle" x="391.894" y="-1340.44" font-family="Times New Roman,serif" font-size="14.00">ФорумNet</text>
</g>
<!-- ФорумNet&#45;&gt;Унико -->
<g id="edge53" class="edge"><title>ФорумNet&#45;&gt;Унико</title>
<path fill="none" stroke="black" d="M462.035,-1344.14C491.06,-1344.14 524.228,-1344.14 551.042,-1344.14"/>
<ellipse fill="black" stroke="black" cx="457.8" cy="-1344.14" rx="4" ry="4"/>
<polygon fill="black" stroke="black" points="551.36,-1347.64 561.36,-1344.14 551.359,-1340.64 551.36,-1347.64"/>
</g>
<!-- ByteS -->
<g id="node45" class="node"><title>ByteS</title>
<polygon fill="none" stroke="black" points="432.232,-1295.7 391.894,-1308.14 351.556,-1295.7 351.594,-1275.58 432.195,-1275.58 432.232,-1295.7"/>
<text text-anchor="middle" x="391.894" y="-1286.44" font-family="Times New Roman,serif" font-size="14.00">ByteS</text>
</g>
<!-- ByteS&#45;&gt;Унико -->
<g id="edge54" class="edge"><title>ByteS&#45;&gt;Унико</title>
<path fill="none" stroke="black" d="M432.247,-1300.28C468.923,-1309.73 523.43,-1323.77 560.831,-1333.41"/>
<ellipse fill="black" stroke="black" cx="428.146" cy="-1299.22" rx="4.00001" ry="4.00001"/>
<polygon fill="black" stroke="black" points="560.34,-1336.9 570.897,-1336 562.087,-1330.12 560.34,-1336.9"/>
</g>
<!-- АвантекПлюс -->
<g id="node46" class="node"><title>АвантекПлюс</title>
<polygon fill="none" stroke="black" points="471.462,-1241.7 391.894,-1254.14 312.326,-1241.7 312.401,-1221.58 471.388,-1221.58 471.462,-1241.7"/>
<text text-anchor="middle" x="391.894" y="-1232.44" font-family="Times New Roman,serif" font-size="14.00">АвантекПлюс</text>
</g>
<!-- АвантекПлюс&#45;&gt;Унико -->
<g id="edge55" class="edge"><title>АвантекПлюс&#45;&gt;Унико</title>
<path fill="none" stroke="black" d="M446.851,-1249.79C455.526,-1253.33 464.062,-1257.72 471.428,-1263.14 493.198,-1279.15 485.607,-1296.2 507.428,-1312.14 522.474,-1323.13 541.549,-1330.53 558.658,-1335.41"/>
<ellipse fill="black" stroke="black" cx="442.958" cy="-1248.32" rx="4.00001" ry="4.00001"/>
<polygon fill="black" stroke="black" points="557.896,-1338.83 568.458,-1338 559.686,-1332.06 557.896,-1338.83"/>
</g>
<!-- Robor -->
<g id="node47" class="node"><title>Robor</title>
<polygon fill="none" stroke="black" points="1279.45,-337.705 1236.79,-350.142 1194.14,-337.705 1194.18,-317.58 1279.41,-317.58 1279.45,-337.705"/>
<text text-anchor="middle" x="1236.79" y="-328.442" font-family="Times New Roman,serif" font-size="14.00">Robor</text>
</g>
<!-- Robor&#45;&gt;Транстелеком -->
<g id="edge56" class="edge"><title>Robor&#45;&gt;Транстелеком</title>
<path fill="none" stroke="black" d="M1287.92,-326.104C1309.72,-323.479 1335.62,-320.359 1359.22,-317.515"/>
<ellipse fill="black" stroke="black" cx="1283.67" cy="-326.616" rx="4.00001" ry="4.00001"/>
<polygon fill="black" stroke="black" points="1359.67,-320.987 1369.18,-316.316 1358.83,-314.037 1359.67,-320.987"/>
</g>
<!-- ВистОнЛайн -->
<g id="node48" class="node"><title>ВистОнЛайн</title>
<polygon fill="none" stroke="black" points="468.035,-1187.7 391.894,-1200.14 315.753,-1187.7 315.824,-1167.58 467.964,-1167.58 468.035,-1187.7"/>
<text text-anchor="middle" x="391.894" y="-1178.44" font-family="Times New Roman,serif" font-size="14.00">ВистОнЛайн</text>
</g>
<!-- ВистОнЛайн&#45;&gt;Унико -->
<g id="edge58" class="edge"><title>ВистОнЛайн&#45;&gt;Унико</title>
<path fill="none" stroke="black" d="M450.921,-1195.22C458.477,-1198.79 465.602,-1203.35 471.428,-1209.14 505.805,-1243.34 472.941,-1278.05 507.428,-1312.14 520.576,-1325.14 539.167,-1332.86 556.427,-1337.44"/>
<ellipse fill="black" stroke="black" cx="446.933" cy="-1193.52" rx="4.00001" ry="4.00001"/>
<polygon fill="black" stroke="black" points="555.846,-1340.9 566.383,-1339.8 557.457,-1334.09 555.846,-1340.9"/>
</g>
</g>
</svg>
