<?xml version="1.0" encoding="UTF-8" standalone="no"?>
<!DOCTYPE svg PUBLIC "-//W3C//DTD SVG 1.1//EN"
 "http://www.w3.org/Graphics/SVG/1.1/DTD/svg11.dtd">
<!-- Generated by graphviz version 2.38.0 (20140413.2041)
 -->
<!-- Title: ispgraph Pages: 1 -->
<svg width="1454pt" height="1433pt"
 viewBox="0.00 0.00 1454.01 1433.00" xmlns="http://www.w3.org/2000/svg" xmlns:xlink="http://www.w3.org/1999/xlink">
<g id="graph0" class="graph" transform="scale(1 1) rotate(0) translate(4 1429)">
<title>ispgraph</title>
<polygon fill="white" stroke="none" points="-4,4 -4,-1429 1450.01,-1429 1450.01,4 -4,4"/>
<!-- Унико -->
<g id="node1" class="node"><title>Унико</title>
<polygon fill="none" stroke="black" points="600.899,-1276 579.871,-1294 537.817,-1294 516.789,-1276 537.817,-1258 579.871,-1258 600.899,-1276"/>
<text text-anchor="middle" x="558.844" y="-1272.3" font-family="Times New Roman,serif" font-size="14.00">Унико</text>
</g>
<!-- ЭрТелеком -->
<g id="node3" class="node"><title>ЭрТелеком</title>
<polygon fill="none" stroke="black" points="1057.28,-911 1020.55,-942.054 947.078,-942.054 910.343,-911 947.078,-879.946 1020.55,-879.946 1057.28,-911"/>
<text text-anchor="middle" x="983.812" y="-914.8" font-family="Times New Roman,serif" font-size="14.00">ЭР&#45;Телеком</text>
<text text-anchor="middle" x="983.812" y="-899.8" font-family="Times New Roman,serif" font-size="14.00">транзит</text>
</g>
<!-- Унико&#45;&gt;ЭрТелеком -->
<g id="edge73" class="edge"><title>Унико&#45;&gt;ЭрТелеком</title>
<path fill="none" stroke="black" stroke-dasharray="1,5" d="M608.079,-1274.5C677.241,-1269.6 803.697,-1249.92 871.492,-1173 926.588,-1110.49 868.971,-1062.89 907.492,-989 915.494,-973.651 927.465,-959.265 939.522,-947.13"/>
<ellipse fill="none" stroke="black" cx="603.928" cy="-1274.77" rx="4" ry="4"/>
<ellipse fill="none" stroke="black" cx="942.569" cy="-944.155" rx="4.00002" ry="4.00002"/>
</g>
<!-- Ростелеком -->
<g id="node10" class="node"><title>Ростелеком</title>
<polygon fill="none" stroke="black" points="1435.3,-1146 1402.76,-1164 1337.67,-1164 1305.13,-1146 1337.67,-1128 1402.76,-1128 1435.3,-1146"/>
<text text-anchor="middle" x="1370.21" y="-1142.3" font-family="Times New Roman,serif" font-size="14.00">Ростелеком</text>
</g>
<!-- Унико&#45;&gt;Ростелеком -->
<g id="edge24" class="edge"><title>Унико&#45;&gt;Ростелеком</title>
<path fill="none" stroke="black" d="M569.868,-1294.02C586.518,-1321.86 622.806,-1374.26 670.361,-1395 752.302,-1430.73 783.357,-1409.93 871.492,-1395 1051.06,-1364.57 1104.85,-1357.93 1258.41,-1260 1295.42,-1236.4 1329.21,-1198.13 1349.49,-1172.52"/>
<polygon fill="black" stroke="black" points="1352.46,-1174.41 1355.84,-1164.36 1346.94,-1170.11 1352.46,-1174.41"/>
</g>
<!-- КвантТелеком -->
<g id="node12" class="node"><title>КвантТелеком</title>
<polygon fill="none" stroke="black" points="849.028,-1314 809.977,-1332 731.876,-1332 692.825,-1314 731.876,-1296 809.977,-1296 849.028,-1314"/>
<text text-anchor="middle" x="770.927" y="-1310.3" font-family="Times New Roman,serif" font-size="14.00">КвантТелеком</text>
</g>
<!-- Унико&#45;&gt;КвантТелеком -->
<g id="edge26" class="edge"><title>Унико&#45;&gt;КвантТелеком</title>
<path fill="none" stroke="black" d="M594.065,-1282.19C623.822,-1287.57 667.774,-1295.52 704.292,-1302.13"/>
<polygon fill="black" stroke="black" points="703.914,-1305.62 714.378,-1303.95 705.16,-1298.73 703.914,-1305.62"/>
</g>
<!-- Powernet -->
<g id="node19" class="node"><title>Powernet</title>
<polygon fill="none" stroke="black" points="822.495,-416 796.711,-434 745.142,-434 719.358,-416 745.142,-398 796.711,-398 822.495,-416"/>
<text text-anchor="middle" x="770.927" y="-412.3" font-family="Times New Roman,serif" font-size="14.00">Powernet</text>
</g>
<!-- Унико&#45;&gt;Powernet -->
<g id="edge43" class="edge"><title>Унико&#45;&gt;Powernet</title>
<path fill="none" stroke="black" d="M567.951,-1250.27C583.872,-1204.62 619.009,-1107.24 634.361,-1022 645.964,-957.581 629.022,-484.749 670.361,-434 682.434,-419.179 701.747,-412.023 720.165,-409.369"/>
<ellipse fill="none" stroke="black" cx="566.609" cy="-1254.14" rx="4.00001" ry="4.00001"/>
<polygon fill="black" stroke="black" points="720.661,-412.837 730.253,-408.338 719.949,-405.873 720.661,-412.837"/>
</g>
<!-- RETN -->
<g id="node20" class="node"><title>RETN</title>
<polygon fill="none" stroke="black" points="810.48,-1368 790.703,-1386 751.15,-1386 731.373,-1368 751.15,-1350 790.703,-1350 810.48,-1368"/>
<text text-anchor="middle" x="770.927" y="-1364.3" font-family="Times New Roman,serif" font-size="14.00">RETN</text>
</g>
<!-- Унико&#45;&gt;RETN -->
<g id="edge25" class="edge"><title>Унико&#45;&gt;RETN</title>
<path fill="none" stroke="black" d="M582.608,-1291.84C604.316,-1306.34 638.354,-1327.53 670.361,-1341 688.887,-1348.79 710.303,-1354.94 728.515,-1359.39"/>
<polygon fill="black" stroke="black" points="727.729,-1362.8 738.265,-1361.69 729.334,-1355.99 727.729,-1362.8"/>
</g>
<!-- ДомРу -->
<g id="node2" class="node"><title>ДомРу</title>
<polygon fill="none" stroke="black" points="824.997,-1000 797.962,-1018 743.891,-1018 716.856,-1000 743.891,-982 797.962,-982 824.997,-1000"/>
<text text-anchor="middle" x="770.927" y="-996.3" font-family="Times New Roman,serif" font-size="14.00">ДОМ.RU</text>
</g>
<!-- ДомРу&#45;&gt;ЭрТелеком -->
<g id="edge46" class="edge"><title>ДомРу&#45;&gt;ЭрТелеком</title>
<path fill="none" stroke="black" d="M817.06,-987.194C834.315,-981.858 854.032,-975.22 871.492,-968 891.06,-959.908 911.874,-949.71 930.146,-940.184"/>
<ellipse fill="none" stroke="black" cx="813.149" cy="-988.385" rx="4.00001" ry="4.00001"/>
<polygon fill="black" stroke="black" points="931.956,-943.186 939.17,-935.426 928.692,-936.994 931.956,-943.186"/>
</g>
<!-- ЮТК -->
<g id="node15" class="node"><title>ЮТК</title>
<polygon fill="none" stroke="black" points="1248.34,-1041 1212.81,-1072.05 1141.74,-1072.05 1106.2,-1041 1141.74,-1009.95 1212.81,-1009.95 1248.34,-1041"/>
<text text-anchor="middle" x="1177.27" y="-1044.8" font-family="Times New Roman,serif" font-size="14.00">Ростелеком</text>
<text text-anchor="middle" x="1177.27" y="-1029.8" font-family="Times New Roman,serif" font-size="14.00">Волгоград</text>
</g>
<!-- ЭрТелеком&#45;&gt;ЮТК -->
<g id="edge78" class="edge"><title>ЭрТелеком&#45;&gt;ЮТК</title>
<path fill="none" stroke="black" stroke-dasharray="1,5" d="M1028.11,-946.321C1048.3,-962.195 1072.94,-980.745 1096.13,-996 1105.36,-1002.07 1115.45,-1008.15 1125.27,-1013.78"/>
<ellipse fill="none" stroke="black" cx="1024.86" cy="-943.75" rx="4.00002" ry="4.00002"/>
<ellipse fill="none" stroke="black" cx="1128.88" cy="-1015.83" rx="4.00002" ry="4.00002"/>
</g>
<!-- Связьинформ -->
<g id="node25" class="node"><title>Связьинформ</title>
<polygon fill="none" stroke="black" points="1258.56,-765.562 1177.27,-778 1095.99,-765.562 1096.07,-745.438 1258.48,-745.438 1258.56,-765.562"/>
<text text-anchor="middle" x="1177.27" y="-756.3" font-family="Times New Roman,serif" font-size="14.00">Связьинформ</text>
</g>
<!-- ЭрТелеком&#45;&gt;Связьинформ -->
<g id="edge79" class="edge"><title>ЭрТелеком&#45;&gt;Связьинформ</title>
<path fill="none" stroke="black" stroke-dasharray="1,5" d="M1038.79,-884.679C1046.16,-880.416 1053.47,-875.811 1060.13,-871 1097.49,-844.017 1135.01,-805.624 1156.92,-781.79"/>
<ellipse fill="none" stroke="black" cx="1034.91" cy="-886.861" rx="4.00002" ry="4.00002"/>
<ellipse fill="none" stroke="black" cx="1159.71" cy="-778.725" rx="4.00002" ry="4.00002"/>
</g>
<!-- Транстелеком -->
<g id="node4" class="node"><title>Транстелеком</title>
<polygon fill="none" stroke="black" points="1445.81,-317 1408.01,-335 1332.41,-335 1294.61,-317 1332.41,-299 1408.01,-299 1445.81,-317"/>
<text text-anchor="middle" x="1370.21" y="-313.3" font-family="Times New Roman,serif" font-size="14.00">Транстелеком</text>
</g>
<!-- Волгатранстелеком -->
<g id="node5" class="node"><title>Волгатранстелеком</title>
<polygon fill="none" stroke="black" points="871.558,-1054 821.242,-1072 720.611,-1072 670.295,-1054 720.611,-1036 821.242,-1036 871.558,-1054"/>
<text text-anchor="middle" x="770.927" y="-1050.3" font-family="Times New Roman,serif" font-size="14.00">Волгатранстелеком</text>
</g>
<!-- Волгатранстелеком&#45;&gt;ЭрТелеком -->
<g id="edge76" class="edge"><title>Волгатранстелеком&#45;&gt;ЭрТелеком</title>
<path fill="none" stroke="black" stroke-dasharray="1,5" d="M849.174,-1040.21C857.204,-1036.74 864.845,-1032.41 871.492,-1027 898.932,-1004.67 883.356,-981.869 907.492,-956 913.906,-949.126 921.605,-942.951 929.596,-937.537"/>
<ellipse fill="none" stroke="black" cx="845.427" cy="-1041.69" rx="4.00001" ry="4.00001"/>
<ellipse fill="none" stroke="black" cx="932.997" cy="-935.341" rx="4.00002" ry="4.00002"/>
</g>
<!-- Волгатранстелеком&#45;&gt;Транстелеком -->
<g id="edge45" class="edge"><title>Волгатранстелеком&#45;&gt;Транстелеком</title>
<path fill="none" stroke="black" d="M845.224,-1039.13C854.392,-1035.84 863.384,-1031.84 871.492,-1027 891.463,-1015.07 887.398,-1000.72 907.492,-989 967.875,-953.766 995.581,-977.845 1060.13,-951 1155.24,-911.446 1198.61,-914.869 1258.41,-831 1315.57,-750.845 1355.07,-440.89 1366.09,-345.26"/>
<ellipse fill="none" stroke="black" cx="841.288" cy="-1040.45" rx="4.00001" ry="4.00001"/>
<polygon fill="black" stroke="black" points="1369.58,-345.516 1367.24,-335.184 1362.63,-344.724 1369.58,-345.516"/>
</g>
<!-- Волгатранстелеком&#45;&gt;ЮТК -->
<g id="edge75" class="edge"><title>Волгатранстелеком&#45;&gt;ЮТК</title>
<path fill="none" stroke="black" stroke-dasharray="1,5" d="M871.829,-1050.79C942.46,-1048.52 1035.7,-1045.52 1100.29,-1043.44"/>
<ellipse fill="none" stroke="black" cx="867.424" cy="-1050.93" rx="4" ry="4"/>
<ellipse fill="none" stroke="black" cx="1104.42" cy="-1043.31" rx="4" ry="4"/>
</g>
<!-- Orange -->
<g id="node16" class="node"><title>Orange</title>
<polygon fill="none" stroke="black" points="1026.37,-1016 1005.09,-1034 962.534,-1034 941.256,-1016 962.534,-998 1005.09,-998 1026.37,-1016"/>
<text text-anchor="middle" x="983.812" y="-1012.3" font-family="Times New Roman,serif" font-size="14.00">Orange</text>
</g>
<!-- Волгатранстелеком&#45;&gt;Orange -->
<g id="edge77" class="edge"><title>Волгатранстелеком&#45;&gt;Orange</title>
<path fill="none" stroke="black" stroke-dasharray="1,5" d="M846.62,-1040.54C878.12,-1034.86 913.634,-1028.47 940.496,-1023.63"/>
<ellipse fill="none" stroke="black" cx="842.299" cy="-1041.32" rx="4.00001" ry="4.00001"/>
<ellipse fill="none" stroke="black" cx="944.604" cy="-1022.88" rx="4.00001" ry="4.00001"/>
</g>
<!-- Релком -->
<g id="node6" class="node"><title>Релком</title>
<polygon fill="none" stroke="black" points="1029.37,-110 1006.59,-128 961.032,-128 938.252,-110 961.032,-92 1006.59,-92 1029.37,-110"/>
<text text-anchor="middle" x="983.812" y="-106.3" font-family="Times New Roman,serif" font-size="14.00">Релком</text>
</g>
<!-- Мегафон -->
<g id="node7" class="node"><title>Мегафон</title>
<polygon fill="none" stroke="black" points="1036.88,-624 1010.35,-642 957.277,-642 930.742,-624 957.277,-606 1010.35,-606 1036.88,-624"/>
<text text-anchor="middle" x="983.812" y="-620.3" font-family="Times New Roman,serif" font-size="14.00">Мегафон</text>
</g>
<!-- Вымпелком -->
<g id="node8" class="node"><title>Вымпелком</title>
<polygon fill="none" stroke="black" points="1222.33,-405 1199.8,-423 1154.74,-423 1132.21,-405 1154.74,-387 1199.8,-387 1222.33,-405"/>
<text text-anchor="middle" x="1177.27" y="-401.3" font-family="Times New Roman,serif" font-size="14.00">Билайн</text>
</g>
<!-- КоламбияТелеком -->
<g id="node9" class="node"><title>КоламбияТелеком</title>
<polygon fill="none" stroke="black" points="867.052,-233 818.989,-251 722.864,-251 674.801,-233 722.864,-215 818.989,-215 867.052,-233"/>
<text text-anchor="middle" x="770.927" y="-229.3" font-family="Times New Roman,serif" font-size="14.00">КоламбияТелеком</text>
</g>
<!-- КоламбияТелеком&#45;&gt;Транстелеком -->
<g id="edge18" class="edge"><title>КоламбияТелеком&#45;&gt;Транстелеком</title>
<path fill="none" stroke="black" d="M865.271,-232.221C879.417,-232.129 893.841,-232.05 907.492,-232 975.332,-231.75 992.902,-222.924 1060.13,-232 1152.6,-244.483 1256.53,-277.076 1317.24,-298.082"/>
<polygon fill="black" stroke="black" points="1316.37,-301.487 1326.97,-301.477 1318.68,-294.877 1316.37,-301.487"/>
</g>
<!-- КоламбияТелеком&#45;&gt;Мегафон -->
<g id="edge20" class="edge"><title>КоламбияТелеком&#45;&gt;Мегафон</title>
<path fill="none" stroke="black" d="M784.655,-251.269C804.384,-279.941 843.034,-337.549 871.492,-389 911.917,-462.086 952.053,-552.271 971.204,-596.669"/>
<polygon fill="black" stroke="black" points="968.019,-598.121 975.181,-605.929 974.451,-595.359 968.019,-598.121"/>
</g>
<!-- КоламбияТелеком&#45;&gt;Вымпелком -->
<g id="edge19" class="edge"><title>КоламбияТелеком&#45;&gt;Вымпелком</title>
<path fill="none" stroke="black" d="M865.482,-233.617C937.932,-235.965 1030.74,-243.652 1060.13,-267 1097.12,-296.383 1064.39,-332.015 1096.13,-367 1106.21,-378.104 1120.21,-386.259 1133.7,-392.101"/>
<polygon fill="black" stroke="black" points="1132.78,-395.502 1143.36,-395.955 1135.37,-389 1132.78,-395.502"/>
</g>
<!-- WestCall -->
<g id="node18" class="node"><title>WestCall</title>
<polygon fill="none" stroke="black" points="1034.88,-164 1009.35,-182 958.279,-182 932.746,-164 958.279,-146 1009.35,-146 1034.88,-164"/>
<text text-anchor="middle" x="983.812" y="-160.3" font-family="Times New Roman,serif" font-size="14.00">WestCall</text>
</g>
<!-- КоламбияТелеком&#45;&gt;WestCall -->
<g id="edge48" class="edge"><title>КоламбияТелеком&#45;&gt;WestCall</title>
<path fill="none" stroke="black" d="M830.65,-213.786C864.927,-202.571 907.461,-188.654 938.837,-178.388"/>
<ellipse fill="none" stroke="black" cx="826.509" cy="-215.141" rx="4.00001" ry="4.00001"/>
<polygon fill="black" stroke="black" points="940.192,-181.628 948.608,-175.192 938.015,-174.975 940.192,-181.628"/>
</g>
<!-- Евротелеком -->
<g id="node31" class="node"><title>Евротелеком</title>
<polygon fill="none" stroke="black" points="1059.95,-299.562 983.812,-312 907.671,-299.562 907.742,-279.438 1059.88,-279.438 1059.95,-299.562"/>
<text text-anchor="middle" x="983.812" y="-290.3" font-family="Times New Roman,serif" font-size="14.00">Евротелеком</text>
</g>
<!-- КоламбияТелеком&#45;&gt;Евротелеком -->
<g id="edge69" class="edge"><title>КоламбияТелеком&#45;&gt;Евротелеком</title>
<path fill="none" stroke="black" stroke-dasharray="1,5" d="M833.535,-250.821C862.271,-259.133 896.291,-268.973 924.591,-277.159"/>
<ellipse fill="none" stroke="black" cx="829.53" cy="-249.662" rx="4.00001" ry="4.00001"/>
<ellipse fill="none" stroke="black" cx="928.57" cy="-278.31" rx="4.00001" ry="4.00001"/>
</g>
<!-- HE -->
<g id="node11" class="node"><title>HE</title>
<polygon fill="none" stroke="black" points="797.927,-1146 784.427,-1164 757.427,-1164 743.927,-1146 757.427,-1128 784.427,-1128 797.927,-1146"/>
<text text-anchor="middle" x="770.927" y="-1142.3" font-family="Times New Roman,serif" font-size="14.00">HE</text>
</g>
<!-- Tele2 -->
<g id="node13" class="node"><title>Tele2</title>
<polygon fill="none" stroke="black" points="1018.86,-844 1001.34,-862 966.289,-862 948.765,-844 966.289,-826 1001.34,-826 1018.86,-844"/>
<text text-anchor="middle" x="983.812" y="-840.3" font-family="Times New Roman,serif" font-size="14.00">Tele2</text>
</g>
<!-- Tele2&#45;&gt;Транстелеком -->
<g id="edge3" class="edge"><title>Tele2&#45;&gt;Транстелеком</title>
<path fill="none" stroke="black" d="M1015.93,-847.349C1072.4,-851.569 1192.03,-851.669 1258.41,-787 1322.75,-724.32 1357.02,-437.255 1366.47,-345.374"/>
<polygon fill="black" stroke="black" points="1369.98,-345.466 1367.5,-335.165 1363.02,-344.762 1369.98,-345.466"/>
</g>
<!-- Tele2&#45;&gt;Ростелеком -->
<g id="edge2" class="edge"><title>Tele2&#45;&gt;Ростелеком</title>
<path fill="none" stroke="black" d="M1011.59,-851.891C1026.27,-856.637 1044.59,-863.256 1060.13,-871 1154.45,-917.995 1181.26,-929.224 1258.41,-1001 1297.47,-1037.34 1333.08,-1088.6 1352.89,-1119.44"/>
<polygon fill="black" stroke="black" points="1349.96,-1121.37 1358.28,-1127.94 1355.88,-1117.62 1349.96,-1121.37"/>
</g>
<!-- МТС -->
<g id="node14" class="node"><title>МТС</title>
<polygon fill="none" stroke="black" points="805.974,-632 788.45,-650 753.403,-650 735.879,-632 753.403,-614 788.45,-614 805.974,-632"/>
<text text-anchor="middle" x="770.927" y="-628.3" font-family="Times New Roman,serif" font-size="14.00">МТС</text>
</g>
<!-- ЮТК&#45;&gt;Ростелеком -->
<g id="edge44" class="edge"><title>ЮТК&#45;&gt;Ростелеком</title>
<path fill="none" stroke="black" d="M1228.76,-1068.77C1259.74,-1085.8 1298.9,-1107.33 1327.99,-1123.33"/>
<ellipse fill="none" stroke="black" cx="1225.11" cy="-1066.75" rx="4.00002" ry="4.00002"/>
<polygon fill="black" stroke="black" points="1326.62,-1126.57 1337.06,-1128.32 1329.99,-1120.44 1326.62,-1126.57"/>
</g>
<!-- ПросторТелеком -->
<g id="node17" class="node"><title>ПросторТелеком</title>
<polygon fill="none" stroke="black" points="861.044,-470 815.985,-488 725.868,-488 680.809,-470 725.868,-452 815.985,-452 861.044,-470"/>
<text text-anchor="middle" x="770.927" y="-466.3" font-family="Times New Roman,serif" font-size="14.00">ПросторТелеком</text>
</g>
<!-- ПросторТелеком&#45;&gt;Мегафон -->
<g id="edge29" class="edge"><title>ПросторТелеком&#45;&gt;Мегафон</title>
<path fill="none" stroke="black" d="M834.034,-480.818C847.009,-484.696 860.173,-489.936 871.492,-497 912.743,-522.745 947.266,-568.432 966.466,-597.42"/>
<polygon fill="black" stroke="black" points="963.547,-599.351 971.923,-605.839 969.421,-595.544 963.547,-599.351"/>
</g>
<!-- ПросторТелеком&#45;&gt;Вымпелком -->
<g id="edge28" class="edge"><title>ПросторТелеком&#45;&gt;Вымпелком</title>
<path fill="none" stroke="black" d="M836.645,-460.191C895.087,-451.263 983.424,-437.593 1060.13,-425 1083.12,-421.226 1108.64,-416.852 1129.88,-413.159"/>
<polygon fill="black" stroke="black" points="1130.69,-416.572 1139.94,-411.407 1129.49,-409.676 1130.69,-416.572"/>
</g>
<!-- Powernet&#45;&gt;Унико -->
<g id="edge42" class="edge"><title>Powernet&#45;&gt;Унико</title>
<path fill="none" stroke="black" d="M722.658,-425.547C703.51,-429.391 682.98,-436.508 670.361,-452 629.022,-502.749 645.964,-975.581 634.361,-1040 620.433,-1117.33 590.221,-1204.66 572.846,-1248.36"/>
<ellipse fill="none" stroke="black" cx="726.817" cy="-424.796" rx="4.00001" ry="4.00001"/>
<polygon fill="black" stroke="black" points="569.552,-1247.17 569.034,-1257.75 576.038,-1249.8 569.552,-1247.17"/>
</g>
<!-- Powernet&#45;&gt;ЭрТелеком -->
<g id="edge67" class="edge"><title>Powernet&#45;&gt;ЭрТелеком</title>
<path fill="none" stroke="black" stroke-dasharray="1,5" d="M828.298,-419.257C844.538,-423.043 860.749,-430.114 871.492,-443 932.611,-516.311 854.925,-791.333 907.492,-871 911.957,-877.766 917.957,-883.468 924.631,-888.251"/>
<ellipse fill="none" stroke="black" cx="824.268" cy="-418.443" rx="4.00001" ry="4.00001"/>
<ellipse fill="none" stroke="black" cx="928.149" cy="-890.546" rx="4.00002" ry="4.00002"/>
</g>
<!-- Powernet&#45;&gt;Мегафон -->
<g id="edge14" class="edge"><title>Powernet&#45;&gt;Мегафон</title>
<path fill="none" stroke="black" d="M815.996,-420.665C834.55,-424.377 855.5,-431.041 871.492,-443 924.761,-482.835 958.215,-556.344 973.342,-596.332"/>
<polygon fill="black" stroke="black" points="970.147,-597.786 976.876,-605.969 976.719,-595.375 970.147,-597.786"/>
</g>
<!-- Powernet&#45;&gt;Вымпелком -->
<g id="edge15" class="edge"><title>Powernet&#45;&gt;Вымпелком</title>
<path fill="none" stroke="black" d="M820.7,-414.673C897.088,-412.595 1044.35,-408.589 1123.27,-406.442"/>
<polygon fill="black" stroke="black" points="1123.57,-409.935 1133.47,-406.164 1123.38,-402.938 1123.57,-409.935"/>
</g>
<!-- Powernet&#45;&gt;Евротелеком -->
<g id="edge68" class="edge"><title>Powernet&#45;&gt;Евротелеком</title>
<path fill="none" stroke="black" stroke-dasharray="1,5" d="M807.079,-395.664C847.307,-372.391 912.601,-334.618 951.257,-312.255"/>
<ellipse fill="none" stroke="black" cx="803.393" cy="-397.796" rx="4.00002" ry="4.00002"/>
<ellipse fill="none" stroke="black" cx="955.156" cy="-310" rx="4.00002" ry="4.00002"/>
</g>
<!-- МКС -->
<g id="node21" class="node"><title>МКС</title>
<polygon fill="none" stroke="black" points="628.689,-615.33 558.844,-638.428 488.999,-615.33 489.064,-577.956 628.624,-577.956 628.689,-615.33"/>
<text text-anchor="middle" x="558.844" y="-608.8" font-family="Times New Roman,serif" font-size="14.00">МТС</text>
<text text-anchor="middle" x="558.844" y="-593.8" font-family="Times New Roman,serif" font-size="14.00">Волгоград</text>
</g>
<!-- МКС&#45;&gt;МТС -->
<g id="edge13" class="edge"><title>МКС&#45;&gt;МТС</title>
<path fill="none" stroke="black" d="M628.924,-613.878C662.262,-618.163 701.096,-623.154 729.559,-626.812"/>
<polygon fill="black" stroke="black" points="729.182,-630.292 739.547,-628.096 730.074,-623.349 729.182,-630.292"/>
</g>
<!-- СпринтСеть -->
<g id="node26" class="node"><title>СпринтСеть</title>
<polygon fill="none" stroke="black" points="844.141,-583.562 770.927,-596 697.713,-583.562 697.781,-563.438 844.072,-563.438 844.141,-583.562"/>
<text text-anchor="middle" x="770.927" y="-574.3" font-family="Times New Roman,serif" font-size="14.00">СпринтСеть</text>
</g>
<!-- МКС&#45;&gt;СпринтСеть -->
<g id="edge62" class="edge"><title>МКС&#45;&gt;СпринтСеть</title>
<path fill="none" stroke="black" stroke-dasharray="1,5" d="M637.001,-595.084C658.257,-592.352 681.156,-589.409 701.859,-586.748"/>
<ellipse fill="none" stroke="black" cx="632.891" cy="-595.612" rx="4.00001" ry="4.00001"/>
<ellipse fill="none" stroke="black" cx="706.011" cy="-586.215" rx="4.00001" ry="4.00001"/>
</g>
<!-- ГородокТочкаРу -->
<g id="node22" class="node"><title>ГородокТочкаРу</title>
<polygon fill="none" stroke="black" points="380.041,-1212.56 309.147,-1225 238.253,-1212.56 238.319,-1192.44 379.975,-1192.44 380.041,-1212.56"/>
<text text-anchor="middle" x="309.147" y="-1203.3" font-family="Times New Roman,serif" font-size="14.00">Городок.Ру</text>
</g>
<!-- ГородокТочкаРу&#45;&gt;Унико -->
<g id="edge54" class="edge"><title>ГородокТочкаРу&#45;&gt;Унико</title>
<path fill="none" stroke="black" d="M364.791,-1218.51C390.051,-1224.15 420.363,-1231.36 447.327,-1239 471.527,-1245.86 498.285,-1254.78 519.409,-1262.14"/>
<ellipse fill="black" stroke="black" cx="360.683" cy="-1217.6" rx="4.00001" ry="4.00001"/>
<polygon fill="black" stroke="black" points="518.395,-1265.5 528.989,-1265.51 520.716,-1258.89 518.395,-1265.5"/>
</g>
<!-- STARLINE -->
<g id="node23" class="node"><title>STARLINE</title>
<polygon fill="none" stroke="black" points="134.95,-341.562 67.4833,-354 0.0166721,-341.562 0.0796443,-321.438 134.887,-321.438 134.95,-341.562"/>
<text text-anchor="middle" x="67.4833" y="-332.3" font-family="Times New Roman,serif" font-size="14.00">STARLINE</text>
</g>
<!-- VSSA -->
<g id="node24" class="node"><title>VSSA</title>
<polygon fill="none" stroke="black" points="110.141,-395.562 67.4833,-408 24.8257,-395.562 24.8655,-375.438 110.101,-375.438 110.141,-395.562"/>
<text text-anchor="middle" x="67.4833" y="-386.3" font-family="Times New Roman,serif" font-size="14.00">VSSA</text>
</g>
<!-- Связьинформ&#45;&gt;Унико -->
<g id="edge38" class="edge"><title>Связьинформ&#45;&gt;Унико</title>
<path fill="none" stroke="black" d="M1104.98,-769.306C965.811,-787.491 671.338,-826.064 670.361,-827 603.875,-890.687 655.795,-941.462 634.361,-1031 615.252,-1110.82 584.95,-1202.94 569.537,-1248.1"/>
<ellipse fill="none" stroke="black" cx="1109.15" cy="-768.762" rx="4.00001" ry="4.00001"/>
<polygon fill="black" stroke="black" points="566.153,-1247.17 566.218,-1257.77 572.774,-1249.44 566.153,-1247.17"/>
</g>
<!-- Связьинформ&#45;&gt;Транстелеком -->
<g id="edge1" class="edge"><title>Связьинформ&#45;&gt;Транстелеком</title>
<path fill="none" stroke="black" d="M1184.63,-745.261C1212.11,-681.495 1321.02,-428.808 1357.35,-344.525"/>
<polygon fill="black" stroke="black" points="1360.67,-345.674 1361.41,-335.105 1354.24,-342.903 1360.67,-345.674"/>
</g>
<!-- СпринтСеть&#45;&gt;Мегафон -->
<g id="edge5" class="edge"><title>СпринтСеть&#45;&gt;Мегафон</title>
<path fill="none" stroke="black" d="M817.946,-588.038C852.03,-595.473 898.414,-605.59 933.301,-613.2"/>
<polygon fill="black" stroke="black" points="932.757,-616.664 943.274,-615.375 934.249,-609.825 932.757,-616.664"/>
</g>
<!-- СпринтСеть&#45;&gt;Вымпелком -->
<g id="edge4" class="edge"><title>СпринтСеть&#45;&gt;Вымпелком</title>
<path fill="none" stroke="black" d="M828.457,-563.376C842.566,-559.533 857.626,-555.264 871.492,-551 956.253,-524.936 981.087,-526.194 1060.13,-486 1091.36,-470.122 1123.81,-446.823 1146.44,-429.284"/>
<polygon fill="black" stroke="black" points="1148.61,-432.033 1154.32,-423.108 1144.29,-426.526 1148.61,-432.033"/>
</g>
<!-- СпринтСеть&#45;&gt;Связьинформ -->
<g id="edge61" class="edge"><title>СпринтСеть&#45;&gt;Связьинформ</title>
<path fill="none" stroke="black" stroke-dasharray="1,5" d="M852.292,-565.588C913.171,-560.201 996.846,-561.702 1060.13,-597 1116.84,-628.628 1152.64,-700.933 1167.85,-737.679"/>
<ellipse fill="none" stroke="black" cx="848.216" cy="-565.975" rx="4" ry="4"/>
<ellipse fill="none" stroke="black" cx="1169.45" cy="-741.662" rx="4.00001" ry="4.00001"/>
</g>
<!-- Старнет -->
<g id="node27" class="node"><title>Старнет</title>
<polygon fill="none" stroke="black" points="119.923,-287.562 67.4833,-300 15.0439,-287.562 15.0929,-267.438 119.874,-267.438 119.923,-287.562"/>
<text text-anchor="middle" x="67.4833" y="-278.3" font-family="Times New Roman,serif" font-size="14.00">Старнет</text>
</g>
<!-- Старнет&#45;&gt;Унико -->
<g id="edge40" class="edge"><title>Старнет&#45;&gt;Унико</title>
<path fill="none" stroke="black" d="M116.433,-293.55C123.689,-297.331 130.297,-302.346 134.967,-309 194.055,-393.19 100.798,-1158.8 170.967,-1234 193.586,-1258.24 408.998,-1270 508.232,-1274.17"/>
<ellipse fill="none" stroke="black" cx="112.65" cy="-291.825" rx="4.00002" ry="4.00002"/>
<polygon fill="black" stroke="black" points="508.183,-1277.67 518.318,-1274.58 508.47,-1270.67 508.183,-1277.67"/>
</g>
<!-- Старнет&#45;&gt;Транстелеком -->
<g id="edge6" class="edge"><title>Старнет&#45;&gt;Транстелеком</title>
<path fill="none" stroke="black" d="M75.4168,-267.275C89.3349,-239.426 123.459,-179.135 170.967,-149 319.628,-54.7015 381.797,-64 557.844,-64 557.844,-64 557.844,-64 984.812,-64 1148.44,-64 1296.28,-225.927 1348.87,-290.692"/>
<polygon fill="black" stroke="black" points="1346.39,-293.19 1355.37,-298.805 1351.85,-288.812 1346.39,-293.19"/>
</g>
<!-- Старнет&#45;&gt;КоламбияТелеком -->
<g id="edge39" class="edge"><title>Старнет&#45;&gt;КоламбияТелеком</title>
<path fill="none" stroke="black" d="M102.51,-263.54C191.323,-217.822 436.942,-107.226 634.361,-167 652.766,-172.572 653.427,-181.889 670.361,-191 683.785,-198.222 698.717,-205.091 712.848,-211.102"/>
<ellipse fill="none" stroke="black" cx="98.698" cy="-265.521" rx="4.00002" ry="4.00002"/>
<polygon fill="black" stroke="black" points="711.898,-214.499 722.474,-215.121 714.595,-208.039 711.898,-214.499"/>
</g>
<!-- Магистраль -->
<g id="node42" class="node"><title>Магистраль</title>
<polygon fill="none" stroke="black" points="380.041,-421.562 309.147,-434 238.253,-421.562 238.319,-401.438 379.975,-401.438 380.041,-421.562"/>
<text text-anchor="middle" x="309.147" y="-412.3" font-family="Times New Roman,serif" font-size="14.00">Магистраль</text>
</g>
<!-- Старнет&#45;&gt;Магистраль -->
<g id="edge63" class="edge"><title>Старнет&#45;&gt;Магистраль</title>
<path fill="none" stroke="black" stroke-dasharray="1,5" d="M105.677,-295.824C115.358,-299.768 125.675,-304.285 134.967,-309 188.222,-336.026 246.628,-373.994 280.18,-396.683"/>
<ellipse fill="none" stroke="black" cx="101.797" cy="-294.275" rx="4.00001" ry="4.00001"/>
<ellipse fill="none" stroke="black" cx="283.643" cy="-399.036" rx="4.00002" ry="4.00002"/>
</g>
<!-- Экспилайн -->
<g id="node28" class="node"><title>Экспилайн</title>
<polygon fill="none" stroke="black" points="837.787,-767.562 770.927,-780 704.066,-767.562 704.129,-747.438 837.725,-747.438 837.787,-767.562"/>
<text text-anchor="middle" x="770.927" y="-758.3" font-family="Times New Roman,serif" font-size="14.00">Экспилайн</text>
</g>
<!-- Экспилайн&#45;&gt;Мегафон -->
<g id="edge7" class="edge"><title>Экспилайн&#45;&gt;Мегафон</title>
<path fill="none" stroke="black" d="M832.257,-747.415C845.675,-742.879 859.472,-737.139 871.492,-730 907.361,-708.696 940.934,-673.883 961.64,-650.005"/>
<polygon fill="black" stroke="black" points="964.331,-652.243 968.153,-642.361 959.004,-647.702 964.331,-652.243"/>
</g>
<!-- Экспилайн&#45;&gt;Связьинформ -->
<g id="edge64" class="edge"><title>Экспилайн&#45;&gt;Связьинформ</title>
<path fill="none" stroke="black" stroke-dasharray="1,5" d="M845.806,-761.635C913.912,-761.298 1015.11,-760.797 1087.57,-760.439"/>
<ellipse fill="none" stroke="black" cx="841.792" cy="-761.654" rx="4" ry="4"/>
<ellipse fill="none" stroke="black" cx="1091.81" cy="-760.418" rx="4" ry="4"/>
</g>
<!-- ЭРОС -->
<g id="node29" class="node"><title>ЭРОС</title>
<polygon fill="none" stroke="black" points="603.216,-1009.56 558.844,-1022 514.472,-1009.56 514.514,-989.438 603.174,-989.438 603.216,-1009.56"/>
<text text-anchor="middle" x="558.844" y="-1000.3" font-family="Times New Roman,serif" font-size="14.00">ЭРОС</text>
</g>
<!-- ЭРОС&#45;&gt;Волгатранстелеком -->
<g id="edge8" class="edge"><title>ЭРОС&#45;&gt;Волгатранстелеком</title>
<path fill="none" stroke="black" d="M594.065,-1012.14C622.653,-1018.95 664.342,-1028.87 699.955,-1037.35"/>
<polygon fill="black" stroke="black" points="699.284,-1040.78 709.823,-1039.7 700.905,-1033.97 699.284,-1040.78"/>
</g>
<!-- ЭРОС&#45;&gt;Мегафон -->
<g id="edge10" class="edge"><title>ЭРОС&#45;&gt;Мегафон</title>
<path fill="none" stroke="black" d="M567.134,-989.384C581.096,-961.115 612.192,-896.811 634.361,-841 652.728,-794.76 632.951,-767.802 670.361,-735 738.891,-674.912 786.92,-728.978 871.492,-695 900.597,-683.306 930.393,-663.828 951.826,-648.229"/>
<polygon fill="black" stroke="black" points="953.946,-651.014 959.898,-642.249 949.779,-645.389 953.946,-651.014"/>
</g>
<!-- ЭРОС&#45;&gt;HE -->
<g id="edge9" class="edge"><title>ЭРОС&#45;&gt;HE</title>
<path fill="none" stroke="black" d="M570.761,-1018.68C588.919,-1042.11 627.587,-1087.95 670.361,-1114 690.829,-1126.47 716.659,-1134.58 736.881,-1139.52"/>
<polygon fill="black" stroke="black" points="736.356,-1142.99 746.886,-1141.82 737.924,-1136.17 736.356,-1142.99"/>
</g>
<!-- ЭРОС&#45;&gt;Tele2 -->
<g id="edge41" class="edge"><title>ЭРОС&#45;&gt;Tele2</title>
<path fill="none" stroke="black" d="M610.984,-988.657C629.587,-983.341 650.837,-977.573 670.361,-973 758.936,-952.251 797.587,-988.049 871.492,-935 898.005,-915.969 882.558,-892.057 907.492,-871 917.876,-862.23 931.325,-856.22 943.98,-852.141"/>
<ellipse fill="none" stroke="black" cx="607.029" cy="-989.796" rx="4.00001" ry="4.00001"/>
<polygon fill="black" stroke="black" points="945.255,-855.416 953.884,-849.268 943.305,-848.693 945.255,-855.416"/>
</g>
<!-- Comrise -->
<g id="node30" class="node"><title>Comrise</title>
<polygon fill="none" stroke="black" points="360.479,-782.562 309.147,-795 257.815,-782.562 257.863,-762.438 360.431,-762.438 360.479,-782.562"/>
<text text-anchor="middle" x="309.147" y="-773.3" font-family="Times New Roman,serif" font-size="14.00">Comrise</text>
</g>
<!-- Comrise&#45;&gt;Унико -->
<g id="edge65" class="edge"><title>Comrise&#45;&gt;Унико</title>
<path fill="none" stroke="black" stroke-dasharray="1,5" d="M323.072,-799.987C349.943,-848.68 412.248,-966.427 447.327,-1072 471.954,-1146.12 433.869,-1183.55 483.327,-1244 491.892,-1254.47 504.521,-1261.59 516.959,-1266.39"/>
<ellipse fill="none" stroke="black" cx="321.013" cy="-796.275" rx="4.00002" ry="4.00002"/>
<ellipse fill="none" stroke="black" cx="520.868" cy="-1267.77" rx="4.00001" ry="4.00001"/>
</g>
<!-- Comrise&#45;&gt;Вымпелком -->
<g id="edge12" class="edge"><title>Comrise&#45;&gt;Вымпелком</title>
<path fill="none" stroke="black" d="M314.657,-762.392C330.401,-713.455 387.248,-552.991 483.327,-457 550.159,-390.229 578.769,-379.15 670.361,-356 838.331,-313.545 890.104,-328.737 1060.13,-362 1087.34,-367.322 1116.6,-378.189 1138.94,-387.666"/>
<polygon fill="black" stroke="black" points="1137.81,-390.991 1148.38,-391.76 1140.6,-384.569 1137.81,-390.991"/>
</g>
<!-- Comrise&#45;&gt;Ростелеком -->
<g id="edge11" class="edge"><title>Comrise&#45;&gt;Ростелеком</title>
<path fill="none" stroke="black" d="M314.672,-793.876C329.737,-847.101 383.006,-1013.56 483.327,-1109 549.613,-1172.06 581.781,-1172.1 670.361,-1195 797.067,-1227.76 1134.01,-1267.62 1258.41,-1227 1291.96,-1216.05 1323.77,-1190.66 1344.63,-1171.21"/>
<polygon fill="black" stroke="black" points="1347.26,-1173.53 1352.07,-1164.08 1342.42,-1168.47 1347.26,-1173.53"/>
</g>
<!-- Comrise&#45;&gt;Powernet -->
<g id="edge66" class="edge"><title>Comrise&#45;&gt;Powernet</title>
<path fill="none" stroke="black" stroke-dasharray="1,5" d="M324,-755.627C351.132,-714.846 414.647,-624.518 483.327,-563 556.895,-497.105 580.085,-483.058 670.361,-443 686.681,-435.759 705.388,-430.063 722.149,-425.807"/>
<ellipse fill="none" stroke="black" cx="321.718" cy="-759.082" rx="4.00002" ry="4.00002"/>
<ellipse fill="none" stroke="black" cx="726.317" cy="-424.785" rx="4.00001" ry="4.00001"/>
</g>
<!-- Евротелеком&#45;&gt;Транстелеком -->
<g id="edge16" class="edge"><title>Евротелеком&#45;&gt;Транстелеком</title>
<path fill="none" stroke="black" d="M1060.3,-298.517C1127.47,-302.536 1225.26,-308.387 1292.74,-312.424"/>
<polygon fill="black" stroke="black" points="1292.69,-315.927 1302.88,-313.031 1293.11,-308.94 1292.69,-315.927"/>
</g>
<!-- Евротелеком&#45;&gt;Вымпелком -->
<g id="edge17" class="edge"><title>Евротелеком&#45;&gt;Вымпелком</title>
<path fill="none" stroke="black" d="M1021.81,-305.893C1034.61,-310.972 1048.62,-317.676 1060.13,-326 1079.78,-340.208 1076.78,-352.392 1096.13,-367 1108.2,-376.106 1122.8,-383.817 1136.21,-389.862"/>
<polygon fill="black" stroke="black" points="1135.14,-393.215 1145.71,-393.967 1137.92,-386.789 1135.14,-393.215"/>
</g>
<!-- Virgin -->
<g id="node32" class="node"><title>Virgin</title>
<polygon fill="none" stroke="black" points="599.182,-819.562 558.844,-832 518.506,-819.562 518.544,-799.438 599.144,-799.438 599.182,-819.562"/>
<text text-anchor="middle" x="558.844" y="-810.3" font-family="Times New Roman,serif" font-size="14.00">Virgin</text>
</g>
<!-- Virgin&#45;&gt;Волгатранстелеком -->
<g id="edge59" class="edge"><title>Virgin&#45;&gt;Волгатранстелеком</title>
<path fill="none" stroke="black" d="M570.636,-837.315C595.126,-889.833 654.049,-1013.85 670.361,-1027 676.537,-1031.98 683.558,-1036.04 690.944,-1039.36"/>
<ellipse fill="black" stroke="black" cx="568.834" cy="-833.444" rx="4.00002" ry="4.00002"/>
<polygon fill="black" stroke="black" points="689.877,-1042.7 700.461,-1043.18 692.481,-1036.21 689.877,-1042.7"/>
</g>
<!-- Virgin&#45;&gt;Мегафон -->
<g id="edge22" class="edge"><title>Virgin&#45;&gt;Мегафон</title>
<path fill="none" stroke="black" d="M569.839,-799.327C587.243,-774.996 625.564,-726.551 670.361,-702 750.523,-658.067 783.097,-682.29 871.492,-659 893.715,-653.145 918.101,-645.606 938.37,-639.026"/>
<polygon fill="black" stroke="black" points="939.548,-642.323 947.962,-635.884 937.369,-635.671 939.548,-642.323"/>
</g>
<!-- Virgin&#45;&gt;Вымпелком -->
<g id="edge21" class="edge"><title>Virgin&#45;&gt;Вымпелком</title>
<path fill="none" stroke="black" d="M568.094,-799.338C583.697,-770.91 617.476,-705.902 634.361,-647 650.313,-591.352 626.691,-427 670.361,-389 738.102,-330.055 1020.11,-375.421 1131.11,-396.117"/>
<polygon fill="black" stroke="black" points="1130.51,-399.567 1140.99,-397.98 1131.81,-392.688 1130.51,-399.567"/>
</g>
<!-- Virgin&#45;&gt;Ростелеком -->
<g id="edge23" class="edge"><title>Virgin&#45;&gt;Ростелеком</title>
<path fill="none" stroke="black" d="M567.542,-829.519C581.658,-858.25 612.261,-921.831 634.361,-977 652.55,-1022.41 631.453,-1051.36 670.361,-1081 722.444,-1120.68 1193.69,-1109.1 1258.41,-1119 1277.73,-1121.96 1298.63,-1126.65 1317.01,-1131.29"/>
<polygon fill="black" stroke="black" points="1316.38,-1134.75 1326.94,-1133.86 1318.14,-1127.97 1316.38,-1134.75"/>
</g>
<!-- Энфорта -->
<g id="node33" class="node"><title>Энфорта</title>
<polygon fill="none" stroke="black" points="1233.75,-345.562 1177.27,-358 1120.8,-345.562 1120.85,-325.438 1233.69,-325.438 1233.75,-345.562"/>
<text text-anchor="middle" x="1177.27" y="-336.3" font-family="Times New Roman,serif" font-size="14.00">Энфорта</text>
</g>
<!-- Энфорта&#45;&gt;Транстелеком -->
<g id="edge27" class="edge"><title>Энфорта&#45;&gt;Транстелеком</title>
<path fill="none" stroke="black" d="M1233.76,-333.317C1254.29,-330.843 1277.83,-328.007 1299.47,-325.401"/>
<polygon fill="black" stroke="black" points="1300.08,-328.853 1309.59,-324.182 1299.24,-321.903 1300.08,-328.853"/>
</g>
<!-- WMAX -->
<g id="node34" class="node"><title>WMAX</title>
<polygon fill="none" stroke="black" points="820.545,-169.562 770.927,-182 721.308,-169.562 721.354,-149.438 820.499,-149.438 820.545,-169.562"/>
<text text-anchor="middle" x="770.927" y="-160.3" font-family="Times New Roman,serif" font-size="14.00">WMAX</text>
</g>
<!-- WMAX&#45;&gt;Релком -->
<g id="edge32" class="edge"><title>WMAX&#45;&gt;Релком</title>
<path fill="none" stroke="black" d="M820.573,-151.544C856.333,-142.387 904.515,-130.049 939.065,-121.202"/>
<polygon fill="black" stroke="black" points="940.054,-124.562 948.873,-118.691 938.317,-117.781 940.054,-124.562"/>
</g>
<!-- WMAX&#45;&gt;Мегафон -->
<g id="edge30" class="edge"><title>WMAX&#45;&gt;Мегафон</title>
<path fill="none" stroke="black" d="M811.864,-171.985C832.387,-178.046 856.224,-188.448 871.492,-206 884.708,-221.192 953.935,-504.405 976.029,-595.814"/>
<polygon fill="black" stroke="black" points="972.676,-596.841 978.425,-605.741 979.481,-595.198 972.676,-596.841"/>
</g>
<!-- WMAX&#45;&gt;WestCall -->
<g id="edge31" class="edge"><title>WMAX&#45;&gt;WestCall</title>
<path fill="none" stroke="black" d="M820.573,-164C850.867,-164 890.076,-164 922.36,-164"/>
<polygon fill="black" stroke="black" points="922.578,-167.5 932.578,-164 922.578,-160.5 922.578,-167.5"/>
</g>
<!-- InstrNet -->
<g id="node35" class="node"><title>InstrNet</title>
<polygon fill="none" stroke="black" points="820.545,-913.562 770.927,-926 721.308,-913.562 721.354,-893.438 820.499,-893.438 820.545,-913.562"/>
<text text-anchor="middle" x="770.927" y="-904.3" font-family="Times New Roman,serif" font-size="14.00">InstrNet</text>
</g>
<!-- InstrNet&#45;&gt;ЭрТелеком -->
<g id="edge47" class="edge"><title>InstrNet&#45;&gt;ЭрТелеком</title>
<path fill="none" stroke="black" d="M828.639,-908.807C850.863,-909.123 876.79,-909.492 900.971,-909.836"/>
<ellipse fill="none" stroke="black" cx="824.572" cy="-908.749" rx="4" ry="4"/>
<polygon fill="black" stroke="black" points="901.163,-913.339 911.212,-909.981 901.263,-906.339 901.163,-913.339"/>
</g>
<!-- InstrNet&#45;&gt;Мегафон -->
<g id="edge33" class="edge"><title>InstrNet&#45;&gt;Мегафон</title>
<path fill="none" stroke="black" d="M820.651,-903.64C838.335,-899.931 857.408,-893.19 871.492,-881 889.994,-864.987 948.226,-715.259 972.269,-651.999"/>
<polygon fill="black" stroke="black" points="975.683,-652.867 975.954,-642.275 969.137,-650.386 975.683,-652.867"/>
</g>
<!-- ТСвязь -->
<g id="node36" class="node"><title>ТСвязь</title>
<polygon fill="none" stroke="black" points="820.545,-529.562 770.927,-542 721.308,-529.562 721.354,-509.438 820.499,-509.438 820.545,-529.562"/>
<text text-anchor="middle" x="770.927" y="-520.3" font-family="Times New Roman,serif" font-size="14.00">ТСвязь</text>
</g>
<!-- ТСвязь&#45;&gt;Мегафон -->
<g id="edge34" class="edge"><title>ТСвязь&#45;&gt;Мегафон</title>
<path fill="none" stroke="black" d="M812.172,-531.862C830.708,-536.246 852.708,-542.552 871.492,-551 900.334,-563.971 930.148,-583.932 951.655,-599.705"/>
<polygon fill="black" stroke="black" points="949.647,-602.574 959.758,-605.738 953.828,-596.959 949.647,-602.574"/>
</g>
<!-- ТСвязь&#45;&gt;Вымпелком -->
<g id="edge35" class="edge"><title>ТСвязь&#45;&gt;Вымпелком</title>
<path fill="none" stroke="black" d="M820.658,-513.676C878.407,-500.978 977.252,-477.786 1060.13,-451 1086.56,-442.46 1115.61,-430.954 1138.04,-421.586"/>
<polygon fill="black" stroke="black" points="1139.68,-424.693 1147.54,-417.584 1136.96,-418.243 1139.68,-424.693"/>
</g>
<!-- Восток -->
<g id="node37" class="node"><title>Восток</title>
<polygon fill="none" stroke="black" points="819.332,-859.562 770.927,-872 722.521,-859.562 722.566,-839.438 819.287,-839.438 819.332,-859.562"/>
<text text-anchor="middle" x="770.927" y="-850.3" font-family="Times New Roman,serif" font-size="14.00">Восток</text>
</g>
<!-- Восток&#45;&gt;Мегафон -->
<g id="edge36" class="edge"><title>Восток&#45;&gt;Мегафон</title>
<path fill="none" stroke="black" d="M800.705,-839.295C821.858,-827.569 850.461,-809.715 871.492,-789 914.248,-746.887 950.226,-685.975 968.944,-651.152"/>
<polygon fill="black" stroke="black" points="972.172,-652.535 973.757,-642.059 965.986,-649.26 972.172,-652.535"/>
</g>
<!-- Восток&#45;&gt;Tele2 -->
<g id="edge37" class="edge"><title>Восток&#45;&gt;Tele2</title>
<path fill="none" stroke="black" d="M819.253,-851.756C855.351,-850.044 904.663,-847.706 939.679,-846.045"/>
<polygon fill="black" stroke="black" points="940.234,-849.523 950.057,-845.553 939.902,-842.531 940.234,-849.523"/>
</g>
<!-- SmIT34 -->
<g id="node38" class="node"><title>SmIT34</title>
<polygon fill="none" stroke="black" points="608.463,-253.562 558.844,-266 509.225,-253.562 509.271,-233.438 608.417,-233.438 608.463,-253.562"/>
<text text-anchor="middle" x="558.844" y="-244.3" font-family="Times New Roman,serif" font-size="14.00">SmIT34</text>
</g>
<!-- SmIT34&#45;&gt;КоламбияТелеком -->
<g id="edge49" class="edge"><title>SmIT34&#45;&gt;КоламбияТелеком</title>
<path fill="none" stroke="black" d="M616.675,-243.942C636.093,-242.556 658.319,-240.969 679.707,-239.442"/>
<ellipse fill="none" stroke="black" cx="612.559" cy="-244.236" rx="4" ry="4"/>
<polygon fill="black" stroke="black" points="680.066,-242.925 689.792,-238.722 679.568,-235.943 680.066,-242.925"/>
</g>
<!-- ВолгаЛинк -->
<g id="node39" class="node"><title>ВолгаЛинк</title>
<polygon fill="none" stroke="black" points="1244.13,-1205.56 1177.27,-1218 1110.41,-1205.56 1110.48,-1185.44 1244.07,-1185.44 1244.13,-1205.56"/>
<text text-anchor="middle" x="1177.27" y="-1196.3" font-family="Times New Roman,serif" font-size="14.00">ВолгаЛинк</text>
</g>
<!-- ВолгаЛинк&#45;&gt;Ростелеком -->
<g id="edge50" class="edge"><title>ВолгаЛинк&#45;&gt;Ростелеком</title>
<path fill="none" stroke="black" d="M1237.9,-1183.14C1263.15,-1176 1292.31,-1167.75 1316.73,-1160.84"/>
<ellipse fill="black" stroke="black" cx="1233.79" cy="-1184.3" rx="4.00001" ry="4.00001"/>
<polygon fill="black" stroke="black" points="1317.86,-1164.16 1326.53,-1158.07 1315.95,-1157.43 1317.86,-1164.16"/>
</g>
<!-- Волгателком -->
<g id="node40" class="node"><title>Волгателком</title>
<polygon fill="none" stroke="black" points="634.378,-199.562 558.844,-212 483.31,-199.562 483.38,-179.438 634.308,-179.438 634.378,-199.562"/>
<text text-anchor="middle" x="558.844" y="-190.3" font-family="Times New Roman,serif" font-size="14.00">Волгателком</text>
</g>
<!-- Волгателком&#45;&gt;КоламбияТелеком -->
<g id="edge51" class="edge"><title>Волгателком&#45;&gt;КоламбияТелеком</title>
<path fill="none" stroke="black" d="M618.862,-204.956C642.87,-209.413 670.877,-214.612 696.209,-219.315"/>
<ellipse fill="black" stroke="black" cx="614.9" cy="-204.221" rx="4.00001" ry="4.00001"/>
<polygon fill="black" stroke="black" points="695.669,-222.774 706.14,-221.159 696.946,-215.892 695.669,-222.774"/>
</g>
<!-- ИнсаткомВ -->
<g id="node41" class="node"><title>ИнсаткомВ</title>
<polygon fill="none" stroke="black" points="1245.35,-1151.56 1177.27,-1164 1109.2,-1151.56 1109.26,-1131.44 1245.28,-1131.44 1245.35,-1151.56"/>
<text text-anchor="middle" x="1177.27" y="-1142.3" font-family="Times New Roman,serif" font-size="14.00">ИнсаткомВ</text>
</g>
<!-- ИнсаткомВ&#45;&gt;Ростелеком -->
<g id="edge52" class="edge"><title>ИнсаткомВ&#45;&gt;Ростелеком</title>
<path fill="none" stroke="black" d="M1253.84,-1146C1267.35,-1146 1281.42,-1146 1294.89,-1146"/>
<ellipse fill="black" stroke="black" cx="1249.59" cy="-1146" rx="4" ry="4"/>
<polygon fill="black" stroke="black" points="1295.06,-1149.5 1305.06,-1146 1295.06,-1142.5 1295.06,-1149.5"/>
</g>
<!-- Магистраль&#45;&gt;Унико -->
<g id="edge53" class="edge"><title>Магистраль&#45;&gt;Унико</title>
<path fill="none" stroke="black" d="M322.925,-439.706C351.083,-493.223 418.273,-628.246 447.327,-750 470.921,-848.873 439.323,-1114.37 483.327,-1206 492.815,-1225.76 510.486,-1242.74 526.239,-1255.03"/>
<ellipse fill="black" stroke="black" cx="320.935" cy="-435.947" rx="4.00002" ry="4.00002"/>
<polygon fill="black" stroke="black" points="524.144,-1257.83 534.248,-1261.02 528.335,-1252.23 524.144,-1257.83"/>
</g>
<!-- Магистраль&#45;&gt;ЮТК -->
<g id="edge71" class="edge"><title>Магистраль&#45;&gt;ЮТК</title>
<path fill="none" stroke="black" stroke-dasharray="1,5" d="M322.497,-439.813C349.784,-493.55 415.321,-628.989 447.327,-750 479.521,-871.724 420.283,-922.011 483.327,-1031 535.586,-1121.34 571.445,-1139.7 670.361,-1173 835.999,-1228.75 1038.65,-1125.98 1128.95,-1071.59"/>
<ellipse fill="none" stroke="black" cx="320.576" cy="-436.052" rx="4.00002" ry="4.00002"/>
<ellipse fill="none" stroke="black" cx="1132.62" cy="-1069.36" rx="4.00002" ry="4.00002"/>
</g>
<!-- Магистраль&#45;&gt;Powernet -->
<g id="edge70" class="edge"><title>Магистраль&#45;&gt;Powernet</title>
<path fill="none" stroke="black" stroke-dasharray="1,5" d="M388.071,-416C479.348,-416 628.519,-416 710.797,-416"/>
<ellipse fill="none" stroke="black" cx="383.977" cy="-416" rx="4" ry="4"/>
<ellipse fill="none" stroke="black" cx="715.033" cy="-416" rx="4" ry="4"/>
</g>
<!-- Магистраль&#45;&gt;Евротелеком -->
<g id="edge72" class="edge"><title>Магистраль&#45;&gt;Евротелеком</title>
<path fill="none" stroke="black" stroke-dasharray="1,5" d="M335.534,-396.512C367.84,-372.973 426.319,-334.485 483.327,-318 625.022,-277.027 798.641,-279.868 899.4,-286.414"/>
<ellipse fill="none" stroke="black" cx="332.267" cy="-398.921" rx="4.00002" ry="4.00002"/>
<ellipse fill="none" stroke="black" cx="903.432" cy="-286.685" rx="4" ry="4"/>
</g>
<!-- ФорумNet -->
<g id="node43" class="node"><title>ФорумNet</title>
<polygon fill="none" stroke="black" points="370.867,-1158.56 309.147,-1171 247.427,-1158.56 247.485,-1138.44 370.809,-1138.44 370.867,-1158.56"/>
<text text-anchor="middle" x="309.147" y="-1149.3" font-family="Times New Roman,serif" font-size="14.00">ФорумNet</text>
</g>
<!-- ФорумNet&#45;&gt;Унико -->
<g id="edge55" class="edge"><title>ФорумNet&#45;&gt;Унико</title>
<path fill="none" stroke="black" d="M379.16,-1155.04C402.559,-1158.58 427.713,-1165.81 447.327,-1180 473.767,-1199.13 459.052,-1222.19 483.327,-1244 492.818,-1252.53 504.927,-1259.03 516.612,-1263.87"/>
<ellipse fill="black" stroke="black" cx="374.932" cy="-1154.47" rx="4.00001" ry="4.00001"/>
<polygon fill="black" stroke="black" points="515.67,-1267.25 526.261,-1267.55 518.166,-1260.71 515.67,-1267.25"/>
</g>
<!-- ByteS -->
<g id="node44" class="node"><title>ByteS</title>
<polygon fill="none" stroke="black" points="349.485,-1104.56 309.147,-1117 268.809,-1104.56 268.846,-1084.44 349.447,-1084.44 349.485,-1104.56"/>
<text text-anchor="middle" x="309.147" y="-1095.3" font-family="Times New Roman,serif" font-size="14.00">ByteS</text>
</g>
<!-- ByteS&#45;&gt;Унико -->
<g id="edge56" class="edge"><title>ByteS&#45;&gt;Унико</title>
<path fill="none" stroke="black" d="M357.53,-1096.7C386.783,-1097.83 423.204,-1104.22 447.327,-1126 488.02,-1162.75 446.736,-1203.17 483.327,-1244 491.927,-1253.6 503.904,-1260.42 515.742,-1265.23"/>
<ellipse fill="black" stroke="black" cx="353.484" cy="-1096.61" rx="4" ry="4"/>
<polygon fill="black" stroke="black" points="514.547,-1268.52 525.14,-1268.67 516.952,-1261.95 514.547,-1268.52"/>
</g>
<!-- АвантекПлюс -->
<g id="node45" class="node"><title>АвантекПлюс</title>
<polygon fill="none" stroke="black" points="388.715,-1412.56 309.147,-1425 229.579,-1412.56 229.653,-1392.44 388.64,-1392.44 388.715,-1412.56"/>
<text text-anchor="middle" x="309.147" y="-1403.3" font-family="Times New Roman,serif" font-size="14.00">АвантекПлюс</text>
</g>
<!-- АвантекПлюс&#45;&gt;Унико -->
<g id="edge57" class="edge"><title>АвантекПлюс&#45;&gt;Унико</title>
<path fill="none" stroke="black" d="M396.804,-1397.58C414.142,-1393.61 431.788,-1387.99 447.327,-1380 484.011,-1361.15 517.156,-1326.46 537.373,-1302.36"/>
<ellipse fill="black" stroke="black" cx="392.778" cy="-1398.45" rx="4.00001" ry="4.00001"/>
<polygon fill="black" stroke="black" points="540.333,-1304.27 543.97,-1294.32 534.921,-1299.83 540.333,-1304.27"/>
</g>
<!-- Robor -->
<g id="node46" class="node"><title>Robor</title>
<polygon fill="none" stroke="black" points="1219.93,-23.5623 1177.27,-36 1134.62,-23.5623 1134.66,-3.43769 1219.89,-3.43769 1219.93,-23.5623"/>
<text text-anchor="middle" x="1177.27" y="-14.3" font-family="Times New Roman,serif" font-size="14.00">Robor</text>
</g>
<!-- Robor&#45;&gt;Транстелеком -->
<g id="edge58" class="edge"><title>Robor&#45;&gt;Транстелеком</title>
<path fill="none" stroke="black" d="M1221.35,-28.1443C1234.55,-32.9767 1248.25,-39.9729 1258.41,-50 1327.27,-117.931 1355.25,-234.902 1364.87,-288.577"/>
<ellipse fill="black" stroke="black" cx="1217.46" cy="-26.8258" rx="4.00001" ry="4.00001"/>
<polygon fill="black" stroke="black" points="1361.47,-289.465 1366.61,-298.733 1368.37,-288.286 1361.47,-289.465"/>
</g>
<!-- ВистОнЛайн -->
<g id="node47" class="node"><title>ВистОнЛайн</title>
<polygon fill="none" stroke="black" points="385.288,-1358.56 309.147,-1371 233.006,-1358.56 233.077,-1338.44 385.217,-1338.44 385.288,-1358.56"/>
<text text-anchor="middle" x="309.147" y="-1349.3" font-family="Times New Roman,serif" font-size="14.00">ВистОнЛайн</text>
</g>
<!-- ВистОнЛайн&#45;&gt;Унико -->
<g id="edge60" class="edge"><title>ВистОнЛайн&#45;&gt;Унико</title>
<path fill="none" stroke="black" d="M393.521,-1339.78C411.466,-1336.06 430.186,-1331.48 447.327,-1326 473.536,-1317.62 501.781,-1304.76 523.157,-1294.19"/>
<ellipse fill="black" stroke="black" cx="389.259" cy="-1340.65" rx="4.00001" ry="4.00001"/>
<polygon fill="black" stroke="black" points="524.8,-1297.28 532.167,-1289.67 521.659,-1291.03 524.8,-1297.28"/>
</g>
<!-- ИнформационныйСервис -->
<g id="node48" class="node"><title>ИнформационныйСервис</title>
<polygon fill="none" stroke="black" points="447.507,-1304.56 309.147,-1317 170.786,-1304.56 170.915,-1284.44 447.378,-1284.44 447.507,-1304.56"/>
<text text-anchor="middle" x="309.147" y="-1295.3" font-family="Times New Roman,serif" font-size="14.00">ИнформационныйСервис</text>
</g>
<!-- ИнформационныйСервис&#45;&gt;Унико -->
<g id="edge74" class="edge"><title>ИнформационныйСервис&#45;&gt;Унико</title>
<path fill="none" stroke="black" stroke-dasharray="1,5" d="M455.595,-1285.49C476.086,-1283.59 495.764,-1281.76 512.289,-1280.23"/>
<ellipse fill="none" stroke="black" cx="451.38" cy="-1285.89" rx="4" ry="4"/>
<ellipse fill="none" stroke="black" cx="516.647" cy="-1279.83" rx="4" ry="4"/>
</g>
</g>
</svg>
