<?xml version="1.0" encoding="UTF-8" standalone="no"?>
<!DOCTYPE svg PUBLIC "-//W3C//DTD SVG 1.1//EN"
 "http://www.w3.org/Graphics/SVG/1.1/DTD/svg11.dtd">
<!-- Generated by graphviz version 2.38.0 (20140413.2041)
 -->
<!-- Title: ispgraph Pages: 1 -->
<svg width="1454pt" height="1414pt"
 viewBox="0.00 0.00 1454.01 1414.00" xmlns="http://www.w3.org/2000/svg" xmlns:xlink="http://www.w3.org/1999/xlink">
<g id="graph0" class="graph" transform="scale(1 1) rotate(0) translate(4 1410)">
<title>ispgraph</title>
<polygon fill="white" stroke="none" points="-4,4 -4,-1410 1450.01,-1410 1450.01,4 -4,4"/>
<!-- Унико -->
<g id="node1" class="node"><title>Унико</title>
<polygon fill="none" stroke="black" points="600.899,-838 579.871,-856 537.817,-856 516.789,-838 537.817,-820 579.871,-820 600.899,-838"/>
<text text-anchor="middle" x="558.844" y="-834.3" font-family="Times New Roman,serif" font-size="14.00">Унико</text>
</g>
<!-- ЭрТелеком -->
<g id="node3" class="node"><title>ЭрТелеком</title>
<polygon fill="none" stroke="black" points="1057.28,-792 1020.55,-823.054 947.078,-823.054 910.343,-792 947.078,-760.946 1020.55,-760.946 1057.28,-792"/>
<text text-anchor="middle" x="983.812" y="-795.8" font-family="Times New Roman,serif" font-size="14.00">ЭР&#45;Телеком</text>
<text text-anchor="middle" x="983.812" y="-780.8" font-family="Times New Roman,serif" font-size="14.00">транзит</text>
</g>
<!-- Унико&#45;&gt;ЭрТелеком -->
<g id="edge74" class="edge"><title>Унико&#45;&gt;ЭрТелеком</title>
<path fill="none" stroke="black" stroke-dasharray="1,5" d="M608.679,-837.689C670.272,-836.686 779.282,-832.881 871.492,-819 887.401,-816.605 904.372,-813.027 920.145,-809.254"/>
<ellipse fill="none" stroke="black" cx="604.674" cy="-837.748" rx="4" ry="4"/>
<ellipse fill="none" stroke="black" cx="924.386" cy="-808.217" rx="4.00001" ry="4.00001"/>
</g>
<!-- Ростелеком -->
<g id="node10" class="node"><title>Ростелеком</title>
<polygon fill="none" stroke="black" points="1435.3,-520 1402.76,-538 1337.67,-538 1305.13,-520 1337.67,-502 1402.76,-502 1435.3,-520"/>
<text text-anchor="middle" x="1370.21" y="-516.3" font-family="Times New Roman,serif" font-size="14.00">Ростелеком</text>
</g>
<!-- Унико&#45;&gt;Ростелеком -->
<g id="edge25" class="edge"><title>Унико&#45;&gt;Ростелеком</title>
<path fill="none" stroke="black" d="M593.064,-844.888C675.301,-860.414 893.74,-892.297 1060.13,-832 1164.02,-794.352 1182.17,-761.98 1258.41,-682 1298.82,-639.619 1334.9,-581.139 1354.26,-547.27"/>
<polygon fill="black" stroke="black" points="1357.4,-548.833 1359.27,-538.404 1351.31,-545.391 1357.4,-548.833"/>
</g>
<!-- КвантТелеком -->
<g id="node12" class="node"><title>КвантТелеком</title>
<polygon fill="none" stroke="black" points="849.028,-976 809.977,-994 731.876,-994 692.825,-976 731.876,-958 809.977,-958 849.028,-976"/>
<text text-anchor="middle" x="770.927" y="-972.3" font-family="Times New Roman,serif" font-size="14.00">КвантТелеком</text>
</g>
<!-- Унико&#45;&gt;КвантТелеком -->
<g id="edge27" class="edge"><title>Унико&#45;&gt;КвантТелеком</title>
<path fill="none" stroke="black" d="M573.031,-856.281C591.841,-881.017 628.739,-924.825 670.361,-949 680.706,-955.009 692.431,-959.72 704.112,-963.401"/>
<polygon fill="black" stroke="black" points="703.301,-966.811 713.882,-966.258 705.266,-960.092 703.301,-966.811"/>
</g>
<!-- Powernet -->
<g id="node19" class="node"><title>Powernet</title>
<polygon fill="none" stroke="black" points="822.495,-684 796.711,-702 745.142,-702 719.358,-684 745.142,-666 796.711,-666 822.495,-684"/>
<text text-anchor="middle" x="770.927" y="-680.3" font-family="Times New Roman,serif" font-size="14.00">Powernet</text>
</g>
<!-- Унико&#45;&gt;Powernet -->
<g id="edge44" class="edge"><title>Унико&#45;&gt;Powernet</title>
<path fill="none" stroke="black" d="M571.339,-812.855C589.039,-781.675 625.649,-730.017 670.361,-702 682.574,-694.348 696.946,-688.838 710.914,-685.16"/>
<ellipse fill="none" stroke="black" cx="569.376" cy="-816.43" rx="4.00002" ry="4.00002"/>
<polygon fill="black" stroke="black" points="712.039,-688.492 720.976,-682.802 710.442,-681.676 712.039,-688.492"/>
</g>
<!-- RETN -->
<g id="node20" class="node"><title>RETN</title>
<polygon fill="none" stroke="black" points="810.48,-922 790.703,-940 751.15,-940 731.373,-922 751.15,-904 790.703,-904 810.48,-922"/>
<text text-anchor="middle" x="770.927" y="-918.3" font-family="Times New Roman,serif" font-size="14.00">RETN</text>
</g>
<!-- Унико&#45;&gt;RETN -->
<g id="edge26" class="edge"><title>Унико&#45;&gt;RETN</title>
<path fill="none" stroke="black" d="M585.776,-851.365C607.912,-862.49 640.769,-878.339 670.361,-890 689.978,-897.73 712.286,-905.032 730.806,-910.703"/>
<polygon fill="black" stroke="black" points="729.803,-914.056 740.387,-913.596 731.826,-907.355 729.803,-914.056"/>
</g>
<!-- ДомРу -->
<g id="node2" class="node"><title>ДомРу</title>
<polygon fill="none" stroke="black" points="824.997,-792 797.962,-810 743.891,-810 716.856,-792 743.891,-774 797.962,-774 824.997,-792"/>
<text text-anchor="middle" x="770.927" y="-788.3" font-family="Times New Roman,serif" font-size="14.00">ДОМ.RU</text>
</g>
<!-- ДомРу&#45;&gt;ЭрТелеком -->
<g id="edge47" class="edge"><title>ДомРу&#45;&gt;ЭрТелеком</title>
<path fill="none" stroke="black" d="M833.149,-792C854.015,-792 877.704,-792 899.979,-792"/>
<ellipse fill="none" stroke="black" cx="829.142" cy="-792" rx="4" ry="4"/>
<polygon fill="black" stroke="black" points="900.099,-795.5 910.099,-792 900.099,-788.5 900.099,-795.5"/>
</g>
<!-- ЮТК -->
<g id="node15" class="node"><title>ЮТК</title>
<polygon fill="none" stroke="black" points="1248.34,-642 1212.81,-673.054 1141.74,-673.054 1106.2,-642 1141.74,-610.946 1212.81,-610.946 1248.34,-642"/>
<text text-anchor="middle" x="1177.27" y="-645.8" font-family="Times New Roman,serif" font-size="14.00">Ростелеком</text>
<text text-anchor="middle" x="1177.27" y="-630.8" font-family="Times New Roman,serif" font-size="14.00">Волгоград</text>
</g>
<!-- ЭрТелеком&#45;&gt;ЮТК -->
<g id="edge79" class="edge"><title>ЭрТелеком&#45;&gt;ЮТК</title>
<path fill="none" stroke="black" stroke-dasharray="1,5" d="M1029.15,-757.267C1060.3,-732.863 1101.76,-700.375 1132.73,-676.11"/>
<ellipse fill="none" stroke="black" cx="1025.79" cy="-759.898" rx="4.00002" ry="4.00002"/>
<ellipse fill="none" stroke="black" cx="1136.03" cy="-673.53" rx="4.00002" ry="4.00002"/>
</g>
<!-- Связьинформ -->
<g id="node24" class="node"><title>Связьинформ</title>
<polygon fill="none" stroke="black" points="1258.56,-1062.56 1177.27,-1075 1095.99,-1062.56 1096.07,-1042.44 1258.48,-1042.44 1258.56,-1062.56"/>
<text text-anchor="middle" x="1177.27" y="-1053.3" font-family="Times New Roman,serif" font-size="14.00">Связьинформ</text>
</g>
<!-- ЭрТелеком&#45;&gt;Связьинформ -->
<g id="edge80" class="edge"><title>ЭрТелеком&#45;&gt;Связьинформ</title>
<path fill="none" stroke="black" stroke-dasharray="1,5" d="M1012.13,-829.812C1052.94,-886.289 1128.46,-990.824 1160.86,-1035.67"/>
<ellipse fill="none" stroke="black" cx="1009.68" cy="-826.42" rx="4.00002" ry="4.00002"/>
<ellipse fill="none" stroke="black" cx="1163.33" cy="-1039.09" rx="4.00002" ry="4.00002"/>
</g>
<!-- Транстелеком -->
<g id="node4" class="node"><title>Транстелеком</title>
<polygon fill="none" stroke="black" points="1445.81,-1210 1408.01,-1228 1332.41,-1228 1294.61,-1210 1332.41,-1192 1408.01,-1192 1445.81,-1210"/>
<text text-anchor="middle" x="1370.21" y="-1206.3" font-family="Times New Roman,serif" font-size="14.00">Транстелеком</text>
</g>
<!-- Волгатранстелеком -->
<g id="node5" class="node"><title>Волгатранстелеком</title>
<polygon fill="none" stroke="black" points="871.558,-1176 821.242,-1194 720.611,-1194 670.295,-1176 720.611,-1158 821.242,-1158 871.558,-1176"/>
<text text-anchor="middle" x="770.927" y="-1172.3" font-family="Times New Roman,serif" font-size="14.00">Волгатранстелеком</text>
</g>
<!-- Волгатранстелеком&#45;&gt;ЭрТелеком -->
<g id="edge77" class="edge"><title>Волгатранстелеком&#45;&gt;ЭрТелеком</title>
<path fill="none" stroke="black" stroke-dasharray="1,5" d="M853.054,-1162.91C859.935,-1159.28 866.253,-1154.72 871.492,-1149 933.061,-1081.73 879.295,-1033.72 907.492,-947 920.981,-905.513 943.539,-861.002 960.459,-830.37"/>
<ellipse fill="none" stroke="black" cx="849.014" cy="-1164.8" rx="4.00002" ry="4.00002"/>
<ellipse fill="none" stroke="black" cx="962.464" cy="-826.773" rx="4.00002" ry="4.00002"/>
</g>
<!-- Волгатранстелеком&#45;&gt;Транстелеком -->
<g id="edge46" class="edge"><title>Волгатранстелеком&#45;&gt;Транстелеком</title>
<path fill="none" stroke="black" d="M866.379,-1181.38C984.139,-1188.08 1183.17,-1199.41 1292.17,-1205.61"/>
<ellipse fill="none" stroke="black" cx="862.133" cy="-1181.13" rx="4" ry="4"/>
<polygon fill="black" stroke="black" points="1292.25,-1209.12 1302.43,-1206.2 1292.65,-1202.14 1292.25,-1209.12"/>
</g>
<!-- Волгатранстелеком&#45;&gt;ЮТК -->
<g id="edge76" class="edge"><title>Волгатранстелеком&#45;&gt;ЮТК</title>
<path fill="none" stroke="black" stroke-dasharray="1,5" d="M848.886,-1162.17C857.005,-1158.71 864.744,-1154.39 871.492,-1149 898.203,-1127.65 890.548,-1110.7 907.492,-1081 971.811,-968.25 992.363,-942.71 1060.13,-832 1092.34,-779.385 1129.52,-718.543 1152.96,-680.171"/>
<ellipse fill="none" stroke="black" cx="845.069" cy="-1163.66" rx="4.00001" ry="4.00001"/>
<ellipse fill="none" stroke="black" cx="1155.09" cy="-676.688" rx="4.00002" ry="4.00002"/>
</g>
<!-- Orange -->
<g id="node16" class="node"><title>Orange</title>
<polygon fill="none" stroke="black" points="1026.37,-1270 1005.09,-1288 962.534,-1288 941.256,-1270 962.534,-1252 1005.09,-1252 1026.37,-1270"/>
<text text-anchor="middle" x="983.812" y="-1266.3" font-family="Times New Roman,serif" font-size="14.00">Orange</text>
</g>
<!-- Волгатранстелеком&#45;&gt;Orange -->
<g id="edge78" class="edge"><title>Волгатранстелеком&#45;&gt;Orange</title>
<path fill="none" stroke="black" stroke-dasharray="1,5" d="M819.932,-1197.4C858.861,-1214.75 912.821,-1238.8 947.775,-1254.38"/>
<ellipse fill="none" stroke="black" cx="816.241" cy="-1195.75" rx="4.00002" ry="4.00002"/>
<ellipse fill="none" stroke="black" cx="951.711" cy="-1256.14" rx="4.00002" ry="4.00002"/>
</g>
<!-- Релком -->
<g id="node6" class="node"><title>Релком</title>
<polygon fill="none" stroke="black" points="1029.37,-316 1006.59,-334 961.032,-334 938.252,-316 961.032,-298 1006.59,-298 1029.37,-316"/>
<text text-anchor="middle" x="983.812" y="-312.3" font-family="Times New Roman,serif" font-size="14.00">Релком</text>
</g>
<!-- Мегафон -->
<g id="node7" class="node"><title>Мегафон</title>
<polygon fill="none" stroke="black" points="1036.88,-652 1010.35,-670 957.277,-670 930.742,-652 957.277,-634 1010.35,-634 1036.88,-652"/>
<text text-anchor="middle" x="983.812" y="-648.3" font-family="Times New Roman,serif" font-size="14.00">Мегафон</text>
</g>
<!-- Вымпелком -->
<g id="node8" class="node"><title>Вымпелком</title>
<polygon fill="none" stroke="black" points="1222.33,-452 1199.8,-470 1154.74,-470 1132.21,-452 1154.74,-434 1199.8,-434 1222.33,-452"/>
<text text-anchor="middle" x="1177.27" y="-448.3" font-family="Times New Roman,serif" font-size="14.00">Билайн</text>
</g>
<!-- КоламбияТелеком -->
<g id="node9" class="node"><title>КоламбияТелеком</title>
<polygon fill="none" stroke="black" points="867.052,-208 818.989,-226 722.864,-226 674.801,-208 722.864,-190 818.989,-190 867.052,-208"/>
<text text-anchor="middle" x="770.927" y="-204.3" font-family="Times New Roman,serif" font-size="14.00">КоламбияТелеком</text>
</g>
<!-- КоламбияТелеком&#45;&gt;Транстелеком -->
<g id="edge19" class="edge"><title>КоламбияТелеком&#45;&gt;Транстелеком</title>
<path fill="none" stroke="black" d="M822.266,-191.18C881.993,-174.258 983.162,-155.334 1060.13,-191 1183.82,-248.311 1202.63,-300.62 1258.41,-425 1321.29,-565.191 1358.77,-1057.92 1367.33,-1181.65"/>
<polygon fill="black" stroke="black" points="1363.85,-1182.08 1368.02,-1191.82 1370.83,-1181.61 1363.85,-1182.08"/>
</g>
<!-- КоламбияТелеком&#45;&gt;Мегафон -->
<g id="edge21" class="edge"><title>КоламбияТелеком&#45;&gt;Мегафон</title>
<path fill="none" stroke="black" d="M844.217,-216.606C854.582,-220.74 864.188,-226.636 871.492,-235 912.177,-281.589 888.614,-452.098 907.492,-511 921.038,-553.265 947.053,-597.749 964.672,-625.186"/>
<polygon fill="black" stroke="black" points="961.902,-627.344 970.296,-633.809 967.765,-623.521 961.902,-627.344"/>
</g>
<!-- КоламбияТелеком&#45;&gt;Вымпелком -->
<g id="edge20" class="edge"><title>КоламбияТелеком&#45;&gt;Вымпелком</title>
<path fill="none" stroke="black" d="M838.709,-197.372C901.202,-191.077 994.518,-191.409 1060.13,-235 1127.14,-279.515 1158.4,-375.913 1170.26,-423.811"/>
<polygon fill="black" stroke="black" points="1166.91,-424.877 1172.62,-433.803 1173.72,-423.266 1166.91,-424.877"/>
</g>
<!-- WestCall -->
<g id="node18" class="node"><title>WestCall</title>
<polygon fill="none" stroke="black" points="1034.88,-262 1009.35,-280 958.279,-280 932.746,-262 958.279,-244 1009.35,-244 1034.88,-262"/>
<text text-anchor="middle" x="983.812" y="-258.3" font-family="Times New Roman,serif" font-size="14.00">WestCall</text>
</g>
<!-- КоламбияТелеком&#45;&gt;WestCall -->
<g id="edge49" class="edge"><title>КоламбияТелеком&#45;&gt;WestCall</title>
<path fill="none" stroke="black" d="M836.462,-224.525C868.633,-232.763 906.817,-242.541 936.115,-250.042"/>
<ellipse fill="none" stroke="black" cx="832.315" cy="-223.463" rx="4.00001" ry="4.00001"/>
<polygon fill="black" stroke="black" points="935.527,-253.505 946.083,-252.595 937.263,-246.724 935.527,-253.505"/>
</g>
<!-- Евротелеком -->
<g id="node31" class="node"><title>Евротелеком</title>
<polygon fill="none" stroke="black" points="1059.95,-489.562 983.812,-502 907.671,-489.562 907.742,-469.438 1059.88,-469.438 1059.95,-489.562"/>
<text text-anchor="middle" x="983.812" y="-480.3" font-family="Times New Roman,serif" font-size="14.00">Евротелеком</text>
</g>
<!-- КоламбияТелеком&#45;&gt;Евротелеком -->
<g id="edge70" class="edge"><title>КоламбияТелеком&#45;&gt;Евротелеком</title>
<path fill="none" stroke="black" stroke-dasharray="1,5" d="M849.432,-220.591C857.527,-224.265 865.112,-228.974 871.492,-235 908.273,-269.744 887.501,-296.52 907.492,-343 926.235,-386.578 953.528,-434.823 969.597,-462.074"/>
<ellipse fill="none" stroke="black" cx="845.576" cy="-219.013" rx="4.00001" ry="4.00001"/>
<ellipse fill="none" stroke="black" cx="971.774" cy="-465.743" rx="4.00002" ry="4.00002"/>
</g>
<!-- HE -->
<g id="node11" class="node"><title>HE</title>
<polygon fill="none" stroke="black" points="797.927,-1360 784.427,-1378 757.427,-1378 743.927,-1360 757.427,-1342 784.427,-1342 797.927,-1360"/>
<text text-anchor="middle" x="770.927" y="-1356.3" font-family="Times New Roman,serif" font-size="14.00">HE</text>
</g>
<!-- Tele2 -->
<g id="node13" class="node"><title>Tele2</title>
<polygon fill="none" stroke="black" points="1018.86,-1141 1001.34,-1159 966.289,-1159 948.765,-1141 966.289,-1123 1001.34,-1123 1018.86,-1141"/>
<text text-anchor="middle" x="983.812" y="-1137.3" font-family="Times New Roman,serif" font-size="14.00">Tele2</text>
</g>
<!-- Tele2&#45;&gt;Транстелеком -->
<g id="edge3" class="edge"><title>Tele2&#45;&gt;Транстелеком</title>
<path fill="none" stroke="black" d="M999.661,-1159.15C1015.6,-1179.05 1041.18,-1212.27 1060.13,-1243 1078.71,-1273.11 1065.98,-1295.48 1096.13,-1314 1157.59,-1351.75 1191.35,-1340.54 1258.41,-1314 1297.64,-1298.47 1331.1,-1261.76 1350.69,-1236.39"/>
<polygon fill="black" stroke="black" points="1353.58,-1238.37 1356.78,-1228.27 1347.98,-1234.16 1353.58,-1238.37"/>
</g>
<!-- Tele2&#45;&gt;Ростелеком -->
<g id="edge2" class="edge"><title>Tele2&#45;&gt;Ростелеком</title>
<path fill="none" stroke="black" d="M1015.72,-1144.55C1072.4,-1149.19 1193.09,-1150.08 1258.41,-1084 1334.9,-1006.63 1361.48,-651.87 1367.67,-548.401"/>
<polygon fill="black" stroke="black" points="1371.19,-548.303 1368.27,-538.117 1364.2,-547.897 1371.19,-548.303"/>
</g>
<!-- МТС -->
<g id="node14" class="node"><title>МТС</title>
<polygon fill="none" stroke="black" points="805.974,-262 788.45,-280 753.403,-280 735.879,-262 753.403,-244 788.45,-244 805.974,-262"/>
<text text-anchor="middle" x="770.927" y="-258.3" font-family="Times New Roman,serif" font-size="14.00">МТС</text>
</g>
<!-- ЮТК&#45;&gt;Ростелеком -->
<g id="edge45" class="edge"><title>ЮТК&#45;&gt;Ростелеком</title>
<path fill="none" stroke="black" d="M1225.83,-611.616C1258.75,-590.583 1301.92,-562.994 1332.27,-543.608"/>
<ellipse fill="none" stroke="black" cx="1222.14" cy="-613.973" rx="4.00002" ry="4.00002"/>
<polygon fill="black" stroke="black" points="1334.31,-546.454 1340.85,-538.121 1330.54,-540.555 1334.31,-546.454"/>
</g>
<!-- ПросторТелеком -->
<g id="node17" class="node"><title>ПросторТелеком</title>
<polygon fill="none" stroke="black" points="861.044,-538 815.985,-556 725.868,-556 680.809,-538 725.868,-520 815.985,-520 861.044,-538"/>
<text text-anchor="middle" x="770.927" y="-534.3" font-family="Times New Roman,serif" font-size="14.00">ПросторТелеком</text>
</g>
<!-- ПросторТелеком&#45;&gt;Мегафон -->
<g id="edge30" class="edge"><title>ПросторТелеком&#45;&gt;Мегафон</title>
<path fill="none" stroke="black" d="M831.277,-549.939C844.877,-553.798 859,-558.747 871.492,-565 903.725,-581.134 935.634,-607.413 956.97,-626.874"/>
<polygon fill="black" stroke="black" points="954.621,-629.469 964.333,-633.703 959.382,-624.337 954.621,-629.469"/>
</g>
<!-- ПросторТелеком&#45;&gt;Вымпелком -->
<g id="edge29" class="edge"><title>ПросторТелеком&#45;&gt;Вымпелком</title>
<path fill="none" stroke="black" d="M860.543,-538.247C918.38,-536.338 994.963,-529.861 1060.13,-511 1061.22,-510.685 1106.55,-487.597 1140.25,-470.401"/>
<polygon fill="black" stroke="black" points="1142.08,-473.394 1149.4,-465.731 1138.9,-467.16 1142.08,-473.394"/>
</g>
<!-- Powernet&#45;&gt;Унико -->
<g id="edge43" class="edge"><title>Powernet&#45;&gt;Унико</title>
<path fill="none" stroke="black" d="M728.286,-697.827C709.536,-702.547 687.757,-709.1 670.361,-720 632.368,-743.806 600.225,-784.683 580.563,-811.688"/>
<ellipse fill="none" stroke="black" cx="732.229" cy="-696.861" rx="4.00001" ry="4.00001"/>
<polygon fill="black" stroke="black" points="577.631,-809.769 574.626,-819.929 583.311,-813.861 577.631,-809.769"/>
</g>
<!-- Powernet&#45;&gt;ЭрТелеком -->
<g id="edge68" class="edge"><title>Powernet&#45;&gt;ЭрТелеком</title>
<path fill="none" stroke="black" stroke-dasharray="1,5" d="M820.384,-693.385C837.054,-697.583 855.53,-703.35 871.492,-711 895.998,-722.745 920.694,-740.034 940.577,-755.626"/>
<ellipse fill="none" stroke="black" cx="816.252" cy="-692.387" rx="4.00001" ry="4.00001"/>
<ellipse fill="none" stroke="black" cx="943.727" cy="-758.13" rx="4.00002" ry="4.00002"/>
</g>
<!-- Powernet&#45;&gt;Мегафон -->
<g id="edge14" class="edge"><title>Powernet&#45;&gt;Мегафон</title>
<path fill="none" stroke="black" d="M813.591,-677.678C846.913,-672.622 893.846,-665.5 929.836,-660.039"/>
<polygon fill="black" stroke="black" points="930.789,-663.434 940.15,-658.474 929.738,-656.513 930.789,-663.434"/>
</g>
<!-- Powernet&#45;&gt;Вымпелком -->
<g id="edge15" class="edge"><title>Powernet&#45;&gt;Вымпелком</title>
<path fill="none" stroke="black" d="M814.787,-689.565C885.931,-697.797 1024.16,-709.21 1060.13,-679 1124.62,-624.854 1045.54,-560.308 1096.13,-493 1105.52,-480.515 1119.79,-471.529 1133.7,-465.214"/>
<polygon fill="black" stroke="black" points="1135.32,-468.33 1143.21,-461.258 1132.63,-461.867 1135.32,-468.33"/>
</g>
<!-- Powernet&#45;&gt;Евротелеком -->
<g id="edge69" class="edge"><title>Powernet&#45;&gt;Евротелеком</title>
<path fill="none" stroke="black" stroke-dasharray="1,5" d="M807.658,-664.286C827.502,-652.478 852.034,-636.406 871.492,-619 910.314,-584.271 947.072,-535.5 967.114,-507.078"/>
<ellipse fill="none" stroke="black" cx="804.028" cy="-666.414" rx="4.00002" ry="4.00002"/>
<ellipse fill="none" stroke="black" cx="969.55" cy="-503.59" rx="4.00002" ry="4.00002"/>
</g>
<!-- МКС -->
<g id="node21" class="node"><title>МКС</title>
<polygon fill="none" stroke="black" points="628.689,-383.33 558.844,-406.428 488.999,-383.33 489.064,-345.956 628.624,-345.956 628.689,-383.33"/>
<text text-anchor="middle" x="558.844" y="-376.8" font-family="Times New Roman,serif" font-size="14.00">МТС</text>
<text text-anchor="middle" x="558.844" y="-361.8" font-family="Times New Roman,serif" font-size="14.00">Волгоград</text>
</g>
<!-- МКС&#45;&gt;МТС -->
<g id="edge13" class="edge"><title>МКС&#45;&gt;МТС</title>
<path fill="none" stroke="black" d="M608.01,-345.819C617.057,-340.011 626.222,-333.619 634.361,-327 652.411,-312.322 650.39,-300.933 670.361,-289 688.345,-278.254 710.683,-271.691 729.64,-267.732"/>
<polygon fill="black" stroke="black" points="730.329,-271.164 739.489,-265.84 729.008,-264.289 730.329,-271.164"/>
</g>
<!-- СпринтСеть -->
<g id="node25" class="node"><title>СпринтСеть</title>
<polygon fill="none" stroke="black" points="844.141,-489.562 770.927,-502 697.713,-489.562 697.781,-469.438 844.072,-469.438 844.141,-489.562"/>
<text text-anchor="middle" x="770.927" y="-480.3" font-family="Times New Roman,serif" font-size="14.00">СпринтСеть</text>
</g>
<!-- МКС&#45;&gt;СпринтСеть -->
<g id="edge63" class="edge"><title>МКС&#45;&gt;СпринтСеть</title>
<path fill="none" stroke="black" stroke-dasharray="1,5" d="M605.681,-397.218C644.625,-417.795 699.692,-446.89 735.108,-465.603"/>
<ellipse fill="none" stroke="black" cx="601.913" cy="-395.228" rx="4.00002" ry="4.00002"/>
<ellipse fill="none" stroke="black" cx="738.817" cy="-467.563" rx="4.00002" ry="4.00002"/>
</g>
<!-- ГородокТочкаРу -->
<g id="node22" class="node"><title>ГородокТочкаРу</title>
<polygon fill="none" stroke="black" points="380.041,-997.562 309.147,-1010 238.253,-997.562 238.319,-977.438 379.975,-977.438 380.041,-997.562"/>
<text text-anchor="middle" x="309.147" y="-988.3" font-family="Times New Roman,serif" font-size="14.00">Городок.Ру</text>
</g>
<!-- ГородокТочкаРу&#45;&gt;Унико -->
<g id="edge55" class="edge"><title>ГородокТочкаРу&#45;&gt;Унико</title>
<path fill="none" stroke="black" d="M387.959,-985.81C408.251,-981.809 429.428,-975.356 447.327,-965 489.513,-940.593 523.632,-894.098 542.294,-864.646"/>
<ellipse fill="black" stroke="black" cx="383.869" cy="-986.558" rx="4.00001" ry="4.00001"/>
<polygon fill="black" stroke="black" points="545.299,-866.442 547.582,-856.096 539.345,-862.76 545.299,-866.442"/>
</g>
<!-- STARLINE -->
<g id="node23" class="node"><title>STARLINE</title>
<polygon fill="none" stroke="black" points="134.95,-793.562 67.4833,-806 0.0166721,-793.562 0.0796443,-773.438 134.887,-773.438 134.95,-793.562"/>
<text text-anchor="middle" x="67.4833" y="-784.3" font-family="Times New Roman,serif" font-size="14.00">STARLINE</text>
</g>
<!-- Связьинформ&#45;&gt;Унико -->
<g id="edge39" class="edge"><title>Связьинформ&#45;&gt;Унико</title>
<path fill="none" stroke="black" d="M1111.3,-1067.5C1036.85,-1080.04 923.055,-1100.95 907.492,-1114 874.794,-1141.41 906.871,-1179.15 871.492,-1203 834.433,-1227.99 706.254,-1229.63 670.361,-1203 614.883,-1161.83 576.414,-945.237 564.089,-866.578"/>
<ellipse fill="none" stroke="black" cx="1115.33" cy="-1066.83" rx="4.00001" ry="4.00001"/>
<polygon fill="black" stroke="black" points="567.507,-865.777 562.524,-856.427 560.589,-866.843 567.507,-865.777"/>
</g>
<!-- Связьинформ&#45;&gt;Транстелеком -->
<g id="edge1" class="edge"><title>Связьинформ&#45;&gt;Транстелеком</title>
<path fill="none" stroke="black" d="M1197.28,-1072.23C1230.3,-1098.69 1298.55,-1153.38 1338.42,-1185.32"/>
<polygon fill="black" stroke="black" points="1336.48,-1188.25 1346.47,-1191.77 1340.85,-1182.79 1336.48,-1188.25"/>
</g>
<!-- СпринтСеть&#45;&gt;Мегафон -->
<g id="edge5" class="edge"><title>СпринтСеть&#45;&gt;Мегафон</title>
<path fill="none" stroke="black" d="M831.864,-491.689C845.967,-495.702 860.171,-501.786 871.492,-511 898.932,-533.334 886.204,-553.741 907.492,-582 920.09,-598.723 936.953,-614.815 951.53,-627.344"/>
<polygon fill="black" stroke="black" points="949.444,-630.164 959.351,-633.92 953.949,-624.806 949.444,-630.164"/>
</g>
<!-- СпринтСеть&#45;&gt;Вымпелком -->
<g id="edge4" class="edge"><title>СпринтСеть&#45;&gt;Вымпелком</title>
<path fill="none" stroke="black" d="M833.319,-469.368C856.432,-464.496 883.036,-459.642 907.492,-457 982.253,-448.925 1069.37,-449.034 1123.68,-450.223"/>
<polygon fill="black" stroke="black" points="1123.68,-453.724 1133.76,-450.465 1123.85,-446.726 1123.68,-453.724"/>
</g>
<!-- СпринтСеть&#45;&gt;Связьинформ -->
<g id="edge62" class="edge"><title>СпринтСеть&#45;&gt;Связьинформ</title>
<path fill="none" stroke="black" stroke-dasharray="1,5" d="M828.558,-495.47C894.991,-512.045 1003.26,-549.393 1060.13,-625 1072.95,-642.043 1149.3,-947.964 1170.7,-1034.42"/>
<ellipse fill="none" stroke="black" cx="824.557" cy="-494.497" rx="4.00001" ry="4.00001"/>
<ellipse fill="none" stroke="black" cx="1171.69" cy="-1038.42" rx="4.00001" ry="4.00001"/>
</g>
<!-- Старнет -->
<g id="node26" class="node"><title>Старнет</title>
<polygon fill="none" stroke="black" points="119.923,-739.562 67.4833,-752 15.0439,-739.562 15.0929,-719.438 119.874,-719.438 119.923,-739.562"/>
<text text-anchor="middle" x="67.4833" y="-730.3" font-family="Times New Roman,serif" font-size="14.00">Старнет</text>
</g>
<!-- Старнет&#45;&gt;Унико -->
<g id="edge41" class="edge"><title>Старнет&#45;&gt;Унико</title>
<path fill="none" stroke="black" d="M111.008,-746.605C119.511,-750.362 127.969,-755.099 134.967,-761 158.161,-780.558 144.823,-803.605 170.967,-819 226.972,-851.979 418.977,-845.987 509.669,-841.074"/>
<ellipse fill="none" stroke="black" cx="107.261" cy="-745.07" rx="4.00002" ry="4.00002"/>
<polygon fill="black" stroke="black" points="509.901,-844.567 519.689,-840.513 509.509,-837.578 509.901,-844.567"/>
</g>
<!-- Старнет&#45;&gt;Транстелеком -->
<g id="edge6" class="edge"><title>Старнет&#45;&gt;Транстелеком</title>
<path fill="none" stroke="black" d="M108.095,-742.449C118.268,-746.459 128.229,-752.352 134.967,-761 206.119,-852.333 119.366,-915.357 170.967,-1019 279.36,-1236.72 314.638,-1406 557.844,-1406 557.844,-1406 557.844,-1406 984.812,-1406 1109.9,-1406 1151.83,-1405.47 1258.41,-1340 1300.55,-1314.12 1334.8,-1266.8 1353.57,-1236.95"/>
<polygon fill="black" stroke="black" points="1356.63,-1238.64 1358.88,-1228.29 1350.67,-1234.98 1356.63,-1238.64"/>
</g>
<!-- Старнет&#45;&gt;КоламбияТелеком -->
<g id="edge40" class="edge"><title>Старнет&#45;&gt;КоламбияТелеком</title>
<path fill="none" stroke="black" d="M68.516,-711.269C69.7905,-648.541 81.5506,-470.679 170.967,-365 296.923,-216.135 545.115,-199.409 679.069,-202.302"/>
<ellipse fill="none" stroke="black" cx="68.4569" cy="-715.337" rx="4" ry="4"/>
<polygon fill="black" stroke="black" points="679.215,-205.807 689.302,-202.566 679.395,-198.809 679.215,-205.807"/>
</g>
<!-- Магистраль -->
<g id="node42" class="node"><title>Магистраль</title>
<polygon fill="none" stroke="black" points="380.041,-635.562 309.147,-648 238.253,-635.562 238.319,-615.438 379.975,-615.438 380.041,-635.562"/>
<text text-anchor="middle" x="309.147" y="-626.3" font-family="Times New Roman,serif" font-size="14.00">Магистраль</text>
</g>
<!-- Старнет&#45;&gt;Магистраль -->
<g id="edge64" class="edge"><title>Старнет&#45;&gt;Магистраль</title>
<path fill="none" stroke="black" stroke-dasharray="1,5" d="M89.3047,-713.819C108.816,-696.082 139.603,-670.982 170.967,-657 191.116,-648.017 214.25,-642.01 235.709,-637.997"/>
<ellipse fill="none" stroke="black" cx="86.3171" cy="-716.58" rx="4.00002" ry="4.00002"/>
<ellipse fill="none" stroke="black" cx="239.903" cy="-637.253" rx="4.00001" ry="4.00001"/>
</g>
<!-- Экспилайн -->
<g id="node27" class="node"><title>Экспилайн</title>
<polygon fill="none" stroke="black" points="837.787,-1073.56 770.927,-1086 704.066,-1073.56 704.129,-1053.44 837.725,-1053.44 837.787,-1073.56"/>
<text text-anchor="middle" x="770.927" y="-1064.3" font-family="Times New Roman,serif" font-size="14.00">Экспилайн</text>
</g>
<!-- Экспилайн&#45;&gt;Мегафон -->
<g id="edge7" class="edge"><title>Экспилайн&#45;&gt;Мегафон</title>
<path fill="none" stroke="black" d="M837.816,-1058.34C850.645,-1053.56 862.793,-1046.48 871.492,-1036 952.77,-938.113 859.612,-869.88 907.492,-752 918.943,-723.808 940.396,-696.544 957.486,-677.624"/>
<polygon fill="black" stroke="black" points="960.275,-679.763 964.502,-670.048 955.139,-675.007 960.275,-679.763"/>
</g>
<!-- Экспилайн&#45;&gt;Связьинформ -->
<g id="edge65" class="edge"><title>Экспилайн&#45;&gt;Связьинформ</title>
<path fill="none" stroke="black" stroke-dasharray="1,5" d="M845.806,-1065.99C913.912,-1064.14 1015.11,-1061.38 1087.57,-1059.41"/>
<ellipse fill="none" stroke="black" cx="841.79" cy="-1066.1" rx="4" ry="4"/>
<ellipse fill="none" stroke="black" cx="1091.81" cy="-1059.3" rx="4" ry="4"/>
</g>
<!-- ЭРОС -->
<g id="node28" class="node"><title>ЭРОС</title>
<polygon fill="none" stroke="black" points="603.216,-1223.56 558.844,-1236 514.472,-1223.56 514.514,-1203.44 603.174,-1203.44 603.216,-1223.56"/>
<text text-anchor="middle" x="558.844" y="-1214.3" font-family="Times New Roman,serif" font-size="14.00">ЭРОС</text>
</g>
<!-- ЭРОС&#45;&gt;Волгатранстелеком -->
<g id="edge8" class="edge"><title>ЭРОС&#45;&gt;Волгатранстелеком</title>
<path fill="none" stroke="black" d="M603.118,-1209.35C629.89,-1204 664.963,-1196.98 696.037,-1190.77"/>
<polygon fill="black" stroke="black" points="696.85,-1194.18 705.969,-1188.79 695.477,-1187.31 696.85,-1194.18"/>
</g>
<!-- ЭРОС&#45;&gt;Мегафон -->
<g id="edge10" class="edge"><title>ЭРОС&#45;&gt;Мегафон</title>
<path fill="none" stroke="black" d="M564.458,-1203.21C576.065,-1168.63 609.95,-1082.3 670.361,-1041 745.461,-989.657 808.604,-1068.74 871.492,-1003 949.397,-921.567 864.229,-856.062 907.492,-752 919.173,-723.903 940.604,-696.63 957.628,-677.682"/>
<polygon fill="black" stroke="black" points="960.416,-679.822 964.613,-670.094 955.265,-675.081 960.416,-679.822"/>
</g>
<!-- ЭРОС&#45;&gt;HE -->
<g id="edge9" class="edge"><title>ЭРОС&#45;&gt;HE</title>
<path fill="none" stroke="black" d="M570.176,-1233.2C587.79,-1257.93 626.055,-1306.74 670.361,-1333 690.435,-1344.9 715.865,-1351.68 736.001,-1355.47"/>
<polygon fill="black" stroke="black" points="735.542,-1358.94 745.991,-1357.19 736.73,-1352.04 735.542,-1358.94"/>
</g>
<!-- ЭРОС&#45;&gt;Tele2 -->
<g id="edge42" class="edge"><title>ЭРОС&#45;&gt;Tele2</title>
<path fill="none" stroke="black" d="M597.506,-1229.6C657.566,-1246.04 777.812,-1270.54 871.492,-1236 908.597,-1222.32 941.733,-1190.16 962.011,-1167.04"/>
<ellipse fill="none" stroke="black" cx="593.64" cy="-1228.51" rx="4.00001" ry="4.00001"/>
<polygon fill="black" stroke="black" points="964.799,-1169.17 968.632,-1159.29 959.476,-1164.62 964.799,-1169.17"/>
</g>
<!-- Comrise -->
<g id="node29" class="node"><title>Comrise</title>
<polygon fill="none" stroke="black" points="360.479,-397.562 309.147,-410 257.815,-397.562 257.863,-377.438 360.431,-377.438 360.479,-397.562"/>
<text text-anchor="middle" x="309.147" y="-388.3" font-family="Times New Roman,serif" font-size="14.00">Comrise</text>
</g>
<!-- Comrise&#45;&gt;Унико -->
<g id="edge66" class="edge"><title>Comrise&#45;&gt;Унико</title>
<path fill="none" stroke="black" stroke-dasharray="1,5" d="M325.996,-414.145C352.685,-451.905 407.573,-531.601 447.327,-603 488.415,-676.795 528.551,-768.433 547.125,-812.28"/>
<ellipse fill="none" stroke="black" cx="323.361" cy="-410.43" rx="4.00002" ry="4.00002"/>
<ellipse fill="none" stroke="black" cx="548.783" cy="-816.21" rx="4.00002" ry="4.00002"/>
</g>
<!-- Comrise&#45;&gt;Вымпелком -->
<g id="edge12" class="edge"><title>Comrise&#45;&gt;Вымпелком</title>
<path fill="none" stroke="black" d="M314.82,-377.251C330.149,-331.718 383.717,-193.292 483.327,-141 497.325,-133.652 795.119,-132.079 871.492,-142 957.393,-153.159 994.055,-134.989 1060.13,-191 1133.22,-252.955 1162.14,-370.04 1171.93,-423.764"/>
<polygon fill="black" stroke="black" points="1168.53,-424.67 1173.69,-433.927 1175.43,-423.476 1168.53,-424.67"/>
</g>
<!-- Comrise&#45;&gt;Ростелеком -->
<g id="edge11" class="edge"><title>Comrise&#45;&gt;Ростелеком</title>
<path fill="none" stroke="black" d="M315.373,-377.42C332.122,-332.885 388.958,-197.687 483.327,-132 590.774,-57.2099 639.013,-64 769.927,-64 769.927,-64 769.927,-64 984.812,-64 1122.02,-64 1168.49,-103.369 1258.41,-207 1332.93,-292.868 1358.39,-432.204 1366.16,-491.658"/>
<polygon fill="black" stroke="black" points="1362.71,-492.303 1367.41,-501.799 1369.66,-491.446 1362.71,-492.303"/>
</g>
<!-- Comrise&#45;&gt;Powernet -->
<g id="edge67" class="edge"><title>Comrise&#45;&gt;Powernet</title>
<path fill="none" stroke="black" stroke-dasharray="1,5" d="M332.39,-411.462C386.639,-458.06 531.502,-577.334 670.361,-647 688.228,-655.964 708.815,-663.97 726.616,-670.223"/>
<ellipse fill="none" stroke="black" cx="329.258" cy="-408.76" rx="4.00002" ry="4.00002"/>
<ellipse fill="none" stroke="black" cx="730.798" cy="-671.666" rx="4.00001" ry="4.00001"/>
</g>
<!-- VSSA -->
<g id="node30" class="node"><title>VSSA</title>
<polygon fill="none" stroke="black" points="813.584,-1311.56 770.927,-1324 728.269,-1311.56 728.309,-1291.44 813.544,-1291.44 813.584,-1311.56"/>
<text text-anchor="middle" x="770.927" y="-1302.3" font-family="Times New Roman,serif" font-size="14.00">VSSA</text>
</g>
<!-- VSSA&#45;&gt;Orange -->
<g id="edge16" class="edge"><title>VSSA&#45;&gt;Orange</title>
<path fill="none" stroke="black" d="M813.591,-1298.89C849.579,-1292.74 901.445,-1283.89 938.253,-1277.61"/>
<polygon fill="black" stroke="black" points="938.942,-1281.04 948.21,-1275.91 937.764,-1274.14 938.942,-1281.04"/>
</g>
<!-- Евротелеком&#45;&gt;Транстелеком -->
<g id="edge17" class="edge"><title>Евротелеком&#45;&gt;Транстелеком</title>
<path fill="none" stroke="black" d="M1026.92,-495.031C1039.23,-500.159 1051.64,-507.526 1060.13,-518 1107.14,-575.959 1070.78,-611.816 1096.13,-682 1169.26,-884.394 1304.44,-1107.39 1352.07,-1183.14"/>
<polygon fill="black" stroke="black" points="1349.13,-1185.05 1357.43,-1191.64 1355.05,-1181.31 1349.13,-1185.05"/>
</g>
<!-- Евротелеком&#45;&gt;Вымпелком -->
<g id="edge18" class="edge"><title>Евротелеком&#45;&gt;Вымпелком</title>
<path fill="none" stroke="black" d="M1059.93,-471.445C1083.52,-467.502 1108.86,-463.267 1129.85,-459.759"/>
<polygon fill="black" stroke="black" points="1130.49,-463.2 1139.78,-458.099 1129.34,-456.296 1130.49,-463.2"/>
</g>
<!-- Virgin -->
<g id="node32" class="node"><title>Virgin</title>
<polygon fill="none" stroke="black" points="599.182,-504.562 558.844,-517 518.506,-504.562 518.544,-484.438 599.144,-484.438 599.182,-504.562"/>
<text text-anchor="middle" x="558.844" y="-495.3" font-family="Times New Roman,serif" font-size="14.00">Virgin</text>
</g>
<!-- Virgin&#45;&gt;Волгатранстелеком -->
<g id="edge60" class="edge"><title>Virgin&#45;&gt;Волгатранстелеком</title>
<path fill="none" stroke="black" d="M566.728,-523.123C581.348,-575.231 615.684,-702.376 634.361,-811 647.161,-885.444 621.351,-1091.52 670.361,-1149 674.889,-1154.31 680.346,-1158.63 686.344,-1162.14"/>
<ellipse fill="black" stroke="black" cx="565.641" cy="-519.269" rx="4.00001" ry="4.00001"/>
<polygon fill="black" stroke="black" points="684.965,-1165.36 695.473,-1166.72 688.103,-1159.1 684.965,-1165.36"/>
</g>
<!-- Virgin&#45;&gt;Мегафон -->
<g id="edge23" class="edge"><title>Virgin&#45;&gt;Мегафон</title>
<path fill="none" stroke="black" d="M571.124,-513.631C593.954,-542.814 645.563,-606.532 670.361,-619 713.095,-640.486 843.915,-648.021 922.076,-650.635"/>
<polygon fill="black" stroke="black" points="922.167,-654.14 932.273,-650.959 922.389,-647.144 922.167,-654.14"/>
</g>
<!-- Virgin&#45;&gt;Вымпелком -->
<g id="edge22" class="edge"><title>Virgin&#45;&gt;Вымпелком</title>
<path fill="none" stroke="black" d="M590.492,-484.336C612.245,-474.685 642.426,-462.801 670.361,-457 835.36,-422.734 1037.19,-437.02 1127.98,-446.331"/>
<polygon fill="black" stroke="black" points="1127.66,-449.816 1137.97,-447.382 1128.4,-442.855 1127.66,-449.816"/>
</g>
<!-- Virgin&#45;&gt;Ростелеком -->
<g id="edge24" class="edge"><title>Virgin&#45;&gt;Ростелеком</title>
<path fill="none" stroke="black" d="M577.618,-484.336C598.381,-468.222 634.479,-443.263 670.361,-433 921.666,-361.125 1013.28,-334.296 1258.41,-425 1295.4,-438.686 1328.37,-470.848 1348.54,-493.96"/>
<polygon fill="black" stroke="black" points="1345.98,-496.356 1355.12,-501.712 1351.31,-491.825 1345.98,-496.356"/>
</g>
<!-- Энфорта -->
<g id="node33" class="node"><title>Энфорта</title>
<polygon fill="none" stroke="black" points="1233.75,-1292.56 1177.27,-1305 1120.8,-1292.56 1120.85,-1272.44 1233.69,-1272.44 1233.75,-1292.56"/>
<text text-anchor="middle" x="1177.27" y="-1283.3" font-family="Times New Roman,serif" font-size="14.00">Энфорта</text>
</g>
<!-- Энфорта&#45;&gt;Транстелеком -->
<g id="edge28" class="edge"><title>Энфорта&#45;&gt;Транстелеком</title>
<path fill="none" stroke="black" d="M1224.33,-1272.35C1235.56,-1268.54 1247.48,-1264.3 1258.41,-1260 1279.77,-1251.61 1302.97,-1241.33 1322.59,-1232.28"/>
<polygon fill="black" stroke="black" points="1324.32,-1235.33 1331.91,-1227.94 1321.37,-1228.98 1324.32,-1235.33"/>
</g>
<!-- WMAX -->
<g id="node34" class="node"><title>WMAX</title>
<polygon fill="none" stroke="black" points="820.545,-321.562 770.927,-334 721.308,-321.562 721.354,-301.438 820.499,-301.438 820.545,-321.562"/>
<text text-anchor="middle" x="770.927" y="-312.3" font-family="Times New Roman,serif" font-size="14.00">WMAX</text>
</g>
<!-- WMAX&#45;&gt;Релком -->
<g id="edge33" class="edge"><title>WMAX&#45;&gt;Релком</title>
<path fill="none" stroke="black" d="M820.573,-316C852.652,-316 894.727,-316 927.99,-316"/>
<polygon fill="black" stroke="black" points="928.01,-319.5 938.01,-316 928.01,-312.5 928.01,-319.5"/>
</g>
<!-- WMAX&#45;&gt;Мегафон -->
<g id="edge31" class="edge"><title>WMAX&#45;&gt;Мегафон</title>
<path fill="none" stroke="black" d="M783.476,-331.314C802.566,-356.851 841.565,-409.977 871.492,-457 908.732,-515.513 947.979,-586.884 968.456,-624.976"/>
<polygon fill="black" stroke="black" points="965.437,-626.753 973.245,-633.916 971.608,-623.448 965.437,-626.753"/>
</g>
<!-- WMAX&#45;&gt;WestCall -->
<g id="edge32" class="edge"><title>WMAX&#45;&gt;WestCall</title>
<path fill="none" stroke="black" d="M820.573,-303.544C855.336,-294.642 901.84,-282.734 936.146,-273.95"/>
<polygon fill="black" stroke="black" points="937.106,-277.317 945.925,-271.445 935.37,-270.535 937.106,-277.317"/>
</g>
<!-- InstrNet -->
<g id="node35" class="node"><title>InstrNet</title>
<polygon fill="none" stroke="black" points="820.545,-743.562 770.927,-756 721.308,-743.562 721.354,-723.438 820.499,-723.438 820.545,-743.562"/>
<text text-anchor="middle" x="770.927" y="-734.3" font-family="Times New Roman,serif" font-size="14.00">InstrNet</text>
</g>
<!-- InstrNet&#45;&gt;ЭрТелеком -->
<g id="edge48" class="edge"><title>InstrNet&#45;&gt;ЭрТелеком</title>
<path fill="none" stroke="black" d="M815.18,-749.076C844.522,-756.589 883.861,-766.662 917.056,-775.162"/>
<ellipse fill="none" stroke="black" cx="811.099" cy="-748.031" rx="4.00001" ry="4.00001"/>
<polygon fill="black" stroke="black" points="916.587,-778.655 927.143,-777.745 918.324,-771.874 916.587,-778.655"/>
</g>
<!-- InstrNet&#45;&gt;Мегафон -->
<g id="edge34" class="edge"><title>InstrNet&#45;&gt;Мегафон</title>
<path fill="none" stroke="black" d="M820.741,-727.076C837.126,-722.802 855.334,-717.381 871.492,-711 897.482,-700.737 925.254,-686.025 946.558,-673.859"/>
<polygon fill="black" stroke="black" points="948.364,-676.858 955.268,-668.822 944.859,-670.798 948.364,-676.858"/>
</g>
<!-- ТСвязь -->
<g id="node36" class="node"><title>ТСвязь</title>
<polygon fill="none" stroke="black" points="820.545,-597.562 770.927,-610 721.308,-597.562 721.354,-577.438 820.499,-577.438 820.545,-597.562"/>
<text text-anchor="middle" x="770.927" y="-588.3" font-family="Times New Roman,serif" font-size="14.00">ТСвязь</text>
</g>
<!-- ТСвязь&#45;&gt;Мегафон -->
<g id="edge35" class="edge"><title>ТСвязь&#45;&gt;Мегафон</title>
<path fill="none" stroke="black" d="M805.342,-601.507C840.674,-611.56 896.675,-627.493 936.308,-638.769"/>
<polygon fill="black" stroke="black" points="935.433,-642.159 946.009,-641.529 937.349,-635.426 935.433,-642.159"/>
</g>
<!-- ТСвязь&#45;&gt;Вымпелком -->
<g id="edge36" class="edge"><title>ТСвязь&#45;&gt;Вымпелком</title>
<path fill="none" stroke="black" d="M820.598,-592.588C880.925,-591.205 984.951,-581.741 1060.13,-537 1081.85,-524.078 1076.47,-508.868 1096.13,-493 1108.39,-483.112 1123.41,-474.656 1137.12,-468.038"/>
<polygon fill="black" stroke="black" points="1138.76,-471.137 1146.35,-463.754 1135.81,-464.787 1138.76,-471.137"/>
</g>
<!-- Восток -->
<g id="node37" class="node"><title>Восток</title>
<polygon fill="none" stroke="black" points="819.332,-1127.56 770.927,-1140 722.521,-1127.56 722.566,-1107.44 819.287,-1107.44 819.332,-1127.56"/>
<text text-anchor="middle" x="770.927" y="-1118.3" font-family="Times New Roman,serif" font-size="14.00">Восток</text>
</g>
<!-- Восток&#45;&gt;Мегафон -->
<g id="edge37" class="edge"><title>Восток&#45;&gt;Мегафон</title>
<path fill="none" stroke="black" d="M819.165,-1120.4C838.175,-1117.22 858.605,-1110.14 871.492,-1095 921.174,-1036.64 879.416,-823.313 907.492,-752 918.569,-723.863 939.852,-696.774 956.976,-677.904"/>
<polygon fill="black" stroke="black" points="959.765,-680.045 964.019,-670.341 954.642,-675.275 959.765,-680.045"/>
</g>
<!-- Восток&#45;&gt;Tele2 -->
<g id="edge38" class="edge"><title>Восток&#45;&gt;Tele2</title>
<path fill="none" stroke="black" d="M819.253,-1126.26C855.791,-1129.56 905.868,-1134.07 940.954,-1137.23"/>
<polygon fill="black" stroke="black" points="941.056,-1140.75 951.33,-1138.16 941.684,-1133.78 941.056,-1140.75"/>
</g>
<!-- SmIT34 -->
<g id="node38" class="node"><title>SmIT34</title>
<polygon fill="none" stroke="black" points="608.463,-251.562 558.844,-264 509.225,-251.562 509.271,-231.438 608.417,-231.438 608.463,-251.562"/>
<text text-anchor="middle" x="558.844" y="-242.3" font-family="Times New Roman,serif" font-size="14.00">SmIT34</text>
</g>
<!-- SmIT34&#45;&gt;КоламбияТелеком -->
<g id="edge50" class="edge"><title>SmIT34&#45;&gt;КоламбияТелеком</title>
<path fill="none" stroke="black" d="M616.53,-235.747C640.782,-231.36 669.433,-226.177 695.37,-221.486"/>
<ellipse fill="none" stroke="black" cx="612.505" cy="-236.475" rx="4.00001" ry="4.00001"/>
<polygon fill="black" stroke="black" points="696.321,-224.871 705.539,-219.647 695.075,-217.982 696.321,-224.871"/>
</g>
<!-- ВолгаЛинк -->
<g id="node39" class="node"><title>ВолгаЛинк</title>
<polygon fill="none" stroke="black" points="1244.13,-525.562 1177.27,-538 1110.41,-525.562 1110.48,-505.438 1244.07,-505.438 1244.13,-525.562"/>
<text text-anchor="middle" x="1177.27" y="-516.3" font-family="Times New Roman,serif" font-size="14.00">ВолгаЛинк</text>
</g>
<!-- ВолгаЛинк&#45;&gt;Ростелеком -->
<g id="edge51" class="edge"><title>ВолгаЛинк&#45;&gt;Ростелеком</title>
<path fill="none" stroke="black" d="M1252.41,-520C1266.38,-520 1280.99,-520 1294.96,-520"/>
<ellipse fill="black" stroke="black" cx="1247.98" cy="-520" rx="4" ry="4"/>
<polygon fill="black" stroke="black" points="1295,-523.5 1305,-520 1295,-516.5 1295,-523.5"/>
</g>
<!-- Волгателком -->
<g id="node40" class="node"><title>Волгателком</title>
<polygon fill="none" stroke="black" points="634.378,-305.562 558.844,-318 483.31,-305.562 483.38,-285.438 634.308,-285.438 634.378,-305.562"/>
<text text-anchor="middle" x="558.844" y="-296.3" font-family="Times New Roman,serif" font-size="14.00">Волгателком</text>
</g>
<!-- Волгателком&#45;&gt;КоламбияТелеком -->
<g id="edge52" class="edge"><title>Волгателком&#45;&gt;КоламбияТелеком</title>
<path fill="none" stroke="black" d="M617.707,-282.125C623.521,-279.428 629.182,-276.393 634.361,-273 653.821,-260.25 650.39,-246.933 670.361,-235 678.406,-230.193 687.321,-226.223 696.415,-222.949"/>
<ellipse fill="black" stroke="black" cx="613.954" cy="-283.763" rx="4.00002" ry="4.00002"/>
<polygon fill="black" stroke="black" points="697.545,-226.262 705.928,-219.783 695.335,-219.62 697.545,-226.262"/>
</g>
<!-- ИнсаткомВ -->
<g id="node41" class="node"><title>ИнсаткомВ</title>
<polygon fill="none" stroke="black" points="1245.35,-23.5623 1177.27,-36 1109.2,-23.5623 1109.26,-3.43769 1245.28,-3.43769 1245.35,-23.5623"/>
<text text-anchor="middle" x="1177.27" y="-14.3" font-family="Times New Roman,serif" font-size="14.00">ИнсаткомВ</text>
</g>
<!-- ИнсаткомВ&#45;&gt;Ростелеком -->
<g id="edge53" class="edge"><title>ИнсаткомВ&#45;&gt;Ростелеком</title>
<path fill="none" stroke="black" d="M1231.21,-30.7836C1241.42,-35.379 1251.17,-41.5978 1258.41,-50 1316.98,-117.972 1355.07,-400.859 1365.98,-491.748"/>
<ellipse fill="black" stroke="black" cx="1227.43" cy="-29.2331" rx="4.00002" ry="4.00002"/>
<polygon fill="black" stroke="black" points="1362.53,-492.334 1367.18,-501.853 1369.48,-491.511 1362.53,-492.334"/>
</g>
<!-- Магистраль&#45;&gt;Унико -->
<g id="edge54" class="edge"><title>Магистраль&#45;&gt;Унико</title>
<path fill="none" stroke="black" d="M388.257,-634.049C408.844,-638.022 430.096,-644.996 447.327,-657 502.052,-695.125 534.666,-769.924 549.06,-810.405"/>
<ellipse fill="black" stroke="black" cx="384.045" cy="-633.311" rx="4.00001" ry="4.00001"/>
<polygon fill="black" stroke="black" points="545.768,-811.595 552.329,-819.914 552.388,-809.32 545.768,-811.595"/>
</g>
<!-- Магистраль&#45;&gt;ЮТК -->
<g id="edge72" class="edge"><title>Магистраль&#45;&gt;ЮТК</title>
<path fill="none" stroke="black" stroke-dasharray="1,5" d="M327.95,-609.03C357.688,-572.815 417.172,-495.098 447.327,-419 480.6,-335.035 420.181,-283.574 483.327,-219 604.521,-95.0662 699.831,-156.914 871.492,-181 957.854,-193.118 1003.72,-168.493 1060.13,-235 1105.28,-288.226 1068.45,-482.931 1096.13,-547 1105.27,-568.159 1120.74,-588.201 1135.66,-604.374"/>
<ellipse fill="none" stroke="black" cx="325.308" cy="-612.218" rx="4.00002" ry="4.00002"/>
<ellipse fill="none" stroke="black" cx="1138.81" cy="-607.698" rx="4.00002" ry="4.00002"/>
</g>
<!-- Магистраль&#45;&gt;Powernet -->
<g id="edge71" class="edge"><title>Магистраль&#45;&gt;Powernet</title>
<path fill="none" stroke="black" stroke-dasharray="1,5" d="M379.412,-638.135C472.441,-649.061 635.62,-668.226 718.494,-677.959"/>
<ellipse fill="none" stroke="black" cx="375.175" cy="-637.637" rx="4.00001" ry="4.00001"/>
<ellipse fill="none" stroke="black" cx="722.527" cy="-678.433" rx="4.00001" ry="4.00001"/>
</g>
<!-- Магистраль&#45;&gt;Евротелеком -->
<g id="edge73" class="edge"><title>Магистраль&#45;&gt;Евротелеком</title>
<path fill="none" stroke="black" stroke-dasharray="1,5" d="M325.675,-608.647C352.969,-573.029 413.335,-502.405 483.327,-472 631.323,-407.71 827.971,-443.188 924.423,-467.388"/>
<ellipse fill="none" stroke="black" cx="323.075" cy="-612.09" rx="4.00002" ry="4.00002"/>
<ellipse fill="none" stroke="black" cx="928.441" cy="-468.412" rx="4.00001" ry="4.00001"/>
</g>
<!-- ФорумNet -->
<g id="node43" class="node"><title>ФорумNet</title>
<polygon fill="none" stroke="black" points="370.867,-943.562 309.147,-956 247.427,-943.562 247.485,-923.438 370.809,-923.438 370.867,-943.562"/>
<text text-anchor="middle" x="309.147" y="-934.3" font-family="Times New Roman,serif" font-size="14.00">ФорумNet</text>
</g>
<!-- ФорумNet&#45;&gt;Унико -->
<g id="edge56" class="edge"><title>ФорумNet&#45;&gt;Унико</title>
<path fill="none" stroke="black" d="M379.149,-929.811C401.446,-925.757 425.924,-919.774 447.327,-911 477.192,-898.757 507.533,-877.993 528.849,-861.733"/>
<ellipse fill="black" stroke="black" cx="374.984" cy="-930.535" rx="4.00001" ry="4.00001"/>
<polygon fill="black" stroke="black" points="531.088,-864.425 536.838,-855.526 526.794,-858.897 531.088,-864.425"/>
</g>
<!-- ByteS -->
<g id="node44" class="node"><title>ByteS</title>
<polygon fill="none" stroke="black" points="349.485,-889.562 309.147,-902 268.809,-889.562 268.846,-869.438 349.447,-869.438 349.485,-889.562"/>
<text text-anchor="middle" x="309.147" y="-880.3" font-family="Times New Roman,serif" font-size="14.00">ByteS</text>
</g>
<!-- ByteS&#45;&gt;Унико -->
<g id="edge57" class="edge"><title>ByteS&#45;&gt;Унико</title>
<path fill="none" stroke="black" d="M357.276,-875.248C402.363,-866.875 469.83,-854.345 513.844,-846.171"/>
<ellipse fill="black" stroke="black" cx="353.328" cy="-875.981" rx="4.00001" ry="4.00001"/>
<polygon fill="black" stroke="black" points="514.761,-849.561 523.953,-844.294 513.482,-842.679 514.761,-849.561"/>
</g>
<!-- АвантекПлюс -->
<g id="node45" class="node"><title>АвантекПлюс</title>
<polygon fill="none" stroke="black" points="388.715,-797.562 309.147,-810 229.579,-797.562 229.653,-777.438 388.64,-777.438 388.715,-797.562"/>
<text text-anchor="middle" x="309.147" y="-788.3" font-family="Times New Roman,serif" font-size="14.00">АвантекПлюс</text>
</g>
<!-- АвантекПлюс&#45;&gt;Унико -->
<g id="edge58" class="edge"><title>АвантекПлюс&#45;&gt;Унико</title>
<path fill="none" stroke="black" d="M370.256,-803.163C414.622,-811.402 473.988,-822.427 513.953,-829.849"/>
<ellipse fill="black" stroke="black" cx="366.307" cy="-802.43" rx="4.00001" ry="4.00001"/>
<polygon fill="black" stroke="black" points="513.455,-833.316 523.926,-831.701 514.733,-826.434 513.455,-833.316"/>
</g>
<!-- Robor -->
<g id="node46" class="node"><title>Robor</title>
<polygon fill="none" stroke="black" points="1219.93,-1238.56 1177.27,-1251 1134.62,-1238.56 1134.66,-1218.44 1219.89,-1218.44 1219.93,-1238.56"/>
<text text-anchor="middle" x="1177.27" y="-1229.3" font-family="Times New Roman,serif" font-size="14.00">Robor</text>
</g>
<!-- Robor&#45;&gt;Транстелеком -->
<g id="edge59" class="edge"><title>Robor&#45;&gt;Транстелеком</title>
<path fill="none" stroke="black" d="M1228.4,-1226.96C1250.2,-1224.34 1276.1,-1221.22 1299.7,-1218.37"/>
<ellipse fill="black" stroke="black" cx="1224.15" cy="-1227.47" rx="4.00001" ry="4.00001"/>
<polygon fill="black" stroke="black" points="1300.15,-1221.84 1309.66,-1217.17 1299.31,-1214.89 1300.15,-1221.84"/>
</g>
<!-- ВистОнЛайн -->
<g id="node47" class="node"><title>ВистОнЛайн</title>
<polygon fill="none" stroke="black" points="385.288,-743.562 309.147,-756 233.006,-743.562 233.077,-723.438 385.217,-723.438 385.288,-743.562"/>
<text text-anchor="middle" x="309.147" y="-734.3" font-family="Times New Roman,serif" font-size="14.00">ВистОнЛайн</text>
</g>
<!-- ВистОнЛайн&#45;&gt;Унико -->
<g id="edge61" class="edge"><title>ВистОнЛайн&#45;&gt;Унико</title>
<path fill="none" stroke="black" d="M382.571,-746.823C403.931,-750.86 427.014,-756.673 447.327,-765 477.192,-777.243 507.533,-798.007 528.849,-814.267"/>
<ellipse fill="black" stroke="black" cx="378.414" cy="-746.073" rx="4.00001" ry="4.00001"/>
<polygon fill="black" stroke="black" points="526.794,-817.103 536.838,-820.474 531.088,-811.575 526.794,-817.103"/>
</g>
<!-- ИнформационныйСервис -->
<g id="node48" class="node"><title>ИнформационныйСервис</title>
<polygon fill="none" stroke="black" points="447.507,-689.562 309.147,-702 170.786,-689.562 170.915,-669.438 447.378,-669.438 447.507,-689.562"/>
<text text-anchor="middle" x="309.147" y="-680.3" font-family="Times New Roman,serif" font-size="14.00">ИнформационныйСервис</text>
</g>
<!-- ИнформационныйСервис&#45;&gt;Унико -->
<g id="edge75" class="edge"><title>ИнформационныйСервис&#45;&gt;Унико</title>
<path fill="none" stroke="black" stroke-dasharray="1,5" d="M411.117,-695.854C423.787,-699.625 436.192,-704.558 447.327,-711 490.24,-735.828 524.806,-783.512 543.246,-812.862"/>
<ellipse fill="none" stroke="black" cx="407.056" cy="-694.725" rx="4.00001" ry="4.00001"/>
<ellipse fill="none" stroke="black" cx="545.484" cy="-816.498" rx="4.00002" ry="4.00002"/>
</g>
</g>
</svg>
