<?xml version="1.0" encoding="UTF-8" standalone="no"?>
<!DOCTYPE svg PUBLIC "-//W3C//DTD SVG 1.1//EN"
 "http://www.w3.org/Graphics/SVG/1.1/DTD/svg11.dtd">
<!-- Generated by graphviz version 2.38.0 (20140413.2041)
 -->
<!-- Title: ispgraph Pages: 1 -->
<svg width="1454pt" height="1337pt"
 viewBox="0.00 0.00 1454.01 1337.09" xmlns="http://www.w3.org/2000/svg" xmlns:xlink="http://www.w3.org/1999/xlink">
<g id="graph0" class="graph" transform="scale(1 1) rotate(0) translate(4 1333.09)">
<title>ispgraph</title>
<polygon fill="white" stroke="none" points="-4,4 -4,-1333.09 1450.01,-1333.09 1450.01,4 -4,4"/>
<!-- Унико -->
<g id="node1" class="node"><title>Унико</title>
<polygon fill="none" stroke="black" points="600.899,-1180.09 579.871,-1198.09 537.817,-1198.09 516.789,-1180.09 537.817,-1162.09 579.871,-1162.09 600.899,-1180.09"/>
<text text-anchor="middle" x="558.844" y="-1176.39" font-family="Times New Roman,serif" font-size="14.00">Унико</text>
</g>
<!-- ЭрТелеком -->
<g id="node3" class="node"><title>ЭрТелеком</title>
<polygon fill="none" stroke="black" points="1057.28,-869.085 1020.55,-900.139 947.078,-900.139 910.343,-869.085 947.078,-838.031 1020.55,-838.031 1057.28,-869.085"/>
<text text-anchor="middle" x="983.812" y="-872.885" font-family="Times New Roman,serif" font-size="14.00">ЭР&#45;Телеком</text>
<text text-anchor="middle" x="983.812" y="-857.885" font-family="Times New Roman,serif" font-size="14.00">транзит</text>
</g>
<!-- Унико&#45;&gt;ЭрТелеком -->
<g id="edge72" class="edge"><title>Унико&#45;&gt;ЭрТелеком</title>
<path fill="none" stroke="black" stroke-dasharray="1,5" d="M606.464,-1176.87C673.473,-1169.85 797.118,-1147.56 871.492,-1077.09 903.363,-1046.88 887.433,-1024.14 907.492,-985.085 921.41,-957.985 940.033,-929.254 955.278,-907.166"/>
<ellipse fill="none" stroke="black" cx="602.165" cy="-1177.3" rx="4" ry="4"/>
<ellipse fill="none" stroke="black" cx="957.608" cy="-903.817" rx="4.00002" ry="4.00002"/>
</g>
<!-- Ростелеком -->
<g id="node10" class="node"><title>Ростелеком</title>
<polygon fill="none" stroke="black" points="1435.3,-1028.09 1402.76,-1046.09 1337.67,-1046.09 1305.13,-1028.09 1337.67,-1010.09 1402.76,-1010.09 1435.3,-1028.09"/>
<text text-anchor="middle" x="1370.21" y="-1024.39" font-family="Times New Roman,serif" font-size="14.00">Ростелеком</text>
</g>
<!-- Унико&#45;&gt;Ростелеком -->
<g id="edge24" class="edge"><title>Унико&#45;&gt;Ростелеком</title>
<path fill="none" stroke="black" d="M569.868,-1198.11C586.518,-1225.95 622.806,-1278.35 670.361,-1299.09 752.302,-1334.81 783.001,-1311.74 871.492,-1299.09 1048.84,-1273.72 1112.78,-1290.42 1258.41,-1186.09 1305.96,-1152.02 1340.19,-1090.93 1357.15,-1055.52"/>
<polygon fill="black" stroke="black" points="1360.41,-1056.8 1361.47,-1046.26 1354.07,-1053.84 1360.41,-1056.8"/>
</g>
<!-- КвантТелеком -->
<g id="node12" class="node"><title>КвантТелеком</title>
<polygon fill="none" stroke="black" points="849.028,-1218.09 809.977,-1236.09 731.876,-1236.09 692.825,-1218.09 731.876,-1200.09 809.977,-1200.09 849.028,-1218.09"/>
<text text-anchor="middle" x="770.927" y="-1214.39" font-family="Times New Roman,serif" font-size="14.00">КвантТелеком</text>
</g>
<!-- Унико&#45;&gt;КвантТелеком -->
<g id="edge26" class="edge"><title>Унико&#45;&gt;КвантТелеком</title>
<path fill="none" stroke="black" d="M594.065,-1186.28C623.822,-1191.66 667.774,-1199.61 704.292,-1206.21"/>
<polygon fill="black" stroke="black" points="703.914,-1209.7 714.378,-1208.04 705.16,-1202.81 703.914,-1209.7"/>
</g>
<!-- Powernet -->
<g id="node19" class="node"><title>Powernet</title>
<polygon fill="none" stroke="black" points="822.495,-444.085 796.711,-462.085 745.142,-462.085 719.358,-444.085 745.142,-426.085 796.711,-426.085 822.495,-444.085"/>
<text text-anchor="middle" x="770.927" y="-440.385" font-family="Times New Roman,serif" font-size="14.00">Powernet</text>
</g>
<!-- Унико&#45;&gt;Powernet -->
<g id="edge42" class="edge"><title>Унико&#45;&gt;Powernet</title>
<path fill="none" stroke="black" d="M567.692,-1153.97C583.3,-1107.01 618.124,-1006.01 634.361,-918.085 652.82,-818.127 605.471,-540.327 670.361,-462.085 682.516,-447.429 701.747,-440.29 720.08,-437.596"/>
<ellipse fill="none" stroke="black" cx="566.351" cy="-1158.03" rx="4.00001" ry="4.00001"/>
<polygon fill="black" stroke="black" points="720.544,-441.066 730.122,-436.537 719.81,-434.105 720.544,-441.066"/>
</g>
<!-- RETN -->
<g id="node20" class="node"><title>RETN</title>
<polygon fill="none" stroke="black" points="810.48,-1272.09 790.703,-1290.09 751.15,-1290.09 731.373,-1272.09 751.15,-1254.09 790.703,-1254.09 810.48,-1272.09"/>
<text text-anchor="middle" x="770.927" y="-1268.39" font-family="Times New Roman,serif" font-size="14.00">RETN</text>
</g>
<!-- Унико&#45;&gt;RETN -->
<g id="edge25" class="edge"><title>Унико&#45;&gt;RETN</title>
<path fill="none" stroke="black" d="M582.608,-1195.93C604.316,-1210.43 638.354,-1231.62 670.361,-1245.09 688.887,-1252.88 710.303,-1259.03 728.515,-1263.48"/>
<polygon fill="black" stroke="black" points="727.729,-1266.89 738.265,-1265.77 729.334,-1260.07 727.729,-1266.89"/>
</g>
<!-- ДомРу -->
<g id="node2" class="node"><title>ДомРу</title>
<polygon fill="none" stroke="black" points="824.997,-904.085 797.962,-922.085 743.891,-922.085 716.856,-904.085 743.891,-886.085 797.962,-886.085 824.997,-904.085"/>
<text text-anchor="middle" x="770.927" y="-900.385" font-family="Times New Roman,serif" font-size="14.00">ДОМ.RU</text>
</g>
<!-- ДомРу&#45;&gt;ЭрТелеком -->
<g id="edge45" class="edge"><title>ДомРу&#45;&gt;ЭрТелеком</title>
<path fill="none" stroke="black" d="M822.816,-895.639C849.583,-891.197 882.824,-885.68 912.061,-880.828"/>
<ellipse fill="none" stroke="black" cx="818.548" cy="-896.347" rx="4.00001" ry="4.00001"/>
<polygon fill="black" stroke="black" points="912.926,-884.232 922.218,-879.142 911.78,-877.326 912.926,-884.232"/>
</g>
<!-- ЮТК -->
<g id="node15" class="node"><title>ЮТК</title>
<polygon fill="none" stroke="black" points="1248.34,-1095.09 1212.81,-1126.14 1141.74,-1126.14 1106.2,-1095.09 1141.74,-1064.03 1212.81,-1064.03 1248.34,-1095.09"/>
<text text-anchor="middle" x="1177.27" y="-1098.89" font-family="Times New Roman,serif" font-size="14.00">Ростелеком</text>
<text text-anchor="middle" x="1177.27" y="-1083.89" font-family="Times New Roman,serif" font-size="14.00">Волгоград</text>
</g>
<!-- ЭрТелеком&#45;&gt;ЮТК -->
<g id="edge77" class="edge"><title>ЭрТелеком&#45;&gt;ЮТК</title>
<path fill="none" stroke="black" stroke-dasharray="1,5" d="M1010.99,-907.258C1025.95,-929.595 1044.74,-958.542 1060.13,-985.085 1077.68,-1015.35 1071.25,-1030.5 1096.13,-1055.09 1102.96,-1061.83 1111.15,-1067.65 1119.66,-1072.59"/>
<ellipse fill="none" stroke="black" cx="1008.71" cy="-903.867" rx="4.00002" ry="4.00002"/>
<ellipse fill="none" stroke="black" cx="1123.34" cy="-1074.62" rx="4.00002" ry="4.00002"/>
</g>
<!-- Связьинформ -->
<g id="node25" class="node"><title>Связьинформ</title>
<polygon fill="none" stroke="black" points="1258.56,-687.647 1177.27,-700.085 1095.99,-687.647 1096.07,-667.523 1258.48,-667.523 1258.56,-687.647"/>
<text text-anchor="middle" x="1177.27" y="-678.385" font-family="Times New Roman,serif" font-size="14.00">Связьинформ</text>
</g>
<!-- ЭрТелеком&#45;&gt;Связьинформ -->
<g id="edge78" class="edge"><title>ЭрТелеком&#45;&gt;Связьинформ</title>
<path fill="none" stroke="black" stroke-dasharray="1,5" d="M1019.92,-831.586C1033.35,-816.253 1048.28,-797.943 1060.13,-780.085 1079.69,-750.604 1069.38,-732.234 1096.13,-709.085 1102.68,-703.422 1110.46,-698.935 1118.56,-695.384"/>
<ellipse fill="none" stroke="black" cx="1016.91" cy="-834.972" rx="4.00002" ry="4.00002"/>
<ellipse fill="none" stroke="black" cx="1122.35" cy="-693.865" rx="4.00001" ry="4.00001"/>
</g>
<!-- Транстелеком -->
<g id="node4" class="node"><title>Транстелеком</title>
<polygon fill="none" stroke="black" points="1445.81,-655.085 1408.01,-673.085 1332.41,-673.085 1294.61,-655.085 1332.41,-637.085 1408.01,-637.085 1445.81,-655.085"/>
<text text-anchor="middle" x="1370.21" y="-651.385" font-family="Times New Roman,serif" font-size="14.00">Транстелеком</text>
</g>
<!-- Волгатранстелеком -->
<g id="node5" class="node"><title>Волгатранстелеком</title>
<polygon fill="none" stroke="black" points="871.558,-996.085 821.242,-1014.09 720.611,-1014.09 670.295,-996.085 720.611,-978.085 821.242,-978.085 871.558,-996.085"/>
<text text-anchor="middle" x="770.927" y="-992.385" font-family="Times New Roman,serif" font-size="14.00">Волгатранстелеком</text>
</g>
<!-- Волгатранстелеком&#45;&gt;ЭрТелеком -->
<g id="edge75" class="edge"><title>Волгатранстелеком&#45;&gt;ЭрТелеком</title>
<path fill="none" stroke="black" stroke-dasharray="1,5" d="M809.211,-973.632C843.746,-952.834 895.353,-921.755 933.327,-898.886"/>
<ellipse fill="none" stroke="black" cx="805.568" cy="-975.826" rx="4.00002" ry="4.00002"/>
<ellipse fill="none" stroke="black" cx="936.825" cy="-896.78" rx="4.00002" ry="4.00002"/>
</g>
<!-- Волгатранстелеком&#45;&gt;Транстелеком -->
<g id="edge44" class="edge"><title>Волгатранстелеком&#45;&gt;Транстелеком</title>
<path fill="none" stroke="black" d="M855.611,-986.201C960.232,-970.032 1139.94,-929.237 1258.41,-831.085 1307.93,-790.063 1342.17,-720.944 1358.43,-682.671"/>
<ellipse fill="none" stroke="black" cx="851.545" cy="-986.817" rx="4.00001" ry="4.00001"/>
<polygon fill="black" stroke="black" points="1361.76,-683.769 1362.36,-673.191 1355.3,-681.091 1361.76,-683.769"/>
</g>
<!-- Волгатранстелеком&#45;&gt;ЮТК -->
<g id="edge74" class="edge"><title>Волгатранстелеком&#45;&gt;ЮТК</title>
<path fill="none" stroke="black" stroke-dasharray="1,5" d="M839.225,-1012.82C850.1,-1015.96 861.172,-1019.42 871.492,-1023.09 887.99,-1028.95 890.827,-1033.71 907.492,-1039.09 974.298,-1060.62 1053.18,-1075.91 1108.15,-1085.01"/>
<ellipse fill="none" stroke="black" cx="835.204" cy="-1011.69" rx="4.00001" ry="4.00001"/>
<ellipse fill="none" stroke="black" cx="1112.13" cy="-1085.66" rx="4.00001" ry="4.00001"/>
</g>
<!-- Orange -->
<g id="node16" class="node"><title>Orange</title>
<polygon fill="none" stroke="black" points="1026.37,-1012.09 1005.09,-1030.09 962.534,-1030.09 941.256,-1012.09 962.534,-994.085 1005.09,-994.085 1026.37,-1012.09"/>
<text text-anchor="middle" x="983.812" y="-1008.39" font-family="Times New Roman,serif" font-size="14.00">Orange</text>
</g>
<!-- Волгатранстелеком&#45;&gt;Orange -->
<g id="edge76" class="edge"><title>Волгатранстелеком&#45;&gt;Orange</title>
<path fill="none" stroke="black" stroke-dasharray="1,5" d="M862.433,-1002.95C887.942,-1004.89 914.64,-1006.91 936.394,-1008.56"/>
<ellipse fill="none" stroke="black" cx="858.355" cy="-1002.64" rx="4" ry="4"/>
<ellipse fill="none" stroke="black" cx="940.488" cy="-1008.87" rx="4" ry="4"/>
</g>
<!-- Релком -->
<g id="node6" class="node"><title>Релком</title>
<polygon fill="none" stroke="black" points="1029.37,-244.085 1006.59,-262.085 961.032,-262.085 938.252,-244.085 961.032,-226.085 1006.59,-226.085 1029.37,-244.085"/>
<text text-anchor="middle" x="983.812" y="-240.385" font-family="Times New Roman,serif" font-size="14.00">Релком</text>
</g>
<!-- Мегафон -->
<g id="node7" class="node"><title>Мегафон</title>
<polygon fill="none" stroke="black" points="1036.88,-498.085 1010.35,-516.085 957.277,-516.085 930.742,-498.085 957.277,-480.085 1010.35,-480.085 1036.88,-498.085"/>
<text text-anchor="middle" x="983.812" y="-494.385" font-family="Times New Roman,serif" font-size="14.00">Мегафон</text>
</g>
<!-- Вымпелком -->
<g id="node8" class="node"><title>Вымпелком</title>
<polygon fill="none" stroke="black" points="1222.33,-362.085 1199.8,-380.085 1154.74,-380.085 1132.21,-362.085 1154.74,-344.085 1199.8,-344.085 1222.33,-362.085"/>
<text text-anchor="middle" x="1177.27" y="-358.385" font-family="Times New Roman,serif" font-size="14.00">Билайн</text>
</g>
<!-- КоламбияТелеком -->
<g id="node9" class="node"><title>КоламбияТелеком</title>
<polygon fill="none" stroke="black" points="867.052,-136.085 818.989,-154.085 722.864,-154.085 674.801,-136.085 722.864,-118.085 818.989,-118.085 867.052,-136.085"/>
<text text-anchor="middle" x="770.927" y="-132.385" font-family="Times New Roman,serif" font-size="14.00">КоламбияТелеком</text>
</g>
<!-- КоламбияТелеком&#45;&gt;Транстелеком -->
<g id="edge18" class="edge"><title>КоламбияТелеком&#45;&gt;Транстелеком</title>
<path fill="none" stroke="black" d="M799.903,-118.058C826.399,-102.132 867.915,-80.0829 907.492,-71.0851 1064.08,-35.4862 1156.17,-33.2625 1258.41,-157.085 1319.1,-230.583 1356.06,-532.501 1366.3,-626.806"/>
<polygon fill="black" stroke="black" points="1362.84,-627.433 1367.39,-637.004 1369.8,-626.689 1362.84,-627.433"/>
</g>
<!-- КоламбияТелеком&#45;&gt;Мегафон -->
<g id="edge20" class="edge"><title>КоламбияТелеком&#45;&gt;Мегафон</title>
<path fill="none" stroke="black" d="M841.88,-145.577C852.776,-149.585 863.163,-155.21 871.492,-163.085 871.675,-163.258 946.857,-389.748 973.548,-470.17"/>
<polygon fill="black" stroke="black" points="970.367,-471.696 976.839,-480.085 977.011,-469.491 970.367,-471.696"/>
</g>
<!-- КоламбияТелеком&#45;&gt;Вымпелком -->
<g id="edge19" class="edge"><title>КоламбияТелеком&#45;&gt;Вымпелком</title>
<path fill="none" stroke="black" d="M865.323,-135.36C937.143,-136.521 1029.16,-142.273 1060.13,-163.085 1088.84,-182.377 1079.05,-202.01 1096.13,-232.085 1116.75,-268.379 1142.32,-309.2 1158.95,-335.253"/>
<polygon fill="black" stroke="black" points="1156.1,-337.287 1164.44,-343.82 1161.99,-333.512 1156.1,-337.287"/>
</g>
<!-- WestCall -->
<g id="node18" class="node"><title>WestCall</title>
<polygon fill="none" stroke="black" points="1034.88,-190.085 1009.35,-208.085 958.279,-208.085 932.746,-190.085 958.279,-172.085 1009.35,-172.085 1034.88,-190.085"/>
<text text-anchor="middle" x="983.812" y="-186.385" font-family="Times New Roman,serif" font-size="14.00">WestCall</text>
</g>
<!-- КоламбияТелеком&#45;&gt;WestCall -->
<g id="edge47" class="edge"><title>КоламбияТелеком&#45;&gt;WestCall</title>
<path fill="none" stroke="black" d="M836.462,-152.61C868.633,-160.848 906.817,-170.626 936.115,-178.128"/>
<ellipse fill="none" stroke="black" cx="832.315" cy="-151.548" rx="4.00001" ry="4.00001"/>
<polygon fill="black" stroke="black" points="935.527,-181.59 946.083,-180.68 937.263,-174.809 935.527,-181.59"/>
</g>
<!-- Евротелеком -->
<g id="node31" class="node"><title>Евротелеком</title>
<polygon fill="none" stroke="black" points="1059.95,-103.647 983.812,-116.085 907.671,-103.647 907.742,-83.5228 1059.88,-83.5228 1059.95,-103.647"/>
<text text-anchor="middle" x="983.812" y="-94.3851" font-family="Times New Roman,serif" font-size="14.00">Евротелеком</text>
</g>
<!-- КоламбияТелеком&#45;&gt;Евротелеком -->
<g id="edge68" class="edge"><title>КоламбияТелеком&#45;&gt;Евротелеком</title>
<path fill="none" stroke="black" stroke-dasharray="1,5" d="M844.263,-123.051C869.811,-118.447 898.244,-113.324 922.672,-108.922"/>
<ellipse fill="none" stroke="black" cx="840.282" cy="-123.768" rx="4.00001" ry="4.00001"/>
<ellipse fill="none" stroke="black" cx="926.857" cy="-108.168" rx="4.00001" ry="4.00001"/>
</g>
<!-- HE -->
<g id="node11" class="node"><title>HE</title>
<polygon fill="none" stroke="black" points="797.927,-1050.09 784.427,-1068.09 757.427,-1068.09 743.927,-1050.09 757.427,-1032.09 784.427,-1032.09 797.927,-1050.09"/>
<text text-anchor="middle" x="770.927" y="-1046.39" font-family="Times New Roman,serif" font-size="14.00">HE</text>
</g>
<!-- Tele2 -->
<g id="node13" class="node"><title>Tele2</title>
<polygon fill="none" stroke="black" points="1212.32,-804.085 1194.8,-822.085 1159.75,-822.085 1142.23,-804.085 1159.75,-786.085 1194.8,-786.085 1212.32,-804.085"/>
<text text-anchor="middle" x="1177.27" y="-800.385" font-family="Times New Roman,serif" font-size="14.00">Tele2</text>
</g>
<!-- Tele2&#45;&gt;Транстелеком -->
<g id="edge3" class="edge"><title>Tele2&#45;&gt;Транстелеком</title>
<path fill="none" stroke="black" d="M1202.85,-793.839C1219.29,-786.437 1241.02,-775.573 1258.41,-763.085 1292.33,-738.733 1325.9,-704.139 1347.05,-680.718"/>
<polygon fill="black" stroke="black" points="1349.68,-683.026 1353.73,-673.234 1344.46,-678.365 1349.68,-683.026"/>
</g>
<!-- Tele2&#45;&gt;Ростелеком -->
<g id="edge2" class="edge"><title>Tele2&#45;&gt;Ростелеком</title>
<path fill="none" stroke="black" d="M1193.9,-822.416C1227.76,-862.14 1307.99,-956.266 1347.07,-1002.1"/>
<polygon fill="black" stroke="black" points="1344.49,-1004.48 1353.64,-1009.82 1349.82,-999.934 1344.49,-1004.48"/>
</g>
<!-- МТС -->
<g id="node14" class="node"><title>МТС</title>
<polygon fill="none" stroke="black" points="805.974,-336.085 788.45,-354.085 753.403,-354.085 735.879,-336.085 753.403,-318.085 788.45,-318.085 805.974,-336.085"/>
<text text-anchor="middle" x="770.927" y="-332.385" font-family="Times New Roman,serif" font-size="14.00">МТС</text>
</g>
<!-- ЮТК&#45;&gt;Ростелеком -->
<g id="edge43" class="edge"><title>ЮТК&#45;&gt;Ростелеком</title>
<path fill="none" stroke="black" d="M1236.02,-1074.82C1262.96,-1065.37 1294.66,-1054.25 1320.38,-1045.22"/>
<ellipse fill="none" stroke="black" cx="1232.22" cy="-1076.16" rx="4.00001" ry="4.00001"/>
<polygon fill="black" stroke="black" points="1321.64,-1048.49 1329.92,-1041.87 1319.33,-1041.88 1321.64,-1048.49"/>
</g>
<!-- ПросторТелеком -->
<g id="node17" class="node"><title>ПросторТелеком</title>
<polygon fill="none" stroke="black" points="861.044,-390.085 815.985,-408.085 725.868,-408.085 680.809,-390.085 725.868,-372.085 815.985,-372.085 861.044,-390.085"/>
<text text-anchor="middle" x="770.927" y="-386.385" font-family="Times New Roman,serif" font-size="14.00">ПросторТелеком</text>
</g>
<!-- ПросторТелеком&#45;&gt;Мегафон -->
<g id="edge29" class="edge"><title>ПросторТелеком&#45;&gt;Мегафон</title>
<path fill="none" stroke="black" d="M830.862,-402.262C844.549,-406.12 858.814,-411.009 871.492,-417.085 902.262,-431.832 933.333,-455.322 954.8,-473.216"/>
<polygon fill="black" stroke="black" points="952.644,-475.977 962.536,-479.771 957.169,-470.636 952.644,-475.977"/>
</g>
<!-- ПросторТелеком&#45;&gt;Вымпелком -->
<g id="edge28" class="edge"><title>ПросторТелеком&#45;&gt;Вымпелком</title>
<path fill="none" stroke="black" d="M847.981,-384.819C929.145,-379.198 1055.46,-370.451 1125.38,-365.609"/>
<polygon fill="black" stroke="black" points="1125.96,-369.078 1135.69,-364.895 1125.47,-362.095 1125.96,-369.078"/>
</g>
<!-- Powernet&#45;&gt;Унико -->
<g id="edge41" class="edge"><title>Powernet&#45;&gt;Унико</title>
<path fill="none" stroke="black" d="M722.563,-453.784C703.502,-457.659 683.066,-464.766 670.361,-480.085 605.471,-558.327 652.82,-836.127 634.361,-936.085 619.519,-1016.46 589.146,-1107.75 572.116,-1152.61"/>
<ellipse fill="none" stroke="black" cx="726.687" cy="-453.029" rx="4.00001" ry="4.00001"/>
<polygon fill="black" stroke="black" points="568.84,-1151.38 568.494,-1161.97 575.368,-1153.91 568.84,-1151.38"/>
</g>
<!-- Powernet&#45;&gt;ЭрТелеком -->
<g id="edge66" class="edge"><title>Powernet&#45;&gt;ЭрТелеком</title>
<path fill="none" stroke="black" stroke-dasharray="1,5" d="M826.668,-448.58C842.906,-452.423 859.528,-459.215 871.492,-471.085 922.861,-522.048 962.389,-739.778 976.846,-829.845"/>
<ellipse fill="none" stroke="black" cx="822.664" cy="-447.742" rx="4.00001" ry="4.00001"/>
<ellipse fill="none" stroke="black" cx="977.498" cy="-833.948" rx="4.00001" ry="4.00001"/>
</g>
<!-- Powernet&#45;&gt;Мегафон -->
<g id="edge14" class="edge"><title>Powernet&#45;&gt;Мегафон</title>
<path fill="none" stroke="black" d="M809.143,-453.615C844.203,-462.592 896.899,-476.086 935.047,-485.854"/>
<polygon fill="black" stroke="black" points="934.346,-489.288 944.902,-488.378 936.083,-482.506 934.346,-489.288"/>
</g>
<!-- Powernet&#45;&gt;Вымпелком -->
<g id="edge15" class="edge"><title>Powernet&#45;&gt;Вымпелком</title>
<path fill="none" stroke="black" d="M812.628,-437.138C868.566,-427.436 972.274,-408.894 1060.13,-390.085 1084.29,-384.913 1111.12,-378.491 1132.9,-373.102"/>
<polygon fill="black" stroke="black" points="1133.98,-376.441 1142.83,-370.629 1132.28,-369.648 1133.98,-376.441"/>
</g>
<!-- Powernet&#45;&gt;Евротелеком -->
<g id="edge67" class="edge"><title>Powernet&#45;&gt;Евротелеком</title>
<path fill="none" stroke="black" stroke-dasharray="1,5" d="M827.861,-440.453C844.078,-436.648 860.387,-429.66 871.492,-417.085 946.963,-331.622 852.849,-263.155 907.492,-163.085 917.85,-144.117 936.076,-128.162 952.005,-116.807"/>
<ellipse fill="none" stroke="black" cx="823.849" cy="-441.274" rx="4.00001" ry="4.00001"/>
<ellipse fill="none" stroke="black" cx="955.366" cy="-114.495" rx="4.00002" ry="4.00002"/>
</g>
<!-- МКС -->
<g id="node21" class="node"><title>МКС</title>
<polygon fill="none" stroke="black" points="628.689,-496.415 558.844,-519.513 488.999,-496.415 489.064,-459.041 628.624,-459.041 628.689,-496.415"/>
<text text-anchor="middle" x="558.844" y="-489.885" font-family="Times New Roman,serif" font-size="14.00">МТС</text>
<text text-anchor="middle" x="558.844" y="-474.885" font-family="Times New Roman,serif" font-size="14.00">Волгоград</text>
</g>
<!-- МКС&#45;&gt;МТС -->
<g id="edge13" class="edge"><title>МКС&#45;&gt;МТС</title>
<path fill="none" stroke="black" d="M577.226,-458.893C596.604,-430.774 630.512,-387.616 670.361,-363.085 688.202,-352.102 710.527,-345.519 729.513,-341.608"/>
<polygon fill="black" stroke="black" points="730.203,-345.04 739.381,-339.748 728.906,-338.161 730.203,-345.04"/>
</g>
<!-- СпринтСеть -->
<g id="node26" class="node"><title>СпринтСеть</title>
<polygon fill="none" stroke="black" points="844.141,-633.647 770.927,-646.085 697.713,-633.647 697.781,-613.523 844.072,-613.523 844.141,-633.647"/>
<text text-anchor="middle" x="770.927" y="-624.385" font-family="Times New Roman,serif" font-size="14.00">СпринтСеть</text>
</g>
<!-- МКС&#45;&gt;СпринтСеть -->
<g id="edge61" class="edge"><title>МКС&#45;&gt;СпринтСеть</title>
<path fill="none" stroke="black" stroke-dasharray="1,5" d="M599.994,-513.223C641.389,-541.204 704.89,-584.126 741.41,-608.81"/>
<ellipse fill="none" stroke="black" cx="596.446" cy="-510.825" rx="4.00002" ry="4.00002"/>
<ellipse fill="none" stroke="black" cx="745.026" cy="-611.254" rx="4.00002" ry="4.00002"/>
</g>
<!-- ГородокТочкаРу -->
<g id="node22" class="node"><title>ГородокТочкаРу</title>
<polygon fill="none" stroke="black" points="380.041,-1116.65 309.147,-1129.09 238.253,-1116.65 238.319,-1096.52 379.975,-1096.52 380.041,-1116.65"/>
<text text-anchor="middle" x="309.147" y="-1107.39" font-family="Times New Roman,serif" font-size="14.00">Городок.Ру</text>
</g>
<!-- ГородокТочкаРу&#45;&gt;Унико -->
<g id="edge53" class="edge"><title>ГородокТочкаРу&#45;&gt;Унико</title>
<path fill="none" stroke="black" d="M364.791,-1122.6C390.051,-1128.23 420.363,-1135.44 447.327,-1143.09 471.527,-1149.94 498.285,-1158.86 519.409,-1166.23"/>
<ellipse fill="black" stroke="black" cx="360.683" cy="-1121.69" rx="4.00001" ry="4.00001"/>
<polygon fill="black" stroke="black" points="518.395,-1169.58 528.989,-1169.6 520.716,-1162.98 518.395,-1169.58"/>
</g>
<!-- STARLINE -->
<g id="node23" class="node"><title>STARLINE</title>
<polygon fill="none" stroke="black" points="134.95,-203.647 67.4833,-216.085 0.0166721,-203.647 0.0796443,-183.523 134.887,-183.523 134.95,-203.647"/>
<text text-anchor="middle" x="67.4833" y="-194.385" font-family="Times New Roman,serif" font-size="14.00">STARLINE</text>
</g>
<!-- VSSA -->
<g id="node24" class="node"><title>VSSA</title>
<polygon fill="none" stroke="black" points="110.141,-257.647 67.4833,-270.085 24.8257,-257.647 24.8655,-237.523 110.101,-237.523 110.141,-257.647"/>
<text text-anchor="middle" x="67.4833" y="-248.385" font-family="Times New Roman,serif" font-size="14.00">VSSA</text>
</g>
<!-- Связьинформ&#45;&gt;Унико -->
<g id="edge37" class="edge"><title>Связьинформ&#45;&gt;Унико</title>
<path fill="none" stroke="black" d="M1120.5,-694.458C995.893,-722.55 703.19,-791.176 670.361,-823.085 664.212,-829.062 592.818,-1068.74 568.159,-1151.96"/>
<ellipse fill="none" stroke="black" cx="1124.56" cy="-693.545" rx="4.00001" ry="4.00001"/>
<polygon fill="black" stroke="black" points="564.744,-1151.17 565.26,-1161.75 571.456,-1153.16 564.744,-1151.17"/>
</g>
<!-- Связьинформ&#45;&gt;Транстелеком -->
<g id="edge1" class="edge"><title>Связьинформ&#45;&gt;Транстелеком</title>
<path fill="none" stroke="black" d="M1258.42,-670.752C1272.79,-668.72 1287.64,-666.62 1301.61,-664.644"/>
<polygon fill="black" stroke="black" points="1302.2,-668.096 1311.61,-663.23 1301.22,-661.165 1302.2,-668.096"/>
</g>
<!-- СпринтСеть&#45;&gt;Мегафон -->
<g id="edge5" class="edge"><title>СпринтСеть&#45;&gt;Мегафон</title>
<path fill="none" stroke="black" d="M832.573,-613.503C845.906,-608.976 859.587,-603.24 871.492,-596.085 890.619,-584.59 890.922,-576.032 907.492,-561.085 921.989,-548.008 938.589,-534.023 952.509,-522.56"/>
<polygon fill="black" stroke="black" points="954.843,-525.173 960.36,-516.128 950.406,-519.758 954.843,-525.173"/>
</g>
<!-- СпринтСеть&#45;&gt;Вымпелком -->
<g id="edge4" class="edge"><title>СпринтСеть&#45;&gt;Вымпелком</title>
<path fill="none" stroke="black" d="M844.284,-615.286C906.521,-601.415 996.124,-574.338 1060.13,-525.085 1108.34,-487.994 1144.92,-425.418 1163.24,-389.55"/>
<polygon fill="black" stroke="black" points="1166.58,-390.695 1167.91,-380.185 1160.31,-387.568 1166.58,-390.695"/>
</g>
<!-- СпринтСеть&#45;&gt;Связьинформ -->
<g id="edge60" class="edge"><title>СпринтСеть&#45;&gt;Связьинформ</title>
<path fill="none" stroke="black" stroke-dasharray="1,5" d="M838.691,-637.001C906.74,-646.089 1012.67,-660.236 1087.7,-670.256"/>
<ellipse fill="none" stroke="black" cx="834.687" cy="-636.467" rx="4.00001" ry="4.00001"/>
<ellipse fill="none" stroke="black" cx="1091.81" cy="-670.805" rx="4.00001" ry="4.00001"/>
</g>
<!-- Старнет -->
<g id="node27" class="node"><title>Старнет</title>
<polygon fill="none" stroke="black" points="119.923,-149.647 67.4833,-162.085 15.0439,-149.647 15.0929,-129.523 119.874,-129.523 119.923,-149.647"/>
<text text-anchor="middle" x="67.4833" y="-140.385" font-family="Times New Roman,serif" font-size="14.00">Старнет</text>
</g>
<!-- Старнет&#45;&gt;Унико -->
<g id="edge39" class="edge"><title>Старнет&#45;&gt;Унико</title>
<path fill="none" stroke="black" d="M116.443,-155.628C123.697,-159.41 130.303,-164.428 134.967,-171.085 196.659,-259.144 97.6827,-1059.41 170.967,-1138.09 193.565,-1162.35 408.988,-1174.1 508.229,-1178.26"/>
<ellipse fill="none" stroke="black" cx="112.659" cy="-153.904" rx="4.00002" ry="4.00002"/>
<polygon fill="black" stroke="black" points="508.18,-1181.76 518.315,-1178.67 508.467,-1174.76 508.18,-1181.76"/>
</g>
<!-- Старнет&#45;&gt;Транстелеком -->
<g id="edge6" class="edge"><title>Старнет&#45;&gt;Транстелеком</title>
<path fill="none" stroke="black" d="M98.4077,-129.476C118.549,-120.084 145.906,-108.172 170.967,-100.085 338.598,-45.9929 381.701,-14.0851 557.844,-14.0851 557.844,-14.0851 557.844,-14.0851 984.812,-14.0851 1107.46,-14.0851 1169.53,34.4321 1258.41,-50.0851 1343.42,-130.918 1364.13,-518.615 1368.29,-626.924"/>
<polygon fill="black" stroke="black" points="1364.8,-627.206 1368.66,-637.071 1371.79,-626.949 1364.8,-627.206"/>
</g>
<!-- Старнет&#45;&gt;КоламбияТелеком -->
<g id="edge38" class="edge"><title>Старнет&#45;&gt;КоламбияТелеком</title>
<path fill="none" stroke="black" d="M128.218,-134.122C231.554,-118.287 450.292,-90.9333 634.361,-109.085 656.627,-111.281 680.656,-115.459 702.211,-119.883"/>
<ellipse fill="none" stroke="black" cx="124.032" cy="-134.77" rx="4.00001" ry="4.00001"/>
<polygon fill="black" stroke="black" points="701.742,-123.361 712.248,-121.997 703.184,-116.511 701.742,-123.361"/>
</g>
<!-- Магистраль -->
<g id="node42" class="node"><title>Магистраль</title>
<polygon fill="none" stroke="black" points="380.041,-241.647 309.147,-254.085 238.253,-241.647 238.319,-221.523 379.975,-221.523 380.041,-241.647"/>
<text text-anchor="middle" x="309.147" y="-232.385" font-family="Times New Roman,serif" font-size="14.00">Магистраль</text>
</g>
<!-- Старнет&#45;&gt;Магистраль -->
<g id="edge62" class="edge"><title>Старнет&#45;&gt;Магистраль</title>
<path fill="none" stroke="black" stroke-dasharray="1,5" d="M105.088,-158.137C147.272,-174.33 216.643,-200.959 262.363,-218.51"/>
<ellipse fill="none" stroke="black" cx="101.127" cy="-156.616" rx="4.00001" ry="4.00001"/>
<ellipse fill="none" stroke="black" cx="266.316" cy="-220.027" rx="4.00001" ry="4.00001"/>
</g>
<!-- Экспилайн -->
<g id="node28" class="node"><title>Экспилайн</title>
<polygon fill="none" stroke="black" points="837.787,-687.647 770.927,-700.085 704.066,-687.647 704.129,-667.523 837.725,-667.523 837.787,-687.647"/>
<text text-anchor="middle" x="770.927" y="-678.385" font-family="Times New Roman,serif" font-size="14.00">Экспилайн</text>
</g>
<!-- Экспилайн&#45;&gt;Мегафон -->
<g id="edge7" class="edge"><title>Экспилайн&#45;&gt;Мегафон</title>
<path fill="none" stroke="black" d="M837.731,-671.151C849.627,-667.305 861.432,-662.107 871.492,-655.085 919.326,-621.695 953.691,-560.828 970.711,-525.491"/>
<polygon fill="black" stroke="black" points="973.97,-526.785 975.048,-516.245 967.632,-523.812 973.97,-526.785"/>
</g>
<!-- Экспилайн&#45;&gt;Связьинформ -->
<g id="edge63" class="edge"><title>Экспилайн&#45;&gt;Связьинформ</title>
<path fill="none" stroke="black" stroke-dasharray="1,5" d="M845.806,-682.085C913.912,-682.085 1015.11,-682.085 1087.57,-682.085"/>
<ellipse fill="none" stroke="black" cx="841.792" cy="-682.085" rx="4" ry="4"/>
<ellipse fill="none" stroke="black" cx="1091.81" cy="-682.085" rx="4" ry="4"/>
</g>
<!-- ЭРОС -->
<g id="node29" class="node"><title>ЭРОС</title>
<polygon fill="none" stroke="black" points="603.216,-905.647 558.844,-918.085 514.472,-905.647 514.514,-885.523 603.174,-885.523 603.216,-905.647"/>
<text text-anchor="middle" x="558.844" y="-896.385" font-family="Times New Roman,serif" font-size="14.00">ЭРОС</text>
</g>
<!-- ЭРОС&#45;&gt;Волгатранстелеком -->
<g id="edge8" class="edge"><title>ЭРОС&#45;&gt;Волгатранстелеком</title>
<path fill="none" stroke="black" d="M578.746,-912.715C600.24,-926.671 636.723,-949.147 670.361,-964.085 681.121,-968.864 692.818,-973.275 704.287,-977.197"/>
<polygon fill="black" stroke="black" points="703.248,-980.54 713.842,-980.375 705.458,-973.898 703.248,-980.54"/>
</g>
<!-- ЭРОС&#45;&gt;Мегафон -->
<g id="edge10" class="edge"><title>ЭРОС&#45;&gt;Мегафон</title>
<path fill="none" stroke="black" d="M577.408,-885.23C594.818,-869.451 620.793,-842.853 634.361,-814.085 675.317,-727.25 603.46,-669.947 670.361,-601.085 733.871,-535.714 792.268,-606.146 871.492,-561.085 892.282,-549.26 887.319,-533.935 907.492,-521.085 915.198,-516.176 924.014,-512.263 932.835,-509.16"/>
<polygon fill="black" stroke="black" points="933.905,-512.492 942.356,-506.102 931.765,-505.828 933.905,-512.492"/>
</g>
<!-- ЭРОС&#45;&gt;HE -->
<g id="edge9" class="edge"><title>ЭРОС&#45;&gt;HE</title>
<path fill="none" stroke="black" d="M569.366,-915.521C586.342,-941.72 624.401,-994.792 670.361,-1023.09 690.232,-1035.32 715.667,-1042.09 735.854,-1045.8"/>
<polygon fill="black" stroke="black" points="735.436,-1049.28 745.876,-1047.47 736.587,-1042.37 735.436,-1049.28"/>
</g>
<!-- ЭРОС&#45;&gt;Tele2 -->
<g id="edge40" class="edge"><title>ЭРОС&#45;&gt;Tele2</title>
<path fill="none" stroke="black" d="M580.752,-879.918C601.572,-861.291 635.393,-834.791 670.361,-823.085 835.951,-767.653 1049.23,-786.816 1136.44,-798.178"/>
<ellipse fill="none" stroke="black" cx="577.675" cy="-882.725" rx="4.00002" ry="4.00002"/>
<polygon fill="black" stroke="black" points="1136.06,-801.658 1146.44,-799.519 1136.99,-794.721 1136.06,-801.658"/>
</g>
<!-- Comrise -->
<g id="node30" class="node"><title>Comrise</title>
<polygon fill="none" stroke="black" points="360.479,-702.647 309.147,-715.085 257.815,-702.647 257.863,-682.523 360.431,-682.523 360.479,-702.647"/>
<text text-anchor="middle" x="309.147" y="-693.385" font-family="Times New Roman,serif" font-size="14.00">Comrise</text>
</g>
<!-- Comrise&#45;&gt;Унико -->
<g id="edge64" class="edge"><title>Comrise&#45;&gt;Унико</title>
<path fill="none" stroke="black" stroke-dasharray="1,5" d="M323.737,-719.722C351.06,-766.172 412.962,-876.293 447.327,-976.085 472.757,-1049.93 433.869,-1087.64 483.327,-1148.09 491.892,-1158.55 504.521,-1165.67 516.959,-1170.48"/>
<ellipse fill="none" stroke="black" cx="321.695" cy="-716.268" rx="4.00002" ry="4.00002"/>
<ellipse fill="none" stroke="black" cx="520.868" cy="-1171.85" rx="4.00001" ry="4.00001"/>
</g>
<!-- Comrise&#45;&gt;Вымпелком -->
<g id="edge12" class="edge"><title>Comrise&#45;&gt;Вымпелком</title>
<path fill="none" stroke="black" d="M316.032,-682.096C343.412,-614.839 465.721,-340.477 670.361,-255.085 752.858,-220.661 784.048,-236.528 871.492,-255.085 888.62,-258.72 890.899,-265.496 907.492,-271.085 973.547,-293.336 994.351,-284.041 1060.13,-307.085 1088.08,-316.874 1118.26,-331.295 1140.85,-342.915"/>
<polygon fill="black" stroke="black" points="1139.25,-346.024 1149.73,-347.538 1142.48,-339.815 1139.25,-346.024"/>
</g>
<!-- Comrise&#45;&gt;Ростелеком -->
<g id="edge11" class="edge"><title>Comrise&#45;&gt;Ростелеком</title>
<path fill="none" stroke="black" d="M315.594,-713.686C332.782,-763.886 390.307,-916.262 483.327,-1008.09 550.56,-1074.45 579.768,-1082.29 670.361,-1109.09 921.232,-1183.28 1015.85,-1233.09 1258.41,-1135.09 1298.29,-1118.97 1331.79,-1080.88 1351.19,-1054.78"/>
<polygon fill="black" stroke="black" points="1354.2,-1056.59 1357.22,-1046.44 1348.52,-1052.49 1354.2,-1056.59"/>
</g>
<!-- Comrise&#45;&gt;Powernet -->
<g id="edge65" class="edge"><title>Comrise&#45;&gt;Powernet</title>
<path fill="none" stroke="black" stroke-dasharray="1,5" d="M362.145,-679.734C430.794,-654.809 552.516,-603.419 634.361,-528.085 656.407,-507.793 646.259,-488.886 670.361,-471.085 684.166,-460.89 701.585,-454.544 717.979,-450.594"/>
<ellipse fill="none" stroke="black" cx="358.214" cy="-681.145" rx="4.00001" ry="4.00001"/>
<ellipse fill="none" stroke="black" cx="722.019" cy="-449.703" rx="4.00001" ry="4.00001"/>
</g>
<!-- Евротелеком&#45;&gt;Транстелеком -->
<g id="edge16" class="edge"><title>Евротелеком&#45;&gt;Транстелеком</title>
<path fill="none" stroke="black" d="M1018.1,-110.485C1031.73,-116.328 1047.29,-124.019 1060.13,-133.085 1162.9,-205.651 1192.15,-228.148 1258.41,-335.085 1319.19,-433.179 1351.91,-568.97 1363.86,-626.984"/>
<polygon fill="black" stroke="black" points="1360.45,-627.772 1365.85,-636.885 1367.31,-626.391 1360.45,-627.772"/>
</g>
<!-- Евротелеком&#45;&gt;Вымпелком -->
<g id="edge17" class="edge"><title>Евротелеком&#45;&gt;Вымпелком</title>
<path fill="none" stroke="black" d="M1027.31,-109.086C1039.2,-113.895 1051.28,-120.662 1060.13,-130.085 1093.05,-165.123 1075.4,-188.711 1096.13,-232.085 1114.03,-269.532 1140.01,-309.792 1157.49,-335.423"/>
<polygon fill="black" stroke="black" points="1154.74,-337.598 1163.29,-343.85 1160.5,-333.628 1154.74,-337.598"/>
</g>
<!-- Virgin -->
<g id="node32" class="node"><title>Virgin</title>
<polygon fill="none" stroke="black" points="599.182,-792.647 558.844,-805.085 518.506,-792.647 518.544,-772.523 599.144,-772.523 599.182,-792.647"/>
<text text-anchor="middle" x="558.844" y="-783.385" font-family="Times New Roman,serif" font-size="14.00">Virgin</text>
</g>
<!-- Virgin&#45;&gt;Волгатранстелеком -->
<g id="edge58" class="edge"><title>Virgin&#45;&gt;Волгатранстелеком</title>
<path fill="none" stroke="black" d="M579.808,-806.201C596.163,-822.705 619.028,-847.813 634.361,-873.085 656.922,-910.27 638.612,-934.357 670.361,-964.085 677.345,-970.624 685.673,-975.828 694.494,-979.967"/>
<ellipse fill="black" stroke="black" cx="576.939" cy="-803.347" rx="4.00002" ry="4.00002"/>
<polygon fill="black" stroke="black" points="693.257,-983.244 703.831,-983.908 695.979,-976.795 693.257,-983.244"/>
</g>
<!-- Virgin&#45;&gt;Мегафон -->
<g id="edge22" class="edge"><title>Virgin&#45;&gt;Мегафон</title>
<path fill="none" stroke="black" d="M562.707,-772.294C571.24,-732.416 600.389,-622.059 670.361,-568.085 742.742,-512.254 782.37,-545.416 871.492,-525.085 892.295,-520.339 915.216,-514.829 934.824,-510.028"/>
<polygon fill="black" stroke="black" points="935.871,-513.375 944.747,-507.59 934.201,-506.577 935.871,-513.375"/>
</g>
<!-- Virgin&#45;&gt;Вымпелком -->
<g id="edge21" class="edge"><title>Virgin&#45;&gt;Вымпелком</title>
<path fill="none" stroke="black" d="M599.217,-773.603C620.197,-766.677 646.527,-758.391 670.361,-752.085 758.732,-728.703 787.743,-745.721 871.492,-709.085 965.476,-667.972 991.956,-652.735 1060.13,-576.085 1111.76,-518.042 1149.11,-433.057 1166.08,-389.719"/>
<polygon fill="black" stroke="black" points="1169.45,-390.725 1169.77,-380.135 1162.91,-388.213 1169.45,-390.725"/>
</g>
<!-- Virgin&#45;&gt;Ростелеком -->
<g id="edge23" class="edge"><title>Virgin&#45;&gt;Ростелеком</title>
<path fill="none" stroke="black" d="M572.954,-800.817C588.43,-817.333 614.564,-846.201 634.361,-873.085 652.351,-897.515 644.051,-915.977 670.361,-931.085 783.727,-996.183 1134.71,-904.819 1258.41,-947.085 1291.6,-958.425 1323.26,-983.503 1344.17,-1002.77"/>
<polygon fill="black" stroke="black" points="1341.97,-1005.51 1351.64,-1009.83 1346.77,-1000.42 1341.97,-1005.51"/>
</g>
<!-- Энфорта -->
<g id="node33" class="node"><title>Энфорта</title>
<polygon fill="none" stroke="black" points="1233.75,-741.647 1177.27,-754.085 1120.8,-741.647 1120.85,-721.523 1233.69,-721.523 1233.75,-741.647"/>
<text text-anchor="middle" x="1177.27" y="-732.385" font-family="Times New Roman,serif" font-size="14.00">Энфорта</text>
</g>
<!-- Энфорта&#45;&gt;Транстелеком -->
<g id="edge27" class="edge"><title>Энфорта&#45;&gt;Транстелеком</title>
<path fill="none" stroke="black" d="M1225.26,-721.38C1236.24,-717.635 1247.82,-713.431 1258.41,-709.085 1281.08,-699.79 1305.63,-688.011 1325.84,-677.827"/>
<polygon fill="black" stroke="black" points="1327.47,-680.925 1334.8,-673.275 1324.3,-674.684 1327.47,-680.925"/>
</g>
<!-- WMAX -->
<g id="node34" class="node"><title>WMAX</title>
<polygon fill="none" stroke="black" points="820.545,-195.647 770.927,-208.085 721.308,-195.647 721.354,-175.523 820.499,-175.523 820.545,-195.647"/>
<text text-anchor="middle" x="770.927" y="-186.385" font-family="Times New Roman,serif" font-size="14.00">WMAX</text>
</g>
<!-- WMAX&#45;&gt;Релком -->
<g id="edge32" class="edge"><title>WMAX&#45;&gt;Релком</title>
<path fill="none" stroke="black" d="M807.224,-199.124C843.497,-208.412 900.039,-222.89 939.114,-232.896"/>
<polygon fill="black" stroke="black" points="938.589,-236.374 949.145,-235.464 940.325,-229.593 938.589,-236.374"/>
</g>
<!-- WMAX&#45;&gt;Мегафон -->
<g id="edge30" class="edge"><title>WMAX&#45;&gt;Мегафон</title>
<path fill="none" stroke="black" d="M797.3,-201.563C819.342,-212.61 850.88,-231.154 871.492,-255.085 928.623,-321.418 962.006,-421.953 975.616,-470.256"/>
<polygon fill="black" stroke="black" points="972.271,-471.295 978.294,-480.011 979.021,-469.441 972.271,-471.295"/>
</g>
<!-- WMAX&#45;&gt;WestCall -->
<g id="edge31" class="edge"><title>WMAX&#45;&gt;WestCall</title>
<path fill="none" stroke="black" d="M820.573,-190.085C850.867,-190.085 890.076,-190.085 922.36,-190.085"/>
<polygon fill="black" stroke="black" points="922.578,-193.585 932.578,-190.085 922.578,-186.585 922.578,-193.585"/>
</g>
<!-- InstrNet -->
<g id="node35" class="node"><title>InstrNet</title>
<polygon fill="none" stroke="black" points="820.545,-855.647 770.927,-868.085 721.308,-855.647 721.354,-835.523 820.499,-835.523 820.545,-855.647"/>
<text text-anchor="middle" x="770.927" y="-846.385" font-family="Times New Roman,serif" font-size="14.00">InstrNet</text>
</g>
<!-- InstrNet&#45;&gt;ЭрТелеком -->
<g id="edge46" class="edge"><title>InstrNet&#45;&gt;ЭрТелеком</title>
<path fill="none" stroke="black" d="M828.847,-855.213C852.92,-857.382 881.308,-859.94 907.11,-862.265"/>
<ellipse fill="none" stroke="black" cx="824.557" cy="-854.827" rx="4" ry="4"/>
<polygon fill="black" stroke="black" points="906.958,-865.765 917.232,-863.177 907.586,-858.793 906.958,-865.765"/>
</g>
<!-- InstrNet&#45;&gt;Мегафон -->
<g id="edge33" class="edge"><title>InstrNet&#45;&gt;Мегафон</title>
<path fill="none" stroke="black" d="M783.342,-835.288C802.572,-810.071 842.194,-756.855 871.492,-709.085 910.683,-645.184 950.101,-566.172 969.836,-525.356"/>
<polygon fill="black" stroke="black" points="973.009,-526.832 974.192,-516.304 966.702,-523.797 973.009,-526.832"/>
</g>
<!-- ТСвязь -->
<g id="node36" class="node"><title>ТСвязь</title>
<polygon fill="none" stroke="black" points="820.545,-287.647 770.927,-300.085 721.308,-287.647 721.354,-267.523 820.499,-267.523 820.545,-287.647"/>
<text text-anchor="middle" x="770.927" y="-278.385" font-family="Times New Roman,serif" font-size="14.00">ТСвязь</text>
</g>
<!-- ТСвязь&#45;&gt;Мегафон -->
<g id="edge34" class="edge"><title>ТСвязь&#45;&gt;Мегафон</title>
<path fill="none" stroke="black" d="M820.646,-287.557C838.027,-291.405 856.896,-297.951 871.492,-309.085 900.112,-330.917 947.171,-423.578 969.827,-470.548"/>
<polygon fill="black" stroke="black" points="966.799,-472.329 974.276,-479.836 973.112,-469.305 966.799,-472.329"/>
</g>
<!-- ТСвязь&#45;&gt;Вымпелком -->
<g id="edge35" class="edge"><title>ТСвязь&#45;&gt;Вымпелком</title>
<path fill="none" stroke="black" d="M811.803,-289.975C887.312,-304.914 1050.73,-337.247 1130.55,-353.038"/>
<polygon fill="black" stroke="black" points="1130.29,-356.554 1140.78,-355.062 1131.64,-349.687 1130.29,-356.554"/>
</g>
<!-- Восток -->
<g id="node37" class="node"><title>Восток</title>
<polygon fill="none" stroke="black" points="819.332,-503.647 770.927,-516.085 722.521,-503.647 722.566,-483.523 819.287,-483.523 819.332,-503.647"/>
<text text-anchor="middle" x="770.927" y="-494.385" font-family="Times New Roman,serif" font-size="14.00">Восток</text>
</g>
<!-- Восток&#45;&gt;Мегафон -->
<g id="edge36" class="edge"><title>Восток&#45;&gt;Мегафон</title>
<path fill="none" stroke="black" d="M819.253,-498.085C849.059,-498.085 887.874,-498.085 920.211,-498.085"/>
<polygon fill="black" stroke="black" points="920.463,-501.585 930.463,-498.085 920.463,-494.585 920.463,-501.585"/>
</g>
<!-- SmIT34 -->
<g id="node38" class="node"><title>SmIT34</title>
<polygon fill="none" stroke="black" points="608.463,-141.647 558.844,-154.085 509.225,-141.647 509.271,-121.523 608.417,-121.523 608.463,-141.647"/>
<text text-anchor="middle" x="558.844" y="-132.385" font-family="Times New Roman,serif" font-size="14.00">SmIT34</text>
</g>
<!-- SmIT34&#45;&gt;КоламбияТелеком -->
<g id="edge48" class="edge"><title>SmIT34&#45;&gt;КоламбияТелеком</title>
<path fill="none" stroke="black" d="M616.631,-136.085C631.484,-136.085 647.981,-136.085 664.491,-136.085"/>
<ellipse fill="none" stroke="black" cx="612.569" cy="-136.085" rx="4" ry="4"/>
<polygon fill="black" stroke="black" points="664.758,-139.585 674.758,-136.085 664.758,-132.585 664.758,-139.585"/>
</g>
<!-- ВолгаЛинк -->
<g id="node39" class="node"><title>ВолгаЛинк</title>
<polygon fill="none" stroke="black" points="1244.13,-1033.65 1177.27,-1046.09 1110.41,-1033.65 1110.48,-1013.52 1244.07,-1013.52 1244.13,-1033.65"/>
<text text-anchor="middle" x="1177.27" y="-1024.39" font-family="Times New Roman,serif" font-size="14.00">ВолгаЛинк</text>
</g>
<!-- ВолгаЛинк&#45;&gt;Ростелеком -->
<g id="edge49" class="edge"><title>ВолгаЛинк&#45;&gt;Ростелеком</title>
<path fill="none" stroke="black" d="M1252.41,-1028.09C1266.38,-1028.09 1280.99,-1028.09 1294.96,-1028.09"/>
<ellipse fill="black" stroke="black" cx="1247.98" cy="-1028.09" rx="4" ry="4"/>
<polygon fill="black" stroke="black" points="1295,-1031.59 1305,-1028.09 1295,-1024.59 1295,-1031.59"/>
</g>
<!-- Волгателком -->
<g id="node40" class="node"><title>Волгателком</title>
<polygon fill="none" stroke="black" points="634.378,-195.647 558.844,-208.085 483.31,-195.647 483.38,-175.523 634.308,-175.523 634.378,-195.647"/>
<text text-anchor="middle" x="558.844" y="-186.385" font-family="Times New Roman,serif" font-size="14.00">Волгателком</text>
</g>
<!-- Волгателком&#45;&gt;КоламбияТелеком -->
<g id="edge50" class="edge"><title>Волгателком&#45;&gt;КоламбияТелеком</title>
<path fill="none" stroke="black" d="M624.573,-173.447C649.643,-167.003 678.324,-159.631 703.548,-153.147"/>
<ellipse fill="black" stroke="black" cx="620.569" cy="-174.476" rx="4.00001" ry="4.00001"/>
<polygon fill="black" stroke="black" points="704.58,-156.496 713.394,-150.616 702.838,-149.716 704.58,-156.496"/>
</g>
<!-- ИнсаткомВ -->
<g id="node41" class="node"><title>ИнсаткомВ</title>
<polygon fill="none" stroke="black" points="1245.35,-979.647 1177.27,-992.085 1109.2,-979.647 1109.26,-959.523 1245.28,-959.523 1245.35,-979.647"/>
<text text-anchor="middle" x="1177.27" y="-970.385" font-family="Times New Roman,serif" font-size="14.00">ИнсаткомВ</text>
</g>
<!-- ИнсаткомВ&#45;&gt;Ростелеком -->
<g id="edge51" class="edge"><title>ИнсаткомВ&#45;&gt;Ростелеком</title>
<path fill="none" stroke="black" d="M1225,-987.299C1252.77,-995.153 1288.06,-1005.13 1316.78,-1013.26"/>
<ellipse fill="black" stroke="black" cx="1220.76" cy="-986.101" rx="4.00001" ry="4.00001"/>
<polygon fill="black" stroke="black" points="1316.07,-1016.69 1326.65,-1016.05 1317.97,-1009.96 1316.07,-1016.69"/>
</g>
<!-- Магистраль&#45;&gt;Унико -->
<g id="edge52" class="edge"><title>Магистраль&#45;&gt;Унико</title>
<path fill="none" stroke="black" d="M320.143,-260.832C346.125,-326.341 415.934,-510.21 447.327,-670.085 466.23,-766.351 440.731,-1021.71 483.327,-1110.09 492.756,-1129.65 510.192,-1146.5 525.828,-1158.76"/>
<ellipse fill="black" stroke="black" cx="318.538" cy="-256.803" rx="4.00001" ry="4.00001"/>
<polygon fill="black" stroke="black" points="524.167,-1161.89 534.267,-1165.09 528.367,-1156.29 524.167,-1161.89"/>
</g>
<!-- Магистраль&#45;&gt;ЮТК -->
<g id="edge70" class="edge"><title>Магистраль&#45;&gt;ЮТК</title>
<path fill="none" stroke="black" stroke-dasharray="1,5" d="M319.622,-260.942C344.34,-326.718 411.349,-511.179 447.327,-670.085 472.796,-782.575 426.318,-826.822 483.327,-927.085 535.996,-1019.72 570.476,-1039.97 670.361,-1077.09 819.005,-1132.32 1009.43,-1118.64 1108.9,-1105.74"/>
<ellipse fill="none" stroke="black" cx="318.101" cy="-256.907" rx="4.00001" ry="4.00001"/>
<ellipse fill="none" stroke="black" cx="1113.11" cy="-1105.19" rx="4.00001" ry="4.00001"/>
</g>
<!-- Магистраль&#45;&gt;Powernet -->
<g id="edge69" class="edge"><title>Магистраль&#45;&gt;Powernet</title>
<path fill="none" stroke="black" stroke-dasharray="1,5" d="M340.427,-253.938C401.207,-289.171 543.153,-368.444 670.361,-417.085 687.325,-423.572 706.472,-429.156 723.411,-433.535"/>
<ellipse fill="none" stroke="black" cx="336.881" cy="-251.875" rx="4.00002" ry="4.00002"/>
<ellipse fill="none" stroke="black" cx="727.652" cy="-434.606" rx="4.00001" ry="4.00001"/>
</g>
<!-- Магистраль&#45;&gt;Евротелеком -->
<g id="edge71" class="edge"><title>Магистраль&#45;&gt;Евротелеком</title>
<path fill="none" stroke="black" stroke-dasharray="1,5" d="M329.518,-215.417C359.236,-185.358 419.386,-130.8 483.327,-109.085 623.265,-61.5611 798.19,-72.4253 899.539,-85.0073"/>
<ellipse fill="none" stroke="black" cx="326.441" cy="-218.574" rx="4.00002" ry="4.00002"/>
<ellipse fill="none" stroke="black" cx="903.64" cy="-85.5281" rx="4.00001" ry="4.00001"/>
</g>
<!-- ФорумNet -->
<g id="node43" class="node"><title>ФорумNet</title>
<polygon fill="none" stroke="black" points="370.867,-1062.65 309.147,-1075.09 247.427,-1062.65 247.485,-1042.52 370.809,-1042.52 370.867,-1062.65"/>
<text text-anchor="middle" x="309.147" y="-1053.39" font-family="Times New Roman,serif" font-size="14.00">ФорумNet</text>
</g>
<!-- ФорумNet&#45;&gt;Унико -->
<g id="edge54" class="edge"><title>ФорумNet&#45;&gt;Унико</title>
<path fill="none" stroke="black" d="M379.16,-1059.12C402.559,-1062.66 427.713,-1069.89 447.327,-1084.09 473.767,-1103.22 459.052,-1126.27 483.327,-1148.09 492.818,-1156.61 504.927,-1163.11 516.612,-1167.95"/>
<ellipse fill="black" stroke="black" cx="374.932" cy="-1058.55" rx="4.00001" ry="4.00001"/>
<polygon fill="black" stroke="black" points="515.67,-1171.34 526.261,-1171.64 518.166,-1164.8 515.67,-1171.34"/>
</g>
<!-- ByteS -->
<g id="node44" class="node"><title>ByteS</title>
<polygon fill="none" stroke="black" points="349.485,-1008.65 309.147,-1021.09 268.809,-1008.65 268.846,-988.523 349.447,-988.523 349.485,-1008.65"/>
<text text-anchor="middle" x="309.147" y="-999.385" font-family="Times New Roman,serif" font-size="14.00">ByteS</text>
</g>
<!-- ByteS&#45;&gt;Унико -->
<g id="edge55" class="edge"><title>ByteS&#45;&gt;Унико</title>
<path fill="none" stroke="black" d="M357.53,-1000.79C386.783,-1001.92 423.204,-1008.3 447.327,-1030.09 488.02,-1066.83 446.736,-1107.25 483.327,-1148.09 491.927,-1157.68 503.904,-1164.51 515.742,-1169.32"/>
<ellipse fill="black" stroke="black" cx="353.484" cy="-1000.69" rx="4" ry="4"/>
<polygon fill="black" stroke="black" points="514.547,-1172.61 525.14,-1172.75 516.952,-1166.03 514.547,-1172.61"/>
</g>
<!-- АвантекПлюс -->
<g id="node45" class="node"><title>АвантекПлюс</title>
<polygon fill="none" stroke="black" points="388.715,-1316.65 309.147,-1329.09 229.579,-1316.65 229.653,-1296.52 388.64,-1296.52 388.715,-1316.65"/>
<text text-anchor="middle" x="309.147" y="-1307.39" font-family="Times New Roman,serif" font-size="14.00">АвантекПлюс</text>
</g>
<!-- АвантекПлюс&#45;&gt;Унико -->
<g id="edge56" class="edge"><title>АвантекПлюс&#45;&gt;Унико</title>
<path fill="none" stroke="black" d="M396.804,-1301.67C414.142,-1297.7 431.788,-1292.07 447.327,-1284.09 484.011,-1265.23 517.156,-1230.55 537.373,-1206.44"/>
<ellipse fill="black" stroke="black" cx="392.778" cy="-1302.53" rx="4.00001" ry="4.00001"/>
<polygon fill="black" stroke="black" points="540.333,-1208.35 543.97,-1198.4 534.921,-1203.91 540.333,-1208.35"/>
</g>
<!-- Robor -->
<g id="node46" class="node"><title>Robor</title>
<polygon fill="none" stroke="black" points="1219.93,-633.647 1177.27,-646.085 1134.62,-633.647 1134.66,-613.523 1219.89,-613.523 1219.93,-633.647"/>
<text text-anchor="middle" x="1177.27" y="-624.385" font-family="Times New Roman,serif" font-size="14.00">Robor</text>
</g>
<!-- Robor&#45;&gt;Транстелеком -->
<g id="edge57" class="edge"><title>Robor&#45;&gt;Транстелеком</title>
<path fill="none" stroke="black" d="M1227.37,-635.027C1249.99,-638.226 1277.19,-642.073 1301.7,-645.539"/>
<ellipse fill="black" stroke="black" cx="1223.2" cy="-634.437" rx="4.00001" ry="4.00001"/>
<polygon fill="black" stroke="black" points="1301.27,-649.012 1311.66,-646.947 1302.25,-642.081 1301.27,-649.012"/>
</g>
<!-- ВистОнЛайн -->
<g id="node47" class="node"><title>ВистОнЛайн</title>
<polygon fill="none" stroke="black" points="385.288,-1262.65 309.147,-1275.09 233.006,-1262.65 233.077,-1242.52 385.217,-1242.52 385.288,-1262.65"/>
<text text-anchor="middle" x="309.147" y="-1253.39" font-family="Times New Roman,serif" font-size="14.00">ВистОнЛайн</text>
</g>
<!-- ВистОнЛайн&#45;&gt;Унико -->
<g id="edge59" class="edge"><title>ВистОнЛайн&#45;&gt;Унико</title>
<path fill="none" stroke="black" d="M393.521,-1243.87C411.466,-1240.14 430.186,-1235.57 447.327,-1230.09 473.536,-1221.7 501.781,-1208.85 523.157,-1198.28"/>
<ellipse fill="black" stroke="black" cx="389.259" cy="-1244.73" rx="4.00001" ry="4.00001"/>
<polygon fill="black" stroke="black" points="524.8,-1201.37 532.167,-1193.75 521.659,-1195.11 524.8,-1201.37"/>
</g>
<!-- ИнформационныйСервис -->
<g id="node48" class="node"><title>ИнформационныйСервис</title>
<polygon fill="none" stroke="black" points="447.507,-1208.65 309.147,-1221.09 170.786,-1208.65 170.915,-1188.52 447.378,-1188.52 447.507,-1208.65"/>
<text text-anchor="middle" x="309.147" y="-1199.39" font-family="Times New Roman,serif" font-size="14.00">ИнформационныйСервис</text>
</g>
<!-- ИнформационныйСервис&#45;&gt;Унико -->
<g id="edge73" class="edge"><title>ИнформационныйСервис&#45;&gt;Унико</title>
<path fill="none" stroke="black" stroke-dasharray="1,5" d="M455.595,-1189.58C476.086,-1187.68 495.764,-1185.85 512.289,-1184.32"/>
<ellipse fill="none" stroke="black" cx="451.38" cy="-1189.97" rx="4" ry="4"/>
<ellipse fill="none" stroke="black" cx="516.647" cy="-1183.91" rx="4" ry="4"/>
</g>
</g>
</svg>
