<?xml version="1.0" encoding="UTF-8" standalone="no"?>
<!DOCTYPE svg PUBLIC "-//W3C//DTD SVG 1.1//EN"
 "http://www.w3.org/Graphics/SVG/1.1/DTD/svg11.dtd">
<!-- Generated by graphviz version 2.38.0 (20140413.2041)
 -->
<!-- Title: ispgraph Pages: 1 -->
<svg width="1484pt" height="1161pt"
 viewBox="0.00 0.00 1483.85 1161.07" xmlns="http://www.w3.org/2000/svg" xmlns:xlink="http://www.w3.org/1999/xlink">
<g id="graph0" class="graph" transform="scale(1 1) rotate(0) translate(4 1157.07)">
<title>ispgraph</title>
<polygon fill="white" stroke="none" points="-4,4 -4,-1157.07 1479.85,-1157.07 1479.85,4 -4,4"/>
<!-- Унико -->
<g id="node1" class="node"><title>Унико</title>
<polygon fill="none" stroke="black" points="848.491,-858 827.464,-876 785.409,-876 764.382,-858 785.409,-840 827.464,-840 848.491,-858"/>
<text text-anchor="middle" x="806.437" y="-854.3" font-family="Times New Roman,serif" font-size="14.00">Унико</text>
</g>
<!-- ЭрТелеком -->
<g id="node3" class="node"><title>ЭрТелеком</title>
<polygon fill="none" stroke="black" points="1089.96,-640 1053.22,-671.054 979.752,-671.054 943.018,-640 979.752,-608.946 1053.22,-608.946 1089.96,-640"/>
<text text-anchor="middle" x="1016.49" y="-643.8" font-family="Times New Roman,serif" font-size="14.00">ЭР&#45;Телеком</text>
<text text-anchor="middle" x="1016.49" y="-628.8" font-family="Times New Roman,serif" font-size="14.00">транзит</text>
</g>
<!-- Унико&#45;&gt;ЭрТелеком -->
<g id="edge56" class="edge"><title>Унико&#45;&gt;ЭрТелеком</title>
<path fill="none" stroke="black" stroke-dasharray="1,5" d="M852.666,-853.014C871.743,-848.72 892.78,-840.756 907.002,-826 948.013,-783.451 910.366,-747.267 943.002,-698 949.511,-688.175 958.215,-679.23 967.33,-671.465"/>
<ellipse fill="none" stroke="black" cx="848.556" cy="-853.845" rx="4.00001" ry="4.00001"/>
<ellipse fill="none" stroke="black" cx="970.585" cy="-668.809" rx="4.00002" ry="4.00002"/>
</g>
<!-- Ростелеком -->
<g id="node10" class="node"><title>Ростелеком</title>
<polygon fill="none" stroke="black" points="1465.14,-573 1432.6,-591 1367.51,-591 1334.97,-573 1367.51,-555 1432.6,-555 1465.14,-573"/>
<text text-anchor="middle" x="1400.05" y="-569.3" font-family="Times New Roman,serif" font-size="14.00">Ростелеком</text>
</g>
<!-- Унико&#45;&gt;Ростелеком -->
<g id="edge17" class="edge"><title>Унико&#45;&gt;Ростелеком</title>
<path fill="none" stroke="black" d="M842.372,-863.679C897.228,-871.075 1005.97,-879.526 1089.97,-847 1223.54,-795.278 1336.84,-657.457 1380.19,-599.384"/>
<polygon fill="black" stroke="black" points="1383.18,-601.219 1386.3,-591.094 1377.55,-597.064 1383.18,-601.219"/>
</g>
<!-- RETN -->
<g id="node19" class="node"><title>RETN</title>
<polygon fill="none" stroke="black" points="1056.04,-820 1036.26,-838 996.71,-838 976.934,-820 996.71,-802 1036.26,-802 1056.04,-820"/>
<text text-anchor="middle" x="1016.49" y="-816.3" font-family="Times New Roman,serif" font-size="14.00">RETN</text>
</g>
<!-- Унико&#45;&gt;RETN -->
<g id="edge18" class="edge"><title>Унико&#45;&gt;RETN</title>
<path fill="none" stroke="black" d="M841.327,-851.81C877.37,-845.227 934.44,-834.803 973.353,-827.696"/>
<polygon fill="black" stroke="black" points="974.114,-831.115 983.322,-825.875 972.856,-824.229 974.114,-831.115"/>
</g>
<!-- ДомРу -->
<g id="node2" class="node"><title>ДомРу</title>
<polygon fill="none" stroke="black" points="860.507,-728 833.472,-746 779.402,-746 752.366,-728 779.402,-710 833.472,-710 860.507,-728"/>
<text text-anchor="middle" x="806.437" y="-724.3" font-family="Times New Roman,serif" font-size="14.00">ДОМ.RU</text>
</g>
<!-- ДомРу&#45;&gt;ЭрТелеком -->
<g id="edge34" class="edge"><title>ДомРу&#45;&gt;ЭрТелеком</title>
<path fill="none" stroke="black" d="M855.854,-717.435C872.372,-713.161 890.764,-707.647 907.002,-701 926.67,-692.949 947.239,-682.081 965.113,-671.747"/>
<ellipse fill="none" stroke="black" cx="851.792" cy="-718.457" rx="4.00001" ry="4.00001"/>
<polygon fill="black" stroke="black" points="967.347,-674.494 974.195,-666.411 963.8,-668.459 967.347,-674.494"/>
</g>
<!-- ЮТК -->
<g id="node15" class="node"><title>ЮТК</title>
<polygon fill="none" stroke="black" points="1278.18,-640 1242.65,-671.054 1171.58,-671.054 1136.04,-640 1171.58,-608.946 1242.65,-608.946 1278.18,-640"/>
<text text-anchor="middle" x="1207.11" y="-643.8" font-family="Times New Roman,serif" font-size="14.00">Ростелеком</text>
<text text-anchor="middle" x="1207.11" y="-628.8" font-family="Times New Roman,serif" font-size="14.00">Волгоград</text>
</g>
<!-- ЭрТелеком&#45;&gt;ЮТК -->
<g id="edge60" class="edge"><title>ЭрТелеком&#45;&gt;ЮТК</title>
<path fill="none" stroke="black" stroke-dasharray="1,5" d="M1098.32,-640C1108.11,-640 1118.1,-640 1127.85,-640"/>
<ellipse fill="none" stroke="black" cx="1094.14" cy="-640" rx="4" ry="4"/>
<ellipse fill="none" stroke="black" cx="1131.98" cy="-640" rx="4" ry="4"/>
</g>
<!-- Связьинформ -->
<g id="node25" class="node"><title>Связьинформ</title>
<polygon fill="none" stroke="black" points="1288.39,-349.562 1207.11,-362 1125.83,-349.562 1125.91,-329.438 1288.32,-329.438 1288.39,-349.562"/>
<text text-anchor="middle" x="1207.11" y="-340.3" font-family="Times New Roman,serif" font-size="14.00">Связьинформ</text>
</g>
<!-- ЭрТелеком&#45;&gt;Связьинформ -->
<g id="edge61" class="edge"><title>ЭрТелеком&#45;&gt;Связьинформ</title>
<path fill="none" stroke="black" stroke-dasharray="1,5" d="M1043.67,-602.201C1059,-578.601 1077.71,-547.081 1089.97,-517 1115.2,-455.114 1080.72,-420.182 1125.97,-371 1131.34,-365.166 1138.01,-360.591 1145.19,-357.005"/>
<ellipse fill="none" stroke="black" cx="1041.43" cy="-605.607" rx="4.00002" ry="4.00002"/>
<ellipse fill="none" stroke="black" cx="1148.86" cy="-355.367" rx="4.00002" ry="4.00002"/>
</g>
<!-- Транстелеком -->
<g id="node4" class="node"><title>Транстелеком</title>
<polygon fill="none" stroke="black" points="1475.65,-217 1437.85,-235 1362.25,-235 1324.45,-217 1362.25,-199 1437.85,-199 1475.65,-217"/>
<text text-anchor="middle" x="1400.05" y="-213.3" font-family="Times New Roman,serif" font-size="14.00">Транстелеком</text>
</g>
<!-- Волгатранстелеком -->
<g id="node5" class="node"><title>Волгатранстелеком</title>
<polygon fill="none" stroke="black" points="907.068,-490 856.752,-508 756.121,-508 705.806,-490 756.121,-472 856.752,-472 907.068,-490"/>
<text text-anchor="middle" x="806.437" y="-486.3" font-family="Times New Roman,serif" font-size="14.00">Волгатранстелеком</text>
</g>
<!-- Волгатранстелеком&#45;&gt;ЭрТелеком -->
<g id="edge58" class="edge"><title>Волгатранстелеком&#45;&gt;ЭрТелеком</title>
<path fill="none" stroke="black" stroke-dasharray="1,5" d="M878.249,-505.912C888.499,-510.105 898.456,-515.378 907.002,-522 930.687,-540.352 923.307,-556.42 943.002,-579 951.161,-588.354 960.809,-597.494 970.359,-605.734"/>
<ellipse fill="none" stroke="black" cx="874.486" cy="-504.474" rx="4.00001" ry="4.00001"/>
<ellipse fill="none" stroke="black" cx="973.549" cy="-608.43" rx="4.00002" ry="4.00002"/>
</g>
<!-- Волгатранстелеком&#45;&gt;Транстелеком -->
<g id="edge33" class="edge"><title>Волгатранстелеком&#45;&gt;Транстелеком</title>
<path fill="none" stroke="black" d="M844.607,-467.481C903.13,-432.565 1020.92,-364.452 1125.97,-317 1199.76,-283.668 1288.27,-252.853 1344.09,-234.483"/>
<ellipse fill="none" stroke="black" cx="840.862" cy="-469.721" rx="4.00002" ry="4.00002"/>
<polygon fill="black" stroke="black" points="1345.37,-237.748 1353.79,-231.311 1343.19,-231.095 1345.37,-237.748"/>
</g>
<!-- Волгатранстелеком&#45;&gt;ЮТК -->
<g id="edge57" class="edge"><title>Волгатранстелеком&#45;&gt;ЮТК</title>
<path fill="none" stroke="black" stroke-dasharray="1,5" d="M871.772,-507.704C883.558,-511.24 895.7,-515.079 907.002,-519 994.042,-549.195 1092.7,-590.534 1152.12,-616.235"/>
<ellipse fill="none" stroke="black" cx="867.927" cy="-506.564" rx="4.00001" ry="4.00001"/>
<ellipse fill="none" stroke="black" cx="1155.86" cy="-617.854" rx="4.00002" ry="4.00002"/>
</g>
<!-- Orange -->
<g id="node16" class="node"><title>Orange</title>
<polygon fill="none" stroke="black" points="1059.04,-490 1037.77,-508 995.208,-508 973.93,-490 995.208,-472 1037.77,-472 1059.04,-490"/>
<text text-anchor="middle" x="1016.49" y="-486.3" font-family="Times New Roman,serif" font-size="14.00">Orange</text>
</g>
<!-- Волгатранстелеком&#45;&gt;Orange -->
<g id="edge59" class="edge"><title>Волгатранстелеком&#45;&gt;Orange</title>
<path fill="none" stroke="black" stroke-dasharray="1,5" d="M915.21,-490C932.847,-490 950.339,-490 965.657,-490"/>
<ellipse fill="none" stroke="black" cx="911.196" cy="-490" rx="4" ry="4"/>
<ellipse fill="none" stroke="black" cx="969.93" cy="-490" rx="4" ry="4"/>
</g>
<!-- Релком -->
<g id="node6" class="node"><title>Релком</title>
<polygon fill="none" stroke="black" points="851.997,-72 829.217,-90 783.656,-90 760.876,-72 783.656,-54 829.217,-54 851.997,-72"/>
<text text-anchor="middle" x="806.437" y="-68.3" font-family="Times New Roman,serif" font-size="14.00">Релком</text>
</g>
<!-- Мегафон -->
<g id="node7" class="node"><title>Мегафон</title>
<polygon fill="none" stroke="black" points="859.507,-360 832.972,-378 779.902,-378 753.366,-360 779.902,-342 832.972,-342 859.507,-360"/>
<text text-anchor="middle" x="806.437" y="-356.3" font-family="Times New Roman,serif" font-size="14.00">Мегафон</text>
</g>
<!-- Вымпелком -->
<g id="node8" class="node"><title>Вымпелком</title>
<polygon fill="none" stroke="black" points="851.495,-301 828.966,-319 783.907,-319 761.378,-301 783.907,-283 828.966,-283 851.495,-301"/>
<text text-anchor="middle" x="806.437" y="-297.3" font-family="Times New Roman,serif" font-size="14.00">Билайн</text>
</g>
<!-- КоламбияТелеком -->
<g id="node9" class="node"><title>КоламбияТелеком</title>
<polygon fill="none" stroke="black" points="902.562,-674 854.499,-692 758.374,-692 710.312,-674 758.374,-656 854.499,-656 902.562,-674"/>
<text text-anchor="middle" x="806.437" y="-670.3" font-family="Times New Roman,serif" font-size="14.00">КоламбияТелеком</text>
</g>
<!-- КоламбияТелеком&#45;&gt;ЭрТелеком -->
<g id="edge35" class="edge"><title>КоламбияТелеком&#45;&gt;ЭрТелеком</title>
<path fill="none" stroke="black" d="M881.839,-661.841C902.266,-658.503 924.354,-654.893 944.578,-651.588"/>
<ellipse fill="none" stroke="black" cx="877.785" cy="-662.504" rx="4.00001" ry="4.00001"/>
<polygon fill="black" stroke="black" points="945.348,-655.009 954.652,-649.942 944.219,-648.1 945.348,-655.009"/>
</g>
<!-- HE -->
<g id="node11" class="node"><title>HE</title>
<polygon fill="none" stroke="black" points="833.437,-582 819.937,-600 792.937,-600 779.437,-582 792.937,-564 819.937,-564 833.437,-582"/>
<text text-anchor="middle" x="806.437" y="-578.3" font-family="Times New Roman,serif" font-size="14.00">HE</text>
</g>
<!-- КвантТелеком -->
<g id="node12" class="node"><title>КвантТелеком</title>
<polygon fill="none" stroke="black" points="216.282,-751 177.231,-769 99.1293,-769 60.0784,-751 99.1293,-733 177.231,-733 216.282,-751"/>
<text text-anchor="middle" x="138.18" y="-747.3" font-family="Times New Roman,serif" font-size="14.00">КвантТелеком</text>
</g>
<!-- Tele2 -->
<g id="node13" class="node"><title>Tele2</title>
<polygon fill="none" stroke="black" points="1242.16,-398 1224.64,-416 1189.59,-416 1172.06,-398 1189.59,-380 1224.64,-380 1242.16,-398"/>
<text text-anchor="middle" x="1207.11" y="-394.3" font-family="Times New Roman,serif" font-size="14.00">Tele2</text>
</g>
<!-- Tele2&#45;&gt;Транстелеком -->
<g id="edge3" class="edge"><title>Tele2&#45;&gt;Транстелеком</title>
<path fill="none" stroke="black" d="M1237.23,-392.779C1253.41,-388.807 1273.25,-382.076 1288.25,-371 1334.27,-337.021 1368.84,-278.269 1386.32,-243.995"/>
<polygon fill="black" stroke="black" points="1389.47,-245.529 1390.79,-235.017 1383.2,-242.408 1389.47,-245.529"/>
</g>
<!-- Tele2&#45;&gt;Ростелеком -->
<g id="edge2" class="edge"><title>Tele2&#45;&gt;Ростелеком</title>
<path fill="none" stroke="black" d="M1235.56,-404.99C1251.96,-410.087 1272.58,-418.189 1288.25,-430 1330.72,-461.996 1365.47,-514.209 1384.14,-545.908"/>
<polygon fill="black" stroke="black" points="1381.16,-547.747 1389.19,-554.657 1387.23,-544.247 1381.16,-547.747"/>
</g>
<!-- МТС -->
<g id="node14" class="node"><title>МТС</title>
<polygon fill="none" stroke="black" points="173.228,-805 155.704,-823 120.656,-823 103.133,-805 120.656,-787 155.704,-787 173.228,-805"/>
<text text-anchor="middle" x="138.18" y="-801.3" font-family="Times New Roman,serif" font-size="14.00">МТС</text>
</g>
<!-- ЮТК&#45;&gt;Ростелеком -->
<g id="edge32" class="edge"><title>ЮТК&#45;&gt;Ростелеком</title>
<path fill="none" stroke="black" d="M1265.86,-619.736C1292.79,-610.285 1324.5,-599.16 1350.22,-590.135"/>
<ellipse fill="none" stroke="black" cx="1262.05" cy="-621.072" rx="4.00001" ry="4.00001"/>
<polygon fill="black" stroke="black" points="1351.48,-593.401 1359.76,-586.787 1349.17,-586.796 1351.48,-593.401"/>
</g>
<!-- ПросторТелеком -->
<g id="node17" class="node"><title>ПросторТелеком</title>
<polygon fill="none" stroke="black" points="669.93,-262 624.871,-280 534.754,-280 489.695,-262 534.754,-244 624.871,-244 669.93,-262"/>
<text text-anchor="middle" x="579.813" y="-258.3" font-family="Times New Roman,serif" font-size="14.00">ПросторТелеком</text>
</g>
<!-- ПросторТелеком&#45;&gt;Мегафон -->
<g id="edge20" class="edge"><title>ПросторТелеком&#45;&gt;Мегафон</title>
<path fill="none" stroke="black" d="M638.829,-274.696C649.601,-278.389 660.425,-283.08 669.871,-289 689.859,-301.528 685.988,-315.307 705.871,-328 720.572,-337.385 738.26,-344.233 754.623,-349.126"/>
<polygon fill="black" stroke="black" points="754.028,-352.594 764.602,-351.925 755.919,-345.854 754.028,-352.594"/>
</g>
<!-- ПросторТелеком&#45;&gt;Вымпелком -->
<g id="edge19" class="edge"><title>ПросторТелеком&#45;&gt;Вымпелком</title>
<path fill="none" stroke="black" d="M643.085,-272.812C679.796,-279.186 725.473,-287.116 759.018,-292.941"/>
<polygon fill="black" stroke="black" points="758.564,-296.414 769.015,-294.676 759.761,-289.517 758.564,-296.414"/>
</g>
<!-- WestCall -->
<g id="node18" class="node"><title>WestCall</title>
<polygon fill="none" stroke="black" points="857.503,-18 831.97,-36 780.903,-36 755.37,-18 780.903,-2.13163e-014 831.97,-0 857.503,-18"/>
<text text-anchor="middle" x="806.437" y="-14.3" font-family="Times New Roman,serif" font-size="14.00">WestCall</text>
</g>
<!-- ГородокТочкаРу -->
<g id="node20" class="node"><title>ГородокТочкаРу</title>
<polygon fill="none" stroke="black" points="650.707,-1013.56 579.813,-1026 508.918,-1013.56 508.985,-993.438 650.641,-993.438 650.707,-1013.56"/>
<text text-anchor="middle" x="579.813" y="-1004.3" font-family="Times New Roman,serif" font-size="14.00">Городок.Ру</text>
</g>
<!-- ГородокТочкаРу&#45;&gt;Унико -->
<g id="edge40" class="edge"><title>ГородокТочкаРу&#45;&gt;Унико</title>
<path fill="none" stroke="black" d="M649.787,-990.478C656.754,-987.715 663.575,-984.569 669.871,-981 715.418,-955.187 758.483,-911.661 783.4,-883.908"/>
<ellipse fill="black" stroke="black" cx="645.932" cy="-991.923" rx="4.00001" ry="4.00001"/>
<polygon fill="black" stroke="black" points="786.229,-885.992 790.233,-876.183 780.986,-881.354 786.229,-885.992"/>
</g>
<!-- STARLINE -->
<g id="node21" class="node"><title>STARLINE</title>
<polygon fill="none" stroke="black" points="205.647,-864.562 138.18,-877 70.7135,-864.562 70.7765,-844.438 205.584,-844.438 205.647,-864.562"/>
<text text-anchor="middle" x="138.18" y="-855.3" font-family="Times New Roman,serif" font-size="14.00">STARLINE</text>
</g>
<!-- VSSA -->
<g id="node22" class="node"><title>VSSA</title>
<polygon fill="none" stroke="black" points="180.838,-918.562 138.18,-931 95.5225,-918.562 95.5623,-898.438 180.798,-898.438 180.838,-918.562"/>
<text text-anchor="middle" x="138.18" y="-909.3" font-family="Times New Roman,serif" font-size="14.00">VSSA</text>
</g>
<!-- ИнформационныйСервис -->
<g id="node23" class="node"><title>ИнформационныйСервис</title>
<polygon fill="none" stroke="black" points="276.541,-972.562 138.18,-985 -0.180374,-972.562 -0.0512311,-952.438 276.412,-952.438 276.541,-972.562"/>
<text text-anchor="middle" x="138.18" y="-963.3" font-family="Times New Roman,serif" font-size="14.00">ИнформационныйСервис</text>
</g>
<!-- SmIT34 -->
<g id="node24" class="node"><title>SmIT34</title>
<polygon fill="none" stroke="black" points="187.799,-1026.56 138.18,-1039 88.5612,-1026.56 88.6075,-1006.44 187.753,-1006.44 187.799,-1026.56"/>
<text text-anchor="middle" x="138.18" y="-1017.3" font-family="Times New Roman,serif" font-size="14.00">SmIT34</text>
</g>
<!-- Связьинформ&#45;&gt;Унико -->
<g id="edge28" class="edge"><title>Связьинформ&#45;&gt;Унико</title>
<path fill="none" stroke="black" d="M1143.47,-356.934C1136.8,-360.538 1130.72,-365.136 1125.97,-371 1038.94,-478.43 1163.68,-563.025 1089.97,-680 1059.86,-727.782 911.929,-805.937 842.958,-840.555"/>
<ellipse fill="none" stroke="black" cx="1147.3" cy="-355.116" rx="4.00002" ry="4.00002"/>
<polygon fill="black" stroke="black" points="841.153,-837.544 833.771,-845.143 844.281,-843.807 841.153,-837.544"/>
</g>
<!-- Связьинформ&#45;&gt;Транстелеком -->
<g id="edge1" class="edge"><title>Связьинформ&#45;&gt;Транстелеком</title>
<path fill="none" stroke="black" d="M1230.02,-329.431C1262.62,-307.746 1324.26,-266.744 1363.42,-240.702"/>
<polygon fill="black" stroke="black" points="1365.5,-243.518 1371.89,-235.065 1361.63,-237.689 1365.5,-243.518"/>
</g>
<!-- СпринтСеть -->
<g id="node26" class="node"><title>СпринтСеть</title>
<polygon fill="none" stroke="black" points="653.027,-213.562 579.813,-226 506.599,-213.562 506.667,-193.438 652.958,-193.438 653.027,-213.562"/>
<text text-anchor="middle" x="579.813" y="-204.3" font-family="Times New Roman,serif" font-size="14.00">СпринтСеть</text>
</g>
<!-- СпринтСеть&#45;&gt;Мегафон -->
<g id="edge5" class="edge"><title>СпринтСеть&#45;&gt;Мегафон</title>
<path fill="none" stroke="black" d="M636.243,-216.424C648.451,-220.425 660.514,-226.319 669.871,-235 702.364,-265.144 673.63,-297.587 705.871,-328 718.34,-339.762 735.153,-347.2 751.41,-351.905"/>
<polygon fill="black" stroke="black" points="750.859,-355.378 761.417,-354.495 752.613,-348.601 750.859,-355.378"/>
</g>
<!-- СпринтСеть&#45;&gt;Вымпелком -->
<g id="edge4" class="edge"><title>СпринтСеть&#45;&gt;Вымпелком</title>
<path fill="none" stroke="black" d="M627.802,-217.863C641.895,-221.958 657.014,-227.542 669.871,-235 688.909,-246.042 686.926,-257.8 705.871,-269 722.464,-278.809 742.418,-285.986 760.092,-291.027"/>
<polygon fill="black" stroke="black" points="759.625,-294.526 770.191,-293.751 761.448,-287.767 759.625,-294.526"/>
</g>
<!-- СпринтСеть&#45;&gt;Связьинформ -->
<g id="edge47" class="edge"><title>СпринтСеть&#45;&gt;Связьинформ</title>
<path fill="none" stroke="black" stroke-dasharray="1,5" d="M638.215,-219.069C703.455,-231.776 813.078,-253.512 907.002,-274 986.541,-291.35 1077.57,-312.897 1138.11,-327.468"/>
<ellipse fill="none" stroke="black" cx="634.019" cy="-218.253" rx="4.00001" ry="4.00001"/>
<ellipse fill="none" stroke="black" cx="1142.19" cy="-328.45" rx="4.00001" ry="4.00001"/>
</g>
<!-- Экспилайн -->
<g id="node27" class="node"><title>Экспилайн</title>
<polygon fill="none" stroke="black" points="646.673,-429.562 579.813,-442 512.952,-429.562 513.015,-409.438 646.611,-409.438 646.673,-429.562"/>
<text text-anchor="middle" x="579.813" y="-420.3" font-family="Times New Roman,serif" font-size="14.00">Экспилайн</text>
</g>
<!-- Экспилайн&#45;&gt;Мегафон -->
<g id="edge6" class="edge"><title>Экспилайн&#45;&gt;Мегафон</title>
<path fill="none" stroke="black" d="M632.064,-409.397C670.175,-398.539 721.762,-383.841 758.738,-373.305"/>
<polygon fill="black" stroke="black" points="760.098,-376.557 768.756,-370.451 758.18,-369.825 760.098,-376.557"/>
</g>
<!-- Экспилайн&#45;&gt;Связьинформ -->
<g id="edge49" class="edge"><title>Экспилайн&#45;&gt;Связьинформ</title>
<path fill="none" stroke="black" stroke-dasharray="1,5" d="M655.097,-416.212C721.261,-409.123 820.674,-398.099 907.002,-387 987.178,-376.692 1079.2,-363.215 1139.76,-354.118"/>
<ellipse fill="none" stroke="black" cx="650.771" cy="-416.674" rx="4" ry="4"/>
<ellipse fill="none" stroke="black" cx="1143.77" cy="-353.515" rx="4.00001" ry="4.00001"/>
</g>
<!-- ЭРОС -->
<g id="node28" class="node"><title>ЭРОС</title>
<polygon fill="none" stroke="black" points="624.184,-591.562 579.813,-604 535.441,-591.562 535.482,-571.438 624.143,-571.438 624.184,-591.562"/>
<text text-anchor="middle" x="579.813" y="-582.3" font-family="Times New Roman,serif" font-size="14.00">ЭРОС</text>
</g>
<!-- ЭРОС&#45;&gt;Волгатранстелеком -->
<g id="edge7" class="edge"><title>ЭРОС&#45;&gt;Волгатранстелеком</title>
<path fill="none" stroke="black" d="M624.377,-574.462C639.025,-570.144 655.332,-564.851 669.871,-559 702.745,-545.771 738.4,-527.454 764.891,-513.017"/>
<polygon fill="black" stroke="black" points="766.782,-515.971 773.859,-508.087 763.41,-509.837 766.782,-515.971"/>
</g>
<!-- ЭРОС&#45;&gt;HE -->
<g id="edge8" class="edge"><title>ЭРОС&#45;&gt;HE</title>
<path fill="none" stroke="black" d="M624.122,-585.229C666.397,-584.476 729.966,-583.344 769.514,-582.64"/>
<polygon fill="black" stroke="black" points="769.815,-586.135 779.752,-582.457 769.691,-579.136 769.815,-586.135"/>
</g>
<!-- Comrise -->
<g id="node29" class="node"><title>Comrise</title>
<polygon fill="none" stroke="black" points="434.389,-817.562 383.057,-830 331.725,-817.562 331.773,-797.438 434.341,-797.438 434.389,-817.562"/>
<text text-anchor="middle" x="383.057" y="-808.3" font-family="Times New Roman,serif" font-size="14.00">Comrise</text>
</g>
<!-- Comrise&#45;&gt;Унико -->
<g id="edge50" class="edge"><title>Comrise&#45;&gt;Унико</title>
<path fill="none" stroke="black" stroke-dasharray="1,5" d="M427.901,-822.998C446.817,-827.363 469.262,-832.039 489.754,-835 583.964,-848.612 695.217,-854.334 757.314,-856.611"/>
<ellipse fill="none" stroke="black" cx="423.921" cy="-822.065" rx="4.00001" ry="4.00001"/>
<ellipse fill="none" stroke="black" cx="761.377" cy="-856.755" rx="4" ry="4"/>
</g>
<!-- Comrise&#45;&gt;Вымпелком -->
<g id="edge10" class="edge"><title>Comrise&#45;&gt;Вымпелком</title>
<path fill="none" stroke="black" d="M400.443,-797.332C417.194,-781.211 442.325,-753.64 453.754,-724 475.508,-667.583 445.607,-222.317 489.754,-181 548.202,-126.299 595.015,-152.629 669.871,-181 719.093,-199.656 761.93,-245.257 785.672,-274.565"/>
<polygon fill="black" stroke="black" points="783.181,-277.058 792.132,-282.727 788.67,-272.714 783.181,-277.058"/>
</g>
<!-- Comrise&#45;&gt;Ростелеком -->
<g id="edge9" class="edge"><title>Comrise&#45;&gt;Ростелеком</title>
<path fill="none" stroke="black" d="M385.064,-829.637C388.902,-879.156 406.954,-1020.32 489.754,-1089 599.489,-1180.02 662.864,-1146 805.437,-1146 805.437,-1146 805.437,-1146 1017.49,-1146 1282.34,-1146 1374.58,-716.641 1394.58,-601.256"/>
<polygon fill="black" stroke="black" points="1398.08,-601.538 1396.3,-591.095 1391.18,-600.374 1398.08,-601.538"/>
</g>
<!-- Powernet -->
<g id="node30" class="node"><title>Powernet</title>
<polygon fill="none" stroke="black" points="635.178,-721.562 579.813,-734 524.447,-721.562 524.499,-701.438 635.126,-701.438 635.178,-721.562"/>
<text text-anchor="middle" x="579.813" y="-712.3" font-family="Times New Roman,serif" font-size="14.00">Powernet</text>
</g>
<!-- Comrise&#45;&gt;Powernet -->
<g id="edge51" class="edge"><title>Comrise&#45;&gt;Powernet</title>
<path fill="none" stroke="black" stroke-dasharray="1,5" d="M421.13,-793.726C457.349,-775.873 511.924,-748.971 546.441,-731.957"/>
<ellipse fill="none" stroke="black" cx="417.224" cy="-795.651" rx="4.00002" ry="4.00002"/>
<ellipse fill="none" stroke="black" cx="550.324" cy="-730.043" rx="4.00002" ry="4.00002"/>
</g>
<!-- Powernet&#45;&gt;Унико -->
<g id="edge31" class="edge"><title>Powernet&#45;&gt;Унико</title>
<path fill="none" stroke="black" d="M631.867,-726.674C645.427,-731.435 659.238,-738.259 669.871,-748 698.024,-773.792 677.285,-800.69 705.871,-826 720.667,-839.1 740.88,-846.845 759.229,-851.421"/>
<ellipse fill="none" stroke="black" cx="627.743" cy="-725.337" rx="4.00001" ry="4.00001"/>
<polygon fill="black" stroke="black" points="758.662,-854.881 769.185,-853.651 760.192,-848.05 758.662,-854.881"/>
</g>
<!-- Powernet&#45;&gt;ЭрТелеком -->
<g id="edge52" class="edge"><title>Powernet&#45;&gt;ЭрТелеком</title>
<path fill="none" stroke="black" stroke-dasharray="1,5" d="M616.706,-730.375C641.342,-739.444 675.034,-750.303 705.871,-755 794.244,-768.46 828.715,-798.15 907.002,-755 933.243,-740.537 923.029,-720.335 943.002,-698 950.858,-689.215 960.141,-680.716 969.393,-673.057"/>
<ellipse fill="none" stroke="black" cx="612.787" cy="-728.906" rx="4.00001" ry="4.00001"/>
<ellipse fill="none" stroke="black" cx="972.666" cy="-670.411" rx="4.00002" ry="4.00002"/>
</g>
<!-- Powernet&#45;&gt;Мегафон -->
<g id="edge11" class="edge"><title>Powernet&#45;&gt;Мегафон</title>
<path fill="none" stroke="black" d="M597.642,-701.369C617.876,-682.838 651.411,-648.962 669.871,-613 701.18,-552.006 672.882,-523.101 705.871,-463 722.818,-432.126 751.482,-403.892 773.715,-384.824"/>
<polygon fill="black" stroke="black" points="776.169,-387.334 781.581,-378.226 771.67,-381.971 776.169,-387.334"/>
</g>
<!-- Евротелеком -->
<g id="node31" class="node"><title>Евротелеком</title>
<polygon fill="none" stroke="black" points="655.954,-121.562 579.813,-134 503.671,-121.562 503.742,-101.438 655.883,-101.438 655.954,-121.562"/>
<text text-anchor="middle" x="579.813" y="-112.3" font-family="Times New Roman,serif" font-size="14.00">Евротелеком</text>
</g>
<!-- Евротелеком&#45;&gt;Транстелеком -->
<g id="edge12" class="edge"><title>Евротелеком&#45;&gt;Транстелеком</title>
<path fill="none" stroke="black" d="M656.055,-113.912C813.473,-110.365 1172.55,-106.802 1288.25,-144 1319.42,-154.021 1350.14,-175.417 1371.29,-192.468"/>
<polygon fill="black" stroke="black" points="1369.25,-195.322 1379.19,-198.992 1373.71,-189.925 1369.25,-195.322"/>
</g>
<!-- Евротелеком&#45;&gt;Вымпелком -->
<g id="edge13" class="edge"><title>Евротелеком&#45;&gt;Вымпелком</title>
<path fill="none" stroke="black" d="M624.566,-126.902C639.704,-131.888 656.268,-138.786 669.871,-148 720.851,-182.53 764.996,-240.53 788.156,-274.328"/>
<polygon fill="black" stroke="black" points="785.359,-276.441 793.852,-282.775 791.163,-272.527 785.359,-276.441"/>
</g>
<!-- Virgin -->
<g id="node32" class="node"><title>Virgin</title>
<polygon fill="none" stroke="black" points="620.151,-483.562 579.813,-496 539.475,-483.562 539.512,-463.438 620.113,-463.438 620.151,-483.562"/>
<text text-anchor="middle" x="579.813" y="-474.3" font-family="Times New Roman,serif" font-size="14.00">Virgin</text>
</g>
<!-- Virgin&#45;&gt;Волгатранстелеком -->
<g id="edge45" class="edge"><title>Virgin&#45;&gt;Волгатранстелеком</title>
<path fill="none" stroke="black" d="M628.433,-480.544C651.748,-481.79 680.707,-483.337 708.402,-484.816"/>
<ellipse fill="black" stroke="black" cx="624.19" cy="-480.317" rx="4" ry="4"/>
<polygon fill="black" stroke="black" points="708.363,-488.319 718.536,-485.358 708.737,-481.329 708.363,-488.319"/>
</g>
<!-- Virgin&#45;&gt;Мегафон -->
<g id="edge15" class="edge"><title>Virgin&#45;&gt;Мегафон</title>
<path fill="none" stroke="black" d="M620.327,-468.735C636.13,-464.339 654.251,-458.407 669.871,-451 690.503,-441.217 738.855,-407.708 771.868,-384.21"/>
<polygon fill="black" stroke="black" points="774.216,-386.834 780.32,-378.174 770.148,-381.137 774.216,-386.834"/>
</g>
<!-- Virgin&#45;&gt;Вымпелком -->
<g id="edge14" class="edge"><title>Virgin&#45;&gt;Вымпелком</title>
<path fill="none" stroke="black" d="M620.135,-474.397C637.414,-470.908 656.722,-464.127 669.871,-451 708.676,-412.263 667.389,-372.058 705.871,-333 719.203,-319.468 738.268,-311.652 756.153,-307.14"/>
<polygon fill="black" stroke="black" points="756.928,-310.554 765.924,-304.958 755.402,-303.722 756.928,-310.554"/>
</g>
<!-- Virgin&#45;&gt;Ростелеком -->
<g id="edge16" class="edge"><title>Virgin&#45;&gt;Ростелеком</title>
<path fill="none" stroke="black" d="M620.356,-469.253C731.01,-446.732 1051.19,-395.039 1288.25,-492 1320.33,-505.118 1351.71,-529.47 1372.85,-548.06"/>
<polygon fill="black" stroke="black" points="1370.64,-550.788 1380.42,-554.867 1375.32,-545.58 1370.64,-550.788"/>
</g>
<!-- WMAX -->
<g id="node33" class="node"><title>WMAX</title>
<polygon fill="none" stroke="black" points="629.432,-67.5623 579.813,-80 530.194,-67.5623 530.24,-47.4377 629.385,-47.4377 629.432,-67.5623"/>
<text text-anchor="middle" x="579.813" y="-58.3" font-family="Times New Roman,serif" font-size="14.00">WMAX</text>
</g>
<!-- WMAX&#45;&gt;Релком -->
<g id="edge23" class="edge"><title>WMAX&#45;&gt;Релком</title>
<path fill="none" stroke="black" d="M629.553,-64.1699C665.997,-65.7923 715.757,-68.0076 753.051,-69.6678"/>
<polygon fill="black" stroke="black" points="753.072,-73.1721 763.218,-70.1205 753.383,-66.1791 753.072,-73.1721"/>
</g>
<!-- WMAX&#45;&gt;Мегафон -->
<g id="edge21" class="edge"><title>WMAX&#45;&gt;Мегафон</title>
<path fill="none" stroke="black" d="M629.804,-66.7082C644.666,-70.5377 659.726,-77.2677 669.871,-89 740.133,-170.255 636.286,-246.164 705.871,-328 716.877,-340.944 733.141,-348.701 749.348,-353.333"/>
<polygon fill="black" stroke="black" points="748.835,-356.812 759.384,-355.832 750.526,-350.019 748.835,-356.812"/>
</g>
<!-- WMAX&#45;&gt;WestCall -->
<g id="edge22" class="edge"><title>WMAX&#45;&gt;WestCall</title>
<path fill="none" stroke="black" d="M629.553,-52.4527C666.94,-45.1291 718.342,-35.0603 755.922,-27.6991"/>
<polygon fill="black" stroke="black" points="756.991,-31.0563 766.132,-25.6992 755.645,-24.1869 756.991,-31.0563"/>
</g>
<!-- InstrNet -->
<g id="node34" class="node"><title>InstrNet</title>
<polygon fill="none" stroke="black" points="629.432,-537.562 579.813,-550 530.194,-537.562 530.24,-517.438 629.385,-517.438 629.432,-537.562"/>
<text text-anchor="middle" x="579.813" y="-528.3" font-family="Times New Roman,serif" font-size="14.00">InstrNet</text>
</g>
<!-- InstrNet&#45;&gt;ЭрТелеком -->
<g id="edge36" class="edge"><title>InstrNet&#45;&gt;ЭрТелеком</title>
<path fill="none" stroke="black" d="M637.747,-526.182C704.606,-521.542 817.709,-520.623 907.002,-555 914.54,-557.902 944.309,-581.391 970.759,-602.942"/>
<ellipse fill="none" stroke="black" cx="633.417" cy="-526.501" rx="4" ry="4"/>
<polygon fill="black" stroke="black" points="968.875,-605.923 978.833,-609.543 973.306,-600.504 968.875,-605.923"/>
</g>
<!-- InstrNet&#45;&gt;Мегафон -->
<g id="edge24" class="edge"><title>InstrNet&#45;&gt;Мегафон</title>
<path fill="none" stroke="black" d="M629.691,-522.555C643.397,-518.517 657.83,-512.859 669.871,-505 690.459,-491.562 689.32,-481.18 705.871,-463 730.476,-435.974 759.641,-406.036 780.023,-385.434"/>
<polygon fill="black" stroke="black" points="782.553,-387.853 787.111,-378.289 777.583,-382.924 782.553,-387.853"/>
</g>
<!-- ТСвязь -->
<g id="node35" class="node"><title>ТСвязь</title>
<polygon fill="none" stroke="black" points="629.432,-321.562 579.813,-334 530.194,-321.562 530.24,-301.438 629.385,-301.438 629.432,-321.562"/>
<text text-anchor="middle" x="579.813" y="-312.3" font-family="Times New Roman,serif" font-size="14.00">ТСвязь</text>
</g>
<!-- ТСвязь&#45;&gt;Мегафон -->
<g id="edge25" class="edge"><title>ТСвязь&#45;&gt;Мегафон</title>
<path fill="none" stroke="black" d="M620.712,-323.816C658.135,-331.146 714.257,-342.14 754.817,-350.084"/>
<polygon fill="black" stroke="black" points="754.286,-353.547 764.772,-352.035 755.632,-346.677 754.286,-353.547"/>
</g>
<!-- ТСвязь&#45;&gt;Вымпелком -->
<g id="edge26" class="edge"><title>ТСвязь&#45;&gt;Вымпелком</title>
<path fill="none" stroke="black" d="M629.553,-312.745C666.469,-310.28 717.047,-306.902 754.493,-304.402"/>
<polygon fill="black" stroke="black" points="754.939,-307.88 764.684,-303.721 754.473,-300.896 754.939,-307.88"/>
</g>
<!-- Восток -->
<g id="node36" class="node"><title>Восток</title>
<polygon fill="none" stroke="black" points="628.218,-375.562 579.813,-388 531.407,-375.562 531.452,-355.438 628.173,-355.438 628.218,-375.562"/>
<text text-anchor="middle" x="579.813" y="-366.3" font-family="Times New Roman,serif" font-size="14.00">Восток</text>
</g>
<!-- Восток&#45;&gt;Мегафон -->
<g id="edge27" class="edge"><title>Восток&#45;&gt;Мегафон</title>
<path fill="none" stroke="black" d="M628.175,-367.891C662.53,-366.362 709.238,-364.283 746.084,-362.642"/>
<polygon fill="black" stroke="black" points="746.362,-366.134 756.196,-362.192 746.05,-359.14 746.362,-366.134"/>
</g>
<!-- Старнет -->
<g id="node37" class="node"><title>Старнет</title>
<polygon fill="none" stroke="black" points="190.62,-702.562 138.18,-715 85.7407,-702.562 85.7897,-682.438 190.571,-682.438 190.62,-702.562"/>
<text text-anchor="middle" x="138.18" y="-693.3" font-family="Times New Roman,serif" font-size="14.00">Старнет</text>
</g>
<!-- Старнет&#45;&gt;Унико -->
<g id="edge29" class="edge"><title>Старнет&#45;&gt;Унико</title>
<path fill="none" stroke="black" d="M198.577,-695.53C225.264,-697.899 255.395,-705.205 276.36,-724 316.238,-759.75 288.572,-791.016 312.36,-839 372.875,-961.064 368.71,-1026.47 489.754,-1089 560.876,-1125.74 600.402,-1128.78 669.871,-1089 747.263,-1044.68 784.782,-937.119 798.735,-885.945"/>
<ellipse fill="none" stroke="black" cx="194.41" cy="-695.231" rx="4" ry="4"/>
<polygon fill="black" stroke="black" points="802.137,-886.772 801.289,-876.211 795.366,-884.996 802.137,-886.772"/>
</g>
<!-- Старнет&#45;&gt;ЭрТелеком -->
<g id="edge30" class="edge"><title>Старнет&#45;&gt;ЭрТелеком</title>
<path fill="none" stroke="black" d="M198.838,-686.555C232.155,-681.01 274.469,-674.442 312.36,-670 535.889,-643.793 801.775,-639.768 933.335,-639.571"/>
<ellipse fill="none" stroke="black" cx="194.514" cy="-687.279" rx="4.00001" ry="4.00001"/>
<polygon fill="black" stroke="black" points="933.343,-643.071 943.341,-639.563 933.338,-636.071 933.343,-643.071"/>
</g>
<!-- Магистраль -->
<g id="node40" class="node"><title>Магистраль</title>
<polygon fill="none" stroke="black" points="453.951,-702.562 383.057,-715 312.163,-702.562 312.229,-682.438 453.885,-682.438 453.951,-702.562"/>
<text text-anchor="middle" x="383.057" y="-693.3" font-family="Times New Roman,serif" font-size="14.00">Магистраль</text>
</g>
<!-- Старнет&#45;&gt;Магистраль -->
<g id="edge48" class="edge"><title>Старнет&#45;&gt;Магистраль</title>
<path fill="none" stroke="black" stroke-dasharray="1,5" d="M198.753,-697C230.497,-697 269.935,-697 304.088,-697"/>
<ellipse fill="none" stroke="black" cx="194.688" cy="-697" rx="4" ry="4"/>
<ellipse fill="none" stroke="black" cx="308.194" cy="-697" rx="4" ry="4"/>
</g>
<!-- ВолгаЛинк -->
<g id="node38" class="node"><title>ВолгаЛинк</title>
<polygon fill="none" stroke="black" points="1273.97,-578.562 1207.11,-591 1140.25,-578.562 1140.31,-558.438 1273.91,-558.438 1273.97,-578.562"/>
<text text-anchor="middle" x="1207.11" y="-569.3" font-family="Times New Roman,serif" font-size="14.00">ВолгаЛинк</text>
</g>
<!-- ВолгаЛинк&#45;&gt;Ростелеком -->
<g id="edge37" class="edge"><title>ВолгаЛинк&#45;&gt;Ростелеком</title>
<path fill="none" stroke="black" d="M1282.25,-573C1296.22,-573 1310.83,-573 1324.79,-573"/>
<ellipse fill="black" stroke="black" cx="1277.82" cy="-573" rx="4" ry="4"/>
<polygon fill="black" stroke="black" points="1324.83,-576.5 1334.83,-573 1324.83,-569.5 1324.83,-576.5"/>
</g>
<!-- ИнсаткомВ -->
<g id="node39" class="node"><title>ИнсаткомВ</title>
<polygon fill="none" stroke="black" points="1275.19,-524.562 1207.11,-537 1139.04,-524.562 1139.1,-504.438 1275.12,-504.438 1275.19,-524.562"/>
<text text-anchor="middle" x="1207.11" y="-515.3" font-family="Times New Roman,serif" font-size="14.00">ИнсаткомВ</text>
</g>
<!-- ИнсаткомВ&#45;&gt;Ростелеком -->
<g id="edge38" class="edge"><title>ИнсаткомВ&#45;&gt;Ростелеком</title>
<path fill="none" stroke="black" d="M1254.84,-532.214C1282.61,-540.068 1317.9,-550.05 1346.62,-558.172"/>
<ellipse fill="black" stroke="black" cx="1250.6" cy="-531.016" rx="4.00001" ry="4.00001"/>
<polygon fill="black" stroke="black" points="1345.91,-561.608 1356.48,-560.961 1347.81,-554.872 1345.91,-561.608"/>
</g>
<!-- Магистраль&#45;&gt;Унико -->
<g id="edge39" class="edge"><title>Магистраль&#45;&gt;Унико</title>
<path fill="none" stroke="black" d="M417.642,-713.701C438.089,-723.339 464.965,-735.081 489.754,-743 567.688,-767.896 593.366,-752.008 669.871,-781 707.62,-795.305 747.396,-819.076 774.026,-836.429"/>
<ellipse fill="black" stroke="black" cx="414.026" cy="-711.977" rx="4.00002" ry="4.00002"/>
<polygon fill="black" stroke="black" points="772.257,-839.455 782.531,-842.045 776.114,-833.614 772.257,-839.455"/>
</g>
<!-- Магистраль&#45;&gt;ЮТК -->
<g id="edge54" class="edge"><title>Магистраль&#45;&gt;ЮТК</title>
<path fill="none" stroke="black" stroke-dasharray="1,5" d="M462.101,-690.425C471.415,-689.838 480.793,-689.339 489.754,-689 569.749,-685.977 601.034,-648.136 669.871,-689 698.603,-706.056 677.139,-737.944 705.871,-755 782.739,-800.631 819.112,-771.314 907.002,-755 997.752,-738.155 1096.5,-694.845 1154.77,-666.447"/>
<ellipse fill="none" stroke="black" cx="457.938" cy="-690.699" rx="4" ry="4"/>
<ellipse fill="none" stroke="black" cx="1158.43" cy="-664.65" rx="4.00002" ry="4.00002"/>
</g>
<!-- Магистраль&#45;&gt;Powernet -->
<g id="edge53" class="edge"><title>Магистраль&#45;&gt;Powernet</title>
<path fill="none" stroke="black" stroke-dasharray="1,5" d="M457.525,-704.167C476.828,-706.051 497.467,-708.064 516.146,-709.886"/>
<ellipse fill="none" stroke="black" cx="453.431" cy="-703.768" rx="4" ry="4"/>
<ellipse fill="none" stroke="black" cx="520.318" cy="-710.293" rx="4" ry="4"/>
</g>
<!-- Магистраль&#45;&gt;Евротелеком -->
<g id="edge55" class="edge"><title>Магистраль&#45;&gt;Евротелеком</title>
<path fill="none" stroke="black" stroke-dasharray="1,5" d="M385.502,-674.046C391.819,-580.562 419.889,-229.608 489.754,-148 497.307,-139.178 507.478,-132.788 518.247,-128.16"/>
<ellipse fill="none" stroke="black" cx="385.222" cy="-678.281" rx="4" ry="4"/>
<ellipse fill="none" stroke="black" cx="522.046" cy="-126.68" rx="4.00001" ry="4.00001"/>
</g>
<!-- ФорумNet -->
<g id="node41" class="node"><title>ФорумNet</title>
<polygon fill="none" stroke="black" points="641.532,-959.562 579.813,-972 518.093,-959.562 518.15,-939.438 641.475,-939.438 641.532,-959.562"/>
<text text-anchor="middle" x="579.813" y="-950.3" font-family="Times New Roman,serif" font-size="14.00">ФорумNet</text>
</g>
<!-- ФорумNet&#45;&gt;Унико -->
<g id="edge41" class="edge"><title>ФорумNet&#45;&gt;Унико</title>
<path fill="none" stroke="black" d="M642.344,-936.9C651.661,-933.865 661.089,-930.534 669.871,-927 705.594,-912.625 744.602,-892.241 771.564,-877.356"/>
<ellipse fill="black" stroke="black" cx="638.371" cy="-938.165" rx="4.00001" ry="4.00001"/>
<polygon fill="black" stroke="black" points="773.539,-880.263 780.573,-872.34 770.134,-874.147 773.539,-880.263"/>
</g>
<!-- ByteS -->
<g id="node42" class="node"><title>ByteS</title>
<polygon fill="none" stroke="black" points="620.151,-905.562 579.813,-918 539.475,-905.562 539.512,-885.438 620.113,-885.438 620.151,-905.562"/>
<text text-anchor="middle" x="579.813" y="-896.3" font-family="Times New Roman,serif" font-size="14.00">ByteS</text>
</g>
<!-- ByteS&#45;&gt;Унико -->
<g id="edge42" class="edge"><title>ByteS&#45;&gt;Унико</title>
<path fill="none" stroke="black" d="M628.253,-891.13C667.701,-883.754 723.397,-873.34 761.762,-866.166"/>
<ellipse fill="black" stroke="black" cx="624.128" cy="-891.901" rx="4.00001" ry="4.00001"/>
<polygon fill="black" stroke="black" points="762.422,-869.604 771.608,-864.325 761.135,-862.723 762.422,-869.604"/>
</g>
<!-- АвантекПлюс -->
<g id="node43" class="node"><title>АвантекПлюс</title>
<polygon fill="none" stroke="black" points="659.38,-813.562 579.813,-826 500.245,-813.562 500.319,-793.438 659.306,-793.438 659.38,-813.562"/>
<text text-anchor="middle" x="579.813" y="-804.3" font-family="Times New Roman,serif" font-size="14.00">АвантекПлюс</text>
</g>
<!-- АвантекПлюс&#45;&gt;Унико -->
<g id="edge43" class="edge"><title>АвантекПлюс&#45;&gt;Унико</title>
<path fill="none" stroke="black" d="M635.994,-820.283C675.006,-828.967 726.553,-840.441 762.506,-848.444"/>
<ellipse fill="black" stroke="black" cx="632.08" cy="-819.412" rx="4.00001" ry="4.00001"/>
<polygon fill="black" stroke="black" points="762.148,-851.95 772.67,-850.706 763.669,-845.117 762.148,-851.95"/>
</g>
<!-- Robor -->
<g id="node44" class="node"><title>Robor</title>
<polygon fill="none" stroke="black" points="1249.77,-176.562 1207.11,-189 1164.45,-176.562 1164.49,-156.438 1249.73,-156.438 1249.77,-176.562"/>
<text text-anchor="middle" x="1207.11" y="-167.3" font-family="Times New Roman,serif" font-size="14.00">Robor</text>
</g>
<!-- Robor&#45;&gt;Транстелеком -->
<g id="edge44" class="edge"><title>Robor&#45;&gt;Транстелеком</title>
<path fill="none" stroke="black" d="M1249.36,-180.937C1275.6,-187.259 1310.02,-195.55 1339.23,-202.589"/>
<ellipse fill="black" stroke="black" cx="1245.26" cy="-179.949" rx="4.00001" ry="4.00001"/>
<polygon fill="black" stroke="black" points="1338.79,-206.081 1349.33,-205.021 1340.43,-199.276 1338.79,-206.081"/>
</g>
<!-- ВистОнЛайн -->
<g id="node45" class="node"><title>ВистОнЛайн</title>
<polygon fill="none" stroke="black" points="655.954,-1067.56 579.813,-1080 503.671,-1067.56 503.742,-1047.44 655.883,-1047.44 655.954,-1067.56"/>
<text text-anchor="middle" x="579.813" y="-1058.3" font-family="Times New Roman,serif" font-size="14.00">ВистОнЛайн</text>
</g>
<!-- ВистОнЛайн&#45;&gt;Унико -->
<g id="edge46" class="edge"><title>ВистОнЛайн&#45;&gt;Унико</title>
<path fill="none" stroke="black" d="M653.982,-1044.03C659.567,-1041.41 664.94,-1038.42 669.871,-1035 727.071,-995.38 770.786,-924.125 791.749,-885.2"/>
<ellipse fill="black" stroke="black" cx="649.929" cy="-1045.79" rx="4.00001" ry="4.00001"/>
<polygon fill="black" stroke="black" points="795.011,-886.517 796.582,-876.039 788.82,-883.25 795.011,-886.517"/>
</g>
</g>
</svg>
