<?xml version="1.0" encoding="UTF-8" standalone="no"?>
<!DOCTYPE svg PUBLIC "-//W3C//DTD SVG 1.1//EN"
 "http://www.w3.org/Graphics/SVG/1.1/DTD/svg11.dtd">
<!-- Generated by graphviz version 2.38.0 (20140413.2041)
 -->
<!-- Title: ispgraph Pages: 1 -->
<svg width="1463pt" height="1351pt"
 viewBox="0.00 0.00 1462.80 1350.64" xmlns="http://www.w3.org/2000/svg" xmlns:xlink="http://www.w3.org/1999/xlink">
<g id="graph0" class="graph" transform="scale(1 1) rotate(0) translate(4 1346.64)">
<title>ispgraph</title>
<polygon fill="white" stroke="none" points="-4,4 -4,-1346.64 1458.8,-1346.64 1458.8,4 -4,4"/>
<!-- Унико -->
<g id="node1" class="node"><title>Унико</title>
<polygon fill="none" stroke="black" points="827.442,-910.641 806.415,-928.641 764.36,-928.641 743.332,-910.641 764.36,-892.641 806.415,-892.641 827.442,-910.641"/>
<text text-anchor="middle" x="785.387" y="-906.941" font-family="Times New Roman,serif" font-size="14.00">Унико</text>
</g>
<!-- ЭрТелеком -->
<g id="node3" class="node"><title>ЭрТелеком</title>
<polygon fill="none" stroke="black" points="1068.91,-679.641 1032.17,-710.695 958.703,-710.695 921.968,-679.641 958.703,-648.587 1032.17,-648.587 1068.91,-679.641"/>
<text text-anchor="middle" x="995.437" y="-683.441" font-family="Times New Roman,serif" font-size="14.00">ЭР&#45;Телеком</text>
<text text-anchor="middle" x="995.437" y="-668.441" font-family="Times New Roman,serif" font-size="14.00">транзит</text>
</g>
<!-- Унико&#45;&gt;ЭрТелеком -->
<g id="edge51" class="edge"><title>Унико&#45;&gt;ЭрТелеком</title>
<path fill="none" stroke="black" stroke-dasharray="1,5" d="M807.596,-885.927C827.972,-862.036 859.482,-824.7 885.953,-791.641 902.399,-771.102 904.081,-763.953 921.953,-744.641 931.08,-734.779 941.529,-724.773 951.598,-715.665"/>
<ellipse fill="none" stroke="black" cx="804.756" cy="-889.253" rx="4.00002" ry="4.00002"/>
<ellipse fill="none" stroke="black" cx="954.821" cy="-712.784" rx="4.00002" ry="4.00002"/>
</g>
<!-- Ростелеком -->
<g id="node10" class="node"><title>Ростелеком</title>
<polygon fill="none" stroke="black" points="1444.09,-1080.64 1411.55,-1098.64 1346.46,-1098.64 1313.92,-1080.64 1346.46,-1062.64 1411.55,-1062.64 1444.09,-1080.64"/>
<text text-anchor="middle" x="1379" y="-1076.94" font-family="Times New Roman,serif" font-size="14.00">Ростелеком</text>
</g>
<!-- Унико&#45;&gt;Ростелеком -->
<g id="edge15" class="edge"><title>Унико&#45;&gt;Ростелеком</title>
<path fill="none" stroke="black" d="M818.735,-918.427C871.388,-931.227 978.808,-957.877 1068.92,-983.641 1160.87,-1009.93 1267.03,-1044.09 1327.95,-1064.07"/>
<polygon fill="black" stroke="black" points="1327.11,-1067.47 1337.7,-1067.27 1329.29,-1060.82 1327.11,-1067.47"/>
</g>
<!-- RETN -->
<g id="node19" class="node"><title>RETN</title>
<polygon fill="none" stroke="black" points="1034.99,-1010.64 1015.21,-1028.64 975.661,-1028.64 955.884,-1010.64 975.661,-992.641 1015.21,-992.641 1034.99,-1010.64"/>
<text text-anchor="middle" x="995.437" y="-1006.94" font-family="Times New Roman,serif" font-size="14.00">RETN</text>
</g>
<!-- Унико&#45;&gt;RETN -->
<g id="edge16" class="edge"><title>Унико&#45;&gt;RETN</title>
<path fill="none" stroke="black" d="M812.737,-923.306C850.067,-941.249 918.403,-974.095 959.797,-993.991"/>
<polygon fill="black" stroke="black" points="958.423,-997.214 968.952,-998.392 961.456,-990.905 958.423,-997.214"/>
</g>
<!-- ДомРу -->
<g id="node2" class="node"><title>ДомРу</title>
<polygon fill="none" stroke="black" points="839.458,-764.641 812.422,-782.641 758.352,-782.641 731.317,-764.641 758.352,-746.641 812.422,-746.641 839.458,-764.641"/>
<text text-anchor="middle" x="785.387" y="-760.941" font-family="Times New Roman,serif" font-size="14.00">ДОМ.RU</text>
</g>
<!-- ДомРу&#45;&gt;ЭрТелеком -->
<g id="edge29" class="edge"><title>ДомРу&#45;&gt;ЭрТелеком</title>
<path fill="none" stroke="black" d="M831.45,-751.661C848.696,-746.304 868.425,-739.697 885.953,-732.641 904,-725.376 923.221,-716.412 940.392,-707.937"/>
<ellipse fill="none" stroke="black" cx="827.543" cy="-752.859" rx="4.00001" ry="4.00001"/>
<polygon fill="black" stroke="black" points="942.315,-710.889 949.7,-703.292 939.19,-704.625 942.315,-710.889"/>
</g>
<!-- ЮТК -->
<g id="node15" class="node"><title>ЮТК</title>
<polygon fill="none" stroke="black" points="1257.13,-748.641 1221.6,-779.695 1150.53,-779.695 1114.99,-748.641 1150.53,-717.587 1221.6,-717.587 1257.13,-748.641"/>
<text text-anchor="middle" x="1186.06" y="-752.441" font-family="Times New Roman,serif" font-size="14.00">Ростелеком</text>
<text text-anchor="middle" x="1186.06" y="-737.441" font-family="Times New Roman,serif" font-size="14.00">Волгоград</text>
</g>
<!-- ЭрТелеком&#45;&gt;ЮТК -->
<g id="edge55" class="edge"><title>ЭрТелеком&#45;&gt;ЮТК</title>
<path fill="none" stroke="black" stroke-dasharray="1,5" d="M1055,-701.065C1078.23,-709.561 1104.84,-719.297 1127.93,-727.74"/>
<ellipse fill="none" stroke="black" cx="1051.24" cy="-699.688" rx="4.00001" ry="4.00001"/>
<ellipse fill="none" stroke="black" cx="1131.85" cy="-729.176" rx="4.00001" ry="4.00001"/>
</g>
<!-- Связьинформ -->
<g id="node27" class="node"><title>Связьинформ</title>
<polygon fill="none" stroke="black" points="1267.34,-278.204 1186.06,-290.641 1104.78,-278.204 1104.86,-258.079 1267.27,-258.079 1267.34,-278.204"/>
<text text-anchor="middle" x="1186.06" y="-268.941" font-family="Times New Roman,serif" font-size="14.00">Связьинформ</text>
</g>
<!-- ЭрТелеком&#45;&gt;Связьинформ -->
<g id="edge56" class="edge"><title>ЭрТелеком&#45;&gt;Связьинформ</title>
<path fill="none" stroke="black" stroke-dasharray="1,5" d="M1036.75,-642.519C1048.29,-630.345 1060.12,-616.185 1068.92,-601.641 1131.55,-498.119 1167.15,-355.849 1179.78,-298.322"/>
<ellipse fill="none" stroke="black" cx="1033.9" cy="-645.457" rx="4.00002" ry="4.00002"/>
<ellipse fill="none" stroke="black" cx="1180.69" cy="-294.059" rx="4.00001" ry="4.00001"/>
</g>
<!-- Транстелеком -->
<g id="node4" class="node"><title>Транстелеком</title>
<polygon fill="none" stroke="black" points="1454.6,-189.641 1416.8,-207.641 1341.2,-207.641 1303.4,-189.641 1341.2,-171.641 1416.8,-171.641 1454.6,-189.641"/>
<text text-anchor="middle" x="1379" y="-185.941" font-family="Times New Roman,serif" font-size="14.00">Транстелеком</text>
</g>
<!-- Волгатранстелеком -->
<g id="node5" class="node"><title>Волгатранстелеком</title>
<polygon fill="none" stroke="black" points="886.018,-580.641 835.703,-598.641 735.072,-598.641 684.756,-580.641 735.072,-562.641 835.703,-562.641 886.018,-580.641"/>
<text text-anchor="middle" x="785.387" y="-576.941" font-family="Times New Roman,serif" font-size="14.00">Волгатранстелеком</text>
</g>
<!-- Волгатранстелеком&#45;&gt;ЭрТелеком -->
<g id="edge53" class="edge"><title>Волгатранстелеком&#45;&gt;ЭрТелеком</title>
<path fill="none" stroke="black" stroke-dasharray="1,5" d="M850.642,-598.76C862.578,-602.834 874.795,-607.495 885.953,-612.641 887.644,-613.421 917.544,-631.901 945.524,-649.254"/>
<ellipse fill="none" stroke="black" cx="846.648" cy="-597.432" rx="4.00001" ry="4.00001"/>
<ellipse fill="none" stroke="black" cx="949.178" cy="-651.521" rx="4.00002" ry="4.00002"/>
</g>
<!-- Волгатранстелеком&#45;&gt;Транстелеком -->
<g id="edge28" class="edge"><title>Волгатранстелеком&#45;&gt;Транстелеком</title>
<path fill="none" stroke="black" d="M856.294,-564.775C866.433,-561.59 876.596,-557.89 885.953,-553.641 1071.34,-469.458 1109.49,-428.416 1267.2,-299.641 1299.65,-273.149 1333.3,-238.558 1354.87,-215.3"/>
<ellipse fill="none" stroke="black" cx="852.388" cy="-565.954" rx="4.00001" ry="4.00001"/>
<polygon fill="black" stroke="black" points="1357.51,-217.602 1361.71,-207.875 1352.36,-212.862 1357.51,-217.602"/>
</g>
<!-- Волгатранстелеком&#45;&gt;ЮТК -->
<g id="edge52" class="edge"><title>Волгатранстелеком&#45;&gt;ЮТК</title>
<path fill="none" stroke="black" stroke-dasharray="1,5" d="M865.531,-592.256C936.332,-603.53 1034.15,-621.546 1068.92,-639.641 1102.47,-657.099 1133.33,-687.018 1154.79,-711.098"/>
<ellipse fill="none" stroke="black" cx="861.421" cy="-591.607" rx="4.00001" ry="4.00001"/>
<ellipse fill="none" stroke="black" cx="1157.67" cy="-714.392" rx="4.00002" ry="4.00002"/>
</g>
<!-- Orange -->
<g id="node16" class="node"><title>Orange</title>
<polygon fill="none" stroke="black" points="1037.99,-574.641 1016.72,-592.641 974.159,-592.641 952.881,-574.641 974.159,-556.641 1016.72,-556.641 1037.99,-574.641"/>
<text text-anchor="middle" x="995.437" y="-570.941" font-family="Times New Roman,serif" font-size="14.00">Orange</text>
</g>
<!-- Волгатранстелеком&#45;&gt;Orange -->
<g id="edge54" class="edge"><title>Волгатранстелеком&#45;&gt;Orange</title>
<path fill="none" stroke="black" stroke-dasharray="1,5" d="M886.912,-577.742C907.376,-577.152 928.02,-576.557 945.673,-576.048"/>
<ellipse fill="none" stroke="black" cx="882.851" cy="-577.859" rx="4" ry="4"/>
<ellipse fill="none" stroke="black" cx="950.087" cy="-575.92" rx="4" ry="4"/>
</g>
<!-- Релком -->
<g id="node6" class="node"><title>Релком</title>
<polygon fill="none" stroke="black" points="183.741,-749.641 160.96,-767.641 115.4,-767.641 92.6195,-749.641 115.4,-731.641 160.96,-731.641 183.741,-749.641"/>
<text text-anchor="middle" x="138.18" y="-745.941" font-family="Times New Roman,serif" font-size="14.00">Релком</text>
</g>
<!-- Мегафон -->
<g id="node7" class="node"><title>Мегафон</title>
<polygon fill="none" stroke="black" points="1048.51,-349.641 1021.97,-367.641 968.902,-367.641 942.367,-349.641 968.902,-331.641 1021.97,-331.641 1048.51,-349.641"/>
<text text-anchor="middle" x="995.437" y="-345.941" font-family="Times New Roman,serif" font-size="14.00">Мегафон</text>
</g>
<!-- Вымпелком -->
<g id="node8" class="node"><title>Вымпелком</title>
<polygon fill="none" stroke="black" points="1040.5,-131.641 1017.97,-149.641 972.908,-149.641 950.379,-131.641 972.908,-113.641 1017.97,-113.641 1040.5,-131.641"/>
<text text-anchor="middle" x="995.437" y="-127.941" font-family="Times New Roman,serif" font-size="14.00">Билайн</text>
</g>
<!-- КоламбияТелеком -->
<g id="node9" class="node"><title>КоламбияТелеком</title>
<polygon fill="none" stroke="black" points="881.512,-672.641 833.45,-690.641 737.325,-690.641 689.262,-672.641 737.325,-654.641 833.45,-654.641 881.512,-672.641"/>
<text text-anchor="middle" x="785.387" y="-668.941" font-family="Times New Roman,serif" font-size="14.00">КоламбияТелеком</text>
</g>
<!-- КоламбияТелеком&#45;&gt;ЭрТелеком -->
<g id="edge30" class="edge"><title>КоламбияТелеком&#45;&gt;ЭрТелеком</title>
<path fill="none" stroke="black" d="M881.728,-675.849C892.699,-676.218 903.801,-676.592 914.539,-676.953"/>
<ellipse fill="none" stroke="black" cx="877.713" cy="-675.714" rx="4" ry="4"/>
<polygon fill="black" stroke="black" points="914.595,-680.457 924.707,-677.295 914.83,-673.461 914.595,-680.457"/>
</g>
<!-- HE -->
<g id="node11" class="node"><title>HE</title>
<polygon fill="none" stroke="black" points="812.387,-326.641 798.887,-344.641 771.887,-344.641 758.387,-326.641 771.887,-308.641 798.887,-308.641 812.387,-326.641"/>
<text text-anchor="middle" x="785.387" y="-322.941" font-family="Times New Roman,serif" font-size="14.00">HE</text>
</g>
<!-- КвантТелеком -->
<g id="node12" class="node"><title>КвантТелеком</title>
<polygon fill="none" stroke="black" points="216.282,-803.641 177.231,-821.641 99.1293,-821.641 60.0784,-803.641 99.1293,-785.641 177.231,-785.641 216.282,-803.641"/>
<text text-anchor="middle" x="138.18" y="-799.941" font-family="Times New Roman,serif" font-size="14.00">КвантТелеком</text>
</g>
<!-- Tele2 -->
<g id="node13" class="node"><title>Tele2</title>
<polygon fill="none" stroke="black" points="820.435,-1064.64 802.911,-1082.64 767.864,-1082.64 750.34,-1064.64 767.864,-1046.64 802.911,-1046.64 820.435,-1064.64"/>
<text text-anchor="middle" x="785.387" y="-1060.94" font-family="Times New Roman,serif" font-size="14.00">Tele2</text>
</g>
<!-- Tele2&#45;&gt;RETN -->
<g id="edge2" class="edge"><title>Tele2&#45;&gt;RETN</title>
<path fill="none" stroke="black" d="M813.586,-1057.58C849.506,-1048.26 913.038,-1031.77 954.435,-1021.02"/>
<polygon fill="black" stroke="black" points="955.396,-1024.39 964.196,-1018.49 953.637,-1017.62 955.396,-1024.39"/>
</g>
<!-- МТС -->
<g id="node14" class="node"><title>МТС</title>
<polygon fill="none" stroke="black" points="173.228,-857.641 155.704,-875.641 120.656,-875.641 103.133,-857.641 120.656,-839.641 155.704,-839.641 173.228,-857.641"/>
<text text-anchor="middle" x="138.18" y="-853.941" font-family="Times New Roman,serif" font-size="14.00">МТС</text>
</g>
<!-- ЮТК&#45;&gt;Ростелеком -->
<g id="edge27" class="edge"><title>ЮТК&#45;&gt;Ростелеком</title>
<path fill="none" stroke="black" d="M1209.1,-786.957C1248.16,-854.879 1328.62,-994.77 1362.46,-1053.62"/>
<ellipse fill="none" stroke="black" cx="1207.02" cy="-783.342" rx="4.00002" ry="4.00002"/>
<polygon fill="black" stroke="black" points="1359.46,-1055.42 1367.48,-1062.34 1365.53,-1051.93 1359.46,-1055.42"/>
</g>
<!-- ПросторТелеком -->
<g id="node17" class="node"><title>ПросторТелеком</title>
<polygon fill="none" stroke="black" points="875.505,-110.641 830.446,-128.641 740.329,-128.641 695.27,-110.641 740.329,-92.6412 830.446,-92.6412 875.505,-110.641"/>
<text text-anchor="middle" x="785.387" y="-106.941" font-family="Times New Roman,serif" font-size="14.00">ПросторТелеком</text>
</g>
<!-- ПросторТелеком&#45;&gt;Мегафон -->
<g id="edge18" class="edge"><title>ПросторТелеком&#45;&gt;Мегафон</title>
<path fill="none" stroke="black" d="M852.01,-120.1C864.188,-124.069 876.145,-129.689 885.953,-137.641 945.689,-186.077 975.891,-276.052 987.94,-321.629"/>
<polygon fill="black" stroke="black" points="984.576,-322.601 990.431,-331.431 991.36,-320.877 984.576,-322.601"/>
</g>
<!-- ПросторТелеком&#45;&gt;Вымпелком -->
<g id="edge17" class="edge"><title>ПросторТелеком&#45;&gt;Вымпелком</title>
<path fill="none" stroke="black" d="M857.695,-117.839C886.46,-120.742 918.941,-124.021 945.027,-126.654"/>
<polygon fill="black" stroke="black" points="944.752,-130.144 955.053,-127.666 945.455,-123.179 944.752,-130.144"/>
</g>
<!-- WestCall -->
<g id="node18" class="node"><title>WestCall</title>
<polygon fill="none" stroke="black" points="189.247,-911.641 163.713,-929.641 112.647,-929.641 87.1136,-911.641 112.647,-893.641 163.713,-893.641 189.247,-911.641"/>
<text text-anchor="middle" x="138.18" y="-907.941" font-family="Times New Roman,serif" font-size="14.00">WestCall</text>
</g>
<!-- ГородокТочкаРу -->
<g id="node20" class="node"><title>ГородокТочкаРу</title>
<polygon fill="none" stroke="black" points="640.182,-1062.2 569.288,-1074.64 498.394,-1062.2 498.46,-1042.08 640.116,-1042.08 640.182,-1062.2"/>
<text text-anchor="middle" x="569.288" y="-1052.94" font-family="Times New Roman,serif" font-size="14.00">Городок.Ру</text>
</g>
<!-- ГородокТочкаРу&#45;&gt;Унико -->
<g id="edge36" class="edge"><title>ГородокТочкаРу&#45;&gt;Унико</title>
<path fill="none" stroke="black" d="M629.952,-1038.91C636.486,-1036.16 642.906,-1033.07 648.822,-1029.64 692.951,-1004.03 735.817,-962.825 761.155,-936.242"/>
<ellipse fill="black" stroke="black" cx="625.967" cy="-1040.51" rx="4.00001" ry="4.00001"/>
<polygon fill="black" stroke="black" points="763.829,-938.508 768.131,-928.827 758.73,-933.712 763.829,-938.508"/>
</g>
<!-- СМАРТС -->
<g id="node21" class="node"><title>СМАРТС</title>
<polygon fill="none" stroke="black" points="639.133,-1173.97 569.288,-1197.07 499.443,-1173.97 499.508,-1136.6 639.068,-1136.6 639.133,-1173.97"/>
<text text-anchor="middle" x="569.288" y="-1167.44" font-family="Times New Roman,serif" font-size="14.00">Tele2</text>
<text text-anchor="middle" x="569.288" y="-1152.44" font-family="Times New Roman,serif" font-size="14.00">Волгоград</text>
</g>
<!-- СМАРТС&#45;&gt;Tele2 -->
<g id="edge32" class="edge"><title>СМАРТС&#45;&gt;Tele2</title>
<path fill="none" stroke="black" d="M636.299,-1133.12C674.491,-1115.46 720.895,-1094 751.461,-1079.87"/>
<ellipse fill="none" stroke="black" cx="632.422" cy="-1134.91" rx="4.00002" ry="4.00002"/>
<polygon fill="black" stroke="black" points="753.191,-1082.92 760.798,-1075.55 750.253,-1076.57 753.191,-1082.92"/>
</g>
<!-- STARLINE -->
<g id="node22" class="node"><title>STARLINE</title>
<polygon fill="none" stroke="black" points="205.647,-971.204 138.18,-983.641 70.7135,-971.204 70.7765,-951.079 205.584,-951.079 205.647,-971.204"/>
<text text-anchor="middle" x="138.18" y="-961.941" font-family="Times New Roman,serif" font-size="14.00">STARLINE</text>
</g>
<!-- VSSA -->
<g id="node23" class="node"><title>VSSA</title>
<polygon fill="none" stroke="black" points="180.838,-1025.2 138.18,-1037.64 95.5225,-1025.2 95.5623,-1005.08 180.798,-1005.08 180.838,-1025.2"/>
<text text-anchor="middle" x="138.18" y="-1015.94" font-family="Times New Roman,serif" font-size="14.00">VSSA</text>
</g>
<!-- ИнформационныйСервис -->
<g id="node24" class="node"><title>ИнформационныйСервис</title>
<polygon fill="none" stroke="black" points="276.541,-1079.2 138.18,-1091.64 -0.180374,-1079.2 -0.0512311,-1059.08 276.412,-1059.08 276.541,-1079.2"/>
<text text-anchor="middle" x="138.18" y="-1069.94" font-family="Times New Roman,serif" font-size="14.00">ИнформационныйСервис</text>
</g>
<!-- SmIT34 -->
<g id="node25" class="node"><title>SmIT34</title>
<polygon fill="none" stroke="black" points="187.799,-1133.2 138.18,-1145.64 88.5612,-1133.2 88.6075,-1113.08 187.753,-1113.08 187.799,-1133.2"/>
<text text-anchor="middle" x="138.18" y="-1123.94" font-family="Times New Roman,serif" font-size="14.00">SmIT34</text>
</g>
<!-- WMAX -->
<g id="node26" class="node"><title>WMAX</title>
<polygon fill="none" stroke="black" points="187.799,-1187.2 138.18,-1199.64 88.5612,-1187.2 88.6075,-1167.08 187.753,-1167.08 187.799,-1187.2"/>
<text text-anchor="middle" x="138.18" y="-1177.94" font-family="Times New Roman,serif" font-size="14.00">WMAX</text>
</g>
<!-- Связьинформ&#45;&gt;Унико -->
<g id="edge23" class="edge"><title>Связьинформ&#45;&gt;Унико</title>
<path fill="none" stroke="black" d="M1184.52,-298.973C1181.77,-372.422 1165.42,-583.106 1068.92,-719.641 1005.51,-809.366 885.566,-869.374 824.373,-895.6"/>
<ellipse fill="none" stroke="black" cx="1184.66" cy="-294.708" rx="4" ry="4"/>
<polygon fill="black" stroke="black" points="822.93,-892.41 815.074,-899.519 825.649,-898.861 822.93,-892.41"/>
</g>
<!-- Связьинформ&#45;&gt;Транстелеком -->
<g id="edge1" class="edge"><title>Связьинформ&#45;&gt;Транстелеком</title>
<path fill="none" stroke="black" d="M1220.76,-257.994C1250.9,-244.892 1295.44,-225.532 1329.43,-210.757"/>
<polygon fill="black" stroke="black" points="1330.94,-213.917 1338.71,-206.721 1328.14,-207.498 1330.94,-213.917"/>
</g>
<!-- СпринтСеть -->
<g id="node28" class="node"><title>СпринтСеть</title>
<polygon fill="none" stroke="black" points="858.601,-170.204 785.387,-182.641 712.173,-170.204 712.242,-150.079 858.533,-150.079 858.601,-170.204"/>
<text text-anchor="middle" x="785.387" y="-160.941" font-family="Times New Roman,serif" font-size="14.00">СпринтСеть</text>
</g>
<!-- СпринтСеть&#45;&gt;Мегафон -->
<g id="edge4" class="edge"><title>СпринтСеть&#45;&gt;Мегафон</title>
<path fill="none" stroke="black" d="M843.432,-172.828C858.21,-176.828 873.463,-182.782 885.953,-191.641 933.459,-225.339 966.719,-286.824 983.004,-322.342"/>
<polygon fill="black" stroke="black" points="979.876,-323.919 987.145,-331.626 986.269,-321.068 979.876,-323.919"/>
</g>
<!-- СпринтСеть&#45;&gt;Вымпелком -->
<g id="edge3" class="edge"><title>СпринтСеть&#45;&gt;Вымпелком</title>
<path fill="none" stroke="black" d="M858.569,-153.192C887.994,-148.525 921.181,-143.261 947.39,-139.104"/>
<polygon fill="black" stroke="black" points="948.105,-142.534 957.433,-137.511 947.008,-135.621 948.105,-142.534"/>
</g>
<!-- СпринтСеть&#45;&gt;Связьинформ -->
<g id="edge42" class="edge"><title>СпринтСеть&#45;&gt;Связьинформ</title>
<path fill="none" stroke="black" stroke-dasharray="1,5" d="M835.092,-177.835C907.539,-197.461 1043.66,-234.335 1123.1,-255.856"/>
<ellipse fill="none" stroke="black" cx="831.04" cy="-176.738" rx="4.00001" ry="4.00001"/>
<ellipse fill="none" stroke="black" cx="1127.22" cy="-256.972" rx="4.00001" ry="4.00001"/>
</g>
<!-- Экспилайн -->
<g id="node29" class="node"><title>Экспилайн</title>
<polygon fill="none" stroke="black" points="852.248,-278.204 785.387,-290.641 718.527,-278.204 718.589,-258.079 852.185,-258.079 852.248,-278.204"/>
<text text-anchor="middle" x="785.387" y="-268.941" font-family="Times New Roman,serif" font-size="14.00">Экспилайн</text>
</g>
<!-- Экспилайн&#45;&gt;Мегафон -->
<g id="edge5" class="edge"><title>Экспилайн&#45;&gt;Мегафон</title>
<path fill="none" stroke="black" d="M829.022,-282.533C846.829,-287.094 867.603,-292.978 885.953,-299.641 909.618,-308.235 935.236,-319.923 955.632,-329.838"/>
<polygon fill="black" stroke="black" points="954.092,-332.981 964.61,-334.251 957.18,-326.699 954.092,-332.981"/>
</g>
<!-- Экспилайн&#45;&gt;Связьинформ -->
<g id="edge44" class="edge"><title>Экспилайн&#45;&gt;Связьинформ</title>
<path fill="none" stroke="black" stroke-dasharray="1,5" d="M860.51,-272.641C927.33,-272.641 1025.69,-272.641 1096.6,-272.641"/>
<ellipse fill="none" stroke="black" cx="856.22" cy="-272.641" rx="4" ry="4"/>
<ellipse fill="none" stroke="black" cx="1100.68" cy="-272.641" rx="4" ry="4"/>
</g>
<!-- ЭРОС -->
<g id="node30" class="node"><title>ЭРОС</title>
<polygon fill="none" stroke="black" points="613.66,-459.204 569.288,-471.641 524.916,-459.204 524.957,-439.079 613.618,-439.079 613.66,-459.204"/>
<text text-anchor="middle" x="569.288" y="-449.941" font-family="Times New Roman,serif" font-size="14.00">ЭРОС</text>
</g>
<!-- ЭРОС&#45;&gt;Волгатранстелеком -->
<g id="edge6" class="edge"><title>ЭРОС&#45;&gt;Волгатранстелеком</title>
<path fill="none" stroke="black" d="M582.847,-468.196C602.443,-489.995 642.461,-530.977 684.822,-553.641 692.882,-557.954 701.685,-561.62 710.616,-564.726"/>
<polygon fill="black" stroke="black" points="709.735,-568.12 720.327,-567.88 711.898,-561.462 709.735,-568.12"/>
</g>
<!-- ЭРОС&#45;&gt;HE -->
<g id="edge7" class="edge"><title>ЭРОС&#45;&gt;HE</title>
<path fill="none" stroke="black" d="M583.172,-438.725C602.883,-416.837 642.694,-376.181 684.822,-353.641 705.397,-342.633 730.818,-335.836 750.824,-331.816"/>
<polygon fill="black" stroke="black" points="751.553,-335.24 760.738,-329.958 750.264,-328.36 751.553,-335.24"/>
</g>
<!-- Comrise -->
<g id="node31" class="node"><title>Comrise</title>
<polygon fill="none" stroke="black" points="434.389,-847.204 383.057,-859.641 331.725,-847.204 331.773,-827.079 434.341,-827.079 434.389,-847.204"/>
<text text-anchor="middle" x="383.057" y="-837.941" font-family="Times New Roman,serif" font-size="14.00">Comrise</text>
</g>
<!-- Comrise&#45;&gt;Унико -->
<g id="edge45" class="edge"><title>Comrise&#45;&gt;Унико</title>
<path fill="none" stroke="black" stroke-dasharray="1,5" d="M399.948,-863.545C418.462,-887.001 451.45,-922.843 489.754,-937.641 577.617,-971.587 690.782,-943.048 747.918,-924.123"/>
<ellipse fill="none" stroke="black" cx="397.339" cy="-860.161" rx="4.00002" ry="4.00002"/>
<ellipse fill="none" stroke="black" cx="751.811" cy="-922.806" rx="4.00001" ry="4.00001"/>
</g>
<!-- Comrise&#45;&gt;Вымпелком -->
<g id="edge9" class="edge"><title>Comrise&#45;&gt;Вымпелком</title>
<path fill="none" stroke="black" d="M395.461,-826.841C411.436,-805.249 440.052,-763.249 453.754,-722.641 496.124,-597.072 448.184,-552.478 489.754,-426.641 544.764,-260.119 533.23,-171.821 684.822,-83.6412 773.191,-32.2373 898.686,-82.1826 959.164,-112.37"/>
<polygon fill="black" stroke="black" points="957.798,-115.602 968.297,-117.027 960.978,-109.366 957.798,-115.602"/>
</g>
<!-- Comrise&#45;&gt;Ростелеком -->
<g id="edge8" class="edge"><title>Comrise&#45;&gt;Ростелеком</title>
<path fill="none" stroke="black" d="M386.455,-858.973C395.987,-925.148 433.429,-1160.44 489.754,-1205.64 592.092,-1287.77 653.167,-1224.64 784.387,-1224.64 784.387,-1224.64 784.387,-1224.64 996.437,-1224.64 1131.01,-1224.64 1276.08,-1145.27 1341.88,-1104.38"/>
<polygon fill="black" stroke="black" points="1344.03,-1107.16 1350.63,-1098.88 1340.3,-1101.24 1344.03,-1107.16"/>
</g>
<!-- Powernet -->
<g id="node32" class="node"><title>Powernet</title>
<polygon fill="none" stroke="black" points="624.653,-678.204 569.288,-690.641 513.922,-678.204 513.974,-658.079 624.602,-658.079 624.653,-678.204"/>
<text text-anchor="middle" x="569.288" y="-668.941" font-family="Times New Roman,serif" font-size="14.00">Powernet</text>
</g>
<!-- Comrise&#45;&gt;Powernet -->
<g id="edge46" class="edge"><title>Comrise&#45;&gt;Powernet</title>
<path fill="none" stroke="black" stroke-dasharray="1,5" d="M406.244,-821.289C441.817,-788.656 511.194,-725.015 546.508,-692.62"/>
<ellipse fill="none" stroke="black" cx="403.032" cy="-824.235" rx="4.00002" ry="4.00002"/>
<ellipse fill="none" stroke="black" cx="549.742" cy="-689.654" rx="4.00002" ry="4.00002"/>
</g>
<!-- Powernet&#45;&gt;Унико -->
<g id="edge26" class="edge"><title>Powernet&#45;&gt;Унико</title>
<path fill="none" stroke="black" d="M594.682,-692.105C610.831,-705.524 632.044,-724.201 648.822,-742.641 667.008,-762.63 668.143,-770.379 684.822,-791.641 710.513,-824.393 741.468,-860.966 761.97,-884.812"/>
<ellipse fill="none" stroke="black" cx="591.188" cy="-689.233" rx="4.00002" ry="4.00002"/>
<polygon fill="black" stroke="black" points="759.319,-887.098 768.499,-892.387 764.621,-882.528 759.319,-887.098"/>
</g>
<!-- Powernet&#45;&gt;ЭрТелеком -->
<g id="edge47" class="edge"><title>Powernet&#45;&gt;ЭрТелеком</title>
<path fill="none" stroke="black" stroke-dasharray="1,5" d="M612.218,-684.986C633.716,-690.685 660.44,-696.806 684.822,-699.641 773.615,-709.966 796.932,-707.778 885.953,-699.641 899.823,-698.373 914.568,-696.212 928.571,-693.766"/>
<ellipse fill="none" stroke="black" cx="608.112" cy="-683.876" rx="4.00001" ry="4.00001"/>
<ellipse fill="none" stroke="black" cx="932.782" cy="-693.008" rx="4.00001" ry="4.00001"/>
</g>
<!-- Powernet&#45;&gt;Мегафон -->
<g id="edge10" class="edge"><title>Powernet&#45;&gt;Мегафон</title>
<path fill="none" stroke="black" d="M573.059,-657.812C581.558,-616.755 611.282,-500.982 684.822,-445.641 757.512,-390.94 800.153,-437.881 885.953,-407.641 911.394,-398.674 938.14,-384.437 958.709,-372.312"/>
<polygon fill="black" stroke="black" points="960.636,-375.238 967.41,-367.092 957.035,-369.235 960.636,-375.238"/>
</g>
<!-- Евротелеком -->
<g id="node33" class="node"><title>Евротелеком</title>
<polygon fill="none" stroke="black" points="861.529,-24.2035 785.387,-36.6412 709.246,-24.2035 709.317,-4.07892 861.457,-4.07892 861.529,-24.2035"/>
<text text-anchor="middle" x="785.387" y="-14.9412" font-family="Times New Roman,serif" font-size="14.00">Евротелеком</text>
</g>
<!-- Евротелеком&#45;&gt;Транстелеком -->
<g id="edge11" class="edge"><title>Евротелеком&#45;&gt;Транстелеком</title>
<path fill="none" stroke="black" d="M826.123,-30.1265C928.685,-59.7707 1202.57,-138.934 1321.54,-173.32"/>
<polygon fill="black" stroke="black" points="1320.62,-176.698 1331.2,-176.112 1322.56,-169.973 1320.62,-176.698"/>
</g>
<!-- Евротелеком&#45;&gt;Вымпелком -->
<g id="edge12" class="edge"><title>Евротелеком&#45;&gt;Вымпелком</title>
<path fill="none" stroke="black" d="M836.85,-28.2815C853.538,-33.1175 871.513,-40.2438 885.953,-50.6412 907.883,-66.4322 900.88,-82.7237 921.953,-99.6412 931.162,-107.034 942.346,-113.068 953.145,-117.822"/>
<polygon fill="black" stroke="black" points="951.898,-121.093 962.477,-121.672 954.568,-114.623 951.898,-121.093"/>
</g>
<!-- Virgin -->
<g id="node34" class="node"><title>Virgin</title>
<polygon fill="none" stroke="black" points="825.725,-478.204 785.387,-490.641 745.049,-478.204 745.087,-458.079 825.688,-458.079 825.725,-478.204"/>
<text text-anchor="middle" x="785.387" y="-468.941" font-family="Times New Roman,serif" font-size="14.00">Virgin</text>
</g>
<!-- Virgin&#45;&gt;Мегафон -->
<g id="edge13" class="edge"><title>Virgin&#45;&gt;Мегафон</title>
<path fill="none" stroke="black" d="M825.641,-463.798C844.578,-458.605 867.197,-450.997 885.953,-440.641 917.961,-422.969 949.396,-395.114 970.119,-374.874"/>
<polygon fill="black" stroke="black" points="972.619,-377.324 977.25,-367.795 967.687,-372.356 972.619,-377.324"/>
</g>
<!-- Virgin&#45;&gt;Ростелеком -->
<g id="edge14" class="edge"><title>Virgin&#45;&gt;Ростелеком</title>
<path fill="none" stroke="black" d="M825.719,-477.733C882.085,-486.188 987.96,-506.44 1068.92,-547.641 1170.09,-599.126 1204.13,-614.261 1267.2,-708.641 1342.57,-821.42 1367.92,-986.84 1375.31,-1052.39"/>
<polygon fill="black" stroke="black" points="1371.84,-1052.81 1376.38,-1062.38 1378.8,-1052.06 1371.84,-1052.81"/>
</g>
<!-- InstrNet -->
<g id="node35" class="node"><title>InstrNet</title>
<polygon fill="none" stroke="black" points="835.006,-532.204 785.387,-544.641 735.768,-532.204 735.815,-512.079 834.96,-512.079 835.006,-532.204"/>
<text text-anchor="middle" x="785.387" y="-522.941" font-family="Times New Roman,serif" font-size="14.00">InstrNet</text>
</g>
<!-- InstrNet&#45;&gt;ЭрТелеком -->
<g id="edge31" class="edge"><title>InstrNet&#45;&gt;ЭрТелеком</title>
<path fill="none" stroke="black" d="M841.164,-534.64C856.559,-538.647 872.7,-544.651 885.953,-553.641 908.021,-568.611 904.853,-581.179 921.953,-601.641 932.948,-614.798 945.49,-628.66 957.016,-640.989"/>
<ellipse fill="none" stroke="black" cx="837.089" cy="-533.659" rx="4.00001" ry="4.00001"/>
<polygon fill="black" stroke="black" points="954.635,-643.565 964.038,-648.447 959.731,-638.767 954.635,-643.565"/>
</g>
<!-- InstrNet&#45;&gt;Мегафон -->
<g id="edge19" class="edge"><title>InstrNet&#45;&gt;Мегафон</title>
<path fill="none" stroke="black" d="M835.068,-520.302C852.25,-516.361 870.998,-509.976 885.953,-499.641 931.553,-468.127 964.951,-410.99 981.891,-377.061"/>
<polygon fill="black" stroke="black" points="985.198,-378.262 986.422,-367.738 978.902,-375.202 985.198,-378.262"/>
</g>
<!-- ТСвязь -->
<g id="node36" class="node"><title>ТСвязь</title>
<polygon fill="none" stroke="black" points="835.006,-224.204 785.387,-236.641 735.768,-224.204 735.815,-204.079 834.96,-204.079 835.006,-224.204"/>
<text text-anchor="middle" x="785.387" y="-214.941" font-family="Times New Roman,serif" font-size="14.00">ТСвязь</text>
</g>
<!-- ТСвязь&#45;&gt;Мегафон -->
<g id="edge20" class="edge"><title>ТСвязь&#45;&gt;Мегафон</title>
<path fill="none" stroke="black" d="M829.867,-225.509C848.008,-229.597 868.803,-235.945 885.953,-245.641 921.304,-265.627 953.771,-299.755 973.793,-323.441"/>
<polygon fill="black" stroke="black" points="971.265,-325.876 980.34,-331.343 976.655,-321.409 971.265,-325.876"/>
</g>
<!-- ТСвязь&#45;&gt;Вымпелком -->
<g id="edge21" class="edge"><title>ТСвязь&#45;&gt;Вымпелком</title>
<path fill="none" stroke="black" d="M835.015,-207.949C851.47,-203.679 869.769,-198.199 885.953,-191.641 912.19,-181.009 940.106,-165.463 961.048,-152.859"/>
<polygon fill="black" stroke="black" points="963.146,-155.679 969.859,-147.482 959.5,-149.704 963.146,-155.679"/>
</g>
<!-- Восток -->
<g id="node37" class="node"><title>Восток</title>
<polygon fill="none" stroke="black" points="833.793,-386.204 785.387,-398.641 736.982,-386.204 737.027,-366.079 833.748,-366.079 833.793,-386.204"/>
<text text-anchor="middle" x="785.387" y="-376.941" font-family="Times New Roman,serif" font-size="14.00">Восток</text>
</g>
<!-- Восток&#45;&gt;Мегафон -->
<g id="edge22" class="edge"><title>Восток&#45;&gt;Мегафон</title>
<path fill="none" stroke="black" d="M833.597,-373.607C865.757,-368.815 908.369,-362.466 941.652,-357.506"/>
<polygon fill="black" stroke="black" points="942.285,-360.951 951.66,-356.015 941.254,-354.027 942.285,-360.951"/>
</g>
<!-- Старнет -->
<g id="node38" class="node"><title>Старнет</title>
<polygon fill="none" stroke="black" points="190.62,-701.204 138.18,-713.641 85.7407,-701.204 85.7897,-681.079 190.571,-681.079 190.62,-701.204"/>
<text text-anchor="middle" x="138.18" y="-691.941" font-family="Times New Roman,serif" font-size="14.00">Старнет</text>
</g>
<!-- Старнет&#45;&gt;Унико -->
<g id="edge24" class="edge"><title>Старнет&#45;&gt;Унико</title>
<path fill="none" stroke="black" d="M198.792,-693.573C225.673,-695.786 255.905,-703.133 276.36,-722.641 324.725,-768.765 282.343,-808.929 312.36,-868.641 368.001,-979.325 377.696,-1030.82 489.754,-1083.64 553.703,-1113.78 585.267,-1114.61 648.822,-1083.64 672.16,-1072.27 668.813,-1058.08 684.822,-1037.64 712.14,-1002.77 743.697,-962.52 763.834,-936.844"/>
<ellipse fill="none" stroke="black" cx="194.563" cy="-693.301" rx="4" ry="4"/>
<polygon fill="black" stroke="black" points="766.785,-938.753 770.203,-928.724 761.277,-934.433 766.785,-938.753"/>
</g>
<!-- Старнет&#45;&gt;ЭрТелеком -->
<g id="edge25" class="edge"><title>Старнет&#45;&gt;ЭрТелеком</title>
<path fill="none" stroke="black" d="M198.934,-685.937C232.281,-680.619 274.593,-674.033 312.36,-668.641 564.934,-632.585 633.754,-607.046 885.953,-645.641 902.11,-648.114 919.166,-652.545 934.849,-657.408"/>
<ellipse fill="none" stroke="black" cx="194.607" cy="-686.629" rx="4.00001" ry="4.00001"/>
<polygon fill="black" stroke="black" points="933.824,-660.755 944.415,-660.478 935.963,-654.09 933.824,-660.755"/>
</g>
<!-- Магистраль -->
<g id="node41" class="node"><title>Магистраль</title>
<polygon fill="none" stroke="black" points="453.951,-701.204 383.057,-713.641 312.163,-701.204 312.229,-681.079 453.885,-681.079 453.951,-701.204"/>
<text text-anchor="middle" x="383.057" y="-691.941" font-family="Times New Roman,serif" font-size="14.00">Магистраль</text>
</g>
<!-- Старнет&#45;&gt;Магистраль -->
<g id="edge43" class="edge"><title>Старнет&#45;&gt;Магистраль</title>
<path fill="none" stroke="black" stroke-dasharray="1,5" d="M198.753,-695.641C230.497,-695.641 269.935,-695.641 304.088,-695.641"/>
<ellipse fill="none" stroke="black" cx="194.688" cy="-695.641" rx="4" ry="4"/>
<ellipse fill="none" stroke="black" cx="308.194" cy="-695.641" rx="4" ry="4"/>
</g>
<!-- ВолгаЛинк -->
<g id="node39" class="node"><title>ВолгаЛинк</title>
<polygon fill="none" stroke="black" points="1252.92,-1330.2 1186.06,-1342.64 1119.2,-1330.2 1119.26,-1310.08 1252.86,-1310.08 1252.92,-1330.2"/>
<text text-anchor="middle" x="1186.06" y="-1320.94" font-family="Times New Roman,serif" font-size="14.00">ВолгаЛинк</text>
</g>
<!-- ВолгаЛинк&#45;&gt;Ростелеком -->
<g id="edge33" class="edge"><title>ВолгаЛинк&#45;&gt;Ростелеком</title>
<path fill="none" stroke="black" d="M1254.76,-1306.33C1259.2,-1303.79 1263.41,-1300.91 1267.2,-1297.64 1326.93,-1246.12 1358.43,-1154.52 1371.14,-1108.56"/>
<ellipse fill="black" stroke="black" cx="1251.17" cy="-1308.19" rx="4.00002" ry="4.00002"/>
<polygon fill="black" stroke="black" points="1374.58,-1109.26 1373.77,-1098.7 1367.81,-1107.46 1374.58,-1109.26"/>
</g>
<!-- ИнсаткомВ -->
<g id="node40" class="node"><title>ИнсаткомВ</title>
<polygon fill="none" stroke="black" points="1254.14,-1276.2 1186.06,-1288.64 1117.99,-1276.2 1118.05,-1256.08 1254.07,-1256.08 1254.14,-1276.2"/>
<text text-anchor="middle" x="1186.06" y="-1266.94" font-family="Times New Roman,serif" font-size="14.00">ИнсаткомВ</text>
</g>
<!-- ИнсаткомВ&#45;&gt;Ростелеком -->
<g id="edge34" class="edge"><title>ИнсаткомВ&#45;&gt;Ростелеком</title>
<path fill="none" stroke="black" d="M1244.42,-1252.54C1252.5,-1248.66 1260.37,-1244.05 1267.2,-1238.64 1312.83,-1202.53 1347.54,-1142.7 1365.15,-1107.95"/>
<ellipse fill="black" stroke="black" cx="1240.61" cy="-1254.26" rx="4.00002" ry="4.00002"/>
<polygon fill="black" stroke="black" points="1368.35,-1109.37 1369.66,-1098.85 1362.08,-1106.26 1368.35,-1109.37"/>
</g>
<!-- Магистраль&#45;&gt;Унико -->
<g id="edge35" class="edge"><title>Магистраль&#45;&gt;Унико</title>
<path fill="none" stroke="black" d="M424.276,-710.493C443.911,-717.545 467.948,-725.887 489.754,-732.641 559.709,-754.309 588.403,-734.254 648.822,-775.641 671.116,-790.913 666.481,-804.795 684.822,-824.641 706.35,-847.936 733.819,-871.264 754.45,-887.734"/>
<ellipse fill="black" stroke="black" cx="420.467" cy="-709.118" rx="4.00001" ry="4.00001"/>
<polygon fill="black" stroke="black" points="752.537,-890.683 762.554,-894.134 756.875,-885.19 752.537,-890.683"/>
</g>
<!-- Магистраль&#45;&gt;ЮТК -->
<g id="edge49" class="edge"><title>Магистраль&#45;&gt;ЮТК</title>
<path fill="none" stroke="black" stroke-dasharray="1,5" d="M461.819,-699.202C528.653,-703.566 618.855,-712.969 648.822,-732.641 674.501,-749.498 658.035,-776.606 684.822,-791.641 762.774,-835.395 796.789,-798.018 885.953,-791.641 966.708,-785.866 1058.79,-771.428 1119.21,-760.87"/>
<ellipse fill="none" stroke="black" cx="457.782" cy="-698.947" rx="4" ry="4"/>
<ellipse fill="none" stroke="black" cx="1123.21" cy="-760.166" rx="4.00001" ry="4.00001"/>
</g>
<!-- Магистраль&#45;&gt;Powernet -->
<g id="edge48" class="edge"><title>Магистраль&#45;&gt;Powernet</title>
<path fill="none" stroke="black" stroke-dasharray="1,5" d="M461.939,-685.918C477.744,-683.945 494.123,-681.9 509.152,-680.024"/>
<ellipse fill="none" stroke="black" cx="457.939" cy="-686.418" rx="4.00001" ry="4.00001"/>
<ellipse fill="none" stroke="black" cx="513.381" cy="-679.496" rx="4.00001" ry="4.00001"/>
</g>
<!-- Магистраль&#45;&gt;Евротелеком -->
<g id="edge50" class="edge"><title>Магистраль&#45;&gt;Евротелеком</title>
<path fill="none" stroke="black" stroke-dasharray="1,5" d="M384.265,-672.667C385.715,-568.071 397.296,-138.216 489.754,-50.6412 545.28,1.95205 635.657,4.25872 701.694,-3.05604"/>
<ellipse fill="none" stroke="black" cx="384.211" cy="-676.968" rx="4" ry="4"/>
<ellipse fill="none" stroke="black" cx="706.057" cy="-3.57324" rx="4.00001" ry="4.00001"/>
</g>
<!-- ФорумNet -->
<g id="node42" class="node"><title>ФорумNet</title>
<polygon fill="none" stroke="black" points="631.008,-1008.2 569.288,-1020.64 507.568,-1008.2 507.626,-988.079 630.95,-988.079 631.008,-1008.2"/>
<text text-anchor="middle" x="569.288" y="-998.941" font-family="Times New Roman,serif" font-size="14.00">ФорумNet</text>
</g>
<!-- ФорумNet&#45;&gt;Унико -->
<g id="edge37" class="edge"><title>ФорумNet&#45;&gt;Унико</title>
<path fill="none" stroke="black" d="M614.386,-984.941C625.642,-980.35 637.702,-975.366 648.822,-970.641 682.725,-956.235 721.093,-939.183 748.336,-926.947"/>
<ellipse fill="black" stroke="black" cx="610.449" cy="-986.542" rx="4.00001" ry="4.00001"/>
<polygon fill="black" stroke="black" points="749.799,-930.126 757.483,-922.831 746.927,-923.743 749.799,-930.126"/>
</g>
<!-- ByteS -->
<g id="node43" class="node"><title>ByteS</title>
<polygon fill="none" stroke="black" points="609.626,-916.204 569.288,-928.641 528.95,-916.204 528.987,-896.079 609.588,-896.079 609.626,-916.204"/>
<text text-anchor="middle" x="569.288" y="-906.941" font-family="Times New Roman,serif" font-size="14.00">ByteS</text>
</g>
<!-- ByteS&#45;&gt;Унико -->
<g id="edge38" class="edge"><title>ByteS&#45;&gt;Унико</title>
<path fill="none" stroke="black" d="M617.825,-910.641C652.033,-910.641 698.126,-910.641 733.151,-910.641"/>
<ellipse fill="black" stroke="black" cx="613.557" cy="-910.641" rx="4" ry="4"/>
<polygon fill="black" stroke="black" points="733.178,-914.141 743.178,-910.641 733.178,-907.141 733.178,-914.141"/>
</g>
<!-- АвантекПлюс -->
<g id="node44" class="node"><title>АвантекПлюс</title>
<polygon fill="none" stroke="black" points="648.856,-862.204 569.288,-874.641 489.72,-862.204 489.794,-842.079 648.781,-842.079 648.856,-862.204"/>
<text text-anchor="middle" x="569.288" y="-852.941" font-family="Times New Roman,serif" font-size="14.00">АвантекПлюс</text>
</g>
<!-- АвантекПлюс&#45;&gt;Унико -->
<g id="edge39" class="edge"><title>АвантекПлюс&#45;&gt;Унико</title>
<path fill="none" stroke="black" d="M622.055,-869.698C659.051,-879.029 708.19,-891.423 742.677,-900.121"/>
<ellipse fill="black" stroke="black" cx="618.009" cy="-868.678" rx="4.00001" ry="4.00001"/>
<polygon fill="black" stroke="black" points="741.883,-903.53 752.436,-902.582 743.595,-896.743 741.883,-903.53"/>
</g>
<!-- Robor -->
<g id="node45" class="node"><title>Robor</title>
<polygon fill="none" stroke="black" points="1228.72,-45.2035 1186.06,-57.6412 1143.41,-45.2035 1143.44,-25.0789 1228.68,-25.0789 1228.72,-45.2035"/>
<text text-anchor="middle" x="1186.06" y="-35.9412" font-family="Times New Roman,serif" font-size="14.00">Robor</text>
</g>
<!-- Robor&#45;&gt;Транстелеком -->
<g id="edge40" class="edge"><title>Robor&#45;&gt;Транстелеком</title>
<path fill="none" stroke="black" d="M1225.81,-51.2323C1239.55,-56.3189 1254.68,-63.1052 1267.2,-71.6412 1304.5,-97.0666 1338.61,-137.038 1358.85,-163.294"/>
<ellipse fill="black" stroke="black" cx="1221.69" cy="-49.7704" rx="4.00001" ry="4.00001"/>
<polygon fill="black" stroke="black" points="1356.09,-165.447 1364.92,-171.301 1361.67,-161.218 1356.09,-165.447"/>
</g>
<!-- ВистОнЛайн -->
<g id="node46" class="node"><title>ВистОнЛайн</title>
<polygon fill="none" stroke="black" points="645.429,-808.204 569.288,-820.641 493.147,-808.204 493.218,-788.079 645.358,-788.079 645.429,-808.204"/>
<text text-anchor="middle" x="569.288" y="-798.941" font-family="Times New Roman,serif" font-size="14.00">ВистОнЛайн</text>
</g>
<!-- ВистОнЛайн&#45;&gt;Унико -->
<g id="edge41" class="edge"><title>ВистОнЛайн&#45;&gt;Унико</title>
<path fill="none" stroke="black" d="M616.91,-816.887C627.565,-820.63 638.721,-824.949 648.822,-829.641 685.906,-846.867 725.792,-871.514 752.629,-889.088"/>
<ellipse fill="black" stroke="black" cx="613.047" cy="-815.562" rx="4.00001" ry="4.00001"/>
<polygon fill="black" stroke="black" points="750.934,-892.163 761.207,-894.756 754.793,-886.323 750.934,-892.163"/>
</g>
</g>
</svg>
