<?xml version="1.0" encoding="UTF-8" standalone="no"?>
<!DOCTYPE svg PUBLIC "-//W3C//DTD SVG 1.1//EN"
 "http://www.w3.org/Graphics/SVG/1.1/DTD/svg11.dtd">
<!-- Generated by graphviz version 2.38.0 (20140413.2041)
 -->
<!-- Title: ispgraph Pages: 1 -->
<svg width="1461pt" height="1310pt"
 viewBox="0.00 0.00 1461.25 1310.00" xmlns="http://www.w3.org/2000/svg" xmlns:xlink="http://www.w3.org/1999/xlink">
<g id="graph0" class="graph" transform="scale(1 1) rotate(0) translate(4 1306)">
<title>ispgraph</title>
<polygon fill="white" stroke="none" points="-4,4 -4,-1306 1457.25,-1306 1457.25,4 -4,4"/>
<!-- Унико -->
<g id="node1" class="node"><title>Унико</title>
<polygon fill="none" stroke="black" points="619.405,-1166 598.378,-1184 556.323,-1184 535.296,-1166 556.323,-1148 598.378,-1148 619.405,-1166"/>
<text text-anchor="middle" x="577.351" y="-1162.3" font-family="Times New Roman,serif" font-size="14.00">Унико</text>
</g>
<!-- ЭрТелеком -->
<g id="node3" class="node"><title>ЭрТелеком</title>
<polygon fill="none" stroke="black" points="1067.36,-824 1030.62,-855.054 957.154,-855.054 920.42,-824 957.154,-792.946 1030.62,-792.946 1067.36,-824"/>
<text text-anchor="middle" x="993.889" y="-827.8" font-family="Times New Roman,serif" font-size="14.00">ЭР&#45;Телеком</text>
<text text-anchor="middle" x="993.889" y="-812.8" font-family="Times New Roman,serif" font-size="14.00">транзит</text>
</g>
<!-- Унико&#45;&gt;ЭрТелеком -->
<g id="edge63" class="edge"><title>Унико&#45;&gt;ЭрТелеком</title>
<path fill="none" stroke="black" stroke-dasharray="1,5" d="M626.832,-1164.45C694.59,-1159.57 816.868,-1140.4 884.404,-1067 931.996,-1015.27 889.416,-976.09 920.404,-913 929.475,-894.532 943.02,-876.484 955.954,-861.521"/>
<ellipse fill="none" stroke="black" cx="622.437" cy="-1164.74" rx="4" ry="4"/>
<ellipse fill="none" stroke="black" cx="958.797" cy="-858.303" rx="4.00002" ry="4.00002"/>
</g>
<!-- Ростелеком -->
<g id="node10" class="node"><title>Ростелеком</title>
<polygon fill="none" stroke="black" points="1442.54,-1100 1410,-1118 1344.91,-1118 1312.37,-1100 1344.91,-1082 1410,-1082 1442.54,-1100"/>
<text text-anchor="middle" x="1377.45" y="-1096.3" font-family="Times New Roman,serif" font-size="14.00">Ростелеком</text>
</g>
<!-- Унико&#45;&gt;Ростелеком -->
<g id="edge21" class="edge"><title>Унико&#45;&gt;Ростелеком</title>
<path fill="none" stroke="black" d="M606.421,-1177.16C703.039,-1213.76 1028.9,-1322.05 1265.65,-1219 1308.63,-1200.29 1342.47,-1155.8 1360.94,-1126.83"/>
<polygon fill="black" stroke="black" points="1364.11,-1128.37 1366.39,-1118.03 1358.15,-1124.69 1364.11,-1128.37"/>
</g>
<!-- Powernet -->
<g id="node19" class="node"><title>Powernet</title>
<polygon fill="none" stroke="black" points="835.407,-824 809.623,-842 758.055,-842 732.27,-824 758.055,-806 809.623,-806 835.407,-824"/>
<text text-anchor="middle" x="783.839" y="-820.3" font-family="Times New Roman,serif" font-size="14.00">Powernet</text>
</g>
<!-- Унико&#45;&gt;Powernet -->
<g id="edge37" class="edge"><title>Унико&#45;&gt;Powernet</title>
<path fill="none" stroke="black" d="M591.109,-1140.9C606.706,-1114.29 632.807,-1071.33 647.273,-1031 676.143,-950.511 625.168,-904.735 683.273,-842 695.685,-828.599 714.009,-821.591 731.565,-818.577"/>
<ellipse fill="none" stroke="black" cx="589.017" cy="-1144.5" rx="4.00002" ry="4.00002"/>
<polygon fill="black" stroke="black" points="732.299,-822.011 741.762,-817.246 731.393,-815.07 732.299,-822.011"/>
</g>
<!-- RETN -->
<g id="node20" class="node"><title>RETN</title>
<polygon fill="none" stroke="black" points="823.392,-1284 803.615,-1302 764.062,-1302 744.286,-1284 764.062,-1266 803.615,-1266 823.392,-1284"/>
<text text-anchor="middle" x="783.839" y="-1280.3" font-family="Times New Roman,serif" font-size="14.00">RETN</text>
</g>
<!-- Унико&#45;&gt;RETN -->
<g id="edge22" class="edge"><title>Унико&#45;&gt;RETN</title>
<path fill="none" stroke="black" d="M596.121,-1184.18C615.833,-1203.42 649.353,-1233.52 683.273,-1252 701.435,-1261.89 723.146,-1269.32 741.653,-1274.51"/>
<polygon fill="black" stroke="black" points="740.997,-1277.96 751.562,-1277.17 742.81,-1271.2 740.997,-1277.96"/>
</g>
<!-- ДомРу -->
<g id="node2" class="node"><title>ДомРу</title>
<polygon fill="none" stroke="black" points="837.909,-878 810.874,-896 756.804,-896 729.768,-878 756.804,-860 810.874,-860 837.909,-878"/>
<text text-anchor="middle" x="783.839" y="-874.3" font-family="Times New Roman,serif" font-size="14.00">ДОМ.RU</text>
</g>
<!-- ДомРу&#45;&gt;ЭрТелеком -->
<g id="edge40" class="edge"><title>ДомРу&#45;&gt;ЭрТелеком</title>
<path fill="none" stroke="black" d="M831.616,-865.859C859.842,-858.533 896.234,-849.087 927.303,-841.023"/>
<ellipse fill="none" stroke="black" cx="827.356" cy="-866.965" rx="4.00001" ry="4.00001"/>
<polygon fill="black" stroke="black" points="928.387,-844.358 937.187,-838.458 926.628,-837.582 928.387,-844.358"/>
</g>
<!-- ЮТК -->
<g id="node15" class="node"><title>ЮТК</title>
<polygon fill="none" stroke="black" points="1255.58,-901 1220.05,-932.054 1148.98,-932.054 1113.44,-901 1148.98,-869.946 1220.05,-869.946 1255.58,-901"/>
<text text-anchor="middle" x="1184.51" y="-904.8" font-family="Times New Roman,serif" font-size="14.00">Ростелеком</text>
<text text-anchor="middle" x="1184.51" y="-889.8" font-family="Times New Roman,serif" font-size="14.00">Волгоград</text>
</g>
<!-- ЭрТелеком&#45;&gt;ЮТК -->
<g id="edge67" class="edge"><title>ЭрТелеком&#45;&gt;ЮТК</title>
<path fill="none" stroke="black" stroke-dasharray="1,5" d="M1051.39,-847.066C1075.63,-856.96 1103.86,-868.485 1127.99,-878.335"/>
<ellipse fill="none" stroke="black" cx="1047.66" cy="-845.542" rx="4.00002" ry="4.00002"/>
<ellipse fill="none" stroke="black" cx="1131.97" cy="-879.958" rx="4.00001" ry="4.00001"/>
</g>
<!-- Связьинформ -->
<g id="node27" class="node"><title>Связьинформ</title>
<polygon fill="none" stroke="black" points="1265.8,-239.562 1184.51,-252 1103.23,-239.562 1103.31,-219.438 1265.72,-219.438 1265.8,-239.562"/>
<text text-anchor="middle" x="1184.51" y="-230.3" font-family="Times New Roman,serif" font-size="14.00">Связьинформ</text>
</g>
<!-- ЭрТелеком&#45;&gt;Связьинформ -->
<g id="edge68" class="edge"><title>ЭрТелеком&#45;&gt;Связьинформ</title>
<path fill="none" stroke="black" stroke-dasharray="1,5" d="M1009.48,-785.249C1026.11,-739.497 1052.85,-660.789 1067.37,-591 1082.4,-518.778 1057.15,-318.488 1103.37,-261 1108.04,-255.202 1113.99,-250.642 1120.55,-247.056"/>
<ellipse fill="none" stroke="black" cx="1008.07" cy="-789.094" rx="4.00001" ry="4.00001"/>
<ellipse fill="none" stroke="black" cx="1124.26" cy="-245.27" rx="4.00002" ry="4.00002"/>
</g>
<!-- Транстелеком -->
<g id="node4" class="node"><title>Транстелеком</title>
<polygon fill="none" stroke="black" points="1453.05,-288 1415.25,-306 1339.65,-306 1301.86,-288 1339.65,-270 1415.25,-270 1453.05,-288"/>
<text text-anchor="middle" x="1377.45" y="-284.3" font-family="Times New Roman,serif" font-size="14.00">Транстелеком</text>
</g>
<!-- Волгатранстелеком -->
<g id="node5" class="node"><title>Волгатранстелеком</title>
<polygon fill="none" stroke="black" points="884.47,-986 834.154,-1004 733.523,-1004 683.208,-986 733.523,-968 834.154,-968 884.47,-986"/>
<text text-anchor="middle" x="783.839" y="-982.3" font-family="Times New Roman,serif" font-size="14.00">Волгатранстелеком</text>
</g>
<!-- Волгатранстелеком&#45;&gt;ЭрТелеком -->
<g id="edge65" class="edge"><title>Волгатранстелеком&#45;&gt;ЭрТелеком</title>
<path fill="none" stroke="black" stroke-dasharray="1,5" d="M863.433,-972.391C871.056,-968.885 878.235,-964.494 884.404,-959 916.578,-930.349 892.721,-902.01 920.404,-869 926.015,-862.309 932.886,-856.314 940.139,-851.048"/>
<ellipse fill="none" stroke="black" cx="859.376" cy="-974.077" rx="4.00001" ry="4.00001"/>
<ellipse fill="none" stroke="black" cx="943.584" cy="-848.682" rx="4.00002" ry="4.00002"/>
</g>
<!-- Волгатранстелеком&#45;&gt;Транстелеком -->
<g id="edge39" class="edge"><title>Волгатранстелеком&#45;&gt;Транстелеком</title>
<path fill="none" stroke="black" d="M859.458,-971.512C868.247,-968.167 876.786,-964.054 884.404,-959 906.037,-944.647 899.189,-927.963 920.404,-913 976.671,-873.314 1014.71,-908.36 1067.37,-864 1253.75,-707.003 1344.92,-408.14 1369.48,-315.848"/>
<ellipse fill="none" stroke="black" cx="855.457" cy="-972.925" rx="4.00001" ry="4.00001"/>
<polygon fill="black" stroke="black" points="1372.88,-316.678 1372.02,-306.118 1366.1,-314.908 1372.88,-316.678"/>
</g>
<!-- Волгатранстелеком&#45;&gt;ЮТК -->
<g id="edge64" class="edge"><title>Волгатранстелеком&#45;&gt;ЮТК</title>
<path fill="none" stroke="black" stroke-dasharray="1,5" d="M881.274,-990.083C936.786,-989.841 1007.24,-985.072 1067.37,-967 1092.22,-959.533 1117.52,-945.991 1138.14,-933.109"/>
<ellipse fill="none" stroke="black" cx="877.196" cy="-990.084" rx="4" ry="4"/>
<ellipse fill="none" stroke="black" cx="1141.58" cy="-930.923" rx="4.00002" ry="4.00002"/>
</g>
<!-- Orange -->
<g id="node16" class="node"><title>Orange</title>
<polygon fill="none" stroke="black" points="1036.45,-940 1015.17,-958 972.61,-958 951.332,-940 972.61,-922 1015.17,-922 1036.45,-940"/>
<text text-anchor="middle" x="993.889" y="-936.3" font-family="Times New Roman,serif" font-size="14.00">Orange</text>
</g>
<!-- Волгатранстелеком&#45;&gt;Orange -->
<g id="edge66" class="edge"><title>Волгатранстелеком&#45;&gt;Orange</title>
<path fill="none" stroke="black" stroke-dasharray="1,5" d="M854.372,-970.626C886.739,-963.47 924.129,-955.203 951.898,-949.063"/>
<ellipse fill="none" stroke="black" cx="850.322" cy="-971.522" rx="4.00001" ry="4.00001"/>
<ellipse fill="none" stroke="black" cx="955.921" cy="-948.174" rx="4.00001" ry="4.00001"/>
</g>
<!-- Релком -->
<g id="node6" class="node"><title>Релком</title>
<polygon fill="none" stroke="black" points="1039.45,-72 1016.67,-90 971.109,-90 948.328,-72 971.109,-54 1016.67,-54 1039.45,-72"/>
<text text-anchor="middle" x="993.889" y="-68.3" font-family="Times New Roman,serif" font-size="14.00">Релком</text>
</g>
<!-- Мегафон -->
<g id="node7" class="node"><title>Мегафон</title>
<polygon fill="none" stroke="black" points="1046.96,-487 1020.42,-505 967.354,-505 940.819,-487 967.354,-469 1020.42,-469 1046.96,-487"/>
<text text-anchor="middle" x="993.889" y="-483.3" font-family="Times New Roman,serif" font-size="14.00">Мегафон</text>
</g>
<!-- Вымпелком -->
<g id="node8" class="node"><title>Вымпелком</title>
<polygon fill="none" stroke="black" points="1038.95,-564 1016.42,-582 971.36,-582 948.83,-564 971.36,-546 1016.42,-546 1038.95,-564"/>
<text text-anchor="middle" x="993.889" y="-560.3" font-family="Times New Roman,serif" font-size="14.00">Билайн</text>
</g>
<!-- КоламбияТелеком -->
<g id="node9" class="node"><title>КоламбияТелеком</title>
<polygon fill="none" stroke="black" points="879.964,-932 831.901,-950 735.776,-950 687.714,-932 735.776,-914 831.901,-914 879.964,-932"/>
<text text-anchor="middle" x="783.839" y="-928.3" font-family="Times New Roman,serif" font-size="14.00">КоламбияТелеком</text>
</g>
<!-- КоламбияТелеком&#45;&gt;ЭрТелеком -->
<g id="edge41" class="edge"><title>КоламбияТелеком&#45;&gt;ЭрТелеком</title>
<path fill="none" stroke="black" d="M856.293,-917.521C866.072,-914.151 875.722,-910.03 884.404,-905 903.983,-893.657 902.675,-883.06 920.404,-869 926.687,-864.017 933.555,-859.129 940.479,-854.519"/>
<ellipse fill="none" stroke="black" cx="852.244" cy="-918.833" rx="4.00001" ry="4.00001"/>
<polygon fill="black" stroke="black" points="942.751,-857.217 949.239,-848.841 938.944,-851.343 942.751,-857.217"/>
</g>
<!-- HE -->
<g id="node11" class="node"><title>HE</title>
<polygon fill="none" stroke="black" points="810.839,-1040 797.339,-1058 770.339,-1058 756.839,-1040 770.339,-1022 797.339,-1022 810.839,-1040"/>
<text text-anchor="middle" x="783.839" y="-1036.3" font-family="Times New Roman,serif" font-size="14.00">HE</text>
</g>
<!-- КвантТелеком -->
<g id="node12" class="node"><title>КвантТелеком</title>
<polygon fill="none" stroke="black" points="216.282,-545 177.231,-563 99.1293,-563 60.0784,-545 99.1293,-527 177.231,-527 216.282,-545"/>
<text text-anchor="middle" x="138.18" y="-541.3" font-family="Times New Roman,serif" font-size="14.00">КвантТелеком</text>
</g>
<!-- Tele2 -->
<g id="node13" class="node"><title>Tele2</title>
<polygon fill="none" stroke="black" points="1219.56,-1046 1202.04,-1064 1166.99,-1064 1149.47,-1046 1166.99,-1028 1202.04,-1028 1219.56,-1046"/>
<text text-anchor="middle" x="1184.51" y="-1042.3" font-family="Times New Roman,serif" font-size="14.00">Tele2</text>
</g>
<!-- Tele2&#45;&gt;Транстелеком -->
<g id="edge3" class="edge"><title>Tele2&#45;&gt;Транстелеком</title>
<path fill="none" stroke="black" d="M1202.98,-1028.78C1221.64,-1009.29 1250.57,-975.702 1265.65,-941 1363.98,-714.785 1375.32,-409.194 1376.41,-316.075"/>
<polygon fill="black" stroke="black" points="1379.91,-316.061 1376.5,-306.031 1372.91,-316.001 1379.91,-316.061"/>
</g>
<!-- Tele2&#45;&gt;Ростелеком -->
<g id="edge2" class="edge"><title>Tele2&#45;&gt;Ростелеком</title>
<path fill="none" stroke="black" d="M1212.47,-1053.62C1241.31,-1061.78 1287.8,-1074.93 1323.93,-1085.14"/>
<polygon fill="black" stroke="black" points="1323.24,-1088.59 1333.82,-1087.94 1325.15,-1081.85 1323.24,-1088.59"/>
</g>
<!-- МТС -->
<g id="node14" class="node"><title>МТС</title>
<polygon fill="none" stroke="black" points="818.886,-164 801.362,-182 766.315,-182 748.791,-164 766.315,-146 801.362,-146 818.886,-164"/>
<text text-anchor="middle" x="783.839" y="-160.3" font-family="Times New Roman,serif" font-size="14.00">МТС</text>
</g>
<!-- ЮТК&#45;&gt;Ростелеком -->
<g id="edge38" class="edge"><title>ЮТК&#45;&gt;Ростелеком</title>
<path fill="none" stroke="black" d="M1220.97,-937.951C1259.12,-977.716 1318.79,-1039.9 1352.02,-1074.54"/>
<ellipse fill="none" stroke="black" cx="1218.12" cy="-934.98" rx="4.00002" ry="4.00002"/>
<polygon fill="black" stroke="black" points="1349.64,-1077.11 1359.09,-1081.9 1354.69,-1072.26 1349.64,-1077.11"/>
</g>
<!-- ПросторТелеком -->
<g id="node17" class="node"><title>ПросторТелеком</title>
<polygon fill="none" stroke="black" points="873.956,-564 828.897,-582 738.78,-582 693.721,-564 738.78,-546 828.897,-546 873.956,-564"/>
<text text-anchor="middle" x="783.839" y="-560.3" font-family="Times New Roman,serif" font-size="14.00">ПросторТелеком</text>
</g>
<!-- ПросторТелеком&#45;&gt;Мегафон -->
<g id="edge25" class="edge"><title>ПросторТелеком&#45;&gt;Мегафон</title>
<path fill="none" stroke="black" d="M840.65,-550.626C855.053,-546.696 870.432,-542.074 884.404,-537 908.07,-528.406 933.688,-516.718 954.084,-506.803"/>
<polygon fill="black" stroke="black" points="955.631,-509.943 963.062,-502.39 952.543,-503.661 955.631,-509.943"/>
</g>
<!-- ПросторТелеком&#45;&gt;Вымпелком -->
<g id="edge24" class="edge"><title>ПросторТелеком&#45;&gt;Вымпелком</title>
<path fill="none" stroke="black" d="M873.976,-564C895.953,-564 918.835,-564 938.589,-564"/>
<polygon fill="black" stroke="black" points="938.613,-567.5 948.613,-564 938.613,-560.5 938.613,-567.5"/>
</g>
<!-- WestCall -->
<g id="node18" class="node"><title>WestCall</title>
<polygon fill="none" stroke="black" points="1044.96,-18 1019.42,-36 968.356,-36 942.822,-18 968.356,-2.13163e-014 1019.42,-0 1044.96,-18"/>
<text text-anchor="middle" x="993.889" y="-14.3" font-family="Times New Roman,serif" font-size="14.00">WestCall</text>
</g>
<!-- Powernet&#45;&gt;Унико -->
<g id="edge36" class="edge"><title>Powernet&#45;&gt;Унико</title>
<path fill="none" stroke="black" d="M736.709,-834.295C717.665,-838.276 696.904,-845.283 683.273,-860 625.168,-922.735 676.143,-968.511 647.273,-1049 635.479,-1081.88 615.952,-1116.51 600.688,-1139.65"/>
<ellipse fill="none" stroke="black" cx="740.81" cy="-833.511" rx="4.00001" ry="4.00001"/>
<polygon fill="black" stroke="black" points="597.789,-1137.69 595.071,-1147.93 603.582,-1141.62 597.789,-1137.69"/>
</g>
<!-- Powernet&#45;&gt;ЭрТелеком -->
<g id="edge59" class="edge"><title>Powernet&#45;&gt;ЭрТелеком</title>
<path fill="none" stroke="black" stroke-dasharray="1,5" d="M843.721,-824C865.034,-824 889.484,-824 912.339,-824"/>
<ellipse fill="none" stroke="black" cx="839.467" cy="-824" rx="4" ry="4"/>
<ellipse fill="none" stroke="black" cx="916.349" cy="-824" rx="4" ry="4"/>
</g>
<!-- Powernet&#45;&gt;Мегафон -->
<g id="edge14" class="edge"><title>Powernet&#45;&gt;Мегафон</title>
<path fill="none" stroke="black" d="M832.865,-822.011C851.541,-818.724 871.506,-811.654 884.404,-797 961.483,-709.433 859.203,-636.315 920.404,-537 928.149,-524.432 940.364,-514.232 952.575,-506.401"/>
<polygon fill="black" stroke="black" points="954.619,-509.256 961.402,-501.117 951.024,-503.25 954.619,-509.256"/>
</g>
<!-- Powernet&#45;&gt;Вымпелком -->
<g id="edge15" class="edge"><title>Powernet&#45;&gt;Вымпелком</title>
<path fill="none" stroke="black" d="M830.097,-820.103C848.647,-816.522 869.267,-809.748 884.404,-797 948.952,-742.64 977.337,-641.434 987.762,-592.266"/>
<polygon fill="black" stroke="black" points="991.221,-592.818 989.774,-582.323 984.36,-591.43 991.221,-592.818"/>
</g>
<!-- МКС -->
<g id="node21" class="node"><title>МКС</title>
<polygon fill="none" stroke="black" points="647.196,-279.33 577.351,-302.428 507.505,-279.33 507.571,-241.956 647.131,-241.956 647.196,-279.33"/>
<text text-anchor="middle" x="577.351" y="-272.8" font-family="Times New Roman,serif" font-size="14.00">МТС</text>
<text text-anchor="middle" x="577.351" y="-257.8" font-family="Times New Roman,serif" font-size="14.00">Волгоград</text>
</g>
<!-- МКС&#45;&gt;МТС -->
<g id="edge13" class="edge"><title>МКС&#45;&gt;МТС</title>
<path fill="none" stroke="black" d="M608.485,-241.792C628.448,-225.034 655.913,-204.285 683.273,-191 702.169,-181.825 724.648,-175.39 743.462,-171.11"/>
<polygon fill="black" stroke="black" points="744.452,-174.477 753.491,-168.95 742.978,-167.634 744.452,-174.477"/>
</g>
<!-- СпринтСеть -->
<g id="node28" class="node"><title>СпринтСеть</title>
<polygon fill="none" stroke="black" points="857.053,-277.562 783.839,-290 710.625,-277.562 710.693,-257.438 856.984,-257.438 857.053,-277.562"/>
<text text-anchor="middle" x="783.839" y="-268.3" font-family="Times New Roman,serif" font-size="14.00">СпринтСеть</text>
</g>
<!-- МКС&#45;&gt;СпринтСеть -->
<g id="edge54" class="edge"><title>МКС&#45;&gt;СпринтСеть</title>
<path fill="none" stroke="black" stroke-dasharray="1,5" d="M655.523,-270.132C670.933,-270.358 687.153,-270.596 702.662,-270.824"/>
<ellipse fill="none" stroke="black" cx="651.295" cy="-270.07" rx="4" ry="4"/>
<ellipse fill="none" stroke="black" cx="706.699" cy="-270.883" rx="4" ry="4"/>
</g>
<!-- ГородокТочкаРу -->
<g id="node22" class="node"><title>ГородокТочкаРу</title>
<polygon fill="none" stroke="black" points="462.788,-1225.56 391.894,-1238 321,-1225.56 321.066,-1205.44 462.722,-1205.44 462.788,-1225.56"/>
<text text-anchor="middle" x="391.894" y="-1216.3" font-family="Times New Roman,serif" font-size="14.00">Городок.Ру</text>
</g>
<!-- ГородокТочкаРу&#45;&gt;Унико -->
<g id="edge46" class="edge"><title>ГородокТочкаРу&#45;&gt;Унико</title>
<path fill="none" stroke="black" d="M450.408,-1203.07C478.114,-1194.92 510.681,-1185.33 535.756,-1177.95"/>
<ellipse fill="black" stroke="black" cx="446.377" cy="-1204.26" rx="4.00001" ry="4.00001"/>
<polygon fill="black" stroke="black" points="537.057,-1181.21 545.662,-1175.03 535.081,-1174.5 537.057,-1181.21"/>
</g>
<!-- STARLINE -->
<g id="node23" class="node"><title>STARLINE</title>
<polygon fill="none" stroke="black" points="205.647,-604.562 138.18,-617 70.7135,-604.562 70.7765,-584.438 205.584,-584.438 205.647,-604.562"/>
<text text-anchor="middle" x="138.18" y="-595.3" font-family="Times New Roman,serif" font-size="14.00">STARLINE</text>
</g>
<!-- VSSA -->
<g id="node24" class="node"><title>VSSA</title>
<polygon fill="none" stroke="black" points="180.838,-658.562 138.18,-671 95.5225,-658.562 95.5623,-638.438 180.798,-638.438 180.838,-658.562"/>
<text text-anchor="middle" x="138.18" y="-649.3" font-family="Times New Roman,serif" font-size="14.00">VSSA</text>
</g>
<!-- ИнформационныйСервис -->
<g id="node25" class="node"><title>ИнформационныйСервис</title>
<polygon fill="none" stroke="black" points="276.541,-712.562 138.18,-725 -0.180374,-712.562 -0.0512311,-692.438 276.412,-692.438 276.541,-712.562"/>
<text text-anchor="middle" x="138.18" y="-703.3" font-family="Times New Roman,serif" font-size="14.00">ИнформационныйСервис</text>
</g>
<!-- SmIT34 -->
<g id="node26" class="node"><title>SmIT34</title>
<polygon fill="none" stroke="black" points="187.799,-766.562 138.18,-779 88.5612,-766.562 88.6075,-746.438 187.753,-746.438 187.799,-766.562"/>
<text text-anchor="middle" x="138.18" y="-757.3" font-family="Times New Roman,serif" font-size="14.00">SmIT34</text>
</g>
<!-- Связьинформ&#45;&gt;Унико -->
<g id="edge33" class="edge"><title>Связьинформ&#45;&gt;Унико</title>
<path fill="none" stroke="black" d="M1119.53,-247.191C1113.31,-250.761 1107.71,-255.281 1103.37,-261 1055.94,-323.606 1101.76,-896.382 1067.37,-967 1020.21,-1063.86 982.657,-1081.81 884.404,-1126 800.094,-1163.92 690.424,-1168.9 627.864,-1168.11"/>
<ellipse fill="none" stroke="black" cx="1123.51" cy="-245.208" rx="4.00002" ry="4.00002"/>
<polygon fill="black" stroke="black" points="627.556,-1164.61 617.494,-1167.92 627.428,-1171.6 627.556,-1164.61"/>
</g>
<!-- Связьинформ&#45;&gt;Транстелеком -->
<g id="edge1" class="edge"><title>Связьинформ&#45;&gt;Транстелеком</title>
<path fill="none" stroke="black" d="M1226.48,-245.584C1253.65,-253.269 1289.68,-263.459 1319.62,-271.925"/>
<polygon fill="black" stroke="black" points="1318.94,-275.371 1329.51,-274.724 1320.84,-268.635 1318.94,-275.371"/>
</g>
<!-- СпринтСеть&#45;&gt;Мегафон -->
<g id="edge5" class="edge"><title>СпринтСеть&#45;&gt;Мегафон</title>
<path fill="none" stroke="black" d="M843.655,-279.902C858.018,-283.905 872.625,-289.932 884.404,-299 938.631,-340.749 970.516,-417.877 984.468,-459.177"/>
<polygon fill="black" stroke="black" points="981.199,-460.443 987.631,-468.862 987.853,-458.269 981.199,-460.443"/>
</g>
<!-- СпринтСеть&#45;&gt;Вымпелком -->
<g id="edge4" class="edge"><title>СпринтСеть&#45;&gt;Вымпелком</title>
<path fill="none" stroke="black" d="M850.765,-278.641C863.435,-282.776 875.507,-289.177 884.404,-299 949.442,-370.811 868.413,-432.245 920.404,-514 928.936,-527.416 942.499,-538.184 955.596,-546.24"/>
<polygon fill="black" stroke="black" points="954.11,-549.423 964.522,-551.384 957.605,-543.358 954.11,-549.423"/>
</g>
<!-- СпринтСеть&#45;&gt;Связьинформ -->
<g id="edge53" class="edge"><title>СпринтСеть&#45;&gt;Связьинформ</title>
<path fill="none" stroke="black" stroke-dasharray="1,5" d="M865.221,-264.338C934.493,-257.736 1033.98,-248.253 1103.23,-241.653"/>
<ellipse fill="none" stroke="black" cx="861.018" cy="-264.739" rx="4" ry="4"/>
<ellipse fill="none" stroke="black" cx="1107.54" cy="-241.242" rx="4" ry="4"/>
</g>
<!-- Старнет -->
<g id="node29" class="node"><title>Старнет</title>
<polygon fill="none" stroke="black" points="190.62,-496.562 138.18,-509 85.7407,-496.562 85.7897,-476.438 190.571,-476.438 190.62,-496.562"/>
<text text-anchor="middle" x="138.18" y="-487.3" font-family="Times New Roman,serif" font-size="14.00">Старнет</text>
</g>
<!-- Старнет&#45;&gt;Унико -->
<g id="edge34" class="edge"><title>Старнет&#45;&gt;Унико</title>
<path fill="none" stroke="black" d="M198.6,-487.139C226.379,-488.751 257.432,-496.107 276.36,-518 329.401,-579.349 253.618,-1191.09 312.36,-1247 363.568,-1295.74 404.517,-1269.82 471.428,-1247 503.539,-1236.05 533.463,-1210.85 553.069,-1191.44"/>
<ellipse fill="none" stroke="black" cx="194.481" cy="-486.977" rx="4" ry="4"/>
<polygon fill="black" stroke="black" points="555.802,-1193.65 560.313,-1184.06 550.808,-1188.75 555.802,-1193.65"/>
</g>
<!-- Старнет&#45;&gt;Транстелеком -->
<g id="edge6" class="edge"><title>Старнет&#45;&gt;Транстелеком</title>
<path fill="none" stroke="black" d="M146.737,-476.378C183.536,-407.416 351.371,-118 576.351,-118 576.351,-118 576.351,-118 994.889,-118 1121.56,-118 1152.97,-149.132 1265.65,-207 1295.73,-222.443 1326.5,-245.647 1347.96,-263.267"/>
<polygon fill="black" stroke="black" points="1345.78,-266.009 1355.7,-269.719 1350.26,-260.63 1345.78,-266.009"/>
</g>
<!-- Магистраль -->
<g id="node42" class="node"><title>Магистраль</title>
<polygon fill="none" stroke="black" points="462.788,-496.562 391.894,-509 321,-496.562 321.066,-476.438 462.722,-476.438 462.788,-496.562"/>
<text text-anchor="middle" x="391.894" y="-487.3" font-family="Times New Roman,serif" font-size="14.00">Магистраль</text>
</g>
<!-- Старнет&#45;&gt;Магистраль -->
<g id="edge55" class="edge"><title>Старнет&#45;&gt;Магистраль</title>
<path fill="none" stroke="black" stroke-dasharray="1,5" d="M198.564,-491C232.708,-491 276.006,-491 312.871,-491"/>
<ellipse fill="none" stroke="black" cx="194.422" cy="-491" rx="4" ry="4"/>
<ellipse fill="none" stroke="black" cx="317.119" cy="-491" rx="4" ry="4"/>
</g>
<!-- Экспилайн -->
<g id="node30" class="node"><title>Экспилайн</title>
<polygon fill="none" stroke="black" points="850.699,-223.562 783.839,-236 716.978,-223.562 717.041,-203.438 850.637,-203.438 850.699,-223.562"/>
<text text-anchor="middle" x="783.839" y="-214.3" font-family="Times New Roman,serif" font-size="14.00">Экспилайн</text>
</g>
<!-- Экспилайн&#45;&gt;Мегафон -->
<g id="edge7" class="edge"><title>Экспилайн&#45;&gt;Мегафон</title>
<path fill="none" stroke="black" d="M843.79,-224.951C858.315,-228.96 872.967,-235.227 884.404,-245 951.234,-302.105 978.721,-408.632 988.377,-459.104"/>
<polygon fill="black" stroke="black" points="984.942,-459.773 990.175,-468.985 991.829,-458.52 984.942,-459.773"/>
</g>
<!-- Экспилайн&#45;&gt;Связьинформ -->
<g id="edge56" class="edge"><title>Экспилайн&#45;&gt;Связьинформ</title>
<path fill="none" stroke="black" stroke-dasharray="1,5" d="M858.962,-220.975C925.781,-223.656 1024.15,-227.604 1095.06,-230.45"/>
<ellipse fill="none" stroke="black" cx="854.669" cy="-220.803" rx="4" ry="4"/>
<ellipse fill="none" stroke="black" cx="1099.13" cy="-230.613" rx="4" ry="4"/>
</g>
<!-- ЭРОС -->
<g id="node31" class="node"><title>ЭРОС</title>
<polygon fill="none" stroke="black" points="621.722,-1018.56 577.351,-1031 532.979,-1018.56 533.02,-998.438 621.681,-998.438 621.722,-1018.56"/>
<text text-anchor="middle" x="577.351" y="-1009.3" font-family="Times New Roman,serif" font-size="14.00">ЭРОС</text>
</g>
<!-- ЭРОС&#45;&gt;Волгатранстелеком -->
<g id="edge8" class="edge"><title>ЭРОС&#45;&gt;Волгатранстелеком</title>
<path fill="none" stroke="black" d="M621.717,-1007.27C644.38,-1004.28 672.897,-1000.52 699.617,-996.988"/>
<polygon fill="black" stroke="black" points="700.298,-1000.43 709.754,-995.65 699.382,-993.489 700.298,-1000.43"/>
</g>
<!-- ЭРОС&#45;&gt;Мегафон -->
<g id="edge10" class="edge"><title>ЭРОС&#45;&gt;Мегафон</title>
<path fill="none" stroke="black" d="M581.129,-998.141C589.787,-954.966 619.601,-827.256 683.273,-743 750.827,-653.607 807.552,-672.538 884.404,-591 904.188,-570.01 900.17,-557.557 920.404,-537 930.76,-526.479 943.616,-516.781 955.613,-508.782"/>
<polygon fill="black" stroke="black" points="957.647,-511.636 964.149,-503.271 953.85,-505.755 957.647,-511.636"/>
</g>
<!-- ЭРОС&#45;&gt;HE -->
<g id="edge9" class="edge"><title>ЭРОС&#45;&gt;HE</title>
<path fill="none" stroke="black" d="M621.717,-1018.73C659.647,-1023.73 713.976,-1030.91 748.834,-1035.51"/>
<polygon fill="black" stroke="black" points="748.615,-1039.01 758.987,-1036.85 749.532,-1032.07 748.615,-1039.01"/>
</g>
<!-- ЭРОС&#45;&gt;Tele2 -->
<g id="edge35" class="edge"><title>ЭРОС&#45;&gt;Tele2</title>
<path fill="none" stroke="black" d="M603.423,-1030.26C623.875,-1043.22 654.063,-1059.92 683.273,-1067 851.755,-1107.81 1061.32,-1072.29 1145.71,-1054.6"/>
<ellipse fill="none" stroke="black" cx="599.969" cy="-1028.02" rx="4.00002" ry="4.00002"/>
<polygon fill="black" stroke="black" points="1146.56,-1058 1155.61,-1052.49 1145.1,-1051.15 1146.56,-1058"/>
</g>
<!-- Comrise -->
<g id="node32" class="node"><title>Comrise</title>
<polygon fill="none" stroke="black" points="443.226,-894.562 391.894,-907 340.562,-894.562 340.61,-874.438 443.178,-874.438 443.226,-894.562"/>
<text text-anchor="middle" x="391.894" y="-885.3" font-family="Times New Roman,serif" font-size="14.00">Comrise</text>
</g>
<!-- Comrise&#45;&gt;Унико -->
<g id="edge57" class="edge"><title>Comrise&#45;&gt;Унико</title>
<path fill="none" stroke="black" stroke-dasharray="1,5" d="M415.66,-908.449C433.491,-924.925 457.529,-950.106 471.428,-977 504.296,-1040.6 462.371,-1078.37 507.428,-1134 514.984,-1143.33 525.877,-1150.07 536.78,-1154.88"/>
<ellipse fill="none" stroke="black" cx="412.368" cy="-905.469" rx="4.00002" ry="4.00002"/>
<ellipse fill="none" stroke="black" cx="540.58" cy="-1156.42" rx="4.00001" ry="4.00001"/>
</g>
<!-- Comrise&#45;&gt;Вымпелком -->
<g id="edge12" class="edge"><title>Comrise&#45;&gt;Вымпелком</title>
<path fill="none" stroke="black" d="M419.84,-874.404C516.776,-821.897 847.793,-642.594 957.354,-583.248"/>
<polygon fill="black" stroke="black" points="959.232,-586.212 966.358,-578.371 955.898,-580.057 959.232,-586.212"/>
</g>
<!-- Comrise&#45;&gt;Ростелеком -->
<g id="edge11" class="edge"><title>Comrise&#45;&gt;Ростелеком</title>
<path fill="none" stroke="black" d="M407.527,-903.449C424.117,-920.253 451.451,-949.246 471.428,-977 490.268,-1003.17 482.038,-1020.12 507.428,-1040 571.399,-1090.09 603.37,-1075.26 683.273,-1090 938.327,-1137.05 1008.15,-1157.92 1265.65,-1127 1285.4,-1124.63 1306.71,-1119.96 1325.31,-1115.17"/>
<polygon fill="black" stroke="black" points="1326.29,-1118.53 1335.06,-1112.58 1324.5,-1111.76 1326.29,-1118.53"/>
</g>
<!-- Comrise&#45;&gt;Powernet -->
<g id="edge58" class="edge"><title>Comrise&#45;&gt;Powernet</title>
<path fill="none" stroke="black" stroke-dasharray="1,5" d="M451.48,-879.234C528.383,-866.415 662.005,-844.142 733.825,-832.17"/>
<ellipse fill="none" stroke="black" cx="447.418" cy="-879.911" rx="4.00001" ry="4.00001"/>
<ellipse fill="none" stroke="black" cx="737.901" cy="-831.491" rx="4.00001" ry="4.00001"/>
</g>
<!-- Евротелеком -->
<g id="node33" class="node"><title>Евротелеком</title>
<polygon fill="none" stroke="black" points="859.98,-331.562 783.839,-344 707.697,-331.562 707.769,-311.438 859.909,-311.438 859.98,-331.562"/>
<text text-anchor="middle" x="783.839" y="-322.3" font-family="Times New Roman,serif" font-size="14.00">Евротелеком</text>
</g>
<!-- Евротелеком&#45;&gt;Транстелеком -->
<g id="edge16" class="edge"><title>Евротелеком&#45;&gt;Транстелеком</title>
<path fill="none" stroke="black" d="M860.179,-329.281C955.167,-332.272 1123.27,-333.753 1265.65,-315 1283.62,-312.634 1302.91,-308.508 1320.27,-304.183"/>
<polygon fill="black" stroke="black" points="1321.43,-307.499 1330.25,-301.625 1319.69,-300.718 1321.43,-307.499"/>
</g>
<!-- Евротелеком&#45;&gt;Вымпелком -->
<g id="edge17" class="edge"><title>Евротелеком&#45;&gt;Вымпелком</title>
<path fill="none" stroke="black" d="M815.626,-338.959C837.804,-349.793 866.809,-367.297 884.404,-391 918.356,-436.736 887.038,-467.836 920.404,-514 929.645,-526.785 943.213,-537.387 956.118,-545.489"/>
<polygon fill="black" stroke="black" points="954.5,-548.598 964.885,-550.694 958.074,-542.579 954.5,-548.598"/>
</g>
<!-- Virgin -->
<g id="node34" class="node"><title>Virgin</title>
<polygon fill="none" stroke="black" points="617.689,-569.562 577.351,-582 537.013,-569.562 537.05,-549.438 617.651,-549.438 617.689,-569.562"/>
<text text-anchor="middle" x="577.351" y="-560.3" font-family="Times New Roman,serif" font-size="14.00">Virgin</text>
</g>
<!-- Virgin&#45;&gt;Волгатранстелеком -->
<g id="edge51" class="edge"><title>Virgin&#45;&gt;Волгатранстелеком</title>
<path fill="none" stroke="black" d="M581.757,-589.377C592.804,-668.003 630.029,-905.479 683.273,-959 688.484,-964.238 694.6,-968.488 701.195,-971.934"/>
<ellipse fill="black" stroke="black" cx="581.147" cy="-584.976" rx="4.00001" ry="4.00001"/>
<polygon fill="black" stroke="black" points="699.894,-975.187 710.445,-976.151 702.798,-968.818 699.894,-975.187"/>
</g>
<!-- Virgin&#45;&gt;Мегафон -->
<g id="edge19" class="edge"><title>Virgin&#45;&gt;Мегафон</title>
<path fill="none" stroke="black" d="M591.146,-549.376C609.323,-529.837 644.722,-496.149 683.273,-483 770.99,-453.081 880.982,-465.274 943.464,-476.427"/>
<polygon fill="black" stroke="black" points="942.976,-479.896 953.446,-478.273 944.249,-473.013 942.976,-479.896"/>
</g>
<!-- Virgin&#45;&gt;Вымпелком -->
<g id="edge18" class="edge"><title>Virgin&#45;&gt;Вымпелком</title>
<path fill="none" stroke="black" d="M606.035,-573.163C626.977,-579.593 656.589,-587.622 683.273,-591 771.957,-602.228 795.677,-601.876 884.404,-591 906.817,-588.253 931.265,-582.426 951.268,-576.886"/>
<polygon fill="black" stroke="black" points="952.335,-580.222 960.996,-574.119 950.419,-573.489 952.335,-580.222"/>
</g>
<!-- Virgin&#45;&gt;Ростелеком -->
<g id="edge20" class="edge"><title>Virgin&#45;&gt;Ростелеком</title>
<path fill="none" stroke="black" d="M602.085,-574.456C623.338,-583.807 655.365,-597.868 683.273,-610 941.76,-722.364 1063.67,-664.426 1265.65,-861 1327.64,-921.325 1358.51,-1022.96 1370.41,-1071.94"/>
<polygon fill="black" stroke="black" points="1367.04,-1072.9 1372.73,-1081.84 1373.86,-1071.3 1367.04,-1072.9"/>
</g>
<!-- Энфорта -->
<g id="node35" class="node"><title>Энфорта</title>
<polygon fill="none" stroke="black" points="1240.99,-293.562 1184.51,-306 1128.04,-293.562 1128.09,-273.438 1240.93,-273.438 1240.99,-293.562"/>
<text text-anchor="middle" x="1184.51" y="-284.3" font-family="Times New Roman,serif" font-size="14.00">Энфорта</text>
</g>
<!-- Энфорта&#45;&gt;Транстелеком -->
<g id="edge23" class="edge"><title>Энфорта&#45;&gt;Транстелеком</title>
<path fill="none" stroke="black" d="M1241,-288C1256.83,-288 1274.45,-288 1291.61,-288"/>
<polygon fill="black" stroke="black" points="1291.64,-291.5 1301.64,-288 1291.64,-284.5 1291.64,-291.5"/>
</g>
<!-- WMAX -->
<g id="node36" class="node"><title>WMAX</title>
<polygon fill="none" stroke="black" points="833.458,-77.5623 783.839,-90 734.22,-77.5623 734.266,-57.4377 833.411,-57.4377 833.458,-77.5623"/>
<text text-anchor="middle" x="783.839" y="-68.3" font-family="Times New Roman,serif" font-size="14.00">WMAX</text>
</g>
<!-- WMAX&#45;&gt;Релком -->
<g id="edge28" class="edge"><title>WMAX&#45;&gt;Релком</title>
<path fill="none" stroke="black" d="M833.617,-72C864.938,-72 905.671,-72 938.104,-72"/>
<polygon fill="black" stroke="black" points="938.32,-75.5001 948.32,-72 938.32,-68.5001 938.32,-75.5001"/>
</g>
<!-- WMAX&#45;&gt;Мегафон -->
<g id="edge26" class="edge"><title>WMAX&#45;&gt;Мегафон</title>
<path fill="none" stroke="black" d="M811.871,-83.2776C834.361,-93.9755 865.627,-112.119 884.404,-137 961.022,-238.522 984.134,-394.95 990.583,-458.599"/>
<polygon fill="black" stroke="black" points="987.111,-459.061 991.542,-468.685 994.079,-458.399 987.111,-459.061"/>
</g>
<!-- WMAX&#45;&gt;WestCall -->
<g id="edge27" class="edge"><title>WMAX&#45;&gt;WestCall</title>
<path fill="none" stroke="black" d="M833.617,-59.3394C867.577,-50.5251 912.602,-38.8386 946.115,-30.1404"/>
<polygon fill="black" stroke="black" points="947.32,-33.4435 956.12,-27.5434 945.562,-26.668 947.32,-33.4435"/>
</g>
<!-- InstrNet -->
<g id="node37" class="node"><title>InstrNet</title>
<polygon fill="none" stroke="black" points="833.458,-775.562 783.839,-788 734.22,-775.562 734.266,-755.438 833.411,-755.438 833.458,-775.562"/>
<text text-anchor="middle" x="783.839" y="-766.3" font-family="Times New Roman,serif" font-size="14.00">InstrNet</text>
</g>
<!-- InstrNet&#45;&gt;ЭрТелеком -->
<g id="edge42" class="edge"><title>InstrNet&#45;&gt;ЭрТелеком</title>
<path fill="none" stroke="black" d="M827.452,-781.061C856.179,-788.517 894.638,-798.499 927.245,-806.962"/>
<ellipse fill="none" stroke="black" cx="823.533" cy="-780.043" rx="4.00001" ry="4.00001"/>
<polygon fill="black" stroke="black" points="926.601,-810.411 937.16,-809.535 928.36,-803.635 926.601,-810.411"/>
</g>
<!-- InstrNet&#45;&gt;Мегафон -->
<g id="edge29" class="edge"><title>InstrNet&#45;&gt;Мегафон</title>
<path fill="none" stroke="black" d="M817.063,-755.324C839.359,-743.512 867.885,-724.795 884.404,-700 925.539,-638.257 878.995,-598.558 920.404,-537 928.644,-524.751 940.98,-514.629 953.151,-506.772"/>
<polygon fill="black" stroke="black" points="955.187,-509.631 961.923,-501.453 951.557,-503.645 955.187,-509.631"/>
</g>
<!-- ТСвязь -->
<g id="node38" class="node"><title>ТСвязь</title>
<polygon fill="none" stroke="black" points="833.458,-515.562 783.839,-528 734.22,-515.562 734.266,-495.438 833.411,-495.438 833.458,-515.562"/>
<text text-anchor="middle" x="783.839" y="-506.3" font-family="Times New Roman,serif" font-size="14.00">ТСвязь</text>
</g>
<!-- ТСвязь&#45;&gt;Мегафон -->
<g id="edge30" class="edge"><title>ТСвязь&#45;&gt;Мегафон</title>
<path fill="none" stroke="black" d="M833.617,-504.608C864.829,-501.157 905.389,-496.673 937.767,-493.094"/>
<polygon fill="black" stroke="black" points="938.414,-496.544 947.969,-491.966 937.645,-489.586 938.414,-496.544"/>
</g>
<!-- ТСвязь&#45;&gt;Вымпелком -->
<g id="edge31" class="edge"><title>ТСвязь&#45;&gt;Вымпелком</title>
<path fill="none" stroke="black" d="M819.662,-519.038C855.341,-528.299 910.898,-542.719 949.435,-552.721"/>
<polygon fill="black" stroke="black" points="948.773,-556.166 959.332,-555.29 950.532,-549.39 948.773,-556.166"/>
</g>
<!-- Восток -->
<g id="node39" class="node"><title>Восток</title>
<polygon fill="none" stroke="black" points="832.244,-423.562 783.839,-436 735.433,-423.562 735.478,-403.438 832.199,-403.438 832.244,-423.562"/>
<text text-anchor="middle" x="783.839" y="-414.3" font-family="Times New Roman,serif" font-size="14.00">Восток</text>
</g>
<!-- Восток&#45;&gt;Мегафон -->
<g id="edge32" class="edge"><title>Восток&#45;&gt;Мегафон</title>
<path fill="none" stroke="black" d="M815.83,-427.805C835.502,-434.067 861.481,-442.408 884.404,-450 905.574,-457.011 928.998,-464.975 948.647,-471.713"/>
<polygon fill="black" stroke="black" points="947.658,-475.074 958.253,-475.013 949.933,-468.454 947.658,-475.074"/>
</g>
<!-- ВолгаЛинк -->
<g id="node40" class="node"><title>ВолгаЛинк</title>
<polygon fill="none" stroke="black" points="1251.37,-1105.56 1184.51,-1118 1117.65,-1105.56 1117.72,-1085.44 1251.31,-1085.44 1251.37,-1105.56"/>
<text text-anchor="middle" x="1184.51" y="-1096.3" font-family="Times New Roman,serif" font-size="14.00">ВолгаЛинк</text>
</g>
<!-- ВолгаЛинк&#45;&gt;Ростелеком -->
<g id="edge43" class="edge"><title>ВолгаЛинк&#45;&gt;Ростелеком</title>
<path fill="none" stroke="black" d="M1259.65,-1100C1273.62,-1100 1288.23,-1100 1302.2,-1100"/>
<ellipse fill="black" stroke="black" cx="1255.23" cy="-1100" rx="4" ry="4"/>
<polygon fill="black" stroke="black" points="1302.24,-1103.5 1312.24,-1100 1302.24,-1096.5 1302.24,-1103.5"/>
</g>
<!-- ИнсаткомВ -->
<g id="node41" class="node"><title>ИнсаткомВ</title>
<polygon fill="none" stroke="black" points="1252.59,-1197.56 1184.51,-1210 1116.44,-1197.56 1116.5,-1177.44 1252.52,-1177.44 1252.59,-1197.56"/>
<text text-anchor="middle" x="1184.51" y="-1188.3" font-family="Times New Roman,serif" font-size="14.00">ИнсаткомВ</text>
</g>
<!-- ИнсаткомВ&#45;&gt;Ростелеком -->
<g id="edge44" class="edge"><title>ИнсаткомВ&#45;&gt;Ростелеком</title>
<path fill="none" stroke="black" d="M1232.18,-1174.43C1243.26,-1169.97 1254.96,-1165.01 1265.65,-1160 1289.64,-1148.76 1315.72,-1134.73 1336.55,-1123.07"/>
<ellipse fill="black" stroke="black" cx="1228.34" cy="-1175.96" rx="4.00001" ry="4.00001"/>
<polygon fill="black" stroke="black" points="1338.44,-1126.02 1345.43,-1118.06 1335,-1119.92 1338.44,-1126.02"/>
</g>
<!-- Магистраль&#45;&gt;Унико -->
<g id="edge45" class="edge"><title>Магистраль&#45;&gt;Унико</title>
<path fill="none" stroke="black" d="M398.385,-516.544C411.297,-576.705 444.531,-732.036 471.428,-862 487.786,-941.038 479.748,-964.182 507.428,-1040 520.603,-1076.09 542.886,-1114.38 558.54,-1139.15"/>
<ellipse fill="black" stroke="black" cx="397.47" cy="-512.284" rx="4.00001" ry="4.00001"/>
<polygon fill="black" stroke="black" points="555.636,-1141.1 563.979,-1147.63 561.529,-1137.32 555.636,-1141.1"/>
</g>
<!-- Магистраль&#45;&gt;ЮТК -->
<g id="edge61" class="edge"><title>Магистраль&#45;&gt;ЮТК</title>
<path fill="none" stroke="black" stroke-dasharray="1,5" d="M429.665,-472.87C544.744,-418.982 900.266,-274.709 1067.37,-460 1172.57,-576.644 1184.47,-777.354 1184.5,-861.777"/>
<ellipse fill="none" stroke="black" cx="425.735" cy="-474.727" rx="4.00002" ry="4.00002"/>
<ellipse fill="none" stroke="black" cx="1184.48" cy="-865.817" rx="4" ry="4"/>
</g>
<!-- Магистраль&#45;&gt;Powernet -->
<g id="edge60" class="edge"><title>Магистраль&#45;&gt;Powernet</title>
<path fill="none" stroke="black" stroke-dasharray="1,5" d="M407.941,-514.046C446.485,-571.19 554.824,-720.318 683.273,-797 698.207,-805.915 716.138,-811.952 732.643,-816.011"/>
<ellipse fill="none" stroke="black" cx="405.607" cy="-510.556" rx="4.00002" ry="4.00002"/>
<ellipse fill="none" stroke="black" cx="736.714" cy="-816.95" rx="4.00001" ry="4.00001"/>
</g>
<!-- Магистраль&#45;&gt;Евротелеком -->
<g id="edge62" class="edge"><title>Магистраль&#45;&gt;Евротелеком</title>
<path fill="none" stroke="black" stroke-dasharray="1,5" d="M404.715,-468.999C422.51,-438.306 459.286,-383.54 507.428,-358 566.297,-326.769 642.039,-319.958 699.188,-320.289"/>
<ellipse fill="none" stroke="black" cx="402.577" cy="-472.771" rx="4.00002" ry="4.00002"/>
<ellipse fill="none" stroke="black" cx="703.481" cy="-320.34" rx="4" ry="4"/>
</g>
<!-- ФорумNet -->
<g id="node43" class="node"><title>ФорумNet</title>
<polygon fill="none" stroke="black" points="453.614,-1171.56 391.894,-1184 330.174,-1171.56 330.232,-1151.44 453.556,-1151.44 453.614,-1171.56"/>
<text text-anchor="middle" x="391.894" y="-1162.3" font-family="Times New Roman,serif" font-size="14.00">ФорумNet</text>
</g>
<!-- ФорумNet&#45;&gt;Унико -->
<g id="edge47" class="edge"><title>ФорумNet&#45;&gt;Унико</title>
<path fill="none" stroke="black" d="M461.974,-1166C482.837,-1166 505.368,-1166 524.871,-1166"/>
<ellipse fill="black" stroke="black" cx="457.728" cy="-1166" rx="4" ry="4"/>
<polygon fill="black" stroke="black" points="525.065,-1169.5 535.065,-1166 525.065,-1162.5 525.065,-1169.5"/>
</g>
<!-- ByteS -->
<g id="node44" class="node"><title>ByteS</title>
<polygon fill="none" stroke="black" points="432.232,-1117.56 391.894,-1130 351.556,-1117.56 351.594,-1097.44 432.195,-1097.44 432.232,-1117.56"/>
<text text-anchor="middle" x="391.894" y="-1108.3" font-family="Times New Roman,serif" font-size="14.00">ByteS</text>
</g>
<!-- ByteS&#45;&gt;Унико -->
<g id="edge48" class="edge"><title>ByteS&#45;&gt;Унико</title>
<path fill="none" stroke="black" d="M430.238,-1122.99C460.956,-1132.03 504.41,-1144.82 535.939,-1154.1"/>
<ellipse fill="black" stroke="black" cx="426.207" cy="-1121.81" rx="4.00001" ry="4.00001"/>
<polygon fill="black" stroke="black" points="535.144,-1157.52 545.725,-1156.99 537.12,-1150.8 535.144,-1157.52"/>
</g>
<!-- АвантекПлюс -->
<g id="node45" class="node"><title>АвантекПлюс</title>
<polygon fill="none" stroke="black" points="471.462,-1063.56 391.894,-1076 312.326,-1063.56 312.401,-1043.44 471.388,-1043.44 471.462,-1063.56"/>
<text text-anchor="middle" x="391.894" y="-1054.3" font-family="Times New Roman,serif" font-size="14.00">АвантекПлюс</text>
</g>
<!-- АвантекПлюс&#45;&gt;Унико -->
<g id="edge49" class="edge"><title>АвантекПлюс&#45;&gt;Унико</title>
<path fill="none" stroke="black" d="M446.851,-1071.65C455.526,-1075.19 464.062,-1079.58 471.428,-1085 493.198,-1101.01 486.516,-1116.88 507.428,-1134 516.26,-1141.23 526.995,-1147.23 537.337,-1152"/>
<ellipse fill="black" stroke="black" cx="442.958" cy="-1070.17" rx="4.00001" ry="4.00001"/>
<polygon fill="black" stroke="black" points="536.091,-1155.27 546.658,-1156.04 538.874,-1148.85 536.091,-1155.27"/>
</g>
<!-- Robor -->
<g id="node46" class="node"><title>Robor</title>
<polygon fill="none" stroke="black" points="1227.17,-77.5623 1184.51,-90 1141.86,-77.5623 1141.9,-57.4377 1227.13,-57.4377 1227.17,-77.5623"/>
<text text-anchor="middle" x="1184.51" y="-68.3" font-family="Times New Roman,serif" font-size="14.00">Robor</text>
</g>
<!-- Robor&#45;&gt;Транстелеком -->
<g id="edge50" class="edge"><title>Robor&#45;&gt;Транстелеком</title>
<path fill="none" stroke="black" d="M1226.71,-82.6872C1240.16,-87.603 1254.49,-94.512 1265.65,-104 1316.76,-147.425 1350.74,-220.646 1366.44,-260.367"/>
<ellipse fill="black" stroke="black" cx="1222.71" cy="-81.3157" rx="4.00001" ry="4.00001"/>
<polygon fill="black" stroke="black" points="1363.26,-261.861 1370.12,-269.937 1369.8,-259.347 1363.26,-261.861"/>
</g>
<!-- ВистОнЛайн -->
<g id="node47" class="node"><title>ВистОнЛайн</title>
<polygon fill="none" stroke="black" points="468.035,-1009.56 391.894,-1022 315.753,-1009.56 315.824,-989.438 467.964,-989.438 468.035,-1009.56"/>
<text text-anchor="middle" x="391.894" y="-1000.3" font-family="Times New Roman,serif" font-size="14.00">ВистОнЛайн</text>
</g>
<!-- ВистОнЛайн&#45;&gt;Унико -->
<g id="edge52" class="edge"><title>ВистОнЛайн&#45;&gt;Унико</title>
<path fill="none" stroke="black" d="M450.921,-1017.07C458.477,-1020.65 465.602,-1025.2 471.428,-1031 505.805,-1065.2 474.867,-1098.06 507.428,-1134 515.024,-1142.38 525.264,-1148.74 535.525,-1153.49"/>
<ellipse fill="black" stroke="black" cx="446.933" cy="-1015.38" rx="4.00001" ry="4.00001"/>
<polygon fill="black" stroke="black" points="534.303,-1156.77 544.879,-1157.41 537.009,-1150.32 534.303,-1156.77"/>
</g>
</g>
</svg>
