<?xml version="1.0" encoding="UTF-8" standalone="no"?>
<!DOCTYPE svg PUBLIC "-//W3C//DTD SVG 1.1//EN"
 "http://www.w3.org/Graphics/SVG/1.1/DTD/svg11.dtd">
<!-- Generated by graphviz version 2.38.0 (20140413.2041)
 -->
<!-- Title: ispgraph Pages: 1 -->
<svg width="1410pt" height="1251pt"
 viewBox="0.00 0.00 1409.78 1251.31" xmlns="http://www.w3.org/2000/svg" xmlns:xlink="http://www.w3.org/1999/xlink">
<g id="graph0" class="graph" transform="scale(1 1) rotate(0) translate(4 1247.31)">
<title>ispgraph</title>
<polygon fill="white" stroke="none" points="-4,4 -4,-1247.31 1405.78,-1247.31 1405.78,4 -4,4"/>
<!-- Унико -->
<g id="node1" class="node"><title>Унико</title>
<polygon fill="none" stroke="black" points="593.668,-1089 572.641,-1107 530.586,-1107 509.559,-1089 530.586,-1071 572.641,-1071 593.668,-1089"/>
<text text-anchor="middle" x="551.614" y="-1085.3" font-family="Times New Roman,serif" font-size="14.00">Унико</text>
</g>
<!-- ЭрТелеком -->
<g id="node3" class="node"><title>ЭрТелеком</title>
<polygon fill="none" stroke="black" points="1015.88,-824 979.15,-855.054 905.68,-855.054 868.945,-824 905.68,-792.946 979.15,-792.946 1015.88,-824"/>
<text text-anchor="middle" x="942.415" y="-827.8" font-family="Times New Roman,serif" font-size="14.00">ЭР&#45;Телеком</text>
<text text-anchor="middle" x="942.415" y="-812.8" font-family="Times New Roman,serif" font-size="14.00">транзит</text>
</g>
<!-- Унико&#45;&gt;ЭрТелеком -->
<g id="edge61" class="edge"><title>Унико&#45;&gt;ЭрТелеком</title>
<path fill="none" stroke="black" stroke-dasharray="1,5" d="M600.263,-1087.01C660.291,-1082.24 763.922,-1066.25 832.93,-1013 882.839,-974.486 913.738,-906.037 929.23,-862.938"/>
<ellipse fill="none" stroke="black" cx="596.08" cy="-1087.32" rx="4" ry="4"/>
<ellipse fill="none" stroke="black" cx="930.62" cy="-858.974" rx="4.00001" ry="4.00001"/>
</g>
<!-- Ростелеком -->
<g id="node10" class="node"><title>Ростелеком</title>
<polygon fill="none" stroke="black" points="1391.07,-920 1358.52,-938 1293.44,-938 1260.89,-920 1293.44,-902 1358.52,-902 1391.07,-920"/>
<text text-anchor="middle" x="1325.98" y="-916.3" font-family="Times New Roman,serif" font-size="14.00">Ростелеком</text>
</g>
<!-- Унико&#45;&gt;Ростелеком -->
<g id="edge20" class="edge"><title>Унико&#45;&gt;Ростелеком</title>
<path fill="none" stroke="black" d="M557.525,-1107.44C566.562,-1137.21 588.945,-1194.92 631.799,-1219 709.734,-1262.78 745.376,-1237.03 832.93,-1219 1013.59,-1181.79 1066.77,-1165.88 1214.18,-1055 1254.59,-1024.61 1289.36,-976.531 1308.7,-946.703"/>
<polygon fill="black" stroke="black" points="1311.78,-948.386 1314.2,-938.071 1305.87,-944.627 1311.78,-948.386"/>
</g>
<!-- Powernet -->
<g id="node19" class="node"><title>Powernet</title>
<polygon fill="none" stroke="black" points="783.933,-678 758.149,-696 706.58,-696 680.796,-678 706.58,-660 758.149,-660 783.933,-678"/>
<text text-anchor="middle" x="732.365" y="-674.3" font-family="Times New Roman,serif" font-size="14.00">Powernet</text>
</g>
<!-- Унико&#45;&gt;Powernet -->
<g id="edge36" class="edge"><title>Унико&#45;&gt;Powernet</title>
<path fill="none" stroke="black" d="M557.494,-1063.01C565.579,-1025.62 582.211,-955.478 595.799,-896 612.226,-824.096 589.816,-794.642 631.799,-734 644.624,-715.476 664.61,-700.932 683.321,-691.04"/>
<ellipse fill="none" stroke="black" cx="556.644" cy="-1067" rx="4.00001" ry="4.00001"/>
<polygon fill="black" stroke="black" points="684.958,-694.134 692.366,-686.56 681.852,-687.861 684.958,-694.134"/>
</g>
<!-- RETN -->
<g id="node20" class="node"><title>RETN</title>
<polygon fill="none" stroke="black" points="771.918,-1192 752.141,-1210 712.588,-1210 692.812,-1192 712.588,-1174 752.141,-1174 771.918,-1192"/>
<text text-anchor="middle" x="732.365" y="-1188.3" font-family="Times New Roman,serif" font-size="14.00">RETN</text>
</g>
<!-- Унико&#45;&gt;RETN -->
<g id="edge21" class="edge"><title>Унико&#45;&gt;RETN</title>
<path fill="none" stroke="black" d="M568.563,-1107.09C583.49,-1123.03 607.136,-1145.85 631.799,-1160 649.82,-1170.34 671.625,-1177.83 690.229,-1182.95"/>
<polygon fill="black" stroke="black" points="689.35,-1186.34 699.91,-1185.49 691.123,-1179.57 689.35,-1186.34"/>
</g>
<!-- ДомРу -->
<g id="node2" class="node"><title>ДомРу</title>
<polygon fill="none" stroke="black" points="786.435,-878 759.4,-896 705.329,-896 678.294,-878 705.329,-860 759.4,-860 786.435,-878"/>
<text text-anchor="middle" x="732.365" y="-874.3" font-family="Times New Roman,serif" font-size="14.00">ДОМ.RU</text>
</g>
<!-- ДомРу&#45;&gt;ЭрТелеком -->
<g id="edge39" class="edge"><title>ДомРу&#45;&gt;ЭрТелеком</title>
<path fill="none" stroke="black" d="M780.142,-865.859C808.368,-858.533 844.76,-849.087 875.829,-841.023"/>
<ellipse fill="none" stroke="black" cx="775.881" cy="-866.965" rx="4.00001" ry="4.00001"/>
<polygon fill="black" stroke="black" points="876.912,-844.358 885.712,-838.458 875.154,-837.582 876.912,-844.358"/>
</g>
<!-- ЮТК -->
<g id="node15" class="node"><title>ЮТК</title>
<polygon fill="none" stroke="black" points="1204.11,-853 1168.58,-884.054 1097.5,-884.054 1061.97,-853 1097.5,-821.946 1168.58,-821.946 1204.11,-853"/>
<text text-anchor="middle" x="1133.04" y="-856.8" font-family="Times New Roman,serif" font-size="14.00">Ростелеком</text>
<text text-anchor="middle" x="1133.04" y="-841.8" font-family="Times New Roman,serif" font-size="14.00">Волгоград</text>
</g>
<!-- ЭрТелеком&#45;&gt;ЮТК -->
<g id="edge65" class="edge"><title>ЭрТелеком&#45;&gt;ЮТК</title>
<path fill="none" stroke="black" stroke-dasharray="1,5" d="M1012.87,-834.679C1029.62,-837.253 1047.48,-840 1064.15,-842.563"/>
<ellipse fill="none" stroke="black" cx="1008.87" cy="-834.063" rx="4.00001" ry="4.00001"/>
<ellipse fill="none" stroke="black" cx="1068.28" cy="-843.197" rx="4.00001" ry="4.00001"/>
</g>
<!-- Связьинформ -->
<g id="node26" class="node"><title>Связьинформ</title>
<polygon fill="none" stroke="black" points="1214.32,-499.562 1133.04,-512 1051.76,-499.562 1051.83,-479.438 1214.25,-479.438 1214.32,-499.562"/>
<text text-anchor="middle" x="1133.04" y="-490.3" font-family="Times New Roman,serif" font-size="14.00">Связьинформ</text>
</g>
<!-- ЭрТелеком&#45;&gt;Связьинформ -->
<g id="edge66" class="edge"><title>ЭрТелеком&#45;&gt;Связьинформ</title>
<path fill="none" stroke="black" stroke-dasharray="1,5" d="M998.663,-798.985C1004.99,-794.603 1010.94,-789.616 1015.9,-784 1086.98,-703.568 1117.57,-574.173 1127.79,-519.594"/>
<ellipse fill="none" stroke="black" cx="995.037" cy="-801.331" rx="4.00002" ry="4.00002"/>
<ellipse fill="none" stroke="black" cx="1128.55" cy="-515.431" rx="4.00001" ry="4.00001"/>
</g>
<!-- Транстелеком -->
<g id="node4" class="node"><title>Транстелеком</title>
<polygon fill="none" stroke="black" points="1401.58,-202 1363.78,-220 1288.18,-220 1250.38,-202 1288.18,-184 1363.78,-184 1401.58,-202"/>
<text text-anchor="middle" x="1325.98" y="-198.3" font-family="Times New Roman,serif" font-size="14.00">Транстелеком</text>
</g>
<!-- Волгатранстелеком -->
<g id="node5" class="node"><title>Волгатранстелеком</title>
<polygon fill="none" stroke="black" points="832.996,-824 782.68,-842 682.049,-842 631.734,-824 682.049,-806 782.68,-806 832.996,-824"/>
<text text-anchor="middle" x="732.365" y="-820.3" font-family="Times New Roman,serif" font-size="14.00">Волгатранстелеком</text>
</g>
<!-- Волгатранстелеком&#45;&gt;ЭрТелеком -->
<g id="edge63" class="edge"><title>Волгатранстелеком&#45;&gt;ЭрТелеком</title>
<path fill="none" stroke="black" stroke-dasharray="1,5" d="M841.28,-824C847.803,-824 854.305,-824 860.684,-824"/>
<ellipse fill="none" stroke="black" cx="837.124" cy="-824" rx="4" ry="4"/>
<ellipse fill="none" stroke="black" cx="864.691" cy="-824" rx="4" ry="4"/>
</g>
<!-- Волгатранстелеком&#45;&gt;Транстелеком -->
<g id="edge38" class="edge"><title>Волгатранстелеком&#45;&gt;Транстелеком</title>
<path fill="none" stroke="black" d="M810.292,-810.132C818.416,-806.68 826.166,-802.373 832.93,-797 859.4,-775.974 845.648,-754.508 868.93,-730 992.469,-599.955 1101.34,-660.431 1214.18,-521 1286.92,-431.118 1313.34,-290.392 1321.64,-230.511"/>
<ellipse fill="none" stroke="black" cx="806.471" cy="-811.618" rx="4.00001" ry="4.00001"/>
<polygon fill="black" stroke="black" points="1325.15,-230.673 1322.99,-220.301 1318.21,-229.758 1325.15,-230.673"/>
</g>
<!-- Волгатранстелеком&#45;&gt;ЮТК -->
<g id="edge62" class="edge"><title>Волгатранстелеком&#45;&gt;ЮТК</title>
<path fill="none" stroke="black" stroke-dasharray="1,5" d="M799.26,-841.053C810.539,-844.205 822.106,-847.584 832.93,-851 849.153,-856.119 852.174,-861.067 868.93,-864 933.272,-875.261 950.653,-867.083 1015.9,-864 1030.66,-863.302 1046.45,-862.108 1061.48,-860.758"/>
<ellipse fill="none" stroke="black" cx="795.366" cy="-839.977" rx="4.00001" ry="4.00001"/>
<ellipse fill="none" stroke="black" cx="1065.75" cy="-860.362" rx="4" ry="4"/>
</g>
<!-- Orange -->
<g id="node16" class="node"><title>Orange</title>
<polygon fill="none" stroke="black" points="984.972,-757 963.693,-775 921.136,-775 899.858,-757 921.136,-739 963.693,-739 984.972,-757"/>
<text text-anchor="middle" x="942.415" y="-753.3" font-family="Times New Roman,serif" font-size="14.00">Orange</text>
</g>
<!-- Волгатранстелеком&#45;&gt;Orange -->
<g id="edge64" class="edge"><title>Волгатранстелеком&#45;&gt;Orange</title>
<path fill="none" stroke="black" stroke-dasharray="1,5" d="M799.28,-807.008C810.556,-803.85 822.117,-800.452 832.93,-797 840.097,-794.712 876.069,-781.388 904.654,-770.737"/>
<ellipse fill="none" stroke="black" cx="795.387" cy="-808.087" rx="4.00001" ry="4.00001"/>
<ellipse fill="none" stroke="black" cx="908.742" cy="-769.213" rx="4.00001" ry="4.00001"/>
</g>
<!-- Релком -->
<g id="node6" class="node"><title>Релком</title>
<polygon fill="none" stroke="black" points="987.975,-72 965.195,-90 919.634,-90 896.854,-72 919.634,-54 965.195,-54 987.975,-72"/>
<text text-anchor="middle" x="942.415" y="-68.3" font-family="Times New Roman,serif" font-size="14.00">Релком</text>
</g>
<!-- Мегафон -->
<g id="node7" class="node"><title>Мегафон</title>
<polygon fill="none" stroke="black" points="995.485,-544 968.95,-562 915.88,-562 889.345,-544 915.88,-526 968.95,-526 995.485,-544"/>
<text text-anchor="middle" x="942.415" y="-540.3" font-family="Times New Roman,serif" font-size="14.00">Мегафон</text>
</g>
<!-- Вымпелком -->
<g id="node8" class="node"><title>Вымпелком</title>
<polygon fill="none" stroke="black" points="987.473,-386 964.944,-404 919.885,-404 897.356,-386 919.885,-368 964.944,-368 987.473,-386"/>
<text text-anchor="middle" x="942.415" y="-382.3" font-family="Times New Roman,serif" font-size="14.00">Билайн</text>
</g>
<!-- КоламбияТелеком -->
<g id="node9" class="node"><title>КоламбияТелеком</title>
<polygon fill="none" stroke="black" points="828.49,-986 780.427,-1004 684.302,-1004 636.239,-986 684.302,-968 780.427,-968 828.49,-986"/>
<text text-anchor="middle" x="732.365" y="-982.3" font-family="Times New Roman,serif" font-size="14.00">КоламбияТелеком</text>
</g>
<!-- КоламбияТелеком&#45;&gt;ЭрТелеком -->
<g id="edge40" class="edge"><title>КоламбияТелеком&#45;&gt;ЭрТелеком</title>
<path fill="none" stroke="black" d="M806.161,-972.072C815.578,-968.627 824.77,-964.338 832.93,-959 869.685,-934.954 899.818,-894.393 918.918,-863.994"/>
<ellipse fill="none" stroke="black" cx="802.362" cy="-973.367" rx="4.00001" ry="4.00001"/>
<polygon fill="black" stroke="black" points="921.997,-865.668 924.247,-855.314 916.032,-862.005 921.997,-865.668"/>
</g>
<!-- HE -->
<g id="node11" class="node"><title>HE</title>
<polygon fill="none" stroke="black" points="759.365,-932 745.865,-950 718.865,-950 705.365,-932 718.865,-914 745.865,-914 759.365,-932"/>
<text text-anchor="middle" x="732.365" y="-928.3" font-family="Times New Roman,serif" font-size="14.00">HE</text>
</g>
<!-- КвантТелеком -->
<g id="node12" class="node"><title>КвантТелеком</title>
<polygon fill="none" stroke="black" points="216.282,-839 177.231,-857 99.1293,-857 60.0784,-839 99.1293,-821 177.231,-821 216.282,-839"/>
<text text-anchor="middle" x="138.18" y="-835.3" font-family="Times New Roman,serif" font-size="14.00">КвантТелеком</text>
</g>
<!-- Tele2 -->
<g id="node13" class="node"><title>Tele2</title>
<polygon fill="none" stroke="black" points="1168.09,-920 1150.56,-938 1115.52,-938 1097.99,-920 1115.52,-902 1150.56,-902 1168.09,-920"/>
<text text-anchor="middle" x="1133.04" y="-916.3" font-family="Times New Roman,serif" font-size="14.00">Tele2</text>
</g>
<!-- Tele2&#45;&gt;Транстелеком -->
<g id="edge3" class="edge"><title>Tele2&#45;&gt;Транстелеком</title>
<path fill="none" stroke="black" d="M1165.4,-917.183C1182.32,-913.988 1202.13,-907.232 1214.18,-893 1301.15,-790.246 1320.58,-347.608 1324.23,-230.51"/>
<polygon fill="black" stroke="black" points="1327.73,-230.316 1324.53,-220.216 1320.74,-230.108 1327.73,-230.316"/>
</g>
<!-- Tele2&#45;&gt;Ростелеком -->
<g id="edge2" class="edge"><title>Tele2&#45;&gt;Ростелеком</title>
<path fill="none" stroke="black" d="M1168.18,-920C1191.01,-920 1221.96,-920 1250.33,-920"/>
<polygon fill="black" stroke="black" points="1250.65,-923.5 1260.65,-920 1250.65,-916.5 1250.65,-923.5"/>
</g>
<!-- МТС -->
<g id="node14" class="node"><title>МТС</title>
<polygon fill="none" stroke="black" points="173.228,-893 155.704,-911 120.656,-911 103.133,-893 120.656,-875 155.704,-875 173.228,-893"/>
<text text-anchor="middle" x="138.18" y="-889.3" font-family="Times New Roman,serif" font-size="14.00">МТС</text>
</g>
<!-- ЮТК&#45;&gt;Ростелеком -->
<g id="edge37" class="edge"><title>ЮТК&#45;&gt;Ростелеком</title>
<path fill="none" stroke="black" d="M1191.79,-873.264C1218.72,-882.715 1250.43,-893.84 1276.15,-902.865"/>
<ellipse fill="none" stroke="black" cx="1187.98" cy="-871.928" rx="4.00001" ry="4.00001"/>
<polygon fill="black" stroke="black" points="1275.09,-906.204 1285.69,-906.213 1277.41,-899.599 1275.09,-906.204"/>
</g>
<!-- ПросторТелеком -->
<g id="node17" class="node"><title>ПросторТелеком</title>
<polygon fill="none" stroke="black" points="822.482,-440 777.423,-458 687.306,-458 642.247,-440 687.306,-422 777.423,-422 822.482,-440"/>
<text text-anchor="middle" x="732.365" y="-436.3" font-family="Times New Roman,serif" font-size="14.00">ПросторТелеком</text>
</g>
<!-- ПросторТелеком&#45;&gt;Мегафон -->
<g id="edge24" class="edge"><title>ПросторТелеком&#45;&gt;Мегафон</title>
<path fill="none" stroke="black" d="M791.988,-452.211C805.755,-456.077 820.135,-460.96 832.93,-467 862.247,-480.839 892.03,-502.651 912.953,-519.533"/>
<polygon fill="black" stroke="black" points="910.844,-522.329 920.796,-525.965 915.283,-516.917 910.844,-522.329"/>
</g>
<!-- ПросторТелеком&#45;&gt;Вымпелком -->
<g id="edge23" class="edge"><title>ПросторТелеком&#45;&gt;Вымпелком</title>
<path fill="none" stroke="black" d="M787.484,-425.953C821.924,-417.014 865.927,-405.593 898.059,-397.253"/>
<polygon fill="black" stroke="black" points="899.247,-400.561 908.047,-394.661 897.488,-393.785 899.247,-400.561"/>
</g>
<!-- WestCall -->
<g id="node18" class="node"><title>WestCall</title>
<polygon fill="none" stroke="black" points="993.481,-18 967.948,-36 916.882,-36 891.348,-18 916.882,-2.13163e-014 967.948,-0 993.481,-18"/>
<text text-anchor="middle" x="942.415" y="-14.3" font-family="Times New Roman,serif" font-size="14.00">WestCall</text>
</g>
<!-- Powernet&#45;&gt;Унико -->
<g id="edge35" class="edge"><title>Powernet&#45;&gt;Унико</title>
<path fill="none" stroke="black" d="M697.912,-699.265C675.825,-711.431 648.057,-728.517 631.799,-752 589.816,-812.642 612.226,-842.096 595.799,-914 583.911,-966.036 569.694,-1026.24 560.908,-1060.9"/>
<ellipse fill="none" stroke="black" cx="701.645" cy="-697.236" rx="4.00002" ry="4.00002"/>
<polygon fill="black" stroke="black" points="557.462,-1060.25 558.364,-1070.81 564.242,-1061.99 557.462,-1060.25"/>
</g>
<!-- Powernet&#45;&gt;ЭрТелеком -->
<g id="edge57" class="edge"><title>Powernet&#45;&gt;ЭрТелеком</title>
<path fill="none" stroke="black" stroke-dasharray="1,5" d="M768.891,-697.948C788.67,-709.829 813.205,-725.897 832.93,-743 851.252,-758.886 850.032,-768.804 868.93,-784 874.77,-788.696 881.238,-793.139 887.836,-797.236"/>
<ellipse fill="none" stroke="black" cx="765.277" cy="-695.805" rx="4.00002" ry="4.00002"/>
<ellipse fill="none" stroke="black" cx="891.592" cy="-799.487" rx="4.00002" ry="4.00002"/>
</g>
<!-- Powernet&#45;&gt;Мегафон -->
<g id="edge13" class="edge"><title>Powernet&#45;&gt;Мегафон</title>
<path fill="none" stroke="black" d="M759.714,-661.029C796.872,-637.096 864.75,-593.378 906.199,-566.682"/>
<polygon fill="black" stroke="black" points="908.11,-569.614 914.622,-561.257 904.32,-563.729 908.11,-569.614"/>
</g>
<!-- Powernet&#45;&gt;Вымпелком -->
<g id="edge14" class="edge"><title>Powernet&#45;&gt;Вымпелком</title>
<path fill="none" stroke="black" d="M753.591,-659.925C774.863,-640.299 808.566,-607.401 832.93,-575 843.825,-560.512 899.207,-461.793 926.361,-413.077"/>
<polygon fill="black" stroke="black" points="929.432,-414.757 931.24,-404.317 923.317,-411.351 929.432,-414.757"/>
</g>
<!-- ГородокТочкаРу -->
<g id="node21" class="node"><title>ГородокТочкаРу</title>
<polygon fill="none" stroke="black" points="462.788,-1148.56 391.894,-1161 321,-1148.56 321.066,-1128.44 462.722,-1128.44 462.788,-1148.56"/>
<text text-anchor="middle" x="391.894" y="-1139.3" font-family="Times New Roman,serif" font-size="14.00">Городок.Ру</text>
</g>
<!-- ГородокТочкаРу&#45;&gt;Унико -->
<g id="edge45" class="edge"><title>ГородокТочкаРу&#45;&gt;Унико</title>
<path fill="none" stroke="black" d="M443.346,-1125.73C465.313,-1118.21 490.675,-1109.52 511.221,-1102.49"/>
<ellipse fill="black" stroke="black" cx="439.36" cy="-1127.09" rx="4.00001" ry="4.00001"/>
<polygon fill="black" stroke="black" points="512.557,-1105.73 520.884,-1099.18 510.29,-1099.11 512.557,-1105.73"/>
</g>
<!-- STARLINE -->
<g id="node22" class="node"><title>STARLINE</title>
<polygon fill="none" stroke="black" points="205.647,-952.562 138.18,-965 70.7135,-952.562 70.7765,-932.438 205.584,-932.438 205.647,-952.562"/>
<text text-anchor="middle" x="138.18" y="-943.3" font-family="Times New Roman,serif" font-size="14.00">STARLINE</text>
</g>
<!-- VSSA -->
<g id="node23" class="node"><title>VSSA</title>
<polygon fill="none" stroke="black" points="180.838,-1006.56 138.18,-1019 95.5225,-1006.56 95.5623,-986.438 180.798,-986.438 180.838,-1006.56"/>
<text text-anchor="middle" x="138.18" y="-997.3" font-family="Times New Roman,serif" font-size="14.00">VSSA</text>
</g>
<!-- ИнформационныйСервис -->
<g id="node24" class="node"><title>ИнформационныйСервис</title>
<polygon fill="none" stroke="black" points="276.541,-1060.56 138.18,-1073 -0.180374,-1060.56 -0.0512311,-1040.44 276.412,-1040.44 276.541,-1060.56"/>
<text text-anchor="middle" x="138.18" y="-1051.3" font-family="Times New Roman,serif" font-size="14.00">ИнформационныйСервис</text>
</g>
<!-- SmIT34 -->
<g id="node25" class="node"><title>SmIT34</title>
<polygon fill="none" stroke="black" points="187.799,-1114.56 138.18,-1127 88.5612,-1114.56 88.6075,-1094.44 187.753,-1094.44 187.799,-1114.56"/>
<text text-anchor="middle" x="138.18" y="-1105.3" font-family="Times New Roman,serif" font-size="14.00">SmIT34</text>
</g>
<!-- Связьинформ&#45;&gt;Унико -->
<g id="edge32" class="edge"><title>Связьинформ&#45;&gt;Унико</title>
<path fill="none" stroke="black" d="M1128.74,-519.828C1114.83,-616.053 1051.24,-953.724 832.93,-1062 757.679,-1099.32 657.178,-1098.71 599.212,-1094.27"/>
<ellipse fill="none" stroke="black" cx="1129.31" cy="-515.75" rx="4.00001" ry="4.00001"/>
<polygon fill="black" stroke="black" points="599.156,-1090.75 588.899,-1093.41 598.571,-1097.73 599.156,-1090.75"/>
</g>
<!-- Связьинформ&#45;&gt;Транстелеком -->
<g id="edge1" class="edge"><title>Связьинформ&#45;&gt;Транстелеком</title>
<path fill="none" stroke="black" d="M1143.77,-479.118C1174.28,-432.469 1268.32,-288.642 1307.53,-228.679"/>
<polygon fill="black" stroke="black" points="1310.58,-230.416 1313.12,-220.131 1304.72,-226.585 1310.58,-230.416"/>
</g>
<!-- СпринтСеть -->
<g id="node27" class="node"><title>СпринтСеть</title>
<polygon fill="none" stroke="black" points="805.579,-499.562 732.365,-512 659.151,-499.562 659.219,-479.438 805.51,-479.438 805.579,-499.562"/>
<text text-anchor="middle" x="732.365" y="-490.3" font-family="Times New Roman,serif" font-size="14.00">СпринтСеть</text>
</g>
<!-- СпринтСеть&#45;&gt;Мегафон -->
<g id="edge5" class="edge"><title>СпринтСеть&#45;&gt;Мегафон</title>
<path fill="none" stroke="black" d="M776.979,-504.482C810.815,-512.613 857.7,-523.881 892.752,-532.305"/>
<polygon fill="black" stroke="black" points="892.221,-535.777 902.762,-534.711 893.857,-528.971 892.221,-535.777"/>
</g>
<!-- СпринтСеть&#45;&gt;Вымпелком -->
<g id="edge4" class="edge"><title>СпринтСеть&#45;&gt;Вымпелком</title>
<path fill="none" stroke="black" d="M801.038,-479.358C811.958,-475.951 822.946,-471.861 832.93,-467 863.154,-452.285 893.466,-428.732 914.335,-410.807"/>
<polygon fill="black" stroke="black" points="916.897,-413.217 922.124,-404.001 912.291,-407.946 916.897,-413.217"/>
</g>
<!-- СпринтСеть&#45;&gt;Связьинформ -->
<g id="edge52" class="edge"><title>СпринтСеть&#45;&gt;Связьинформ</title>
<path fill="none" stroke="black" stroke-dasharray="1,5" d="M813.858,-494C880.44,-494 974.884,-494 1043.57,-494"/>
<ellipse fill="none" stroke="black" cx="809.562" cy="-494" rx="4" ry="4"/>
<ellipse fill="none" stroke="black" cx="1047.82" cy="-494" rx="4" ry="4"/>
</g>
<!-- Старнет -->
<g id="node28" class="node"><title>Старнет</title>
<polygon fill="none" stroke="black" points="190.62,-790.562 138.18,-803 85.7407,-790.562 85.7897,-770.438 190.571,-770.438 190.62,-790.562"/>
<text text-anchor="middle" x="138.18" y="-781.3" font-family="Times New Roman,serif" font-size="14.00">Старнет</text>
</g>
<!-- Старнет&#45;&gt;Унико -->
<g id="edge33" class="edge"><title>Старнет&#45;&gt;Унико</title>
<path fill="none" stroke="black" d="M198.763,-781.597C226.264,-783.385 257.03,-790.759 276.36,-812 330.176,-871.135 253.061,-1116.36 312.36,-1170 364.792,-1217.42 406.267,-1197.42 471.428,-1170 497.521,-1159.02 519.307,-1134.77 533.38,-1115.66"/>
<ellipse fill="none" stroke="black" cx="194.724" cy="-781.409" rx="4" ry="4"/>
<polygon fill="black" stroke="black" points="536.374,-1117.48 539.291,-1107.3 530.659,-1113.44 536.374,-1117.48"/>
</g>
<!-- Старнет&#45;&gt;Транстелеком -->
<g id="edge6" class="edge"><title>Старнет&#45;&gt;Транстелеком</title>
<path fill="none" stroke="black" d="M140.832,-770.134C152.652,-671.719 233.261,-118 550.614,-118 550.614,-118 550.614,-118 943.415,-118 1063.59,-118 1200.18,-158.231 1272.9,-183.009"/>
<polygon fill="black" stroke="black" points="1272.14,-186.448 1282.73,-186.397 1274.42,-179.83 1272.14,-186.448"/>
</g>
<!-- Магистраль -->
<g id="node41" class="node"><title>Магистраль</title>
<polygon fill="none" stroke="black" points="462.788,-790.562 391.894,-803 321,-790.562 321.066,-770.438 462.722,-770.438 462.788,-790.562"/>
<text text-anchor="middle" x="391.894" y="-781.3" font-family="Times New Roman,serif" font-size="14.00">Магистраль</text>
</g>
<!-- Старнет&#45;&gt;Магистраль -->
<g id="edge53" class="edge"><title>Старнет&#45;&gt;Магистраль</title>
<path fill="none" stroke="black" stroke-dasharray="1,5" d="M198.564,-785C232.708,-785 276.006,-785 312.871,-785"/>
<ellipse fill="none" stroke="black" cx="194.422" cy="-785" rx="4" ry="4"/>
<ellipse fill="none" stroke="black" cx="317.119" cy="-785" rx="4" ry="4"/>
</g>
<!-- Экспилайн -->
<g id="node29" class="node"><title>Экспилайн</title>
<polygon fill="none" stroke="black" points="799.225,-261.562 732.365,-274 665.504,-261.562 665.567,-241.438 799.163,-241.438 799.225,-261.562"/>
<text text-anchor="middle" x="732.365" y="-252.3" font-family="Times New Roman,serif" font-size="14.00">Экспилайн</text>
</g>
<!-- Экспилайн&#45;&gt;Мегафон -->
<g id="edge7" class="edge"><title>Экспилайн&#45;&gt;Мегафон</title>
<path fill="none" stroke="black" d="M750.134,-270.987C771.009,-290.146 807.062,-324.93 832.93,-359 854.003,-386.754 902.26,-472.83 926.681,-517.1"/>
<polygon fill="black" stroke="black" points="923.623,-518.804 931.512,-525.876 929.755,-515.428 923.623,-518.804"/>
</g>
<!-- Экспилайн&#45;&gt;Связьинформ -->
<g id="edge54" class="edge"><title>Экспилайн&#45;&gt;Связьинформ</title>
<path fill="none" stroke="black" stroke-dasharray="1,5" d="M788.322,-266.922C848.412,-280.834 945.514,-309.254 1015.9,-359 1060.59,-390.585 1099,-443.029 1118.45,-472.39"/>
<ellipse fill="none" stroke="black" cx="784.359" cy="-266.022" rx="4.00001" ry="4.00001"/>
<ellipse fill="none" stroke="black" cx="1120.8" cy="-475.98" rx="4.00002" ry="4.00002"/>
</g>
<!-- ЭРОС -->
<g id="node30" class="node"><title>ЭРОС</title>
<polygon fill="none" stroke="black" points="595.985,-883.562 551.614,-896 507.242,-883.562 507.283,-863.438 595.944,-863.438 595.985,-883.562"/>
<text text-anchor="middle" x="551.614" y="-874.3" font-family="Times New Roman,serif" font-size="14.00">ЭРОС</text>
</g>
<!-- ЭРОС&#45;&gt;Волгатранстелеком -->
<g id="edge8" class="edge"><title>ЭРОС&#45;&gt;Волгатранстелеком</title>
<path fill="none" stroke="black" d="M593.959,-863.346C606.1,-859.194 619.437,-854.78 631.799,-851 642.093,-847.853 653.041,-844.695 663.769,-841.706"/>
<polygon fill="black" stroke="black" points="664.825,-845.045 673.534,-839.012 662.964,-838.297 664.825,-845.045"/>
</g>
<!-- ЭРОС&#45;&gt;Мегафон -->
<g id="edge10" class="edge"><title>ЭРОС&#45;&gt;Мегафон</title>
<path fill="none" stroke="black" d="M556.714,-863.421C565.448,-835.228 588.699,-773.35 631.799,-743 706.181,-690.622 756.949,-755.03 832.93,-705 882.462,-672.385 915.155,-608.544 930.757,-571.811"/>
<polygon fill="black" stroke="black" points="934.136,-572.797 934.704,-562.217 927.662,-570.133 934.136,-572.797"/>
</g>
<!-- ЭРОС&#45;&gt;HE -->
<g id="edge9" class="edge"><title>ЭРОС&#45;&gt;HE</title>
<path fill="none" stroke="black" d="M580.691,-888.061C595.767,-893.34 614.714,-899.777 631.799,-905 654.157,-911.836 679.602,-918.72 699.173,-923.827"/>
<polygon fill="black" stroke="black" points="698.545,-927.28 709.103,-926.397 700.299,-920.503 698.545,-927.28"/>
</g>
<!-- ЭРОС&#45;&gt;Tele2 -->
<g id="edge34" class="edge"><title>ЭРОС&#45;&gt;Tele2</title>
<path fill="none" stroke="black" d="M558.932,-902.713C568.602,-934.752 590.459,-989.322 631.799,-1013 709.368,-1057.43 744.552,-1026.42 832.93,-1013 859.439,-1008.97 1022.63,-955.954 1096.17,-931.819"/>
<ellipse fill="none" stroke="black" cx="557.733" cy="-898.545" rx="4.00001" ry="4.00001"/>
<polygon fill="black" stroke="black" points="1097.52,-935.06 1105.93,-928.614 1095.34,-928.41 1097.52,-935.06"/>
</g>
<!-- Comrise -->
<g id="node31" class="node"><title>Comrise</title>
<polygon fill="none" stroke="black" points="443.226,-575.562 391.894,-588 340.562,-575.562 340.61,-555.438 443.178,-555.438 443.226,-575.562"/>
<text text-anchor="middle" x="391.894" y="-566.3" font-family="Times New Roman,serif" font-size="14.00">Comrise</text>
</g>
<!-- Comrise&#45;&gt;Унико -->
<g id="edge55" class="edge"><title>Comrise&#45;&gt;Унико</title>
<path fill="none" stroke="black" stroke-dasharray="1,5" d="M404.23,-593.654C420.757,-628.842 451.647,-697.347 471.428,-758 476.246,-772.773 526.629,-986.83 544.428,-1062.63"/>
<ellipse fill="none" stroke="black" cx="402.446" cy="-589.877" rx="4.00002" ry="4.00002"/>
<ellipse fill="none" stroke="black" cx="545.422" cy="-1066.87" rx="4.00001" ry="4.00001"/>
</g>
<!-- Comrise&#45;&gt;Вымпелком -->
<g id="edge12" class="edge"><title>Comrise&#45;&gt;Вымпелком</title>
<path fill="none" stroke="black" d="M401.168,-555.43C427.653,-510.48 515.47,-374.046 631.799,-325 714.169,-290.272 746.454,-302.355 832.93,-325 848.356,-329.04 882.056,-348.698 907.83,-364.623"/>
<polygon fill="black" stroke="black" points="906.235,-367.752 916.574,-370.068 909.935,-361.811 906.235,-367.752"/>
</g>
<!-- Comrise&#45;&gt;Ростелеком -->
<g id="edge11" class="edge"><title>Comrise&#45;&gt;Ростелеком</title>
<path fill="none" stroke="black" d="M397.471,-555.423C410.652,-514.653 451.373,-396.827 507.428,-311 573.617,-209.657 610.322,-156 731.365,-156 731.365,-156 731.365,-156 943.415,-156 1279.03,-156 1319.46,-753.379 1324.32,-891.664"/>
<polygon fill="black" stroke="black" points="1320.83,-891.983 1324.64,-901.868 1327.82,-891.763 1320.83,-891.983"/>
</g>
<!-- Comrise&#45;&gt;Powernet -->
<g id="edge56" class="edge"><title>Comrise&#45;&gt;Powernet</title>
<path fill="none" stroke="black" stroke-dasharray="1,5" d="M420.588,-587.246C443.2,-600.644 476.378,-618.776 507.428,-630 565.103,-650.847 634.569,-663.998 680.683,-671.159"/>
<ellipse fill="none" stroke="black" cx="417.065" cy="-585.134" rx="4.00002" ry="4.00002"/>
<ellipse fill="none" stroke="black" cx="684.774" cy="-671.782" rx="4.00001" ry="4.00001"/>
</g>
<!-- Евротелеком -->
<g id="node32" class="node"><title>Евротелеком</title>
<polygon fill="none" stroke="black" points="808.506,-207.562 732.365,-220 656.223,-207.562 656.294,-187.438 808.435,-187.438 808.506,-207.562"/>
<text text-anchor="middle" x="732.365" y="-198.3" font-family="Times New Roman,serif" font-size="14.00">Евротелеком</text>
</g>
<!-- Евротелеком&#45;&gt;Транстелеком -->
<g id="edge15" class="edge"><title>Евротелеком&#45;&gt;Транстелеком</title>
<path fill="none" stroke="black" d="M808.593,-202C919.011,-202 1124.36,-202 1240.06,-202"/>
<polygon fill="black" stroke="black" points="1240.28,-205.5 1250.28,-202 1240.28,-198.5 1240.28,-205.5"/>
</g>
<!-- Евротелеком&#45;&gt;Вымпелком -->
<g id="edge16" class="edge"><title>Евротелеком&#45;&gt;Вымпелком</title>
<path fill="none" stroke="black" d="M791.17,-210.424C805.704,-214.421 820.646,-220.314 832.93,-229 880.158,-262.395 913.425,-323.26 929.807,-358.596"/>
<polygon fill="black" stroke="black" points="926.675,-360.165 933.978,-367.841 933.056,-357.287 926.675,-360.165"/>
</g>
<!-- Virgin -->
<g id="node33" class="node"><title>Virgin</title>
<polygon fill="none" stroke="black" points="591.952,-608.562 551.614,-621 511.276,-608.562 511.313,-588.438 591.914,-588.438 591.952,-608.562"/>
<text text-anchor="middle" x="551.614" y="-599.3" font-family="Times New Roman,serif" font-size="14.00">Virgin</text>
</g>
<!-- Virgin&#45;&gt;Волгатранстелеком -->
<g id="edge50" class="edge"><title>Virgin&#45;&gt;Волгатранстелеком</title>
<path fill="none" stroke="black" d="M555.701,-628.1C562.147,-669.51 580.935,-752.024 631.799,-797 637.472,-802.016 643.987,-806.112 650.911,-809.454"/>
<ellipse fill="black" stroke="black" cx="555.117" cy="-624.111" rx="4.00001" ry="4.00001"/>
<polygon fill="black" stroke="black" points="649.994,-812.868 660.566,-813.561 652.734,-806.426 649.994,-812.868"/>
</g>
<!-- Virgin&#45;&gt;Мегафон -->
<g id="edge18" class="edge"><title>Virgin&#45;&gt;Мегафон</title>
<path fill="none" stroke="black" d="M591.93,-601.292C646.449,-598.42 747.903,-591.26 832.93,-575 854.065,-570.958 877.037,-564.677 896.378,-558.823"/>
<polygon fill="black" stroke="black" points="897.608,-562.106 906.133,-555.814 895.545,-555.417 897.608,-562.106"/>
</g>
<!-- Virgin&#45;&gt;Вымпелком -->
<g id="edge17" class="edge"><title>Virgin&#45;&gt;Вымпелком</title>
<path fill="none" stroke="black" d="M552.047,-588.154C551.282,-544.181 555.785,-414.248 631.799,-359 713.623,-299.529 841.645,-341.64 904.323,-368.447"/>
<polygon fill="black" stroke="black" points="903.24,-371.793 913.804,-372.6 906.049,-365.381 903.24,-371.793"/>
</g>
<!-- Virgin&#45;&gt;Ростелеком -->
<g id="edge19" class="edge"><title>Virgin&#45;&gt;Ростелеком</title>
<path fill="none" stroke="black" d="M591.802,-606.805C646.6,-612.777 748.843,-626.301 832.93,-651 1009.57,-702.886 1060.68,-711.355 1214.18,-813 1248.84,-835.947 1282.25,-870.473 1303.16,-894.059"/>
<polygon fill="black" stroke="black" points="1300.54,-896.378 1309.76,-901.605 1305.81,-891.772 1300.54,-896.378"/>
</g>
<!-- Энфорта -->
<g id="node34" class="node"><title>Энфорта</title>
<polygon fill="none" stroke="black" points="1189.51,-77.5623 1133.04,-90 1076.57,-77.5623 1076.62,-57.4377 1189.46,-57.4377 1189.51,-77.5623"/>
<text text-anchor="middle" x="1133.04" y="-68.3" font-family="Times New Roman,serif" font-size="14.00">Энфорта</text>
</g>
<!-- Энфорта&#45;&gt;Транстелеком -->
<g id="edge22" class="edge"><title>Энфорта&#45;&gt;Транстелеком</title>
<path fill="none" stroke="black" d="M1167.63,-82.4891C1182.46,-87.8467 1199.77,-95.122 1214.18,-104 1247.24,-124.36 1279.89,-154.848 1301.09,-176.403"/>
<polygon fill="black" stroke="black" points="1298.62,-178.882 1308.09,-183.624 1303.64,-174.008 1298.62,-178.882"/>
</g>
<!-- WMAX -->
<g id="node35" class="node"><title>WMAX</title>
<polygon fill="none" stroke="black" points="781.984,-77.5623 732.365,-90 682.746,-77.5623 682.792,-57.4377 781.937,-57.4377 781.984,-77.5623"/>
<text text-anchor="middle" x="732.365" y="-68.3" font-family="Times New Roman,serif" font-size="14.00">WMAX</text>
</g>
<!-- WMAX&#45;&gt;Релком -->
<g id="edge27" class="edge"><title>WMAX&#45;&gt;Релком</title>
<path fill="none" stroke="black" d="M782.143,-72C813.464,-72 854.197,-72 886.63,-72"/>
<polygon fill="black" stroke="black" points="886.846,-75.5001 896.846,-72 886.846,-68.5001 886.846,-75.5001"/>
</g>
<!-- WMAX&#45;&gt;Мегафон -->
<g id="edge25" class="edge"><title>WMAX&#45;&gt;Мегафон</title>
<path fill="none" stroke="black" d="M751.961,-85.2982C775.092,-102.953 813.856,-136.432 832.93,-175 880.355,-270.895 834.491,-311.714 868.93,-413 882.029,-451.523 906.212,-491.917 923.025,-517.489"/>
<polygon fill="black" stroke="black" points="920.17,-519.517 928.635,-525.889 925.992,-515.629 920.17,-519.517"/>
</g>
<!-- WMAX&#45;&gt;WestCall -->
<g id="edge26" class="edge"><title>WMAX&#45;&gt;WestCall</title>
<path fill="none" stroke="black" d="M782.143,-59.3394C816.103,-50.5251 861.128,-38.8386 894.64,-30.1404"/>
<polygon fill="black" stroke="black" points="895.846,-33.4435 904.646,-27.5434 894.088,-26.668 895.846,-33.4435"/>
</g>
<!-- InstrNet -->
<g id="node36" class="node"><title>InstrNet</title>
<polygon fill="none" stroke="black" points="781.984,-775.562 732.365,-788 682.746,-775.562 682.792,-755.438 781.937,-755.438 781.984,-775.562"/>
<text text-anchor="middle" x="732.365" y="-766.3" font-family="Times New Roman,serif" font-size="14.00">InstrNet</text>
</g>
<!-- InstrNet&#45;&gt;ЭрТелеком -->
<g id="edge41" class="edge"><title>InstrNet&#45;&gt;ЭрТелеком</title>
<path fill="none" stroke="black" d="M775.978,-781.061C804.705,-788.517 843.164,-798.499 875.771,-806.962"/>
<ellipse fill="none" stroke="black" cx="772.059" cy="-780.043" rx="4.00001" ry="4.00001"/>
<polygon fill="black" stroke="black" points="875.127,-810.411 885.686,-809.535 876.886,-803.635 875.127,-810.411"/>
</g>
<!-- InstrNet&#45;&gt;Мегафон -->
<g id="edge28" class="edge"><title>InstrNet&#45;&gt;Мегафон</title>
<path fill="none" stroke="black" d="M782.039,-762.065C799.515,-757.339 818.459,-749.845 832.93,-738 836.575,-735.017 897.781,-623.705 926.614,-571.065"/>
<polygon fill="black" stroke="black" points="929.705,-572.706 931.437,-562.254 923.565,-569.345 929.705,-572.706"/>
</g>
<!-- ТСвязь -->
<g id="node37" class="node"><title>ТСвязь</title>
<polygon fill="none" stroke="black" points="781.984,-391.562 732.365,-404 682.746,-391.562 682.792,-371.438 781.937,-371.438 781.984,-391.562"/>
<text text-anchor="middle" x="732.365" y="-382.3" font-family="Times New Roman,serif" font-size="14.00">ТСвязь</text>
</g>
<!-- ТСвязь&#45;&gt;Мегафон -->
<g id="edge29" class="edge"><title>ТСвязь&#45;&gt;Мегафон</title>
<path fill="none" stroke="black" d="M779.163,-392.306C796.966,-396.268 816.892,-402.675 832.93,-413 874.333,-439.653 907.827,-487.165 926.148,-517.054"/>
<polygon fill="black" stroke="black" points="923.199,-518.94 931.339,-525.721 929.204,-515.344 923.199,-518.94"/>
</g>
<!-- ТСвязь&#45;&gt;Вымпелком -->
<g id="edge30" class="edge"><title>ТСвязь&#45;&gt;Вымпелком</title>
<path fill="none" stroke="black" d="M782.143,-386C813.572,-386 854.479,-386 886.966,-386"/>
<polygon fill="black" stroke="black" points="887.195,-389.5 897.195,-386 887.195,-382.5 887.195,-389.5"/>
</g>
<!-- Восток -->
<g id="node38" class="node"><title>Восток</title>
<polygon fill="none" stroke="black" points="780.77,-553.562 732.365,-566 683.959,-553.562 684.004,-533.438 780.725,-533.438 780.77,-553.562"/>
<text text-anchor="middle" x="732.365" y="-544.3" font-family="Times New Roman,serif" font-size="14.00">Восток</text>
</g>
<!-- Восток&#45;&gt;Мегафон -->
<g id="edge31" class="edge"><title>Восток&#45;&gt;Мегафон</title>
<path fill="none" stroke="black" d="M780.574,-547.092C810.216,-546.522 848.736,-545.782 880.648,-545.168"/>
<polygon fill="black" stroke="black" points="880.826,-548.666 890.757,-544.974 880.692,-541.667 880.826,-548.666"/>
</g>
<!-- ВолгаЛинк -->
<g id="node39" class="node"><title>ВолгаЛинк</title>
<polygon fill="none" stroke="black" points="1199.9,-979.562 1133.04,-992 1066.18,-979.562 1066.24,-959.438 1199.84,-959.438 1199.9,-979.562"/>
<text text-anchor="middle" x="1133.04" y="-970.3" font-family="Times New Roman,serif" font-size="14.00">ВолгаЛинк</text>
</g>
<!-- ВолгаЛинк&#45;&gt;Ростелеком -->
<g id="edge42" class="edge"><title>ВолгаЛинк&#45;&gt;Ростелеком</title>
<path fill="none" stroke="black" d="M1193.67,-957.136C1218.92,-949.996 1248.08,-941.749 1272.49,-934.844"/>
<ellipse fill="black" stroke="black" cx="1189.56" cy="-958.298" rx="4.00001" ry="4.00001"/>
<polygon fill="black" stroke="black" points="1273.62,-938.161 1282.29,-932.072 1271.72,-931.425 1273.62,-938.161"/>
</g>
<!-- ИнсаткомВ -->
<g id="node40" class="node"><title>ИнсаткомВ</title>
<polygon fill="none" stroke="black" points="1201.11,-1033.56 1133.04,-1046 1064.97,-1033.56 1065.03,-1013.44 1201.05,-1013.44 1201.11,-1033.56"/>
<text text-anchor="middle" x="1133.04" y="-1024.3" font-family="Times New Roman,serif" font-size="14.00">ИнсаткомВ</text>
</g>
<!-- ИнсаткомВ&#45;&gt;Ростелеком -->
<g id="edge43" class="edge"><title>ИнсаткомВ&#45;&gt;Ростелеком</title>
<path fill="none" stroke="black" d="M1193.26,-1010.36C1200.45,-1007.55 1207.58,-1004.42 1214.18,-1001 1244.2,-985.446 1274.97,-962.254 1296.45,-944.667"/>
<ellipse fill="black" stroke="black" cx="1189.2" cy="-1011.88" rx="4.00001" ry="4.00001"/>
<polygon fill="black" stroke="black" points="1298.74,-947.309 1304.2,-938.229 1294.27,-941.924 1298.74,-947.309"/>
</g>
<!-- Магистраль&#45;&gt;Унико -->
<g id="edge44" class="edge"><title>Магистраль&#45;&gt;Унико</title>
<path fill="none" stroke="black" d="M411.678,-807.02C429.596,-829.131 456.064,-864.87 471.428,-900 500.114,-965.59 468.241,-997.089 507.428,-1057 510.158,-1061.17 513.629,-1065 517.415,-1068.44"/>
<ellipse fill="black" stroke="black" cx="408.953" cy="-803.702" rx="4.00002" ry="4.00002"/>
<polygon fill="black" stroke="black" points="515.506,-1071.4 525.487,-1074.95 519.9,-1065.95 515.506,-1071.4"/>
</g>
<!-- Магистраль&#45;&gt;ЮТК -->
<g id="edge59" class="edge"><title>Магистраль&#45;&gt;ЮТК</title>
<path fill="none" stroke="black" stroke-dasharray="1,5" d="M407.39,-808.142C440.077,-857.765 525.067,-973.126 631.799,-1013 813.699,-1080.96 879.855,-983.035 1051.9,-893 1060.81,-888.335 1070.34,-883.473 1079.6,-878.811"/>
<ellipse fill="none" stroke="black" cx="405.132" cy="-804.668" rx="4.00002" ry="4.00002"/>
<ellipse fill="none" stroke="black" cx="1083.38" cy="-876.916" rx="4.00002" ry="4.00002"/>
</g>
<!-- Магистраль&#45;&gt;Powernet -->
<g id="edge58" class="edge"><title>Магистраль&#45;&gt;Powernet</title>
<path fill="none" stroke="black" stroke-dasharray="1,5" d="M447.122,-767.857C514.197,-746.653 627.017,-710.987 688.412,-691.579"/>
<ellipse fill="none" stroke="black" cx="443.061" cy="-769.141" rx="4.00001" ry="4.00001"/>
<ellipse fill="none" stroke="black" cx="692.548" cy="-690.271" rx="4.00001" ry="4.00001"/>
</g>
<!-- Магистраль&#45;&gt;Евротелеком -->
<g id="edge60" class="edge"><title>Магистраль&#45;&gt;Евротелеком</title>
<path fill="none" stroke="black" stroke-dasharray="1,5" d="M402.116,-762.818C444.691,-660.502 620.647,-238.681 631.799,-229 640.288,-221.631 650.6,-216.252 661.33,-212.331"/>
<ellipse fill="none" stroke="black" cx="400.493" cy="-766.72" rx="4.00001" ry="4.00001"/>
<ellipse fill="none" stroke="black" cx="665.4" cy="-210.983" rx="4.00001" ry="4.00001"/>
</g>
<!-- ФорумNet -->
<g id="node42" class="node"><title>ФорумNet</title>
<polygon fill="none" stroke="black" points="453.614,-1094.56 391.894,-1107 330.174,-1094.56 330.232,-1074.44 453.556,-1074.44 453.614,-1094.56"/>
<text text-anchor="middle" x="391.894" y="-1085.3" font-family="Times New Roman,serif" font-size="14.00">ФорумNet</text>
</g>
<!-- ФорумNet&#45;&gt;Унико -->
<g id="edge46" class="edge"><title>ФорумNet&#45;&gt;Унико</title>
<path fill="none" stroke="black" d="M462.211,-1089C474.637,-1089 487.385,-1089 499.194,-1089"/>
<ellipse fill="black" stroke="black" cx="457.873" cy="-1089" rx="4" ry="4"/>
<polygon fill="black" stroke="black" points="499.299,-1092.5 509.299,-1089 499.299,-1085.5 499.299,-1092.5"/>
</g>
<!-- ByteS -->
<g id="node43" class="node"><title>ByteS</title>
<polygon fill="none" stroke="black" points="432.232,-1040.56 391.894,-1053 351.556,-1040.56 351.594,-1020.44 432.195,-1020.44 432.232,-1040.56"/>
<text text-anchor="middle" x="391.894" y="-1031.3" font-family="Times New Roman,serif" font-size="14.00">ByteS</text>
</g>
<!-- ByteS&#45;&gt;Унико -->
<g id="edge47" class="edge"><title>ByteS&#45;&gt;Унико</title>
<path fill="none" stroke="black" d="M427.949,-1047C452.634,-1055.45 485.707,-1066.78 511.291,-1075.54"/>
<ellipse fill="black" stroke="black" cx="424.151" cy="-1045.7" rx="4.00001" ry="4.00001"/>
<polygon fill="black" stroke="black" points="510.452,-1078.95 521.046,-1078.88 512.719,-1072.33 510.452,-1078.95"/>
</g>
<!-- АвантекПлюс -->
<g id="node44" class="node"><title>АвантекПлюс</title>
<polygon fill="none" stroke="black" points="471.462,-986.562 391.894,-999 312.326,-986.562 312.401,-966.438 471.388,-966.438 471.462,-986.562"/>
<text text-anchor="middle" x="391.894" y="-977.3" font-family="Times New Roman,serif" font-size="14.00">АвантекПлюс</text>
</g>
<!-- АвантекПлюс&#45;&gt;Унико -->
<g id="edge48" class="edge"><title>АвантекПлюс&#45;&gt;Унико</title>
<path fill="none" stroke="black" d="M446.851,-994.652C455.526,-998.192 464.062,-1002.58 471.428,-1008 493.198,-1024.01 488.359,-1037.85 507.428,-1057 511.04,-1060.63 515.086,-1064.17 519.214,-1067.49"/>
<ellipse fill="black" stroke="black" cx="442.958" cy="-993.175" rx="4.00001" ry="4.00001"/>
<polygon fill="black" stroke="black" points="517.099,-1070.28 527.163,-1073.59 521.359,-1064.73 517.099,-1070.28"/>
</g>
<!-- Robor -->
<g id="node45" class="node"><title>Robor</title>
<polygon fill="none" stroke="black" points="1175.7,-23.5623 1133.04,-36 1090.38,-23.5623 1090.42,-3.43769 1175.66,-3.43769 1175.7,-23.5623"/>
<text text-anchor="middle" x="1133.04" y="-14.3" font-family="Times New Roman,serif" font-size="14.00">Robor</text>
</g>
<!-- Robor&#45;&gt;Транстелеком -->
<g id="edge49" class="edge"><title>Robor&#45;&gt;Транстелеком</title>
<path fill="none" stroke="black" d="M1178.65,-27.5641C1190.94,-31.599 1203.75,-37.226 1214.18,-45 1260.75,-79.7199 1295.23,-139.845 1312.52,-174.751"/>
<ellipse fill="black" stroke="black" cx="1174.51" cy="-26.3013" rx="4.00001" ry="4.00001"/>
<polygon fill="black" stroke="black" points="1309.43,-176.406 1316.94,-183.886 1315.74,-173.359 1309.43,-176.406"/>
</g>
<!-- ВистОнЛайн -->
<g id="node46" class="node"><title>ВистОнЛайн</title>
<polygon fill="none" stroke="black" points="468.035,-932.562 391.894,-945 315.753,-932.562 315.824,-912.438 467.964,-912.438 468.035,-932.562"/>
<text text-anchor="middle" x="391.894" y="-923.3" font-family="Times New Roman,serif" font-size="14.00">ВистОнЛайн</text>
</g>
<!-- ВистОнЛайн&#45;&gt;Унико -->
<g id="edge51" class="edge"><title>ВистОнЛайн&#45;&gt;Унико</title>
<path fill="none" stroke="black" d="M450.921,-940.073C458.477,-943.65 465.602,-948.204 471.428,-954 505.805,-988.202 478.676,-1017.95 507.428,-1057 510.385,-1061.02 513.989,-1064.75 517.841,-1068.14"/>
<ellipse fill="black" stroke="black" cx="446.933" cy="-938.377" rx="4.00001" ry="4.00001"/>
<polygon fill="black" stroke="black" points="515.966,-1071.12 525.969,-1074.62 520.326,-1065.65 515.966,-1071.12"/>
</g>
</g>
</svg>
