<?xml version="1.0" encoding="UTF-8" standalone="no"?>
<!DOCTYPE svg PUBLIC "-//W3C//DTD SVG 1.1//EN"
 "http://www.w3.org/Graphics/SVG/1.1/DTD/svg11.dtd">
<!-- Generated by graphviz version 2.38.0 (20140413.2041)
 -->
<!-- Title: ispgraph Pages: 1 -->
<svg width="1410pt" height="1256pt"
 viewBox="0.00 0.00 1409.78 1256.00" xmlns="http://www.w3.org/2000/svg" xmlns:xlink="http://www.w3.org/1999/xlink">
<g id="graph0" class="graph" transform="scale(1 1) rotate(0) translate(4 1252)">
<title>ispgraph</title>
<polygon fill="white" stroke="none" points="-4,4 -4,-1252 1405.78,-1252 1405.78,4 -4,4"/>
<!-- Унико -->
<g id="node1" class="node"><title>Унико</title>
<polygon fill="none" stroke="black" points="593.668,-670 572.641,-688 530.586,-688 509.559,-670 530.586,-652 572.641,-652 593.668,-670"/>
<text text-anchor="middle" x="551.614" y="-666.3" font-family="Times New Roman,serif" font-size="14.00">Унико</text>
</g>
<!-- ЭрТелеком -->
<g id="node3" class="node"><title>ЭрТелеком</title>
<polygon fill="none" stroke="black" points="1015.88,-921 979.15,-952.054 905.68,-952.054 868.945,-921 905.68,-889.946 979.15,-889.946 1015.88,-921"/>
<text text-anchor="middle" x="942.415" y="-924.8" font-family="Times New Roman,serif" font-size="14.00">ЭР&#45;Телеком</text>
<text text-anchor="middle" x="942.415" y="-909.8" font-family="Times New Roman,serif" font-size="14.00">транзит</text>
</g>
<!-- Унико&#45;&gt;ЭрТелеком -->
<g id="edge60" class="edge"><title>Унико&#45;&gt;ЭрТелеком</title>
<path fill="none" stroke="black" stroke-dasharray="1,5" d="M553.588,-696.259C556.878,-743.321 571.074,-841.537 631.799,-889 666.479,-916.106 782.398,-921.672 862.119,-922.136"/>
<ellipse fill="none" stroke="black" cx="553.334" cy="-692.083" rx="4" ry="4"/>
<ellipse fill="none" stroke="black" cx="866.2" cy="-922.151" rx="4" ry="4"/>
</g>
<!-- Ростелеком -->
<g id="node10" class="node"><title>Ростелеком</title>
<polygon fill="none" stroke="black" points="1391.07,-570 1358.52,-588 1293.44,-588 1260.89,-570 1293.44,-552 1358.52,-552 1391.07,-570"/>
<text text-anchor="middle" x="1325.98" y="-566.3" font-family="Times New Roman,serif" font-size="14.00">Ростелеком</text>
</g>
<!-- Унико&#45;&gt;Ростелеком -->
<g id="edge19" class="edge"><title>Унико&#45;&gt;Ростелеком</title>
<path fill="none" stroke="black" d="M586.907,-675.954C686.967,-691.884 985.904,-729.187 1214.18,-651 1247.36,-639.635 1279.02,-614.56 1299.93,-595.299"/>
<polygon fill="black" stroke="black" points="1302.54,-597.654 1307.4,-588.242 1297.73,-592.565 1302.54,-597.654"/>
</g>
<!-- Powernet -->
<g id="node19" class="node"><title>Powernet</title>
<polygon fill="none" stroke="black" points="783.933,-624 758.149,-642 706.58,-642 680.796,-624 706.58,-606 758.149,-606 783.933,-624"/>
<text text-anchor="middle" x="732.365" y="-620.3" font-family="Times New Roman,serif" font-size="14.00">Powernet</text>
</g>
<!-- Унико&#45;&gt;Powernet -->
<g id="edge35" class="edge"><title>Унико&#45;&gt;Powernet</title>
<path fill="none" stroke="black" d="M587.523,-655.534C613.217,-647.541 648.617,-638.178 677.869,-631.525"/>
<ellipse fill="none" stroke="black" cx="583.574" cy="-656.791" rx="4.00001" ry="4.00001"/>
<polygon fill="black" stroke="black" points="678.929,-634.875 687.934,-629.292 677.413,-628.042 678.929,-634.875"/>
</g>
<!-- RETN -->
<g id="node20" class="node"><title>RETN</title>
<polygon fill="none" stroke="black" points="771.918,-808 752.141,-826 712.588,-826 692.812,-808 712.588,-790 752.141,-790 771.918,-808"/>
<text text-anchor="middle" x="732.365" y="-804.3" font-family="Times New Roman,serif" font-size="14.00">RETN</text>
</g>
<!-- Унико&#45;&gt;RETN -->
<g id="edge20" class="edge"><title>Унико&#45;&gt;RETN</title>
<path fill="none" stroke="black" d="M560.757,-688.35C572.719,-713.166 597.408,-757.067 631.799,-781 647.924,-792.221 668.509,-798.784 686.773,-802.619"/>
<polygon fill="black" stroke="black" points="686.161,-806.065 696.637,-804.482 687.46,-799.187 686.161,-806.065"/>
</g>
<!-- ДомРу -->
<g id="node2" class="node"><title>ДомРу</title>
<polygon fill="none" stroke="black" points="786.435,-1008 759.4,-1026 705.329,-1026 678.294,-1008 705.329,-990 759.4,-990 786.435,-1008"/>
<text text-anchor="middle" x="732.365" y="-1004.3" font-family="Times New Roman,serif" font-size="14.00">ДОМ.RU</text>
</g>
<!-- ДомРу&#45;&gt;ЭрТелеком -->
<g id="edge38" class="edge"><title>ДомРу&#45;&gt;ЭрТелеком</title>
<path fill="none" stroke="black" d="M781.755,-997.37C798.272,-993.09 816.668,-987.59 832.93,-981 852.379,-973.119 872.751,-962.537 890.52,-952.455"/>
<ellipse fill="none" stroke="black" cx="777.694" cy="-998.394" rx="4.00001" ry="4.00001"/>
<polygon fill="black" stroke="black" points="892.641,-955.272 899.557,-947.246 889.145,-949.208 892.641,-955.272"/>
</g>
<!-- ЮТК -->
<g id="node15" class="node"><title>ЮТК</title>
<polygon fill="none" stroke="black" points="1204.11,-503 1168.58,-534.054 1097.5,-534.054 1061.97,-503 1097.5,-471.946 1168.58,-471.946 1204.11,-503"/>
<text text-anchor="middle" x="1133.04" y="-506.8" font-family="Times New Roman,serif" font-size="14.00">Ростелеком</text>
<text text-anchor="middle" x="1133.04" y="-491.8" font-family="Times New Roman,serif" font-size="14.00">Волгоград</text>
</g>
<!-- ЭрТелеком&#45;&gt;ЮТК -->
<g id="edge64" class="edge"><title>ЭрТелеком&#45;&gt;ЮТК</title>
<path fill="none" stroke="black" stroke-dasharray="1,5" d="M944.612,-881.51C948.856,-806.999 967.835,-644.097 1051.9,-543 1058.04,-535.621 1065.87,-529.474 1074.23,-524.396"/>
<ellipse fill="none" stroke="black" cx="944.392" cy="-885.727" rx="4" ry="4"/>
<ellipse fill="none" stroke="black" cx="1077.87" cy="-522.343" rx="4.00002" ry="4.00002"/>
</g>
<!-- Связьинформ -->
<g id="node26" class="node"><title>Связьинформ</title>
<polygon fill="none" stroke="black" points="1214.32,-1151.56 1133.04,-1164 1051.76,-1151.56 1051.83,-1131.44 1214.25,-1131.44 1214.32,-1151.56"/>
<text text-anchor="middle" x="1133.04" y="-1142.3" font-family="Times New Roman,serif" font-size="14.00">Связьинформ</text>
</g>
<!-- ЭрТелеком&#45;&gt;Связьинформ -->
<g id="edge65" class="edge"><title>ЭрТелеком&#45;&gt;Связьинформ</title>
<path fill="none" stroke="black" stroke-dasharray="1,5" d="M984.155,-957.867C995.721,-970.032 1007.45,-984.249 1015.9,-999 1043.57,-1047.32 1013.19,-1078.97 1051.9,-1119 1054.82,-1122.02 1058.09,-1124.71 1061.6,-1127.09"/>
<ellipse fill="none" stroke="black" cx="981.297" cy="-954.933" rx="4.00002" ry="4.00002"/>
<ellipse fill="none" stroke="black" cx="1065.18" cy="-1129.25" rx="4.00002" ry="4.00002"/>
</g>
<!-- Транстелеком -->
<g id="node4" class="node"><title>Транстелеком</title>
<polygon fill="none" stroke="black" points="1401.58,-1038 1363.78,-1056 1288.18,-1056 1250.38,-1038 1288.18,-1020 1363.78,-1020 1401.58,-1038"/>
<text text-anchor="middle" x="1325.98" y="-1034.3" font-family="Times New Roman,serif" font-size="14.00">Транстелеком</text>
</g>
<!-- Волгатранстелеком -->
<g id="node5" class="node"><title>Волгатранстелеком</title>
<polygon fill="none" stroke="black" points="832.996,-1100 782.68,-1118 682.049,-1118 631.734,-1100 682.049,-1082 782.68,-1082 832.996,-1100"/>
<text text-anchor="middle" x="732.365" y="-1096.3" font-family="Times New Roman,serif" font-size="14.00">Волгатранстелеком</text>
</g>
<!-- Волгатранстелеком&#45;&gt;ЭрТелеком -->
<g id="edge62" class="edge"><title>Волгатранстелеком&#45;&gt;ЭрТелеком</title>
<path fill="none" stroke="black" stroke-dasharray="1,5" d="M807.559,-1084.82C816.891,-1080.53 825.688,-1075.04 832.93,-1068 867.402,-1034.49 838.804,-1003.46 868.93,-966 874.402,-959.195 881.198,-953.138 888.417,-947.845"/>
<ellipse fill="none" stroke="black" cx="803.666" cy="-1086.45" rx="4.00002" ry="4.00002"/>
<ellipse fill="none" stroke="black" cx="891.85" cy="-945.473" rx="4.00002" ry="4.00002"/>
</g>
<!-- Волгатранстелеком&#45;&gt;Транстелеком -->
<g id="edge37" class="edge"><title>Волгатранстелеком&#45;&gt;Транстелеком</title>
<path fill="none" stroke="black" d="M841.125,-1099.34C896.415,-1094.87 963.059,-1082.8 1015.9,-1053 1037.31,-1040.92 1029.56,-1021.27 1051.9,-1011 1117.43,-980.862 1142.57,-1002.4 1214.18,-1011 1232.26,-1013.17 1251.64,-1017.27 1269.06,-1021.62"/>
<ellipse fill="none" stroke="black" cx="837.041" cy="-1099.65" rx="4" ry="4"/>
<polygon fill="black" stroke="black" points="1268.51,-1025.09 1279.07,-1024.2 1270.26,-1018.32 1268.51,-1025.09"/>
</g>
<!-- Волгатранстелеком&#45;&gt;ЮТК -->
<g id="edge61" class="edge"><title>Волгатранстелеком&#45;&gt;ЮТК</title>
<path fill="none" stroke="black" stroke-dasharray="1,5" d="M805.58,-1084.32C815.439,-1080.1 824.91,-1074.76 832.93,-1068 859.376,-1045.71 841.849,-1020.52 868.93,-999 921.751,-957.026 972.34,-1012.52 1015.9,-961 1076.09,-889.803 999.497,-620.112 1051.9,-543 1057.36,-534.962 1064.93,-528.464 1073.26,-523.234"/>
<ellipse fill="none" stroke="black" cx="801.703" cy="-1085.85" rx="4.00001" ry="4.00001"/>
<ellipse fill="none" stroke="black" cx="1076.93" cy="-521.125" rx="4.00002" ry="4.00002"/>
</g>
<!-- Orange -->
<g id="node16" class="node"><title>Orange</title>
<polygon fill="none" stroke="black" points="984.972,-1026 963.693,-1044 921.136,-1044 899.858,-1026 921.136,-1008 963.693,-1008 984.972,-1026"/>
<text text-anchor="middle" x="942.415" y="-1022.3" font-family="Times New Roman,serif" font-size="14.00">Orange</text>
</g>
<!-- Волгатранстелеком&#45;&gt;Orange -->
<g id="edge63" class="edge"><title>Волгатранстелеком&#45;&gt;Orange</title>
<path fill="none" stroke="black" stroke-dasharray="1,5" d="M794.609,-1080.94C807.322,-1076.81 820.599,-1072.36 832.93,-1068 857.348,-1059.36 884.527,-1048.83 905.573,-1040.48"/>
<ellipse fill="none" stroke="black" cx="790.586" cy="-1082.24" rx="4.00001" ry="4.00001"/>
<ellipse fill="none" stroke="black" cx="909.317" cy="-1038.99" rx="4.00001" ry="4.00001"/>
</g>
<!-- Релком -->
<g id="node6" class="node"><title>Релком</title>
<polygon fill="none" stroke="black" points="987.975,-72 965.195,-90 919.634,-90 896.854,-72 919.634,-54 965.195,-54 987.975,-72"/>
<text text-anchor="middle" x="942.415" y="-68.3" font-family="Times New Roman,serif" font-size="14.00">Релком</text>
</g>
<!-- Мегафон -->
<g id="node7" class="node"><title>Мегафон</title>
<polygon fill="none" stroke="black" points="995.485,-547 968.95,-565 915.88,-565 889.345,-547 915.88,-529 968.95,-529 995.485,-547"/>
<text text-anchor="middle" x="942.415" y="-543.3" font-family="Times New Roman,serif" font-size="14.00">Мегафон</text>
</g>
<!-- Вымпелком -->
<g id="node8" class="node"><title>Вымпелком</title>
<polygon fill="none" stroke="black" points="987.473,-432 964.944,-450 919.885,-450 897.356,-432 919.885,-414 964.944,-414 987.473,-432"/>
<text text-anchor="middle" x="942.415" y="-428.3" font-family="Times New Roman,serif" font-size="14.00">Билайн</text>
</g>
<!-- КоламбияТелеком -->
<g id="node9" class="node"><title>КоламбияТелеком</title>
<polygon fill="none" stroke="black" points="828.49,-954 780.427,-972 684.302,-972 636.239,-954 684.302,-936 780.427,-936 828.49,-954"/>
<text text-anchor="middle" x="732.365" y="-950.3" font-family="Times New Roman,serif" font-size="14.00">КоламбияТелеком</text>
</g>
<!-- КоламбияТелеком&#45;&gt;ЭрТелеком -->
<g id="edge39" class="edge"><title>КоламбияТелеком&#45;&gt;ЭрТелеком</title>
<path fill="none" stroke="black" d="M808.255,-942.121C828.457,-938.917 850.252,-935.46 870.244,-932.289"/>
<ellipse fill="none" stroke="black" cx="804.289" cy="-942.75" rx="4.00001" ry="4.00001"/>
<polygon fill="black" stroke="black" points="870.878,-935.732 880.206,-930.709 869.781,-928.819 870.878,-935.732"/>
</g>
<!-- HE -->
<g id="node11" class="node"><title>HE</title>
<polygon fill="none" stroke="black" points="759.365,-1230 745.865,-1248 718.865,-1248 705.365,-1230 718.865,-1212 745.865,-1212 759.365,-1230"/>
<text text-anchor="middle" x="732.365" y="-1226.3" font-family="Times New Roman,serif" font-size="14.00">HE</text>
</g>
<!-- КвантТелеком -->
<g id="node12" class="node"><title>КвантТелеком</title>
<polygon fill="none" stroke="black" points="216.282,-878 177.231,-896 99.1293,-896 60.0784,-878 99.1293,-860 177.231,-860 216.282,-878"/>
<text text-anchor="middle" x="138.18" y="-874.3" font-family="Times New Roman,serif" font-size="14.00">КвантТелеком</text>
</g>
<!-- Tele2 -->
<g id="node13" class="node"><title>Tele2</title>
<polygon fill="none" stroke="black" points="1168.09,-1038 1150.56,-1056 1115.52,-1056 1097.99,-1038 1115.52,-1020 1150.56,-1020 1168.09,-1038"/>
<text text-anchor="middle" x="1133.04" y="-1034.3" font-family="Times New Roman,serif" font-size="14.00">Tele2</text>
</g>
<!-- Tele2&#45;&gt;Транстелеком -->
<g id="edge3" class="edge"><title>Tele2&#45;&gt;Транстелеком</title>
<path fill="none" stroke="black" d="M1168.18,-1038C1188.25,-1038 1214.6,-1038 1239.96,-1038"/>
<polygon fill="black" stroke="black" points="1239.99,-1041.5 1249.99,-1038 1239.99,-1034.5 1239.99,-1041.5"/>
</g>
<!-- Tele2&#45;&gt;Ростелеком -->
<g id="edge2" class="edge"><title>Tele2&#45;&gt;Ростелеком</title>
<path fill="none" stroke="black" d="M1141.41,-1019.94C1170.65,-948.277 1278.61,-683.663 1313.8,-597.391"/>
<polygon fill="black" stroke="black" points="1317.1,-598.587 1317.63,-588.006 1310.62,-595.942 1317.1,-598.587"/>
</g>
<!-- МТС -->
<g id="node14" class="node"><title>МТС</title>
<polygon fill="none" stroke="black" points="173.228,-932 155.704,-950 120.656,-950 103.133,-932 120.656,-914 155.704,-914 173.228,-932"/>
<text text-anchor="middle" x="138.18" y="-928.3" font-family="Times New Roman,serif" font-size="14.00">МТС</text>
</g>
<!-- ЮТК&#45;&gt;Ростелеком -->
<g id="edge36" class="edge"><title>ЮТК&#45;&gt;Ростелеком</title>
<path fill="none" stroke="black" d="M1191.79,-523.264C1218.72,-532.715 1250.43,-543.84 1276.15,-552.865"/>
<ellipse fill="none" stroke="black" cx="1187.98" cy="-521.928" rx="4.00001" ry="4.00001"/>
<polygon fill="black" stroke="black" points="1275.09,-556.204 1285.69,-556.213 1277.41,-549.599 1275.09,-556.204"/>
</g>
<!-- ПросторТелеком -->
<g id="node17" class="node"><title>ПросторТелеком</title>
<polygon fill="none" stroke="black" points="822.482,-478 777.423,-496 687.306,-496 642.247,-478 687.306,-460 777.423,-460 822.482,-478"/>
<text text-anchor="middle" x="732.365" y="-474.3" font-family="Times New Roman,serif" font-size="14.00">ПросторТелеком</text>
</g>
<!-- ПросторТелеком&#45;&gt;Мегафон -->
<g id="edge22" class="edge"><title>ПросторТелеком&#45;&gt;Мегафон</title>
<path fill="none" stroke="black" d="M783.052,-493.779C799.001,-498.894 816.728,-504.634 832.93,-510 854.1,-517.011 877.524,-524.975 897.173,-531.713"/>
<polygon fill="black" stroke="black" points="896.184,-535.074 906.779,-535.013 898.458,-528.454 896.184,-535.074"/>
</g>
<!-- ПросторТелеком&#45;&gt;Вымпелком -->
<g id="edge21" class="edge"><title>ПросторТелеком&#45;&gt;Вымпелком</title>
<path fill="none" stroke="black" d="M790.766,-465.309C824.157,-457.926 865.629,-448.756 896.601,-441.908"/>
<polygon fill="black" stroke="black" points="897.667,-445.257 906.675,-439.681 896.155,-438.422 897.667,-445.257"/>
</g>
<!-- WestCall -->
<g id="node18" class="node"><title>WestCall</title>
<polygon fill="none" stroke="black" points="993.481,-18 967.948,-36 916.882,-36 891.348,-18 916.882,-2.13163e-014 967.948,-0 993.481,-18"/>
<text text-anchor="middle" x="942.415" y="-14.3" font-family="Times New Roman,serif" font-size="14.00">WestCall</text>
</g>
<!-- Powernet&#45;&gt;Унико -->
<g id="edge34" class="edge"><title>Powernet&#45;&gt;Унико</title>
<path fill="none" stroke="black" d="M692.062,-639.817C664.668,-648.153 628.009,-657.688 599.152,-664.031"/>
<ellipse fill="none" stroke="black" cx="696.067" cy="-638.574" rx="4.00001" ry="4.00001"/>
<polygon fill="black" stroke="black" points="598.267,-660.641 589.218,-666.151 599.728,-667.487 598.267,-660.641"/>
</g>
<!-- Powernet&#45;&gt;ЭрТелеком -->
<g id="edge56" class="edge"><title>Powernet&#45;&gt;ЭрТелеком</title>
<path fill="none" stroke="black" stroke-dasharray="1,5" d="M759.698,-647.611C780.983,-667.505 810.92,-697.386 832.93,-727 870.42,-777.441 904.116,-842.22 923.672,-882.679"/>
<ellipse fill="none" stroke="black" cx="756.598" cy="-644.74" rx="4.00002" ry="4.00002"/>
<ellipse fill="none" stroke="black" cx="925.426" cy="-886.335" rx="4.00002" ry="4.00002"/>
</g>
<!-- Powernet&#45;&gt;Мегафон -->
<g id="edge12" class="edge"><title>Powernet&#45;&gt;Мегафон</title>
<path fill="none" stroke="black" d="M771.652,-615.21C790.36,-610.514 813.066,-604.214 832.93,-597 856.596,-588.406 882.214,-576.718 902.61,-566.803"/>
<polygon fill="black" stroke="black" points="904.157,-569.943 911.588,-562.39 901.069,-563.661 904.157,-569.943"/>
</g>
<!-- Powernet&#45;&gt;Вымпелком -->
<g id="edge13" class="edge"><title>Powernet&#45;&gt;Вымпелком</title>
<path fill="none" stroke="black" d="M778.614,-620.091C797.161,-616.508 817.782,-609.736 832.93,-597 861.845,-572.688 848.761,-551.943 868.93,-520 883.006,-497.707 902.058,-474.788 917.097,-457.93"/>
<polygon fill="black" stroke="black" points="920.004,-459.934 924.118,-450.171 914.813,-455.238 920.004,-459.934"/>
</g>
<!-- ГородокТочкаРу -->
<g id="node21" class="node"><title>ГородокТочкаРу</title>
<polygon fill="none" stroke="black" points="462.788,-567.562 391.894,-580 321,-567.562 321.066,-547.438 462.722,-547.438 462.788,-567.562"/>
<text text-anchor="middle" x="391.894" y="-558.3" font-family="Times New Roman,serif" font-size="14.00">Городок.Ру</text>
</g>
<!-- ГородокТочкаРу&#45;&gt;Унико -->
<g id="edge44" class="edge"><title>ГородокТочкаРу&#45;&gt;Унико</title>
<path fill="none" stroke="black" d="M443.096,-575.347C452.879,-579.013 462.775,-583.527 471.428,-589 494.425,-603.544 515.694,-626.027 530.385,-643.62"/>
<ellipse fill="black" stroke="black" cx="439.071" cy="-573.921" rx="4.00001" ry="4.00001"/>
<polygon fill="black" stroke="black" points="528.021,-646.26 537.048,-651.807 533.451,-641.841 528.021,-646.26"/>
</g>
<!-- STARLINE -->
<g id="node22" class="node"><title>STARLINE</title>
<polygon fill="none" stroke="black" points="205.647,-991.562 138.18,-1004 70.7135,-991.562 70.7765,-971.438 205.584,-971.438 205.647,-991.562"/>
<text text-anchor="middle" x="138.18" y="-982.3" font-family="Times New Roman,serif" font-size="14.00">STARLINE</text>
</g>
<!-- VSSA -->
<g id="node23" class="node"><title>VSSA</title>
<polygon fill="none" stroke="black" points="180.838,-1045.56 138.18,-1058 95.5225,-1045.56 95.5623,-1025.44 180.798,-1025.44 180.838,-1045.56"/>
<text text-anchor="middle" x="138.18" y="-1036.3" font-family="Times New Roman,serif" font-size="14.00">VSSA</text>
</g>
<!-- ИнформационныйСервис -->
<g id="node24" class="node"><title>ИнформационныйСервис</title>
<polygon fill="none" stroke="black" points="276.541,-1099.56 138.18,-1112 -0.180374,-1099.56 -0.0512311,-1079.44 276.412,-1079.44 276.541,-1099.56"/>
<text text-anchor="middle" x="138.18" y="-1090.3" font-family="Times New Roman,serif" font-size="14.00">ИнформационныйСервис</text>
</g>
<!-- SmIT34 -->
<g id="node25" class="node"><title>SmIT34</title>
<polygon fill="none" stroke="black" points="187.799,-1153.56 138.18,-1166 88.5612,-1153.56 88.6075,-1133.44 187.753,-1133.44 187.799,-1153.56"/>
<text text-anchor="middle" x="138.18" y="-1144.3" font-family="Times New Roman,serif" font-size="14.00">SmIT34</text>
</g>
<!-- Связьинформ&#45;&gt;Унико -->
<g id="edge30" class="edge"><title>Связьинформ&#45;&gt;Унико</title>
<path fill="none" stroke="black" d="M1087.56,-1160.67C991.275,-1189.36 761.766,-1240.67 631.799,-1127 566.93,-1070.27 555.179,-788.912 553.07,-698.224"/>
<ellipse fill="none" stroke="black" cx="1091.53" cy="-1159.47" rx="4.00001" ry="4.00001"/>
<polygon fill="black" stroke="black" points="556.567,-698.062 552.858,-688.138 549.569,-698.209 556.567,-698.062"/>
</g>
<!-- Связьинформ&#45;&gt;Транстелеком -->
<g id="edge1" class="edge"><title>Связьинформ&#45;&gt;Транстелеком</title>
<path fill="none" stroke="black" d="M1185.46,-1131.29C1195.22,-1127.77 1205.19,-1123.66 1214.18,-1119 1244.2,-1103.45 1274.97,-1080.25 1296.45,-1062.67"/>
<polygon fill="black" stroke="black" points="1298.74,-1065.31 1304.2,-1056.23 1294.27,-1059.92 1298.74,-1065.31"/>
</g>
<!-- СпринтСеть -->
<g id="node27" class="node"><title>СпринтСеть</title>
<polygon fill="none" stroke="black" points="805.579,-429.562 732.365,-442 659.151,-429.562 659.219,-409.438 805.51,-409.438 805.579,-429.562"/>
<text text-anchor="middle" x="732.365" y="-420.3" font-family="Times New Roman,serif" font-size="14.00">СпринтСеть</text>
</g>
<!-- СпринтСеть&#45;&gt;Мегафон -->
<g id="edge5" class="edge"><title>СпринтСеть&#45;&gt;Мегафон</title>
<path fill="none" stroke="black" d="M789.705,-432.314C804.642,-436.317 820.153,-442.24 832.93,-451 855.219,-466.281 849.272,-481.457 868.93,-500 879.189,-509.677 891.691,-518.586 903.404,-525.986"/>
<polygon fill="black" stroke="black" points="901.8,-529.107 912.157,-531.338 905.451,-523.135 901.8,-529.107"/>
</g>
<!-- СпринтСеть&#45;&gt;Вымпелком -->
<g id="edge4" class="edge"><title>СпринтСеть&#45;&gt;Вымпелком</title>
<path fill="none" stroke="black" d="M805.547,-426.776C832.985,-427.831 863.694,-429.011 888.966,-429.983"/>
<polygon fill="black" stroke="black" points="888.952,-433.485 899.08,-430.372 889.222,-426.49 888.952,-433.485"/>
</g>
<!-- СпринтСеть&#45;&gt;Связьинформ -->
<g id="edge51" class="edge"><title>СпринтСеть&#45;&gt;Связьинформ</title>
<path fill="none" stroke="black" stroke-dasharray="1,5" d="M784.309,-436.808C799.995,-441.021 817.257,-445.933 832.93,-451 915.625,-477.737 964.339,-450.036 1015.9,-520 1095.01,-627.349 970.886,-1013.08 1051.9,-1119 1054.01,-1121.76 1056.41,-1124.23 1059.03,-1126.46"/>
<ellipse fill="none" stroke="black" cx="780.132" cy="-435.699" rx="4.00001" ry="4.00001"/>
<ellipse fill="none" stroke="black" cx="1062.29" cy="-1128.85" rx="4.00002" ry="4.00002"/>
</g>
<!-- Экспилайн -->
<g id="node28" class="node"><title>Экспилайн</title>
<polygon fill="none" stroke="black" points="799.225,-867.562 732.365,-880 665.504,-867.562 665.567,-847.438 799.163,-847.438 799.225,-867.562"/>
<text text-anchor="middle" x="732.365" y="-858.3" font-family="Times New Roman,serif" font-size="14.00">Экспилайн</text>
</g>
<!-- Экспилайн&#45;&gt;Мегафон -->
<g id="edge6" class="edge"><title>Экспилайн&#45;&gt;Мегафон</title>
<path fill="none" stroke="black" d="M799.202,-853.563C811.504,-849.521 823.454,-843.613 832.93,-835 910.379,-764.611 932.82,-633.33 939.09,-575.548"/>
<polygon fill="black" stroke="black" points="942.599,-575.626 940.111,-565.328 935.634,-574.93 942.599,-575.626"/>
</g>
<!-- Экспилайн&#45;&gt;Связьинформ -->
<g id="edge53" class="edge"><title>Экспилайн&#45;&gt;Связьинформ</title>
<path fill="none" stroke="black" stroke-dasharray="1,5" d="M796.736,-845.843C860.505,-833.732 957.532,-827.285 1015.9,-881 1094.62,-953.444 983.146,-1037.04 1051.9,-1119 1054.23,-1121.78 1056.87,-1124.28 1059.72,-1126.52"/>
<ellipse fill="none" stroke="black" cx="792.666" cy="-846.648" rx="4.00001" ry="4.00001"/>
<ellipse fill="none" stroke="black" cx="1063.42" cy="-1129.05" rx="4.00002" ry="4.00002"/>
</g>
<!-- ЭРОС -->
<g id="node29" class="node"><title>ЭРОС</title>
<polygon fill="none" stroke="black" points="595.985,-1147.56 551.614,-1160 507.242,-1147.56 507.283,-1127.44 595.944,-1127.44 595.985,-1147.56"/>
<text text-anchor="middle" x="551.614" y="-1138.3" font-family="Times New Roman,serif" font-size="14.00">ЭРОС</text>
</g>
<!-- ЭРОС&#45;&gt;Волгатранстелеком -->
<g id="edge7" class="edge"><title>ЭРОС&#45;&gt;Волгатранстелеком</title>
<path fill="none" stroke="black" d="M595.884,-1131.83C615.417,-1127.24 638.996,-1121.7 660.97,-1116.54"/>
<polygon fill="black" stroke="black" points="661.999,-1119.89 670.933,-1114.2 660.398,-1113.08 661.999,-1119.89"/>
</g>
<!-- ЭРОС&#45;&gt;Мегафон -->
<g id="edge9" class="edge"><title>ЭРОС&#45;&gt;Мегафон</title>
<path fill="none" stroke="black" d="M553.538,-1127.12C557.957,-1060.46 578.937,-789.883 631.799,-727 693.29,-653.852 752.108,-701.986 832.93,-651 867.079,-629.457 899.585,-595.955 919.955,-572.825"/>
<polygon fill="black" stroke="black" points="922.734,-574.963 926.637,-565.113 917.444,-570.379 922.734,-574.963"/>
</g>
<!-- ЭРОС&#45;&gt;HE -->
<g id="edge8" class="edge"><title>ЭРОС&#45;&gt;HE</title>
<path fill="none" stroke="black" d="M568.371,-1155.35C583.725,-1167.8 608.15,-1186.19 631.799,-1198 653.238,-1208.71 679.038,-1216.88 699.002,-1222.29"/>
<polygon fill="black" stroke="black" points="698.296,-1225.72 708.856,-1224.86 700.065,-1218.95 698.296,-1225.72"/>
</g>
<!-- ЭРОС&#45;&gt;Tele2 -->
<g id="edge33" class="edge"><title>ЭРОС&#45;&gt;Tele2</title>
<path fill="none" stroke="black" d="M604.267,-1144.85C692.291,-1147.8 875.463,-1145.61 1015.9,-1088 1033.47,-1080.79 1034.78,-1073.2 1051.9,-1065 1065.64,-1058.42 1081.42,-1052.73 1095.32,-1048.3"/>
<ellipse fill="none" stroke="black" cx="600.047" cy="-1144.69" rx="4" ry="4"/>
<polygon fill="black" stroke="black" points="1096.53,-1051.59 1105.05,-1045.3 1094.46,-1044.9 1096.53,-1051.59"/>
</g>
<!-- Comrise -->
<g id="node30" class="node"><title>Comrise</title>
<polygon fill="none" stroke="black" points="443.226,-310.562 391.894,-323 340.562,-310.562 340.61,-290.438 443.178,-290.438 443.226,-310.562"/>
<text text-anchor="middle" x="391.894" y="-301.3" font-family="Times New Roman,serif" font-size="14.00">Comrise</text>
</g>
<!-- Comrise&#45;&gt;Унико -->
<g id="edge54" class="edge"><title>Comrise&#45;&gt;Унико</title>
<path fill="none" stroke="black" stroke-dasharray="1,5" d="M403.803,-328.978C419.133,-362.779 447.818,-426.413 471.428,-481 496.572,-539.133 525.041,-607.819 540.05,-644.263"/>
<ellipse fill="none" stroke="black" cx="402.037" cy="-325.087" rx="4.00002" ry="4.00002"/>
<ellipse fill="none" stroke="black" cx="541.695" cy="-648.262" rx="4.00001" ry="4.00001"/>
</g>
<!-- Comrise&#45;&gt;Вымпелком -->
<g id="edge11" class="edge"><title>Comrise&#45;&gt;Вымпелком</title>
<path fill="none" stroke="black" d="M421.443,-290.424C495.083,-255.038 695.309,-173.038 832.93,-251 891.114,-283.961 921.478,-361.937 934.115,-403.978"/>
<polygon fill="black" stroke="black" points="930.824,-405.2 936.951,-413.843 937.551,-403.265 930.824,-405.2"/>
</g>
<!-- Comrise&#45;&gt;Ростелеком -->
<g id="edge10" class="edge"><title>Comrise&#45;&gt;Ростелеком</title>
<path fill="none" stroke="black" d="M406.84,-290.326C450.321,-246.243 589.04,-118 731.365,-118 731.365,-118 731.365,-118 943.415,-118 1166.58,-118 1285.82,-443.699 1316.76,-542.147"/>
<polygon fill="black" stroke="black" points="1313.42,-543.198 1319.71,-551.721 1320.11,-541.134 1313.42,-543.198"/>
</g>
<!-- Comrise&#45;&gt;Powernet -->
<g id="edge55" class="edge"><title>Comrise&#45;&gt;Powernet</title>
<path fill="none" stroke="black" stroke-dasharray="1,5" d="M411.711,-325.854C448.404,-366.822 531.548,-461.127 595.799,-545 612.893,-567.314 608.841,-580.781 631.799,-597 645.879,-606.946 663.445,-613.23 679.887,-617.199"/>
<ellipse fill="none" stroke="black" cx="408.902" cy="-322.724" rx="4.00002" ry="4.00002"/>
<ellipse fill="none" stroke="black" cx="683.943" cy="-618.1" rx="4.00001" ry="4.00001"/>
</g>
<!-- Евротелеком -->
<g id="node31" class="node"><title>Евротелеком</title>
<polygon fill="none" stroke="black" points="808.506,-283.562 732.365,-296 656.223,-283.562 656.294,-263.438 808.435,-263.438 808.506,-283.562"/>
<text text-anchor="middle" x="732.365" y="-274.3" font-family="Times New Roman,serif" font-size="14.00">Евротелеком</text>
</g>
<!-- Евротелеком&#45;&gt;Транстелеком -->
<g id="edge14" class="edge"><title>Евротелеком&#45;&gt;Транстелеком</title>
<path fill="none" stroke="black" d="M790.595,-286.538C856.51,-299.639 962.554,-331.417 1015.9,-405 1080.76,-494.461 1010.92,-548.381 1051.9,-651 1112.89,-803.75 1245.28,-954.057 1300.27,-1012.49"/>
<polygon fill="black" stroke="black" points="1297.77,-1014.94 1307.19,-1019.8 1302.85,-1010.13 1297.77,-1014.94"/>
</g>
<!-- Евротелеком&#45;&gt;Вымпелком -->
<g id="edge15" class="edge"><title>Евротелеком&#45;&gt;Вымпелком</title>
<path fill="none" stroke="black" d="M789.333,-286.777C804.951,-291.509 820.914,-298.792 832.93,-310 864.434,-339.386 839.008,-369.005 868.93,-400 877.059,-408.42 887.79,-414.778 898.496,-419.514"/>
<polygon fill="black" stroke="black" points="897.249,-422.785 907.833,-423.27 899.862,-416.291 897.249,-422.785"/>
</g>
<!-- Virgin -->
<g id="node32" class="node"><title>Virgin</title>
<polygon fill="none" stroke="black" points="591.952,-354.562 551.614,-367 511.276,-354.562 511.313,-334.438 591.914,-334.438 591.952,-354.562"/>
<text text-anchor="middle" x="551.614" y="-345.3" font-family="Times New Roman,serif" font-size="14.00">Virgin</text>
</g>
<!-- Virgin&#45;&gt;Волгатранстелеком -->
<g id="edge49" class="edge"><title>Virgin&#45;&gt;Волгатранстелеком</title>
<path fill="none" stroke="black" d="M556.745,-373.947C565.024,-424.561 583.872,-543.003 595.799,-643 606.16,-729.862 586.673,-960.06 631.799,-1035 642.5,-1052.77 660.14,-1066.6 677.623,-1076.86"/>
<ellipse fill="black" stroke="black" cx="556.066" cy="-369.808" rx="4.00001" ry="4.00001"/>
<polygon fill="black" stroke="black" points="676.271,-1080.11 686.714,-1081.89 679.662,-1073.98 676.271,-1080.11"/>
</g>
<!-- Virgin&#45;&gt;Мегафон -->
<g id="edge17" class="edge"><title>Virgin&#45;&gt;Мегафон</title>
<path fill="none" stroke="black" d="M568.448,-362.194C577.548,-370.505 588.571,-381.921 595.799,-394 622.429,-438.504 591.999,-471.748 631.799,-505 650.806,-520.88 800.273,-535.478 884.384,-542.541"/>
<polygon fill="black" stroke="black" points="884.298,-546.046 894.553,-543.385 884.877,-539.07 884.298,-546.046"/>
</g>
<!-- Virgin&#45;&gt;Вымпелком -->
<g id="edge16" class="edge"><title>Virgin&#45;&gt;Вымпелком</title>
<path fill="none" stroke="black" d="M592.249,-336.414C649.381,-320.743 756.408,-300.823 832.93,-343 859.171,-357.463 846.239,-380.433 868.93,-400 877.874,-407.712 888.971,-413.851 899.771,-418.604"/>
<polygon fill="black" stroke="black" points="898.543,-421.883 909.124,-422.428 901.193,-415.404 898.543,-421.883"/>
</g>
<!-- Virgin&#45;&gt;Ростелеком -->
<g id="edge18" class="edge"><title>Virgin&#45;&gt;Ростелеком</title>
<path fill="none" stroke="black" d="M569.023,-334.216C577.457,-326.243 587.647,-316.008 595.799,-306 614.25,-283.349 606.099,-264.894 631.799,-251 783.447,-169.016 862.982,-225.409 1015.9,-305 1139.05,-369.098 1255.17,-490.837 1302.56,-544.033"/>
<polygon fill="black" stroke="black" points="1300.06,-546.491 1309.3,-551.667 1305.3,-541.856 1300.06,-546.491"/>
</g>
<!-- WMAX -->
<g id="node33" class="node"><title>WMAX</title>
<polygon fill="none" stroke="black" points="781.984,-77.5623 732.365,-90 682.746,-77.5623 682.792,-57.4377 781.937,-57.4377 781.984,-77.5623"/>
<text text-anchor="middle" x="732.365" y="-68.3" font-family="Times New Roman,serif" font-size="14.00">WMAX</text>
</g>
<!-- WMAX&#45;&gt;Релком -->
<g id="edge25" class="edge"><title>WMAX&#45;&gt;Релком</title>
<path fill="none" stroke="black" d="M782.143,-72C813.464,-72 854.197,-72 886.63,-72"/>
<polygon fill="black" stroke="black" points="886.846,-75.5001 896.846,-72 886.846,-68.5001 886.846,-75.5001"/>
</g>
<!-- WMAX&#45;&gt;Мегафон -->
<g id="edge23" class="edge"><title>WMAX&#45;&gt;Мегафон</title>
<path fill="none" stroke="black" d="M744.334,-87.4286C765.091,-117.409 810.075,-186.286 832.93,-251 864.173,-339.464 829.803,-373.73 868.93,-459 879.713,-482.499 898.364,-504.929 914.046,-521.262"/>
<polygon fill="black" stroke="black" points="911.942,-524.112 921.459,-528.769 916.923,-519.194 911.942,-524.112"/>
</g>
<!-- WMAX&#45;&gt;WestCall -->
<g id="edge24" class="edge"><title>WMAX&#45;&gt;WestCall</title>
<path fill="none" stroke="black" d="M782.143,-59.3394C816.103,-50.5251 861.128,-38.8386 894.64,-30.1404"/>
<polygon fill="black" stroke="black" points="895.846,-33.4435 904.646,-27.5434 894.088,-26.668 895.846,-33.4435"/>
</g>
<!-- InstrNet -->
<g id="node34" class="node"><title>InstrNet</title>
<polygon fill="none" stroke="black" points="781.984,-759.562 732.365,-772 682.746,-759.562 682.792,-739.438 781.937,-739.438 781.984,-759.562"/>
<text text-anchor="middle" x="732.365" y="-750.3" font-family="Times New Roman,serif" font-size="14.00">InstrNet</text>
</g>
<!-- InstrNet&#45;&gt;ЭрТелеком -->
<g id="edge40" class="edge"><title>InstrNet&#45;&gt;ЭрТелеком</title>
<path fill="none" stroke="black" d="M787.832,-762.075C803.291,-766.085 819.544,-772.072 832.93,-781 870.765,-806.233 901.093,-849.039 919.959,-880.691"/>
<ellipse fill="none" stroke="black" cx="783.729" cy="-761.088" rx="4.00001" ry="4.00001"/>
<polygon fill="black" stroke="black" points="917.153,-882.827 925.207,-889.71 923.203,-879.307 917.153,-882.827"/>
</g>
<!-- InstrNet&#45;&gt;Мегафон -->
<g id="edge26" class="edge"><title>InstrNet&#45;&gt;Мегафон</title>
<path fill="none" stroke="black" d="M782.012,-745.643C799.384,-740.874 818.267,-733.461 832.93,-722 883.216,-682.697 916.128,-613.093 931.441,-574.572"/>
<polygon fill="black" stroke="black" points="934.787,-575.623 935.125,-565.034 928.257,-573.101 934.787,-575.623"/>
</g>
<!-- ТСвязь -->
<g id="node35" class="node"><title>ТСвязь</title>
<polygon fill="none" stroke="black" points="781.984,-375.562 732.365,-388 682.746,-375.562 682.792,-355.438 781.937,-355.438 781.984,-375.562"/>
<text text-anchor="middle" x="732.365" y="-366.3" font-family="Times New Roman,serif" font-size="14.00">ТСвязь</text>
</g>
<!-- ТСвязь&#45;&gt;Мегафон -->
<g id="edge27" class="edge"><title>ТСвязь&#45;&gt;Мегафон</title>
<path fill="none" stroke="black" d="M782.122,-375.423C799.507,-379.265 818.369,-385.821 832.93,-397 858.204,-416.404 850.741,-432.838 868.93,-459 884.078,-480.787 903.239,-503.888 918.055,-520.953"/>
<polygon fill="black" stroke="black" points="915.72,-523.599 924.944,-528.812 920.985,-518.985 915.72,-523.599"/>
</g>
<!-- ТСвязь&#45;&gt;Вымпелком -->
<g id="edge28" class="edge"><title>ТСвязь&#45;&gt;Вымпелком</title>
<path fill="none" stroke="black" d="M768.498,-379.094C787.614,-384.15 811.639,-390.683 832.93,-397 855.43,-403.676 880.365,-411.678 900.651,-418.345"/>
<polygon fill="black" stroke="black" points="899.611,-421.687 910.204,-421.498 901.805,-415.04 899.611,-421.687"/>
</g>
<!-- Восток -->
<g id="node36" class="node"><title>Восток</title>
<polygon fill="none" stroke="black" points="780.77,-575.562 732.365,-588 683.959,-575.562 684.004,-555.438 780.725,-555.438 780.77,-575.562"/>
<text text-anchor="middle" x="732.365" y="-566.3" font-family="Times New Roman,serif" font-size="14.00">Восток</text>
</g>
<!-- Восток&#45;&gt;Мегафон -->
<g id="edge29" class="edge"><title>Восток&#45;&gt;Мегафон</title>
<path fill="none" stroke="black" d="M780.574,-564.781C811.947,-561.313 853.265,-556.745 886.168,-553.108"/>
<polygon fill="black" stroke="black" points="886.976,-556.54 896.531,-551.962 886.207,-549.582 886.976,-556.54"/>
</g>
<!-- Старнет -->
<g id="node37" class="node"><title>Старнет</title>
<polygon fill="none" stroke="black" points="190.62,-829.562 138.18,-842 85.7407,-829.562 85.7897,-809.438 190.571,-809.438 190.62,-829.562"/>
<text text-anchor="middle" x="138.18" y="-820.3" font-family="Times New Roman,serif" font-size="14.00">Старнет</text>
</g>
<!-- Старнет&#45;&gt;Унико -->
<g id="edge31" class="edge"><title>Старнет&#45;&gt;Унико</title>
<path fill="none" stroke="black" d="M185.708,-834.228C253.894,-846.542 382.493,-859.37 471.428,-805 510.546,-781.085 532.499,-730.045 542.92,-698.027"/>
<ellipse fill="none" stroke="black" cx="181.631" cy="-833.467" rx="4.00001" ry="4.00001"/>
<polygon fill="black" stroke="black" points="546.299,-698.947 545.905,-688.359 539.61,-696.881 546.299,-698.947"/>
</g>
<!-- Старнет&#45;&gt;ЭрТелеком -->
<g id="edge32" class="edge"><title>Старнет&#45;&gt;ЭрТелеком</title>
<path fill="none" stroke="black" d="M196.275,-831.522C221.287,-835.76 250.72,-842.045 276.36,-851 444.297,-909.653 458.964,-992.916 631.799,-1035 718.653,-1056.15 757.632,-1083.18 832.93,-1035 865.091,-1014.42 842.32,-984.381 868.93,-957 873.008,-952.804 877.677,-949.021 882.637,-945.627"/>
<ellipse fill="none" stroke="black" cx="192.267" cy="-830.865" rx="4.00001" ry="4.00001"/>
<polygon fill="black" stroke="black" points="884.576,-948.542 891.206,-940.278 880.869,-942.604 884.576,-948.542"/>
</g>
<!-- Магистраль -->
<g id="node40" class="node"><title>Магистраль</title>
<polygon fill="none" stroke="black" points="462.788,-513.562 391.894,-526 321,-513.562 321.066,-493.438 462.722,-493.438 462.788,-513.562"/>
<text text-anchor="middle" x="391.894" y="-504.3" font-family="Times New Roman,serif" font-size="14.00">Магистраль</text>
</g>
<!-- Старнет&#45;&gt;Магистраль -->
<g id="edge52" class="edge"><title>Старнет&#45;&gt;Магистраль</title>
<path fill="none" stroke="black" stroke-dasharray="1,5" d="M146.492,-801.64C165.226,-747.78 220.075,-609.786 312.36,-535 319.711,-529.043 328.454,-524.366 337.392,-520.704"/>
<ellipse fill="none" stroke="black" cx="145.186" cy="-805.465" rx="4.00001" ry="4.00001"/>
<ellipse fill="none" stroke="black" cx="341.178" cy="-519.274" rx="4.00001" ry="4.00001"/>
</g>
<!-- ВолгаЛинк -->
<g id="node38" class="node"><title>ВолгаЛинк</title>
<polygon fill="none" stroke="black" points="1199.9,-629.562 1133.04,-642 1066.18,-629.562 1066.24,-609.438 1199.84,-609.438 1199.9,-629.562"/>
<text text-anchor="middle" x="1133.04" y="-620.3" font-family="Times New Roman,serif" font-size="14.00">ВолгаЛинк</text>
</g>
<!-- ВолгаЛинк&#45;&gt;Ростелеком -->
<g id="edge41" class="edge"><title>ВолгаЛинк&#45;&gt;Ростелеком</title>
<path fill="none" stroke="black" d="M1193.67,-607.136C1218.92,-599.996 1248.08,-591.749 1272.49,-584.844"/>
<ellipse fill="black" stroke="black" cx="1189.56" cy="-608.298" rx="4.00001" ry="4.00001"/>
<polygon fill="black" stroke="black" points="1273.62,-588.161 1282.29,-582.072 1271.72,-581.425 1273.62,-588.161"/>
</g>
<!-- ИнсаткомВ -->
<g id="node39" class="node"><title>ИнсаткомВ</title>
<polygon fill="none" stroke="black" points="1201.11,-575.562 1133.04,-588 1064.97,-575.562 1065.03,-555.438 1201.05,-555.438 1201.11,-575.562"/>
<text text-anchor="middle" x="1133.04" y="-566.3" font-family="Times New Roman,serif" font-size="14.00">ИнсаткомВ</text>
</g>
<!-- ИнсаткомВ&#45;&gt;Ростелеком -->
<g id="edge42" class="edge"><title>ИнсаткомВ&#45;&gt;Ростелеком</title>
<path fill="none" stroke="black" d="M1209.6,-570C1223.11,-570 1237.18,-570 1250.66,-570"/>
<ellipse fill="black" stroke="black" cx="1205.36" cy="-570" rx="4" ry="4"/>
<polygon fill="black" stroke="black" points="1250.83,-573.5 1260.83,-570 1250.83,-566.5 1250.83,-573.5"/>
</g>
<!-- Магистраль&#45;&gt;Унико -->
<g id="edge43" class="edge"><title>Магистраль&#45;&gt;Унико</title>
<path fill="none" stroke="black" d="M447.116,-520.779C455.836,-524.423 464.318,-529.075 471.428,-535 496.499,-555.894 490.946,-570.832 507.428,-599 516.012,-613.67 525.842,-629.875 533.952,-643.095"/>
<ellipse fill="black" stroke="black" cx="443.156" cy="-519.261" rx="4.00001" ry="4.00001"/>
<polygon fill="black" stroke="black" points="531.035,-645.032 539.256,-651.714 536.996,-641.363 531.035,-645.032"/>
</g>
<!-- Магистраль&#45;&gt;ЮТК -->
<g id="edge58" class="edge"><title>Магистраль&#45;&gt;ЮТК</title>
<path fill="none" stroke="black" stroke-dasharray="1,5" d="M402.089,-485.885C418.576,-448.36 456.28,-371.477 507.428,-322 553.176,-277.747 570.279,-267.324 631.799,-251 798.423,-206.788 880.099,-198.809 1015.9,-305 1068.91,-346.453 1102.52,-419.368 1119.26,-464.204"/>
<ellipse fill="none" stroke="black" cx="400.483" cy="-489.6" rx="4.00002" ry="4.00002"/>
<ellipse fill="none" stroke="black" cx="1120.72" cy="-468.206" rx="4.00001" ry="4.00001"/>
</g>
<!-- Магистраль&#45;&gt;Powernet -->
<g id="edge57" class="edge"><title>Магистраль&#45;&gt;Powernet</title>
<path fill="none" stroke="black" stroke-dasharray="1,5" d="M435.999,-522.492C447.538,-526.461 459.984,-530.822 471.428,-535 543.212,-561.205 559.186,-573.19 631.799,-597 649.203,-602.707 668.591,-608.163 685.6,-612.658"/>
<ellipse fill="none" stroke="black" cx="431.963" cy="-521.11" rx="4.00001" ry="4.00001"/>
<ellipse fill="none" stroke="black" cx="689.87" cy="-613.773" rx="4.00001" ry="4.00001"/>
</g>
<!-- Магистраль&#45;&gt;Евротелеком -->
<g id="edge59" class="edge"><title>Магистраль&#45;&gt;Евротелеком</title>
<path fill="none" stroke="black" stroke-dasharray="1,5" d="M425.189,-489.262C466.181,-464.974 538.457,-420.444 595.799,-376 612.955,-362.703 614.654,-356.31 631.799,-343 653.824,-325.901 680.326,-308.75 700.448,-296.362"/>
<ellipse fill="none" stroke="black" cx="421.599" cy="-491.381" rx="4.00002" ry="4.00002"/>
<ellipse fill="none" stroke="black" cx="703.868" cy="-294.273" rx="4.00002" ry="4.00002"/>
</g>
<!-- ФорумNet -->
<g id="node41" class="node"><title>ФорумNet</title>
<polygon fill="none" stroke="black" points="453.614,-783.562 391.894,-796 330.174,-783.562 330.232,-763.438 453.556,-763.438 453.614,-783.562"/>
<text text-anchor="middle" x="391.894" y="-774.3" font-family="Times New Roman,serif" font-size="14.00">ФорумNet</text>
</g>
<!-- ФорумNet&#45;&gt;Унико -->
<g id="edge45" class="edge"><title>ФорумNet&#45;&gt;Унико</title>
<path fill="none" stroke="black" d="M454.114,-760.149C460.149,-757.454 466.03,-754.414 471.428,-751 494.425,-736.456 515.694,-713.973 530.385,-696.38"/>
<ellipse fill="black" stroke="black" cx="450.1" cy="-761.832" rx="4.00001" ry="4.00001"/>
<polygon fill="black" stroke="black" points="533.451,-698.159 537.048,-688.193 528.021,-693.74 533.451,-698.159"/>
</g>
<!-- ByteS -->
<g id="node42" class="node"><title>ByteS</title>
<polygon fill="none" stroke="black" points="432.232,-729.562 391.894,-742 351.556,-729.562 351.594,-709.438 432.195,-709.438 432.232,-729.562"/>
<text text-anchor="middle" x="391.894" y="-720.3" font-family="Times New Roman,serif" font-size="14.00">ByteS</text>
</g>
<!-- ByteS&#45;&gt;Унико -->
<g id="edge46" class="edge"><title>ByteS&#45;&gt;Унико</title>
<path fill="none" stroke="black" d="M439.909,-707.903C462.759,-700.08 489.898,-690.788 511.585,-683.363"/>
<ellipse fill="black" stroke="black" cx="436.071" cy="-709.217" rx="4.00001" ry="4.00001"/>
<polygon fill="black" stroke="black" points="512.804,-686.645 521.131,-680.094 510.537,-680.022 512.804,-686.645"/>
</g>
<!-- АвантекПлюс -->
<g id="node43" class="node"><title>АвантекПлюс</title>
<polygon fill="none" stroke="black" points="471.462,-675.562 391.894,-688 312.326,-675.562 312.401,-655.438 471.388,-655.438 471.462,-675.562"/>
<text text-anchor="middle" x="391.894" y="-666.3" font-family="Times New Roman,serif" font-size="14.00">АвантекПлюс</text>
</g>
<!-- АвантекПлюс&#45;&gt;Унико -->
<g id="edge47" class="edge"><title>АвантекПлюс&#45;&gt;Унико</title>
<path fill="none" stroke="black" d="M479.928,-670C486.437,-670 492.87,-670 499.049,-670"/>
<ellipse fill="black" stroke="black" cx="475.754" cy="-670" rx="4" ry="4"/>
<polygon fill="black" stroke="black" points="499.175,-673.5 509.175,-670 499.175,-666.5 499.175,-673.5"/>
</g>
<!-- Robor -->
<g id="node44" class="node"><title>Robor</title>
<polygon fill="none" stroke="black" points="1175.7,-1097.56 1133.04,-1110 1090.38,-1097.56 1090.42,-1077.44 1175.66,-1077.44 1175.7,-1097.56"/>
<text text-anchor="middle" x="1133.04" y="-1088.3" font-family="Times New Roman,serif" font-size="14.00">Robor</text>
</g>
<!-- Robor&#45;&gt;Транстелеком -->
<g id="edge48" class="edge"><title>Robor&#45;&gt;Транстелеком</title>
<path fill="none" stroke="black" d="M1183.95,-1077.89C1209.88,-1070.55 1241.68,-1061.56 1268.51,-1053.97"/>
<ellipse fill="black" stroke="black" cx="1179.79" cy="-1079.06" rx="4.00001" ry="4.00001"/>
<polygon fill="black" stroke="black" points="1269.48,-1057.33 1278.15,-1051.24 1267.57,-1050.6 1269.48,-1057.33"/>
</g>
<!-- ВистОнЛайн -->
<g id="node45" class="node"><title>ВистОнЛайн</title>
<polygon fill="none" stroke="black" points="468.035,-621.562 391.894,-634 315.753,-621.562 315.824,-601.438 467.964,-601.438 468.035,-621.562"/>
<text text-anchor="middle" x="391.894" y="-612.3" font-family="Times New Roman,serif" font-size="14.00">ВистОнЛайн</text>
</g>
<!-- ВистОнЛайн&#45;&gt;Унико -->
<g id="edge50" class="edge"><title>ВистОнЛайн&#45;&gt;Унико</title>
<path fill="none" stroke="black" d="M436.07,-630.782C459.613,-638.843 488.533,-648.745 511.424,-656.582"/>
<ellipse fill="black" stroke="black" cx="432.074" cy="-629.414" rx="4.00001" ry="4.00001"/>
<polygon fill="black" stroke="black" points="510.558,-659.985 521.153,-659.913 512.826,-653.363 510.558,-659.985"/>
</g>
</g>
</svg>
