<?xml version="1.0" encoding="UTF-8" standalone="no"?>
<!DOCTYPE svg PUBLIC "-//W3C//DTD SVG 1.1//EN"
 "http://www.w3.org/Graphics/SVG/1.1/DTD/svg11.dtd">
<!-- Generated by graphviz version 2.38.0 (20140413.2041)
 -->
<!-- Title: ispgraph Pages: 1 -->
<svg width="1463pt" height="1211pt"
 viewBox="0.00 0.00 1462.80 1210.88" xmlns="http://www.w3.org/2000/svg" xmlns:xlink="http://www.w3.org/1999/xlink">
<g id="graph0" class="graph" transform="scale(1 1) rotate(0) translate(4 1206.88)">
<title>ispgraph</title>
<polygon fill="white" stroke="none" points="-4,4 -4,-1206.88 1458.8,-1206.88 1458.8,4 -4,4"/>
<!-- Унико -->
<g id="node1" class="node"><title>Унико</title>
<polygon fill="none" stroke="black" points="827.442,-872 806.415,-890 764.36,-890 743.332,-872 764.36,-854 806.415,-854 827.442,-872"/>
<text text-anchor="middle" x="785.387" y="-868.3" font-family="Times New Roman,serif" font-size="14.00">Унико</text>
</g>
<!-- ЭрТелеком -->
<g id="node3" class="node"><title>ЭрТелеком</title>
<polygon fill="none" stroke="black" points="1068.91,-683 1032.17,-714.054 958.703,-714.054 921.968,-683 958.703,-651.946 1032.17,-651.946 1068.91,-683"/>
<text text-anchor="middle" x="995.437" y="-686.8" font-family="Times New Roman,serif" font-size="14.00">ЭР&#45;Телеком</text>
<text text-anchor="middle" x="995.437" y="-671.8" font-family="Times New Roman,serif" font-size="14.00">транзит</text>
</g>
<!-- Унико&#45;&gt;ЭрТелеком -->
<g id="edge53" class="edge"><title>Унико&#45;&gt;ЭрТелеком</title>
<path fill="none" stroke="black" stroke-dasharray="1,5" d="M832.5,-867.645C850.738,-863.973 870.896,-857.255 885.953,-845 913.393,-822.666 902.832,-803.769 921.953,-774 933.805,-755.547 948.644,-736.375 961.803,-720.415"/>
<ellipse fill="none" stroke="black" cx="828.216" cy="-868.418" rx="4.00001" ry="4.00001"/>
<ellipse fill="none" stroke="black" cx="964.385" cy="-717.313" rx="4.00002" ry="4.00002"/>
</g>
<!-- Ростелеком -->
<g id="node10" class="node"><title>Ростелеком</title>
<polygon fill="none" stroke="black" points="1444.09,-811 1411.55,-829 1346.46,-829 1313.92,-811 1346.46,-793 1411.55,-793 1444.09,-811"/>
<text text-anchor="middle" x="1379" y="-807.3" font-family="Times New Roman,serif" font-size="14.00">Ростелеком</text>
</g>
<!-- Унико&#45;&gt;Ростелеком -->
<g id="edge15" class="edge"><title>Унико&#45;&gt;Ростелеком</title>
<path fill="none" stroke="black" d="M825.763,-873.627C908.392,-876.259 1105.6,-878.424 1267.2,-848 1288.77,-843.94 1311.9,-836.7 1331.42,-829.695"/>
<polygon fill="black" stroke="black" points="1332.81,-832.917 1340.98,-826.181 1330.39,-826.347 1332.81,-832.917"/>
</g>
<!-- RETN -->
<g id="node19" class="node"><title>RETN</title>
<polygon fill="none" stroke="black" points="1034.99,-978 1015.21,-996 975.661,-996 955.884,-978 975.661,-960 1015.21,-960 1034.99,-978"/>
<text text-anchor="middle" x="995.437" y="-974.3" font-family="Times New Roman,serif" font-size="14.00">RETN</text>
</g>
<!-- Унико&#45;&gt;RETN -->
<g id="edge16" class="edge"><title>Унико&#45;&gt;RETN</title>
<path fill="none" stroke="black" d="M812.316,-885.211C849.707,-904.261 918.822,-939.474 960.316,-960.616"/>
<polygon fill="black" stroke="black" points="958.983,-963.864 969.482,-965.286 962.161,-957.627 958.983,-963.864"/>
</g>
<!-- ДомРу -->
<g id="node2" class="node"><title>ДомРу</title>
<polygon fill="none" stroke="black" points="839.458,-672 812.422,-690 758.352,-690 731.317,-672 758.352,-654 812.422,-654 839.458,-672"/>
<text text-anchor="middle" x="785.387" y="-668.3" font-family="Times New Roman,serif" font-size="14.00">ДОМ.RU</text>
</g>
<!-- ДомРу&#45;&gt;ЭрТелеком -->
<g id="edge30" class="edge"><title>ДомРу&#45;&gt;ЭрТелеком</title>
<path fill="none" stroke="black" d="M843.8,-675.036C866.125,-676.216 892.061,-677.587 916.055,-678.856"/>
<ellipse fill="none" stroke="black" cx="839.687" cy="-674.818" rx="4" ry="4"/>
<polygon fill="black" stroke="black" points="916.033,-682.359 926.204,-679.392 916.403,-675.369 916.033,-682.359"/>
</g>
<!-- ЮТК -->
<g id="node15" class="node"><title>ЮТК</title>
<polygon fill="none" stroke="black" points="1257.13,-683 1221.6,-714.054 1150.53,-714.054 1114.99,-683 1150.53,-651.946 1221.6,-651.946 1257.13,-683"/>
<text text-anchor="middle" x="1186.06" y="-686.8" font-family="Times New Roman,serif" font-size="14.00">Ростелеком</text>
<text text-anchor="middle" x="1186.06" y="-671.8" font-family="Times New Roman,serif" font-size="14.00">Волгоград</text>
</g>
<!-- ЭрТелеком&#45;&gt;ЮТК -->
<g id="edge57" class="edge"><title>ЭрТелеком&#45;&gt;ЮТК</title>
<path fill="none" stroke="black" stroke-dasharray="1,5" d="M1077.27,-683C1087.06,-683 1097.05,-683 1106.8,-683"/>
<ellipse fill="none" stroke="black" cx="1073.1" cy="-683" rx="4" ry="4"/>
<ellipse fill="none" stroke="black" cx="1110.93" cy="-683" rx="4" ry="4"/>
</g>
<!-- Связьинформ -->
<g id="node25" class="node"><title>Связьинформ</title>
<polygon fill="none" stroke="black" points="1267.34,-476.562 1186.06,-489 1104.78,-476.562 1104.86,-456.438 1267.27,-456.438 1267.34,-476.562"/>
<text text-anchor="middle" x="1186.06" y="-467.3" font-family="Times New Roman,serif" font-size="14.00">Связьинформ</text>
</g>
<!-- ЭрТелеком&#45;&gt;Связьинформ -->
<g id="edge58" class="edge"><title>ЭрТелеком&#45;&gt;Связьинформ</title>
<path fill="none" stroke="black" stroke-dasharray="1,5" d="M1036.88,-645.958C1048.43,-633.787 1060.23,-619.609 1068.92,-605 1094.57,-561.878 1069.45,-533.486 1104.92,-498 1110.68,-492.237 1117.71,-487.704 1125.19,-484.138"/>
<ellipse fill="none" stroke="black" cx="1034.03" cy="-648.895" rx="4.00002" ry="4.00002"/>
<ellipse fill="none" stroke="black" cx="1129.11" cy="-482.46" rx="4.00002" ry="4.00002"/>
</g>
<!-- Транстелеком -->
<g id="node4" class="node"><title>Транстелеком</title>
<polygon fill="none" stroke="black" points="1454.6,-498 1416.8,-516 1341.2,-516 1303.4,-498 1341.2,-480 1416.8,-480 1454.6,-498"/>
<text text-anchor="middle" x="1379" y="-494.3" font-family="Times New Roman,serif" font-size="14.00">Транстелеком</text>
</g>
<!-- Волгатранстелеком -->
<g id="node5" class="node"><title>Волгатранстелеком</title>
<polygon fill="none" stroke="black" points="886.018,-580 835.703,-598 735.072,-598 684.756,-580 735.072,-562 835.703,-562 886.018,-580"/>
<text text-anchor="middle" x="785.387" y="-576.3" font-family="Times New Roman,serif" font-size="14.00">Волгатранстелеком</text>
</g>
<!-- Волгатранстелеком&#45;&gt;ЭрТелеком -->
<g id="edge55" class="edge"><title>Волгатранстелеком&#45;&gt;ЭрТелеком</title>
<path fill="none" stroke="black" stroke-dasharray="1,5" d="M851.605,-597.697C863.302,-601.781 875.187,-606.555 885.953,-612 903.565,-620.907 905.559,-627.011 921.953,-638 929.3,-642.925 937.164,-648.001 944.904,-652.89"/>
<ellipse fill="none" stroke="black" cx="847.748" cy="-596.393" rx="4.00001" ry="4.00001"/>
<ellipse fill="none" stroke="black" cx="948.57" cy="-655.191" rx="4.00002" ry="4.00002"/>
</g>
<!-- Волгатранстелеком&#45;&gt;Транстелеком -->
<g id="edge29" class="edge"><title>Волгатранстелеком&#45;&gt;Транстелеком</title>
<path fill="none" stroke="black" d="M854.258,-563.525C864.976,-560.372 875.849,-556.842 885.953,-553 987.566,-514.364 999.098,-468.883 1104.92,-444 1175.13,-427.491 1196.92,-427.786 1267.2,-444 1293.18,-449.992 1320.11,-462.939 1340.91,-474.653"/>
<ellipse fill="none" stroke="black" cx="850.338" cy="-564.65" rx="4.00001" ry="4.00001"/>
<polygon fill="black" stroke="black" points="1339.32,-477.772 1349.73,-479.745 1342.82,-471.711 1339.32,-477.772"/>
</g>
<!-- Волгатранстелеком&#45;&gt;ЮТК -->
<g id="edge54" class="edge"><title>Волгатранстелеком&#45;&gt;ЮТК</title>
<path fill="none" stroke="black" stroke-dasharray="1,5" d="M859.641,-593.982C917.011,-605.496 998.601,-623.118 1068.92,-643 1088.31,-648.483 1109.22,-655.368 1127.87,-661.874"/>
<ellipse fill="none" stroke="black" cx="855.633" cy="-593.181" rx="4.00001" ry="4.00001"/>
<ellipse fill="none" stroke="black" cx="1131.94" cy="-663.306" rx="4.00001" ry="4.00001"/>
</g>
<!-- Orange -->
<g id="node16" class="node"><title>Orange</title>
<polygon fill="none" stroke="black" points="1037.99,-578 1016.72,-596 974.159,-596 952.881,-578 974.159,-560 1016.72,-560 1037.99,-578"/>
<text text-anchor="middle" x="995.437" y="-574.3" font-family="Times New Roman,serif" font-size="14.00">Orange</text>
</g>
<!-- Волгатранстелеком&#45;&gt;Orange -->
<g id="edge56" class="edge"><title>Волгатранстелеком&#45;&gt;Orange</title>
<path fill="none" stroke="black" stroke-dasharray="1,5" d="M891.773,-578.987C910.414,-578.808 928.997,-578.629 945.127,-578.474"/>
<ellipse fill="none" stroke="black" cx="887.712" cy="-579.026" rx="4" ry="4"/>
<ellipse fill="none" stroke="black" cx="949.326" cy="-578.434" rx="4" ry="4"/>
</g>
<!-- Релком -->
<g id="node6" class="node"><title>Релком</title>
<polygon fill="none" stroke="black" points="183.741,-745 160.96,-763 115.4,-763 92.6195,-745 115.4,-727 160.96,-727 183.741,-745"/>
<text text-anchor="middle" x="138.18" y="-741.3" font-family="Times New Roman,serif" font-size="14.00">Релком</text>
</g>
<!-- Мегафон -->
<g id="node7" class="node"><title>Мегафон</title>
<polygon fill="none" stroke="black" points="1048.51,-322 1021.97,-340 968.902,-340 942.367,-322 968.902,-304 1021.97,-304 1048.51,-322"/>
<text text-anchor="middle" x="995.437" y="-318.3" font-family="Times New Roman,serif" font-size="14.00">Мегафон</text>
</g>
<!-- Вымпелком -->
<g id="node8" class="node"><title>Вымпелком</title>
<polygon fill="none" stroke="black" points="1040.5,-191 1017.97,-209 972.908,-209 950.379,-191 972.908,-173 1017.97,-173 1040.5,-191"/>
<text text-anchor="middle" x="995.437" y="-187.3" font-family="Times New Roman,serif" font-size="14.00">Билайн</text>
</g>
<!-- КоламбияТелеком -->
<g id="node9" class="node"><title>КоламбияТелеком</title>
<polygon fill="none" stroke="black" points="881.512,-818 833.45,-836 737.325,-836 689.262,-818 737.325,-800 833.45,-800 881.512,-818"/>
<text text-anchor="middle" x="785.387" y="-814.3" font-family="Times New Roman,serif" font-size="14.00">КоламбияТелеком</text>
</g>
<!-- КоламбияТелеком&#45;&gt;ЭрТелеком -->
<g id="edge31" class="edge"><title>КоламбияТелеком&#45;&gt;ЭрТелеком</title>
<path fill="none" stroke="black" d="M852.244,-801.469C863.878,-797.268 875.576,-792.153 885.953,-786 914.528,-769.056 941.633,-743.328 961.602,-721.825"/>
<ellipse fill="none" stroke="black" cx="848.404" cy="-802.794" rx="4.00001" ry="4.00001"/>
<polygon fill="black" stroke="black" points="964.206,-724.164 968.359,-714.417 959.034,-719.447 964.206,-724.164"/>
</g>
<!-- HE -->
<g id="node11" class="node"><title>HE</title>
<polygon fill="none" stroke="black" points="812.387,-326 798.887,-344 771.887,-344 758.387,-326 771.887,-308 798.887,-308 812.387,-326"/>
<text text-anchor="middle" x="785.387" y="-322.3" font-family="Times New Roman,serif" font-size="14.00">HE</text>
</g>
<!-- КвантТелеком -->
<g id="node12" class="node"><title>КвантТелеком</title>
<polygon fill="none" stroke="black" points="216.282,-799 177.231,-817 99.1293,-817 60.0784,-799 99.1293,-781 177.231,-781 216.282,-799"/>
<text text-anchor="middle" x="138.18" y="-795.3" font-family="Times New Roman,serif" font-size="14.00">КвантТелеком</text>
</g>
<!-- Tele2 -->
<g id="node13" class="node"><title>Tele2</title>
<polygon fill="none" stroke="black" points="820.435,-1049 802.911,-1067 767.864,-1067 750.34,-1049 767.864,-1031 802.911,-1031 820.435,-1049"/>
<text text-anchor="middle" x="785.387" y="-1045.3" font-family="Times New Roman,serif" font-size="14.00">Tele2</text>
</g>
<!-- Tele2&#45;&gt;RETN -->
<g id="edge2" class="edge"><title>Tele2&#45;&gt;RETN</title>
<path fill="none" stroke="black" d="M812.316,-1040.15C848.62,-1027.76 914.83,-1005.17 956.628,-990.903"/>
<polygon fill="black" stroke="black" points="957.849,-994.185 966.183,-987.642 955.588,-987.56 957.849,-994.185"/>
</g>
<!-- МТС -->
<g id="node14" class="node"><title>МТС</title>
<polygon fill="none" stroke="black" points="173.228,-853 155.704,-871 120.656,-871 103.133,-853 120.656,-835 155.704,-835 173.228,-853"/>
<text text-anchor="middle" x="138.18" y="-849.3" font-family="Times New Roman,serif" font-size="14.00">МТС</text>
</g>
<!-- ЮТК&#45;&gt;Ростелеком -->
<g id="edge28" class="edge"><title>ЮТК&#45;&gt;Ростелеком</title>
<path fill="none" stroke="black" d="M1238.02,-710.287C1247.84,-715.917 1257.95,-721.974 1267.2,-728 1295.42,-746.377 1325.94,-769.499 1347.79,-786.668"/>
<ellipse fill="none" stroke="black" cx="1234.41" cy="-708.242" rx="4.00002" ry="4.00002"/>
<polygon fill="black" stroke="black" points="1345.7,-789.478 1355.71,-792.934 1350.04,-783.987 1345.7,-789.478"/>
</g>
<!-- ПросторТелеком -->
<g id="node17" class="node"><title>ПросторТелеком</title>
<polygon fill="none" stroke="black" points="875.505,-218 830.446,-236 740.329,-236 695.27,-218 740.329,-200 830.446,-200 875.505,-218"/>
<text text-anchor="middle" x="785.387" y="-214.3" font-family="Times New Roman,serif" font-size="14.00">ПросторТелеком</text>
</g>
<!-- ПросторТелеком&#45;&gt;Мегафон -->
<g id="edge18" class="edge"><title>ПросторТелеком&#45;&gt;Мегафон</title>
<path fill="none" stroke="black" d="M845.01,-230.211C858.778,-234.077 873.158,-238.96 885.953,-245 915.27,-258.839 945.052,-280.651 965.976,-297.533"/>
<polygon fill="black" stroke="black" points="963.867,-300.329 973.818,-303.965 968.306,-294.917 963.867,-300.329"/>
</g>
<!-- ПросторТелеком&#45;&gt;Вымпелком -->
<g id="edge17" class="edge"><title>ПросторТелеком&#45;&gt;Вымпелком</title>
<path fill="none" stroke="black" d="M853.935,-209.234C884.025,-205.329 918.778,-200.819 946.191,-197.261"/>
<polygon fill="black" stroke="black" points="946.847,-200.706 956.314,-195.948 945.946,-193.764 946.847,-200.706"/>
</g>
<!-- WestCall -->
<g id="node18" class="node"><title>WestCall</title>
<polygon fill="none" stroke="black" points="189.247,-907 163.713,-925 112.647,-925 87.1136,-907 112.647,-889 163.713,-889 189.247,-907"/>
<text text-anchor="middle" x="138.18" y="-903.3" font-family="Times New Roman,serif" font-size="14.00">WestCall</text>
</g>
<!-- ГородокТочкаРу -->
<g id="node20" class="node"><title>ГородокТочкаРу</title>
<polygon fill="none" stroke="black" points="640.182,-850.562 569.288,-863 498.394,-850.562 498.46,-830.438 640.116,-830.438 640.182,-850.562"/>
<text text-anchor="middle" x="569.288" y="-841.3" font-family="Times New Roman,serif" font-size="14.00">Городок.Ру</text>
</g>
<!-- ГородокТочкаРу&#45;&gt;Унико -->
<g id="edge37" class="edge"><title>ГородокТочкаРу&#45;&gt;Унико</title>
<path fill="none" stroke="black" d="M637.824,-853.517C670.601,-857.65 709.128,-862.509 738.453,-866.207"/>
<ellipse fill="black" stroke="black" cx="633.611" cy="-852.986" rx="4.00001" ry="4.00001"/>
<polygon fill="black" stroke="black" points="738.059,-869.685 748.418,-867.464 738.934,-862.74 738.059,-869.685"/>
</g>
<!-- СМАРТС -->
<g id="node21" class="node"><title>СМАРТС</title>
<polygon fill="none" stroke="black" points="639.133,-1070.33 569.288,-1093.43 499.443,-1070.33 499.508,-1032.96 639.068,-1032.96 639.133,-1070.33"/>
<text text-anchor="middle" x="569.288" y="-1063.8" font-family="Times New Roman,serif" font-size="14.00">Tele2</text>
<text text-anchor="middle" x="569.288" y="-1048.8" font-family="Times New Roman,serif" font-size="14.00">Волгоград</text>
</g>
<!-- СМАРТС&#45;&gt;Tele2 -->
<g id="edge33" class="edge"><title>СМАРТС&#45;&gt;Tele2</title>
<path fill="none" stroke="black" d="M647.277,-1056.04C679.028,-1054.41 714.618,-1052.58 741.58,-1051.2"/>
<ellipse fill="none" stroke="black" cx="643.203" cy="-1056.25" rx="4" ry="4"/>
<polygon fill="black" stroke="black" points="742.025,-1054.68 751.832,-1050.67 741.666,-1047.69 742.025,-1054.68"/>
</g>
<!-- VSSA -->
<g id="node22" class="node"><title>VSSA</title>
<polygon fill="none" stroke="black" points="180.838,-966.562 138.18,-979 95.5225,-966.562 95.5623,-946.438 180.798,-946.438 180.838,-966.562"/>
<text text-anchor="middle" x="138.18" y="-957.3" font-family="Times New Roman,serif" font-size="14.00">VSSA</text>
</g>
<!-- ИнформационныйСервис -->
<g id="node23" class="node"><title>ИнформационныйСервис</title>
<polygon fill="none" stroke="black" points="276.541,-1020.56 138.18,-1033 -0.180374,-1020.56 -0.0512311,-1000.44 276.412,-1000.44 276.541,-1020.56"/>
<text text-anchor="middle" x="138.18" y="-1011.3" font-family="Times New Roman,serif" font-size="14.00">ИнформационныйСервис</text>
</g>
<!-- WMAX -->
<g id="node24" class="node"><title>WMAX</title>
<polygon fill="none" stroke="black" points="187.799,-1074.56 138.18,-1087 88.5612,-1074.56 88.6075,-1054.44 187.753,-1054.44 187.799,-1074.56"/>
<text text-anchor="middle" x="138.18" y="-1065.3" font-family="Times New Roman,serif" font-size="14.00">WMAX</text>
</g>
<!-- Связьинформ&#45;&gt;Унико -->
<g id="edge24" class="edge"><title>Связьинформ&#45;&gt;Унико</title>
<path fill="none" stroke="black" d="M1122.66,-484.131C1115.95,-487.702 1109.8,-492.238 1104.92,-498 1039.51,-575.31 1123.63,-637.777 1068.92,-723 1014.47,-807.828 894.895,-847.314 830.135,-863.08"/>
<ellipse fill="none" stroke="black" cx="1126.51" cy="-482.323" rx="4.00002" ry="4.00002"/>
<polygon fill="black" stroke="black" points="829.163,-859.713 820.231,-865.41 830.766,-866.527 829.163,-859.713"/>
</g>
<!-- Связьинформ&#45;&gt;Транстелеком -->
<g id="edge1" class="edge"><title>Связьинформ&#45;&gt;Транстелеком</title>
<path fill="none" stroke="black" d="M1247.74,-479.58C1267.64,-482.394 1289.87,-485.538 1310.26,-488.42"/>
<polygon fill="black" stroke="black" points="1310.02,-491.922 1320.41,-489.856 1311,-484.991 1310.02,-491.922"/>
</g>
<!-- СпринтСеть -->
<g id="node26" class="node"><title>СпринтСеть</title>
<polygon fill="none" stroke="black" points="858.601,-77.5623 785.387,-90 712.173,-77.5623 712.242,-57.4377 858.533,-57.4377 858.601,-77.5623"/>
<text text-anchor="middle" x="785.387" y="-68.3" font-family="Times New Roman,serif" font-size="14.00">СпринтСеть</text>
</g>
<!-- СпринтСеть&#45;&gt;Мегафон -->
<g id="edge4" class="edge"><title>СпринтСеть&#45;&gt;Мегафон</title>
<path fill="none" stroke="black" d="M815.366,-85.2093C837.183,-96.3832 866.548,-114.209 885.953,-137 911.492,-166.996 902.602,-183.685 921.953,-218 937.56,-245.677 958.618,-275.214 974.014,-295.711"/>
<polygon fill="black" stroke="black" points="971.401,-298.058 980.233,-303.909 976.978,-293.827 971.401,-298.058"/>
</g>
<!-- СпринтСеть&#45;&gt;Вымпелком -->
<g id="edge3" class="edge"><title>СпринтСеть&#45;&gt;Вымпелком</title>
<path fill="none" stroke="black" d="M837.434,-81.2723C854.074,-86.0729 871.872,-93.2711 885.953,-104 909.191,-121.706 899.673,-140.101 921.953,-159 930.959,-166.639 942.076,-172.754 952.876,-177.507"/>
<polygon fill="black" stroke="black" points="951.644,-180.784 962.224,-181.338 954.298,-174.307 951.644,-180.784"/>
</g>
<!-- СпринтСеть&#45;&gt;Связьинформ -->
<g id="edge44" class="edge"><title>СпринтСеть&#45;&gt;Связьинформ</title>
<path fill="none" stroke="black" stroke-dasharray="1,5" d="M865.224,-79.1147C927.815,-88.7014 1013.7,-111.201 1068.92,-164 1152.98,-244.372 1176.83,-391.704 1183.04,-448.158"/>
<ellipse fill="none" stroke="black" cx="860.897" cy="-78.4803" rx="4.00001" ry="4.00001"/>
<ellipse fill="none" stroke="black" cx="1183.48" cy="-452.435" rx="4" ry="4"/>
</g>
<!-- Экспилайн -->
<g id="node27" class="node"><title>Экспилайн</title>
<polygon fill="none" stroke="black" points="852.248,-423.562 785.387,-436 718.527,-423.562 718.589,-403.438 852.185,-403.438 852.248,-423.562"/>
<text text-anchor="middle" x="785.387" y="-414.3" font-family="Times New Roman,serif" font-size="14.00">Экспилайн</text>
</g>
<!-- Экспилайн&#45;&gt;Мегафон -->
<g id="edge5" class="edge"><title>Экспилайн&#45;&gt;Мегафон</title>
<path fill="none" stroke="black" d="M839.398,-403.363C854.685,-398.503 871.211,-392.618 885.953,-386 911.612,-374.48 938.874,-358.38 959.65,-345.21"/>
<polygon fill="black" stroke="black" points="961.606,-348.113 968.133,-339.767 957.826,-342.221 961.606,-348.113"/>
</g>
<!-- Экспилайн&#45;&gt;Связьинформ -->
<g id="edge46" class="edge"><title>Экспилайн&#45;&gt;Связьинформ</title>
<path fill="none" stroke="black" stroke-dasharray="1,5" d="M850.466,-426.519C917.195,-435.39 1022.2,-449.349 1096.76,-459.262"/>
<ellipse fill="none" stroke="black" cx="846.206" cy="-425.952" rx="4.00001" ry="4.00001"/>
<ellipse fill="none" stroke="black" cx="1100.83" cy="-459.801" rx="4.00001" ry="4.00001"/>
</g>
<!-- ЭРОС -->
<g id="node28" class="node"><title>ЭРОС</title>
<polygon fill="none" stroke="black" points="613.66,-398.562 569.288,-411 524.916,-398.562 524.957,-378.438 613.618,-378.438 613.66,-398.562"/>
<text text-anchor="middle" x="569.288" y="-389.3" font-family="Times New Roman,serif" font-size="14.00">ЭРОС</text>
</g>
<!-- ЭРОС&#45;&gt;Волгатранстелеком -->
<g id="edge6" class="edge"><title>ЭРОС&#45;&gt;Волгатранстелеком</title>
<path fill="none" stroke="black" d="M582.593,-407.47C598.585,-426.537 627.036,-461.365 648.822,-493 666.46,-518.612 660.02,-534.239 684.822,-553 691.321,-557.916 698.655,-561.938 706.322,-565.227"/>
<polygon fill="black" stroke="black" points="705.216,-568.552 715.805,-568.888 707.737,-562.021 705.216,-568.552"/>
</g>
<!-- ЭРОС&#45;&gt;HE -->
<g id="edge7" class="edge"><title>ЭРОС&#45;&gt;HE</title>
<path fill="none" stroke="black" d="M613.614,-379.442C655.162,-366.44 716.845,-347.137 753.594,-335.636"/>
<polygon fill="black" stroke="black" points="754.762,-338.938 763.26,-332.611 752.671,-332.258 754.762,-338.938"/>
</g>
<!-- Comrise -->
<g id="node29" class="node"><title>Comrise</title>
<polygon fill="none" stroke="black" points="434.389,-631.562 383.057,-644 331.725,-631.562 331.773,-611.438 434.341,-611.438 434.389,-631.562"/>
<text text-anchor="middle" x="383.057" y="-622.3" font-family="Times New Roman,serif" font-size="14.00">Comrise</text>
</g>
<!-- Comrise&#45;&gt;Унико -->
<g id="edge47" class="edge"><title>Comrise&#45;&gt;Унико</title>
<path fill="none" stroke="black" stroke-dasharray="1,5" d="M442.727,-629.867C511.641,-635.64 620.22,-648.987 648.822,-677 703.376,-730.431 632.295,-789.574 684.822,-845 698.069,-858.979 717.755,-865.978 736.132,-869.395"/>
<ellipse fill="none" stroke="black" cx="438.514" cy="-629.524" rx="4" ry="4"/>
<ellipse fill="none" stroke="black" cx="740.506" cy="-870.094" rx="4.00001" ry="4.00001"/>
</g>
<!-- Comrise&#45;&gt;Вымпелком -->
<g id="edge9" class="edge"><title>Comrise&#45;&gt;Вымпелком</title>
<path fill="none" stroke="black" d="M387.055,-611.318C402.489,-540.24 480.323,-231.437 684.822,-137 765.978,-99.5224 799.902,-112.788 885.953,-137 904.003,-142.079 905.339,-150.305 921.953,-159 932.699,-164.624 944.641,-170.17 955.681,-175.024"/>
<polygon fill="black" stroke="black" points="954.53,-178.34 965.097,-179.097 957.309,-171.915 954.53,-178.34"/>
</g>
<!-- Comrise&#45;&gt;Ростелеком -->
<g id="edge8" class="edge"><title>Comrise&#45;&gt;Ростелеком</title>
<path fill="none" stroke="black" d="M400.295,-639.902C416.922,-655.207 441.951,-681.456 453.754,-710 487.181,-790.839 425.131,-1043.04 489.754,-1102 682.558,-1277.91 906.121,-1208.99 1068.92,-1005 1137.3,-919.322 1021.95,-832.632 1104.92,-761 1172.11,-703.001 1283.94,-754.315 1341.42,-787.688"/>
<polygon fill="black" stroke="black" points="1339.78,-790.782 1350.16,-792.871 1343.35,-784.761 1339.78,-790.782"/>
</g>
<!-- Powernet -->
<g id="node30" class="node"><title>Powernet</title>
<polygon fill="none" stroke="black" points="624.653,-612.562 569.288,-625 513.922,-612.562 513.974,-592.438 624.602,-592.438 624.653,-612.562"/>
<text text-anchor="middle" x="569.288" y="-603.3" font-family="Times New Roman,serif" font-size="14.00">Powernet</text>
</g>
<!-- Comrise&#45;&gt;Powernet -->
<g id="edge48" class="edge"><title>Comrise&#45;&gt;Powernet</title>
<path fill="none" stroke="black" stroke-dasharray="1,5" d="M442.643,-619.958C462.771,-617.882 485.372,-615.551 505.798,-613.445"/>
<ellipse fill="none" stroke="black" cx="438.378" cy="-620.398" rx="4" ry="4"/>
<ellipse fill="none" stroke="black" cx="509.828" cy="-613.029" rx="4" ry="4"/>
</g>
<!-- Powernet&#45;&gt;Унико -->
<g id="edge27" class="edge"><title>Powernet&#45;&gt;Унико</title>
<path fill="none" stroke="black" d="M619.948,-618.499C630.874,-623.195 641.39,-629.78 648.822,-639 707.151,-711.361 622.186,-776.333 684.822,-845 697.391,-858.78 716.211,-865.817 734.116,-869.316"/>
<ellipse fill="none" stroke="black" cx="616.077" cy="-616.992" rx="4.00001" ry="4.00001"/>
<polygon fill="black" stroke="black" points="733.778,-872.807 744.209,-870.954 734.899,-865.897 733.778,-872.807"/>
</g>
<!-- Powernet&#45;&gt;ЭрТелеком -->
<g id="edge49" class="edge"><title>Powernet&#45;&gt;ЭрТелеком</title>
<path fill="none" stroke="black" stroke-dasharray="1,5" d="M617.785,-618.668C629.19,-623.389 640.471,-629.944 648.822,-639 684.839,-678.062 641.966,-721.592 684.822,-753 756.923,-805.842 800.205,-778.263 885.953,-753 909.315,-746.117 932.389,-732.467 951.21,-719.033"/>
<ellipse fill="none" stroke="black" cx="614.042" cy="-617.244" rx="4.00001" ry="4.00001"/>
<ellipse fill="none" stroke="black" cx="954.716" cy="-716.468" rx="4.00002" ry="4.00002"/>
</g>
<!-- Powernet&#45;&gt;Мегафон -->
<g id="edge10" class="edge"><title>Powernet&#45;&gt;Мегафон</title>
<path fill="none" stroke="black" d="M624.755,-596.691C633.852,-592.788 642.402,-587.41 648.822,-580 704.815,-515.372 624.312,-451.42 684.822,-391 749.197,-326.72 797.428,-373.964 885.953,-353 906.729,-348.08 929.48,-341.729 948.758,-336.059"/>
<polygon fill="black" stroke="black" points="949.904,-339.37 958.493,-333.167 947.911,-332.659 949.904,-339.37"/>
</g>
<!-- Евротелеком -->
<g id="node31" class="node"><title>Евротелеком</title>
<polygon fill="none" stroke="black" points="861.529,-23.5623 785.387,-36 709.246,-23.5623 709.317,-3.43769 861.457,-3.43769 861.529,-23.5623"/>
<text text-anchor="middle" x="785.387" y="-14.3" font-family="Times New Roman,serif" font-size="14.00">Евротелеком</text>
</g>
<!-- Евротелеком&#45;&gt;Транстелеком -->
<g id="edge11" class="edge"><title>Евротелеком&#45;&gt;Транстелеком</title>
<path fill="none" stroke="black" d="M837.483,-27.5591C904.307,-43.1116 1018.75,-80.9372 1068.92,-164 1113.69,-238.122 1040.93,-493.667 1104.92,-552 1171.37,-612.57 1285.47,-556.581 1342.86,-521.461"/>
<polygon fill="black" stroke="black" points="1344.94,-524.289 1351.57,-516.024 1341.23,-518.351 1344.94,-524.289"/>
</g>
<!-- Евротелеком&#45;&gt;Вымпелком -->
<g id="edge12" class="edge"><title>Евротелеком&#45;&gt;Вымпелком</title>
<path fill="none" stroke="black" d="M850.531,-25.3756C863.535,-29.448 876.197,-35.6368 885.953,-45 924.287,-81.7913 886.501,-119.423 921.953,-159 929.761,-167.717 940.386,-174.175 951.091,-178.912"/>
<polygon fill="black" stroke="black" points="949.867,-182.191 960.452,-182.645 952.46,-175.689 949.867,-182.191"/>
</g>
<!-- Virgin -->
<g id="node32" class="node"><title>Virgin</title>
<polygon fill="none" stroke="black" points="825.725,-477.562 785.387,-490 745.049,-477.562 745.087,-457.438 825.688,-457.438 825.725,-477.562"/>
<text text-anchor="middle" x="785.387" y="-468.3" font-family="Times New Roman,serif" font-size="14.00">Virgin</text>
</g>
<!-- Virgin&#45;&gt;Мегафон -->
<g id="edge13" class="edge"><title>Virgin&#45;&gt;Мегафон</title>
<path fill="none" stroke="black" d="M825.863,-466.75C845.068,-462.882 867.855,-456.256 885.953,-445 925.66,-420.304 959.067,-376.674 977.917,-348.567"/>
<polygon fill="black" stroke="black" points="980.958,-350.312 983.515,-340.03 975.104,-346.473 980.958,-350.312"/>
</g>
<!-- Virgin&#45;&gt;Ростелеком -->
<g id="edge14" class="edge"><title>Virgin&#45;&gt;Ростелеком</title>
<path fill="none" stroke="black" d="M825.782,-470.436C887.767,-470.321 1007.33,-480.026 1068.92,-551 1146.53,-640.44 1015.71,-737.127 1104.92,-815 1135.56,-841.747 1247.78,-830.848 1318.48,-820.748"/>
<polygon fill="black" stroke="black" points="1319.2,-824.179 1328.59,-819.268 1318.19,-817.253 1319.2,-824.179"/>
</g>
<!-- InstrNet -->
<g id="node33" class="node"><title>InstrNet</title>
<polygon fill="none" stroke="black" points="835.006,-531.562 785.387,-544 735.768,-531.562 735.815,-511.438 834.96,-511.438 835.006,-531.562"/>
<text text-anchor="middle" x="785.387" y="-522.3" font-family="Times New Roman,serif" font-size="14.00">InstrNet</text>
</g>
<!-- InstrNet&#45;&gt;ЭрТелеком -->
<g id="edge32" class="edge"><title>InstrNet&#45;&gt;ЭрТелеком</title>
<path fill="none" stroke="black" d="M841.824,-533.797C857.09,-537.797 872.998,-543.848 885.953,-553 908.911,-569.219 904.34,-583.093 921.953,-605 932.6,-618.243 944.947,-632.033 956.399,-644.269"/>
<ellipse fill="none" stroke="black" cx="837.806" cy="-532.826" rx="4.00001" ry="4.00001"/>
<polygon fill="black" stroke="black" points="953.979,-646.804 963.392,-651.668 959.067,-641.996 953.979,-646.804"/>
</g>
<!-- InstrNet&#45;&gt;Мегафон -->
<g id="edge19" class="edge"><title>InstrNet&#45;&gt;Мегафон</title>
<path fill="none" stroke="black" d="M835.002,-520.39C852.371,-516.526 871.26,-510.005 885.953,-499 937.7,-460.24 970.193,-388.891 985.008,-349.656"/>
<polygon fill="black" stroke="black" points="988.325,-350.777 988.476,-340.183 981.751,-348.37 988.325,-350.777"/>
</g>
<!-- ТСвязь -->
<g id="node34" class="node"><title>ТСвязь</title>
<polygon fill="none" stroke="black" points="835.006,-169.562 785.387,-182 735.768,-169.562 735.815,-149.438 834.96,-149.438 835.006,-169.562"/>
<text text-anchor="middle" x="785.387" y="-160.3" font-family="Times New Roman,serif" font-size="14.00">ТСвязь</text>
</g>
<!-- ТСвязь&#45;&gt;Мегафон -->
<g id="edge20" class="edge"><title>ТСвязь&#45;&gt;Мегафон</title>
<path fill="none" stroke="black" d="M832.186,-170.306C849.989,-174.268 869.915,-180.675 885.953,-191 927.355,-217.653 960.849,-265.165 979.171,-295.054"/>
<polygon fill="black" stroke="black" points="976.221,-296.94 984.362,-303.721 982.226,-293.344 976.221,-296.94"/>
</g>
<!-- ТСвязь&#45;&gt;Вымпелком -->
<g id="edge21" class="edge"><title>ТСвязь&#45;&gt;Вымпелком</title>
<path fill="none" stroke="black" d="M833.078,-170.059C866.735,-174.427 912.039,-180.307 946.074,-184.724"/>
<polygon fill="black" stroke="black" points="945.882,-188.228 956.249,-186.044 946.783,-181.286 945.882,-188.228"/>
</g>
<!-- Восток -->
<g id="node35" class="node"><title>Восток</title>
<polygon fill="none" stroke="black" points="833.793,-277.562 785.387,-290 736.982,-277.562 737.027,-257.438 833.748,-257.438 833.793,-277.562"/>
<text text-anchor="middle" x="785.387" y="-268.3" font-family="Times New Roman,serif" font-size="14.00">Восток</text>
</g>
<!-- Восток&#45;&gt;Мегафон -->
<g id="edge22" class="edge"><title>Восток&#45;&gt;Мегафон</title>
<path fill="none" stroke="black" d="M822.152,-280.595C856.387,-288.823 908.282,-301.294 946.169,-310.4"/>
<polygon fill="black" stroke="black" points="945.427,-313.821 955.968,-312.755 947.063,-307.015 945.427,-313.821"/>
</g>
<!-- SmIT34 -->
<g id="node36" class="node"><title>SmIT34</title>
<polygon fill="none" stroke="black" points="835.006,-731.562 785.387,-744 735.768,-731.562 735.815,-711.438 834.96,-711.438 835.006,-731.562"/>
<text text-anchor="middle" x="785.387" y="-722.3" font-family="Times New Roman,serif" font-size="14.00">SmIT34</text>
</g>
<!-- SmIT34&#45;&gt;ЭрТелеком -->
<g id="edge23" class="edge"><title>SmIT34&#45;&gt;ЭрТелеком</title>
<path fill="none" stroke="black" d="M835.166,-715.918C862.25,-710.321 896.374,-703.268 926.081,-697.128"/>
<polygon fill="black" stroke="black" points="926.886,-700.536 935.97,-695.084 925.469,-693.681 926.886,-700.536"/>
</g>
<!-- Старнет -->
<g id="node37" class="node"><title>Старнет</title>
<polygon fill="none" stroke="black" points="190.62,-696.562 138.18,-709 85.7407,-696.562 85.7897,-676.438 190.571,-676.438 190.62,-696.562"/>
<text text-anchor="middle" x="138.18" y="-687.3" font-family="Times New Roman,serif" font-size="14.00">Старнет</text>
</g>
<!-- Старнет&#45;&gt;Унико -->
<g id="edge25" class="edge"><title>Старнет&#45;&gt;Унико</title>
<path fill="none" stroke="black" d="M198.429,-684.762C317.647,-673.53 580.927,-655.797 648.822,-710 697.35,-748.742 641.005,-800.999 684.822,-845 697.921,-858.155 716.737,-865.083 734.491,-868.671"/>
<ellipse fill="none" stroke="black" cx="194.425" cy="-685.144" rx="4" ry="4"/>
<polygon fill="black" stroke="black" points="734.325,-872.193 744.771,-870.419 735.499,-865.292 734.325,-872.193"/>
</g>
<!-- Старнет&#45;&gt;ЭрТелеком -->
<g id="edge26" class="edge"><title>Старнет&#45;&gt;ЭрТелеком</title>
<path fill="none" stroke="black" d="M167.355,-671.782C224.807,-633.99 360.972,-551.462 489.754,-526 559.108,-512.288 589.543,-487.476 648.822,-526 681.855,-547.467 653.934,-582.547 684.822,-607 756.148,-663.468 798.08,-621.452 885.953,-645 901.996,-649.299 919.073,-654.819 934.817,-660.312"/>
<ellipse fill="none" stroke="black" cx="163.756" cy="-674.168" rx="4.00002" ry="4.00002"/>
<polygon fill="black" stroke="black" points="933.832,-663.676 944.427,-663.717 936.17,-657.078 933.832,-663.676"/>
</g>
<!-- Магистраль -->
<g id="node40" class="node"><title>Магистраль</title>
<polygon fill="none" stroke="black" points="453.951,-742.562 383.057,-755 312.163,-742.562 312.229,-722.438 453.885,-722.438 453.951,-742.562"/>
<text text-anchor="middle" x="383.057" y="-733.3" font-family="Times New Roman,serif" font-size="14.00">Магистраль</text>
</g>
<!-- Старнет&#45;&gt;Магистраль -->
<g id="edge45" class="edge"><title>Старнет&#45;&gt;Магистраль</title>
<path fill="none" stroke="black" stroke-dasharray="1,5" d="M189.199,-700.473C222.275,-706.738 266.315,-715.079 303.96,-722.209"/>
<ellipse fill="none" stroke="black" cx="184.862" cy="-699.652" rx="4.00001" ry="4.00001"/>
<ellipse fill="none" stroke="black" cx="307.96" cy="-722.966" rx="4.00001" ry="4.00001"/>
</g>
<!-- ВолгаЛинк -->
<g id="node38" class="node"><title>ВолгаЛинк</title>
<polygon fill="none" stroke="black" points="1252.92,-793.562 1186.06,-806 1119.2,-793.562 1119.26,-773.438 1252.86,-773.438 1252.92,-793.562"/>
<text text-anchor="middle" x="1186.06" y="-784.3" font-family="Times New Roman,serif" font-size="14.00">ВолгаЛинк</text>
</g>
<!-- ВолгаЛинк&#45;&gt;Ростелеком -->
<g id="edge34" class="edge"><title>ВолгаЛинк&#45;&gt;Ростелеком</title>
<path fill="none" stroke="black" d="M1253.57,-796.011C1273.54,-798.417 1295.39,-801.048 1315.12,-803.426"/>
<ellipse fill="black" stroke="black" cx="1249.36" cy="-795.504" rx="4.00001" ry="4.00001"/>
<polygon fill="black" stroke="black" points="1314.88,-806.922 1325.23,-804.643 1315.72,-799.972 1314.88,-806.922"/>
</g>
<!-- ИнсаткомВ -->
<g id="node39" class="node"><title>ИнсаткомВ</title>
<polygon fill="none" stroke="black" points="1254.14,-923.562 1186.06,-936 1117.99,-923.562 1118.05,-903.438 1254.07,-903.438 1254.14,-923.562"/>
<text text-anchor="middle" x="1186.06" y="-914.3" font-family="Times New Roman,serif" font-size="14.00">ИнсаткомВ</text>
</g>
<!-- ИнсаткомВ&#45;&gt;Ростелеком -->
<g id="edge35" class="edge"><title>ИнсаткомВ&#45;&gt;Ростелеком</title>
<path fill="none" stroke="black" d="M1236.12,-900.355C1246.57,-896.061 1257.4,-891.195 1267.2,-886 1295.1,-871.208 1324.62,-850.975 1346.17,-835.251"/>
<ellipse fill="black" stroke="black" cx="1232.31" cy="-901.885" rx="4.00001" ry="4.00001"/>
<polygon fill="black" stroke="black" points="1348.33,-838.003 1354.3,-829.251 1344.18,-832.369 1348.33,-838.003"/>
</g>
<!-- Магистраль&#45;&gt;Унико -->
<g id="edge36" class="edge"><title>Магистраль&#45;&gt;Унико</title>
<path fill="none" stroke="black" d="M386.363,-762.951C392.534,-814.847 414.492,-930.663 489.754,-980 548.879,-1018.76 582.086,-1003.33 648.822,-980 695.357,-963.729 737.851,-924.053 762.418,-897.592"/>
<ellipse fill="black" stroke="black" cx="385.912" cy="-758.876" rx="4.00001" ry="4.00001"/>
<polygon fill="black" stroke="black" points="765.021,-899.932 769.156,-890.177 759.841,-895.224 765.021,-899.932"/>
</g>
<!-- Магистраль&#45;&gt;ЮТК -->
<g id="edge51" class="edge"><title>Магистраль&#45;&gt;ЮТК</title>
<path fill="none" stroke="black" stroke-dasharray="1,5" d="M387.495,-762.61C398.269,-838.6 434.021,-1060.12 489.754,-1102 546.271,-1144.47 578.23,-1105.86 648.822,-1102 840.16,-1091.54 949.392,-1154.77 1068.92,-1005 1137.3,-919.322 1055.01,-858.597 1104.92,-761 1113.43,-744.361 1126.87,-729.207 1140.33,-716.773"/>
<ellipse fill="none" stroke="black" cx="386.914" cy="-758.453" rx="4.00001" ry="4.00001"/>
<ellipse fill="none" stroke="black" cx="1143.52" cy="-713.923" rx="4.00002" ry="4.00002"/>
</g>
<!-- Магистраль&#45;&gt;Powernet -->
<g id="edge50" class="edge"><title>Магистраль&#45;&gt;Powernet</title>
<path fill="none" stroke="black" stroke-dasharray="1,5" d="M411.521,-717.621C446.88,-692.67 507.874,-649.63 542.434,-625.243"/>
<ellipse fill="none" stroke="black" cx="408.101" cy="-720.034" rx="4.00002" ry="4.00002"/>
<ellipse fill="none" stroke="black" cx="545.71" cy="-622.932" rx="4.00002" ry="4.00002"/>
</g>
<!-- Магистраль&#45;&gt;Евротелеком -->
<g id="edge52" class="edge"><title>Магистраль&#45;&gt;Евротелеком</title>
<path fill="none" stroke="black" stroke-dasharray="1,5" d="M407.102,-716.303C423,-700.592 443.117,-677.562 453.754,-653 504.843,-535.033 447.438,-487.391 489.754,-366 544.706,-208.36 551.395,-145.336 684.822,-45 694.45,-37.7594 705.893,-32.4597 717.532,-28.5808"/>
<ellipse fill="none" stroke="black" cx="403.906" cy="-719.383" rx="4.00002" ry="4.00002"/>
<ellipse fill="none" stroke="black" cx="721.367" cy="-27.4042" rx="4.00001" ry="4.00001"/>
</g>
<!-- ФорумNet -->
<g id="node41" class="node"><title>ФорумNet</title>
<polygon fill="none" stroke="black" points="631.008,-796.562 569.288,-809 507.568,-796.562 507.626,-776.438 630.95,-776.438 631.008,-796.562"/>
<text text-anchor="middle" x="569.288" y="-787.3" font-family="Times New Roman,serif" font-size="14.00">ФорумNet</text>
</g>
<!-- ФорумNet&#45;&gt;Унико -->
<g id="edge38" class="edge"><title>ФорумNet&#45;&gt;Унико</title>
<path fill="none" stroke="black" d="M615.641,-803.899C626.78,-807.791 638.471,-812.515 648.822,-818 666.494,-827.365 666.849,-836.226 684.822,-845 702.043,-853.407 722.262,-859.503 739.965,-863.752"/>
<ellipse fill="black" stroke="black" cx="611.833" cy="-802.616" rx="4.00001" ry="4.00001"/>
<polygon fill="black" stroke="black" points="739.528,-867.242 750.055,-866.043 741.078,-860.415 739.528,-867.242"/>
</g>
<!-- ByteS -->
<g id="node42" class="node"><title>ByteS</title>
<polygon fill="none" stroke="black" points="609.626,-742.562 569.288,-755 528.95,-742.562 528.987,-722.438 609.588,-722.438 609.626,-742.562"/>
<text text-anchor="middle" x="569.288" y="-733.3" font-family="Times New Roman,serif" font-size="14.00">ByteS</text>
</g>
<!-- ByteS&#45;&gt;Унико -->
<g id="edge39" class="edge"><title>ByteS&#45;&gt;Унико</title>
<path fill="none" stroke="black" d="M615.37,-745.578C627.328,-749.589 639.492,-755.45 648.822,-764 677.865,-790.618 654.912,-819.36 684.822,-845 699.03,-857.18 718.228,-863.915 735.974,-867.621"/>
<ellipse fill="black" stroke="black" cx="611.399" cy="-744.367" rx="4.00001" ry="4.00001"/>
<polygon fill="black" stroke="black" points="735.744,-871.136 746.207,-869.472 736.989,-864.248 735.744,-871.136"/>
</g>
<!-- АвантекПлюс -->
<g id="node43" class="node"><title>АвантекПлюс</title>
<polygon fill="none" stroke="black" points="648.856,-958.562 569.288,-971 489.72,-958.562 489.794,-938.438 648.781,-938.438 648.856,-958.562"/>
<text text-anchor="middle" x="569.288" y="-949.3" font-family="Times New Roman,serif" font-size="14.00">АвантекПлюс</text>
</g>
<!-- АвантекПлюс&#45;&gt;Унико -->
<g id="edge40" class="edge"><title>АвантекПлюс&#45;&gt;Унико</title>
<path fill="none" stroke="black" d="M621.869,-935.661C630.88,-932.52 640.144,-929.218 648.822,-926 682.247,-913.605 719.887,-898.52 747.009,-887.448"/>
<ellipse fill="black" stroke="black" cx="617.817" cy="-937.065" rx="4.00001" ry="4.00001"/>
<polygon fill="black" stroke="black" points="748.57,-890.591 756.498,-883.563 745.917,-884.113 748.57,-890.591"/>
</g>
<!-- Robor -->
<g id="node44" class="node"><title>Robor</title>
<polygon fill="none" stroke="black" points="1228.72,-530.562 1186.06,-543 1143.41,-530.562 1143.44,-510.438 1228.68,-510.438 1228.72,-530.562"/>
<text text-anchor="middle" x="1186.06" y="-521.3" font-family="Times New Roman,serif" font-size="14.00">Robor</text>
</g>
<!-- Robor&#45;&gt;Транстелеком -->
<g id="edge41" class="edge"><title>Robor&#45;&gt;Транстелеком</title>
<path fill="none" stroke="black" d="M1237.04,-517.933C1259.36,-514.776 1286.02,-511.007 1310.12,-507.6"/>
<ellipse fill="black" stroke="black" cx="1232.93" cy="-518.515" rx="4.00001" ry="4.00001"/>
<polygon fill="black" stroke="black" points="1310.85,-511.03 1320.27,-506.164 1309.87,-504.099 1310.85,-511.03"/>
</g>
<!-- ВистОнЛайн -->
<g id="node45" class="node"><title>ВистОнЛайн</title>
<polygon fill="none" stroke="black" points="645.429,-904.562 569.288,-917 493.147,-904.562 493.218,-884.438 645.358,-884.438 645.429,-904.562"/>
<text text-anchor="middle" x="569.288" y="-895.3" font-family="Times New Roman,serif" font-size="14.00">ВистОнЛайн</text>
</g>
<!-- ВистОнЛайн&#45;&gt;Унико -->
<g id="edge42" class="edge"><title>ВистОнЛайн&#45;&gt;Унико</title>
<path fill="none" stroke="black" d="M653.743,-888.476C682.474,-884.852 713.591,-880.928 738.247,-877.819"/>
<ellipse fill="black" stroke="black" cx="649.439" cy="-889.018" rx="4.00001" ry="4.00001"/>
<polygon fill="black" stroke="black" points="738.909,-881.263 748.392,-876.539 738.033,-874.318 738.909,-881.263"/>
</g>
<!-- STARLINE -->
<g id="node46" class="node"><title>STARLINE</title>
<polygon fill="none" stroke="black" points="636.754,-558.562 569.288,-571 501.821,-558.562 501.884,-538.438 636.692,-538.438 636.754,-558.562"/>
<text text-anchor="middle" x="569.288" y="-549.3" font-family="Times New Roman,serif" font-size="14.00">STARLINE</text>
</g>
<!-- STARLINE&#45;&gt;ДомРу -->
<g id="edge43" class="edge"><title>STARLINE&#45;&gt;ДомРу</title>
<path fill="none" stroke="black" d="M623.148,-565.447C632.308,-569.147 641.294,-573.903 648.822,-580 672.988,-599.573 660.459,-620.672 684.822,-640 698.25,-650.653 715.315,-657.801 731.507,-662.58"/>
<ellipse fill="black" stroke="black" cx="619.19" cy="-563.976" rx="4.00001" ry="4.00001"/>
<polygon fill="black" stroke="black" points="730.87,-666.033 741.437,-665.26 732.694,-659.275 730.87,-666.033"/>
</g>
</g>
</svg>
