<?xml version="1.0" encoding="UTF-8" standalone="no"?>
<!DOCTYPE svg PUBLIC "-//W3C//DTD SVG 1.1//EN"
 "http://www.w3.org/Graphics/SVG/1.1/DTD/svg11.dtd">
<!-- Generated by graphviz version 2.38.0 (20140413.2041)
 -->
<!-- Title: ispgraph Pages: 1 -->
<svg width="1514pt" height="1570pt"
 viewBox="0.00 0.00 1513.53 1570.45" xmlns="http://www.w3.org/2000/svg" xmlns:xlink="http://www.w3.org/1999/xlink">
<g id="graph0" class="graph" transform="scale(1 1) rotate(0) translate(4 1566.45)">
<title>ispgraph</title>
<polygon fill="white" stroke="none" points="-4,4 -4,-1566.45 1509.53,-1566.45 1509.53,4 -4,4"/>
<!-- Унико -->
<g id="node1" class="node"><title>Унико</title>
<polygon fill="none" stroke="black" points="645.545,-1344.45 624.518,-1362.45 582.463,-1362.45 561.436,-1344.45 582.463,-1326.45 624.518,-1326.45 645.545,-1344.45"/>
<text text-anchor="middle" x="603.491" y="-1340.75" font-family="Times New Roman,serif" font-size="14.00">Унико</text>
</g>
<!-- ЭрТелеком -->
<g id="node3" class="node"><title>ЭрТелеком</title>
<polygon fill="none" stroke="black" points="1119.64,-921.451 1082.9,-952.505 1009.43,-952.505 972.7,-921.451 1009.43,-890.398 1082.9,-890.398 1119.64,-921.451"/>
<text text-anchor="middle" x="1046.17" y="-925.251" font-family="Times New Roman,serif" font-size="14.00">ЭР&#45;Телеком</text>
<text text-anchor="middle" x="1046.17" y="-910.251" font-family="Times New Roman,serif" font-size="14.00">транзит</text>
</g>
<!-- Унико&#45;&gt;ЭрТелеком -->
<g id="edge71" class="edge"><title>Унико&#45;&gt;ЭрТелеком</title>
<path fill="none" stroke="black" stroke-dasharray="1,5" d="M643.188,-1333.13C722.284,-1309.2 898.266,-1251.74 936.684,-1203.45 994.003,-1131.4 931.669,-1081.88 972.684,-999.451 980.186,-984.375 991.527,-970.152 1003.02,-958.083"/>
<ellipse fill="none" stroke="black" cx="639.221" cy="-1334.32" rx="4.00001" ry="4.00001"/>
<ellipse fill="none" stroke="black" cx="1005.86" cy="-955.192" rx="4.00002" ry="4.00002"/>
</g>
<!-- Ростелеком -->
<g id="node10" class="node"><title>Ростелеком</title>
<polygon fill="none" stroke="black" points="1494.82,-1298.45 1462.28,-1316.45 1397.19,-1316.45 1364.65,-1298.45 1397.19,-1280.45 1462.28,-1280.45 1494.82,-1298.45"/>
<text text-anchor="middle" x="1429.73" y="-1294.75" font-family="Times New Roman,serif" font-size="14.00">Ростелеком</text>
</g>
<!-- Унико&#45;&gt;Ростелеком -->
<g id="edge24" class="edge"><title>Унико&#45;&gt;Ростелеком</title>
<path fill="none" stroke="black" d="M624.98,-1362.23C649.39,-1382.13 692.326,-1413.17 735.553,-1425.45 976.847,-1494 1276.26,-1371.29 1385.93,-1319.71"/>
<polygon fill="black" stroke="black" points="1387.5,-1322.84 1395.03,-1315.38 1384.49,-1316.51 1387.5,-1322.84"/>
</g>
<!-- КвантТелеком -->
<g id="node12" class="node"><title>КвантТелеком</title>
<polygon fill="none" stroke="black" points="914.22,-1344.45 875.17,-1362.45 797.068,-1362.45 758.017,-1344.45 797.068,-1326.45 875.17,-1326.45 914.22,-1344.45"/>
<text text-anchor="middle" x="836.119" y="-1340.75" font-family="Times New Roman,serif" font-size="14.00">КвантТелеком</text>
</g>
<!-- Унико&#45;&gt;КвантТелеком -->
<g id="edge26" class="edge"><title>Унико&#45;&gt;КвантТелеком</title>
<path fill="none" stroke="black" d="M645.722,-1344.45C674.024,-1344.45 712.65,-1344.45 747.64,-1344.45"/>
<polygon fill="black" stroke="black" points="747.882,-1347.95 757.882,-1344.45 747.882,-1340.95 747.882,-1347.95"/>
</g>
<!-- Powernet -->
<g id="node19" class="node"><title>Powernet</title>
<polygon fill="none" stroke="black" points="887.687,-808.451 861.903,-826.451 810.335,-826.451 784.55,-808.451 810.335,-790.451 861.903,-790.451 887.687,-808.451"/>
<text text-anchor="middle" x="836.119" y="-804.751" font-family="Times New Roman,serif" font-size="14.00">Powernet</text>
</g>
<!-- Унико&#45;&gt;Powernet -->
<g id="edge42" class="edge"><title>Унико&#45;&gt;Powernet</title>
<path fill="none" stroke="black" d="M614.711,-1318.85C634.244,-1274.97 676.942,-1183.18 699.553,-1101.45 727.377,-1000.88 680.482,-958.08 735.553,-869.451 748.165,-849.154 769.064,-833.13 788.468,-822.339"/>
<ellipse fill="none" stroke="black" cx="613.069" cy="-1322.57" rx="4.00002" ry="4.00002"/>
<polygon fill="black" stroke="black" points="790.287,-825.338 797.535,-817.61 787.05,-819.131 790.287,-825.338"/>
</g>
<!-- RETN -->
<g id="node20" class="node"><title>RETN</title>
<polygon fill="none" stroke="black" points="875.672,-1398.45 855.895,-1416.45 816.342,-1416.45 796.566,-1398.45 816.342,-1380.45 855.895,-1380.45 875.672,-1398.45"/>
<text text-anchor="middle" x="836.119" y="-1394.75" font-family="Times New Roman,serif" font-size="14.00">RETN</text>
</g>
<!-- Унико&#45;&gt;RETN -->
<g id="edge25" class="edge"><title>Унико&#45;&gt;RETN</title>
<path fill="none" stroke="black" d="M637.045,-1352.07C678.284,-1361.73 749.369,-1378.37 794.226,-1388.88"/>
<polygon fill="black" stroke="black" points="793.669,-1392.34 804.204,-1391.21 795.265,-1385.53 793.669,-1392.34"/>
</g>
<!-- ДомРу -->
<g id="node2" class="node"><title>ДомРу</title>
<polygon fill="none" stroke="black" points="890.189,-992.451 863.154,-1010.45 809.084,-1010.45 782.048,-992.451 809.084,-974.451 863.154,-974.451 890.189,-992.451"/>
<text text-anchor="middle" x="836.119" y="-988.751" font-family="Times New Roman,serif" font-size="14.00">ДОМ.RU</text>
</g>
<!-- ДомРу&#45;&gt;ЭрТелеком -->
<g id="edge45" class="edge"><title>ДомРу&#45;&gt;ЭрТелеком</title>
<path fill="none" stroke="black" d="M884.226,-980.923C900.925,-976.509 919.765,-971.153 936.684,-965.451 953.509,-959.781 971.483,-952.857 987.863,-946.196"/>
<ellipse fill="none" stroke="black" cx="880.088" cy="-982.002" rx="4.00001" ry="4.00001"/>
<polygon fill="black" stroke="black" points="989.385,-949.354 997.303,-942.315 986.723,-942.88 989.385,-949.354"/>
</g>
<!-- ЮТК -->
<g id="node15" class="node"><title>ЮТК</title>
<polygon fill="none" stroke="black" points="1307.86,-1051.45 1272.33,-1082.51 1201.26,-1082.51 1165.72,-1051.45 1201.26,-1020.4 1272.33,-1020.4 1307.86,-1051.45"/>
<text text-anchor="middle" x="1236.79" y="-1055.25" font-family="Times New Roman,serif" font-size="14.00">Ростелеком</text>
<text text-anchor="middle" x="1236.79" y="-1040.25" font-family="Times New Roman,serif" font-size="14.00">Волгоград</text>
</g>
<!-- ЭрТелеком&#45;&gt;ЮТК -->
<g id="edge75" class="edge"><title>ЭрТелеком&#45;&gt;ЮТК</title>
<path fill="none" stroke="black" stroke-dasharray="1,5" d="M1094.15,-953.831C1123.33,-973.942 1160.67,-999.677 1189.69,-1019.67"/>
<ellipse fill="none" stroke="black" cx="1090.47" cy="-951.291" rx="4.00002" ry="4.00002"/>
<ellipse fill="none" stroke="black" cx="1193.2" cy="-1022.1" rx="4.00002" ry="4.00002"/>
</g>
<!-- Связьинформ -->
<g id="node26" class="node"><title>Связьинформ</title>
<polygon fill="none" stroke="black" points="1318.08,-722.014 1236.79,-734.451 1155.51,-722.014 1155.59,-701.889 1318,-701.889 1318.08,-722.014"/>
<text text-anchor="middle" x="1236.79" y="-712.751" font-family="Times New Roman,serif" font-size="14.00">Связьинформ</text>
</g>
<!-- ЭрТелеком&#45;&gt;Связьинформ -->
<g id="edge76" class="edge"><title>ЭрТелеком&#45;&gt;Связьинформ</title>
<path fill="none" stroke="black" stroke-dasharray="1,5" d="M1098.53,-893.082C1105.97,-887.993 1113.26,-882.399 1119.65,-876.451 1164.51,-834.722 1203.28,-773.397 1222.64,-740.091"/>
<ellipse fill="none" stroke="black" cx="1095.01" cy="-895.404" rx="4.00002" ry="4.00002"/>
<ellipse fill="none" stroke="black" cx="1224.7" cy="-736.503" rx="4.00002" ry="4.00002"/>
</g>
<!-- Транстелеком -->
<g id="node4" class="node"><title>Транстелеком</title>
<polygon fill="none" stroke="black" points="1505.33,-309.451 1467.53,-327.451 1391.93,-327.451 1354.14,-309.451 1391.93,-291.451 1467.53,-291.451 1505.33,-309.451"/>
<text text-anchor="middle" x="1429.73" y="-305.751" font-family="Times New Roman,serif" font-size="14.00">Транстелеком</text>
</g>
<!-- Волгатранстелеком -->
<g id="node5" class="node"><title>Волгатранстелеком</title>
<polygon fill="none" stroke="black" points="936.75,-1046.45 886.434,-1064.45 785.803,-1064.45 735.488,-1046.45 785.803,-1028.45 886.434,-1028.45 936.75,-1046.45"/>
<text text-anchor="middle" x="836.119" y="-1042.75" font-family="Times New Roman,serif" font-size="14.00">Волгатранстелеком</text>
</g>
<!-- Волгатранстелеком&#45;&gt;ЭрТелеком -->
<g id="edge73" class="edge"><title>Волгатранстелеком&#45;&gt;ЭрТелеком</title>
<path fill="none" stroke="black" stroke-dasharray="1,5" d="M912.668,-1032.22C921.189,-1028.83 929.41,-1024.64 936.684,-1019.45 959.869,-1002.92 952.14,-986.169 972.684,-966.451 978.984,-960.405 986.227,-954.757 993.643,-949.644"/>
<ellipse fill="none" stroke="black" cx="908.873" cy="-1033.61" rx="4.00001" ry="4.00001"/>
<ellipse fill="none" stroke="black" cx="997.149" cy="-947.316" rx="4.00002" ry="4.00002"/>
</g>
<!-- Волгатранстелеком&#45;&gt;Транстелеком -->
<g id="edge44" class="edge"><title>Волгатранстелеком&#45;&gt;Транстелеком</title>
<path fill="none" stroke="black" d="M905.881,-1030.15C916.34,-1027 926.9,-1023.43 936.684,-1019.45 953.641,-1012.56 955.687,-1006.24 972.684,-999.451 1035.34,-974.423 1061.89,-996.305 1119.65,-961.451 1231.79,-893.792 1255.83,-858.763 1317.93,-743.451 1393.52,-603.111 1419.1,-409.268 1426.29,-337.574"/>
<ellipse fill="none" stroke="black" cx="901.757" cy="-1031.36" rx="4.00001" ry="4.00001"/>
<polygon fill="black" stroke="black" points="1429.78,-337.812 1427.26,-327.523 1422.82,-337.142 1429.78,-337.812"/>
</g>
<!-- Волгатранстелеком&#45;&gt;ЮТК -->
<g id="edge72" class="edge"><title>Волгатранстелеком&#45;&gt;ЮТК</title>
<path fill="none" stroke="black" stroke-dasharray="1,5" d="M930.98,-1051.93C944.956,-1052.56 959.194,-1053.1 972.684,-1053.45 1037.98,-1055.14 1054.34,-1054.01 1119.65,-1053.45 1132.35,-1053.34 1145.82,-1053.17 1158.92,-1052.96"/>
<ellipse fill="none" stroke="black" cx="926.784" cy="-1051.73" rx="4" ry="4"/>
<ellipse fill="none" stroke="black" cx="1163.02" cy="-1052.9" rx="4" ry="4"/>
</g>
<!-- Orange -->
<g id="node16" class="node"><title>Orange</title>
<polygon fill="none" stroke="black" points="1088.73,-1026.45 1067.45,-1044.45 1024.89,-1044.45 1003.61,-1026.45 1024.89,-1008.45 1067.45,-1008.45 1088.73,-1026.45"/>
<text text-anchor="middle" x="1046.17" y="-1022.75" font-family="Times New Roman,serif" font-size="14.00">Orange</text>
</g>
<!-- Волгатранстелеком&#45;&gt;Orange -->
<g id="edge74" class="edge"><title>Волгатранстелеком&#45;&gt;Orange</title>
<path fill="none" stroke="black" stroke-dasharray="1,5" d="M923.968,-1038.1C949.909,-1035.61 977.315,-1032.97 999.493,-1030.84"/>
<ellipse fill="none" stroke="black" cx="919.755" cy="-1038.51" rx="4" ry="4"/>
<ellipse fill="none" stroke="black" cx="1003.74" cy="-1030.43" rx="4" ry="4"/>
</g>
<!-- Релком -->
<g id="node6" class="node"><title>Релком</title>
<polygon fill="none" stroke="black" points="881.679,-56.4513 858.899,-74.4513 813.338,-74.4513 790.558,-56.4513 813.338,-38.4513 858.899,-38.4513 881.679,-56.4513"/>
<text text-anchor="middle" x="836.119" y="-52.7513" font-family="Times New Roman,serif" font-size="14.00">Релком</text>
</g>
<!-- Мегафон -->
<g id="node7" class="node"><title>Мегафон</title>
<polygon fill="none" stroke="black" points="1099.24,-616.451 1072.7,-634.451 1019.63,-634.451 993.099,-616.451 1019.63,-598.451 1072.7,-598.451 1099.24,-616.451"/>
<text text-anchor="middle" x="1046.17" y="-612.751" font-family="Times New Roman,serif" font-size="14.00">Мегафон</text>
</g>
<!-- Вымпелком -->
<g id="node8" class="node"><title>Вымпелком</title>
<polygon fill="none" stroke="black" points="1091.23,-351.451 1068.7,-369.451 1023.64,-369.451 1001.11,-351.451 1023.64,-333.451 1068.7,-333.451 1091.23,-351.451"/>
<text text-anchor="middle" x="1046.17" y="-347.751" font-family="Times New Roman,serif" font-size="14.00">Билайн</text>
</g>
<!-- КоламбияТелеком -->
<g id="node9" class="node"><title>КоламбияТелеком</title>
<polygon fill="none" stroke="black" points="699.616,-202.451 651.553,-220.451 555.428,-220.451 507.366,-202.451 555.428,-184.451 651.553,-184.451 699.616,-202.451"/>
<text text-anchor="middle" x="603.491" y="-198.751" font-family="Times New Roman,serif" font-size="14.00">КоламбияТелеком</text>
</g>
<!-- КоламбияТелеком&#45;&gt;Транстелеком -->
<g id="edge18" class="edge"><title>КоламбияТелеком&#45;&gt;Транстелеком</title>
<path fill="none" stroke="black" d="M661.518,-188.077C684.373,-183.007 711.055,-177.949 735.553,-175.451 993.055,-149.203 1083.75,-65.2156 1317.93,-175.451 1364.67,-197.449 1398.43,-249.906 1415.68,-282.276"/>
<polygon fill="black" stroke="black" points="1412.6,-283.947 1420.3,-291.226 1418.82,-280.735 1412.6,-283.947"/>
</g>
<!-- КоламбияТелеком&#45;&gt;Мегафон -->
<g id="edge20" class="edge"><title>КоламбияТелеком&#45;&gt;Мегафон</title>
<path fill="none" stroke="black" d="M604.176,-220.652C604.173,-284.184 613.573,-497.395 735.553,-592.451 773.301,-621.868 907.591,-622.027 986.371,-619.36"/>
<polygon fill="black" stroke="black" points="986.766,-622.848 996.632,-618.987 986.511,-615.853 986.766,-622.848"/>
</g>
<!-- КоламбияТелеком&#45;&gt;Вымпелком -->
<g id="edge19" class="edge"><title>КоламбияТелеком&#45;&gt;Вымпелком</title>
<path fill="none" stroke="black" d="M665.875,-215.207C761.022,-235.003 933.589,-271.015 936.684,-272.451 955.072,-280.981 956.391,-288.394 972.684,-300.451 985.648,-310.045 1000.15,-320.332 1012.75,-329.136"/>
<polygon fill="black" stroke="black" points="1010.92,-332.129 1021.13,-334.968 1014.92,-326.383 1010.92,-332.129"/>
</g>
<!-- WestCall -->
<g id="node18" class="node"><title>WestCall</title>
<polygon fill="none" stroke="black" points="887.185,-110.451 861.652,-128.451 810.585,-128.451 785.052,-110.451 810.585,-92.4513 861.652,-92.4513 887.185,-110.451"/>
<text text-anchor="middle" x="836.119" y="-106.751" font-family="Times New Roman,serif" font-size="14.00">WestCall</text>
</g>
<!-- КоламбияТелеком&#45;&gt;WestCall -->
<g id="edge47" class="edge"><title>КоламбияТелеком&#45;&gt;WestCall</title>
<path fill="none" stroke="black" d="M648.239,-180.848C673.454,-168.797 705.932,-153.945 735.553,-142.451 752.957,-135.698 772.443,-129.207 789.53,-123.858"/>
<ellipse fill="none" stroke="black" cx="644.6" cy="-182.597" rx="4.00002" ry="4.00002"/>
<polygon fill="black" stroke="black" points="790.757,-127.142 799.279,-120.847 788.692,-120.454 790.757,-127.142"/>
</g>
<!-- Евротелеком -->
<g id="node32" class="node"><title>Евротелеком</title>
<polygon fill="none" stroke="black" points="912.26,-208.014 836.119,-220.451 759.977,-208.014 760.049,-187.889 912.189,-187.889 912.26,-208.014"/>
<text text-anchor="middle" x="836.119" y="-198.751" font-family="Times New Roman,serif" font-size="14.00">Евротелеком</text>
</g>
<!-- КоламбияТелеком&#45;&gt;Евротелеком -->
<g id="edge67" class="edge"><title>КоламбияТелеком&#45;&gt;Евротелеком</title>
<path fill="none" stroke="black" stroke-dasharray="1,5" d="M707.675,-202.451C722.377,-202.451 737.344,-202.451 751.607,-202.451"/>
<ellipse fill="none" stroke="black" cx="703.627" cy="-202.451" rx="4" ry="4"/>
<ellipse fill="none" stroke="black" cx="755.917" cy="-202.451" rx="4" ry="4"/>
</g>
<!-- HE -->
<g id="node11" class="node"><title>HE</title>
<polygon fill="none" stroke="black" points="863.119,-1176.45 849.619,-1194.45 822.619,-1194.45 809.119,-1176.45 822.619,-1158.45 849.619,-1158.45 863.119,-1176.45"/>
<text text-anchor="middle" x="836.119" y="-1172.75" font-family="Times New Roman,serif" font-size="14.00">HE</text>
</g>
<!-- Tele2 -->
<g id="node13" class="node"><title>Tele2</title>
<polygon fill="none" stroke="black" points="1271.84,-1156.45 1254.32,-1174.45 1219.27,-1174.45 1201.75,-1156.45 1219.27,-1138.45 1254.32,-1138.45 1271.84,-1156.45"/>
<text text-anchor="middle" x="1236.79" y="-1152.75" font-family="Times New Roman,serif" font-size="14.00">Tele2</text>
</g>
<!-- Tele2&#45;&gt;Транстелеком -->
<g id="edge3" class="edge"><title>Tele2&#45;&gt;Транстелеком</title>
<path fill="none" stroke="black" d="M1260.46,-1144.5C1279.12,-1133.38 1304.61,-1114.99 1317.93,-1091.45 1393.33,-958.241 1421.49,-462.602 1427.46,-338.012"/>
<polygon fill="black" stroke="black" points="1430.97,-337.918 1427.94,-327.765 1423.98,-337.59 1430.97,-337.918"/>
</g>
<!-- Tele2&#45;&gt;Ростелеком -->
<g id="edge2" class="edge"><title>Tele2&#45;&gt;Ростелеком</title>
<path fill="none" stroke="black" d="M1257.87,-1171.38C1290.85,-1195.91 1356.8,-1244.96 1396.43,-1274.42"/>
<polygon fill="black" stroke="black" points="1394.35,-1277.24 1404.46,-1280.4 1398.53,-1271.62 1394.35,-1277.24"/>
</g>
<!-- МТС -->
<g id="node14" class="node"><title>МТС</title>
<polygon fill="none" stroke="black" points="871.166,-662.451 853.642,-680.451 818.595,-680.451 801.071,-662.451 818.595,-644.451 853.642,-644.451 871.166,-662.451"/>
<text text-anchor="middle" x="836.119" y="-658.751" font-family="Times New Roman,serif" font-size="14.00">МТС</text>
</g>
<!-- ЮТК&#45;&gt;Ростелеком -->
<g id="edge43" class="edge"><title>ЮТК&#45;&gt;Ростелеком</title>
<path fill="none" stroke="black" d="M1291.46,-1076.04C1300.96,-1081.87 1310.26,-1088.7 1317.93,-1096.45 1369.28,-1148.31 1403.72,-1228.86 1419.27,-1270.86"/>
<ellipse fill="none" stroke="black" cx="1287.97" cy="-1073.99" rx="4.00002" ry="4.00002"/>
<polygon fill="black" stroke="black" points="1416.04,-1272.21 1422.73,-1280.42 1422.62,-1269.83 1416.04,-1272.21"/>
</g>
<!-- ПросторТелеком -->
<g id="node17" class="node"><title>ПросторТелеком</title>
<polygon fill="none" stroke="black" points="926.236,-424.451 881.177,-442.451 791.06,-442.451 746.001,-424.451 791.06,-406.451 881.177,-406.451 926.236,-424.451"/>
<text text-anchor="middle" x="836.119" y="-420.751" font-family="Times New Roman,serif" font-size="14.00">ПросторТелеком</text>
</g>
<!-- ПросторТелеком&#45;&gt;Мегафон -->
<g id="edge29" class="edge"><title>ПросторТелеком&#45;&gt;Мегафон</title>
<path fill="none" stroke="black" d="M901.303,-434.52C913.797,-438.44 926.242,-443.886 936.684,-451.451 985.66,-486.935 1018.65,-551.87 1034.43,-588.814"/>
<polygon fill="black" stroke="black" points="1031.36,-590.548 1038.43,-598.444 1037.83,-587.866 1031.36,-590.548"/>
</g>
<!-- ПросторТелеком&#45;&gt;Вымпелком -->
<g id="edge28" class="edge"><title>ПросторТелеком&#45;&gt;Вымпелком</title>
<path fill="none" stroke="black" d="M892.565,-410.852C907.044,-406.91 922.551,-402.339 936.684,-397.451 960.719,-389.14 986.992,-378.054 1007.66,-368.847"/>
<polygon fill="black" stroke="black" points="1009.35,-371.927 1017.03,-364.633 1006.48,-365.544 1009.35,-371.927"/>
</g>
<!-- Powernet&#45;&gt;Унико -->
<g id="edge41" class="edge"><title>Powernet&#45;&gt;Унико</title>
<path fill="none" stroke="black" d="M802.301,-830.379C779.79,-843.542 751.252,-862.187 735.553,-887.451 680.482,-976.08 727.377,-1018.88 699.553,-1119.45 679.106,-1193.36 642.234,-1275.49 620.918,-1317.25"/>
<ellipse fill="none" stroke="black" cx="805.91" cy="-828.297" rx="4.00002" ry="4.00002"/>
<polygon fill="black" stroke="black" points="617.746,-1315.76 616.236,-1326.25 623.956,-1318.99 617.746,-1315.76"/>
</g>
<!-- Powernet&#45;&gt;ЭрТелеком -->
<g id="edge66" class="edge"><title>Powernet&#45;&gt;ЭрТелеком</title>
<path fill="none" stroke="black" stroke-dasharray="1,5" d="M872.862,-827.865C906.034,-845.882 955.798,-872.911 993.331,-893.296"/>
<ellipse fill="none" stroke="black" cx="869.126" cy="-825.836" rx="4.00002" ry="4.00002"/>
<ellipse fill="none" stroke="black" cx="997.151" cy="-895.371" rx="4.00002" ry="4.00002"/>
</g>
<!-- Powernet&#45;&gt;Мегафон -->
<g id="edge14" class="edge"><title>Powernet&#45;&gt;Мегафон</title>
<path fill="none" stroke="black" d="M878.266,-801.659C897.425,-796.967 919.683,-789.188 936.684,-776.451 983.7,-741.229 1017.14,-679.369 1033.59,-643.767"/>
<polygon fill="black" stroke="black" points="1036.86,-645.021 1037.77,-634.465 1030.48,-642.148 1036.86,-645.021"/>
</g>
<!-- Powernet&#45;&gt;Вымпелком -->
<g id="edge15" class="edge"><title>Powernet&#45;&gt;Вымпелком</title>
<path fill="none" stroke="black" d="M869.234,-795.318C891.477,-784.588 919.985,-767.291 936.684,-743.451 977.011,-685.88 954.435,-657.331 972.684,-589.451 993.292,-512.798 1021.66,-423.554 1036.04,-379.295"/>
<polygon fill="black" stroke="black" points="1039.44,-380.139 1039.21,-369.547 1032.79,-377.971 1039.44,-380.139"/>
</g>
<!-- МКС -->
<g id="node21" class="node"><title>МКС</title>
<polygon fill="none" stroke="black" points="673.336,-699.781 603.491,-722.879 533.645,-699.781 533.711,-662.408 673.271,-662.408 673.336,-699.781"/>
<text text-anchor="middle" x="603.491" y="-693.251" font-family="Times New Roman,serif" font-size="14.00">МТС</text>
<text text-anchor="middle" x="603.491" y="-678.251" font-family="Times New Roman,serif" font-size="14.00">Волгоград</text>
</g>
<!-- МКС&#45;&gt;МТС -->
<g id="edge13" class="edge"><title>МКС&#45;&gt;МТС</title>
<path fill="none" stroke="black" d="M673.374,-681.387C712.659,-676.788 760.573,-671.178 794.014,-667.264"/>
<polygon fill="black" stroke="black" points="794.808,-670.695 804.333,-666.055 793.994,-663.742 794.808,-670.695"/>
</g>
<!-- СпринтСеть -->
<g id="node27" class="node"><title>СпринтСеть</title>
<polygon fill="none" stroke="black" points="909.333,-722.014 836.119,-734.451 762.905,-722.014 762.973,-701.889 909.264,-701.889 909.333,-722.014"/>
<text text-anchor="middle" x="836.119" y="-712.751" font-family="Times New Roman,serif" font-size="14.00">СпринтСеть</text>
</g>
<!-- МКС&#45;&gt;СпринтСеть -->
<g id="edge61" class="edge"><title>МКС&#45;&gt;СпринтСеть</title>
<path fill="none" stroke="black" stroke-dasharray="1,5" d="M681.436,-698.459C705.076,-701.227 731.144,-704.279 754.992,-707.071"/>
<ellipse fill="none" stroke="black" cx="677.347" cy="-697.981" rx="4.00001" ry="4.00001"/>
<ellipse fill="none" stroke="black" cx="759.014" cy="-707.542" rx="4.00001" ry="4.00001"/>
</g>
<!-- ГородокТочкаРу -->
<g id="node22" class="node"><title>ГородокТочкаРу</title>
<polygon fill="none" stroke="black" points="462.788,-1404.01 391.894,-1416.45 321,-1404.01 321.066,-1383.89 462.722,-1383.89 462.788,-1404.01"/>
<text text-anchor="middle" x="391.894" y="-1394.75" font-family="Times New Roman,serif" font-size="14.00">Городок.Ру</text>
</g>
<!-- ГородокТочкаРу&#45;&gt;Унико -->
<g id="edge53" class="edge"><title>ГородокТочкаРу&#45;&gt;Унико</title>
<path fill="none" stroke="black" d="M457.508,-1381.8C491.152,-1373.14 531.309,-1362.79 560.82,-1355.19"/>
<ellipse fill="black" stroke="black" cx="453.488" cy="-1382.84" rx="4.00001" ry="4.00001"/>
<polygon fill="black" stroke="black" points="561.976,-1358.5 570.786,-1352.62 560.229,-1351.73 561.976,-1358.5"/>
</g>
<!-- STARLINE -->
<g id="node23" class="node"><title>STARLINE</title>
<polygon fill="none" stroke="black" points="205.647,-743.014 138.18,-755.451 70.7135,-743.014 70.7765,-722.889 205.584,-722.889 205.647,-743.014"/>
<text text-anchor="middle" x="138.18" y="-733.751" font-family="Times New Roman,serif" font-size="14.00">STARLINE</text>
</g>
<!-- VSSA -->
<g id="node24" class="node"><title>VSSA</title>
<polygon fill="none" stroke="black" points="180.838,-797.014 138.18,-809.451 95.5225,-797.014 95.5623,-776.889 180.798,-776.889 180.838,-797.014"/>
<text text-anchor="middle" x="138.18" y="-787.751" font-family="Times New Roman,serif" font-size="14.00">VSSA</text>
</g>
<!-- ИнформационныйСервис -->
<g id="node25" class="node"><title>ИнформационныйСервис</title>
<polygon fill="none" stroke="black" points="276.541,-851.014 138.18,-863.451 -0.180374,-851.014 -0.0512311,-830.889 276.412,-830.889 276.541,-851.014"/>
<text text-anchor="middle" x="138.18" y="-841.751" font-family="Times New Roman,serif" font-size="14.00">ИнформационныйСервис</text>
</g>
<!-- Связьинформ&#45;&gt;Унико -->
<g id="edge37" class="edge"><title>Связьинформ&#45;&gt;Унико</title>
<path fill="none" stroke="black" d="M1206.18,-735.422C1153.87,-768.087 1040.79,-834.95 936.684,-871.451 850.675,-901.606 799.439,-846.448 735.553,-911.451 672.552,-975.555 724.602,-1024.13 699.553,-1110.45 677.162,-1187.61 638.125,-1274.19 617.741,-1317.18"/>
<ellipse fill="none" stroke="black" cx="1209.76" cy="-733.174" rx="4.00002" ry="4.00002"/>
<polygon fill="black" stroke="black" points="614.485,-1315.88 613.333,-1326.41 620.802,-1318.89 614.485,-1315.88"/>
</g>
<!-- Связьинформ&#45;&gt;Транстелеком -->
<g id="edge1" class="edge"><title>Связьинформ&#45;&gt;Транстелеком</title>
<path fill="none" stroke="black" d="M1244.82,-701.483C1273.08,-641.244 1378.75,-415.996 1415.8,-337.021"/>
<polygon fill="black" stroke="black" points="1419.09,-338.255 1420.17,-327.715 1412.75,-335.282 1419.09,-338.255"/>
</g>
<!-- СпринтСеть&#45;&gt;Мегафон -->
<g id="edge5" class="edge"><title>СпринтСеть&#45;&gt;Мегафон</title>
<path fill="none" stroke="black" d="M903.005,-701.868C914.465,-698.411 926.096,-694.289 936.684,-689.451 964.813,-676.6 993.726,-656.754 1014.62,-640.997"/>
<polygon fill="black" stroke="black" points="1016.97,-643.606 1022.78,-634.746 1012.71,-638.05 1016.97,-643.606"/>
</g>
<!-- СпринтСеть&#45;&gt;Вымпелком -->
<g id="edge4" class="edge"><title>СпринтСеть&#45;&gt;Вымпелком</title>
<path fill="none" stroke="black" d="M909.429,-706.159C919.476,-702.21 928.979,-696.812 936.684,-689.451 942.535,-683.862 1011.83,-459.853 1036.51,-379.649"/>
<polygon fill="black" stroke="black" points="1039.96,-380.336 1039.55,-369.749 1033.27,-378.279 1039.96,-380.336"/>
</g>
<!-- СпринтСеть&#45;&gt;Связьинформ -->
<g id="edge60" class="edge"><title>СпринтСеть&#45;&gt;Связьинформ</title>
<path fill="none" stroke="black" stroke-dasharray="1,5" d="M917.612,-716.451C984.194,-716.451 1078.64,-716.451 1147.33,-716.451"/>
<ellipse fill="none" stroke="black" cx="913.316" cy="-716.451" rx="4" ry="4"/>
<ellipse fill="none" stroke="black" cx="1151.57" cy="-716.451" rx="4" ry="4"/>
</g>
<!-- Старнет -->
<g id="node28" class="node"><title>Старнет</title>
<polygon fill="none" stroke="black" points="190.62,-689.014 138.18,-701.451 85.7407,-689.014 85.7897,-668.889 190.571,-668.889 190.62,-689.014"/>
<text text-anchor="middle" x="138.18" y="-679.751" font-family="Times New Roman,serif" font-size="14.00">Старнет</text>
</g>
<!-- Старнет&#45;&gt;Унико -->
<g id="edge39" class="edge"><title>Старнет&#45;&gt;Унико</title>
<path fill="none" stroke="black" d="M198.591,-679.598C226.367,-681.212 257.422,-688.568 276.36,-710.451 328.414,-770.599 254.717,-1370.64 312.36,-1425.45 386.227,-1495.69 515.802,-1412.02 573.433,-1368.08"/>
<ellipse fill="none" stroke="black" cx="194.473" cy="-679.436" rx="4" ry="4"/>
<polygon fill="black" stroke="black" points="575.637,-1370.8 581.399,-1361.91 571.35,-1365.27 575.637,-1370.8"/>
</g>
<!-- Старнет&#45;&gt;Транстелеком -->
<g id="edge6" class="edge"><title>Старнет&#45;&gt;Транстелеком</title>
<path fill="none" stroke="black" d="M139.38,-668.678C141.127,-599.505 157.705,-304.44 312.36,-148.451 376.7,-83.5566 419.529,-108.446 507.428,-83.4513 692.38,-30.8597 757.418,40.0953 936.684,-29.4513 1059.57,-77.1231 1038.16,-169.714 1155.65,-229.451 1221.26,-262.809 1247.64,-240.637 1317.93,-262.451 1339.54,-269.157 1362.7,-278.599 1382.22,-287.262"/>
<polygon fill="black" stroke="black" points="1380.93,-290.522 1391.49,-291.437 1383.81,-284.139 1380.93,-290.522"/>
</g>
<!-- Старнет&#45;&gt;КоламбияТелеком -->
<g id="edge38" class="edge"><title>Старнет&#45;&gt;КоламбияТелеком</title>
<path fill="none" stroke="black" d="M151.217,-661.257C191.593,-588.854 329.729,-357.146 507.428,-234.451 515.704,-228.737 525.083,-223.973 534.647,-220.02"/>
<ellipse fill="none" stroke="black" cx="149.132" cy="-665.024" rx="4.00002" ry="4.00002"/>
<polygon fill="black" stroke="black" points="536.161,-223.188 544.239,-216.333 533.649,-216.654 536.161,-223.188"/>
</g>
<!-- Магистраль -->
<g id="node43" class="node"><title>Магистраль</title>
<polygon fill="none" stroke="black" points="462.788,-814.014 391.894,-826.451 321,-814.014 321.066,-793.889 462.722,-793.889 462.788,-814.014"/>
<text text-anchor="middle" x="391.894" y="-804.751" font-family="Times New Roman,serif" font-size="14.00">Магистраль</text>
</g>
<!-- Старнет&#45;&gt;Магистраль -->
<g id="edge62" class="edge"><title>Старнет&#45;&gt;Магистраль</title>
<path fill="none" stroke="black" stroke-dasharray="1,5" d="M198.637,-688.414C223.579,-692.18 252.312,-698.803 276.36,-710.451 315.542,-729.429 352.167,-765.127 373.012,-787.799"/>
<ellipse fill="none" stroke="black" cx="194.644" cy="-687.85" rx="4.00001" ry="4.00001"/>
<ellipse fill="none" stroke="black" cx="375.778" cy="-790.858" rx="4.00002" ry="4.00002"/>
</g>
<!-- Экспилайн -->
<g id="node29" class="node"><title>Экспилайн</title>
<polygon fill="none" stroke="black" points="902.979,-484.014 836.119,-496.451 769.258,-484.014 769.321,-463.889 902.917,-463.889 902.979,-484.014"/>
<text text-anchor="middle" x="836.119" y="-474.751" font-family="Times New Roman,serif" font-size="14.00">Экспилайн</text>
</g>
<!-- Экспилайн&#45;&gt;Мегафон -->
<g id="edge7" class="edge"><title>Экспилайн&#45;&gt;Мегафон</title>
<path fill="none" stroke="black" d="M888.316,-486.836C904.517,-490.899 922.011,-496.838 936.684,-505.451 946.699,-511.33 992.42,-559.627 1021.22,-590.546"/>
<polygon fill="black" stroke="black" points="1018.77,-593.055 1028.14,-597.997 1023.9,-588.289 1018.77,-593.055"/>
</g>
<!-- Экспилайн&#45;&gt;Связьинформ -->
<g id="edge63" class="edge"><title>Экспилайн&#45;&gt;Связьинформ</title>
<path fill="none" stroke="black" stroke-dasharray="1,5" d="M888.499,-490.166C948.282,-505.612 1047.94,-537.139 1119.65,-589.451 1161.71,-620.13 1200.32,-667.878 1220.69,-695.249"/>
<ellipse fill="none" stroke="black" cx="884.571" cy="-489.167" rx="4.00001" ry="4.00001"/>
<ellipse fill="none" stroke="black" cx="1223.1" cy="-698.523" rx="4.00002" ry="4.00002"/>
</g>
<!-- ЭРОС -->
<g id="node30" class="node"><title>ЭРОС</title>
<polygon fill="none" stroke="black" points="647.862,-1089.01 603.491,-1101.45 559.119,-1089.01 559.16,-1068.89 647.821,-1068.89 647.862,-1089.01"/>
<text text-anchor="middle" x="603.491" y="-1079.75" font-family="Times New Roman,serif" font-size="14.00">ЭРОС</text>
</g>
<!-- ЭРОС&#45;&gt;Волгатранстелеком -->
<g id="edge8" class="edge"><title>ЭРОС&#45;&gt;Волгатранстелеком</title>
<path fill="none" stroke="black" d="M647.87,-1076.49C678.284,-1071.61 719.813,-1064.95 756.034,-1059.14"/>
<polygon fill="black" stroke="black" points="756.777,-1062.56 766.096,-1057.52 755.668,-1055.65 756.777,-1062.56"/>
</g>
<!-- ЭРОС&#45;&gt;Мегафон -->
<g id="edge10" class="edge"><title>ЭРОС&#45;&gt;Мегафон</title>
<path fill="none" stroke="black" d="M647.795,-1070.85C666.287,-1063.38 686.559,-1052.05 699.553,-1035.45 743.689,-979.086 684.56,-928.697 735.553,-878.451 800.667,-814.293 864.511,-891.551 936.684,-835.451 999.596,-786.55 1028.59,-691.542 1039.57,-644.389"/>
<polygon fill="black" stroke="black" points="1043,-645.074 1041.76,-634.552 1036.17,-643.553 1043,-645.074"/>
</g>
<!-- ЭРОС&#45;&gt;HE -->
<g id="edge9" class="edge"><title>ЭРОС&#45;&gt;HE</title>
<path fill="none" stroke="black" d="M627.313,-1095.13C653.169,-1108.12 696.76,-1129.26 735.553,-1144.45 758.012,-1153.25 783.973,-1161.53 803.754,-1167.47"/>
<polygon fill="black" stroke="black" points="802.901,-1170.86 813.483,-1170.35 804.888,-1164.15 802.901,-1170.86"/>
</g>
<!-- ЭРОС&#45;&gt;Tele2 -->
<g id="edge40" class="edge"><title>ЭРОС&#45;&gt;Tele2</title>
<path fill="none" stroke="black" d="M649.867,-1092.27C675.04,-1096.94 706.951,-1102.52 735.553,-1106.45 904.674,-1129.71 1107.38,-1146.62 1193.63,-1153.3"/>
<ellipse fill="none" stroke="black" cx="645.876" cy="-1091.52" rx="4.00001" ry="4.00001"/>
<polygon fill="black" stroke="black" points="1193.56,-1156.8 1203.8,-1154.08 1194.1,-1149.82 1193.56,-1156.8"/>
</g>
<!-- Comrise -->
<g id="node31" class="node"><title>Comrise</title>
<polygon fill="none" stroke="black" points="443.226,-910.014 391.894,-922.451 340.562,-910.014 340.61,-889.889 443.178,-889.889 443.226,-910.014"/>
<text text-anchor="middle" x="391.894" y="-900.751" font-family="Times New Roman,serif" font-size="14.00">Comrise</text>
</g>
<!-- Comrise&#45;&gt;Унико -->
<g id="edge64" class="edge"><title>Comrise&#45;&gt;Унико</title>
<path fill="none" stroke="black" stroke-dasharray="1,5" d="M401.192,-928.754C416.266,-973.358 448.688,-1071.43 471.428,-1155.45 490.131,-1224.55 459.382,-1259.38 507.428,-1312.45 520.3,-1326.67 539.69,-1334.58 557.609,-1338.97"/>
<ellipse fill="none" stroke="black" cx="399.869" cy="-924.851" rx="4.00001" ry="4.00001"/>
<ellipse fill="none" stroke="black" cx="561.802" cy="-1339.89" rx="4.00001" ry="4.00001"/>
</g>
<!-- Comrise&#45;&gt;Вымпелком -->
<g id="edge12" class="edge"><title>Comrise&#45;&gt;Вымпелком</title>
<path fill="none" stroke="black" d="M417.015,-889.668C434.902,-877.397 458.362,-858.295 471.428,-835.451 513.667,-761.604 475.447,-726.285 507.428,-647.451 576.809,-476.424 573.108,-388.062 735.553,-300.451 814.232,-258.018 849.442,-280.967 936.684,-300.451 963.224,-306.378 990.933,-319.541 1011.7,-331.009"/>
<polygon fill="black" stroke="black" points="1010.02,-334.076 1020.44,-335.96 1013.47,-327.986 1010.02,-334.076"/>
</g>
<!-- Comrise&#45;&gt;Ростелеком -->
<g id="edge11" class="edge"><title>Comrise&#45;&gt;Ростелеком</title>
<path fill="none" stroke="black" d="M395.743,-921.78C404.217,-968.018 433.433,-1095.67 507.428,-1167.45 620.009,-1276.66 678.272,-1298.45 835.119,-1298.45 835.119,-1298.45 835.119,-1298.45 1047.17,-1298.45 1153.99,-1298.45 1277.64,-1298.45 1354.53,-1298.45"/>
<polygon fill="black" stroke="black" points="1354.6,-1301.95 1364.6,-1298.45 1354.6,-1294.95 1354.6,-1301.95"/>
</g>
<!-- Comrise&#45;&gt;Powernet -->
<g id="edge65" class="edge"><title>Comrise&#45;&gt;Powernet</title>
<path fill="none" stroke="black" stroke-dasharray="1,5" d="M451.271,-891.779C540.031,-872.51 707.169,-836.227 788.414,-818.59"/>
<ellipse fill="none" stroke="black" cx="447.101" cy="-892.684" rx="4.00001" ry="4.00001"/>
<ellipse fill="none" stroke="black" cx="792.566" cy="-817.689" rx="4.00001" ry="4.00001"/>
</g>
<!-- Евротелеком&#45;&gt;Транстелеком -->
<g id="edge16" class="edge"><title>Евротелеком&#45;&gt;Транстелеком</title>
<path fill="none" stroke="black" d="M887.278,-212.152C949.996,-224.223 1060.67,-245.334 1155.65,-262.451 1226.63,-275.243 1308.13,-289.171 1363.49,-298.518"/>
<polygon fill="black" stroke="black" points="1363.07,-301.997 1373.51,-300.209 1364.23,-295.094 1363.07,-301.997"/>
</g>
<!-- Евротелеком&#45;&gt;Вымпелком -->
<g id="edge17" class="edge"><title>Евротелеком&#45;&gt;Вымпелком</title>
<path fill="none" stroke="black" d="M890.473,-211.606C906.617,-216.367 923.534,-223.572 936.684,-234.451 962.428,-255.751 950.439,-275.519 972.684,-300.451 983.338,-312.392 997.298,-323.048 1010.12,-331.492"/>
<polygon fill="black" stroke="black" points="1008.44,-334.572 1018.76,-336.973 1012.19,-328.661 1008.44,-334.572"/>
</g>
<!-- Virgin -->
<g id="node33" class="node"><title>Virgin</title>
<polygon fill="none" stroke="black" points="643.829,-1014.01 603.491,-1026.45 563.153,-1014.01 563.19,-993.889 643.791,-993.889 643.829,-1014.01"/>
<text text-anchor="middle" x="603.491" y="-1004.75" font-family="Times New Roman,serif" font-size="14.00">Virgin</text>
</g>
<!-- Virgin&#45;&gt;Волгатранстелеком -->
<g id="edge58" class="edge"><title>Virgin&#45;&gt;Волгатранстелеком</title>
<path fill="none" stroke="black" d="M650.247,-1015.99C680.56,-1020.99 721.112,-1027.67 756.512,-1033.5"/>
<ellipse fill="black" stroke="black" cx="646.005" cy="-1015.29" rx="4.00001" ry="4.00001"/>
<polygon fill="black" stroke="black" points="756.394,-1037.03 766.83,-1035.2 757.532,-1030.12 756.394,-1037.03"/>
</g>
<!-- Virgin&#45;&gt;Мегафон -->
<g id="edge22" class="edge"><title>Virgin&#45;&gt;Мегафон</title>
<path fill="none" stroke="black" d="M608.277,-993.871C619.713,-952.956 657.978,-836.477 735.553,-781.451 809.755,-728.818 857.977,-789.071 936.684,-743.451 978.338,-719.308 1011.59,-673.061 1029.82,-643.538"/>
<polygon fill="black" stroke="black" points="1033.05,-644.962 1035.21,-634.589 1027.05,-641.354 1033.05,-644.962"/>
</g>
<!-- Virgin&#45;&gt;Вымпелком -->
<g id="edge21" class="edge"><title>Virgin&#45;&gt;Вымпелком</title>
<path fill="none" stroke="black" d="M610.921,-993.793C628.47,-953.088 677.347,-834.848 699.553,-731.451 717.736,-646.789 671.557,-401.785 735.553,-343.451 810.206,-275.405 942.019,-311.533 1006.9,-335.588"/>
<polygon fill="black" stroke="black" points="1005.76,-338.897 1016.35,-339.182 1008.25,-332.355 1005.76,-338.897"/>
</g>
<!-- Virgin&#45;&gt;Ростелеком -->
<g id="edge23" class="edge"><title>Virgin&#45;&gt;Ростелеком</title>
<path fill="none" stroke="black" d="M626.391,-1019.57C662.183,-1037.71 729.829,-1071.82 735.553,-1073.45 860.572,-1109.15 1206.63,-1062.25 1317.93,-1129.45 1371.7,-1161.91 1404.45,-1231.61 1419.28,-1270.59"/>
<polygon fill="black" stroke="black" points="1416.1,-1272.08 1422.84,-1280.26 1422.67,-1269.67 1416.1,-1272.08"/>
</g>
<!-- Энфорта -->
<g id="node34" class="node"><title>Энфорта</title>
<polygon fill="none" stroke="black" points="1293.27,-208.014 1236.79,-220.451 1180.32,-208.014 1180.37,-187.889 1293.21,-187.889 1293.27,-208.014"/>
<text text-anchor="middle" x="1236.79" y="-198.751" font-family="Times New Roman,serif" font-size="14.00">Энфорта</text>
</g>
<!-- Энфорта&#45;&gt;Транстелеком -->
<g id="edge27" class="edge"><title>Энфорта&#45;&gt;Транстелеком</title>
<path fill="none" stroke="black" d="M1269.71,-213.391C1284.69,-218.978 1302.58,-226.311 1317.93,-234.451 1345.84,-249.243 1375.35,-269.477 1396.9,-285.2"/>
<polygon fill="black" stroke="black" points="1394.91,-288.082 1405.03,-291.2 1399.06,-282.448 1394.91,-288.082"/>
</g>
<!-- WMAX -->
<g id="node35" class="node"><title>WMAX</title>
<polygon fill="none" stroke="black" points="653.11,-116.014 603.491,-128.451 553.872,-116.014 553.918,-95.889 653.063,-95.889 653.11,-116.014"/>
<text text-anchor="middle" x="603.491" y="-106.751" font-family="Times New Roman,serif" font-size="14.00">WMAX</text>
</g>
<!-- WMAX&#45;&gt;Релком -->
<g id="edge32" class="edge"><title>WMAX&#45;&gt;Релком</title>
<path fill="none" stroke="black" d="M653.119,-99.0653C693.724,-89.5578 751.138,-76.1149 790.563,-66.8838"/>
<polygon fill="black" stroke="black" points="791.488,-70.2619 800.427,-64.5742 789.892,-63.4462 791.488,-70.2619"/>
</g>
<!-- WMAX&#45;&gt;Мегафон -->
<g id="edge30" class="edge"><title>WMAX&#45;&gt;Мегафон</title>
<path fill="none" stroke="black" d="M632.061,-121.364C654.313,-131.736 684.334,-149.61 699.553,-175.451 743.049,-249.302 677.08,-496.788 735.553,-559.451 766.454,-592.566 892.207,-583.89 936.684,-592.451 956.353,-596.237 977.914,-600.901 996.597,-605.107"/>
<polygon fill="black" stroke="black" points="995.837,-608.523 1006.36,-607.322 997.385,-601.697 995.837,-608.523"/>
</g>
<!-- WMAX&#45;&gt;WestCall -->
<g id="edge31" class="edge"><title>WMAX&#45;&gt;WestCall</title>
<path fill="none" stroke="black" d="M653.119,-110.451C688.513,-110.451 736.677,-110.451 774.568,-110.451"/>
<polygon fill="black" stroke="black" points="774.963,-113.951 784.963,-110.451 774.963,-106.951 774.963,-113.951"/>
</g>
<!-- InstrNet -->
<g id="node36" class="node"><title>InstrNet</title>
<polygon fill="none" stroke="black" points="885.738,-944.014 836.119,-956.451 786.5,-944.014 786.546,-923.889 885.691,-923.889 885.738,-944.014"/>
<text text-anchor="middle" x="836.119" y="-934.751" font-family="Times New Roman,serif" font-size="14.00">InstrNet</text>
</g>
<!-- InstrNet&#45;&gt;ЭрТелеком -->
<g id="edge46" class="edge"><title>InstrNet&#45;&gt;ЭрТелеком</title>
<path fill="none" stroke="black" d="M893.885,-933.813C917,-931.924 944.069,-929.712 968.87,-927.686"/>
<ellipse fill="none" stroke="black" cx="889.884" cy="-934.14" rx="4" ry="4"/>
<polygon fill="black" stroke="black" points="969.294,-931.163 978.975,-926.86 968.723,-924.186 969.294,-931.163"/>
</g>
<!-- InstrNet&#45;&gt;Мегафон -->
<g id="edge33" class="edge"><title>InstrNet&#45;&gt;Мегафон</title>
<path fill="none" stroke="black" d="M866.146,-923.795C887.988,-911.53 917.365,-892.231 936.684,-868.451 993.605,-798.388 1025.7,-693.951 1038.54,-644.433"/>
<polygon fill="black" stroke="black" points="1041.93,-645.285 1040.98,-634.733 1035.14,-643.572 1041.93,-645.285"/>
</g>
<!-- ТСвязь -->
<g id="node37" class="node"><title>ТСвязь</title>
<polygon fill="none" stroke="black" points="885.738,-376.014 836.119,-388.451 786.5,-376.014 786.546,-355.889 885.691,-355.889 885.738,-376.014"/>
<text text-anchor="middle" x="836.119" y="-366.751" font-family="Times New Roman,serif" font-size="14.00">ТСвязь</text>
</g>
<!-- ТСвязь&#45;&gt;Мегафон -->
<g id="edge34" class="edge"><title>ТСвязь&#45;&gt;Мегафон</title>
<path fill="none" stroke="black" d="M885.773,-375.251C903.346,-379.017 922.362,-385.683 936.684,-397.451 998.096,-447.914 1027.72,-541.793 1039.2,-588.526"/>
<polygon fill="black" stroke="black" points="1035.79,-589.35 1041.49,-598.281 1042.61,-587.745 1035.79,-589.35"/>
</g>
<!-- ТСвязь&#45;&gt;Вымпелком -->
<g id="edge35" class="edge"><title>ТСвязь&#45;&gt;Вымпелком</title>
<path fill="none" stroke="black" d="M885.897,-365.997C918.735,-362.998 961.92,-359.054 995.037,-356.03"/>
<polygon fill="black" stroke="black" points="995.769,-359.477 1005.41,-355.082 995.133,-352.506 995.769,-359.477"/>
</g>
<!-- Восток -->
<g id="node38" class="node"><title>Восток</title>
<polygon fill="none" stroke="black" points="884.524,-538.014 836.119,-550.451 787.713,-538.014 787.758,-517.889 884.479,-517.889 884.524,-538.014"/>
<text text-anchor="middle" x="836.119" y="-528.751" font-family="Times New Roman,serif" font-size="14.00">Восток</text>
</g>
<!-- Восток&#45;&gt;Мегафон -->
<g id="edge36" class="edge"><title>Восток&#45;&gt;Мегафон</title>
<path fill="none" stroke="black" d="M870.252,-541.866C889.812,-547.728 914.924,-555.786 936.684,-564.451 960.41,-573.899 986.22,-586.185 1006.71,-596.442"/>
<polygon fill="black" stroke="black" points="1005.22,-599.61 1015.73,-600.994 1008.38,-593.362 1005.22,-599.61"/>
</g>
<!-- SmIT34 -->
<g id="node39" class="node"><title>SmIT34</title>
<polygon fill="none" stroke="black" points="441.513,-235.014 391.894,-247.451 342.275,-235.014 342.322,-214.889 441.467,-214.889 441.513,-235.014"/>
<text text-anchor="middle" x="391.894" y="-225.751" font-family="Times New Roman,serif" font-size="14.00">SmIT34</text>
</g>
<!-- SmIT34&#45;&gt;КоламбияТелеком -->
<g id="edge48" class="edge"><title>SmIT34&#45;&gt;КоламбияТелеком</title>
<path fill="none" stroke="black" d="M449.524,-222.156C471.611,-219.311 497.345,-215.996 521.335,-212.906"/>
<ellipse fill="none" stroke="black" cx="445.474" cy="-222.678" rx="4.00001" ry="4.00001"/>
<polygon fill="black" stroke="black" points="522.023,-216.346 531.494,-211.597 521.129,-209.403 522.023,-216.346"/>
</g>
<!-- ВолгаЛинк -->
<g id="node40" class="node"><title>ВолгаЛинк</title>
<polygon fill="none" stroke="black" points="1303.65,-1550.01 1236.79,-1562.45 1169.93,-1550.01 1170,-1529.89 1303.59,-1529.89 1303.65,-1550.01"/>
<text text-anchor="middle" x="1236.79" y="-1540.75" font-family="Times New Roman,serif" font-size="14.00">ВолгаЛинк</text>
</g>
<!-- ВолгаЛинк&#45;&gt;Ростелеком -->
<g id="edge49" class="edge"><title>ВолгаЛинк&#45;&gt;Ростелеком</title>
<path fill="none" stroke="black" d="M1305.51,-1526.15C1309.95,-1523.62 1314.15,-1520.73 1317.93,-1517.45 1378,-1465.44 1409.35,-1373 1421.95,-1326.63"/>
<ellipse fill="black" stroke="black" cx="1301.91" cy="-1528.02" rx="4.00002" ry="4.00002"/>
<polygon fill="black" stroke="black" points="1425.41,-1327.23 1424.55,-1316.67 1418.64,-1325.46 1425.41,-1327.23"/>
</g>
<!-- Волгателком -->
<g id="node41" class="node"><title>Волгателком</title>
<polygon fill="none" stroke="black" points="467.428,-181.014 391.894,-193.451 316.36,-181.014 316.431,-160.889 467.358,-160.889 467.428,-181.014"/>
<text text-anchor="middle" x="391.894" y="-171.751" font-family="Times New Roman,serif" font-size="14.00">Волгателком</text>
</g>
<!-- Волгателком&#45;&gt;КоламбияТелеком -->
<g id="edge50" class="edge"><title>Волгателком&#45;&gt;КоламбияТелеком</title>
<path fill="none" stroke="black" d="M461.9,-184.341C480.902,-186.788 501.687,-189.466 521.307,-191.993"/>
<ellipse fill="black" stroke="black" cx="457.767" cy="-183.808" rx="4.00001" ry="4.00001"/>
<polygon fill="black" stroke="black" points="521.081,-195.493 531.446,-193.299 521.975,-188.55 521.081,-195.493"/>
</g>
<!-- ИнсаткомВ -->
<g id="node42" class="node"><title>ИнсаткомВ</title>
<polygon fill="none" stroke="black" points="1304.87,-1496.01 1236.79,-1508.45 1168.72,-1496.01 1168.78,-1475.89 1304.8,-1475.89 1304.87,-1496.01"/>
<text text-anchor="middle" x="1236.79" y="-1486.75" font-family="Times New Roman,serif" font-size="14.00">ИнсаткомВ</text>
</g>
<!-- ИнсаткомВ&#45;&gt;Ростелеком -->
<g id="edge51" class="edge"><title>ИнсаткомВ&#45;&gt;Ростелеком</title>
<path fill="none" stroke="black" d="M1295.18,-1472.39C1303.26,-1468.5 1311.12,-1463.88 1317.93,-1458.45 1363.96,-1421.8 1398.64,-1360.98 1416.11,-1325.83"/>
<ellipse fill="black" stroke="black" cx="1291.37" cy="-1474.11" rx="4.00002" ry="4.00002"/>
<polygon fill="black" stroke="black" points="1419.35,-1327.16 1420.57,-1316.64 1413.06,-1324.1 1419.35,-1327.16"/>
</g>
<!-- Магистраль&#45;&gt;Унико -->
<g id="edge52" class="edge"><title>Магистраль&#45;&gt;Унико</title>
<path fill="none" stroke="black" d="M423.213,-826.674C440.451,-838.777 460.685,-856.311 471.428,-877.451 551.694,-1035.39 420.435,-1120.11 507.428,-1274.45 520.665,-1297.94 545.396,-1315.77 566.315,-1327.56"/>
<ellipse fill="black" stroke="black" cx="419.846" cy="-824.391" rx="4.00002" ry="4.00002"/>
<polygon fill="black" stroke="black" points="564.837,-1330.73 575.302,-1332.39 568.154,-1324.57 564.837,-1330.73"/>
</g>
<!-- Магистраль&#45;&gt;ЮТК -->
<g id="edge69" class="edge"><title>Магистраль&#45;&gt;ЮТК</title>
<path fill="none" stroke="black" stroke-dasharray="1,5" d="M422.739,-826.924C439.806,-839.117 460.026,-856.659 471.428,-877.451 521.813,-969.327 442.482,-1028.22 507.428,-1110.45 575.291,-1196.37 628.107,-1182.39 735.553,-1203.45 823.276,-1220.65 849.751,-1224.27 936.684,-1203.45 1033.03,-1180.37 1133.39,-1120.87 1189.9,-1083.52"/>
<ellipse fill="none" stroke="black" cx="419.426" cy="-824.632" rx="4.00002" ry="4.00002"/>
<ellipse fill="none" stroke="black" cx="1193.24" cy="-1081.3" rx="4.00002" ry="4.00002"/>
</g>
<!-- Магистраль&#45;&gt;Powernet -->
<g id="edge68" class="edge"><title>Магистраль&#45;&gt;Powernet</title>
<path fill="none" stroke="black" stroke-dasharray="1,5" d="M470.992,-808.451C558.179,-808.451 697.327,-808.451 775.961,-808.451"/>
<ellipse fill="none" stroke="black" cx="466.966" cy="-808.451" rx="4" ry="4"/>
<ellipse fill="none" stroke="black" cx="780.31" cy="-808.451" rx="4" ry="4"/>
</g>
<!-- Магистраль&#45;&gt;Евротелеком -->
<g id="edge70" class="edge"><title>Магистраль&#45;&gt;Евротелеком</title>
<path fill="none" stroke="black" stroke-dasharray="1,5" d="M396.287,-785.605C410.966,-688.082 469.953,-309.924 507.428,-272.451 512.243,-267.636 685.409,-232.399 778.015,-213.831"/>
<ellipse fill="none" stroke="black" cx="395.674" cy="-789.695" rx="4.00001" ry="4.00001"/>
<ellipse fill="none" stroke="black" cx="781.978" cy="-213.037" rx="4.00001" ry="4.00001"/>
</g>
<!-- ФорумNet -->
<g id="node44" class="node"><title>ФорумNet</title>
<polygon fill="none" stroke="black" points="453.614,-1350.01 391.894,-1362.45 330.174,-1350.01 330.232,-1329.89 453.556,-1329.89 453.614,-1350.01"/>
<text text-anchor="middle" x="391.894" y="-1340.75" font-family="Times New Roman,serif" font-size="14.00">ФорумNet</text>
</g>
<!-- ФорумNet&#45;&gt;Унико -->
<g id="edge54" class="edge"><title>ФорумNet&#45;&gt;Унико</title>
<path fill="none" stroke="black" d="M462.035,-1344.45C491.06,-1344.45 524.228,-1344.45 551.042,-1344.45"/>
<ellipse fill="black" stroke="black" cx="457.8" cy="-1344.45" rx="4" ry="4"/>
<polygon fill="black" stroke="black" points="551.36,-1347.95 561.36,-1344.45 551.359,-1340.95 551.36,-1347.95"/>
</g>
<!-- ByteS -->
<g id="node45" class="node"><title>ByteS</title>
<polygon fill="none" stroke="black" points="432.232,-1296.01 391.894,-1308.45 351.556,-1296.01 351.594,-1275.89 432.195,-1275.89 432.232,-1296.01"/>
<text text-anchor="middle" x="391.894" y="-1286.75" font-family="Times New Roman,serif" font-size="14.00">ByteS</text>
</g>
<!-- ByteS&#45;&gt;Унико -->
<g id="edge55" class="edge"><title>ByteS&#45;&gt;Унико</title>
<path fill="none" stroke="black" d="M432.247,-1300.59C468.923,-1310.04 523.43,-1324.08 560.831,-1333.72"/>
<ellipse fill="black" stroke="black" cx="428.146" cy="-1299.53" rx="4.00001" ry="4.00001"/>
<polygon fill="black" stroke="black" points="560.34,-1337.21 570.897,-1336.31 562.087,-1330.43 560.34,-1337.21"/>
</g>
<!-- АвантекПлюс -->
<g id="node46" class="node"><title>АвантекПлюс</title>
<polygon fill="none" stroke="black" points="471.462,-1242.01 391.894,-1254.45 312.326,-1242.01 312.401,-1221.89 471.388,-1221.89 471.462,-1242.01"/>
<text text-anchor="middle" x="391.894" y="-1232.75" font-family="Times New Roman,serif" font-size="14.00">АвантекПлюс</text>
</g>
<!-- АвантекПлюс&#45;&gt;Унико -->
<g id="edge56" class="edge"><title>АвантекПлюс&#45;&gt;Унико</title>
<path fill="none" stroke="black" d="M446.851,-1250.1C455.526,-1253.64 464.062,-1258.03 471.428,-1263.45 493.198,-1279.46 485.607,-1296.51 507.428,-1312.45 522.474,-1323.44 541.549,-1330.84 558.658,-1335.72"/>
<ellipse fill="black" stroke="black" cx="442.958" cy="-1248.63" rx="4.00001" ry="4.00001"/>
<polygon fill="black" stroke="black" points="557.896,-1339.14 568.458,-1338.31 559.686,-1332.37 557.896,-1339.14"/>
</g>
<!-- Robor -->
<g id="node47" class="node"><title>Robor</title>
<polygon fill="none" stroke="black" points="1279.45,-338.014 1236.79,-350.451 1194.14,-338.014 1194.18,-317.889 1279.41,-317.889 1279.45,-338.014"/>
<text text-anchor="middle" x="1236.79" y="-328.751" font-family="Times New Roman,serif" font-size="14.00">Robor</text>
</g>
<!-- Robor&#45;&gt;Транстелеком -->
<g id="edge57" class="edge"><title>Robor&#45;&gt;Транстелеком</title>
<path fill="none" stroke="black" d="M1287.92,-326.413C1309.72,-323.788 1335.62,-320.668 1359.22,-317.824"/>
<ellipse fill="black" stroke="black" cx="1283.67" cy="-326.925" rx="4.00001" ry="4.00001"/>
<polygon fill="black" stroke="black" points="1359.67,-321.296 1369.18,-316.625 1358.83,-314.346 1359.67,-321.296"/>
</g>
<!-- ВистОнЛайн -->
<g id="node48" class="node"><title>ВистОнЛайн</title>
<polygon fill="none" stroke="black" points="468.035,-1188.01 391.894,-1200.45 315.753,-1188.01 315.824,-1167.89 467.964,-1167.89 468.035,-1188.01"/>
<text text-anchor="middle" x="391.894" y="-1178.75" font-family="Times New Roman,serif" font-size="14.00">ВистОнЛайн</text>
</g>
<!-- ВистОнЛайн&#45;&gt;Унико -->
<g id="edge59" class="edge"><title>ВистОнЛайн&#45;&gt;Унико</title>
<path fill="none" stroke="black" d="M450.921,-1195.52C458.477,-1199.1 465.602,-1203.66 471.428,-1209.45 505.805,-1243.65 472.941,-1278.36 507.428,-1312.45 520.576,-1325.45 539.167,-1333.17 556.427,-1337.75"/>
<ellipse fill="black" stroke="black" cx="446.933" cy="-1193.83" rx="4.00001" ry="4.00001"/>
<polygon fill="black" stroke="black" points="555.846,-1341.21 566.383,-1340.11 557.457,-1334.4 555.846,-1341.21"/>
</g>
</g>
</svg>
