<?xml version="1.0" encoding="UTF-8" standalone="no"?>
<!DOCTYPE svg PUBLIC "-//W3C//DTD SVG 1.1//EN"
 "http://www.w3.org/Graphics/SVG/1.1/DTD/svg11.dtd">
<!-- Generated by graphviz version 2.38.0 (20140413.2041)
 -->
<!-- Title: ispgraph Pages: 1 -->
<svg width="1489pt" height="1558pt"
 viewBox="0.00 0.00 1489.43 1557.93" xmlns="http://www.w3.org/2000/svg" xmlns:xlink="http://www.w3.org/1999/xlink">
<g id="graph0" class="graph" transform="scale(1 1) rotate(0) translate(4 1553.93)">
<title>ispgraph</title>
<polygon fill="white" stroke="none" points="-4,4 -4,-1553.93 1485.43,-1553.93 1485.43,4 -4,4"/>
<!-- Унико -->
<g id="node1" class="node"><title>Унико</title>
<polygon fill="none" stroke="black" points="621.444,-1331.93 600.417,-1349.93 558.362,-1349.93 537.335,-1331.93 558.362,-1313.93 600.417,-1313.93 621.444,-1331.93"/>
<text text-anchor="middle" x="579.389" y="-1328.23" font-family="Times New Roman,serif" font-size="14.00">Унико</text>
</g>
<!-- ЭрТелеком -->
<g id="node3" class="node"><title>ЭрТелеком</title>
<polygon fill="none" stroke="black" points="1095.54,-908.933 1058.8,-939.987 985.333,-939.987 948.598,-908.933 985.333,-877.88 1058.8,-877.88 1095.54,-908.933"/>
<text text-anchor="middle" x="1022.07" y="-912.733" font-family="Times New Roman,serif" font-size="14.00">ЭР&#45;Телеком</text>
<text text-anchor="middle" x="1022.07" y="-897.733" font-family="Times New Roman,serif" font-size="14.00">транзит</text>
</g>
<!-- Унико&#45;&gt;ЭрТелеком -->
<g id="edge71" class="edge"><title>Унико&#45;&gt;ЭрТелеком</title>
<path fill="none" stroke="black" stroke-dasharray="1,5" d="M619.087,-1320.61C698.183,-1296.68 874.165,-1239.22 912.583,-1190.93 969.902,-1118.89 907.568,-1069.36 948.583,-986.933 956.085,-971.857 967.426,-957.634 978.924,-945.566"/>
<ellipse fill="none" stroke="black" cx="615.12" cy="-1321.8" rx="4.00001" ry="4.00001"/>
<ellipse fill="none" stroke="black" cx="981.762" cy="-942.674" rx="4.00002" ry="4.00002"/>
</g>
<!-- Ростелеком -->
<g id="node10" class="node"><title>Ростелеком</title>
<polygon fill="none" stroke="black" points="1470.72,-1285.93 1438.18,-1303.93 1373.09,-1303.93 1340.55,-1285.93 1373.09,-1267.93 1438.18,-1267.93 1470.72,-1285.93"/>
<text text-anchor="middle" x="1405.63" y="-1282.23" font-family="Times New Roman,serif" font-size="14.00">Ростелеком</text>
</g>
<!-- Унико&#45;&gt;Ростелеком -->
<g id="edge24" class="edge"><title>Унико&#45;&gt;Ростелеком</title>
<path fill="none" stroke="black" d="M600.879,-1349.71C625.289,-1369.61 668.225,-1400.65 711.452,-1412.93 952.746,-1481.48 1252.16,-1358.77 1361.83,-1307.19"/>
<polygon fill="black" stroke="black" points="1363.4,-1310.32 1370.93,-1302.87 1360.39,-1304 1363.4,-1310.32"/>
</g>
<!-- КвантТелеком -->
<g id="node12" class="node"><title>КвантТелеком</title>
<polygon fill="none" stroke="black" points="890.119,-1331.93 851.068,-1349.93 772.967,-1349.93 733.916,-1331.93 772.967,-1313.93 851.068,-1313.93 890.119,-1331.93"/>
<text text-anchor="middle" x="812.018" y="-1328.23" font-family="Times New Roman,serif" font-size="14.00">КвантТелеком</text>
</g>
<!-- Унико&#45;&gt;КвантТелеком -->
<g id="edge26" class="edge"><title>Унико&#45;&gt;КвантТелеком</title>
<path fill="none" stroke="black" d="M621.621,-1331.93C649.923,-1331.93 688.549,-1331.93 723.539,-1331.93"/>
<polygon fill="black" stroke="black" points="723.781,-1335.43 733.781,-1331.93 723.781,-1328.43 723.781,-1335.43"/>
</g>
<!-- Powernet -->
<g id="node19" class="node"><title>Powernet</title>
<polygon fill="none" stroke="black" points="863.586,-795.933 837.802,-813.933 786.233,-813.933 760.449,-795.933 786.233,-777.933 837.802,-777.933 863.586,-795.933"/>
<text text-anchor="middle" x="812.018" y="-792.233" font-family="Times New Roman,serif" font-size="14.00">Powernet</text>
</g>
<!-- Унико&#45;&gt;Powernet -->
<g id="edge42" class="edge"><title>Унико&#45;&gt;Powernet</title>
<path fill="none" stroke="black" d="M590.609,-1306.33C610.143,-1262.45 652.84,-1170.66 675.452,-1088.93 703.275,-988.366 656.381,-945.562 711.452,-856.933 724.064,-836.637 744.963,-820.612 764.367,-809.821"/>
<ellipse fill="none" stroke="black" cx="588.968" cy="-1310.05" rx="4.00002" ry="4.00002"/>
<polygon fill="black" stroke="black" points="766.186,-812.82 773.434,-805.093 762.949,-806.613 766.186,-812.82"/>
</g>
<!-- RETN -->
<g id="node20" class="node"><title>RETN</title>
<polygon fill="none" stroke="black" points="851.571,-1385.93 831.794,-1403.93 792.241,-1403.93 772.464,-1385.93 792.241,-1367.93 831.794,-1367.93 851.571,-1385.93"/>
<text text-anchor="middle" x="812.018" y="-1382.23" font-family="Times New Roman,serif" font-size="14.00">RETN</text>
</g>
<!-- Унико&#45;&gt;RETN -->
<g id="edge25" class="edge"><title>Унико&#45;&gt;RETN</title>
<path fill="none" stroke="black" d="M612.944,-1339.56C654.183,-1349.21 725.268,-1365.86 770.125,-1376.36"/>
<polygon fill="black" stroke="black" points="769.568,-1379.82 780.103,-1378.69 771.164,-1373.01 769.568,-1379.82"/>
</g>
<!-- ДомРу -->
<g id="node2" class="node"><title>ДомРу</title>
<polygon fill="none" stroke="black" points="866.088,-979.933 839.053,-997.933 784.982,-997.933 757.947,-979.933 784.982,-961.933 839.053,-961.933 866.088,-979.933"/>
<text text-anchor="middle" x="812.018" y="-976.233" font-family="Times New Roman,serif" font-size="14.00">ДОМ.RU</text>
</g>
<!-- ДомРу&#45;&gt;ЭрТелеком -->
<g id="edge45" class="edge"><title>ДомРу&#45;&gt;ЭрТелеком</title>
<path fill="none" stroke="black" d="M860.125,-968.405C876.824,-963.991 895.664,-958.635 912.583,-952.933 929.408,-947.263 947.382,-940.339 963.762,-933.678"/>
<ellipse fill="none" stroke="black" cx="855.987" cy="-969.484" rx="4.00001" ry="4.00001"/>
<polygon fill="black" stroke="black" points="965.284,-936.837 973.202,-929.797 962.622,-930.362 965.284,-936.837"/>
</g>
<!-- ЮТК -->
<g id="node15" class="node"><title>ЮТК</title>
<polygon fill="none" stroke="black" points="1283.76,-1038.93 1248.23,-1069.99 1177.16,-1069.99 1141.62,-1038.93 1177.16,-1007.88 1248.23,-1007.88 1283.76,-1038.93"/>
<text text-anchor="middle" x="1212.69" y="-1042.73" font-family="Times New Roman,serif" font-size="14.00">Ростелеком</text>
<text text-anchor="middle" x="1212.69" y="-1027.73" font-family="Times New Roman,serif" font-size="14.00">Волгоград</text>
</g>
<!-- ЭрТелеком&#45;&gt;ЮТК -->
<g id="edge76" class="edge"><title>ЭрТелеком&#45;&gt;ЮТК</title>
<path fill="none" stroke="black" stroke-dasharray="1,5" d="M1070.05,-941.313C1099.23,-961.424 1136.57,-987.159 1165.59,-1007.16"/>
<ellipse fill="none" stroke="black" cx="1066.36" cy="-938.773" rx="4.00002" ry="4.00002"/>
<ellipse fill="none" stroke="black" cx="1169.1" cy="-1009.58" rx="4.00002" ry="4.00002"/>
</g>
<!-- Связьинформ -->
<g id="node25" class="node"><title>Связьинформ</title>
<polygon fill="none" stroke="black" points="1293.97,-709.496 1212.69,-721.933 1131.41,-709.496 1131.49,-689.371 1293.9,-689.371 1293.97,-709.496"/>
<text text-anchor="middle" x="1212.69" y="-700.233" font-family="Times New Roman,serif" font-size="14.00">Связьинформ</text>
</g>
<!-- ЭрТелеком&#45;&gt;Связьинформ -->
<g id="edge77" class="edge"><title>ЭрТелеком&#45;&gt;Связьинформ</title>
<path fill="none" stroke="black" stroke-dasharray="1,5" d="M1074.43,-880.564C1081.87,-875.475 1089.16,-869.881 1095.55,-863.933 1140.41,-822.204 1179.18,-760.879 1198.54,-727.573"/>
<ellipse fill="none" stroke="black" cx="1070.91" cy="-882.886" rx="4.00002" ry="4.00002"/>
<ellipse fill="none" stroke="black" cx="1200.6" cy="-723.986" rx="4.00002" ry="4.00002"/>
</g>
<!-- Транстелеком -->
<g id="node4" class="node"><title>Транстелеком</title>
<polygon fill="none" stroke="black" points="1481.23,-296.933 1443.43,-314.933 1367.83,-314.933 1330.03,-296.933 1367.83,-278.933 1443.43,-278.933 1481.23,-296.933"/>
<text text-anchor="middle" x="1405.63" y="-293.233" font-family="Times New Roman,serif" font-size="14.00">Транстелеком</text>
</g>
<!-- Волгатранстелеком -->
<g id="node5" class="node"><title>Волгатранстелеком</title>
<polygon fill="none" stroke="black" points="912.649,-1033.93 862.333,-1051.93 761.702,-1051.93 711.387,-1033.93 761.702,-1015.93 862.333,-1015.93 912.649,-1033.93"/>
<text text-anchor="middle" x="812.018" y="-1030.23" font-family="Times New Roman,serif" font-size="14.00">Волгатранстелеком</text>
</g>
<!-- Волгатранстелеком&#45;&gt;ЭрТелеком -->
<g id="edge74" class="edge"><title>Волгатранстелеком&#45;&gt;ЭрТелеком</title>
<path fill="none" stroke="black" stroke-dasharray="1,5" d="M888.567,-1019.7C897.088,-1016.31 905.309,-1012.12 912.583,-1006.93 935.767,-990.4 928.038,-973.651 948.583,-953.933 954.883,-947.887 962.125,-942.239 969.542,-937.126"/>
<ellipse fill="none" stroke="black" cx="884.772" cy="-1021.09" rx="4.00001" ry="4.00001"/>
<ellipse fill="none" stroke="black" cx="973.048" cy="-934.798" rx="4.00002" ry="4.00002"/>
</g>
<!-- Волгатранстелеком&#45;&gt;Транстелеком -->
<g id="edge44" class="edge"><title>Волгатранстелеком&#45;&gt;Транстелеком</title>
<path fill="none" stroke="black" d="M881.78,-1017.64C892.239,-1014.49 902.799,-1010.91 912.583,-1006.93 929.54,-1000.04 931.586,-993.723 948.583,-986.933 1011.24,-961.905 1037.78,-983.787 1095.55,-948.933 1207.69,-881.274 1231.73,-846.245 1293.83,-730.933 1369.41,-590.593 1395,-396.75 1402.19,-325.057"/>
<ellipse fill="none" stroke="black" cx="877.656" cy="-1018.84" rx="4.00001" ry="4.00001"/>
<polygon fill="black" stroke="black" points="1405.68,-325.294 1403.16,-315.005 1398.72,-324.624 1405.68,-325.294"/>
</g>
<!-- Волгатранстелеком&#45;&gt;ЮТК -->
<g id="edge73" class="edge"><title>Волгатранстелеком&#45;&gt;ЮТК</title>
<path fill="none" stroke="black" stroke-dasharray="1,5" d="M906.878,-1039.41C920.855,-1040.04 935.093,-1040.59 948.583,-1040.93 1013.88,-1042.62 1030.24,-1041.5 1095.55,-1040.93 1108.24,-1040.82 1121.72,-1040.65 1134.82,-1040.44"/>
<ellipse fill="none" stroke="black" cx="902.683" cy="-1039.21" rx="4" ry="4"/>
<ellipse fill="none" stroke="black" cx="1138.91" cy="-1040.38" rx="4" ry="4"/>
</g>
<!-- Orange -->
<g id="node16" class="node"><title>Orange</title>
<polygon fill="none" stroke="black" points="1064.62,-1013.93 1043.35,-1031.93 1000.79,-1031.93 979.511,-1013.93 1000.79,-995.933 1043.35,-995.933 1064.62,-1013.93"/>
<text text-anchor="middle" x="1022.07" y="-1010.23" font-family="Times New Roman,serif" font-size="14.00">Orange</text>
</g>
<!-- Волгатранстелеком&#45;&gt;Orange -->
<g id="edge75" class="edge"><title>Волгатранстелеком&#45;&gt;Orange</title>
<path fill="none" stroke="black" stroke-dasharray="1,5" d="M899.866,-1025.58C925.808,-1023.09 953.214,-1020.46 975.391,-1018.32"/>
<ellipse fill="none" stroke="black" cx="895.654" cy="-1025.99" rx="4" ry="4"/>
<ellipse fill="none" stroke="black" cx="979.639" cy="-1017.92" rx="4" ry="4"/>
</g>
<!-- Релком -->
<g id="node6" class="node"><title>Релком</title>
<polygon fill="none" stroke="black" points="857.578,-43.9334 834.798,-61.9334 789.237,-61.9334 766.457,-43.9334 789.237,-25.9334 834.798,-25.9334 857.578,-43.9334"/>
<text text-anchor="middle" x="812.018" y="-40.2334" font-family="Times New Roman,serif" font-size="14.00">Релком</text>
</g>
<!-- Мегафон -->
<g id="node7" class="node"><title>Мегафон</title>
<polygon fill="none" stroke="black" points="1075.14,-603.933 1048.6,-621.933 995.533,-621.933 968.997,-603.933 995.533,-585.933 1048.6,-585.933 1075.14,-603.933"/>
<text text-anchor="middle" x="1022.07" y="-600.233" font-family="Times New Roman,serif" font-size="14.00">Мегафон</text>
</g>
<!-- Вымпелком -->
<g id="node8" class="node"><title>Вымпелком</title>
<polygon fill="none" stroke="black" points="1067.13,-338.933 1044.6,-356.933 999.538,-356.933 977.009,-338.933 999.538,-320.933 1044.6,-320.933 1067.13,-338.933"/>
<text text-anchor="middle" x="1022.07" y="-335.233" font-family="Times New Roman,serif" font-size="14.00">Билайн</text>
</g>
<!-- КоламбияТелеком -->
<g id="node9" class="node"><title>КоламбияТелеком</title>
<polygon fill="none" stroke="black" points="675.515,-189.933 627.452,-207.933 531.327,-207.933 483.264,-189.933 531.327,-171.933 627.452,-171.933 675.515,-189.933"/>
<text text-anchor="middle" x="579.389" y="-186.233" font-family="Times New Roman,serif" font-size="14.00">КоламбияТелеком</text>
</g>
<!-- КоламбияТелеком&#45;&gt;Транстелеком -->
<g id="edge18" class="edge"><title>КоламбияТелеком&#45;&gt;Транстелеком</title>
<path fill="none" stroke="black" d="M637.416,-175.559C660.272,-170.489 686.953,-165.431 711.452,-162.933 968.954,-136.685 1059.65,-52.6977 1293.83,-162.933 1340.57,-184.932 1374.33,-237.388 1391.58,-269.758"/>
<polygon fill="black" stroke="black" points="1388.5,-271.43 1396.2,-278.708 1394.72,-268.217 1388.5,-271.43"/>
</g>
<!-- КоламбияТелеком&#45;&gt;Мегафон -->
<g id="edge20" class="edge"><title>КоламбияТелеком&#45;&gt;Мегафон</title>
<path fill="none" stroke="black" d="M580.075,-208.134C580.072,-271.666 589.472,-484.877 711.452,-579.933 749.2,-609.35 883.49,-609.509 962.269,-606.843"/>
<polygon fill="black" stroke="black" points="962.665,-610.331 972.531,-606.469 962.41,-603.335 962.665,-610.331"/>
</g>
<!-- КоламбияТелеком&#45;&gt;Вымпелком -->
<g id="edge19" class="edge"><title>КоламбияТелеком&#45;&gt;Вымпелком</title>
<path fill="none" stroke="black" d="M641.774,-202.689C736.921,-222.485 909.488,-258.498 912.583,-259.933 930.971,-268.464 932.29,-275.876 948.583,-287.933 961.547,-297.527 976.046,-307.814 988.649,-316.618"/>
<polygon fill="black" stroke="black" points="986.823,-319.611 997.03,-322.45 990.821,-313.865 986.823,-319.611"/>
</g>
<!-- WestCall -->
<g id="node18" class="node"><title>WestCall</title>
<polygon fill="none" stroke="black" points="863.084,-97.9334 837.551,-115.933 786.484,-115.933 760.951,-97.9334 786.484,-79.9334 837.551,-79.9334 863.084,-97.9334"/>
<text text-anchor="middle" x="812.018" y="-94.2334" font-family="Times New Roman,serif" font-size="14.00">WestCall</text>
</g>
<!-- КоламбияТелеком&#45;&gt;WestCall -->
<g id="edge47" class="edge"><title>КоламбияТелеком&#45;&gt;WestCall</title>
<path fill="none" stroke="black" d="M624.138,-168.33C649.353,-156.279 681.831,-141.427 711.452,-129.933 728.856,-123.18 748.342,-116.689 765.429,-111.34"/>
<ellipse fill="none" stroke="black" cx="620.498" cy="-170.079" rx="4.00002" ry="4.00002"/>
<polygon fill="black" stroke="black" points="766.656,-114.624 775.178,-108.329 764.591,-107.936 766.656,-114.624"/>
</g>
<!-- Евротелеком -->
<g id="node31" class="node"><title>Евротелеком</title>
<polygon fill="none" stroke="black" points="888.159,-195.496 812.018,-207.933 735.876,-195.496 735.947,-175.371 888.088,-175.371 888.159,-195.496"/>
<text text-anchor="middle" x="812.018" y="-186.233" font-family="Times New Roman,serif" font-size="14.00">Евротелеком</text>
</g>
<!-- КоламбияТелеком&#45;&gt;Евротелеком -->
<g id="edge67" class="edge"><title>КоламбияТелеком&#45;&gt;Евротелеком</title>
<path fill="none" stroke="black" stroke-dasharray="1,5" d="M683.574,-189.933C698.275,-189.933 713.243,-189.933 727.506,-189.933"/>
<ellipse fill="none" stroke="black" cx="679.526" cy="-189.933" rx="4" ry="4"/>
<ellipse fill="none" stroke="black" cx="731.815" cy="-189.933" rx="4" ry="4"/>
</g>
<!-- HE -->
<g id="node11" class="node"><title>HE</title>
<polygon fill="none" stroke="black" points="839.018,-1163.93 825.518,-1181.93 798.518,-1181.93 785.018,-1163.93 798.518,-1145.93 825.518,-1145.93 839.018,-1163.93"/>
<text text-anchor="middle" x="812.018" y="-1160.23" font-family="Times New Roman,serif" font-size="14.00">HE</text>
</g>
<!-- Tele2 -->
<g id="node13" class="node"><title>Tele2</title>
<polygon fill="none" stroke="black" points="1247.74,-1143.93 1230.22,-1161.93 1195.17,-1161.93 1177.65,-1143.93 1195.17,-1125.93 1230.22,-1125.93 1247.74,-1143.93"/>
<text text-anchor="middle" x="1212.69" y="-1140.23" font-family="Times New Roman,serif" font-size="14.00">Tele2</text>
</g>
<!-- Tele2&#45;&gt;Транстелеком -->
<g id="edge3" class="edge"><title>Tele2&#45;&gt;Транстелеком</title>
<path fill="none" stroke="black" d="M1236.35,-1131.98C1255.02,-1120.86 1280.51,-1102.47 1293.83,-1078.93 1369.23,-945.723 1397.39,-450.084 1403.36,-325.494"/>
<polygon fill="black" stroke="black" points="1406.87,-325.4 1403.84,-315.247 1399.88,-325.072 1406.87,-325.4"/>
</g>
<!-- Tele2&#45;&gt;Ростелеком -->
<g id="edge2" class="edge"><title>Tele2&#45;&gt;Ростелеком</title>
<path fill="none" stroke="black" d="M1233.77,-1158.86C1266.75,-1183.39 1332.7,-1232.44 1372.33,-1261.91"/>
<polygon fill="black" stroke="black" points="1370.25,-1264.72 1380.36,-1267.88 1374.42,-1259.11 1370.25,-1264.72"/>
</g>
<!-- МТС -->
<g id="node14" class="node"><title>МТС</title>
<polygon fill="none" stroke="black" points="847.065,-649.933 829.541,-667.933 794.494,-667.933 776.97,-649.933 794.494,-631.933 829.541,-631.933 847.065,-649.933"/>
<text text-anchor="middle" x="812.018" y="-646.233" font-family="Times New Roman,serif" font-size="14.00">МТС</text>
</g>
<!-- ЮТК&#45;&gt;Ростелеком -->
<g id="edge43" class="edge"><title>ЮТК&#45;&gt;Ростелеком</title>
<path fill="none" stroke="black" d="M1267.36,-1063.52C1276.86,-1069.35 1286.15,-1076.18 1293.83,-1083.93 1345.18,-1135.79 1379.62,-1216.34 1395.17,-1258.34"/>
<ellipse fill="none" stroke="black" cx="1263.87" cy="-1061.47" rx="4.00002" ry="4.00002"/>
<polygon fill="black" stroke="black" points="1391.93,-1259.69 1398.63,-1267.9 1398.52,-1257.31 1391.93,-1259.69"/>
</g>
<!-- ПросторТелеком -->
<g id="node17" class="node"><title>ПросторТелеком</title>
<polygon fill="none" stroke="black" points="902.135,-411.933 857.076,-429.933 766.959,-429.933 721.9,-411.933 766.959,-393.933 857.076,-393.933 902.135,-411.933"/>
<text text-anchor="middle" x="812.018" y="-408.233" font-family="Times New Roman,serif" font-size="14.00">ПросторТелеком</text>
</g>
<!-- ПросторТелеком&#45;&gt;Мегафон -->
<g id="edge29" class="edge"><title>ПросторТелеком&#45;&gt;Мегафон</title>
<path fill="none" stroke="black" d="M877.202,-422.002C889.696,-425.922 902.141,-431.368 912.583,-438.933 961.559,-474.418 994.552,-539.352 1010.33,-576.296"/>
<polygon fill="black" stroke="black" points="1007.26,-578.03 1014.33,-585.927 1013.73,-575.349 1007.26,-578.03"/>
</g>
<!-- ПросторТелеком&#45;&gt;Вымпелком -->
<g id="edge28" class="edge"><title>ПросторТелеком&#45;&gt;Вымпелком</title>
<path fill="none" stroke="black" d="M868.463,-398.334C882.943,-394.392 898.449,-389.821 912.583,-384.933 936.618,-376.622 962.891,-365.536 983.562,-356.329"/>
<polygon fill="black" stroke="black" points="985.246,-359.41 992.93,-352.115 982.374,-353.026 985.246,-359.41"/>
</g>
<!-- Powernet&#45;&gt;Унико -->
<g id="edge41" class="edge"><title>Powernet&#45;&gt;Унико</title>
<path fill="none" stroke="black" d="M778.2,-817.862C755.689,-831.024 727.15,-849.669 711.452,-874.933 656.381,-963.562 703.275,-1006.37 675.452,-1106.93 655.005,-1180.84 618.132,-1262.97 596.817,-1304.73"/>
<ellipse fill="none" stroke="black" cx="781.809" cy="-815.779" rx="4.00002" ry="4.00002"/>
<polygon fill="black" stroke="black" points="593.645,-1303.24 592.134,-1313.73 599.855,-1306.47 593.645,-1303.24"/>
</g>
<!-- Powernet&#45;&gt;ЭрТелеком -->
<g id="edge66" class="edge"><title>Powernet&#45;&gt;ЭрТелеком</title>
<path fill="none" stroke="black" stroke-dasharray="1,5" d="M848.761,-815.347C881.932,-833.364 931.697,-860.393 969.23,-880.778"/>
<ellipse fill="none" stroke="black" cx="845.025" cy="-813.318" rx="4.00002" ry="4.00002"/>
<ellipse fill="none" stroke="black" cx="973.049" cy="-882.853" rx="4.00002" ry="4.00002"/>
</g>
<!-- Powernet&#45;&gt;Мегафон -->
<g id="edge14" class="edge"><title>Powernet&#45;&gt;Мегафон</title>
<path fill="none" stroke="black" d="M854.165,-789.141C873.324,-784.449 895.582,-776.67 912.583,-763.933 959.599,-728.711 993.039,-666.851 1009.49,-631.249"/>
<polygon fill="black" stroke="black" points="1012.76,-632.503 1013.67,-621.947 1006.38,-629.63 1012.76,-632.503"/>
</g>
<!-- Powernet&#45;&gt;Вымпелком -->
<g id="edge15" class="edge"><title>Powernet&#45;&gt;Вымпелком</title>
<path fill="none" stroke="black" d="M845.133,-782.8C867.376,-772.071 895.884,-754.774 912.583,-730.933 952.909,-673.362 930.334,-644.813 948.583,-576.933 969.191,-500.28 997.564,-411.036 1011.93,-366.777"/>
<polygon fill="black" stroke="black" points="1015.34,-367.621 1015.11,-357.029 1008.68,-365.453 1015.34,-367.621"/>
</g>
<!-- МКС -->
<g id="node21" class="node"><title>МКС</title>
<polygon fill="none" stroke="black" points="649.235,-687.263 579.389,-710.361 509.544,-687.263 509.609,-649.89 649.17,-649.89 649.235,-687.263"/>
<text text-anchor="middle" x="579.389" y="-680.733" font-family="Times New Roman,serif" font-size="14.00">МТС</text>
<text text-anchor="middle" x="579.389" y="-665.733" font-family="Times New Roman,serif" font-size="14.00">Волгоград</text>
</g>
<!-- МКС&#45;&gt;МТС -->
<g id="edge13" class="edge"><title>МКС&#45;&gt;МТС</title>
<path fill="none" stroke="black" d="M649.273,-668.869C688.557,-664.27 736.472,-658.661 769.912,-654.746"/>
<polygon fill="black" stroke="black" points="770.707,-658.177 780.232,-653.538 769.893,-651.224 770.707,-658.177"/>
</g>
<!-- СпринтСеть -->
<g id="node26" class="node"><title>СпринтСеть</title>
<polygon fill="none" stroke="black" points="885.232,-709.496 812.018,-721.933 738.804,-709.496 738.872,-689.371 885.163,-689.371 885.232,-709.496"/>
<text text-anchor="middle" x="812.018" y="-700.233" font-family="Times New Roman,serif" font-size="14.00">СпринтСеть</text>
</g>
<!-- МКС&#45;&gt;СпринтСеть -->
<g id="edge61" class="edge"><title>МКС&#45;&gt;СпринтСеть</title>
<path fill="none" stroke="black" stroke-dasharray="1,5" d="M657.335,-685.942C680.975,-688.709 707.043,-691.761 730.891,-694.553"/>
<ellipse fill="none" stroke="black" cx="653.246" cy="-685.463" rx="4.00001" ry="4.00001"/>
<ellipse fill="none" stroke="black" cx="734.913" cy="-695.024" rx="4.00001" ry="4.00001"/>
</g>
<!-- ГородокТочкаРу -->
<g id="node22" class="node"><title>ГородокТочкаРу</title>
<polygon fill="none" stroke="black" points="380.041,-1164.5 309.147,-1176.93 238.253,-1164.5 238.319,-1144.37 379.975,-1144.37 380.041,-1164.5"/>
<text text-anchor="middle" x="309.147" y="-1155.23" font-family="Times New Roman,serif" font-size="14.00">Городок.Ру</text>
</g>
<!-- ГородокТочкаРу&#45;&gt;Унико -->
<g id="edge53" class="edge"><title>ГородокТочкаРу&#45;&gt;Унико</title>
<path fill="none" stroke="black" d="M387.924,-1163.13C409.325,-1167.73 431.089,-1176.09 447.327,-1190.93 484.986,-1225.35 447.355,-1263.76 483.327,-1299.93 496.362,-1313.04 514.934,-1320.78 532.21,-1325.35"/>
<ellipse fill="black" stroke="black" cx="383.992" cy="-1162.36" rx="4.00001" ry="4.00001"/>
<polygon fill="black" stroke="black" points="531.644,-1328.81 542.18,-1327.69 533.244,-1322 531.644,-1328.81"/>
</g>
<!-- STARLINE -->
<g id="node23" class="node"><title>STARLINE</title>
<polygon fill="none" stroke="black" points="134.95,-575.496 67.4833,-587.933 0.0166721,-575.496 0.0796443,-555.371 134.887,-555.371 134.95,-575.496"/>
<text text-anchor="middle" x="67.4833" y="-566.233" font-family="Times New Roman,serif" font-size="14.00">STARLINE</text>
</g>
<!-- VSSA -->
<g id="node24" class="node"><title>VSSA</title>
<polygon fill="none" stroke="black" points="110.141,-629.496 67.4833,-641.933 24.8257,-629.496 24.8655,-609.371 110.101,-609.371 110.141,-629.496"/>
<text text-anchor="middle" x="67.4833" y="-620.233" font-family="Times New Roman,serif" font-size="14.00">VSSA</text>
</g>
<!-- Связьинформ&#45;&gt;Унико -->
<g id="edge37" class="edge"><title>Связьинформ&#45;&gt;Унико</title>
<path fill="none" stroke="black" d="M1182.08,-722.905C1129.77,-755.57 1016.69,-822.433 912.583,-858.933 826.574,-889.088 775.338,-833.93 711.452,-898.933 648.451,-963.037 700.5,-1011.61 675.452,-1097.93 653.061,-1175.09 614.024,-1261.67 593.639,-1304.66"/>
<ellipse fill="none" stroke="black" cx="1185.66" cy="-720.656" rx="4.00002" ry="4.00002"/>
<polygon fill="black" stroke="black" points="590.384,-1303.36 589.232,-1313.89 596.7,-1306.37 590.384,-1303.36"/>
</g>
<!-- Связьинформ&#45;&gt;Транстелеком -->
<g id="edge1" class="edge"><title>Связьинформ&#45;&gt;Транстелеком</title>
<path fill="none" stroke="black" d="M1220.72,-688.965C1248.98,-628.726 1354.65,-403.478 1391.7,-324.504"/>
<polygon fill="black" stroke="black" points="1394.99,-325.737 1396.06,-315.198 1388.65,-322.764 1394.99,-325.737"/>
</g>
<!-- СпринтСеть&#45;&gt;Мегафон -->
<g id="edge5" class="edge"><title>СпринтСеть&#45;&gt;Мегафон</title>
<path fill="none" stroke="black" d="M878.903,-689.35C890.364,-685.893 901.994,-681.771 912.583,-676.933 940.712,-664.082 969.625,-644.236 990.521,-628.479"/>
<polygon fill="black" stroke="black" points="992.87,-631.088 998.679,-622.228 988.612,-625.532 992.87,-631.088"/>
</g>
<!-- СпринтСеть&#45;&gt;Вымпелком -->
<g id="edge4" class="edge"><title>СпринтСеть&#45;&gt;Вымпелком</title>
<path fill="none" stroke="black" d="M885.328,-693.642C895.375,-689.692 904.877,-684.294 912.583,-676.933 918.434,-671.344 987.731,-447.335 1012.41,-367.132"/>
<polygon fill="black" stroke="black" points="1015.86,-367.818 1015.45,-357.231 1009.17,-365.761 1015.86,-367.818"/>
</g>
<!-- СпринтСеть&#45;&gt;Связьинформ -->
<g id="edge60" class="edge"><title>СпринтСеть&#45;&gt;Связьинформ</title>
<path fill="none" stroke="black" stroke-dasharray="1,5" d="M893.511,-703.933C960.093,-703.933 1054.54,-703.933 1123.23,-703.933"/>
<ellipse fill="none" stroke="black" cx="889.215" cy="-703.933" rx="4" ry="4"/>
<ellipse fill="none" stroke="black" cx="1127.47" cy="-703.933" rx="4" ry="4"/>
</g>
<!-- Старнет -->
<g id="node27" class="node"><title>Старнет</title>
<polygon fill="none" stroke="black" points="119.923,-521.496 67.4833,-533.933 15.0439,-521.496 15.0929,-501.371 119.874,-501.371 119.923,-521.496"/>
<text text-anchor="middle" x="67.4833" y="-512.233" font-family="Times New Roman,serif" font-size="14.00">Старнет</text>
</g>
<!-- Старнет&#45;&gt;Унико -->
<g id="edge39" class="edge"><title>Старнет&#45;&gt;Унико</title>
<path fill="none" stroke="black" d="M116.339,-527.55C123.604,-531.324 130.24,-536.32 134.967,-542.933 218.176,-659.37 73.9361,-1080.74 170.967,-1185.93 255.027,-1277.07 347.331,-1150.64 447.327,-1223.93 477.472,-1246.03 455.39,-1275.1 483.327,-1299.93 497.145,-1312.21 515.852,-1319.81 533.015,-1324.5"/>
<ellipse fill="none" stroke="black" cx="112.552" cy="-525.826" rx="4.00002" ry="4.00002"/>
<polygon fill="black" stroke="black" points="532.346,-1327.94 542.894,-1326.94 534.023,-1321.14 532.346,-1327.94"/>
</g>
<!-- Старнет&#45;&gt;Транстелеком -->
<g id="edge6" class="edge"><title>Старнет&#45;&gt;Транстелеком</title>
<path fill="none" stroke="black" d="M70.4973,-500.978C79.3286,-437.598 116.628,-192.019 170.967,-139.933 348.816,30.5414 466.635,-44.4387 711.452,-16.9334 800.285,-6.95306 829.243,15.3983 912.583,-16.9334 1035.46,-64.6053 1014.06,-157.196 1131.55,-216.933 1197.16,-250.292 1223.54,-228.12 1293.83,-249.933 1315.44,-256.639 1338.59,-266.081 1358.12,-274.744"/>
<polygon fill="black" stroke="black" points="1356.83,-278.004 1367.39,-278.919 1359.71,-271.621 1356.83,-278.004"/>
</g>
<!-- Старнет&#45;&gt;КоламбияТелеком -->
<g id="edge38" class="edge"><title>Старнет&#45;&gt;КоламбияТелеком</title>
<path fill="none" stroke="black" d="M69.0582,-492.992C71.7961,-437.835 87.0862,-297.519 170.967,-231.933 195.062,-213.093 370.808,-200.606 483.472,-194.442"/>
<ellipse fill="none" stroke="black" cx="68.886" cy="-497.092" rx="4" ry="4"/>
<polygon fill="black" stroke="black" points="483.698,-197.935 493.495,-193.902 483.321,-190.946 483.698,-197.935"/>
</g>
<!-- Магистраль -->
<g id="node42" class="node"><title>Магистраль</title>
<polygon fill="none" stroke="black" points="380.041,-801.496 309.147,-813.933 238.253,-801.496 238.319,-781.371 379.975,-781.371 380.041,-801.496"/>
<text text-anchor="middle" x="309.147" y="-792.233" font-family="Times New Roman,serif" font-size="14.00">Магистраль</text>
</g>
<!-- Старнет&#45;&gt;Магистраль -->
<g id="edge62" class="edge"><title>Старнет&#45;&gt;Магистраль</title>
<path fill="none" stroke="black" stroke-dasharray="1,5" d="M110.54,-528.662C119.146,-532.422 127.763,-537.13 134.967,-542.933 217.422,-609.361 276.301,-725.318 298.457,-773.72"/>
<ellipse fill="none" stroke="black" cx="106.722" cy="-527.107" rx="4.00001" ry="4.00001"/>
<ellipse fill="none" stroke="black" cx="300.167" cy="-777.51" rx="4.00002" ry="4.00002"/>
</g>
<!-- Экспилайн -->
<g id="node28" class="node"><title>Экспилайн</title>
<polygon fill="none" stroke="black" points="878.878,-471.496 812.018,-483.933 745.157,-471.496 745.22,-451.371 878.816,-451.371 878.878,-471.496"/>
<text text-anchor="middle" x="812.018" y="-462.233" font-family="Times New Roman,serif" font-size="14.00">Экспилайн</text>
</g>
<!-- Экспилайн&#45;&gt;Мегафон -->
<g id="edge7" class="edge"><title>Экспилайн&#45;&gt;Мегафон</title>
<path fill="none" stroke="black" d="M864.215,-474.318C880.416,-478.381 897.91,-484.32 912.583,-492.933 922.598,-498.813 968.319,-547.109 997.116,-578.029"/>
<polygon fill="black" stroke="black" points="994.669,-580.537 1004.04,-585.479 999.796,-575.771 994.669,-580.537"/>
</g>
<!-- Экспилайн&#45;&gt;Связьинформ -->
<g id="edge63" class="edge"><title>Экспилайн&#45;&gt;Связьинформ</title>
<path fill="none" stroke="black" stroke-dasharray="1,5" d="M864.398,-477.648C924.181,-493.094 1023.84,-524.621 1095.55,-576.933 1137.61,-607.612 1176.22,-655.36 1196.59,-682.731"/>
<ellipse fill="none" stroke="black" cx="860.47" cy="-476.649" rx="4.00001" ry="4.00001"/>
<ellipse fill="none" stroke="black" cx="1199" cy="-686.005" rx="4.00002" ry="4.00002"/>
</g>
<!-- ЭРОС -->
<g id="node29" class="node"><title>ЭРОС</title>
<polygon fill="none" stroke="black" points="623.761,-1076.5 579.389,-1088.93 535.018,-1076.5 535.059,-1056.37 623.72,-1056.37 623.761,-1076.5"/>
<text text-anchor="middle" x="579.389" y="-1067.23" font-family="Times New Roman,serif" font-size="14.00">ЭРОС</text>
</g>
<!-- ЭРОС&#45;&gt;Волгатранстелеком -->
<g id="edge8" class="edge"><title>ЭРОС&#45;&gt;Волгатранстелеком</title>
<path fill="none" stroke="black" d="M623.769,-1063.97C654.183,-1059.09 695.712,-1052.43 731.933,-1046.62"/>
<polygon fill="black" stroke="black" points="732.676,-1050.05 741.995,-1045.01 731.567,-1043.14 732.676,-1050.05"/>
</g>
<!-- ЭРОС&#45;&gt;Мегафон -->
<g id="edge10" class="edge"><title>ЭРОС&#45;&gt;Мегафон</title>
<path fill="none" stroke="black" d="M623.694,-1058.33C642.185,-1050.86 662.458,-1039.53 675.452,-1022.93 719.587,-966.569 660.458,-916.179 711.452,-865.933 776.566,-801.775 840.41,-879.033 912.583,-822.933 975.495,-774.032 1004.49,-679.024 1015.47,-631.871"/>
<polygon fill="black" stroke="black" points="1018.9,-632.556 1017.66,-622.034 1012.07,-631.035 1018.9,-632.556"/>
</g>
<!-- ЭРОС&#45;&gt;HE -->
<g id="edge9" class="edge"><title>ЭРОС&#45;&gt;HE</title>
<path fill="none" stroke="black" d="M603.212,-1082.62C629.068,-1095.6 672.659,-1116.74 711.452,-1131.93 733.911,-1140.73 759.872,-1149.01 779.653,-1154.95"/>
<polygon fill="black" stroke="black" points="778.8,-1158.35 789.382,-1157.83 780.787,-1151.63 778.8,-1158.35"/>
</g>
<!-- ЭРОС&#45;&gt;Tele2 -->
<g id="edge40" class="edge"><title>ЭРОС&#45;&gt;Tele2</title>
<path fill="none" stroke="black" d="M625.766,-1079.75C650.939,-1084.43 682.85,-1090 711.452,-1093.93 880.573,-1117.19 1083.28,-1134.1 1169.53,-1140.78"/>
<ellipse fill="none" stroke="black" cx="621.774" cy="-1079" rx="4.00001" ry="4.00001"/>
<polygon fill="black" stroke="black" points="1169.46,-1144.29 1179.7,-1141.56 1170,-1137.31 1169.46,-1144.29"/>
</g>
<!-- Comrise -->
<g id="node30" class="node"><title>Comrise</title>
<polygon fill="none" stroke="black" points="360.479,-897.496 309.147,-909.933 257.815,-897.496 257.863,-877.371 360.431,-877.371 360.479,-897.496"/>
<text text-anchor="middle" x="309.147" y="-888.233" font-family="Times New Roman,serif" font-size="14.00">Comrise</text>
</g>
<!-- Comrise&#45;&gt;Унико -->
<g id="edge64" class="edge"><title>Comrise&#45;&gt;Унико</title>
<path fill="none" stroke="black" stroke-dasharray="1,5" d="M325.666,-913.661C354.073,-954.448 414.518,-1046.12 447.327,-1131.93 474.597,-1203.26 432.484,-1242.96 483.327,-1299.93 496.096,-1314.24 515.473,-1322.16 533.408,-1326.54"/>
<ellipse fill="none" stroke="black" cx="323.365" cy="-910.379" rx="4.00002" ry="4.00002"/>
<ellipse fill="none" stroke="black" cx="537.611" cy="-1327.46" rx="4.00001" ry="4.00001"/>
</g>
<!-- Comrise&#45;&gt;Вымпелком -->
<g id="edge12" class="edge"><title>Comrise&#45;&gt;Вымпелком</title>
<path fill="none" stroke="black" d="M360.593,-878.813C390.306,-868.479 426.115,-851.012 447.327,-822.933 498.608,-755.052 451.346,-713.767 483.327,-634.933 552.708,-463.906 549.007,-375.544 711.452,-287.933 790.13,-245.5 825.341,-268.449 912.583,-287.933 939.122,-293.861 966.832,-307.023 987.603,-318.492"/>
<polygon fill="black" stroke="black" points="985.916,-321.559 996.342,-323.443 989.367,-315.468 985.916,-321.559"/>
</g>
<!-- Comrise&#45;&gt;Ростелеком -->
<g id="edge11" class="edge"><title>Comrise&#45;&gt;Ростелеком</title>
<path fill="none" stroke="black" d="M316.699,-908.294C335.677,-953.735 395.01,-1082.87 483.327,-1154.93 604.852,-1254.09 654.171,-1285.93 811.018,-1285.93 811.018,-1285.93 811.018,-1285.93 1023.07,-1285.93 1129.89,-1285.93 1253.54,-1285.93 1330.43,-1285.93"/>
<polygon fill="black" stroke="black" points="1330.5,-1289.43 1340.5,-1285.93 1330.5,-1282.43 1330.5,-1289.43"/>
</g>
<!-- Comrise&#45;&gt;Powernet -->
<g id="edge65" class="edge"><title>Comrise&#45;&gt;Powernet</title>
<path fill="none" stroke="black" stroke-dasharray="1,5" d="M368.592,-880.732C468.584,-861.566 670.618,-822.843 762.979,-805.141"/>
<ellipse fill="none" stroke="black" cx="364.394" cy="-881.536" rx="4.00001" ry="4.00001"/>
<ellipse fill="none" stroke="black" cx="767.107" cy="-804.35" rx="4.00001" ry="4.00001"/>
</g>
<!-- Евротелеком&#45;&gt;Транстелеком -->
<g id="edge16" class="edge"><title>Евротелеком&#45;&gt;Транстелеком</title>
<path fill="none" stroke="black" d="M863.177,-199.634C925.894,-211.705 1036.57,-232.816 1131.55,-249.933 1202.53,-262.725 1284.03,-276.654 1339.38,-286"/>
<polygon fill="black" stroke="black" points="1338.97,-289.479 1349.41,-287.691 1340.13,-282.576 1338.97,-289.479"/>
</g>
<!-- Евротелеком&#45;&gt;Вымпелком -->
<g id="edge17" class="edge"><title>Евротелеком&#45;&gt;Вымпелком</title>
<path fill="none" stroke="black" d="M866.372,-199.088C882.516,-203.849 899.433,-211.054 912.583,-221.933 938.327,-243.233 926.338,-263.001 948.583,-287.933 959.237,-299.874 973.197,-310.53 986.019,-318.974"/>
<polygon fill="black" stroke="black" points="984.34,-322.054 994.66,-324.455 988.09,-316.143 984.34,-322.054"/>
</g>
<!-- Virgin -->
<g id="node32" class="node"><title>Virgin</title>
<polygon fill="none" stroke="black" points="619.727,-1001.5 579.389,-1013.93 539.051,-1001.5 539.089,-981.371 619.69,-981.371 619.727,-1001.5"/>
<text text-anchor="middle" x="579.389" y="-992.233" font-family="Times New Roman,serif" font-size="14.00">Virgin</text>
</g>
<!-- Virgin&#45;&gt;Волгатранстелеком -->
<g id="edge58" class="edge"><title>Virgin&#45;&gt;Волгатранстелеком</title>
<path fill="none" stroke="black" d="M626.146,-1003.47C656.459,-1008.47 697.011,-1015.15 732.411,-1020.98"/>
<ellipse fill="black" stroke="black" cx="621.904" cy="-1002.77" rx="4.00001" ry="4.00001"/>
<polygon fill="black" stroke="black" points="732.292,-1024.51 742.728,-1022.68 733.43,-1017.6 732.292,-1024.51"/>
</g>
<!-- Virgin&#45;&gt;Мегафон -->
<g id="edge22" class="edge"><title>Virgin&#45;&gt;Мегафон</title>
<path fill="none" stroke="black" d="M584.176,-981.353C595.612,-940.438 633.877,-823.959 711.452,-768.933 785.653,-716.3 833.875,-776.554 912.583,-730.933 954.237,-706.79 987.493,-660.544 1005.72,-631.02"/>
<polygon fill="black" stroke="black" points="1008.95,-632.444 1011.11,-622.071 1002.95,-628.836 1008.95,-632.444"/>
</g>
<!-- Virgin&#45;&gt;Вымпелком -->
<g id="edge21" class="edge"><title>Virgin&#45;&gt;Вымпелком</title>
<path fill="none" stroke="black" d="M586.82,-981.276C604.369,-940.57 653.246,-822.33 675.452,-718.933 693.635,-634.271 647.456,-389.267 711.452,-330.933 786.105,-262.887 917.918,-299.015 982.802,-323.07"/>
<polygon fill="black" stroke="black" points="981.657,-326.38 992.248,-326.664 984.146,-319.837 981.657,-326.38"/>
</g>
<!-- Virgin&#45;&gt;Ростелеком -->
<g id="edge23" class="edge"><title>Virgin&#45;&gt;Ростелеком</title>
<path fill="none" stroke="black" d="M602.29,-1007.05C638.081,-1025.19 705.728,-1059.3 711.452,-1060.93 836.471,-1096.63 1182.53,-1049.73 1293.83,-1116.93 1347.6,-1149.39 1380.35,-1219.09 1395.18,-1258.07"/>
<polygon fill="black" stroke="black" points="1392,-1259.56 1398.73,-1267.74 1398.57,-1257.15 1392,-1259.56"/>
</g>
<!-- Энфорта -->
<g id="node33" class="node"><title>Энфорта</title>
<polygon fill="none" stroke="black" points="1269.17,-195.496 1212.69,-207.933 1156.22,-195.496 1156.27,-175.371 1269.11,-175.371 1269.17,-195.496"/>
<text text-anchor="middle" x="1212.69" y="-186.233" font-family="Times New Roman,serif" font-size="14.00">Энфорта</text>
</g>
<!-- Энфорта&#45;&gt;Транстелеком -->
<g id="edge27" class="edge"><title>Энфорта&#45;&gt;Транстелеком</title>
<path fill="none" stroke="black" d="M1245.61,-200.873C1260.59,-206.46 1278.48,-213.793 1293.83,-221.933 1321.74,-236.725 1351.25,-256.959 1372.8,-272.682"/>
<polygon fill="black" stroke="black" points="1370.81,-275.564 1380.93,-278.682 1374.96,-269.93 1370.81,-275.564"/>
</g>
<!-- WMAX -->
<g id="node34" class="node"><title>WMAX</title>
<polygon fill="none" stroke="black" points="629.008,-103.496 579.389,-115.933 529.771,-103.496 529.817,-83.3711 628.962,-83.3711 629.008,-103.496"/>
<text text-anchor="middle" x="579.389" y="-94.2334" font-family="Times New Roman,serif" font-size="14.00">WMAX</text>
</g>
<!-- WMAX&#45;&gt;Релком -->
<g id="edge32" class="edge"><title>WMAX&#45;&gt;Релком</title>
<path fill="none" stroke="black" d="M629.018,-86.5474C669.623,-77.0399 727.037,-63.597 766.462,-54.3659"/>
<polygon fill="black" stroke="black" points="767.387,-57.744 776.325,-52.0564 765.791,-50.9284 767.387,-57.744"/>
</g>
<!-- WMAX&#45;&gt;Мегафон -->
<g id="edge30" class="edge"><title>WMAX&#45;&gt;Мегафон</title>
<path fill="none" stroke="black" d="M607.959,-108.846C630.211,-119.218 660.233,-137.093 675.452,-162.933 718.947,-236.784 652.979,-484.27 711.452,-546.933 742.353,-580.049 868.106,-571.372 912.583,-579.933 932.252,-583.72 953.813,-588.383 972.495,-592.589"/>
<polygon fill="black" stroke="black" points="971.735,-596.005 982.262,-594.805 973.284,-589.179 971.735,-596.005"/>
</g>
<!-- WMAX&#45;&gt;WestCall -->
<g id="edge31" class="edge"><title>WMAX&#45;&gt;WestCall</title>
<path fill="none" stroke="black" d="M629.018,-97.9334C664.412,-97.9334 712.576,-97.9334 750.467,-97.9334"/>
<polygon fill="black" stroke="black" points="750.862,-101.434 760.862,-97.9334 750.862,-94.4335 750.862,-101.434"/>
</g>
<!-- InstrNet -->
<g id="node35" class="node"><title>InstrNet</title>
<polygon fill="none" stroke="black" points="861.637,-931.496 812.018,-943.933 762.399,-931.496 762.445,-911.371 861.59,-911.371 861.637,-931.496"/>
<text text-anchor="middle" x="812.018" y="-922.233" font-family="Times New Roman,serif" font-size="14.00">InstrNet</text>
</g>
<!-- InstrNet&#45;&gt;ЭрТелеком -->
<g id="edge46" class="edge"><title>InstrNet&#45;&gt;ЭрТелеком</title>
<path fill="none" stroke="black" d="M869.784,-921.295C892.899,-919.406 919.968,-917.194 944.769,-915.168"/>
<ellipse fill="none" stroke="black" cx="865.783" cy="-921.622" rx="4" ry="4"/>
<polygon fill="black" stroke="black" points="945.192,-918.645 954.874,-914.342 944.622,-911.668 945.192,-918.645"/>
</g>
<!-- InstrNet&#45;&gt;Мегафон -->
<g id="edge33" class="edge"><title>InstrNet&#45;&gt;Мегафон</title>
<path fill="none" stroke="black" d="M842.045,-911.277C863.887,-899.012 893.264,-879.714 912.583,-855.933 969.504,-785.87 1001.6,-681.433 1014.44,-631.915"/>
<polygon fill="black" stroke="black" points="1017.83,-632.767 1016.88,-622.215 1011.04,-631.054 1017.83,-632.767"/>
</g>
<!-- ТСвязь -->
<g id="node36" class="node"><title>ТСвязь</title>
<polygon fill="none" stroke="black" points="861.637,-363.496 812.018,-375.933 762.399,-363.496 762.445,-343.371 861.59,-343.371 861.637,-363.496"/>
<text text-anchor="middle" x="812.018" y="-354.233" font-family="Times New Roman,serif" font-size="14.00">ТСвязь</text>
</g>
<!-- ТСвязь&#45;&gt;Мегафон -->
<g id="edge34" class="edge"><title>ТСвязь&#45;&gt;Мегафон</title>
<path fill="none" stroke="black" d="M861.672,-362.734C879.245,-366.499 898.261,-373.165 912.583,-384.933 973.995,-435.396 1003.62,-529.275 1015.09,-576.008"/>
<polygon fill="black" stroke="black" points="1011.69,-576.832 1017.39,-585.763 1018.51,-575.227 1011.69,-576.832"/>
</g>
<!-- ТСвязь&#45;&gt;Вымпелком -->
<g id="edge35" class="edge"><title>ТСвязь&#45;&gt;Вымпелком</title>
<path fill="none" stroke="black" d="M861.796,-353.479C894.634,-350.48 937.819,-346.536 970.936,-343.512"/>
<polygon fill="black" stroke="black" points="971.668,-346.959 981.308,-342.564 971.031,-339.988 971.668,-346.959"/>
</g>
<!-- Восток -->
<g id="node37" class="node"><title>Восток</title>
<polygon fill="none" stroke="black" points="860.423,-525.496 812.018,-537.933 763.612,-525.496 763.657,-505.371 860.378,-505.371 860.423,-525.496"/>
<text text-anchor="middle" x="812.018" y="-516.233" font-family="Times New Roman,serif" font-size="14.00">Восток</text>
</g>
<!-- Восток&#45;&gt;Мегафон -->
<g id="edge36" class="edge"><title>Восток&#45;&gt;Мегафон</title>
<path fill="none" stroke="black" d="M846.151,-529.348C865.711,-535.21 890.823,-543.268 912.583,-551.933 936.309,-561.382 962.119,-573.667 982.61,-583.924"/>
<polygon fill="black" stroke="black" points="981.12,-587.093 991.624,-588.477 984.276,-580.844 981.12,-587.093"/>
</g>
<!-- SmIT34 -->
<g id="node38" class="node"><title>SmIT34</title>
<polygon fill="none" stroke="black" points="358.766,-172.496 309.147,-184.933 259.528,-172.496 259.574,-152.371 358.719,-152.371 358.766,-172.496"/>
<text text-anchor="middle" x="309.147" y="-163.233" font-family="Times New Roman,serif" font-size="14.00">SmIT34</text>
</g>
<!-- SmIT34&#45;&gt;КоламбияТелеком -->
<g id="edge48" class="edge"><title>SmIT34&#45;&gt;КоламбияТелеком</title>
<path fill="none" stroke="black" d="M367.138,-171.82C403.042,-174.899 450.117,-178.935 490.714,-182.416"/>
<ellipse fill="none" stroke="black" cx="363.02" cy="-171.467" rx="4" ry="4"/>
<polygon fill="black" stroke="black" points="490.623,-185.921 500.886,-183.288 491.221,-178.946 490.623,-185.921"/>
</g>
<!-- ВолгаЛинк -->
<g id="node39" class="node"><title>ВолгаЛинк</title>
<polygon fill="none" stroke="black" points="1279.55,-1537.5 1212.69,-1549.93 1145.83,-1537.5 1145.9,-1517.37 1279.49,-1517.37 1279.55,-1537.5"/>
<text text-anchor="middle" x="1212.69" y="-1528.23" font-family="Times New Roman,serif" font-size="14.00">ВолгаЛинк</text>
</g>
<!-- ВолгаЛинк&#45;&gt;Ростелеком -->
<g id="edge49" class="edge"><title>ВолгаЛинк&#45;&gt;Ростелеком</title>
<path fill="none" stroke="black" d="M1281.41,-1513.64C1285.84,-1511.1 1290.05,-1508.21 1293.83,-1504.93 1353.9,-1452.92 1385.25,-1360.48 1397.85,-1314.11"/>
<ellipse fill="black" stroke="black" cx="1277.81" cy="-1515.5" rx="4.00002" ry="4.00002"/>
<polygon fill="black" stroke="black" points="1401.31,-1314.71 1400.45,-1304.15 1394.53,-1312.94 1401.31,-1314.71"/>
</g>
<!-- Волгателком -->
<g id="node40" class="node"><title>Волгателком</title>
<polygon fill="none" stroke="black" points="384.681,-264.496 309.147,-276.933 233.613,-264.496 233.683,-244.371 384.61,-244.371 384.681,-264.496"/>
<text text-anchor="middle" x="309.147" y="-255.233" font-family="Times New Roman,serif" font-size="14.00">Волгателком</text>
</g>
<!-- Волгателком&#45;&gt;КоламбияТелеком -->
<g id="edge50" class="edge"><title>Волгателком&#45;&gt;КоламбияТелеком</title>
<path fill="none" stroke="black" d="M383.385,-242.506C404.104,-237.68 426.643,-232.263 447.327,-226.933 469.564,-221.204 493.793,-214.496 515.302,-208.377"/>
<ellipse fill="black" stroke="black" cx="379.437" cy="-243.421" rx="4.00001" ry="4.00001"/>
<polygon fill="black" stroke="black" points="516.322,-211.726 524.976,-205.613 514.399,-204.995 516.322,-211.726"/>
</g>
<!-- ИнсаткомВ -->
<g id="node41" class="node"><title>ИнсаткомВ</title>
<polygon fill="none" stroke="black" points="1280.77,-1483.5 1212.69,-1495.93 1144.62,-1483.5 1144.68,-1463.37 1280.7,-1463.37 1280.77,-1483.5"/>
<text text-anchor="middle" x="1212.69" y="-1474.23" font-family="Times New Roman,serif" font-size="14.00">ИнсаткомВ</text>
</g>
<!-- ИнсаткомВ&#45;&gt;Ростелеком -->
<g id="edge51" class="edge"><title>ИнсаткомВ&#45;&gt;Ростелеком</title>
<path fill="none" stroke="black" d="M1271.08,-1459.87C1279.15,-1455.98 1287.01,-1451.36 1293.83,-1445.93 1339.86,-1409.28 1374.53,-1348.47 1392.01,-1313.31"/>
<ellipse fill="black" stroke="black" cx="1267.27" cy="-1461.59" rx="4.00002" ry="4.00002"/>
<polygon fill="black" stroke="black" points="1395.25,-1314.65 1396.47,-1304.12 1388.95,-1311.59 1395.25,-1314.65"/>
</g>
<!-- Магистраль&#45;&gt;Унико -->
<g id="edge52" class="edge"><title>Магистраль&#45;&gt;Унико</title>
<path fill="none" stroke="black" d="M362.401,-808.615C392.319,-818.722 427.705,-836.104 447.327,-864.933 547.012,-1011.4 396.334,-1107.59 483.327,-1261.93 496.564,-1285.42 521.295,-1303.25 542.214,-1315.04"/>
<ellipse fill="black" stroke="black" cx="358.334" cy="-807.304" rx="4.00001" ry="4.00001"/>
<polygon fill="black" stroke="black" points="540.736,-1318.22 551.201,-1319.87 544.052,-1312.05 540.736,-1318.22"/>
</g>
<!-- Магистраль&#45;&gt;ЮТК -->
<g id="edge69" class="edge"><title>Магистраль&#45;&gt;ЮТК</title>
<path fill="none" stroke="black" stroke-dasharray="1,5" d="M361.134,-808.852C390.945,-819.095 426.665,-836.537 447.327,-864.933 508.978,-949.662 418.381,-1015.7 483.327,-1097.93 551.19,-1183.86 604.006,-1169.87 711.452,-1190.93 799.174,-1208.13 825.65,-1211.75 912.583,-1190.93 1008.93,-1167.86 1109.29,-1108.35 1165.79,-1071"/>
<ellipse fill="none" stroke="black" cx="357.099" cy="-807.525" rx="4.00001" ry="4.00001"/>
<ellipse fill="none" stroke="black" cx="1169.14" cy="-1068.78" rx="4.00002" ry="4.00002"/>
</g>
<!-- Магистраль&#45;&gt;Powernet -->
<g id="edge68" class="edge"><title>Магистраль&#45;&gt;Powernet</title>
<path fill="none" stroke="black" stroke-dasharray="1,5" d="M388.316,-795.933C488.978,-795.933 661.679,-795.933 752.021,-795.933"/>
<ellipse fill="none" stroke="black" cx="384.054" cy="-795.933" rx="4" ry="4"/>
<ellipse fill="none" stroke="black" cx="756.237" cy="-795.933" rx="4" ry="4"/>
</g>
<!-- Магистраль&#45;&gt;Евротелеком -->
<g id="edge70" class="edge"><title>Магистраль&#45;&gt;Евротелеком</title>
<path fill="none" stroke="black" stroke-dasharray="1,5" d="M310.006,-772.965C310.824,-689.9 325.399,-402.514 483.327,-259.933 488.381,-255.37 661.436,-220.017 753.965,-201.368"/>
<ellipse fill="none" stroke="black" cx="309.985" cy="-777.214" rx="4" ry="4"/>
<ellipse fill="none" stroke="black" cx="757.923" cy="-200.571" rx="4.00001" ry="4.00001"/>
</g>
<!-- ФорумNet -->
<g id="node43" class="node"><title>ФорумNet</title>
<polygon fill="none" stroke="black" points="370.867,-1472.5 309.147,-1484.93 247.427,-1472.5 247.485,-1452.37 370.809,-1452.37 370.867,-1472.5"/>
<text text-anchor="middle" x="309.147" y="-1463.23" font-family="Times New Roman,serif" font-size="14.00">ФорумNet</text>
</g>
<!-- ФорумNet&#45;&gt;Унико -->
<g id="edge54" class="edge"><title>ФорумNet&#45;&gt;Унико</title>
<path fill="none" stroke="black" d="M379.105,-1460.17C401.609,-1456.21 426.221,-1449.92 447.327,-1439.93 490.08,-1419.71 530.713,-1382.43 555.097,-1357.41"/>
<ellipse fill="black" stroke="black" cx="374.866" cy="-1460.88" rx="4.00001" ry="4.00001"/>
<polygon fill="black" stroke="black" points="557.738,-1359.71 562.127,-1350.07 552.683,-1354.87 557.738,-1359.71"/>
</g>
<!-- ByteS -->
<g id="node44" class="node"><title>ByteS</title>
<polygon fill="none" stroke="black" points="349.485,-1418.5 309.147,-1430.93 268.809,-1418.5 268.846,-1398.37 349.447,-1398.37 349.485,-1418.5"/>
<text text-anchor="middle" x="309.147" y="-1409.23" font-family="Times New Roman,serif" font-size="14.00">ByteS</text>
</g>
<!-- ByteS&#45;&gt;Унико -->
<g id="edge55" class="edge"><title>ByteS&#45;&gt;Унико</title>
<path fill="none" stroke="black" d="M357.422,-1405.99C384.128,-1401.48 417.945,-1394.78 447.327,-1385.93 480.34,-1375.99 516.473,-1360.76 542.423,-1349"/>
<ellipse fill="black" stroke="black" cx="353.321" cy="-1406.66" rx="4.00001" ry="4.00001"/>
<polygon fill="black" stroke="black" points="544.21,-1352.03 551.843,-1344.68 541.294,-1345.67 544.21,-1352.03"/>
</g>
<!-- АвантекПлюс -->
<g id="node45" class="node"><title>АвантекПлюс</title>
<polygon fill="none" stroke="black" points="388.715,-1364.5 309.147,-1376.93 229.579,-1364.5 229.653,-1344.37 388.64,-1344.37 388.715,-1364.5"/>
<text text-anchor="middle" x="309.147" y="-1355.23" font-family="Times New Roman,serif" font-size="14.00">АвантекПлюс</text>
</g>
<!-- АвантекПлюс&#45;&gt;Унико -->
<g id="edge56" class="edge"><title>АвантекПлюс&#45;&gt;Унико</title>
<path fill="none" stroke="black" d="M396.889,-1350.2C441.596,-1345.7 494.361,-1340.39 531.441,-1336.66"/>
<ellipse fill="black" stroke="black" cx="392.796" cy="-1350.61" rx="4" ry="4"/>
<polygon fill="black" stroke="black" points="531.865,-1340.13 541.464,-1335.65 531.164,-1333.17 531.865,-1340.13"/>
</g>
<!-- Robor -->
<g id="node46" class="node"><title>Robor</title>
<polygon fill="none" stroke="black" points="1255.35,-325.496 1212.69,-337.933 1170.04,-325.496 1170.08,-305.371 1255.31,-305.371 1255.35,-325.496"/>
<text text-anchor="middle" x="1212.69" y="-316.233" font-family="Times New Roman,serif" font-size="14.00">Robor</text>
</g>
<!-- Robor&#45;&gt;Транстелеком -->
<g id="edge57" class="edge"><title>Robor&#45;&gt;Транстелеком</title>
<path fill="none" stroke="black" d="M1263.82,-313.895C1285.62,-311.27 1311.52,-308.15 1335.12,-305.307"/>
<ellipse fill="black" stroke="black" cx="1259.57" cy="-314.408" rx="4.00001" ry="4.00001"/>
<polygon fill="black" stroke="black" points="1335.57,-308.778 1345.08,-304.107 1334.73,-301.828 1335.57,-308.778"/>
</g>
<!-- ВистОнЛайн -->
<g id="node47" class="node"><title>ВистОнЛайн</title>
<polygon fill="none" stroke="black" points="385.288,-1310.5 309.147,-1322.93 233.006,-1310.5 233.077,-1290.37 385.217,-1290.37 385.288,-1310.5"/>
<text text-anchor="middle" x="309.147" y="-1301.23" font-family="Times New Roman,serif" font-size="14.00">ВистОнЛайн</text>
</g>
<!-- ВистОнЛайн&#45;&gt;Унико -->
<g id="edge59" class="edge"><title>ВистОнЛайн&#45;&gt;Унико</title>
<path fill="none" stroke="black" d="M385.864,-1312.55C432.599,-1317.26 491.091,-1323.15 531.265,-1327.19"/>
<ellipse fill="black" stroke="black" cx="381.816" cy="-1312.15" rx="4" ry="4"/>
<polygon fill="black" stroke="black" points="531.02,-1330.68 541.32,-1328.2 531.721,-1323.72 531.02,-1330.68"/>
</g>
<!-- ИнформационныйСервис -->
<g id="node48" class="node"><title>ИнформационныйСервис</title>
<polygon fill="none" stroke="black" points="447.507,-1256.5 309.147,-1268.93 170.786,-1256.5 170.915,-1236.37 447.378,-1236.37 447.507,-1256.5"/>
<text text-anchor="middle" x="309.147" y="-1247.23" font-family="Times New Roman,serif" font-size="14.00">ИнформационныйСервис</text>
</g>
<!-- ИнформационныйСервис&#45;&gt;Унико -->
<g id="edge72" class="edge"><title>ИнформационныйСервис&#45;&gt;Унико</title>
<path fill="none" stroke="black" stroke-dasharray="1,5" d="M398.315,-1263.49C414.899,-1267.18 431.875,-1271.91 447.327,-1277.93 464.799,-1284.74 466.335,-1292 483.327,-1299.93 501.117,-1308.24 521.673,-1315.43 539.11,-1320.88"/>
<ellipse fill="none" stroke="black" cx="394.125" cy="-1262.59" rx="4.00001" ry="4.00001"/>
<ellipse fill="none" stroke="black" cx="543.056" cy="-1322.09" rx="4.00001" ry="4.00001"/>
</g>
</g>
</svg>
